<svg width="20.222168" height="22.069336" viewBox="0 0 20.2222 22.0693" fill="none" xmlns="http://www.w3.org/2000/svg" xmlns:xlink="http://www.w3.org/1999/xlink">
	<path d="M0.756 20.5787L0.756 14.2787L3.33 14.2787C4.833 14.2787 5.742 15.1697 5.742 16.4747C5.742 17.9327 4.608 18.6887 3.195 18.6887L2.142 18.6887L2.142 20.5787L0.756 20.5787ZM2.142 17.4557L3.24 17.4557C3.933 17.4557 4.338 17.0417 4.338 16.4837C4.338 15.8627 3.906 15.5297 3.213 15.5297L2.142 15.5297L2.142 17.4557ZM6.76772 20.5787L6.76772 14.2787L9.22472 14.2787C11.2047 14.2787 12.5727 15.6377 12.5727 17.4287C12.5727 19.2017 11.2047 20.5787 9.22472 20.5787L6.76772 20.5787ZM8.15372 19.3277L9.22472 19.3277C10.3587 19.3277 11.1237 18.5627 11.1237 17.4287C11.1237 16.3127 10.3587 15.5297 9.22472 15.5297L8.15372 15.5297L8.15372 19.3277ZM13.8078 20.5787L13.8078 14.2787L18.6048 14.2787L18.6048 15.5387L15.1938 15.5387L15.1938 16.8797L18.1998 16.8797L18.1998 18.1397L15.1938 18.1397L15.1938 20.5787L13.8078 20.5787Z" fill="#FFFFFF" fill-opacity="1.000000" fill-rule="evenodd"/>
	<path d="M9.82764 0L9.82764 8.87207" stroke="#FFFFFF" stroke-opacity="1.000000" stroke-width="1.300000"/>
	<path d="M5.65723 4.99219L9.82764 9.16309L13.9976 4.99219" stroke="#FFFFFF" stroke-opacity="1.000000" stroke-width="1.300000"/>
</svg>
