<svg width="26" height="28" viewBox="0 0 26 28" fill="none" xmlns="http://www.w3.org/2000/svg">
<path d="M1.008 25.0894V16.6894H4.44C6.444 16.6894 7.656 17.8774 7.656 19.6174C7.656 21.5614 6.144 22.5694 4.26 22.5694H2.856V25.0894H1.008ZM2.856 20.9254H4.32C5.244 20.9254 5.784 20.3734 5.784 19.6294C5.784 18.8014 5.208 18.3574 4.284 18.3574H2.856V20.9254ZM9.02363 25.0894V16.6894H12.2996C14.9396 16.6894 16.7636 18.5014 16.7636 20.8894C16.7636 23.2534 14.9396 25.0894 12.2996 25.0894H9.02363ZM10.8716 23.4214H12.2996C13.8116 23.4214 14.8316 22.4014 14.8316 20.8894C14.8316 19.4014 13.8116 18.3574 12.2996 18.3574H10.8716V23.4214ZM18.4103 25.0894V16.6894H24.8063V18.3694H20.2583V20.1574H24.2663V21.8374H20.2583V25.0894H18.4103Z" fill="white"/>
<path d="M12.6357 0V11.407" stroke="white" stroke-width="2" stroke-miterlimit="10"/>
<path d="M7.27393 6.41901L12.6359 11.782L17.9969 6.41901" stroke="white" stroke-width="2" stroke-miterlimit="10"/>
</svg>
