<svg width="100%" height="100%" viewBox="0 0 19.25 13.49"  fill="#FC0D1B" xmlns="http://www.w3.org/2000/svg" xmlns:xlink="http://www.w3.org/1999/xlink">
	<path id="Vector" d="M8.92 -0.23C10.25 -0.29 11.59 -0.19 12.98 -0.18C13.6 -0.17 14.22 -0.14 14.85 -0.1C15.49 -0.06 16.15 -0.04 16.73 0.08C17.96 0.35 18.56 1.03 18.81 2.25C18.93 2.83 18.98 3.44 19.03 4.12C19.16 5.92 19.15 7.96 18.95 9.82C18.81 11.14 18.51 12.16 17.55 12.65C17.09 12.88 16.48 12.99 15.85 13.04C13.96 13.18 12.12 13.24 10.08 13.24C8.14 13.24 5.99 13.2 4.24 13.11C3.59 13.08 2.97 13.05 2.37 12.94C1.11 12.7 0.48 12.05 0.22 10.84C-0.03 9.71 -0.05 8.42 -0.12 7.04C-0.15 6.48 -0.11 5.85 -0.08 5.18C-0.06 4.54 -0.01 3.87 0.06 3.27C0.21 1.94 0.43 0.92 1.4 0.39C1.83 0.14 2.45 0.02 3.09 -0.03C3.7 -0.08 4.38 -0.12 4.93 -0.15C5.61 -0.17 6.27 -0.2 6.92 -0.2C7.62 -0.21 8.16 -0.19 8.92 -0.23ZM7.59 9.38C9.26 8.42 10.93 7.47 12.58 6.49C10.92 5.53 9.26 4.57 7.59 3.61C7.59 5.53 7.59 7.46 7.59 9.38Z" />
</svg>
