<svg width="100%" height="100%" viewBox="0 0 45 45" fill="none" xmlns="http://www.w3.org/2000/svg">
<g clip-path="url(#clip0_204_498)">
<path d="M22.5 0C10.0728 0 0 10.0737 0 22.5C0 34.9263 10.0728 45 22.5 45C34.9281 45 45 34.9263 45 22.5C45 10.0737 34.9281 0 22.5 0Z" fill="white"/>
<path fill-rule="evenodd" clip-rule="evenodd" d="M21.7601 13.8583C23.4701 13.7773 25.1918 13.9015 26.9765 13.9168C27.7721 13.9249 28.5686 13.9753 29.3831 14.0212C30.2102 14.068 31.0517 14.0986 31.805 14.2588C33.3818 14.5945 34.154 15.4711 34.4798 17.0371C34.6364 17.7895 34.7003 18.577 34.7615 19.4446C34.9289 21.7657 34.9181 24.3865 34.658 26.7697C34.4735 28.4662 34.0883 29.7874 32.8598 30.4102C32.2658 30.7108 31.4855 30.8539 30.6755 30.9151C28.2446 31.0978 25.8794 31.168 23.246 31.168C20.753 31.168 17.9918 31.123 15.7427 31.0042C14.9048 30.9592 14.1092 30.9277 13.3361 30.781C11.7242 30.4741 10.9124 29.6416 10.5722 28.0918C10.2518 26.6311 10.2311 24.9796 10.1411 23.2039C10.1042 22.4812 10.1501 21.6757 10.1852 20.8108C10.2185 19.981 10.277 19.1215 10.3634 18.3592C10.5578 16.6429 10.8512 15.3307 12.0869 14.6449C12.6485 14.3326 13.445 14.176 14.2703 14.1094C15.0542 14.0464 15.9218 13.9897 16.6328 13.9609C17.5112 13.9249 18.3581 13.8943 19.1888 13.8871C20.0942 13.879 20.7845 13.9051 21.7601 13.8583ZM20.0519 26.2054C22.2011 24.9769 24.3503 23.7484 26.4698 22.4911C24.326 21.2626 22.1984 20.0179 20.0519 18.7912C20.0519 21.2626 20.0519 23.734 20.0519 26.2054Z" fill="#FC0D1B"/>
</g>
<defs>
<clipPath id="clip0_204_498">
<rect width="45" height="45" fill="white"/>
</clipPath>
</defs>
</svg>
