<svg width="29" height="28" viewBox="0 0 29 28" fill="none" xmlns="http://www.w3.org/2000/svg">
<path d="M10.4442 13.204L7.5 13.1926L7.48866 16.1005L10.4329 16.112L10.4442 13.204Z" fill="#7D868A"/>
<path d="M15.7919 13.204L12.8477 13.1926L12.8363 16.1005L15.7806 16.112L15.7919 13.204Z" fill="#7D868A"/>
<path d="M21.1415 13.204L18.1973 13.1926L18.1859 16.1005L21.1302 16.112L21.1415 13.204Z" fill="#7D868A"/>
<path d="M25.856 27.7069C25.9837 27.7069 26.1118 27.6745 26.2273 27.609C26.4792 27.4663 26.6269 27.1919 26.6074 26.903L26.0939 19.3036C27.6858 17.2561 28.5254 14.8698 28.5254 12.3835C28.5254 9.05422 27.0272 5.93088 24.3069 3.58886C21.6187 1.27457 18.0518 0 14.2631 0C10.4745 0 6.90749 1.27457 4.21937 3.58886C1.49899 5.93084 0.000844955 9.05422 0.000844955 12.3835C0.000844955 15.7129 1.49899 18.8362 4.21937 21.1782C6.90749 23.4925 10.4745 24.767 14.2631 24.767C16.2341 24.767 18.1374 24.4258 19.927 23.7522L25.4263 27.5724C25.555 27.6618 25.7053 27.7069 25.856 27.7069ZM14.2632 1.50624C21.2969 1.50624 27.0192 6.38577 27.0192 12.3835C27.0192 14.6147 26.2309 16.7597 24.7394 18.5867C24.6186 18.7347 24.5585 18.923 24.5714 19.1137L24.9989 25.4415L20.4564 22.286C20.2473 22.1407 19.9789 22.1108 19.743 22.2069C18.0237 22.9062 16.18 23.2608 14.2631 23.2608C7.2294 23.2608 1.50709 18.3813 1.50709 12.3835C1.50714 6.38577 7.2295 1.50624 14.2632 1.50624Z" fill="#7D868A"/>
</svg>
