<svg width="100%" height="100%" viewBox="0 0 21.3711 32.5" fill="none" xmlns="http://www.w3.org/2000/svg" xmlns:xlink="http://www.w3.org/1999/xlink">
	<path id="Vector" d="M11.709 20.2612L9.48828 32.5C9.48828 32.5 21.9082 17.4163 21.3535 11.1251L17.1895 13.5306L11.709 20.2612Z" fill="#E00000" fill-opacity="1.000000" fill-rule="nonzero"/>
	<path id="Vector" d="M21.3711 10.6857C21.3711 16.5873 16.5879 21.3715 10.6855 21.3715C4.7832 21.3715 0 16.5873 0 10.6857C0 4.78418 4.7832 0 10.6855 0C16.5879 0 21.3711 4.78418 21.3711 10.6857Z" fill="#FF3334" fill-opacity="1.000000" fill-rule="evenodd"/>
	<path id="Vector" d="M14.9863 10.6858C14.9863 13.0618 13.0605 14.9879 10.6855 14.9879C8.30859 14.9879 6.38281 13.0618 6.38281 10.6858C6.38281 8.30994 8.30859 6.38379 10.6855 6.38379C13.0605 6.38379 14.9863 8.30994 14.9863 10.6858Z" fill="#FFFFFF" fill-opacity="1.000000" fill-rule="evenodd"/>
</svg>
