<svg width="100%" height="100%" viewBox="0 0 20.6191 29" fill="none" xmlns="http://www.w3.org/2000/svg" xmlns:xlink="http://www.w3.org/1999/xlink">
	<path id="Vector" d="M20.5996 4.83325C20.5996 7.56006 15.875 14.1284 15.875 14.1284C15.875 14.1284 11.1523 7.6427 11.1523 4.83325C11.1523 2.22473 13.2676 0 15.875 0C18.4844 0 20.5996 2.22473 20.5996 4.83325Z" fill="#FFFFFF" fill-opacity="1.000000" fill-rule="nonzero"/>
	<path id="Vector" d="M17.9805 4.72327C17.9805 5.88684 17.0371 6.83008 15.875 6.83008C14.7109 6.83008 13.7676 5.88684 13.7676 4.72327C13.7676 3.55969 14.7109 2.61646 15.875 2.61646C17.0371 2.61646 17.9805 3.55969 17.9805 4.72327Z" fill="#0468FF" fill-opacity="1.000000" fill-rule="evenodd"/>
	<path id="Vector" d="M20.6191 25.3029L17.625 22.3079L17.625 15.3125L14.0859 15.3125L14.0859 18.7688L10.3203 15.0032L10.3105 15.0134L10.3008 15.0033L0 25.3031L3.69727 28.9998L10.3105 22.3867L16.9238 28.9999L20.6191 25.3029Z" fill="#FFFFFF" fill-opacity="1.000000" fill-rule="nonzero"/>
</svg>
