<svg width="100%" height="100%" viewBox="0 0 107 40" fill="none" xmlns="http://www.w3.org/2000/svg">
<path fill-rule="evenodd" clip-rule="evenodd" d="M18.7106 8.70962C17.2109 8.70962 15.9961 7.48245 15.9961 5.9679C15.9961 4.45335 17.2109 3.22521 18.7106 3.22521C20.2084 3.22521 21.4242 4.45335 21.4242 5.9679C21.4242 7.48245 20.2094 8.70962 18.7106 8.70962ZM18.7106 0.000970866C15.4406 0.000970866 12.7901 2.67764 12.7901 5.98149C12.7878 7.28428 13.2099 8.55227 13.9923 9.5931L14.3859 10.1436L18.7097 15.4125L23.428 9.59213C24.21 8.55114 24.6317 7.28318 24.6292 5.98052C24.6292 2.67764 21.9787 0 18.7097 0L18.7106 0.000970866ZM20.9695 27.7871V17.7513H16.5846V22.4648L12.2026 17.1455L0 31.9569L4.05914 35.3705L12.2026 25.4871L20.3461 35.3705L24.4043 31.9569L20.9695 27.7871Z" fill="#0468FF"/>
<path fill-rule="evenodd" clip-rule="evenodd" d="M48.1289 18.3311H44.2404V32.0105H36.5536V18.332H32.666V35.6454H46.985V39.1192H50.508V32.0125H48.1289V18.3301V18.3311ZM57.1159 29.9873V18.3311H53.2283V35.6445H57.1159L65.2593 23.9883V35.6445H69.1479V18.3311H65.2603L57.1159 29.9873ZM102.654 18.3311V25.1339H94.7165V18.3311H90.828V35.6445H94.7165V28.7921H102.654V35.6445H106.52V18.3311H102.654ZM83.1944 28.3339C83.1944 29.6931 82.8134 30.7562 82.063 31.495C81.303 32.2426 80.1997 32.6212 78.7843 32.6212C77.0131 32.6212 76.0378 31.8154 76.0378 30.3504C76.0378 28.8232 77.3136 27.9115 79.4494 27.9115H83.1934L83.1944 28.3339ZM79.9486 18C77.9166 18 76.1668 18.5495 74.8871 19.5893C73.6898 20.5602 72.9811 21.9184 72.8851 23.4145H76.7184C76.8929 22.6106 77.7431 21.3572 79.9486 21.3572C81.9806 21.3572 83.1934 22.5834 83.1934 24.6368V24.7223H79.2826C76.9675 24.7223 75.1789 25.2514 73.9661 26.2951C72.8047 27.295 72.2162 28.7154 72.2162 30.5183C72.2162 32.0727 72.8212 33.4678 73.9225 34.4455C75.049 35.4484 76.6156 35.9785 78.4518 35.9785C81.3272 35.9785 82.8919 34.561 83.43 33.9532L83.6966 35.4367L83.7334 35.6416H87.016V24.6368C87.016 20.5437 84.3073 18 79.9486 18Z" fill="#162341"/>
</svg>
