<svg width="100%" height="100%" viewBox="0 0 104 30" fill="none" xmlns="http://www.w3.org/2000/svg">
<path d="M98.5177 26.1225C100.545 26.1225 101.981 25.7546 103.051 24.9622V21.3678C101.953 22.132 100.629 22.6131 98.7711 22.6131C95.6458 22.6131 94.3506 20.1792 94.3506 16.3301C94.3506 12.283 95.9273 10.217 98.7992 10.217C100.489 10.217 102.15 10.8113 103.023 11.3773V7.64151C102.093 7.13208 100.489 6.76416 98.2924 6.76416C92.6894 6.76416 89.7893 10.8113 89.7893 16.4717C89.8174 22.6697 92.6612 26.1225 98.5177 26.1225ZM71.1218 24.481V20.8867C69.7703 21.8207 67.4615 22.6414 65.3498 22.6414C62.14 22.6414 60.9293 21.1131 60.7322 17.9999H71.3189V15.6792C71.3189 9.19811 68.4752 6.76416 64.111 6.76416C58.7613 6.76416 56.2273 10.8679 56.2273 16.5C56.2273 22.981 59.4089 26.1225 64.9838 26.1225C67.7713 26.1225 69.8267 25.3584 71.1218 24.481ZM30.9431 7.10378V14.4622H25.0867V7.10378H20.6943V25.7546H25.0867V17.9716H30.9431V25.7546H35.3355V7.10378H30.9431ZM55.1292 22.2452H53.1864V7.10378H40.4036V8.68868C40.4036 13.2453 40.122 19.132 38.5734 22.2452H37.1656V29.9999H41.2201V25.7546H51.0466V29.9999H55.101V22.2452H55.1292ZM85.1154 25.7546H90.099L83.06 15.7075L89.2543 7.10378H84.8338L78.6395 15.7075V7.10378H74.2472V25.7546H78.6395V16.5849L85.1154 25.7546ZM63.9983 10.217C66.1664 10.217 66.8421 12.0283 66.8421 14.3773V14.7452H60.7322C60.8449 11.7736 61.9148 10.217 63.9983 10.217ZM48.7941 22.2452H42.5997C43.8105 19.4433 44.1483 14.349 44.1483 11.1226V10.5566H48.7941V22.2452Z" fill="#37393F"/>
<path d="M17.0344 25.7546H12.5576V3.48111H10.5585C6.89823 3.48111 4.98362 5.32072 4.98362 8.06599C4.98362 11.1792 6.30696 12.6226 9.03809 14.4622L11.2906 15.9905L4.81469 25.7546H0L5.8283 17.0376C2.47773 14.632 0.591277 12.2829 0.591277 8.32071C0.591277 3.3679 4.02632 0 10.5304 0H17.0063L17.0344 25.7546Z" fill="#FC3F1D"/>
</svg>
