<svg version="1.1" id="Layer_1" xmlns="http://www.w3.org/2000/svg" xmlns:xlink="http://www.w3.org/1999/xlink" x="0px" y="0px"
	width="100%" viewBox="0 0 344 301" enable-background="new 0 0 344 301" xml:space="preserve">
<path fill="#3B3A40" opacity="1.000000" stroke="none"
	d="
M2.447038,179.200607
	C2.110372,178.588425 2.064959,178.114975 2.087642,177.289719
	C2.685948,176.545425 3.276556,176.213348 3.737798,175.751953
	C59.384247,120.087044 115.021118,64.412567 170.794937,8.446605
	C171.120865,8.114532 171.310364,8.074446 171.920654,8.386465
	C227.978897,64.412651 283.615906,120.087227 339.262421,175.752274
	C339.723724,176.213730 340.314026,176.546188 340.844116,176.938873
	C340.889587,177.412155 340.935059,177.885452 340.912415,178.710419
	C330.884521,189.574097 320.924805,200.086090 310.546387,211.039993
	C263.529724,164.029846 217.689270,118.195732 171.928406,72.441177
	C125.491890,118.882912 79.931458,164.448471 33.508797,210.876343
	C22.873297,199.975922 12.805794,189.657639 2.447038,179.200607
z"/>
<path fill="#2A837E" opacity="1.000000" stroke="none"
	d="
M310.026642,295.388275
	C309.046661,295.897583 308.051025,295.993408 307.055389,295.993408
	C215.999893,295.992981 124.944405,295.985260 33.423191,295.912262
	C32.957466,281.094788 32.957466,266.343018 32.957466,250.986755
	C71.631447,250.986755 109.799461,250.986755 148.724426,251.271240
	C163.398941,251.664688 177.316437,251.792694 191.234207,251.839691
	C192.159882,251.842819 193.087631,251.230469 194.014404,250.904404
	C232.415649,250.904404 270.816895,250.904404 310.010986,250.904404
	C310.010986,265.820892 310.010986,280.375458 310.026642,295.388275
z"/>
<path fill="#AD9F94" opacity="1.000000" stroke="none"
	d="
M194.008377,250.444763
	C193.087631,251.230469 192.159882,251.842819 191.234207,251.839691
	C177.316437,251.792694 163.398941,251.664688 149.185638,251.248108
	C148.889908,227.174164 148.889908,203.407852 148.889908,179.321365
	C163.980392,179.321365 178.686646,179.321365 194.002350,179.321365
	C194.002350,202.869446 194.002350,226.427292 194.008377,250.444763
z"/>
</svg>
