<svg width="326" height="62" viewBox="0 0 326 62" fill="#398281" xmlns="http://www.w3.org/2000/svg">
<path d="M127.992 7.912C131.592 7.912 134.064 9.808 134.064 12.424C134.064 14.512 132.84 15.64 131.352 16.288C133.152 16.864 134.496 18.112 134.496 20.248C134.496 23.152 132.024 25.288 128.112 25.288C124.584 25.288 122.448 24.304 120.648 22.48L122.616 19.912C123.984 21.256 125.784 22.048 127.968 22.048C129.528 22.048 130.8 21.328 130.8 20.032C130.8 18.64 129.384 18.064 127.464 18.064H125.52V14.992H127.416C129.36 14.992 130.416 14.32 130.416 13.048C130.416 11.872 129.312 11.176 127.704 11.176C125.64 11.176 124.296 11.872 123.168 13.024L121.224 10.672C122.784 9.04 124.8 7.912 127.992 7.912ZM136.279 25L143.479 8.08H146.887L154.087 25H150.223L148.687 21.232H141.583L140.047 25H136.279ZM142.903 17.968H147.367L145.135 12.52L142.903 17.968ZM160.376 11.536V25H156.68V8.2H168.416V11.536H160.376ZM179.184 25.288C174 25.288 170.28 21.424 170.28 16.6C170.28 11.824 174.048 7.912 179.232 7.912C184.416 7.912 188.136 11.776 188.136 16.6C188.136 21.376 184.368 25.288 179.184 25.288ZM179.232 21.88C182.208 21.88 184.272 19.528 184.272 16.6C184.272 13.72 182.16 11.32 179.184 11.32C176.208 11.32 174.144 13.672 174.144 16.6C174.144 19.48 176.256 21.88 179.232 21.88ZM191.414 25V8.2H198.278C202.286 8.2 204.71 10.576 204.71 14.056C204.71 17.944 201.686 19.96 197.918 19.96H195.11V25H191.414ZM195.11 16.672H198.038C199.886 16.672 200.966 15.568 200.966 14.08C200.966 12.424 199.814 11.536 197.966 11.536H195.11V16.672ZM215.606 25.288C210.422 25.288 206.702 21.424 206.702 16.6C206.702 11.824 210.47 7.912 215.654 7.912C220.838 7.912 224.558 11.776 224.558 16.6C224.558 21.376 220.79 25.288 215.606 25.288ZM215.654 21.88C218.63 21.88 220.694 19.528 220.694 16.6C220.694 13.72 218.582 11.32 215.606 11.32C212.63 11.32 210.566 13.672 210.566 16.6C210.566 19.48 212.678 21.88 215.654 21.88ZM226.06 28.504V21.664H227.644C228.892 18.76 229.492 15.904 229.492 10.168V8.2H241.708V21.664H243.724L243.244 28.504H240.148V25H229.636L229.396 28.504H226.06ZM238.012 11.536H233.044V13.24C233.044 16.792 232.492 19.336 231.532 21.664H238.012V11.536ZM246.305 25V8.2H250.001V14.848H256.817V8.2H260.513V25H256.817V18.256H250.001V25H246.305ZM264.539 25V8.2H268.235V13.912H271.811C275.699 13.912 277.955 16.072 277.955 19.36C277.955 22.816 275.507 25 271.571 25H264.539ZM271.499 17.08H268.235V21.664H271.523C273.347 21.664 274.283 20.872 274.283 19.312C274.283 17.896 273.347 17.08 271.499 17.08ZM279.827 25V8.2H283.523V25H279.827ZM302.027 8.2V25H298.379V13.984L291.035 25H287.555V8.2H291.203V19.216L298.595 8.2H302.027ZM294.851 6.928C292.643 6.928 291.155 5.584 290.819 3.28L292.955 2.896C293.267 3.88 293.843 4.504 294.851 4.504C295.859 4.504 296.435 3.88 296.747 2.896L298.883 3.28C298.547 5.584 297.059 6.928 294.851 6.928ZM129.888 55.288C124.944 55.288 121.272 51.472 121.272 46.6C121.272 41.824 124.872 37.912 130.032 37.912C133.2 37.912 134.976 39.112 136.536 40.648L134.328 43.192C133.032 42.016 131.928 41.32 130.008 41.32C127.176 41.32 125.136 43.672 125.136 46.6C125.136 49.48 127.128 51.88 130.008 51.88C131.928 51.88 133.104 51.112 134.424 49.912L136.776 52.432C135.048 54.28 133.128 55.288 129.888 55.288ZM143.647 55V41.608H138.535V38.2H152.455V41.608H147.343V55H143.647ZM169.769 38.2V55H166.121V43.984L158.777 55H155.297V38.2H158.945V49.216L166.337 38.2H169.769ZM176.045 38.2H188.045V55H184.349V41.536H179.501V42.808C179.501 52.696 177.893 55.216 174.053 55.216C173.453 55.216 172.565 55.12 172.109 55L172.349 51.952C172.517 51.976 172.685 52 172.925 52C174.917 52 176.045 50.728 176.045 41.68V38.2ZM192.071 55V38.2H195.767V43.912H199.343C203.231 43.912 205.487 46.072 205.487 49.36C205.487 52.816 203.039 55 199.103 55H192.071ZM199.031 47.08H195.767V51.664H199.055C200.879 51.664 201.815 50.872 201.815 49.312C201.815 47.896 200.879 47.08 199.031 47.08Z"/>
<rect width="104" height="60" />
<path d="M17.266 37V20.2H20.962V33.64H29.338V37H17.266ZM39.3244 37.288C34.1404 37.288 30.4204 33.424 30.4204 28.6C30.4204 23.824 34.1884 19.912 39.3724 19.912C44.5564 19.912 48.2764 23.776 48.2764 28.6C48.2764 33.376 44.5084 37.288 39.3244 37.288ZM39.3724 33.88C42.3484 33.88 44.4124 31.528 44.4124 28.6C44.4124 25.72 42.3004 23.32 39.3244 23.32C36.3484 23.32 34.2844 25.672 34.2844 28.6C34.2844 31.48 36.3964 33.88 39.3724 33.88ZM59.6431 37.288C54.4111 37.288 50.8111 33.616 50.8111 28.6C50.8111 23.824 54.5311 19.912 59.6191 19.912C62.6431 19.912 64.4671 20.728 66.2191 22.216L63.8911 25.024C62.5951 23.944 61.4431 23.32 59.4991 23.32C56.8111 23.32 54.6751 25.696 54.6751 28.6C54.6751 31.672 56.7871 33.928 59.7631 33.928C61.1071 33.928 62.3071 33.592 63.2431 32.92V30.52H59.5231V27.328H66.8191V34.624C65.0911 36.088 62.7151 37.288 59.6431 37.288ZM78.5354 37.288C73.3514 37.288 69.6314 33.424 69.6314 28.6C69.6314 23.824 73.3994 19.912 78.5834 19.912C83.7674 19.912 87.4874 23.776 87.4874 28.6C87.4874 33.376 83.7194 37.288 78.5354 37.288ZM78.5834 33.88C81.5594 33.88 83.6234 31.528 83.6234 28.6C83.6234 25.72 81.5114 23.32 78.5354 23.32C75.5594 23.32 73.4954 25.672 73.4954 28.6C73.4954 31.48 75.6074 33.88 78.5834 33.88Z" fill="white"/>
</svg>
