<svg width="246" height="46" viewBox="0 0 246 46" fill="#398281" xmlns="http://www.w3.org/2000/svg">
<rect width="82" height="46"/>
<path d="M14.9495 30V17.4H17.7215V27.48H24.0035V30H14.9495ZM31.4933 30.216C27.6053 30.216 24.8153 27.318 24.8153 23.7C24.8153 20.118 27.6413 17.184 31.5293 17.184C35.4173 17.184 38.2073 20.082 38.2073 23.7C38.2073 27.282 35.3813 30.216 31.4933 30.216ZM31.5293 27.66C33.7613 27.66 35.3093 25.896 35.3093 23.7C35.3093 21.54 33.7253 19.74 31.4933 19.74C29.2613 19.74 27.7133 21.504 27.7133 23.7C27.7133 25.86 29.2973 27.66 31.5293 27.66ZM46.7323 30.216C42.8083 30.216 40.1083 27.462 40.1083 23.7C40.1083 20.118 42.8983 17.184 46.7143 17.184C48.9823 17.184 50.3503 17.796 51.6643 18.912L49.9183 21.018C48.9463 20.208 48.0823 19.74 46.6243 19.74C44.6083 19.74 43.0063 21.522 43.0063 23.7C43.0063 26.004 44.5903 27.696 46.8223 27.696C47.8303 27.696 48.7303 27.444 49.4323 26.94V25.14H46.6423V22.746H52.1143V28.218C50.8183 29.316 49.0363 30.216 46.7323 30.216ZM60.9015 30.216C57.0135 30.216 54.2235 27.318 54.2235 23.7C54.2235 20.118 57.0495 17.184 60.9375 17.184C64.8255 17.184 67.6155 20.082 67.6155 23.7C67.6155 27.282 64.7895 30.216 60.9015 30.216ZM60.9375 27.66C63.1695 27.66 64.7175 25.896 64.7175 23.7C64.7175 21.54 63.1335 19.74 60.9015 19.74C58.6695 19.74 57.1215 21.504 57.1215 23.7C57.1215 25.86 58.7055 27.66 60.9375 27.66Z" fill="white"/>
<path d="M101.994 6.184C104.694 6.184 106.548 7.606 106.548 9.568C106.548 11.134 105.63 11.98 104.514 12.466C105.864 12.898 106.872 13.834 106.872 15.436C106.872 17.614 105.018 19.216 102.084 19.216C99.438 19.216 97.836 18.478 96.486 17.11L97.962 15.184C98.988 16.192 100.338 16.786 101.976 16.786C103.146 16.786 104.1 16.246 104.1 15.274C104.1 14.23 103.038 13.798 101.598 13.798H100.14V11.494H101.562C103.02 11.494 103.812 10.99 103.812 10.036C103.812 9.154 102.984 8.632 101.778 8.632C100.23 8.632 99.222 9.154 98.376 10.018L96.918 8.254C98.088 7.03 99.6 6.184 101.994 6.184ZM108.209 19L113.609 6.31H116.165L121.565 19H118.667L117.515 16.174H112.187L111.035 19H108.209ZM113.177 13.726H116.525L114.851 9.64L113.177 13.726ZM126.282 8.902V19H123.51V6.4H132.312V8.902H126.282ZM140.388 19.216C136.5 19.216 133.71 16.318 133.71 12.7C133.71 9.118 136.536 6.184 140.424 6.184C144.312 6.184 147.102 9.082 147.102 12.7C147.102 16.282 144.276 19.216 140.388 19.216ZM140.424 16.66C142.656 16.66 144.204 14.896 144.204 12.7C144.204 10.54 142.62 8.74 140.388 8.74C138.156 8.74 136.608 10.504 136.608 12.7C136.608 14.86 138.192 16.66 140.424 16.66ZM149.561 19V6.4H154.709C157.715 6.4 159.533 8.182 159.533 10.792C159.533 13.708 157.265 15.22 154.439 15.22H152.333V19H149.561ZM152.333 12.754H154.529C155.915 12.754 156.725 11.926 156.725 10.81C156.725 9.568 155.861 8.902 154.475 8.902H152.333V12.754ZM167.704 19.216C163.816 19.216 161.026 16.318 161.026 12.7C161.026 9.118 163.852 6.184 167.74 6.184C171.628 6.184 174.418 9.082 174.418 12.7C174.418 16.282 171.592 19.216 167.704 19.216ZM167.74 16.66C169.972 16.66 171.52 14.896 171.52 12.7C171.52 10.54 169.936 8.74 167.704 8.74C165.472 8.74 163.924 10.504 163.924 12.7C163.924 14.86 165.508 16.66 167.74 16.66ZM175.545 21.628V16.498H176.733C177.669 14.32 178.119 12.178 178.119 7.876V6.4H187.281V16.498H188.793L188.433 21.628H186.111V19H178.227L178.047 21.628H175.545ZM184.509 8.902H180.783V10.18C180.783 12.844 180.369 14.752 179.649 16.498H184.509V8.902ZM190.729 19V6.4H193.501V11.386H198.613V6.4H201.385V19H198.613V13.942H193.501V19H190.729ZM204.405 19V6.4H207.177V10.684H209.859C212.775 10.684 214.467 12.304 214.467 14.77C214.467 17.362 212.631 19 209.679 19H204.405ZM209.625 13.06H207.177V16.498H209.643C211.011 16.498 211.713 15.904 211.713 14.734C211.713 13.672 211.011 13.06 209.625 13.06ZM215.871 19V6.4H218.643V19H215.871ZM232.52 6.4V19H229.784V10.738L224.276 19H221.666V6.4H224.402V14.662L229.946 6.4H232.52ZM227.138 5.446C225.482 5.446 224.366 4.438 224.114 2.71L225.716 2.422C225.95 3.16 226.382 3.628 227.138 3.628C227.894 3.628 228.326 3.16 228.56 2.422L230.162 2.71C229.91 4.438 228.794 5.446 227.138 5.446ZM103.416 41.216C99.708 41.216 96.954 38.354 96.954 34.7C96.954 31.118 99.654 28.184 103.524 28.184C105.9 28.184 107.232 29.084 108.402 30.236L106.746 32.144C105.774 31.262 104.946 30.74 103.506 30.74C101.382 30.74 99.852 32.504 99.852 34.7C99.852 36.86 101.346 38.66 103.506 38.66C104.946 38.66 105.828 38.084 106.818 37.184L108.582 39.074C107.286 40.46 105.846 41.216 103.416 41.216ZM113.735 41V30.956H109.901V28.4H120.341V30.956H116.507V41H113.735ZM133.327 28.4V41H130.591V32.738L125.083 41H122.473V28.4H125.209V36.662L130.753 28.4H133.327ZM138.034 28.4H147.034V41H144.262V30.902H140.626V31.856C140.626 39.272 139.42 41.162 136.54 41.162C136.09 41.162 135.424 41.09 135.082 41L135.262 38.714C135.388 38.732 135.514 38.75 135.694 38.75C137.188 38.75 138.034 37.796 138.034 31.01V28.4ZM150.053 41V28.4H152.825V32.684H155.507C158.423 32.684 160.115 34.304 160.115 36.77C160.115 39.362 158.279 41 155.327 41H150.053ZM155.273 35.06H152.825V38.498H155.291C156.659 38.498 157.361 37.904 157.361 36.734C157.361 35.672 156.659 35.06 155.273 35.06Z" />
</svg>
