<svg version="1.1" id="Layer_1" xmlns="http://www.w3.org/2000/svg" xmlns:xlink="http://www.w3.org/1999/xlink" x="0px" y="0px"
	 width="100%" height="100%" viewBox="0 0 567 353" enable-background="new 0 0 567 353" xml:space="preserve">
<path fill="#398282" opacity="1.000000" stroke="none"
	d="
M500.000000,0.999999
	C505.354950,1.000000 510.709869,1.000000 516.590088,1.336437
	C518.920105,3.814689 521.107605,5.744554 522.438965,8.148588
	C524.377136,11.648358 526.919983,13.418962 530.876343,14.300769
	C533.276428,14.835701 536.250244,16.845808 537.244141,18.991093
	C544.350647,34.329796 548.615295,49.963009 539.438721,66.146561
	C536.545288,71.249344 536.640686,76.447914 538.578308,81.987724
	C541.699036,90.910263 547.700989,97.734924 553.872192,104.507637
	C560.281250,111.541397 563.405396,119.760918 564.160828,129.302719
	C564.711670,136.259537 566.669434,143.104935 568.000000,150.000000
	C568.000000,152.370560 568.000000,154.741104 567.670715,157.670212
	C561.859741,166.334061 556.586548,174.590958 550.835876,182.500687
	C545.426697,189.940643 543.773132,197.250854 548.967224,205.525589
	C551.838562,210.099976 551.877197,215.203812 548.761536,219.701080
	C543.029846,227.974396 536.539307,235.471130 526.696472,239.249908
	C524.868347,239.951767 523.070862,241.580261 521.991882,243.253510
	C513.068665,257.091492 504.258606,271.003937 495.586456,285.000519
	C494.437195,286.855438 493.734100,289.304169 493.709991,291.487671
	C493.548218,306.144318 493.616608,320.803650 493.643005,335.462006
	C493.645294,336.739838 493.882324,338.017273 494.067596,339.866516
	C509.699768,339.866516 525.086182,339.866516 540.556396,339.866516
	C540.556396,344.536407 540.556396,348.595215 540.556396,352.999878
	C538.254883,352.999878 536.281189,352.999908 534.307495,352.999908
	C441.359711,352.999908 348.411926,353.004517 255.464127,352.993225
	C245.312271,352.991974 235.160431,352.898804 224.825958,352.569031
	C217.950974,342.823090 214.220703,332.178955 213.225754,320.753876
	C212.506302,312.492462 214.978531,305.042572 221.260483,299.030670
	C223.031555,297.335724 224.112595,294.699249 224.957550,292.300018
	C227.163132,286.037323 228.571304,279.453888 231.199402,273.389221
	C235.172104,264.221741 241.139999,256.985352 251.913879,255.009995
	C257.053009,254.067734 262.400757,252.754623 266.919128,250.271988
	C274.649506,246.024460 281.311554,246.996506 288.430267,251.471237
	C294.040466,254.997696 300.106262,257.821075 306.075714,260.739838
	C307.676971,261.522766 309.666016,261.512604 312.059692,261.980377
	C311.539673,258.819214 311.160919,256.555389 310.795502,254.289383
	C307.574982,234.319168 311.382690,216.588577 326.952271,202.410645
	C328.950195,200.591263 330.386108,197.966782 331.564575,195.470795
	C335.045288,188.098618 339.731018,181.820984 346.458160,177.078812
	C353.729736,171.952820 362.312256,171.533432 370.593689,169.850189
	C375.281830,168.897293 379.406433,169.552567 383.560394,171.766296
	C386.470612,173.317215 389.535645,174.794235 392.710754,175.580917
	C397.465790,176.759018 400.546661,179.455780 402.927094,183.622482
	C403.794647,185.141037 406.019562,186.775848 407.660309,186.813141
	C416.853821,187.022018 424.294647,190.899918 431.029816,196.745514
	C432.182220,197.745773 433.758942,198.570908 435.246277,198.808121
	C438.629547,199.347672 442.079102,199.471573 445.837189,199.793106
	C445.837189,183.733337 445.845795,167.614899 445.803436,151.496552
	C445.801819,150.895554 445.303650,150.295868 444.975647,149.356049
	C440.015350,139.961395 435.188690,130.866165 430.200287,121.860535
	C422.793396,108.488777 415.272003,95.180443 407.921936,81.515419
	C411.866455,76.484039 415.129425,71.128326 419.660339,67.256279
	C424.640472,63.000328 430.558014,59.624561 436.513000,56.807838
	C440.054626,55.132626 444.438751,55.132938 448.477081,54.663498
	C450.187408,54.464676 451.982391,54.993927 453.820618,55.201485
	C455.260132,50.965130 457.497345,47.238476 457.639038,43.433788
	C458.081238,31.559814 464.925934,24.285122 474.009125,18.259512
	C482.675476,12.510436 491.336578,6.753489 500.000000,0.999999
M480.068390,335.356079
	C480.068390,307.006714 480.068390,278.657349 480.068390,250.342255
	C474.718689,250.997421 469.978882,251.577881 465.104095,252.174866
	C464.667969,253.807449 464.274811,255.407776 463.812561,256.987885
	C461.377014,265.313171 457.646759,272.666870 449.806000,277.378601
	C444.106842,280.803375 444.244049,289.459961 449.762177,293.046906
	C461.852417,300.905914 468.461395,311.737579 466.872162,326.462128
	C466.390076,330.928528 464.489532,335.241852 463.188660,339.800598
	C464.000854,339.867035 464.799988,339.984741 465.599731,339.988861
	C469.424500,340.008667 473.259674,339.825195 477.071075,340.051849
	C480.143860,340.234528 480.221344,338.483978 480.068390,335.356079
M447.602417,106.923523
	C445.405823,105.036476 443.209229,103.149429 440.503540,100.825043
	C440.503540,103.568520 440.394104,105.359833 440.521698,107.134087
	C441.225372,116.917648 441.251648,116.869659 450.947662,118.202324
	C454.848083,118.738403 458.713562,119.528786 462.594940,120.203430
	C462.677155,119.877075 462.759369,119.550720 462.841583,119.224373
	C457.942932,115.275658 453.044250,111.326942 447.602417,106.923523
M377.380341,292.016144
	C384.902802,287.622192 392.425262,283.228271 400.684235,278.404114
	C395.732361,276.839478 391.563843,275.394043 387.309174,274.276550
	C386.355896,274.026154 384.507507,274.589111 384.079529,275.346985
	C380.874481,281.022766 377.922546,286.841492 374.647095,293.080688
	C375.595337,292.769257 376.159424,292.583984 377.380341,292.016144
M380.477783,324.042633
	C384.122070,324.042633 387.766357,324.042633 391.410645,324.042633
	C391.488129,323.582642 391.565613,323.122681 391.643127,322.662689
	C389.800629,321.801849 387.983429,320.260162 386.111572,320.190735
	C374.027374,319.742249 361.931549,319.597839 349.838715,319.405151
	C348.332764,319.381165 346.822021,319.660461 345.313477,319.799225
	C345.318970,320.276215 345.324463,320.753204 345.329956,321.230194
	C356.720337,322.164825 368.110687,323.099487 380.477783,324.042633
M503.945404,249.926773
	C503.945404,248.362610 503.945404,246.798447 503.945404,244.776840
	C500.428284,245.268814 497.216766,245.718033 493.864105,246.186996
	C493.864105,251.287949 493.864105,256.154755 493.864105,262.097687
	C495.971252,258.946777 497.325409,256.522522 499.079681,254.434448
	C500.317230,252.961380 502.097717,251.944458 503.945404,249.926773
M436.975769,306.532440
	C436.223267,304.686066 435.758270,302.631683 434.622864,301.062286
	C433.787292,299.907349 432.074860,299.386780 430.753143,298.583527
	C430.226776,299.142853 429.700378,299.702209 429.173981,300.261536
	C432.321838,307.552277 435.469696,314.843018 438.617554,322.133759
	C439.267731,321.921478 439.917908,321.709198 440.568054,321.496948
	C439.442322,316.758545 438.316589,312.020172 436.975769,306.532440
M536.696411,104.180855
	C537.176086,102.923668 538.423706,101.240105 538.003174,100.482735
	C536.131592,97.111839 533.782593,94.005966 531.524292,90.683838
	C529.073547,94.355507 530.454773,103.763008 533.593018,105.569901
	C534.093201,105.857841 535.270447,104.969826 536.696411,104.180855
M479.033783,196.547760
	C477.085205,197.841385 475.136597,199.135010 472.905548,200.616150
	C479.224243,205.147751 483.213196,199.946533 488.445038,198.667496
	C487.159790,196.482834 486.119812,194.715088 484.973785,192.767075
	C482.919983,194.055374 481.266907,195.092300 479.033783,196.547760
M310.041595,276.136353
	C308.816559,275.667572 307.188446,274.451660 306.435516,274.857880
	C302.969971,276.727661 299.748596,279.049957 296.288635,281.308502
	C300.409546,283.544342 307.756104,282.744751 310.596008,279.730408
	C311.055450,279.242737 310.466980,277.767883 310.041595,276.136353
M476.227325,235.846008
	C477.956635,235.463470 479.685913,235.080933 481.551910,234.668152
	C476.293945,230.756958 475.173187,230.945480 467.078003,237.304337
	C470.284637,236.786942 472.854462,236.372299 476.227325,235.846008
M491.228027,89.338165
	C490.664886,88.617661 490.101776,87.897156 489.538635,87.176643
	C489.166718,87.278519 488.794830,87.380394 488.422943,87.482262
	C488.785248,90.275856 489.147583,93.069443 489.509888,95.863037
	C490.453003,95.747620 491.396149,95.632195 492.339264,95.516777
	C492.100708,93.664062 491.862183,91.811348 491.228027,89.338165
M384.970551,205.464447
	C385.874115,204.474380 386.777679,203.484314 388.006439,202.137924
	C385.366516,201.443451 383.388031,200.922958 381.249298,200.360321
	C381.955231,205.674133 381.955231,205.674133 384.970551,205.464447
z"/>
<path fill="#A69E94" opacity="1.000000" stroke="none"
	d="
M407.799347,81.845108
	C415.272003,95.180443 422.793396,108.488777 430.200287,121.860535
	C435.188690,130.866165 440.015350,139.961395 444.499451,149.393860
	C359.681885,149.783936 275.279236,149.795151 190.876602,149.817505
	C188.549606,149.818130 186.222656,149.938324 183.624756,149.796539
	C163.472519,110.346802 143.591202,71.103287 123.180748,30.815317
	C121.721321,33.728390 120.823242,35.456272 119.981285,37.211086
	C102.049332,74.584961 84.060783,111.932030 66.301544,149.387833
	C64.663963,152.841660 63.763287,156.990082 63.753704,160.819061
	C63.599052,222.623398 63.644386,284.428223 63.644382,346.232941
	C63.644382,348.343323 63.644382,350.453674 63.644382,353.000000
	C42.264156,353.000000 21.632078,353.000000 1.000000,353.000000
	C1.000000,348.975464 1.000000,344.950897 1.464685,340.395508
	C17.840965,339.864655 33.752560,339.864655 50.023365,339.864655
	C50.023365,336.807190 50.023361,334.657379 50.023361,332.507599
	C50.023369,274.059967 49.985989,215.612244 50.120598,157.164932
	C50.128296,153.823074 50.944626,150.198364 52.389214,147.187256
	C74.177391,101.771713 96.149361,56.444386 118.018929,11.067790
	C119.581612,7.825436 120.683731,4.361115 122.000000,1.000000
	C201.687561,1.000000 281.375122,1.000000 361.556335,1.356055
	C368.573578,13.307750 375.033539,24.939754 381.636444,36.490036
	C390.298401,51.642117 399.073120,66.729752 407.799347,81.845108
z"/>
<path fill="#FEFEFE" opacity="1.000000" stroke="none"
	d="
M1.000000,353.500000
	C21.632078,353.000000 42.264156,353.000000 63.644382,353.000000
	C63.644382,350.453674 63.644382,348.343323 63.644382,346.232941
	C63.644386,284.428223 63.599052,222.623398 63.753704,160.819061
	C63.763287,156.990082 64.663963,152.841660 66.301544,149.387833
	C84.060783,111.932030 102.049332,74.584961 119.981285,37.211086
	C120.823242,35.456272 121.721321,33.728390 123.180748,30.815317
	C143.591202,71.103287 163.472519,110.346802 183.620789,150.264969
	C183.887756,218.233826 183.887756,285.528015 183.887756,352.848236
	"/>


<path fill="#383840" opacity="1.000000" stroke="none"
	d="
M224.825958,352.569031
	C211.546356,352.848236 198.084122,352.848236 183.887756,352.848236
	C183.887756,285.528015 183.887756,218.233826 183.891724,150.471191
	C186.222656,149.938324 188.549606,149.818130 190.876602,149.817505
	C275.279236,149.795151 359.681885,149.783936 444.560699,149.733368
	C445.303650,150.295868 445.801819,150.895554 445.803436,151.496552
	C445.845795,167.614899 445.837189,183.733337 445.837189,199.793106
	C442.079102,199.471573 438.629547,199.347672 435.246277,198.808121
	C433.758942,198.570908 432.182220,197.745773 431.029816,196.745514
	C424.294647,190.899918 416.853821,187.022018 407.660309,186.813141
	C406.019562,186.775848 403.794647,185.141037 402.927094,183.622482
	C400.546661,179.455780 397.465790,176.759018 392.710754,175.580917
	C389.535645,174.794235 386.470612,173.317215 383.560394,171.766296
	C379.406433,169.552567 375.281830,168.897293 370.593689,169.850189
	C362.312256,171.533432 353.729736,171.952820 346.458160,177.078812
	C339.731018,181.820984 335.045288,188.098618 331.564575,195.470795
	C330.386108,197.966782 328.950195,200.591263 326.952271,202.410645
	C311.382690,216.588577 307.574982,234.319168 310.795502,254.289383
	C311.160919,256.555389 311.539673,258.819214 312.059692,261.980377
	C309.666016,261.512604 307.676971,261.522766 306.075714,260.739838
	C300.106262,257.821075 294.040466,254.997696 288.430267,251.471237
	C281.311554,246.996506 274.649506,246.024460 266.919128,250.271988
	C262.400757,252.754623 257.053009,254.067734 251.913879,255.009995
	C241.139999,256.985352 235.172104,264.221741 231.199402,273.389221
	C228.571304,279.453888 227.163132,286.037323 224.957550,292.300018
	C224.112595,294.699249 223.031555,297.335724 221.260483,299.030670
	C214.978531,305.042572 212.506302,312.492462 213.225754,320.753876
	C214.220703,332.178955 217.950974,342.823090 224.825958,352.569031
z"/>


<path fill="#393941" opacity="1.000000" stroke="none"
	d="
M137.033356,228.101639
	C137.033890,269.880981 137.033890,311.167084 137.033890,352.726868
	C126.001938,352.726868 115.284401,352.726868 104.338844,352.726868
	C104.338844,310.120514 104.338844,267.720428 104.338844,224.709183
	C114.614845,224.709183 124.716461,224.647186 134.813461,224.834244
	C135.570114,224.848251 136.293808,226.641983 137.033356,228.101639
z"/>
</svg>
