<svg width="334" height="60" viewBox="0 0 334 60" fill="#398281" xmlns="http://www.w3.org/2000/svg">
<path d="M129.361 5.9839C133.578 5.9839 136.474 8.20479 136.474 11.269C136.474 13.7148 135.04 15.0361 133.297 15.7952C135.406 16.4699 136.98 17.9317 136.98 20.4337C136.98 23.8353 134.084 26.3374 129.502 26.3374C125.369 26.3374 122.867 25.1847 120.759 23.0482L123.064 20.0401C124.667 21.6144 126.775 22.5422 129.333 22.5422C131.161 22.5422 132.651 21.6988 132.651 20.1807C132.651 18.5502 130.992 17.8755 128.743 17.8755H126.466V14.2771H128.687C130.964 14.2771 132.201 13.4899 132.201 12C132.201 10.6225 130.908 9.8072 129.024 9.8072C126.606 9.8072 125.032 10.6225 123.711 11.9719L121.434 9.21684C123.261 7.30519 125.623 5.9839 129.361 5.9839ZM139.069 26L147.502 6.18069H151.494L159.928 26H155.402L153.603 21.5863H145.281L143.482 26H139.069ZM146.828 17.763H152.057L149.442 11.3815L146.828 17.763ZM167.295 10.2289V26H162.965V6.32125H176.712V10.2289H167.295ZM189.325 26.3374C183.253 26.3374 178.895 21.8112 178.895 16.1606C178.895 10.5662 183.309 5.9839 189.381 5.9839C195.454 5.9839 199.811 10.51 199.811 16.1606C199.811 21.755 195.398 26.3374 189.325 26.3374ZM189.381 22.3454C192.867 22.3454 195.285 19.5903 195.285 16.1606C195.285 12.7871 192.811 9.97587 189.325 9.97587C185.839 9.97587 183.422 12.7309 183.422 16.1606C183.422 19.5341 185.895 22.3454 189.381 22.3454ZM203.652 26V6.32125H211.692C216.387 6.32125 219.226 9.10439 219.226 13.1807C219.226 17.7349 215.684 20.0964 211.27 20.0964H207.981V26H203.652ZM207.981 16.245H211.411C213.575 16.245 214.84 14.9518 214.84 13.2088C214.84 11.269 213.491 10.2289 211.326 10.2289H207.981V16.245ZM231.988 26.3374C225.916 26.3374 221.558 21.8112 221.558 16.1606C221.558 10.5662 225.972 5.9839 232.044 5.9839C238.117 5.9839 242.474 10.51 242.474 16.1606C242.474 21.755 238.06 26.3374 231.988 26.3374ZM232.044 22.3454C235.53 22.3454 237.948 19.5903 237.948 16.1606C237.948 12.7871 235.474 9.97587 231.988 9.97587C228.502 9.97587 226.084 12.7309 226.084 16.1606C226.084 19.5341 228.558 22.3454 232.044 22.3454ZM244.234 30.1044V22.0924H246.09C247.551 18.6907 248.254 15.3454 248.254 8.62647V6.32125H262.564V22.0924H264.925L264.363 30.1044H260.736V26H248.423L248.142 30.1044H244.234ZM258.234 10.2289H252.415V12.2249C252.415 16.3855 251.768 19.3654 250.644 22.0924H258.234V10.2289ZM267.948 26V6.32125H272.277V14.1084H280.261V6.32125H284.591V26H280.261V18.1004H272.277V26H267.948ZM289.307 26V6.32125H293.636V13.012H297.825C302.379 13.012 305.022 15.5421 305.022 19.3936C305.022 23.4418 302.154 26 297.544 26H289.307ZM297.46 16.7229H293.636V22.0924H297.488C299.624 22.0924 300.721 21.1646 300.721 19.3373C300.721 17.6787 299.624 16.7229 297.46 16.7229ZM307.215 26V6.32125H311.544V26H307.215ZM333.218 6.32125V26H328.945V13.0964L320.343 26H316.266V6.32125H320.539V19.2249L329.198 6.32125H333.218ZM324.813 4.83129C322.226 4.83129 320.483 3.25699 320.09 0.558186L322.592 0.108385C322.957 1.261 323.632 1.99192 324.813 1.99192C325.993 1.99192 326.668 1.261 327.033 0.108385L329.535 0.558186C329.142 3.25699 327.399 4.83129 324.813 4.83129ZM131.582 56.3374C125.791 56.3374 121.49 51.8675 121.49 46.1606C121.49 40.5662 125.707 35.9839 131.751 35.9839C135.462 35.9839 137.542 37.3895 139.37 39.1887L136.783 42.1686C135.265 40.7911 133.972 39.9759 131.723 39.9759C128.406 39.9759 126.016 42.7309 126.016 46.1606C126.016 49.5341 128.349 52.3454 131.723 52.3454C133.972 52.3454 135.349 51.4458 136.896 50.0401L139.651 52.992C137.627 55.1566 135.378 56.3374 131.582 56.3374ZM147.699 56V40.3132H141.711V36.3212H158.016V40.3132H152.028V56H147.699ZM178.297 36.3212V56H174.024V43.0964L165.422 56H161.346V36.3212H165.619V49.2249L174.277 36.3212H178.297ZM185.648 36.3212H199.705V56H195.375V40.2289H189.697V41.7188C189.697 53.3012 187.813 56.253 183.315 56.253C182.612 56.253 181.572 56.1406 181.038 56L181.319 52.4297C181.516 52.4578 181.713 52.4859 181.994 52.4859C184.327 52.4859 185.648 50.996 185.648 40.3976V36.3212ZM204.42 56V36.3212H208.75V43.012H212.938C217.493 43.012 220.135 45.5421 220.135 49.3936C220.135 53.4418 217.268 56 212.657 56H204.42ZM212.573 46.7229H208.75V52.0924H212.601C214.738 52.0924 215.834 51.1646 215.834 49.3373C215.834 47.6787 214.738 46.7229 212.573 46.7229Z"/>
<rect y="1" width="104" height="60" />
<path d="M17.8256 38V18.3212H22.155V34.0643H31.9662V38H17.8256ZM43.6639 38.3373C37.5916 38.3373 33.2341 33.8112 33.2341 28.1606C33.2341 22.5662 37.6478 17.9839 43.7201 17.9839C49.7924 17.9839 54.1498 22.51 54.1498 28.1606C54.1498 33.755 49.7362 38.3373 43.6639 38.3373ZM43.7201 34.3454C47.2061 34.3454 49.6237 31.5903 49.6237 28.1606C49.6237 24.7871 47.1498 21.9759 43.6639 21.9759C40.1779 21.9759 37.7603 24.7309 37.7603 28.1606C37.7603 31.5341 40.2342 34.3454 43.7201 34.3454ZM67.4642 38.3373C61.3357 38.3373 57.1188 34.0361 57.1188 28.1606C57.1188 22.5662 61.4762 17.9839 67.4361 17.9839C70.9783 17.9839 73.1148 18.9397 75.167 20.6827L72.4401 23.9719C70.922 22.7068 69.5726 21.9759 67.2955 21.9759C64.1469 21.9759 61.6449 24.759 61.6449 28.1606C61.6449 31.759 64.1188 34.4016 67.6048 34.4016C69.1791 34.4016 70.5847 34.008 71.6811 33.2209V30.4096H67.3236V26.6707H75.8698V35.2169C73.8457 36.9317 71.0626 38.3373 67.4642 38.3373ZM89.5938 38.3373C83.5215 38.3373 79.164 33.8112 79.164 28.1606C79.164 22.5662 83.5777 17.9839 89.65 17.9839C95.7223 17.9839 100.08 22.51 100.08 28.1606C100.08 33.755 95.6661 38.3373 89.5938 38.3373ZM89.65 34.3454C93.136 34.3454 95.5536 31.5903 95.5536 28.1606C95.5536 24.7871 93.0797 21.9759 89.5938 21.9759C86.1078 21.9759 83.6902 24.7309 83.6902 28.1606C83.6902 31.5341 86.1641 34.3454 89.65 34.3454Z" fill="white"/>
</svg>
