<svg version="1.1" id="Layer_1" xmlns="http://www.w3.org/2000/svg" xmlns:xlink="http://www.w3.org/1999/xlink" x="0px" y="0px"
	 width="100%" viewBox="0 0 1657 353" enable-background="new 0 0 1657 353" xml:space="preserve">
<path fill="#FFFFFF" opacity="1.000000" stroke="none" 
	d="
M1658.000000,109.000000 
	C1658.000000,190.645798 1658.000000,272.291595 1658.000000,354.000000 
	C1188.640869,354.000000 719.281677,354.000000 249.664459,353.615204 
	C251.397751,353.153717 253.389099,353.010193 255.380463,353.009979 
	C348.504639,352.998932 441.628815,353.000366 534.752991,353.000366 
	C536.685242,353.000366 538.617432,353.000366 540.553589,353.000366 
	C540.553589,348.271271 540.553589,344.203522 540.553589,339.579285 
	C524.823181,339.579285 509.423645,339.579285 493.674438,339.579285 
	C493.674438,322.545319 493.638275,306.071014 493.740112,289.597534 
	C493.748657,288.214783 494.460754,286.697235 495.224182,285.479431 
	C504.147705,271.245209 513.107605,257.033203 522.176514,242.891388 
	C523.091431,241.464722 524.595276,240.021545 526.142883,239.460922 
	C534.145081,236.561966 539.714111,230.784134 545.228516,224.649673 
	C551.371765,217.815659 552.660400,210.782074 547.873657,202.837769 
	C544.491943,197.225250 544.850342,191.753616 548.469482,186.447983 
	C553.431030,179.174484 558.315857,171.839996 563.537476,164.755692 
	C566.893616,160.202408 568.572327,155.560654 567.334351,149.871536 
	C566.134094,144.356003 564.482361,138.750519 564.511719,133.192368 
	C564.586975,118.935715 557.862671,108.326332 548.667114,98.278496 
	C544.407166,93.623756 541.623535,87.507973 538.678223,81.792984 
	C536.086304,76.763771 536.429382,71.387642 539.295837,66.471184 
	C548.481445,50.716240 544.365417,35.377529 538.033508,20.088591 
	C536.523499,16.442545 533.938049,14.475509 529.793335,13.804637 
	C527.496094,13.432801 525.174622,11.448874 523.465515,9.627258 
	C521.021606,7.022436 519.128418,3.900890 517.000000,0.999996 
	C884.692505,1.000000 1252.385010,1.000000 1620.514893,1.353745 
	C1618.035034,6.316709 1615.117798,10.925927 1611.920532,15.977593 
	C1616.046021,15.977593 1619.365356,16.126013 1622.664185,15.929357 
	C1625.181396,15.779304 1628.812378,16.087399 1629.958252,14.628719 
	C1633.187988,10.517191 1635.391846,5.599771 1638.000000,1.000018 
	C1644.600342,1.000000 1651.200806,1.000000 1658.000000,1.000000 
	C1658.000000,8.358278 1658.000000,15.717883 1657.720703,23.551313 
	C1657.256714,24.050415 1657.072144,24.075691 1656.429199,24.056446 
	C1652.307739,24.006533 1648.609863,24.314083 1644.991089,23.911053 
	C1641.077881,23.475218 1639.063599,25.209681 1637.034424,28.295254 
	C1626.894653,43.713249 1616.523560,58.979149 1606.224609,74.292389 
	C1605.390747,75.532394 1604.488647,76.726387 1603.618164,77.941757 
	C1603.248413,77.771812 1602.878540,77.601875 1602.508789,77.431931 
	C1602.508789,59.696053 1602.508789,41.960175 1602.508789,24.384254 
	C1596.129272,24.384254 1590.227905,24.384254 1584.350586,24.384254 
	C1584.350586,52.682285 1584.350586,80.591080 1584.350586,109.004234 
	C1588.700928,109.004234 1592.839355,108.752739 1596.931396,109.079880 
	C1600.525391,109.367188 1602.584961,108.093681 1604.561646,105.058525 
	C1614.729858,89.445557 1625.159302,74.002678 1635.511597,58.509819 
	C1636.380493,57.209415 1637.354858,55.979317 1639.076660,53.630318 
	C1639.076660,72.866341 1639.076660,90.736237 1639.076660,108.899094 
	C1645.310303,108.899094 1651.098877,108.899094 1657.164307,108.936996 
	C1657.627441,108.983269 1657.813721,108.991631 1658.000000,109.000000 
M893.638245,220.108170 
	C892.938293,220.878937 892.238403,221.649719 890.707825,223.335297 
	C890.707825,204.212326 890.707825,186.326508 890.707825,168.397003 
	C884.452698,168.397003 878.689575,168.397003 872.665955,168.397003 
	C872.665955,196.687347 872.665955,224.726028 872.665955,253.118118 
	C876.983887,253.118118 880.987488,252.859787 884.941162,253.192841 
	C888.684448,253.508163 890.981201,252.206207 893.169189,249.127075 
	C902.517822,235.970474 912.138062,223.006790 921.679810,209.987808 
	C924.362610,206.327286 927.115112,202.717834 929.835632,199.084976 
	C930.223633,199.212570 930.611633,199.340164 930.999634,199.467758 
	C930.999634,217.290268 930.999634,235.112762 930.999634,252.748718 
	C937.420166,252.748718 943.166443,252.748718 948.875610,252.748718 
	C948.875610,224.467163 948.875610,196.555984 948.875610,168.145874 
	C944.810303,168.145874 940.992004,168.427887 937.234985,168.068832 
	C933.249939,167.688004 930.915771,169.297607 928.638855,172.451523 
	C917.242310,188.237885 905.608459,203.852921 893.638245,220.108170 
M1041.730225,65.611183 
	C1039.629395,39.882217 1023.481384,23.702169 998.145081,22.741045 
	C980.486267,22.071165 966.161743,29.061502 957.277039,44.610008 
	C948.462524,60.035610 949.026062,75.886375 958.668945,90.881660 
	C969.080078,107.071709 989.834167,114.188591 1009.239075,108.800865 
	C1028.638672,103.414597 1040.804810,87.576118 1041.730225,65.611183 
M1167.887207,103.679871 
	C1178.666992,110.141945 1190.340820,111.936577 1202.482178,109.381744 
	C1227.550171,104.106789 1242.349854,80.851387 1236.727417,56.115841 
	C1231.459473,32.939114 1207.322876,18.142649 1183.279541,23.495722 
	C1164.610229,27.652300 1152.232544,38.912609 1148.572876,57.748451 
	C1144.920654,76.545807 1151.166138,92.155746 1167.887207,103.679871 
M1297.283203,23.989519 
	C1295.451416,23.989519 1293.557983,24.291050 1291.799316,23.932547 
	C1286.681396,22.889236 1284.652832,25.526123 1282.854858,29.889853 
	C1275.136475,48.621723 1267.071289,67.210632 1259.144287,85.856613 
	C1255.854492,93.594788 1252.594238,101.345505 1249.194946,109.388039 
	C1279.411133,109.388039 1308.937256,109.388039 1338.816528,109.388039 
	C1338.460449,108.261513 1338.281616,107.475891 1337.971436,106.746185 
	C1326.662354,80.149048 1315.264771,53.589024 1304.120605,26.923086 
	C1302.764526,23.678326 1300.668701,23.959206 1297.283203,23.989519 
M1377.341675,41.495373 
	C1377.341675,35.755596 1377.341675,30.015820 1377.341675,24.249695 
	C1370.796753,24.249695 1365.034424,24.249695 1359.090576,24.249695 
	C1359.090576,52.531780 1359.090576,80.563805 1359.090576,108.660118 
	C1365.294067,108.660118 1371.193726,108.660118 1377.463623,108.660118 
	C1377.463623,97.375748 1377.463623,86.426323 1377.463623,75.287628 
	C1390.702271,75.287628 1403.560669,75.287628 1416.993652,75.287628 
	C1416.993652,86.676544 1416.993652,97.721748 1416.993652,108.738182 
	C1423.340698,108.738182 1429.107788,108.738182 1435.015869,108.738182 
	C1435.015869,80.447380 1435.015869,52.419128 1435.015869,24.357906 
	C1428.791260,24.357906 1422.897095,24.357906 1416.462158,24.357906 
	C1416.462158,35.607288 1416.462158,46.506020 1416.462158,57.313511 
	C1403.189209,57.313511 1390.472290,57.313511 1377.341919,57.313511 
	C1377.341919,52.099888 1377.341919,47.295822 1377.341675,41.495373 
M804.912109,29.331406 
	C793.677307,55.736023 782.442444,82.140640 771.011841,109.005424 
	C776.879456,109.005424 782.047119,109.191299 787.184814,108.881355 
	C788.555725,108.798653 790.427856,107.492920 791.048767,106.241905 
	C793.186829,101.934357 794.711548,97.323349 796.829346,93.004181 
	C797.468140,91.701355 799.257690,90.137039 800.549683,90.110054 
	C811.532104,89.880783 822.521484,89.978928 833.704956,89.978928 
	C835.890442,95.336960 837.884583,100.610184 840.231628,105.721359 
	C840.851685,107.071625 842.507568,108.776283 843.777893,108.854485 
	C849.342957,109.197021 854.941223,109.002029 861.010071,109.002029 
	C860.349731,107.338722 859.952087,106.273064 859.507629,105.227325 
	C849.301880,81.216049 838.643616,57.382149 829.131958,33.099110 
	C825.948425,24.971882 821.797485,22.324924 813.529419,23.117741 
	C809.251587,23.527941 806.134094,23.948872 804.912109,29.331406 
M1064.147095,101.413879 
	C1064.147095,103.846054 1064.147095,106.278236 1064.147095,108.735718 
	C1070.763306,108.735718 1076.686401,108.735718 1083.191162,108.735718 
	C1083.191162,100.259300 1083.191162,92.037117 1083.191162,84.388748 
	C1092.413208,83.518906 1101.180054,83.536179 1109.546265,81.713722 
	C1123.646240,78.642227 1131.997803,66.970123 1131.517822,52.907673 
	C1131.025879,38.489475 1122.632324,27.032228 1108.793579,25.359165 
	C1094.208618,23.595882 1079.357544,24.033941 1064.147217,23.493330 
	C1064.147217,49.854919 1064.147217,75.146126 1064.147095,101.413879 
M1073.995605,230.499969 
	C1073.995605,237.929596 1073.995605,245.359222 1073.995605,252.888229 
	C1088.221802,252.888229 1101.848022,253.199005 1115.445312,252.706467 
	C1119.748901,252.550583 1124.270630,250.824371 1128.177124,248.814636 
	C1137.468140,244.034821 1141.567261,235.696671 1141.840088,225.538940 
	C1142.112793,215.382904 1138.762207,206.409058 1129.335327,201.778381 
	C1123.724609,199.022278 1117.056274,198.021545 1110.738159,197.219543 
	C1104.917725,196.480743 1098.929810,197.062393 1092.598389,197.062393 
	C1092.598389,187.028473 1092.598389,177.780197 1092.598389,168.430298 
	C1086.246338,168.430298 1080.341919,168.430298 1073.995605,168.430298 
	C1073.995605,188.973236 1073.995605,209.236603 1073.995605,230.499969 
M1461.883545,51.499992 
	C1461.883545,70.565201 1461.883545,89.630402 1461.883545,108.847565 
	C1475.674561,108.847565 1488.815430,109.277779 1501.911621,108.699379 
	C1510.948242,108.300285 1519.311157,105.039536 1524.658813,97.100357 
	C1530.906006,87.825836 1531.539307,77.713821 1526.820312,67.691528 
	C1521.958252,57.365314 1512.603027,53.686905 1501.917725,53.080330 
	C1494.998047,52.687523 1488.037964,53.006439 1480.536133,53.006439 
	C1480.536133,43.036911 1480.536133,33.641922 1480.536133,24.306213 
	C1474.040649,24.306213 1468.123779,24.306213 1461.883423,24.306213 
	C1461.883423,33.242607 1461.883423,41.871300 1461.883545,51.499992 
M695.655212,41.814262 
	C697.472656,43.931820 699.290039,46.049381 701.161621,48.229996 
	C702.736816,46.986908 703.986389,45.902287 705.332458,44.954800 
	C713.121704,39.472065 721.679993,37.704285 730.900024,40.184006 
	C734.905640,41.261326 737.661682,44.015450 737.779175,48.387043 
	C737.895386,52.711884 735.486633,55.640457 731.440186,56.939922 
	C729.262390,57.639286 726.912292,57.990314 724.620422,58.103703 
	C720.861755,58.289665 717.087158,58.154049 713.363953,58.154049 
	C713.363953,63.871361 713.363953,68.775345 713.363953,73.979942 
	C716.842896,73.979942 720.007446,73.743874 723.120972,74.041794 
	C726.726135,74.386757 730.680237,74.446510 733.744202,76.045479 
	C736.299377,77.378922 739.283997,80.716484 739.350708,83.238571 
	C739.425293,86.058846 737.012573,89.707962 734.592285,91.607506 
	C732.359924,93.359535 728.701294,93.793785 725.639709,93.898811 
	C715.242737,94.255508 706.260254,90.355103 698.295837,83.348473 
	C694.865784,87.830803 691.687683,91.983826 688.601746,96.016479 
	C700.469116,109.336807 719.671143,112.499588 736.089722,109.205856 
	C740.958618,108.229118 745.922791,105.829834 749.938599,102.859337 
	C761.234253,94.503914 762.691772,73.746986 746.569641,66.460205 
	C745.614807,66.028671 744.770996,65.351379 743.529602,64.571007 
	C753.327087,59.739002 757.594604,52.187023 755.889038,41.928932 
	C754.242798,32.027069 747.064026,26.912201 738.132080,24.354391 
	C728.850586,21.696489 719.394409,21.938892 710.088684,24.774937 
	C702.834229,26.985836 696.653931,30.819901 691.528015,36.565289 
	C692.944885,38.389416 694.062256,39.827942 695.655212,41.814262 
M688.417358,212.248535 
	C689.775635,218.039062 690.269592,224.214539 692.646484,229.551407 
	C701.466736,249.355927 722.450012,258.621735 744.805725,253.346863 
	C753.469666,251.302582 760.680603,247.048386 766.767578,240.073578 
	C762.687805,235.715302 758.869263,231.636032 755.108032,227.618027 
	C738.585999,239.705231 724.529602,240.227127 714.867981,229.466873 
	C705.825378,219.395935 705.745056,202.609299 714.689941,192.265457 
	C724.286926,181.167709 737.721558,181.411545 754.710754,193.244415 
	C758.294312,189.085510 761.904053,184.896271 765.464478,180.764206 
	C752.373535,167.087097 733.282043,162.834747 715.797424,169.962128 
	C697.419739,177.453461 688.971863,191.905502 688.417358,212.248535 
M985.987793,202.389511 
	C978.740173,219.389664 971.492615,236.389816 964.027588,253.899994 
	C969.972595,253.899994 974.979614,254.125610 979.943848,253.763748 
	C981.450867,253.653885 983.508301,252.242126 984.163818,250.875259 
	C986.673828,245.641510 988.730469,240.189301 990.929932,234.807846 
	C996.746460,220.576279 1002.549133,206.339035 1008.751221,191.138809 
	C1009.814514,193.539490 1010.497375,194.983658 1011.101501,196.460068 
	C1018.400391,214.298706 1025.642944,232.160767 1033.056274,249.951675 
	C1033.701782,251.500824 1035.373657,253.613846 1036.701538,253.714462 
	C1042.274048,254.136719 1047.896973,253.892761 1053.976074,253.892761 
	C1053.327271,252.159149 1052.916992,250.921509 1052.408813,249.725479 
	C1042.466187,226.325089 1032.548218,202.914169 1022.545349,179.539581 
	C1017.611816,168.010788 1017.536926,168.199524 1004.807739,168.041763 
	C1001.321167,167.998535 999.905579,169.290924 998.684570,172.297195 
	C994.683594,182.148376 990.387146,191.879593 985.987793,202.389511 
M821.406616,253.119003 
	C822.853455,253.034668 824.300293,252.950317 826.320312,252.832565 
	C826.320312,230.358810 826.320312,208.168274 826.320312,185.485184 
	C835.166626,185.485184 843.429382,185.485184 851.587036,185.485184 
	C851.587036,179.425735 851.587036,173.881516 851.587036,168.551117 
	C828.133850,168.551117 805.102417,168.551117 782.149292,168.551117 
	C782.149292,174.366272 782.149292,179.766418 782.149292,185.800568 
	C790.722229,185.800568 798.944702,185.800568 807.587952,185.800568 
	C807.587952,208.521576 807.587952,230.602478 807.587952,253.119141 
	C812.165771,253.119141 816.296509,253.119141 821.406616,253.119003 
M904.611206,40.975758 
	C916.188599,40.975758 927.766052,40.975758 939.386719,40.975758 
	C939.386719,34.946445 939.386719,29.687006 939.386719,24.328304 
	C919.548218,24.328304 899.996582,24.328304 880.488892,24.328304 
	C880.488892,52.710152 880.488892,80.756500 880.488892,108.688889 
	C886.805542,108.688889 892.729187,108.688889 898.989990,108.688889 
	C898.989990,86.106682 898.989990,63.837669 898.989990,41.254635 
	C900.744873,41.149376 902.191895,41.062584 904.611206,40.975758 
M1539.024292,68.500000 
	C1539.024292,81.900307 1539.024292,95.300606 1539.024292,108.752762 
	C1545.581665,108.752762 1551.493286,108.752762 1557.647461,108.752762 
	C1557.647461,80.498238 1557.647461,52.496414 1557.647461,24.332443 
	C1551.364868,24.332443 1545.336060,24.332443 1539.024292,24.332443 
	C1539.024292,38.945637 1539.024292,53.222820 1539.024292,68.500000 
M1196.293945,338.809265 
	C1197.487793,337.121063 1198.681641,335.432861 1199.875488,333.744629 
	C1200.484009,333.754028 1201.092529,333.763397 1201.701050,333.772766 
	C1203.557251,338.188141 1205.413574,342.603485 1207.269775,347.018829 
	C1207.744873,346.924408 1208.219849,346.829987 1208.694824,346.735565 
	C1208.897705,341.712280 1208.633911,336.457428 1214.209473,334.066620 
	C1219.023926,337.590057 1219.827148,344.952057 1226.645020,346.392365 
	C1224.741455,342.520996 1222.703857,338.710419 1219.842896,335.676178 
	C1216.537720,332.170624 1217.151855,329.527100 1220.142822,326.492920 
	C1222.237671,324.367981 1224.126099,322.039612 1226.106812,319.802124 
	C1225.741211,319.448212 1225.375610,319.094299 1225.010010,318.740417 
	C1218.294067,321.842163 1215.317993,329.255981 1208.921387,334.188293 
	C1208.921387,329.538025 1209.043701,325.771271 1208.840332,322.022156 
	C1208.785645,321.014557 1207.740601,320.060669 1207.150146,319.082123 
	C1206.518799,320.032013 1205.397339,320.954590 1205.342651,321.936554 
	C1205.130005,325.756042 1205.256104,329.594391 1205.256104,333.924011 
	C1198.690796,329.140076 1196.105957,321.367828 1188.485596,319.311005 
	C1190.166870,322.265625 1192.254150,324.802826 1194.632324,327.029205 
	C1197.244263,329.474457 1197.920654,331.484863 1195.241089,334.571655 
	C1192.170410,338.109039 1189.767212,342.225952 1186.643677,346.708923 
	C1192.853394,347.020660 1193.035767,341.646057 1196.293945,338.809265 
M1081.916870,352.287750 
	C1082.463623,350.606354 1083.010254,348.924957 1083.540039,347.295715 
	C1090.707275,347.295715 1097.731812,347.295715 1104.610596,347.295715 
	C1105.039429,349.494019 1105.375977,351.219116 1105.712524,352.944244 
	C1106.440430,352.867828 1107.168335,352.791412 1107.896362,352.714996 
	C1107.693115,349.881378 1107.724365,347.003632 1107.202271,344.230011 
	C1106.866821,342.448364 1105.110229,340.844727 1105.040161,339.118591 
	C1104.772949,332.549469 1104.932373,325.962952 1104.932373,319.200470 
	C1098.465576,319.200470 1092.719727,319.200470 1086.061035,319.200470 
	C1086.061035,323.183411 1086.496704,327.013550 1085.954468,330.699860 
	C1085.219482,335.696686 1085.602539,341.070618 1080.143066,344.629608 
	C1078.366455,345.787720 1077.517700,350.443115 1081.916870,352.287750 
M924.803162,319.022797 
	C924.213013,319.672882 923.118286,320.316010 923.109253,320.974091 
	C922.993347,329.399597 923.032715,337.827301 923.032715,346.825562 
	C927.645813,346.825562 931.780212,347.124207 935.849731,346.738159 
	C939.611572,346.381256 944.220825,345.830078 944.795959,341.208710 
	C945.172302,338.185120 943.376465,334.891174 942.390137,331.088379 
	C942.606140,329.088440 944.239319,325.151794 942.927124,323.280396 
	C941.295715,320.953827 937.339478,319.892273 934.182739,319.112762 
	C931.520996,318.455536 928.567017,318.981750 924.803162,319.022797 
M1118.977173,324.625763 
	C1118.977173,331.869598 1118.977173,339.113464 1118.977173,346.663788 
	C1124.081665,346.663788 1128.552979,346.991730 1132.949585,346.559357 
	C1136.424438,346.217560 1140.473267,344.968323 1140.669800,340.866821 
	C1140.809570,337.952972 1138.837280,334.937836 1137.829102,332.029816 
	C1138.159546,329.394440 1139.518188,325.975281 1138.719360,323.170685 
	C1137.554321,319.080231 1133.329102,318.906342 1129.542480,318.965973 
	C1126.252563,319.017761 1122.961304,318.976746 1119.320679,318.976746 
	C1119.187500,320.791565 1119.082275,322.225586 1118.977173,324.625763 
M1298.024170,332.699768 
	C1298.024170,337.358398 1298.024170,342.017029 1298.024170,346.675659 
	C1298.855591,346.670502 1299.686890,346.665314 1300.518311,346.660156 
	C1301.923462,337.579559 1300.856079,328.405365 1300.393311,318.953461 
	C1294.409302,322.188202 1292.622803,328.863831 1288.233032,333.067810 
	C1283.204102,328.818054 1282.072998,321.583801 1275.603516,318.263367 
	C1275.603516,328.478119 1275.603516,337.564880 1275.603516,346.651642 
	C1276.183838,346.684662 1276.764038,346.717682 1277.344360,346.750702 
	C1278.982544,339.997009 1277.313110,332.882996 1278.331177,325.189240 
	C1281.760010,330.105316 1284.734619,334.370300 1287.995117,339.045044 
	C1291.273926,334.375519 1294.265503,330.114990 1298.024170,324.762054 
	C1298.024170,327.955200 1298.024170,329.868256 1298.024170,332.699768 
M1261.031982,330.521729 
	C1261.031982,326.771027 1261.031982,323.020294 1261.031982,319.269592 
	C1260.604980,319.047424 1260.177979,318.825256 1259.750977,318.603119 
	C1258.501709,319.619965 1257.022827,320.455933 1256.049805,321.690521 
	C1253.894165,324.425629 1252.032471,327.389984 1249.976929,330.206879 
	C1247.630005,333.422760 1245.203003,336.580078 1242.810791,339.762848 
	C1241.900391,333.751526 1242.022339,328.268250 1241.808594,322.798065 
	C1241.759399,321.535797 1240.560059,320.318420 1239.889771,319.080322 
	C1239.327148,320.266663 1238.309082,321.441223 1238.278076,322.641296 
	C1238.114990,328.964722 1238.088257,335.297882 1238.274170,341.619995 
	C1238.324951,343.348236 1239.273682,345.050110 1239.810303,346.764130 
	C1241.254272,345.576263 1242.994751,344.612305 1244.090088,343.161224 
	C1248.510620,337.305084 1252.732300,331.298676 1257.027466,325.347778 
	C1257.544922,325.484344 1258.062500,325.620941 1258.579956,325.757507 
	C1258.579956,332.780853 1258.579956,339.804230 1258.579956,346.827576 
	C1259.397339,346.820801 1260.214600,346.814026 1261.031982,346.807251 
	C1261.031982,341.708344 1261.031982,336.609467 1261.031982,330.521729 
M1175.980103,334.486511 
	C1175.980103,329.419617 1175.980103,324.352722 1175.980103,319.285797 
	C1175.451904,319.044403 1174.923706,318.803040 1174.395508,318.561646 
	C1167.077393,324.063019 1163.910767,333.338715 1156.749268,340.137115 
	C1156.749268,334.134796 1156.903320,328.991333 1156.659180,323.866882 
	C1156.581909,322.245941 1155.440430,320.675751 1154.786011,319.082336 
	C1154.215332,320.747009 1153.209229,322.397003 1153.152588,324.078949 
	C1152.951660,330.060760 1152.970581,336.056458 1153.143677,342.040009 
	C1153.189331,343.619019 1154.088501,345.173340 1154.595703,346.738983 
	C1155.935791,345.672516 1157.558350,344.821320 1158.564819,343.500641 
	C1162.083008,338.884583 1165.371826,334.094421 1168.786011,329.398193 
	C1169.669800,328.182556 1170.693359,327.068634 1171.652832,325.908020 
	C1172.222656,326.054962 1172.792480,326.201935 1173.362305,326.348907 
	C1173.362305,333.167572 1173.362305,339.986237 1173.362305,346.804932 
	C1174.234863,346.795532 1175.107544,346.786163 1175.980103,346.776764 
	C1175.980103,343.009460 1175.980103,339.242157 1175.980103,334.486511 
M1440.331299,344.711853 
	C1441.130005,345.352112 1441.928833,345.992401 1442.727417,346.632629 
	C1443.109741,345.974762 1443.818848,345.319824 1443.824829,344.658630 
	C1443.900024,336.237823 1443.874390,327.816040 1443.874390,319.394531 
	C1443.379639,319.135406 1442.885010,318.876312 1442.390259,318.617188 
	C1434.670288,324.176910 1431.456421,333.797150 1424.026611,340.974304 
	C1424.026611,336.588623 1424.026733,333.019073 1424.026733,329.449493 
	C1424.026733,326.001251 1424.026611,322.553009 1424.026611,317.797363 
	C1420.654053,321.368927 1420.047974,340.638733 1422.152344,347.450378 
	C1429.758301,341.647430 1432.870361,332.460358 1440.264771,325.493378 
	C1440.264771,332.358398 1440.264771,338.105988 1440.331299,344.711853 
M962.147766,344.573059 
	C963.634277,345.265808 965.061218,346.165009 966.617981,346.614471 
	C972.428528,348.292114 979.002258,345.793121 982.325745,340.793976 
	C985.672668,335.759613 985.189148,328.013092 981.225037,323.160278 
	C977.663513,318.800323 970.532410,317.248840 964.938232,319.616760 
	C954.712769,323.944977 953.132507,335.461029 962.147766,344.573059 
M1326.065552,318.547363 
	C1325.253540,318.719879 1324.418335,318.821472 1323.633057,319.076385 
	C1318.214600,320.835693 1314.933228,324.685791 1314.098145,330.162537 
	C1313.192505,336.102020 1314.592407,341.563049 1320.151245,344.884949 
	C1325.421387,348.034180 1330.836792,348.189545 1336.049927,344.493103 
	C1341.035034,340.958405 1343.308228,334.415833 1341.550049,328.640839 
	C1339.559448,322.102600 1334.938232,318.870178 1326.065552,318.547363 
M1057.571777,318.976288 
	C1055.473389,318.976288 1053.375000,318.976288 1050.842896,318.976288 
	C1050.842896,327.779236 1050.739502,335.895477 1050.977905,344.001617 
	C1051.006592,344.978638 1052.838013,346.653412 1053.913086,346.719635 
	C1058.715576,347.015564 1063.548584,346.915955 1068.365723,346.781433 
	C1069.286255,346.755737 1070.184326,345.928009 1071.092773,345.470337 
	C1070.962036,344.942383 1070.831421,344.414459 1070.700684,343.886505 
	C1065.197876,343.886505 1059.695068,343.886505 1054.351318,343.886505 
	C1054.351318,340.188110 1054.351318,337.282806 1054.351318,333.512115 
	C1059.453979,333.512115 1064.182617,333.512115 1068.911377,333.512115 
	C1068.937012,332.837402 1068.962646,332.162689 1068.988403,331.487976 
	C1064.136719,331.242065 1059.285034,330.996155 1054.370117,330.747009 
	C1054.370117,327.712372 1054.370117,325.013977 1054.370117,321.361267 
	C1060.117920,321.361267 1065.472046,321.361267 1070.826294,321.361267 
	C1070.836792,320.566254 1070.847412,319.771271 1070.857910,318.976257 
	C1066.755249,318.976257 1062.652588,318.976257 1057.571777,318.976288 
M778.536865,319.647552 
	C772.169983,319.343506 765.803162,319.039459 759.304688,318.729095 
	C759.304688,328.532349 759.304688,337.512756 759.304688,346.437897 
	C770.497070,347.733765 776.909729,347.169037 779.290833,344.022644 
	C773.231140,344.022644 767.751892,344.022644 762.281860,344.022644 
	C762.281860,340.302338 762.281860,337.392456 762.281860,333.621277 
	C767.344421,333.621277 772.101501,333.621277 776.858643,333.621277 
	C776.884277,332.902802 776.909973,332.184296 776.935669,331.465820 
	C772.125122,331.236389 767.314575,331.006927 762.317871,330.768616 
	C762.317871,327.782867 762.317871,325.087646 762.317871,321.979950 
	C766.468933,321.979950 770.269531,322.123749 774.050171,321.911438 
	C775.632568,321.822540 777.172607,320.978088 778.536865,319.647552 
M713.156372,343.237854 
	C714.305786,344.542694 715.455200,345.847534 716.604614,347.152344 
	C717.033630,346.795502 717.462646,346.438629 717.891663,346.081757 
	C714.126831,337.628906 710.451843,329.132782 706.438049,320.799835 
	C706.091125,320.079590 702.370850,319.881134 702.126038,320.378906 
	C697.937256,328.895966 694.049561,337.561127 690.095581,346.193695 
	C690.647827,346.543610 691.200012,346.893555 691.752258,347.243469 
	C692.837708,345.760803 694.242493,344.412537 694.935974,342.764923 
	C696.057983,340.098846 697.650757,338.844849 700.617432,339.128784 
	C702.923401,339.349457 705.378784,338.740814 707.561035,339.303009 
	C709.484985,339.798737 711.122864,341.404968 713.156372,343.237854 
M1014.990601,327.569763 
	C1015.050293,333.971405 1014.863586,340.392944 1015.105042,346.779938 
	C1015.967285,346.770416 1016.829529,346.760925 1017.691772,346.751404 
	C1017.691772,342.575897 1017.691772,338.400391 1017.691772,334.414185 
	C1023.765747,334.414185 1028.670532,334.414185 1033.736816,334.414185 
	C1033.944946,338.769318 1034.134399,342.730560 1034.360474,347.460022 
	C1036.958130,344.860168 1038.176147,327.725220 1036.912964,320.865021 
	C1036.772095,320.100372 1035.790649,319.490540 1035.198975,318.808929 
	C1034.754761,318.966614 1034.310425,319.124298 1033.866211,319.281982 
	C1033.866211,323.137177 1033.866211,326.992401 1033.866211,330.693481 
	C1028.183228,330.693481 1023.274109,330.693481 1018.529907,330.693481 
	C1016.857361,326.795654 1019.677124,322.202087 1016.741394,319.027344 
	C1016.157837,319.103210 1015.574219,319.179077 1014.990601,319.254944 
	C1014.990601,321.702484 1014.990601,324.150055 1014.990601,327.569763 
M813.009644,332.502991 
	C813.009644,328.032990 813.009644,323.562958 813.009644,319.092957 
	C812.201538,319.053192 811.393433,319.013428 810.585327,318.973663 
	C810.252197,322.908142 809.919006,326.842621 809.588013,330.751648 
	C804.314819,330.751648 799.406616,330.751648 794.259888,330.751648 
	C794.055908,326.671539 793.866577,322.886017 793.642761,318.410309 
	C790.123718,321.788605 790.156006,344.079437 794.011108,347.637939 
	C794.011108,343.654999 793.735046,340.612091 794.137451,337.661774 
	C794.316101,336.351501 795.775757,334.281891 796.806580,334.185272 
	C801.034485,333.789093 805.321106,334.019806 810.554626,334.019806 
	C810.554626,338.697388 810.554626,342.727539 810.554626,346.757690 
	C811.372986,346.757111 812.191284,346.756500 813.009644,346.755920 
	C813.009644,342.335449 813.009644,337.914978 813.009644,332.502991 
M878.775757,324.398651 
	C878.444641,323.275513 878.475586,321.662018 877.724609,321.107544 
	C872.217163,317.041229 864.249390,317.642883 859.478516,322.265320 
	C854.683350,326.911255 853.775818,334.869873 857.389465,340.585541 
	C862.633301,348.879730 875.229736,349.535095 880.129272,340.617859 
	C877.906128,341.403534 876.476257,341.707764 875.246216,342.378510 
	C870.018127,345.229553 865.095154,344.499359 861.396851,340.195435 
	C857.923706,336.153595 857.965637,329.320068 861.489929,325.021515 
	C864.362976,321.517303 870.635315,320.620514 875.203247,323.068787 
	C876.195618,323.600708 877.172485,324.161560 878.775757,324.398651 
M1360.358154,345.480347 
	C1367.983398,348.671631 1374.785889,347.143677 1377.985596,340.562012 
	C1375.821533,341.388947 1374.419800,341.814972 1373.115601,342.443420 
	C1369.123413,344.367157 1365.208862,344.967407 1361.380859,342.085602 
	C1356.592041,338.480499 1355.289062,330.861542 1358.620605,325.951355 
	C1361.557861,321.622253 1368.251099,320.425507 1373.466431,323.145844 
	C1374.551514,323.711853 1375.937012,323.702148 1377.184082,323.957764 
	C1376.389648,322.785339 1375.856934,321.175629 1374.755493,320.516174 
	C1369.992676,317.664917 1365.106934,317.599335 1360.143921,320.346802 
	C1352.506592,324.574738 1349.449463,337.487823 1360.358154,345.480347 
M834.728638,346.469147 
	C838.125244,347.589264 837.803894,345.151550 837.813477,343.170044 
	C837.846924,336.257782 837.826416,329.345276 837.826416,322.596832 
	C841.379333,322.018341 844.182129,321.561981 846.984863,321.105621 
	C846.856995,320.628601 846.729065,320.151581 846.601196,319.674561 
	C838.839661,317.769531 826.465759,318.713409 825.118042,321.668304 
	C828.107788,321.904388 830.972168,322.130585 834.235352,322.388245 
	C834.235352,330.516693 834.235352,338.146240 834.728638,346.469147 
M732.922913,334.494141 
	C732.922913,330.418488 732.922913,326.342834 732.922913,322.002838 
	C736.133362,322.002838 738.458557,322.082092 740.775635,321.979370 
	C742.866577,321.886627 744.948730,321.594727 747.034729,321.390656 
	C746.956421,320.745483 746.878113,320.100281 746.799744,319.455078 
	C741.048767,319.455078 735.297729,319.455078 729.177002,319.455078 
	C729.177002,327.810760 729.114502,335.790161 729.255188,343.765991 
	C729.272949,344.776581 730.355713,345.768372 730.945068,346.768890 
	C731.603394,345.672638 732.705566,344.624359 732.830322,343.470428 
	C733.115295,340.834900 732.921875,338.147705 732.922913,334.494141 
M898.984192,324.774933 
	C898.984192,332.077057 898.984192,339.379181 898.984192,346.681274 
	C899.751648,346.693970 900.519165,346.706635 901.286621,346.719330 
	C903.046692,338.772430 901.235657,330.478088 902.315430,322.419525 
	C905.423279,322.024536 908.283569,321.661011 911.143860,321.297485 
	C911.091980,320.758514 911.040100,320.219574 910.988220,319.680603 
	C903.995300,319.680603 897.002380,319.680603 890.009399,319.680603 
	C889.954834,320.215546 889.900269,320.750458 889.845703,321.285400 
	C891.424988,321.510559 893.048401,321.578491 894.571228,322.005219 
	C896.084717,322.429321 897.497070,323.214233 898.984192,324.774933 
M1400.010010,329.573730 
	C1400.010010,327.146301 1400.010010,324.718903 1400.010010,322.563538 
	C1403.577148,321.978149 1406.375122,321.519012 1409.172974,321.059875 
	C1409.044312,320.556152 1408.915771,320.052429 1408.787231,319.548706 
	C1401.868042,319.548706 1394.948853,319.548706 1388.029663,319.548706 
	C1387.965820,320.141388 1387.901978,320.734070 1387.838135,321.326782 
	C1390.758179,321.672638 1393.678223,322.018494 1397.528076,322.474487 
	C1397.528076,330.676331 1397.528076,338.724426 1397.528076,346.772552 
	C1398.333374,346.779327 1399.138672,346.786133 1399.943970,346.792908 
	C1399.966064,341.379181 1399.988037,335.965424 1400.010010,329.573730 
z"/>
<path fill="#398282" opacity="1.000000" stroke="none" 
	d="
M516.532410,0.999996 
	C519.128418,3.900890 521.021606,7.022436 523.465515,9.627258 
	C525.174622,11.448874 527.496094,13.432801 529.793335,13.804637 
	C533.938049,14.475509 536.523499,16.442545 538.033508,20.088591 
	C544.365417,35.377529 548.481445,50.716240 539.295837,66.471184 
	C536.429382,71.387642 536.086304,76.763771 538.678223,81.792984 
	C541.623535,87.507973 544.407166,93.623756 548.667114,98.278496 
	C557.862671,108.326332 564.586975,118.935715 564.511719,133.192368 
	C564.482361,138.750519 566.134094,144.356003 567.334351,149.871536 
	C568.572327,155.560654 566.893616,160.202408 563.537476,164.755692 
	C558.315857,171.839996 553.431030,179.174484 548.469482,186.447983 
	C544.850342,191.753616 544.491943,197.225250 547.873657,202.837769 
	C552.660400,210.782074 551.371765,217.815659 545.228516,224.649673 
	C539.714111,230.784134 534.145081,236.561966 526.142883,239.460922 
	C524.595276,240.021545 523.091431,241.464722 522.176514,242.891388 
	C513.107605,257.033203 504.147705,271.245209 495.224182,285.479431 
	C494.460754,286.697235 493.748657,288.214783 493.740112,289.597534 
	C493.638275,306.071014 493.674438,322.545319 493.674438,339.579285 
	C509.423645,339.579285 524.823181,339.579285 540.553589,339.579285 
	C540.553589,344.203522 540.553589,348.271271 540.553589,353.000366 
	C538.617432,353.000366 536.685242,353.000366 534.752991,353.000366 
	C441.628815,353.000366 348.504639,352.998932 255.380463,353.009979 
	C253.389099,353.010193 251.397751,353.153717 249.203201,353.615204 
	C241.979050,354.000000 234.958099,354.000000 227.373779,353.691956 
	C226.200577,353.206085 225.590744,353.028259 224.818207,352.560120 
	C218.932938,344.477203 215.914902,335.589050 213.960388,326.234406 
	C211.682556,315.332367 213.766098,305.850250 222.283630,298.103394 
	C223.627350,296.881256 224.321060,294.768494 224.922943,292.938477 
	C227.044113,286.489075 228.493332,279.771301 231.127792,273.549286 
	C235.017288,264.363159 240.990250,257.143280 251.662781,254.995529 
	C257.100586,253.901215 262.691925,252.474106 267.569885,249.951935 
	C274.800537,246.213287 281.055969,246.899200 287.707031,251.035248 
	C293.198303,254.450104 299.015930,257.363342 304.811279,260.253510 
	C306.848511,261.269440 309.249115,261.556702 312.172791,262.367798 
	C311.783142,260.033630 311.623657,258.911438 311.406219,257.800568 
	C307.213104,236.379684 310.374542,217.135178 327.563049,201.826416 
	C329.447113,200.148361 330.265228,197.328186 331.825897,195.221588 
	C335.927673,189.685043 339.679443,183.772736 344.466309,178.887833 
	C351.417206,171.794617 361.235657,171.718124 370.313049,169.868622 
	C375.196014,168.873734 379.417328,169.530746 383.702087,171.832886 
	C386.600739,173.390289 389.647034,174.970505 392.818329,175.653824 
	C397.705292,176.706818 400.571655,179.605331 402.981018,183.689285 
	C403.864380,185.186661 406.051605,186.796234 407.675629,186.829819 
	C417.047424,187.023621 424.602295,191.009354 431.370453,197.065033 
	C432.279633,197.878464 433.474548,198.701599 434.625671,198.854706 
	C438.300446,199.343491 442.016907,199.518661 445.967194,199.834961 
	C445.967194,184.059708 445.983368,168.254562 445.925140,152.449677 
	C445.921783,151.542374 445.311218,150.637283 444.947876,149.386200 
	C439.923645,139.837814 434.997314,130.599747 429.930908,121.439178 
	C422.610809,108.203651 415.189117,95.024323 407.929626,81.493279 
	C418.522980,64.089813 433.440247,54.678894 454.150848,54.187931 
	C455.257355,50.950245 457.509064,47.225712 457.647644,43.424152 
	C458.080627,31.544760 464.928101,24.280352 474.015778,18.258909 
	C482.683624,12.515643 491.339111,6.753729 500.000000,1.000005 
	C505.354950,1.000000 510.709869,1.000000 516.532410,0.999996 
M464.335388,309.358185 
	C468.979248,319.598816 467.938324,329.616821 462.559784,339.688904 
	C468.682617,339.688904 474.207733,339.688904 479.764893,339.688904 
	C479.764893,309.685242 479.764893,279.993622 479.764893,250.377090 
	C474.734009,251.000381 469.991089,251.587997 465.099731,252.194000 
	C464.669434,253.810715 464.274078,255.411301 463.817047,256.994080 
	C461.353424,265.525757 457.427521,272.954254 449.370575,277.677032 
	C444.276672,280.662964 444.325623,289.843048 449.379730,292.806580 
	C455.906219,296.633423 460.651215,301.983429 464.335388,309.358185 
M442.793396,102.657845 
	C442.038147,102.277405 441.282898,101.896973 440.291718,101.397690 
	C440.291718,102.714050 440.215881,103.549614 440.304443,104.367371 
	C440.765167,108.620430 440.125916,113.591209 442.185547,116.847122 
	C443.413666,118.788582 448.902039,118.029938 452.473450,118.498940 
	C453.130493,118.585228 453.776367,118.753403 454.431580,118.857330 
	C457.162811,119.290535 459.895630,119.713638 463.984344,120.352348 
	C456.275421,113.926659 449.802368,108.531082 442.793396,102.657845 
M395.645477,276.789581 
	C392.963989,275.939545 390.318207,274.928833 387.582947,274.320526 
	C386.525879,274.085419 384.596863,274.386261 384.203705,275.084290 
	C380.953339,280.854523 377.970276,286.775330 374.450775,293.524078 
	C383.540924,288.327637 391.769775,283.623596 400.565369,278.595551 
	C398.747589,277.895752 397.571472,277.443024 395.645477,276.789581 
M361.454987,320.116516 
	C356.108124,320.116516 350.761230,320.116516 345.414368,320.116516 
	C345.406403,320.553955 345.398407,320.991425 345.390442,321.428864 
	C360.706299,322.520477 376.022125,323.612061 391.337982,324.703644 
	C391.470001,323.926422 391.602020,323.149170 391.734039,322.371918 
	C389.559326,321.646362 387.403748,320.371429 385.206360,320.294830 
	C377.609070,320.029938 369.997284,320.182404 361.454987,320.116516 
M498.665924,245.398224 
	C497.061310,245.704880 495.456696,246.011536 493.937256,246.301910 
	C493.937256,251.380936 493.937256,256.275238 493.937256,261.169495 
	C495.988281,254.762619 504.468567,252.356171 504.303436,244.642761 
	C502.403564,244.884460 500.930450,245.071854 498.665924,245.398224 
M439.429657,315.050262 
	C437.587646,309.458130 435.745636,303.866028 433.659302,297.532196 
	C431.860779,298.898102 429.983215,299.815674 430.088287,300.320312 
	C431.724579,308.177917 434.765198,315.455231 440.088287,322.912689 
	C439.887146,319.810852 439.758789,317.831512 439.429657,315.050262 
M303.603424,282.914978 
	C306.245911,281.716766 308.888397,280.518524 311.824585,279.187103 
	C310.542603,277.043762 309.555328,275.393127 308.373810,273.417725 
	C304.121643,276.189026 300.263214,278.703674 295.148254,282.037231 
	C298.606049,282.532043 300.760864,282.840393 303.603424,282.914978 
M529.291199,94.017677 
	C530.557007,98.064346 531.822815,102.111008 533.290161,106.801865 
	C535.937622,104.727760 537.559814,103.456917 539.221863,102.154839 
	C536.503845,98.073753 534.071899,94.422180 531.495789,90.554146 
	C530.753052,91.714897 530.223267,92.542839 529.291199,94.017677 
M478.425934,196.935440 
	C476.678192,198.090317 474.930450,199.245193 472.925842,200.569809 
	C479.155945,205.333511 483.191650,199.860138 488.519409,198.744293 
	C487.084534,196.336609 486.032562,194.571426 484.913300,192.693314 
	C482.620605,194.193039 480.825653,195.367218 478.425934,196.935440 
M479.300171,232.906479 
	C474.115021,230.281113 471.371765,235.071884 467.687134,237.240097 
	C472.282532,236.433380 476.877930,235.626663 482.131226,234.704453 
	C481.029724,233.892609 480.517181,233.514832 479.300171,232.906479 
M492.268555,94.575241 
	C491.666748,92.077408 491.064941,89.579575 490.463135,87.081749 
	C487.660522,94.410042 487.681427,94.471527 492.268555,94.575241 
M386.948181,203.585556 
	C385.228424,202.376419 383.508636,201.167282 381.788849,199.958130 
	C381.483307,200.340515 381.177734,200.722885 380.872162,201.105255 
	C381.450775,202.939957 382.029419,204.774643 382.773956,207.135406 
	C384.268524,205.881302 385.357361,204.967606 386.948181,203.585556 
z"/>
<path fill="#A69E94" opacity="1.000000" stroke="none" 
	d="
M407.810760,81.821014 
	C415.189117,95.024323 422.610809,108.203651 429.930908,121.439178 
	C434.997314,130.599747 439.923645,139.837814 444.478668,149.430664 
	C359.489655,149.830444 274.934540,149.839661 190.379440,149.857391 
	C188.218155,149.857849 186.056915,149.951920 183.617920,149.805634 
	C163.465073,110.356773 143.589966,71.104607 123.196808,30.829309 
	C121.778961,33.615749 120.867012,35.319897 120.032417,37.061127 
	C101.984299,74.715416 83.902092,112.353554 65.988480,150.071747 
	C64.622192,152.948547 63.838524,156.396606 63.832184,159.581207 
	C63.708286,221.866043 63.740120,284.151184 63.740120,346.436279 
	C63.740120,348.521912 63.740120,350.607544 63.740120,353.000000 
	C42.275585,353.000000 21.637793,353.000000 1.000000,353.000000 
	C1.000000,348.975464 1.000000,344.950897 1.465886,340.406067 
	C17.851280,339.885773 33.770790,339.885773 50.019440,339.885773 
	C50.019440,337.077271 50.019444,335.092834 50.019444,333.108368 
	C50.019447,274.462830 49.981903,215.817184 50.117435,157.171967 
	C50.125153,153.833298 50.959023,150.214722 52.403130,147.203461 
	C74.328972,101.483498 96.434753,55.849861 118.442688,10.169167 
	C119.861176,7.224895 120.824791,4.061478 122.000000,1.000000 
	C201.687561,1.000000 281.375122,1.000000 361.547699,1.357448 
	C368.680603,13.537522 375.257996,25.400478 381.994110,37.172623 
	C390.532227,52.094021 399.199280,66.941620 407.810760,81.821014 
z"/>
<path fill="#FEFEFE" opacity="1.000000" stroke="none" 
	d="
M1.000000,353.500000 
	C21.637793,353.000000 42.275585,353.000000 63.740120,353.000000 
	C63.740120,350.607544 63.740120,348.521912 63.740120,346.436279 
	C63.740120,284.151184 63.708286,221.866043 63.832184,159.581207 
	C63.838524,156.396606 64.622192,152.948547 65.988480,150.071747 
	C83.902092,112.353554 101.984299,74.715416 120.032417,37.061127 
	C120.867012,35.319897 121.778961,33.615749 123.196808,30.829309 
	C143.589966,71.104607 163.465073,110.356773 183.614120,150.274109 
	C183.888062,218.229019 183.888062,285.518738 183.888062,352.850433 
	C198.062759,352.850433 211.521835,352.850433 224.980911,352.850464 
	C225.590744,353.028259 226.200577,353.206085 226.905212,353.691956 
	C151.666672,354.000000 76.333336,354.000000 1.000000,353.500000 
M104.111244,349.285461 
	C104.752281,350.519806 105.369751,352.814758 106.037903,352.829620 
	C116.294106,353.057556 126.556908,352.988495 136.786896,352.988495 
	C136.786896,309.948334 136.786896,267.525543 136.786896,225.070923 
	C125.833176,225.070923 115.130135,225.070923 104.111122,225.070923 
	C104.111122,266.401917 104.111122,307.364502 104.111244,349.285461 
z"/>
<path fill="#FFFFFF" opacity="1.000000" stroke="none" 
	d="
M121.531342,1.000000 
	C120.824791,4.061478 119.861176,7.224895 118.442688,10.169167 
	C96.434753,55.849861 74.328972,101.483498 52.403130,147.203461 
	C50.959023,150.214722 50.125153,153.833298 50.117435,157.171967 
	C49.981903,215.817184 50.019447,274.462830 50.019444,333.108368 
	C50.019444,335.092834 50.019440,337.077271 50.019440,339.885773 
	C33.770790,339.885773 17.851280,339.885773 1.465886,339.942871 
	C1.000000,227.107529 1.000000,114.215057 1.000000,1.000000 
	C41.020317,1.000000 81.041496,1.000000 121.531342,1.000000 
z"/>
<path fill="#FEFFFF" opacity="1.000000" stroke="none" 
	d="
M407.929596,81.493286 
	C399.199280,66.941620 390.532227,52.094021 381.994110,37.172623 
	C375.257996,25.400478 368.680603,13.537522 362.016357,1.357448 
	C407.687561,1.000000 453.375122,1.000000 499.531342,1.000005 
	C491.339111,6.753729 482.683624,12.515643 474.015778,18.258909 
	C464.928101,24.280352 458.080627,31.544760 457.647644,43.424152 
	C457.509064,47.225712 455.257355,50.950245 454.150848,54.187931 
	C433.440247,54.678894 418.522980,64.089813 407.929596,81.493286 
z"/>
<path fill="#3B8484" opacity="1.000000" stroke="none" 
	d="
M1637.532471,1.000018 
	C1635.391846,5.599771 1633.187988,10.517191 1629.958252,14.628719 
	C1628.812378,16.087399 1625.181396,15.779304 1622.664185,15.929357 
	C1619.365356,16.126013 1616.046021,15.977593 1611.920532,15.977593 
	C1615.117798,10.925927 1618.035034,6.316709 1620.976074,1.353745 
	C1626.354980,1.000000 1631.709839,1.000000 1637.532471,1.000018 
z"/>
<path fill="#B4D0D0" opacity="1.000000" stroke="none" 
	d="
M1658.000000,108.531342 
	C1657.813721,108.991631 1657.627441,108.983269 1657.209473,108.477219 
	C1656.947510,80.020012 1656.917480,52.060490 1656.887451,24.100967 
	C1657.072144,24.075691 1657.256714,24.050415 1657.720703,24.012569 
	C1658.000000,52.020893 1658.000000,80.041786 1658.000000,108.531342 
z"/>
<path fill="#3B8484" opacity="1.000000" stroke="none" 
	d="
M893.848145,219.818176 
	C905.608459,203.852921 917.242310,188.237885 928.638855,172.451523 
	C930.915771,169.297607 933.249939,167.688004 937.234985,168.068832 
	C940.992004,168.427887 944.810303,168.145874 948.875610,168.145874 
	C948.875610,196.555984 948.875610,224.467163 948.875610,252.748718 
	C943.166443,252.748718 937.420166,252.748718 930.999634,252.748718 
	C930.999634,235.112762 930.999634,217.290268 930.999634,199.467758 
	C930.611633,199.340164 930.223633,199.212570 929.835632,199.084976 
	C927.115112,202.717834 924.362610,206.327286 921.679810,209.987808 
	C912.138062,223.006790 902.517822,235.970474 893.169189,249.127075 
	C890.981201,252.206207 888.684448,253.508163 884.941162,253.192841 
	C880.987488,252.859787 876.983887,253.118118 872.665955,253.118118 
	C872.665955,224.726028 872.665955,196.687347 872.665955,168.397003 
	C878.689575,168.397003 884.452698,168.397003 890.707825,168.397003 
	C890.707825,186.326508 890.707825,204.212326 890.707825,223.335297 
	C892.238403,221.649719 892.938293,220.878937 893.848145,219.818176 
z"/>
<path fill="#3A8383" opacity="1.000000" stroke="none" 
	d="
M1656.429199,24.056446 
	C1656.917480,52.060490 1656.947510,80.020012 1656.932373,108.439316 
	C1651.098877,108.899094 1645.310303,108.899094 1639.076660,108.899094 
	C1639.076660,90.736237 1639.076660,72.866341 1639.076660,53.630318 
	C1637.354858,55.979317 1636.380493,57.209415 1635.511597,58.509819 
	C1625.159302,74.002678 1614.729858,89.445557 1604.561646,105.058525 
	C1602.584961,108.093681 1600.525391,109.367188 1596.931396,109.079880 
	C1592.839355,108.752739 1588.700928,109.004234 1584.350586,109.004234 
	C1584.350586,80.591080 1584.350586,52.682285 1584.350586,24.384254 
	C1590.227905,24.384254 1596.129272,24.384254 1602.508789,24.384254 
	C1602.508789,41.960175 1602.508789,59.696053 1602.508789,77.431931 
	C1602.878540,77.601875 1603.248413,77.771812 1603.618164,77.941757 
	C1604.488647,76.726387 1605.390747,75.532394 1606.224609,74.292389 
	C1616.523560,58.979149 1626.894653,43.713249 1637.034424,28.295254 
	C1639.063599,25.209681 1641.077881,23.475218 1644.991089,23.911053 
	C1648.609863,24.314083 1652.307739,24.006533 1656.429199,24.056446 
z"/>
<path fill="#3A8484" opacity="1.000000" stroke="none" 
	d="
M1041.731201,66.055450 
	C1040.804810,87.576118 1028.638672,103.414597 1009.239075,108.800865 
	C989.834167,114.188591 969.080078,107.071709 958.668945,90.881660 
	C949.026062,75.886375 948.462524,60.035610 957.277039,44.610008 
	C966.161743,29.061502 980.486267,22.071165 998.145081,22.741045 
	C1023.481384,23.702169 1039.629395,39.882217 1041.731201,66.055450 
M1012.257324,87.831657 
	C1013.338196,86.795151 1014.510193,85.837486 1015.485413,84.709656 
	C1023.156982,75.837875 1024.205566,62.230186 1018.047424,52.046486 
	C1012.427185,42.752380 1001.462036,38.051868 990.948364,40.429543 
	C980.439575,42.806118 972.998474,50.598808 971.350586,61.874382 
	C969.730286,72.961075 973.036804,82.578285 982.630188,88.858902 
	C992.184082,95.113670 1002.110718,94.680351 1012.257324,87.831657 
z"/>
<path fill="#3A8484" opacity="1.000000" stroke="none" 
	d="
M1167.587036,103.472702 
	C1151.166138,92.155746 1144.920654,76.545807 1148.572876,57.748451 
	C1152.232544,38.912609 1164.610229,27.652300 1183.279541,23.495722 
	C1207.322876,18.142649 1231.459473,32.939114 1236.727417,56.115841 
	C1242.349854,80.851387 1227.550171,104.106789 1202.482178,109.381744 
	C1190.340820,111.936577 1178.666992,110.141945 1167.587036,103.472702 
M1211.051147,85.519905 
	C1212.456177,83.481171 1214.200928,81.596672 1215.208618,79.377525 
	C1220.061523,68.689888 1219.476929,58.359066 1212.037231,49.018738 
	C1205.626831,40.970547 1196.878418,38.476925 1187.071777,40.515808 
	C1175.877441,42.843208 1168.680908,51.541599 1167.053223,63.726254 
	C1165.714844,73.745102 1171.690063,85.331017 1180.636841,90.064941 
	C1190.695557,95.387238 1201.745239,93.898071 1211.051147,85.519905 
z"/>
<path fill="#3D8585" opacity="1.000000" stroke="none" 
	d="
M1297.745483,23.989521 
	C1300.668701,23.959206 1302.764526,23.678326 1304.120605,26.923086 
	C1315.264771,53.589024 1326.662354,80.149048 1337.971436,106.746185 
	C1338.281616,107.475891 1338.460449,108.261513 1338.816528,109.388039 
	C1308.937256,109.388039 1279.411133,109.388039 1249.194946,109.388039 
	C1252.594238,101.345505 1255.854492,93.594788 1259.144287,85.856613 
	C1267.071289,67.210632 1275.136475,48.621723 1282.854858,29.889853 
	C1284.652832,25.526123 1286.681396,22.889236 1291.799316,23.932547 
	C1293.557983,24.291050 1295.451416,23.989519 1297.745483,23.989521 
M1297.493896,92.323364 
	C1302.238281,92.323364 1306.982788,92.323364 1312.504028,92.323364 
	C1306.192139,76.879356 1300.225952,62.281551 1293.841431,46.659809 
	C1287.410522,62.467617 1281.496704,77.004402 1275.264648,92.323639 
	C1282.937866,92.323639 1289.716797,92.323639 1297.493896,92.323364 
z"/>
<path fill="#388282" opacity="1.000000" stroke="none" 
	d="
M1377.341797,41.993568 
	C1377.341919,47.295822 1377.341919,52.099888 1377.341919,57.313511 
	C1390.472290,57.313511 1403.189209,57.313511 1416.462158,57.313511 
	C1416.462158,46.506020 1416.462158,35.607288 1416.462158,24.357906 
	C1422.897095,24.357906 1428.791260,24.357906 1435.015869,24.357906 
	C1435.015869,52.419128 1435.015869,80.447380 1435.015869,108.738182 
	C1429.107788,108.738182 1423.340698,108.738182 1416.993652,108.738182 
	C1416.993652,97.721748 1416.993652,86.676544 1416.993652,75.287628 
	C1403.560669,75.287628 1390.702271,75.287628 1377.463623,75.287628 
	C1377.463623,86.426323 1377.463623,97.375748 1377.463623,108.660118 
	C1371.193726,108.660118 1365.294067,108.660118 1359.090576,108.660118 
	C1359.090576,80.563805 1359.090576,52.531780 1359.090576,24.249695 
	C1365.034424,24.249695 1370.796753,24.249695 1377.341675,24.249695 
	C1377.341675,30.015820 1377.341675,35.755596 1377.341797,41.993568 
z"/>
<path fill="#3B8484" opacity="1.000000" stroke="none" 
	d="
M805.034790,28.967388 
	C806.134094,23.948872 809.251587,23.527941 813.529419,23.117741 
	C821.797485,22.324924 825.948425,24.971882 829.131958,33.099110 
	C838.643616,57.382149 849.301880,81.216049 859.507629,105.227325 
	C859.952087,106.273064 860.349731,107.338722 861.010071,109.002029 
	C854.941223,109.002029 849.342957,109.197021 843.777893,108.854485 
	C842.507568,108.776283 840.851685,107.071625 840.231628,105.721359 
	C837.884583,100.610184 835.890442,95.336960 833.704956,89.978928 
	C822.521484,89.978928 811.532104,89.880783 800.549683,90.110054 
	C799.257690,90.137039 797.468140,91.701355 796.829346,93.004181 
	C794.711548,97.323349 793.186829,101.934357 791.048767,106.241905 
	C790.427856,107.492920 788.555725,108.798653 787.184814,108.881355 
	C782.047119,109.191299 776.879456,109.005424 771.011841,109.005424 
	C782.442444,82.140640 793.677307,55.736023 805.034790,28.967388 
M807.058105,73.263420 
	C813.409912,73.263420 819.761658,73.263420 826.959167,73.263420 
	C823.103394,63.851654 819.681946,55.499950 815.798462,46.020451 
	C811.979980,55.384647 808.622009,63.581097 805.344543,71.809631 
	C805.223083,72.114731 805.888428,72.733192 807.058105,73.263420 
z"/>
<path fill="#3B8484" opacity="1.000000" stroke="none" 
	d="
M1064.147217,100.925606 
	C1064.147217,75.146126 1064.147217,49.854919 1064.147217,23.493330 
	C1079.357544,24.033941 1094.208618,23.595882 1108.793579,25.359165 
	C1122.632324,27.032228 1131.025879,38.489475 1131.517822,52.907673 
	C1131.997803,66.970123 1123.646240,78.642227 1109.546265,81.713722 
	C1101.180054,83.536179 1092.413208,83.518906 1083.191162,84.388748 
	C1083.191162,92.037117 1083.191162,100.259300 1083.191162,108.735718 
	C1076.686401,108.735718 1070.763306,108.735718 1064.147095,108.735718 
	C1064.147095,106.278236 1064.147095,103.846054 1064.147217,100.925606 
M1090.532959,66.994560 
	C1093.361450,66.993408 1096.199829,67.145729 1099.016357,66.961922 
	C1106.990479,66.441513 1112.096313,61.584274 1112.372925,54.437424 
	C1112.657959,47.075634 1108.667480,41.920341 1101.133545,41.178986 
	C1095.262695,40.601292 1089.289673,41.063362 1083.326172,41.063362 
	C1083.326172,49.943623 1083.326172,58.324291 1083.326172,66.994560 
	C1085.617920,66.994560 1087.590820,66.994560 1090.532959,66.994560 
z"/>
<path fill="#3A8484" opacity="1.000000" stroke="none" 
	d="
M1073.995605,229.999969 
	C1073.995605,209.236603 1073.995605,188.973236 1073.995605,168.430298 
	C1080.341919,168.430298 1086.246338,168.430298 1092.598389,168.430298 
	C1092.598389,177.780197 1092.598389,187.028473 1092.598389,197.062393 
	C1098.929810,197.062393 1104.917725,196.480743 1110.738159,197.219543 
	C1117.056274,198.021545 1123.724609,199.022278 1129.335327,201.778381 
	C1138.762207,206.409058 1142.112793,215.382904 1141.840088,225.538940 
	C1141.567261,235.696671 1137.468140,244.034821 1128.177124,248.814636 
	C1124.270630,250.824371 1119.748901,252.550583 1115.445312,252.706467 
	C1101.848022,253.199005 1088.221802,252.888229 1073.995605,252.888229 
	C1073.995605,245.359222 1073.995605,237.929596 1073.995605,229.999969 
M1120.063721,216.438141 
	C1111.538574,210.690155 1102.168579,213.935913 1093.129639,213.201416 
	C1093.129639,221.168793 1093.129639,228.427887 1093.129639,236.124619 
	C1099.187378,236.124619 1104.973022,236.170166 1110.757568,236.110382 
	C1115.502563,236.061371 1119.849487,234.807693 1121.956421,230.131577 
	C1123.977661,225.645462 1123.921997,221.077454 1120.063721,216.438141 
z"/>
<path fill="#3A8484" opacity="1.000000" stroke="none" 
	d="
M1461.883545,50.999992 
	C1461.883423,41.871300 1461.883423,33.242607 1461.883423,24.306213 
	C1468.123779,24.306213 1474.040649,24.306213 1480.536133,24.306213 
	C1480.536133,33.641922 1480.536133,43.036911 1480.536133,53.006439 
	C1488.037964,53.006439 1494.998047,52.687523 1501.917725,53.080330 
	C1512.603027,53.686905 1521.958252,57.365314 1526.820312,67.691528 
	C1531.539307,77.713821 1530.906006,87.825836 1524.658813,97.100357 
	C1519.311157,105.039536 1510.948242,108.300285 1501.911621,108.699379 
	C1488.815430,109.277779 1475.674561,108.847565 1461.883545,108.847565 
	C1461.883545,89.630402 1461.883545,70.565201 1461.883545,50.999992 
M1501.643921,91.692406 
	C1508.867920,89.386917 1511.528687,85.795746 1510.990479,79.078484 
	C1510.556396,73.660637 1507.057861,69.793625 1500.821167,69.297462 
	C1494.263184,68.775742 1487.631592,69.180641 1481.039307,69.180641 
	C1481.039307,76.961220 1481.039307,84.331245 1481.039307,91.855392 
	C1487.868408,91.855392 1494.329956,91.855392 1501.643921,91.692406 
z"/>
<path fill="#3B8484" opacity="1.000000" stroke="none" 
	d="
M695.417419,41.540367 
	C694.062256,39.827942 692.944885,38.389416 691.528015,36.565289 
	C696.653931,30.819901 702.834229,26.985836 710.088684,24.774937 
	C719.394409,21.938892 728.850586,21.696489 738.132080,24.354391 
	C747.064026,26.912201 754.242798,32.027069 755.889038,41.928932 
	C757.594604,52.187023 753.327087,59.739002 743.529602,64.571007 
	C744.770996,65.351379 745.614807,66.028671 746.569641,66.460205 
	C762.691772,73.746986 761.234253,94.503914 749.938599,102.859337 
	C745.922791,105.829834 740.958618,108.229118 736.089722,109.205856 
	C719.671143,112.499588 700.469116,109.336807 688.601746,96.016479 
	C691.687683,91.983826 694.865784,87.830803 698.295837,83.348473 
	C706.260254,90.355103 715.242737,94.255508 725.639709,93.898811 
	C728.701294,93.793785 732.359924,93.359535 734.592285,91.607506 
	C737.012573,89.707962 739.425293,86.058846 739.350708,83.238571 
	C739.283997,80.716484 736.299377,77.378922 733.744202,76.045479 
	C730.680237,74.446510 726.726135,74.386757 723.120972,74.041794 
	C720.007446,73.743874 716.842896,73.979942 713.363953,73.979942 
	C713.363953,68.775345 713.363953,63.871361 713.363953,58.154049 
	C717.087158,58.154049 720.861755,58.289665 724.620422,58.103703 
	C726.912292,57.990314 729.262390,57.639286 731.440186,56.939922 
	C735.486633,55.640457 737.895386,52.711884 737.779175,48.387043 
	C737.661682,44.015450 734.905640,41.261326 730.900024,40.184006 
	C721.679993,37.704285 713.121704,39.472065 705.332458,44.954800 
	C703.986389,45.902287 702.736816,46.986908 701.161621,48.229996 
	C699.290039,46.049381 697.472656,43.931820 695.417419,41.540367 
z"/>
<path fill="#3B8484" opacity="1.000000" stroke="none" 
	d="
M688.407104,211.811218 
	C688.971863,191.905502 697.419739,177.453461 715.797424,169.962128 
	C733.282043,162.834747 752.373535,167.087097 765.464478,180.764206 
	C761.904053,184.896271 758.294312,189.085510 754.710754,193.244415 
	C737.721558,181.411545 724.286926,181.167709 714.689941,192.265457 
	C705.745056,202.609299 705.825378,219.395935 714.867981,229.466873 
	C724.529602,240.227127 738.585999,239.705231 755.108032,227.618027 
	C758.869263,231.636032 762.687805,235.715302 766.767578,240.073578 
	C760.680603,247.048386 753.469666,251.302582 744.805725,253.346863 
	C722.450012,258.621735 701.466736,249.355927 692.646484,229.551407 
	C690.269592,224.214539 689.775635,218.039062 688.407104,211.811218 
z"/>
<path fill="#3B8484" opacity="1.000000" stroke="none" 
	d="
M986.096069,202.023224 
	C990.387146,191.879593 994.683594,182.148376 998.684570,172.297195 
	C999.905579,169.290924 1001.321167,167.998535 1004.807739,168.041763 
	C1017.536926,168.199524 1017.611816,168.010788 1022.545349,179.539581 
	C1032.548218,202.914169 1042.466187,226.325089 1052.408813,249.725479 
	C1052.916992,250.921509 1053.327271,252.159149 1053.976074,253.892761 
	C1047.896973,253.892761 1042.274048,254.136719 1036.701538,253.714462 
	C1035.373657,253.613846 1033.701782,251.500824 1033.056274,249.951675 
	C1025.642944,232.160767 1018.400391,214.298706 1011.101501,196.460068 
	C1010.497375,194.983658 1009.814514,193.539490 1008.751221,191.138809 
	C1002.549133,206.339035 996.746460,220.576279 990.929932,234.807846 
	C988.730469,240.189301 986.673828,245.641510 984.163818,250.875259 
	C983.508301,252.242126 981.450867,253.653885 979.943848,253.763748 
	C974.979614,254.125610 969.972595,253.899994 964.027588,253.899994 
	C971.492615,236.389816 978.740173,219.389664 986.096069,202.023224 
z"/>
<path fill="#3B8484" opacity="1.000000" stroke="none" 
	d="
M820.916931,253.119080 
	C816.296509,253.119141 812.165771,253.119141 807.587952,253.119141 
	C807.587952,230.602478 807.587952,208.521576 807.587952,185.800568 
	C798.944702,185.800568 790.722229,185.800568 782.149292,185.800568 
	C782.149292,179.766418 782.149292,174.366272 782.149292,168.551117 
	C805.102417,168.551117 828.133850,168.551117 851.587036,168.551117 
	C851.587036,173.881516 851.587036,179.425735 851.587036,185.485184 
	C843.429382,185.485184 835.166626,185.485184 826.320312,185.485184 
	C826.320312,208.168274 826.320312,230.358810 826.320312,252.832565 
	C824.300293,252.950317 822.853455,253.034668 820.916931,253.119080 
z"/>
<path fill="#3B8484" opacity="1.000000" stroke="none" 
	d="
M904.125061,40.975777 
	C902.191895,41.062584 900.744873,41.149376 898.989990,41.254635 
	C898.989990,63.837669 898.989990,86.106682 898.989990,108.688889 
	C892.729187,108.688889 886.805542,108.688889 880.488892,108.688889 
	C880.488892,80.756500 880.488892,52.710152 880.488892,24.328304 
	C899.996582,24.328304 919.548218,24.328304 939.386719,24.328304 
	C939.386719,29.687006 939.386719,34.946445 939.386719,40.975758 
	C927.766052,40.975758 916.188599,40.975758 904.125061,40.975777 
z"/>
<path fill="#3B8484" opacity="1.000000" stroke="none" 
	d="
M1539.024292,68.000000 
	C1539.024292,53.222820 1539.024292,38.945637 1539.024292,24.332443 
	C1545.336060,24.332443 1551.364868,24.332443 1557.647461,24.332443 
	C1557.647461,52.496414 1557.647461,80.498238 1557.647461,108.752762 
	C1551.493286,108.752762 1545.581665,108.752762 1539.024292,108.752762 
	C1539.024292,95.300606 1539.024292,81.900307 1539.024292,68.000000 
z"/>
<path fill="#ADA59C" opacity="1.000000" stroke="none" 
	d="
M1196.084595,339.100586 
	C1193.035767,341.646057 1192.853394,347.020660 1186.643677,346.708923 
	C1189.767212,342.225952 1192.170410,338.109039 1195.241089,334.571655 
	C1197.920654,331.484863 1197.244263,329.474457 1194.632324,327.029205 
	C1192.254150,324.802826 1190.166870,322.265625 1188.485596,319.311005 
	C1196.105957,321.367828 1198.690796,329.140076 1205.256104,333.924011 
	C1205.256104,329.594391 1205.130005,325.756042 1205.342651,321.936554 
	C1205.397339,320.954590 1206.518799,320.032013 1207.150146,319.082123 
	C1207.740601,320.060669 1208.785645,321.014557 1208.840332,322.022156 
	C1209.043701,325.771271 1208.921387,329.538025 1208.921387,334.188293 
	C1215.317993,329.255981 1218.294067,321.842163 1225.010010,318.740417 
	C1225.375610,319.094299 1225.741211,319.448212 1226.106812,319.802124 
	C1224.126099,322.039612 1222.237671,324.367981 1220.142822,326.492920 
	C1217.151855,329.527100 1216.537720,332.170624 1219.842896,335.676178 
	C1222.703857,338.710419 1224.741455,342.520996 1226.645020,346.392365 
	C1219.827148,344.952057 1219.023926,337.590057 1214.209473,334.066620 
	C1208.633911,336.457428 1208.897705,341.712280 1208.694824,346.735565 
	C1208.219849,346.829987 1207.744873,346.924408 1207.269775,347.018829 
	C1205.413574,342.603485 1203.557251,338.188141 1201.701050,333.772766 
	C1201.092529,333.763397 1200.484009,333.754028 1199.875488,333.744629 
	C1198.681641,335.432861 1197.487793,337.121063 1196.084595,339.100586 
z"/>
<path fill="#AEA79E" opacity="1.000000" stroke="none" 
	d="
M1081.585327,352.506287 
	C1077.517700,350.443115 1078.366455,345.787720 1080.143066,344.629608 
	C1085.602539,341.070618 1085.219482,335.696686 1085.954468,330.699860 
	C1086.496704,327.013550 1086.061035,323.183411 1086.061035,319.200470 
	C1092.719727,319.200470 1098.465576,319.200470 1104.932373,319.200470 
	C1104.932373,325.962952 1104.772949,332.549469 1105.040161,339.118591 
	C1105.110229,340.844727 1106.866821,342.448364 1107.202271,344.230011 
	C1107.724365,347.003632 1107.693115,349.881378 1107.896362,352.714996 
	C1107.168335,352.791412 1106.440430,352.867828 1105.712524,352.944244 
	C1105.375977,351.219116 1105.039429,349.494019 1104.610596,347.295715 
	C1097.731812,347.295715 1090.707275,347.295715 1083.540039,347.295715 
	C1083.010254,348.924957 1082.463623,350.606354 1081.585327,352.506287 
M1101.773071,328.612671 
	C1101.773071,326.523529 1101.773071,324.434387 1101.773071,322.318848 
	C1097.443359,322.318848 1093.878662,322.318848 1090.554321,322.318848 
	C1089.417847,329.640106 1088.339966,336.583466 1087.193481,343.969299 
	C1091.107788,343.969299 1094.927490,344.231934 1098.670288,343.811096 
	C1099.809814,343.682983 1101.481567,341.754395 1101.620972,340.506500 
	C1102.023193,336.903870 1101.769043,333.227997 1101.773071,328.612671 
z"/>
<path fill="#ACA49B" opacity="1.000000" stroke="none" 
	d="
M925.272827,319.003479 
	C928.567017,318.981750 931.520996,318.455536 934.182739,319.112762 
	C937.339478,319.892273 941.295715,320.953827 942.927124,323.280396 
	C944.239319,325.151794 942.606140,329.088440 942.390137,331.088379 
	C943.376465,334.891174 945.172302,338.185120 944.795959,341.208710 
	C944.220825,345.830078 939.611572,346.381256 935.849731,346.738159 
	C931.780212,347.124207 927.645813,346.825562 923.032715,346.825562 
	C923.032715,337.827301 922.993347,329.399597 923.109253,320.974091 
	C923.118286,320.316010 924.213013,319.672882 925.272827,319.003479 
M926.023987,340.379639 
	C926.417236,341.525238 926.808716,343.662292 927.204041,343.663025 
	C931.121277,343.670105 935.115601,343.683228 938.914368,342.876465 
	C940.194214,342.604645 941.849304,339.931580 941.739502,338.476227 
	C941.633362,337.069489 939.637817,334.936127 938.187134,334.668793 
	C934.383850,333.967926 930.425049,334.110687 926.023132,333.892151 
	C926.023132,336.226410 926.023132,337.843903 926.023987,340.379639 
M926.250427,322.835846 
	C926.250427,325.424957 926.250427,328.014099 926.250427,330.956696 
	C929.924011,330.956696 933.317383,331.466980 936.432007,330.756104 
	C938.165710,330.360382 939.435120,327.930664 940.913818,326.417664 
	C939.384216,324.956085 938.048401,322.620361 936.281616,322.228699 
	C933.298706,321.567444 930.042847,322.137482 926.250427,322.835846 
z"/>
<path fill="#ACA49B" opacity="1.000000" stroke="none" 
	d="
M1118.977051,324.142700 
	C1119.082275,322.225586 1119.187500,320.791565 1119.320679,318.976746 
	C1122.961304,318.976746 1126.252563,319.017761 1129.542480,318.965973 
	C1133.329102,318.906342 1137.554321,319.080231 1138.719360,323.170685 
	C1139.518188,325.975281 1138.159546,329.394440 1137.829102,332.029816 
	C1138.837280,334.937836 1140.809570,337.952972 1140.669800,340.866821 
	C1140.473267,344.968323 1136.424438,346.217560 1132.949585,346.559357 
	C1128.552979,346.991730 1124.081665,346.663788 1118.977173,346.663788 
	C1118.977173,339.113464 1118.977173,331.869598 1118.977051,324.142700 
M1137.724365,340.138916 
	C1137.205933,334.243378 1132.411133,332.527771 1122.296021,334.696899 
	C1122.296021,337.562775 1122.296021,340.453796 1122.296021,343.287354 
	C1130.599365,344.701080 1133.580444,344.196381 1137.724365,340.138916 
M1134.262207,330.002472 
	C1134.801758,328.261047 1136.188232,326.165802 1135.648926,324.875061 
	C1135.078613,323.509674 1132.760986,322.369263 1131.052856,322.098206 
	C1128.225098,321.649475 1125.274292,321.976196 1122.398438,321.976196 
	C1122.398438,325.378174 1122.398438,328.070435 1122.398438,331.343750 
	C1126.390259,331.005981 1129.948853,330.704865 1134.262207,330.002472 
z"/>
<path fill="#ACA49B" opacity="1.000000" stroke="none" 
	d="
M1298.024170,332.240540 
	C1298.024170,329.868256 1298.024170,327.955200 1298.024170,324.762054 
	C1294.265503,330.114990 1291.273926,334.375519 1287.995117,339.045044 
	C1284.734619,334.370300 1281.760010,330.105316 1278.331177,325.189240 
	C1277.313110,332.882996 1278.982544,339.997009 1277.344360,346.750702 
	C1276.764038,346.717682 1276.183838,346.684662 1275.603516,346.651642 
	C1275.603516,337.564880 1275.603516,328.478119 1275.603516,318.263367 
	C1282.072998,321.583801 1283.204102,328.818054 1288.233032,333.067810 
	C1292.622803,328.863831 1294.409302,322.188202 1300.393311,318.953461 
	C1300.856079,328.405365 1301.923462,337.579559 1300.518311,346.660156 
	C1299.686890,346.665314 1298.855591,346.670502 1298.024170,346.675659 
	C1298.024170,342.017029 1298.024170,337.358398 1298.024170,332.240540 
z"/>
<path fill="#AEA79E" opacity="1.000000" stroke="none" 
	d="
M1261.031982,331.016144 
	C1261.031982,336.609467 1261.031982,341.708344 1261.031982,346.807251 
	C1260.214600,346.814026 1259.397339,346.820801 1258.579956,346.827576 
	C1258.579956,339.804230 1258.579956,332.780853 1258.579956,325.757507 
	C1258.062500,325.620941 1257.544922,325.484344 1257.027466,325.347778 
	C1252.732300,331.298676 1248.510620,337.305084 1244.090088,343.161224 
	C1242.994751,344.612305 1241.254272,345.576263 1239.810303,346.764099 
	C1239.273682,345.050110 1238.324951,343.348236 1238.274170,341.619995 
	C1238.088257,335.297882 1238.114990,328.964722 1238.278076,322.641296 
	C1238.309082,321.441223 1239.327148,320.266663 1239.889893,319.080353 
	C1240.560059,320.318420 1241.759399,321.535797 1241.808594,322.798065 
	C1242.022339,328.268250 1241.900391,333.751526 1242.810791,339.762848 
	C1245.203003,336.580078 1247.630005,333.422760 1249.976929,330.206879 
	C1252.032471,327.389984 1253.894165,324.425629 1256.049805,321.690521 
	C1257.022827,320.455933 1258.501709,319.619965 1259.750977,318.603119 
	C1260.177979,318.825256 1260.604980,319.047424 1261.031982,319.269592 
	C1261.031982,323.020294 1261.031982,326.771027 1261.031982,331.016144 
z"/>
<path fill="#ADA59C" opacity="1.000000" stroke="none" 
	d="
M1175.980103,334.980682 
	C1175.980103,339.242157 1175.980103,343.009460 1175.980103,346.776764 
	C1175.107544,346.786163 1174.234863,346.795532 1173.362305,346.804932 
	C1173.362305,339.986237 1173.362305,333.167572 1173.362305,326.348907 
	C1172.792480,326.201935 1172.222656,326.054962 1171.652832,325.908020 
	C1170.693359,327.068634 1169.669800,328.182556 1168.786011,329.398193 
	C1165.371826,334.094421 1162.083008,338.884583 1158.564819,343.500641 
	C1157.558350,344.821320 1155.935791,345.672516 1154.595703,346.738983 
	C1154.088501,345.173340 1153.189331,343.619019 1153.143677,342.040009 
	C1152.970581,336.056458 1152.951660,330.060760 1153.152588,324.078949 
	C1153.209229,322.397003 1154.215332,320.747009 1154.786011,319.082336 
	C1155.440430,320.675751 1156.581909,322.245941 1156.659180,323.866882 
	C1156.903320,328.991333 1156.749268,334.134796 1156.749268,340.137115 
	C1163.910767,333.338715 1167.077393,324.063019 1174.395508,318.561646 
	C1174.923706,318.803040 1175.451904,319.044403 1175.980103,319.285797 
	C1175.980103,324.352722 1175.980103,329.419617 1175.980103,334.980682 
z"/>
<path fill="#ADA59C" opacity="1.000000" stroke="none" 
	d="
M1440.298096,344.282715 
	C1440.264771,338.105988 1440.264771,332.358398 1440.264771,325.493378 
	C1432.870361,332.460358 1429.758301,341.647430 1422.152344,347.450378 
	C1420.047974,340.638733 1420.654053,321.368927 1424.026611,317.797363 
	C1424.026611,322.553009 1424.026733,326.001251 1424.026733,329.449493 
	C1424.026733,333.019073 1424.026611,336.588623 1424.026611,340.974304 
	C1431.456421,333.797150 1434.670288,324.176910 1442.390259,318.617188 
	C1442.885010,318.876312 1443.379639,319.135406 1443.874390,319.394531 
	C1443.874390,327.816040 1443.900024,336.237823 1443.824829,344.658630 
	C1443.818848,345.319824 1443.109741,345.974762 1442.727539,346.632660 
	C1441.928833,345.992401 1441.130005,345.352112 1440.298096,344.282715 
z"/>
<path fill="#AEA79E" opacity="1.000000" stroke="none" 
	d="
M961.865479,344.319458 
	C953.132507,335.461029 954.712769,323.944977 964.938232,319.616760 
	C970.532410,317.248840 977.663513,318.800323 981.225037,323.160278 
	C985.189148,328.013092 985.672668,335.759613 982.325745,340.793976 
	C979.002258,345.793121 972.428528,348.292114 966.617981,346.614471 
	C965.061218,346.165009 963.634277,345.265808 961.865479,344.319458 
M962.417664,325.044067 
	C957.054077,332.922943 960.474426,342.942627 968.878906,343.971954 
	C973.908752,344.587952 978.454590,341.925262 980.394470,337.226654 
	C982.148071,332.979492 980.512878,326.349945 977.039612,323.624084 
	C973.105469,320.536591 967.982788,320.852875 962.417664,325.044067 
z"/>
<path fill="#ADA59C" opacity="1.000000" stroke="none" 
	d="
M1326.446655,318.445190 
	C1334.938232,318.870178 1339.559448,322.102600 1341.550049,328.640839 
	C1343.308228,334.415833 1341.035034,340.958405 1336.049927,344.493103 
	C1330.836792,348.189545 1325.421387,348.034180 1320.151245,344.884949 
	C1314.592407,341.563049 1313.192505,336.102020 1314.098145,330.162537 
	C1314.933228,324.685791 1318.214600,320.835693 1323.633057,319.076385 
	C1324.418335,318.821472 1325.253540,318.719879 1326.446655,318.445190 
M1317.841553,336.374603 
	C1319.680542,338.582306 1321.117310,341.465271 1323.445312,342.852478 
	C1327.849731,345.477020 1333.407593,343.878052 1336.333374,339.982788 
	C1339.386475,335.918304 1339.326660,329.650391 1336.196655,325.644409 
	C1333.273560,321.903381 1327.426636,320.520813 1323.165771,322.563202 
	C1318.652832,324.726410 1316.556641,329.652832 1317.841553,336.374603 
z"/>
<path fill="#ACA49B" opacity="1.000000" stroke="none" 
	d="
M1058.060791,318.976257 
	C1062.652588,318.976257 1066.755249,318.976257 1070.857910,318.976257 
	C1070.847412,319.771271 1070.836792,320.566254 1070.826294,321.361267 
	C1065.472046,321.361267 1060.117920,321.361267 1054.370117,321.361267 
	C1054.370117,325.013977 1054.370117,327.712372 1054.370117,330.747009 
	C1059.285034,330.996155 1064.136719,331.242065 1068.988403,331.487976 
	C1068.962646,332.162689 1068.937012,332.837402 1068.911377,333.512115 
	C1064.182617,333.512115 1059.453979,333.512115 1054.351318,333.512115 
	C1054.351318,337.282806 1054.351318,340.188110 1054.351318,343.886505 
	C1059.695068,343.886505 1065.197876,343.886505 1070.700684,343.886505 
	C1070.831421,344.414459 1070.962036,344.942383 1071.092773,345.470337 
	C1070.184326,345.928009 1069.286255,346.755737 1068.365723,346.781433 
	C1063.548584,346.915955 1058.715576,347.015564 1053.913086,346.719635 
	C1052.838013,346.653412 1051.006592,344.978638 1050.977905,344.001617 
	C1050.739502,335.895477 1050.842896,327.779236 1050.842896,318.976288 
	C1053.375000,318.976288 1055.473389,318.976288 1058.060791,318.976257 
z"/>
<path fill="#ADA59C" opacity="1.000000" stroke="none" 
	d="
M778.634399,320.062347 
	C777.172607,320.978088 775.632568,321.822540 774.050171,321.911438 
	C770.269531,322.123749 766.468933,321.979950 762.317871,321.979950 
	C762.317871,325.087646 762.317871,327.782867 762.317871,330.768616 
	C767.314575,331.006927 772.125122,331.236389 776.935669,331.465820 
	C776.909973,332.184296 776.884277,332.902802 776.858643,333.621277 
	C772.101501,333.621277 767.344421,333.621277 762.281860,333.621277 
	C762.281860,337.392456 762.281860,340.302338 762.281860,344.022644 
	C767.751892,344.022644 773.231140,344.022644 779.290833,344.022644 
	C776.909729,347.169037 770.497070,347.733765 759.304688,346.437897 
	C759.304688,337.512756 759.304688,328.532349 759.304688,318.729095 
	C765.803162,319.039459 772.169983,319.343506 778.634399,320.062347 
z"/>
<path fill="#ADA59C" opacity="1.000000" stroke="none" 
	d="
M713.021729,342.879333 
	C711.122864,341.404968 709.484985,339.798737 707.561035,339.303009 
	C705.378784,338.740814 702.923401,339.349457 700.617432,339.128784 
	C697.650757,338.844849 696.057983,340.098846 694.935974,342.764923 
	C694.242493,344.412537 692.837708,345.760803 691.752258,347.243469 
	C691.200012,346.893555 690.647827,346.543610 690.095581,346.193695 
	C694.049561,337.561127 697.937256,328.895966 702.126038,320.378906 
	C702.370850,319.881134 706.091125,320.079590 706.438049,320.799835 
	C710.451843,329.132782 714.126831,337.628906 717.891663,346.081757 
	C717.462646,346.438629 717.033630,346.795502 716.604614,347.152344 
	C715.455200,345.847534 714.305786,344.542694 713.021729,342.879333 
M704.439575,336.971863 
	C706.166077,336.971863 707.892578,336.971863 710.574158,336.971863 
	C708.292358,332.022827 706.430969,327.985596 703.944702,322.593079 
	C701.530640,328.065918 699.707458,332.199280 697.602295,336.971832 
	C700.298218,336.971832 701.931152,336.971832 704.439575,336.971863 
z"/>
<path fill="#A9A197" opacity="1.000000" stroke="none" 
	d="
M1014.990601,327.083679 
	C1014.990601,324.150055 1014.990601,321.702484 1014.990601,319.254944 
	C1015.574219,319.179077 1016.157837,319.103210 1016.741394,319.027344 
	C1019.677124,322.202087 1016.857361,326.795654 1018.529907,330.693481 
	C1023.274109,330.693481 1028.183228,330.693481 1033.866211,330.693481 
	C1033.866211,326.992401 1033.866211,323.137177 1033.866211,319.281982 
	C1034.310425,319.124298 1034.754761,318.966614 1035.198975,318.808929 
	C1035.790649,319.490540 1036.772095,320.100372 1036.912964,320.865021 
	C1038.176147,327.725220 1036.958130,344.860168 1034.360474,347.460022 
	C1034.134399,342.730560 1033.944946,338.769318 1033.736816,334.414185 
	C1028.670532,334.414185 1023.765747,334.414185 1017.691772,334.414185 
	C1017.691772,338.400391 1017.691772,342.575897 1017.691772,346.751404 
	C1016.829529,346.760925 1015.967285,346.770416 1015.105042,346.779938 
	C1014.863586,340.392944 1015.050293,333.971405 1014.990601,327.083679 
z"/>
<path fill="#A9A197" opacity="1.000000" stroke="none" 
	d="
M813.009644,332.998749 
	C813.009644,337.914978 813.009644,342.335449 813.009644,346.755920 
	C812.191284,346.756500 811.372986,346.757111 810.554626,346.757690 
	C810.554626,342.727539 810.554626,338.697388 810.554626,334.019806 
	C805.321106,334.019806 801.034485,333.789093 796.806580,334.185272 
	C795.775757,334.281891 794.316101,336.351501 794.137451,337.661774 
	C793.735046,340.612091 794.011108,343.654999 794.011108,347.637939 
	C790.156006,344.079437 790.123718,321.788605 793.642761,318.410309 
	C793.866577,322.886017 794.055908,326.671539 794.259888,330.751648 
	C799.406616,330.751648 804.314819,330.751648 809.588013,330.751648 
	C809.919006,326.842621 810.252197,322.908142 810.585327,318.973663 
	C811.393433,319.013428 812.201538,319.053192 813.009644,319.092957 
	C813.009644,323.562958 813.009644,328.032990 813.009644,332.998749 
z"/>
<path fill="#AEA79E" opacity="1.000000" stroke="none" 
	d="
M878.466125,324.553864 
	C877.172485,324.161560 876.195618,323.600708 875.203247,323.068787 
	C870.635315,320.620514 864.362976,321.517303 861.489929,325.021515 
	C857.965637,329.320068 857.923706,336.153595 861.396851,340.195435 
	C865.095154,344.499359 870.018127,345.229553 875.246216,342.378510 
	C876.476257,341.707764 877.906128,341.403534 880.129272,340.617859 
	C875.229736,349.535095 862.633301,348.879730 857.389465,340.585541 
	C853.775818,334.869873 854.683350,326.911255 859.478516,322.265320 
	C864.249390,317.642883 872.217163,317.041229 877.724609,321.107544 
	C878.475586,321.662018 878.444641,323.275513 878.466125,324.553864 
z"/>
<path fill="#AEA79E" opacity="1.000000" stroke="none" 
	d="
M1360.036865,345.268066 
	C1349.449463,337.487823 1352.506592,324.574738 1360.143921,320.346802 
	C1365.106934,317.599335 1369.992676,317.664917 1374.755493,320.516174 
	C1375.856934,321.175629 1376.389648,322.785339 1377.184082,323.957764 
	C1375.937012,323.702148 1374.551514,323.711853 1373.466431,323.145844 
	C1368.251099,320.425507 1361.557861,321.622253 1358.620605,325.951355 
	C1355.289062,330.861542 1356.592041,338.480499 1361.380859,342.085602 
	C1365.208862,344.967407 1369.123413,344.367157 1373.115601,342.443420 
	C1374.419800,341.814972 1375.821533,341.388947 1377.985596,340.562012 
	C1374.785889,347.143677 1367.983398,348.671631 1360.036865,345.268066 
z"/>
<path fill="#B2ABA2" opacity="1.000000" stroke="none" 
	d="
M834.481995,346.122467 
	C834.235352,338.146240 834.235352,330.516693 834.235352,322.388245 
	C830.972168,322.130585 828.107788,321.904388 825.118042,321.668304 
	C826.465759,318.713409 838.839661,317.769531 846.601196,319.674561 
	C846.729065,320.151581 846.856995,320.628601 846.984863,321.105621 
	C844.182129,321.561981 841.379333,322.018341 837.826416,322.596832 
	C837.826416,329.345276 837.846924,336.257782 837.813477,343.170044 
	C837.803894,345.151550 838.125244,347.589264 834.481995,346.122467 
z"/>
<path fill="#B2ABA2" opacity="1.000000" stroke="none" 
	d="
M732.922852,334.987793 
	C732.921875,338.147705 733.115295,340.834900 732.830322,343.470428 
	C732.705566,344.624359 731.603394,345.672638 730.945068,346.768890 
	C730.355713,345.768372 729.272949,344.776581 729.255188,343.765991 
	C729.114502,335.790161 729.177002,327.810760 729.177002,319.455078 
	C735.297729,319.455078 741.048767,319.455078 746.799744,319.455078 
	C746.878113,320.100281 746.956421,320.745483 747.034729,321.390656 
	C744.948730,321.594727 742.866577,321.886627 740.775635,321.979370 
	C738.458557,322.082092 736.133362,322.002838 732.922913,322.002838 
	C732.922913,326.342834 732.922913,330.418488 732.922852,334.987793 
z"/>
<path fill="#A9A197" opacity="1.000000" stroke="none" 
	d="
M898.968994,324.307922 
	C897.497070,323.214233 896.084717,322.429321 894.571228,322.005219 
	C893.048401,321.578491 891.424988,321.510559 889.845703,321.285400 
	C889.900269,320.750458 889.954834,320.215546 890.009399,319.680603 
	C897.002380,319.680603 903.995300,319.680603 910.988220,319.680603 
	C911.040100,320.219574 911.091980,320.758514 911.143860,321.297485 
	C908.283569,321.661011 905.423279,322.024536 902.315430,322.419525 
	C901.235657,330.478088 903.046692,338.772430 901.286621,346.719330 
	C900.519165,346.706635 899.751648,346.693970 898.984192,346.681274 
	C898.984192,339.379181 898.984192,332.077057 898.968994,324.307922 
z"/>
<path fill="#A9A197" opacity="1.000000" stroke="none" 
	d="
M1400.010010,330.062714 
	C1399.988037,335.965424 1399.966064,341.379181 1399.943970,346.792908 
	C1399.138672,346.786133 1398.333374,346.779327 1397.528076,346.772552 
	C1397.528076,338.724426 1397.528076,330.676331 1397.528076,322.474487 
	C1393.678223,322.018494 1390.758179,321.672638 1387.838135,321.326782 
	C1387.901978,320.734070 1387.965820,320.141388 1388.029663,319.548706 
	C1394.948853,319.548706 1401.868042,319.548706 1408.787231,319.548706 
	C1408.915771,320.052429 1409.044312,320.556152 1409.172974,321.059875 
	C1406.375122,321.519012 1403.577148,321.978149 1400.010010,322.563538 
	C1400.010010,324.718903 1400.010010,327.146301 1400.010010,330.062714 
z"/>
<path fill="#383840" opacity="1.000000" stroke="none" 
	d="
M224.818207,352.560089 
	C211.521835,352.850433 198.062759,352.850433 183.888062,352.850433 
	C183.888062,285.518738 183.888062,218.229019 183.891846,150.470810 
	C186.056915,149.951920 188.218155,149.857849 190.379440,149.857391 
	C274.934540,149.839661 359.489655,149.830444 444.513977,149.775635 
	C445.311218,150.637283 445.921783,151.542374 445.925140,152.449677 
	C445.983368,168.254562 445.967194,184.059708 445.967194,199.834961 
	C442.016907,199.518661 438.300446,199.343491 434.625671,198.854706 
	C433.474548,198.701599 432.279633,197.878464 431.370453,197.065033 
	C424.602295,191.009354 417.047424,187.023621 407.675629,186.829819 
	C406.051605,186.796234 403.864380,185.186661 402.981018,183.689285 
	C400.571655,179.605331 397.705292,176.706818 392.818329,175.653824 
	C389.647034,174.970505 386.600739,173.390289 383.702087,171.832886 
	C379.417328,169.530746 375.196014,168.873734 370.313049,169.868622 
	C361.235657,171.718124 351.417206,171.794617 344.466309,178.887833 
	C339.679443,183.772736 335.927673,189.685043 331.825897,195.221588 
	C330.265228,197.328186 329.447113,200.148361 327.563049,201.826416 
	C310.374542,217.135178 307.213104,236.379684 311.406219,257.800568 
	C311.623657,258.911438 311.783142,260.033630 312.172791,262.367798 
	C309.249115,261.556702 306.848511,261.269440 304.811279,260.253510 
	C299.015930,257.363342 293.198303,254.450104 287.707031,251.035248 
	C281.055969,246.899200 274.800537,246.213287 267.569885,249.951935 
	C262.691925,252.474106 257.100586,253.901215 251.662781,254.995529 
	C240.990250,257.143280 235.017288,264.363159 231.127792,273.549286 
	C228.493332,279.771301 227.044113,286.489075 224.922943,292.938477 
	C224.321060,294.768494 223.627350,296.881256 222.283630,298.103394 
	C213.766098,305.850250 211.682556,315.332367 213.960388,326.234406 
	C215.914902,335.589050 218.932938,344.477203 224.818207,352.560089 
z"/>
<path fill="#FEFFFF" opacity="1.000000" stroke="none" 
	d="
M464.177063,309.011688 
	C460.651215,301.983429 455.906219,296.633423 449.379730,292.806580 
	C444.325623,289.843048 444.276672,280.662964 449.370575,277.677032 
	C457.427521,272.954254 461.353424,265.525757 463.817047,256.994080 
	C464.274078,255.411301 464.669434,253.810715 465.099731,252.194000 
	C469.991089,251.587997 474.734009,251.000381 479.764893,250.377090 
	C479.764893,279.993622 479.764893,309.685242 479.764893,339.688904 
	C474.207733,339.688904 468.682617,339.688904 462.559784,339.688904 
	C467.938324,329.616821 468.979248,319.598816 464.177063,309.011688 
z"/>
<path fill="#F5F9F9" opacity="1.000000" stroke="none" 
	d="
M443.061340,102.896675 
	C449.802368,108.531082 456.275421,113.926659 463.984344,120.352348 
	C459.895630,119.713638 457.162811,119.290535 454.431580,118.857330 
	C453.776367,118.753403 453.130493,118.585228 452.473450,118.498940 
	C448.902039,118.029938 443.413666,118.788582 442.185547,116.847122 
	C440.125916,113.591209 440.765167,108.620430 440.304443,104.367371 
	C440.215881,103.549614 440.291718,102.714050 440.291718,101.397690 
	C441.282898,101.896973 442.038147,102.277405 443.061340,102.896675 
z"/>
<path fill="#F5F9F9" opacity="1.000000" stroke="none" 
	d="
M396.020447,276.889923 
	C397.571472,277.443024 398.747589,277.895752 400.565369,278.595551 
	C391.769775,283.623596 383.540924,288.327637 374.450775,293.524078 
	C377.970276,286.775330 380.953339,280.854523 384.203705,275.084290 
	C384.596863,274.386261 386.525879,274.085419 387.582947,274.320526 
	C390.318207,274.928833 392.963989,275.939545 396.020447,276.889923 
z"/>
<path fill="#EEF4F4" opacity="1.000000" stroke="none" 
	d="
M361.922974,320.146271 
	C369.997284,320.182404 377.609070,320.029938 385.206360,320.294830 
	C387.403748,320.371429 389.559326,321.646362 391.734039,322.371918 
	C391.602020,323.149170 391.470001,323.926422 391.337982,324.703644 
	C376.022125,323.612061 360.706299,322.520477 345.390442,321.428864 
	C345.398407,320.991425 345.406403,320.553955 345.414368,320.116516 
	C350.761230,320.116516 356.108124,320.116516 361.922974,320.146271 
z"/>
<path fill="#FCFBFB" opacity="1.000000" stroke="none" 
	d="
M499.061615,245.328735 
	C500.930450,245.071854 502.403564,244.884460 504.303436,244.642761 
	C504.468567,252.356171 495.988281,254.762619 493.937256,261.169495 
	C493.937256,256.275238 493.937256,251.380936 493.937256,246.301910 
	C495.456696,246.011536 497.061310,245.704880 499.061615,245.328735 
z"/>
<path fill="#EEF4F4" opacity="1.000000" stroke="none" 
	d="
M439.530029,315.451202 
	C439.758789,317.831512 439.887146,319.810852 440.088287,322.912689 
	C434.765198,315.455231 431.724579,308.177917 430.088287,300.320312 
	C429.983215,299.815674 431.860779,298.898102 433.659302,297.532196 
	C435.745636,303.866028 437.587646,309.458130 439.530029,315.451202 
z"/>
<path fill="#F5F9F9" opacity="1.000000" stroke="none" 
	d="
M303.259583,283.031860 
	C300.760864,282.840393 298.606049,282.532043 295.148254,282.037231 
	C300.263214,278.703674 304.121643,276.189026 308.373810,273.417725 
	C309.555328,275.393127 310.542603,277.043762 311.824585,279.187103 
	C308.888397,280.518524 306.245911,281.716766 303.259583,283.031860 
z"/>
<path fill="#F5F9F9" opacity="1.000000" stroke="none" 
	d="
M529.492310,93.694229 
	C530.223267,92.542839 530.753052,91.714897 531.495789,90.554146 
	C534.071899,94.422180 536.503845,98.073753 539.221863,102.154839 
	C537.559814,103.456917 535.937622,104.727760 533.290161,106.801865 
	C531.822815,102.111008 530.557007,98.064346 529.492310,93.694229 
z"/>
<path fill="#F5F9F9" opacity="1.000000" stroke="none" 
	d="
M478.728302,196.738403 
	C480.825653,195.367218 482.620605,194.193039 484.913300,192.693314 
	C486.032562,194.571426 487.084534,196.336609 488.519409,198.744293 
	C483.191650,199.860138 479.155945,205.333511 472.925842,200.569809 
	C474.930450,199.245193 476.678192,198.090317 478.728302,196.738403 
z"/>
<path fill="#EEF4F4" opacity="1.000000" stroke="none" 
	d="
M479.652405,233.021759 
	C480.517181,233.514832 481.029724,233.892609 482.131226,234.704453 
	C476.877930,235.626663 472.282532,236.433380 467.687134,237.240097 
	C471.371765,235.071884 474.115021,230.281113 479.652405,233.021759 
z"/>
<path fill="#EEF4F4" opacity="1.000000" stroke="none" 
	d="
M492.083954,94.887062 
	C487.681427,94.471527 487.660522,94.410042 490.463135,87.081749 
	C491.064941,89.579575 491.666748,92.077408 492.083954,94.887062 
z"/>
<path fill="#EEF4F4" opacity="1.000000" stroke="none" 
	d="
M386.697205,203.819733 
	C385.357361,204.967606 384.268524,205.881302 382.773956,207.135406 
	C382.029419,204.774643 381.450775,202.939957 380.872162,201.105255 
	C381.177734,200.722885 381.483307,200.340515 381.788849,199.958130 
	C383.508636,201.167282 385.228424,202.376419 386.697205,203.819733 
z"/>
<path fill="#393941" opacity="1.000000" stroke="none" 
	d="
M104.111183,348.806274 
	C104.111122,307.364502 104.111122,266.401917 104.111122,225.070923 
	C115.130135,225.070923 125.833176,225.070923 136.786896,225.070923 
	C136.786896,267.525543 136.786896,309.948334 136.786896,352.988495 
	C126.556908,352.988495 116.294106,353.057556 106.037903,352.829620 
	C105.369751,352.814758 104.752281,350.519806 104.111183,348.806274 
z"/>
<path fill="#FDFEFE" opacity="1.000000" stroke="none" 
	d="
M1011.957397,88.041115 
	C1002.110718,94.680351 992.184082,95.113670 982.630188,88.858902 
	C973.036804,82.578285 969.730286,72.961075 971.350586,61.874382 
	C972.998474,50.598808 980.439575,42.806118 990.948364,40.429543 
	C1001.462036,38.051868 1012.427185,42.752380 1018.047424,52.046486 
	C1024.205566,62.230186 1023.156982,75.837875 1015.485413,84.709656 
	C1014.510193,85.837486 1013.338196,86.795151 1011.957397,88.041115 
z"/>
<path fill="#FEFEFE" opacity="1.000000" stroke="none" 
	d="
M1210.797119,85.777191 
	C1201.745239,93.898071 1190.695557,95.387238 1180.636841,90.064941 
	C1171.690063,85.331017 1165.714844,73.745102 1167.053223,63.726254 
	C1168.680908,51.541599 1175.877441,42.843208 1187.071777,40.515808 
	C1196.878418,38.476925 1205.626831,40.970547 1212.037231,49.018738 
	C1219.476929,58.359066 1220.061523,68.689888 1215.208618,79.377525 
	C1214.200928,81.596672 1212.456177,83.481171 1210.797119,85.777191 
z"/>
<path fill="#FDFEFE" opacity="1.000000" stroke="none" 
	d="
M1296.994751,92.323502 
	C1289.716797,92.323639 1282.937866,92.323639 1275.264648,92.323639 
	C1281.496704,77.004402 1287.410522,62.467617 1293.841431,46.659809 
	C1300.225952,62.281551 1306.192139,76.879356 1312.504028,92.323364 
	C1306.982788,92.323364 1302.238281,92.323364 1296.994751,92.323502 
z"/>
<path fill="#FCFBFB" opacity="1.000000" stroke="none" 
	d="
M806.622559,73.234512 
	C805.888428,72.733192 805.223083,72.114731 805.344543,71.809631 
	C808.622009,63.581097 811.979980,55.384647 815.798462,46.020451 
	C819.681946,55.499950 823.103394,63.851654 826.959167,73.263420 
	C819.761658,73.263420 813.409912,73.263420 806.622559,73.234512 
z"/>
<path fill="#FFFFFF" opacity="1.000000" stroke="none" 
	d="
M1090.048340,66.994560 
	C1087.590820,66.994560 1085.617920,66.994560 1083.326172,66.994560 
	C1083.326172,58.324291 1083.326172,49.943623 1083.326172,41.063362 
	C1089.289673,41.063362 1095.262695,40.601292 1101.133545,41.178986 
	C1108.667480,41.920341 1112.657959,47.075634 1112.372925,54.437424 
	C1112.096313,61.584274 1106.990479,66.441513 1099.016357,66.961922 
	C1096.199829,67.145729 1093.361450,66.993408 1090.048340,66.994560 
z"/>
<path fill="#FDFEFE" opacity="1.000000" stroke="none" 
	d="
M1120.342529,216.712830 
	C1123.921997,221.077454 1123.977661,225.645462 1121.956421,230.131577 
	C1119.849487,234.807693 1115.502563,236.061371 1110.757568,236.110382 
	C1104.973022,236.170166 1099.187378,236.124619 1093.129639,236.124619 
	C1093.129639,228.427887 1093.129639,221.168793 1093.129639,213.201416 
	C1102.168579,213.935913 1111.538574,210.690155 1120.342529,216.712830 
z"/>
<path fill="#FEFEFE" opacity="1.000000" stroke="none" 
	d="
M1501.217651,91.773895 
	C1494.329956,91.855392 1487.868408,91.855392 1481.039307,91.855392 
	C1481.039307,84.331245 1481.039307,76.961220 1481.039307,69.180641 
	C1487.631592,69.180641 1494.263184,68.775742 1500.821167,69.297462 
	C1507.057861,69.793625 1510.556396,73.660637 1510.990479,79.078484 
	C1511.528687,85.795746 1508.867920,89.386917 1501.217651,91.773895 
z"/>
<path fill="#FCFBFB" opacity="1.000000" stroke="none" 
	d="
M1101.772827,329.096771 
	C1101.769043,333.227997 1102.023193,336.903870 1101.620972,340.506500 
	C1101.481567,341.754395 1099.809814,343.682983 1098.670288,343.811096 
	C1094.927490,344.231934 1091.107788,343.969299 1087.193481,343.969299 
	C1088.339966,336.583466 1089.417847,329.640106 1090.554321,322.318848 
	C1093.878662,322.318848 1097.443359,322.318848 1101.773071,322.318848 
	C1101.773071,324.434387 1101.773071,326.523529 1101.772827,329.096771 
z"/>
<path fill="#FFFFFF" opacity="1.000000" stroke="none" 
	d="
M926.023560,339.920502 
	C926.023132,337.843903 926.023132,336.226410 926.023132,333.892151 
	C930.425049,334.110687 934.383850,333.967926 938.187134,334.668793 
	C939.637817,334.936127 941.633362,337.069489 941.739502,338.476227 
	C941.849304,339.931580 940.194214,342.604645 938.914368,342.876465 
	C935.115601,343.683228 931.121277,343.670105 927.204041,343.663025 
	C926.808716,343.662292 926.417236,341.525238 926.023560,339.920502 
z"/>
<path fill="#FFFFFF" opacity="1.000000" stroke="none" 
	d="
M926.576050,322.512787 
	C930.042847,322.137482 933.298706,321.567444 936.281616,322.228699 
	C938.048401,322.620361 939.384216,324.956085 940.913818,326.417664 
	C939.435120,327.930664 938.165710,330.360382 936.432007,330.756104 
	C933.317383,331.466980 929.924011,330.956696 926.250427,330.956696 
	C926.250427,328.014099 926.250427,325.424957 926.576050,322.512787 
z"/>
<path fill="#FCFBFB" opacity="1.000000" stroke="none" 
	d="
M1137.554932,340.487427 
	C1133.580444,344.196381 1130.599365,344.701080 1122.296021,343.287354 
	C1122.296021,340.453796 1122.296021,337.562775 1122.296021,334.696899 
	C1132.411133,332.527771 1137.205933,334.243378 1137.554932,340.487427 
z"/>
<path fill="#FEFEFE" opacity="1.000000" stroke="none" 
	d="
M1133.884766,330.203094 
	C1129.948853,330.704865 1126.390259,331.005981 1122.398438,331.343750 
	C1122.398438,328.070435 1122.398438,325.378174 1122.398438,321.976196 
	C1125.274292,321.976196 1128.225098,321.649475 1131.052856,322.098206 
	C1132.760986,322.369263 1135.078613,323.509674 1135.648926,324.875061 
	C1136.188232,326.165802 1134.801758,328.261047 1133.884766,330.203094 
z"/>
<path fill="#FFFFFF" opacity="1.000000" stroke="none" 
	d="
M962.690796,324.768616 
	C967.982788,320.852875 973.105469,320.536591 977.039612,323.624084 
	C980.512878,326.349945 982.148071,332.979492 980.394470,337.226654 
	C978.454590,341.925262 973.908752,344.587952 968.878906,343.971954 
	C960.474426,342.942627 957.054077,332.922943 962.690796,324.768616 
z"/>
<path fill="#FDFEFE" opacity="1.000000" stroke="none" 
	d="
M1317.726562,335.995483 
	C1316.556641,329.652832 1318.652832,324.726410 1323.165771,322.563202 
	C1327.426636,320.520813 1333.273560,321.903381 1336.196655,325.644409 
	C1339.326660,329.650391 1339.386475,335.918304 1336.333374,339.982788 
	C1333.407593,343.878052 1327.849731,345.477020 1323.445312,342.852478 
	C1321.117310,341.465271 1319.680542,338.582306 1317.726562,335.995483 
z"/>
<path fill="#FFFFFF" opacity="1.000000" stroke="none" 
	d="
M704.001831,336.971863 
	C701.931152,336.971832 700.298218,336.971832 697.602295,336.971832 
	C699.707458,332.199280 701.530640,328.065918 703.944702,322.593079 
	C706.430969,327.985596 708.292358,332.022827 710.574158,336.971863 
	C707.892578,336.971863 706.166077,336.971863 704.001831,336.971863 
z"/>
</svg>