<svg width="100%" height="100%" viewBox="0 0 45 45" fill="#398281" xmlns="http://www.w3.org/2000/svg">
<circle cx="22.5" cy="22.5" r="22.5"/>
<path fill-rule="evenodd" clip-rule="evenodd" d="M28.3277 10.6687C28.0543 10.6313 27.783 10.6936 27.5528 10.8057C26.7901 11.173 26.2721 11.976 25.7336 12.8352C25.195 13.6922 24.6359 14.4559 24.4776 15.4395C24.2309 16.9419 25.1621 17.552 25.8939 18.1787C26.5928 18.7784 27.4993 19.1063 27.2835 20.5112C27.1478 21.3952 26.6257 22.2107 26.2146 22.8125C25.38 24.041 24.3008 25.3317 23.0839 26.3652C22.422 26.9275 21.2729 27.8468 20.1423 27.3944C19.6407 27.1931 19.2851 26.6557 18.9377 26.3361C18.3868 25.8298 17.6633 25.0723 16.5841 25.172C15.4555 25.2716 14.7998 25.9522 14.0433 26.608C13.3115 27.245 12.4996 27.8655 12.0905 28.6146C11.9528 28.8678 11.8068 29.1542 11.85 29.6169C11.9322 30.4698 12.7812 30.916 13.2951 31.4057C14.3661 32.4329 15.7474 33.2671 17.7064 33.3833C18.7301 33.4435 19.7024 33.2568 20.5164 33.0015C23.7663 31.9909 25.9186 29.8348 27.8981 27.5812C28.9074 26.4316 29.8386 25.2467 30.6526 23.9206C31.4852 22.5676 32.1594 21.2624 32.552 19.3947C33.1995 16.3152 32.1512 13.7046 30.519 12.2126C30.258 11.9719 29.9537 11.7146 29.6639 11.451C29.2959 11.1211 28.8971 10.7455 28.3277 10.6687Z" fill="white"/>
</svg>
