<svg width="38" height="38" fill="#7D868A" viewBox="0 0 38 38" xmlns="http://www.w3.org/2000/svg">
<!-- <circle cx="19" cy="19" r="18.5" stroke="#A1A9AC"/> -->
<path fill-rule="evenodd" clip-rule="evenodd" d="M23.9211 9.00917C23.6902 8.97763 23.4611 9.0302 23.2666 9.12483C22.6226 9.43499 22.1852 10.1132 21.7304 10.8386C21.2756 11.5623 20.8035 12.2072 20.6698 13.0378C20.4615 14.3065 21.2479 14.8217 21.8658 15.3509C22.456 15.8574 23.2215 16.1342 23.0392 17.3206C22.9247 18.0671 22.4838 18.7558 22.1366 19.2639C21.4319 20.3013 20.5205 21.3913 19.4929 22.264C18.934 22.7389 17.9636 23.5151 17.0089 23.1331C16.5854 22.9632 16.2851 22.5093 15.9917 22.2394C15.5265 21.8119 14.9155 21.1722 14.0042 21.2564C13.0512 21.3405 12.4975 21.9152 11.8587 22.469C11.2407 23.007 10.555 23.5309 10.2096 24.1635C10.0933 24.3773 9.97006 24.6191 10.0065 25.0099C10.0759 25.7301 10.7929 26.1069 11.2268 26.5204C12.1312 27.3878 13.2977 28.0923 14.9519 28.1904C15.8164 28.2412 16.6374 28.0835 17.3248 27.868C20.0692 27.0146 21.8866 25.1939 23.5583 23.2908C24.4106 22.32 25.1969 21.3194 25.8843 20.1997C26.5873 19.0572 27.1567 17.9549 27.4882 16.3778C28.035 13.7773 27.1497 11.5729 25.7715 10.3129C25.551 10.1096 25.2941 9.89236 25.0494 9.66981C24.7386 9.39118 24.4019 9.07401 23.9211 9.00917Z"/>
</svg>
