<svg width="100%" height="100%" viewBox="0 0 30 30"  fill="#7D868A"  xmlns="http://www.w3.org/2000/svg">
<path fill-rule="evenodd" clip-rule="evenodd" d="M18.8851 7.11271C18.7028 7.08781 18.5219 7.12931 18.3684 7.20402C17.86 7.44888 17.5147 7.98427 17.1556 8.55702C16.7966 9.12837 16.4238 9.63748 16.3183 10.2932C16.1539 11.2948 16.7747 11.7016 17.2625 12.1194C17.7285 12.5192 18.3328 12.7378 18.1889 13.6743C18.0985 14.2637 17.7504 14.8074 17.4763 15.2086C16.9199 16.0276 16.2005 16.8881 15.3892 17.577C14.9479 17.9519 14.1819 18.5648 13.4281 18.2632C13.0938 18.129 12.8567 17.7707 12.6251 17.5577C12.2578 17.2201 11.7754 16.7151 11.056 16.7815C10.3036 16.8479 9.86645 17.3017 9.36214 17.7389C8.87428 18.1636 8.33297 18.5772 8.06025 19.0767C7.96844 19.2454 7.87114 19.4364 7.89992 19.7449C7.95473 20.3135 8.52071 20.6109 8.86331 20.9374C9.57729 21.6222 10.4982 22.1783 11.8042 22.2558C12.4867 22.2959 13.1349 22.1714 13.6775 22.0012C15.8442 21.3275 17.279 19.8901 18.5987 18.3877C19.2715 17.6213 19.8923 16.8313 20.435 15.9473C20.99 15.0453 21.4395 14.1751 21.7013 12.9301C22.1329 10.877 21.434 9.13668 20.3459 8.14198C20.1719 7.98151 19.9691 7.80996 19.7758 7.63426C19.5305 7.4143 19.2647 7.1639 18.8851 7.11271Z"/>
</svg>
