<svg width="100%" height="100%" viewBox="0 0 45 45" fill="#42A5D3" xmlns="http://www.w3.org/2000/svg">
<path id="Vector_2" d="M28.4697 34.2939C27.7668 34.5774 25.6068 32.9628 24.48 32.1231C23.2911 31.242 22.1517 30.3789 20.9781 29.4582C19.4022 30.4743 16.704 32.9646 16.704 32.9646C16.7598 30.8226 17.0109 28.8786 17.0559 26.7294C20.4399 23.5479 23.9391 20.4879 27.4239 17.3415C27.8865 16.9203 28.8513 16.0491 28.692 15.8646C28.4733 15.6369 27.2637 16.3326 26.6517 16.7142C22.3443 19.4124 17.9694 22.2852 13.554 24.9771C12.5937 24.5685 11.2806 24.3705 9.90541 23.9385C9.18811 23.7135 6.60692 23.0439 6.55202 22.2474C6.49082 21.3672 8.34482 20.8614 9.28262 20.4969C16.5807 17.6826 24.9345 14.5434 31.7646 11.8101C32.3334 11.5851 33.7257 11.8533 33.5079 13.1214C33.3936 13.7694 29.5668 31.8621 29.5227 31.9818C29.4093 32.3067 29.2707 33.969 28.4697 34.2939Z" />
</svg>
