<svg width="100%" height="100%" viewBox="0 0 45 45" fill="white" xmlns="http://www.w3.org/2000/svg">
<path d="M7.33151 16.1558C7.26311 15.6257 8.53121 15.6698 9.55901 15.6698C10.4869 15.6698 12.3526 15.569 12.8692 15.9695C13.2229 16.2431 13.5739 17.3366 13.8484 17.9234C14.4325 19.1825 15.1471 20.4704 15.9886 21.6494C16.3441 22.1462 17.0074 23.0246 17.6176 22.9526C18.4141 22.859 18.4411 21.122 18.4564 20.0672C18.4879 18.0332 18.4717 16.271 16.687 16.1558C17.2828 14.858 19.6039 14.9084 21.6226 15.0389C22.2625 15.0803 23.2516 15.2558 23.5306 15.551C24.1165 16.1756 23.8681 18.2213 23.8096 19.4642C23.7592 20.4434 23.5189 22.8599 24.5044 22.9553C25.0687 23.0084 25.8634 21.9347 26.1352 21.5576C27.0631 20.2841 27.6301 19.3292 28.3258 17.7857C28.5931 17.1809 28.8235 16.0352 29.3455 15.8318C30.0205 15.5708 31.6324 15.6743 32.509 15.6743C33.2794 15.6743 35.2585 15.524 35.5366 16.1585C35.8147 16.7804 35.0848 17.9261 34.7455 18.485C33.9022 19.889 33.0022 20.9078 32.0455 22.1624C31.6216 22.7159 30.8989 23.4944 30.9313 24.2081C30.9628 25.1099 32.8951 26.5301 33.4396 27.0962C33.8401 27.4985 34.1704 27.8576 34.6969 28.5344C35.0758 29.0213 35.6698 29.7188 35.5834 30.3029C35.4565 31.1615 34.2343 31.0931 33.1147 31.0931C31.7494 31.0931 30.0817 31.3379 29.1583 30.9095C28.4356 30.5702 27.6769 29.7431 27.1117 29.0933C26.5996 28.5056 25.8814 27.3419 25.0183 27.3752C24.5044 27.3941 24.0994 28.0547 23.9491 28.6298C23.7556 29.3597 23.9788 30.1859 23.6683 30.6755C23.2948 31.2758 21.6451 31.1579 20.5984 31.0931C16.5961 30.8537 14.0338 28.1393 12.1285 25.4159C10.5931 23.2235 9.49961 21.122 8.26391 18.6695C7.87691 17.9045 7.30541 17.1098 7.33151 16.1558Z" fill="#5484B2"/>
</svg>
