<svg width="100%" height="100%" viewBox="0 0 45 45" fill="#35B649" xmlns="http://www.w3.org/2000/svg">
<path d="M10.934 33.2136C11.33 31.7016 11.7539 30.2166 12.1616 28.7136C11.0447 26.9379 10.2248 25.1064 10.0475 22.5423C9.86565 19.9296 10.4975 17.6148 11.5127 15.7914C13.409 12.384 16.9199 9.61199 21.8096 9.38069C24.128 9.27089 26.1899 9.84239 27.8099 10.6767C30.9707 12.3012 33.2855 14.9328 34.2188 18.8595C34.6895 20.8503 34.6283 23.2866 34.0127 25.2702C32.8679 28.9737 30.5225 31.4559 27.1286 32.9751C25.3574 33.7662 23.3423 34.1424 20.9582 33.8958C19.2356 33.7185 18.0152 33.2784 16.7309 32.634C16.4393 32.4882 15.8408 32.0436 15.5366 32.022C15.2117 31.9977 14.7554 32.2263 14.3774 32.3262C13.1804 32.6457 12.1175 32.8905 10.934 33.2136ZM15.128 16.6437C14.7806 17.4312 14.6744 18.5031 14.9228 19.4742C15.1487 20.3553 15.524 21.105 15.9803 21.7926C17.7992 24.5394 19.8962 26.8362 23.2748 28.0656C24.4277 28.4841 25.9271 29.0637 27.3338 28.683C28.0178 28.4967 29.0933 27.9045 29.4821 27.1152C29.6459 26.7903 29.9609 25.7247 29.7548 25.2396C29.6612 25.0092 29.1995 24.8814 28.907 24.732C28.2032 24.3756 27.7514 24.1587 27.062 23.8464C26.7875 23.7213 26.3609 23.4261 26.0405 23.4702C25.6877 23.5215 25.3376 24.2316 25.1216 24.4953C24.9056 24.7536 24.4988 25.3953 24.0938 25.4142C23.8688 25.425 23.4782 25.2297 23.1398 25.0731C21.5864 24.3612 20.4965 23.3712 19.5596 22.1724C19.3328 21.8826 18.539 21.0348 18.5705 20.5695C18.5894 20.2842 19.0772 19.8576 19.2527 19.6506C19.4759 19.3842 19.8188 19.0755 19.8323 18.6273C19.8404 18.3564 19.6424 18.0081 19.4912 17.6382C19.3607 17.316 19.1969 16.965 19.0826 16.6833C18.8792 16.1874 18.5993 15.1209 18.1277 14.9103C17.8451 14.7843 17.036 14.8392 16.8317 14.8761C16.0289 15.0183 15.416 15.9894 15.128 16.6437Z" />
</svg>
