<svg width="45" height="45" viewBox="0 0 45 45" fill="none" xmlns="http://www.w3.org/2000/svg">
<path d="M0.5 22.5C0.5 10.3498 10.3498 0.5 22.5 0.5C34.6519 0.5 44.5 10.3498 44.5 22.5C44.5 34.6502 34.6519 44.5 22.5 44.5C10.3498 44.5 0.5 34.6502 0.5 22.5Z" stroke="#7D868A"/>
<path d="M10.9341 33.2136C11.3301 31.7016 11.754 30.2166 12.1617 28.7136C11.0448 26.9379 10.2249 25.1064 10.0476 22.5423C9.86578 19.9296 10.4976 17.6148 11.5128 15.7914C13.4091 12.384 16.92 9.61199 21.8097 9.38069C24.1281 9.27089 26.19 9.84239 27.81 10.6767C30.9708 12.3012 33.2856 14.9328 34.2189 18.8595C34.6896 20.8503 34.6284 23.2866 34.0128 25.2702C32.868 28.9737 30.5226 31.4559 27.1287 32.9751C25.3575 33.7662 23.3424 34.1424 20.9583 33.8958C19.2357 33.7185 18.0153 33.2784 16.731 32.634C16.4394 32.4882 15.8409 32.0436 15.5367 32.022C15.2118 31.9977 14.7555 32.2263 14.3775 32.3262C13.1805 32.6457 12.1176 32.8905 10.9341 33.2136ZM15.1281 16.6437C14.7807 17.4312 14.6745 18.5031 14.9229 19.4742C15.1488 20.3553 15.5241 21.105 15.9804 21.7926C17.7993 24.5394 19.8963 26.8362 23.2749 28.0656C24.4278 28.4841 25.9272 29.0637 27.3339 28.683C28.0179 28.4967 29.0934 27.9045 29.4822 27.1152C29.646 26.7903 29.961 25.7247 29.7549 25.2396C29.6613 25.0092 29.1996 24.8814 28.9071 24.732C28.2033 24.3756 27.7515 24.1587 27.0621 23.8464C26.7876 23.7213 26.361 23.4261 26.0406 23.4702C25.6878 23.5215 25.3377 24.2316 25.1217 24.4953C24.9057 24.7536 24.4989 25.3953 24.0939 25.4142C23.8689 25.425 23.4783 25.2297 23.1399 25.0731C21.5865 24.3612 20.4966 23.3712 19.5597 22.1724C19.3329 21.8826 18.5391 21.0348 18.5706 20.5695C18.5895 20.2842 19.0773 19.8576 19.2528 19.6506C19.476 19.3842 19.8189 19.0755 19.8324 18.6273C19.8405 18.3564 19.6425 18.0081 19.4913 17.6382C19.3608 17.316 19.197 16.965 19.0827 16.6833C18.8793 16.1874 18.5994 15.1209 18.1278 14.9103C17.8452 14.7843 17.0361 14.8392 16.8318 14.8761C16.029 15.0183 15.4161 15.9894 15.1281 16.6437Z" fill="#7D868A"/>
</svg>
