<svg width="406" height="1835" viewBox="0 0 406 1835" fill="none" xmlns="http://www.w3.org/2000/svg">
<path d="M351.718 1565.74C346.603 1563.62 343.567 1561.58 338.78 1564.35C338.599 1564.29 338.395 1564.29 338.261 1564.41C333.86 1568.34 326.291 1568.93 324.593 1575.32C323.612 1579.02 322.615 1581.98 320.405 1585.16C318.817 1587.46 317.942 1590.16 317.862 1592.95C317.754 1596.68 317.477 1605.11 321.619 1607.27C325.93 1609.52 331.114 1607.16 335.098 1605.22C339.874 1602.89 347.514 1598.08 349.295 1592.76C350.691 1588.59 351.866 1585.07 354.619 1581.61C356.617 1579.09 358.371 1576.31 359.39 1573.26C361.41 1567.23 355.466 1567.29 351.718 1565.74ZM354.694 1579.92C352.185 1583.74 350.001 1586.66 348.784 1591.15C347.183 1597.06 339.532 1601.83 334.513 1604.55C332.483 1605.65 330.242 1606.42 328.032 1607.04C322.731 1608.54 320.289 1605.15 319.373 1600.45C318.246 1594.69 318.685 1589.34 322.077 1584.44C324.603 1580.8 324.459 1576.57 326.659 1572.91C328.821 1569.32 334.632 1568.17 338.194 1565.61C338.315 1565.62 338.434 1565.6 338.526 1565.54C345.166 1560.99 348.005 1566.33 354.009 1567.44C361.785 1568.88 357.47 1575.69 354.694 1579.92Z" fill="#A0A8AC"/>
<path d="M321.581 1557.59C327.685 1562.53 330.52 1553.22 331.673 1548.75C332.699 1544.77 336.474 1536.44 331.279 1533.94C329.136 1532.91 324.113 1533.44 322.326 1534.98C319.833 1537.13 321.64 1540.75 320.227 1543.62C317.238 1547.23 317.869 1554.59 321.581 1557.59ZM323.624 1535.42C326.266 1534.17 331.764 1533.55 332.992 1537.03C333.816 1539.36 332.441 1542.25 331.882 1544.51C330.846 1548.71 330.223 1553.69 327.227 1557.01C322.458 1562.3 317.487 1550 320.259 1545.07C320.321 1545.05 320.38 1545.01 320.438 1544.92C321.155 1543.92 321.88 1542.9 321.964 1541.6C322.102 1539.5 321.009 1536.66 323.624 1535.42Z" fill="#A0A8AC"/>
<path d="M406.009 1142.27V1141.53C394.599 1141.82 383.169 1142.41 371.711 1142.73C371.283 1138.77 367.647 1139.5 364.023 1139.36C356.389 1139.07 348.686 1140.54 341.09 1141.12C331.239 1141.86 321.516 1143.86 311.807 1145.58C302.721 1147.18 294.844 1148.58 285.754 1146.17C280.5 1144.77 276.36 1144.73 272.78 1149.21C262.139 1146.94 251.972 1142.93 240.759 1143.44C237.266 1143.6 233.811 1144.38 230.585 1145.71C226.1 1144.19 221.577 1142.82 217.016 1142.17C216.554 1142.11 216.033 1142.94 216.598 1143.02C220.867 1143.63 225.006 1144.93 229.119 1146.36C227.973 1146.9 226.858 1147.52 225.795 1148.21C223.277 1149.84 221.191 1152.03 218.661 1153.67C217.508 1154.42 216.262 1155.01 214.981 1155.52C212.906 1153.8 210.879 1151.99 209.426 1149.81C209.065 1149.26 208.629 1150.02 208.91 1150.45C210.278 1152.5 212.144 1154.23 214.079 1155.86C212.978 1156.27 211.861 1156.63 210.763 1157C198.196 1161.18 188.278 1170.52 174.758 1172.11C160.072 1173.84 145.836 1167.85 133.696 1160.03C136.754 1156.66 139.518 1153.09 141.52 1149.09C144.377 1143.38 145.961 1137.9 152.161 1135.14C154.749 1133.99 156.76 1132.75 157.825 1130.08C158.055 1129.5 157.356 1129.22 157.126 1129.8C155.483 1133.92 150.516 1134.37 147.372 1136.8C144.782 1138.8 143.442 1143.21 142.143 1146.09C139.872 1151.11 136.57 1155.45 132.904 1159.52C132.721 1159.4 132.535 1159.29 132.351 1159.16C127.275 1155.8 122.459 1152.17 116.955 1149.5C116.433 1149.24 116.237 1150.18 116.662 1150.39C122.235 1153.09 127.18 1156.75 132.293 1160.2C131.474 1161.09 130.636 1161.97 129.791 1162.85C127.157 1161.68 124.638 1160.31 122.501 1158.34C122.146 1158.02 121.323 1158.44 121.785 1158.86C124.011 1160.91 126.472 1162.35 129.067 1163.59C128.141 1164.54 127.21 1165.47 126.278 1166.41C123.528 1164.86 120.641 1163.44 117.61 1162.1C112.686 1159.93 107.686 1157.74 102.631 1155.89C98.0268 1154.21 93.2148 1153.36 89.0218 1150.7C85.2638 1148.31 83.8619 1143.5 80.6389 1140.52C77.1609 1137.3 71.2038 1136.02 66.7858 1134.75C60.9108 1133.07 54.8219 1132.25 48.7459 1131.78C42.2749 1131.28 35.7678 1131.89 29.4218 1130.33C18.3828 1127.61 9.2169 1117.58 1.06989 1110.21C0.636895 1109.82 0.203805 1110.68 0.552805 1111C8.1928 1117.91 16.6948 1127.06 26.6778 1130.5C32.7538 1132.59 38.8179 1132.34 45.1539 1132.57C52.4149 1132.84 59.5958 1133.89 66.6198 1135.74C72.9578 1137.41 79.3379 1139.28 83.1129 1144.93C85.9669 1149.2 88.3839 1151.97 93.2839 1153.94C98.3979 1156 103.734 1157.38 108.846 1159.5C114.523 1161.86 120.195 1164.19 125.633 1167.05C123.695 1169 121.767 1170.93 119.932 1172.92C119.583 1173.29 119.908 1174.1 120.353 1173.62C122.269 1171.55 124.332 1169.51 126.416 1167.47C126.507 1167.52 126.6 1167.56 126.69 1167.61C139.586 1174.62 147.174 1187.27 156.305 1198.3C160.993 1203.96 165.659 1209.63 170.094 1215.49C174.546 1221.38 179.479 1228.06 181.462 1235.23C182.483 1238.92 181.566 1242.84 184.229 1245.9C187.417 1249.58 194.499 1249.47 198.829 1249.4C206.202 1249.3 213.202 1249.85 220.532 1250.7C228.22 1251.59 236.094 1250.81 243.823 1250.8C257.098 1250.78 270.635 1253.19 282.682 1258.91C292.682 1263.65 303.061 1271.89 310.542 1279.95C314.568 1284.28 316.439 1289.59 317.14 1295.19C312.799 1296.4 308.36 1297.36 304.119 1298.8C303.67 1298.95 303.618 1299.93 304.165 1299.74C308.443 1298.29 312.885 1297.27 317.247 1296.04C317.875 1302.1 317.189 1308.48 316.371 1314.34C315.57 1320.07 314.074 1325.68 313.259 1331.42C312.341 1337.87 312.307 1344.42 311.076 1350.82C310.394 1354.36 310.297 1357.85 313.216 1360.33C314.451 1361.38 316.018 1361.76 317.542 1362.19C319.436 1362.72 321.09 1363.3 322.701 1364.08C309.088 1385.48 297.472 1408.03 284.361 1429.76C276.658 1442.53 267.656 1454.46 259.574 1466.98C251.437 1479.59 245.09 1493.04 239.03 1506.74C232.592 1521.3 226.384 1536.36 216.922 1549.28C207.967 1561.49 196.719 1571.8 189.373 1585.17C188.745 1584.95 188.025 1584.75 187.168 1584.56C182.025 1583.38 177.299 1580.51 172.85 1577.78C164.713 1572.79 156.153 1568.38 148.207 1563.1C144.135 1560.39 140.445 1557.19 137.139 1553.59C134.127 1550.32 132.139 1546.47 129.494 1542.95C127.797 1540.69 125.473 1539.22 122.881 1538.2C121.207 1537.54 119.379 1537.23 117.67 1536.66C113.106 1535.11 116.518 1531.72 118.365 1529.59C118.728 1529.17 118.349 1528.46 117.92 1528.96C116.813 1530.24 113.582 1533.05 114.242 1535.1C115.342 1538.52 121.875 1538.7 124.567 1540.02C129.627 1542.49 132.033 1549 135.451 1553.16C139.23 1557.76 143.969 1561.48 148.9 1564.76C154.248 1568.32 160.099 1570.99 165.564 1574.36C171.043 1577.72 176.299 1581.31 182.21 1583.91C184.182 1584.77 186.814 1585.16 189.002 1586.08C189.072 1586.23 189.282 1586.32 189.494 1586.3C190.636 1586.85 191.624 1587.56 192.277 1588.61C193.33 1590.3 194.089 1592 195.857 1593.02C198.621 1594.62 202.669 1590.94 204.486 1589.38C220.347 1575.79 233.741 1559.6 246.14 1542.79C246.3 1543.66 246.452 1544.53 246.578 1545.41C247.599 1552.45 247.319 1559.54 248.847 1566.5C250.341 1573.32 252.519 1579.79 252.95 1586.81C253.253 1591.71 253.243 1596.68 254.808 1601.39C256.181 1605.51 259.896 1606.19 263.732 1606.78C270.948 1607.88 271.755 1613.67 275.919 1618.43C280.268 1623.41 285.43 1627.64 290.454 1631.89C295.598 1636.24 297.896 1642.54 300.433 1648.57C303.298 1655.38 306.423 1662.21 310.114 1668.63C312.199 1672.25 314.196 1675.07 318.442 1675.86C324.388 1676.97 330.025 1680.02 336.087 1680.39C339.807 1680.62 345.29 1678.71 348.456 1676.99C351.188 1675.5 351.085 1675.01 354.518 1676.59C357.419 1677.93 360.215 1679.32 363.268 1680.29C363.762 1680.45 364.303 1679.78 363.678 1679.58C359.286 1678.17 355.324 1675.83 351.012 1674.24C350.777 1674.16 350.491 1674.27 350.354 1674.47C347.201 1678.97 336.901 1680.15 332.188 1679.01C329.268 1678.3 326.475 1676.98 323.65 1675.98C321.073 1675.07 318.279 1675.44 315.781 1674.19C313.147 1672.87 311.569 1669.21 310.182 1666.79C308.421 1663.74 306.941 1660.52 305.462 1657.33C302.549 1651.01 300.117 1644.39 296.833 1638.25C296.618 1637.85 296.374 1637.48 296.139 1637.1C296.201 1637.11 296.268 1637.1 296.34 1637.05C303.111 1632.57 308.611 1626.46 315.674 1622.39C323.253 1618.02 332.412 1617.99 340.069 1613.66C346.12 1610.23 351.626 1605.2 356.527 1600.31C358.506 1598.34 360.635 1595.88 361.465 1593.17C362.822 1588.7 363.619 1585.29 368.91 1584.42C369.402 1584.34 369.194 1583.36 368.698 1583.44C363.244 1584.34 362.023 1587.97 360.722 1592.81C359.556 1597.14 354.06 1601.81 350.669 1604.48C347.454 1607.02 344.358 1609.67 340.954 1611.95C333.658 1616.84 324.669 1617.19 316.78 1620.7C308.865 1624.22 303.074 1631.41 295.933 1636.15C295.821 1636.22 295.774 1636.35 295.767 1636.49C293.079 1632.54 289.196 1629.81 285.573 1626.66C280.464 1622.22 275.36 1617.3 272.376 1611.19C271.003 1608.38 268.188 1606.74 265.167 1606.23C261.29 1605.58 257.487 1605.13 255.737 1601.05C254.407 1597.95 254.364 1594.14 254.159 1590.83C253.788 1584.8 253.163 1579.24 251.641 1573.36C250.734 1569.85 249.788 1566.37 249.114 1562.8C248.337 1558.71 248.552 1554.46 248.18 1550.32C247.939 1547.64 247.334 1544.8 246.766 1541.93C249.623 1538.05 252.429 1534.13 255.202 1530.21C255.251 1530.24 255.31 1530.27 255.383 1530.29C257.038 1530.68 258.487 1531.5 259.735 1532.77C259.903 1532.98 260.297 1533.07 260.514 1532.88C276.633 1518.73 286.324 1498.83 298.452 1481.48C304.702 1472.54 311.443 1463.91 317.577 1454.9C321.342 1449.36 323.157 1443.05 317.333 1438.51C318.708 1436.3 320.087 1434.09 321.469 1431.88C326.233 1436.42 334.282 1437.67 336.138 1444.73C337.27 1449.04 334.8 1453.51 333.571 1457.52C332.553 1460.84 332.842 1464.21 333.981 1467.45C335.169 1470.83 337.953 1473.69 340.237 1476.35C343.1 1479.68 345.369 1483.44 348.166 1486.83C354.119 1494.06 362.015 1498.83 370 1503.5C379.074 1508.79 384.741 1516.2 391.136 1524.29C395.447 1529.74 400.595 1534.32 406.004 1538.6V1537.44C399.623 1532.2 393.996 1526.52 388.858 1519.85C383.109 1512.39 377.352 1506.82 369.202 1502.06C360.723 1497.11 353.13 1491.74 347.034 1483.94C344.68 1480.92 342.667 1477.75 340.163 1474.83C336.767 1470.89 334.142 1467.08 333.909 1461.71C333.829 1459.84 334.19 1458.07 334.7 1456.35C337.903 1460.18 342.432 1462.51 346.859 1464.65C350.854 1466.59 355.963 1469.87 360.362 1470.46C360.829 1470.52 361.259 1470.45 361.663 1470.29C370.592 1470.18 377.425 1476.39 384.052 1481.66C390.001 1486.4 395.513 1488.68 402.65 1491.02C403.775 1491.38 404.894 1491.79 406.007 1492.23V1491.4C404.527 1490.84 403.032 1490.3 401.521 1489.81C397.333 1488.45 393.576 1487.3 389.833 1484.87C386.293 1482.57 383.138 1479.72 379.796 1477.15C374.64 1473.19 369.278 1469.84 362.804 1469.55C363.646 1468.78 364.29 1467.68 364.738 1466.84C368.092 1460.52 371.011 1453.86 375.048 1447.94C382.983 1436.3 393.336 1426.37 399.654 1413.67C401.822 1409.31 403.851 1404.92 406.008 1400.58V1398.95C404.758 1401.27 403.539 1403.62 402.404 1406.01C399.623 1411.87 397.092 1417.76 393.197 1423C389.218 1428.35 385.064 1433.56 380.926 1438.8C377.301 1443.38 373.676 1448.07 370.86 1453.2C368.178 1458.08 366.215 1463.42 363.102 1468.06C360.629 1471.74 351.481 1465.66 348.569 1464.34C343.721 1462.15 338.645 1459.63 335.199 1455.47C335.139 1455.4 335.075 1455.38 335.01 1455.37C336.506 1450.79 338.683 1446.47 335.883 1441.44C333.054 1436.36 325.902 1435.12 321.963 1431.09C323.525 1428.6 325.092 1426.11 326.671 1423.63C329.857 1423.16 333.201 1423.25 335.335 1425.71C337.226 1427.88 338.326 1429.01 341.424 1428.41C341.892 1428.33 342.04 1427.34 341.531 1427.44C337.061 1428.29 337.026 1424.47 333.706 1423.09C331.785 1422.29 329.546 1422.29 327.347 1422.57C331.56 1415.97 335.853 1409.42 340.31 1402.98C341.872 1405.38 344.791 1406.75 347.599 1406.23C351.607 1405.48 354.355 1401.67 356.361 1398.48C358.794 1394.6 358.882 1389.1 359.887 1384.72C361.039 1379.68 365.283 1375.92 366.159 1371C366.301 1370.21 366.024 1369.54 365.526 1368.99C370.045 1362.87 374.551 1356.74 379.221 1350.73C383.61 1345.08 388.242 1339.72 392.286 1333.81C396.56 1327.56 400.626 1321.22 405.701 1315.57C406.072 1315.15 405.691 1314.45 405.254 1314.94C400.904 1319.79 397.233 1325.1 393.609 1330.5C389.305 1336.91 384.568 1342.81 379.755 1348.84C374.637 1355.24 369.765 1361.84 364.901 1368.45C363.585 1367.51 361.571 1367.13 360.376 1367.37C357.171 1368.04 355.207 1370.21 353.438 1372.84C350.509 1378.36 346.433 1383.14 343.052 1388.37C340.615 1392.14 337.948 1397 339.573 1401.51C339.657 1401.75 339.755 1401.97 339.858 1402.19C335.169 1408.93 330.664 1415.79 326.255 1422.73C325.059 1422.93 323.891 1423.19 322.817 1423.44C319.888 1423.12 316.38 1422.33 313.918 1424C309.214 1427.19 306.392 1432.74 303.247 1437.32C294.915 1449.47 286.037 1461.43 277.413 1473.39C273.284 1479.12 268.681 1484.39 265.017 1490.45C261.202 1496.78 258.06 1503.33 254.798 1509.95C252.078 1515.47 247.863 1520.51 245.746 1526.28C243.851 1531.45 244.972 1536.57 245.96 1541.79C239.382 1550.73 232.522 1559.45 225.134 1567.74C220.682 1572.74 215.971 1577.5 211.063 1582.05C206.952 1585.86 198.487 1597.07 193.602 1588.96C192.497 1587.13 191.586 1586.16 190.232 1585.51C196.773 1573.56 206.415 1564.01 214.821 1553.41C223.989 1541.86 230.259 1528.65 236.27 1515.27C242.393 1501.62 248.173 1487.85 255.741 1474.92C263.292 1462.02 272.294 1450.03 280.501 1437.55C296.032 1413.94 308.435 1388.42 323.54 1364.5C324.251 1364.89 324.96 1365.31 325.685 1365.81C332.687 1370.57 340.289 1352.58 343.357 1348.7C361.837 1325.31 375.722 1298.82 394.421 1275.56C394.747 1275.15 394.274 1274.44 393.863 1274.95C374.784 1298.68 360.53 1325.65 341.667 1349.52C338.747 1353.22 332.827 1367.81 326.849 1365.36C325.878 1364.97 325.025 1364.23 324.149 1363.54C325.446 1361.5 326.755 1359.47 328.097 1357.46C336.697 1344.56 345.804 1332.1 353.995 1318.91C362.093 1305.88 369.915 1292.69 378.479 1279.96C387.083 1267.17 395.917 1254.68 404.017 1241.55C404.679 1240.47 405.342 1239.4 406.005 1238.33V1236.59C398.496 1248.59 391.141 1260.62 382.845 1272.11C364.858 1297.03 350.386 1324.28 332.578 1349.34C329.396 1353.82 326.352 1358.38 323.398 1362.99C322.822 1362.59 322.222 1362.25 321.557 1362.1C317.016 1361.02 311.856 1360.59 311.427 1354.65C311.21 1351.63 312.425 1348.48 312.645 1345.47C312.9 1341.95 313.203 1338.43 313.58 1334.92C314.277 1328.43 315.855 1322.14 316.919 1315.72C317.955 1309.47 318.781 1302.44 318.098 1295.79C321.015 1294.94 323.89 1293.98 326.646 1292.69C333.384 1289.55 337.874 1283.7 341.364 1277.33C344.153 1272.24 347.454 1269.17 352.413 1266.32C355.12 1264.77 357.017 1262.32 357.884 1259.33C359.073 1255.23 354.222 1253.08 351.374 1251.52C350.711 1251.16 350.081 1250.74 349.468 1250.3C349.544 1250.3 349.62 1250.3 349.697 1250.27C355.279 1248.06 360.125 1244.6 365.125 1241.34C371.471 1237.2 378.51 1235.38 385.699 1233.31C392.537 1231.33 399.182 1228.66 406.008 1226.58V1226.17C399.631 1228.17 393.229 1230.09 386.941 1232.11C380.766 1234.09 374.27 1235.29 368.488 1238.33C361.917 1241.78 356.361 1246.73 349.407 1249.51C349.055 1249.48 348.706 1249.45 348.354 1249.44C342.28 1244.37 338.573 1235.59 334.622 1229.12C329.486 1220.71 324.151 1212.43 317.671 1204.98C310.9 1197.2 304.971 1189.39 299.234 1180.81C294.288 1173.4 288.924 1166.36 281.893 1160.83C296.372 1162.46 311.09 1162.02 325.297 1165.92C334.48 1168.45 341.766 1174.53 350.068 1178.88C358.964 1183.53 367.484 1188.63 375.672 1194.48C385.791 1201.71 394.573 1211.68 406.008 1216.45V1215.42C394.414 1210.45 385.355 1200.19 375.113 1192.87C366.854 1186.97 358.16 1182.02 349.193 1177.33C341.714 1173.41 335.248 1168.18 327.131 1165.5C309.784 1159.78 290.931 1161.78 273.144 1158.61C262.978 1156.8 253.284 1152.9 243.402 1150.01C239.714 1148.93 235.999 1147.57 232.258 1146.28C233.535 1145.76 234.907 1145.33 236.438 1145.02C243.925 1143.51 251.575 1144.6 258.9 1146.41C265.716 1148.09 272.341 1150.29 279.316 1151.29C285.896 1152.23 292.548 1151.72 299.087 1150.72C305.945 1149.67 312.734 1151.18 319.583 1149.81C327.13 1148.3 334.273 1145.98 341.981 1145.11C351.52 1144.03 361.157 1143.8 370.786 1143.57C371.073 1145.67 370.458 1148.44 371.719 1150.89C373.387 1154.15 376.786 1155.68 378.366 1158.82C380.233 1162.54 380.804 1167.02 381.735 1171.04C383.297 1177.78 386.899 1183.25 390.674 1188.95C394.297 1194.41 398.283 1199.76 403.096 1204.24C403.448 1204.57 404.239 1203.97 403.846 1203.6C397.928 1198.08 393.317 1191.31 388.985 1184.51C386.805 1181.1 384.794 1177.81 383.526 1173.93C382.18 1169.8 381.592 1165.45 380.358 1161.29C379.485 1158.34 378.532 1156.81 376.157 1154.96C372.202 1151.88 372.098 1147.96 371.782 1143.55C377.194 1143.42 382.604 1143.29 387.991 1142.99C393.994 1142.67 400.001 1142.41 406.009 1142.27ZM365.101 1371.99C364.626 1374.64 361.862 1377.37 360.634 1379.78C358.072 1384.8 358.013 1390.95 356.488 1396.31C355.134 1401.08 348.999 1407.57 343.56 1404.69C342.285 1404.02 341.434 1403.14 340.892 1402.14C344.824 1396.49 348.878 1390.92 353.121 1385.48C357.136 1380.33 361.024 1375.09 364.901 1369.84C365.163 1370.38 365.265 1371.07 365.101 1371.99ZM342.291 1391.27C345.552 1384.78 350.82 1379.5 354.229 1373.08C354.833 1372.18 355.471 1371.34 356.18 1370.52C357.52 1368.99 362.465 1367.43 364.399 1369.14C360.118 1374.96 355.837 1380.78 351.397 1386.48C347.628 1391.31 344.015 1396.25 340.504 1401.27C339.423 1398.17 340.822 1394.2 342.291 1391.27ZM310.955 1462.23C304.072 1471.46 297.39 1481 291.097 1490.65C285.545 1499.15 280.285 1507.83 274.306 1516.05C270.91 1520.72 267.2 1525.16 263.116 1529.24C260.013 1532.34 259.184 1530.68 255.644 1529.59C256.03 1529.04 256.416 1528.5 256.8 1527.95C273.528 1504.14 290.875 1480.74 306.384 1456.1C309.917 1450.48 313.41 1444.83 316.913 1439.2C325.247 1446 315.548 1456.07 310.955 1462.23ZM245.802 1529.28C246.405 1525.63 248.823 1522.18 250.73 1519.08C252.812 1515.71 254.7 1512.27 256.454 1508.71C259.46 1502.61 262.23 1496.44 265.933 1490.72C270.079 1484.3 274.871 1478.44 279.333 1472.25C287.944 1460.31 296.771 1448.36 305.093 1436.22C307.468 1432.76 309.647 1429.22 312.532 1426.14C315.341 1423.14 318.913 1423.87 322.458 1424.19C322.514 1424.35 322.645 1424.45 322.856 1424.41C323.05 1424.36 323.252 1424.32 323.454 1424.27C323.657 1424.28 323.86 1424.29 324.063 1424.3C324.305 1424.31 324.485 1424.18 324.567 1424.02C324.897 1423.95 325.233 1423.89 325.571 1423.82C322.526 1428.63 319.522 1433.47 316.53 1438.31C316.384 1438.37 316.297 1438.49 316.329 1438.63C311.543 1446.37 306.778 1454.12 301.903 1461.78C286.372 1486.19 268.983 1509.52 252.243 1533.11C250.378 1535.74 248.491 1538.35 246.584 1540.96C245.812 1536.97 245.196 1532.97 245.802 1529.28ZM133.071 1160.72C133.192 1160.8 133.311 1160.88 133.432 1160.96C139.053 1164.69 145.331 1167.76 151.645 1170.13C163.528 1174.58 176.653 1174.51 188.241 1169.31C193.633 1166.89 198.592 1163.58 203.856 1160.91C207.405 1159.11 211.233 1158.02 214.879 1156.52C215.822 1157.3 216.766 1158.06 217.662 1158.83C218.16 1159.26 218.631 1159.71 219.09 1160.17C215.208 1162.6 211.341 1165.05 207.528 1167.58C202.497 1170.93 197.307 1173.61 191.898 1176.27C186.52 1178.92 182.51 1183.16 176.153 1183.56C171.521 1183.85 166.81 1180.54 162.465 1179.22C156.678 1177.47 150.65 1177.38 146.553 1172.25C142.631 1167.34 136.449 1165.66 130.679 1163.22C131.488 1162.4 132.288 1161.56 133.071 1160.72ZM237.963 1149.41C239.04 1149.75 240.119 1150.07 241.203 1150.37C251.242 1153.07 260.919 1156.97 271.102 1159.15C274.189 1159.8 277.294 1160.29 280.414 1160.67C280.403 1160.8 280.436 1160.93 280.546 1161.01C294.204 1171.3 301.048 1187.33 311.872 1200.12C318.164 1207.56 324.296 1214.56 329.596 1222.79C334.598 1230.56 339.167 1238.59 344.273 1246.3C345.109 1247.56 346.043 1248.57 347.041 1249.44C338.49 1249.68 330.201 1255.78 322.65 1258.93C322.072 1259.17 322.398 1259.84 322.967 1259.61C330.652 1256.4 339.321 1249.85 348.014 1250.24C350.301 1251.98 352.875 1253.22 355.449 1255.14C360.867 1259.21 353.258 1264.92 349.746 1266.84C346.523 1268.61 344.312 1271.03 342.34 1274.09C337.278 1281.94 333.57 1288.83 324.565 1292.67C322.44 1293.57 320.239 1294.29 318.008 1294.94C317.637 1291.93 316.946 1289.01 315.801 1286.29C311.855 1276.91 301.733 1270.52 293.774 1264.8C283.512 1257.45 272.823 1253.28 260.383 1251.12C246.074 1248.63 231.612 1250.98 217.268 1249.3C211.547 1248.63 206.204 1248.07 200.454 1248.35C193.712 1248.68 183.925 1248.57 182.893 1240.16C181.608 1229.65 175.788 1221.53 169.491 1213.2C161.37 1202.46 152.323 1192.46 144.2 1181.72C139.346 1175.3 133.612 1170.65 127.054 1166.84C128.011 1165.9 128.968 1164.95 129.917 1164C131.639 1164.78 133.415 1165.5 135.222 1166.25C137.088 1167.03 138.874 1167.91 140.802 1168.56C144.056 1169.65 145.054 1172.59 147.42 1174.63C150.778 1177.54 155.366 1178.33 159.579 1179.3C164.632 1180.46 169.584 1183.86 174.781 1184.22C179.089 1184.51 182.666 1182.91 186.311 1180.77C191.604 1177.66 197.126 1175 202.409 1171.9C208.307 1168.42 214.116 1164.74 219.901 1161.01C222.382 1163.68 224.488 1166.68 227.3 1169.01C227.78 1169.41 228.029 1168.51 227.655 1168.2C224.98 1165.99 222.982 1163.1 220.632 1160.54C226.36 1156.85 232.069 1153.13 237.824 1149.54C237.892 1149.5 237.936 1149.45 237.963 1149.41ZM236.977 1149.09C231.274 1152.64 225.539 1156.14 219.839 1159.7C219.468 1159.32 219.088 1158.96 218.692 1158.6C217.757 1157.78 216.761 1156.97 215.761 1156.15C217.231 1155.51 218.665 1154.79 220.03 1153.91C223.964 1151.35 226.995 1148.76 230.776 1146.94C232.842 1147.67 234.905 1148.41 236.977 1149.09ZM369.581 1142.79C355.033 1143.15 340.019 1142.99 325.935 1147.12C318.411 1149.33 312.053 1149.44 304.31 1149.25C300.827 1149.16 297.352 1150.02 293.903 1150.42C289.633 1150.92 285.341 1150.88 281.069 1150.51C278.561 1150.28 276.098 1149.89 273.664 1149.39C279.185 1142.71 287.237 1148.53 294.276 1148.58C302.575 1148.64 310.766 1146.56 318.897 1145.1C326.838 1143.67 334.793 1142.4 342.848 1141.79C350.772 1141.18 358.659 1139.72 366.623 1140.33C369.182 1140.53 370.203 1141.45 370.611 1142.76C370.269 1142.77 369.925 1142.78 369.581 1142.79Z" fill="#A0A8AC"/>
<path d="M377.473 1752.45C380.393 1749.42 382.505 1749.46 386.057 1748.45C390.953 1747.05 393.198 1740.84 394.953 1736.65C396.682 1732.53 398.224 1728.49 402.627 1726.57C403.703 1726.1 404.84 1725.77 406.009 1725.54V1724.65C403.064 1725.13 400.362 1726.12 398.571 1728.15C393.132 1734.33 392.967 1746.75 383.389 1748.27C381.66 1748.54 379.66 1748.44 378.385 1749.92C375.595 1753.14 372.087 1755.72 369.576 1759.17C366.216 1763.79 365.062 1769.44 364.488 1775.13C363.121 1775.21 361.759 1775.31 360.42 1775.33C356.621 1775.41 349.617 1774.27 350.732 1779.84C350.974 1781.06 351.519 1782.53 351.982 1783.68C354.3 1789.45 350.92 1787.39 349.265 1788.27C348.926 1788.45 347.593 1786.52 347.291 1786.13C346.851 1785.55 345.212 1785.48 343.322 1785.58C341.361 1781.46 340.056 1777.34 338.731 1772.92C338.299 1771.49 337.38 1767.41 335.554 1766.86C334.849 1766.64 334.097 1766.51 333.329 1766.41C332.853 1763.53 332.331 1760.66 331.646 1757.81C330.875 1754.6 329.686 1751.57 328.298 1748.63C332.677 1736.98 320.277 1727.11 317.283 1716.73C317.149 1716.27 316.162 1716.37 316.307 1716.88C319.187 1726.87 330.898 1736.36 327.684 1747.36C325.517 1742.96 322.968 1738.73 320.771 1734.34C316.167 1725.14 311.959 1715.77 307.209 1706.62C306.992 1706.2 306.05 1706.41 306.318 1706.93C310.812 1715.57 315.006 1724.29 319.16 1733.11C323.641 1742.63 329.227 1751 331.472 1761.46C331.819 1763.06 332.11 1764.68 332.383 1766.3C329.076 1766.05 325.419 1766.54 322.37 1766.54C321.888 1766.54 321.542 1767.4 322.169 1767.4C325.566 1767.4 329.121 1767.12 332.556 1767.32C333.605 1773.74 334.347 1780.22 335.993 1786.53C335.784 1786.8 335.735 1787.19 336.114 1787.18C336.13 1787.18 336.142 1787.18 336.157 1787.18C336.185 1787.29 336.208 1787.39 336.235 1787.49C337.339 1791.47 340.142 1796.09 344.991 1795.45C345.588 1795.38 346.178 1795.29 346.763 1795.2C347.888 1797.97 348.974 1800.75 350.414 1803.38C350.675 1803.86 351.511 1803.33 351.283 1802.92C349.89 1800.38 348.771 1797.72 347.662 1795.05C348.996 1794.84 350.318 1794.61 351.644 1794.4C352.892 1796.78 353.874 1799.35 355.092 1801.68C355.359 1802.18 355.943 1801.39 355.724 1800.98C354.599 1798.83 353.672 1796.48 352.552 1794.26C354.072 1794.03 355.603 1793.84 357.177 1793.74C363.845 1793.32 364.083 1801.56 366.921 1805.6C371.641 1812.32 379.862 1817.54 386.547 1822.11C392.831 1826.41 399.335 1830.78 406.003 1834.65V1833.67C400.573 1830.44 395.319 1826.86 390.051 1823.47C382.03 1818.29 372.575 1812.09 367.011 1804.16C363.818 1799.61 365.49 1792.84 358.449 1792.97C356.314 1793.01 354.17 1793.07 352.053 1793.32C351.253 1791.85 350.327 1790.47 349.177 1789.26C351.06 1788.55 352.493 1789.07 353.585 1787.08C354.439 1785.51 352.388 1781.97 351.901 1780.55C350.194 1775.54 356.667 1776.26 359.594 1776.24C361.235 1776.22 362.821 1776.18 364.385 1776.16C364.11 1779.23 363.969 1782.3 363.717 1785.2C363.674 1785.69 364.672 1785.73 364.717 1785.23C364.988 1782.1 365.227 1779.09 365.596 1776.15C368.869 1776.14 372.075 1776.29 375.491 1777.06C385.267 1779.29 395.571 1779.28 405.553 1779.28C405.702 1779.28 405.852 1779.28 406.001 1779.28V1778.41C404.143 1778.4 402.284 1778.38 400.43 1778.37C393.452 1778.31 386.344 1778.01 379.451 1776.89C376.49 1776.41 373.635 1775.5 370.656 1775.14C369.045 1774.95 367.394 1774.98 365.744 1775.06C366.41 1770.23 367.49 1765.56 369.738 1760.79C371.399 1757.29 374.855 1755.16 377.473 1752.45ZM336.641 1785.18C335.215 1779.32 334.448 1773.33 333.493 1767.38C333.786 1767.41 334.081 1767.43 334.37 1767.46C337.235 1767.79 338.422 1775.22 338.993 1777.44C339.739 1780.33 340.926 1783.02 342.243 1785.66C340.183 1785.83 338.051 1786.14 336.917 1786.24C336.821 1785.89 336.728 1785.54 336.641 1785.18ZM337.177 1787.15C339.074 1787.08 340.971 1786.96 342.871 1786.91C343.289 1787.72 343.712 1788.52 344.137 1789.33C345.005 1790.99 345.744 1792.71 346.453 1794.43C340.908 1795.35 338.554 1791.69 337.177 1787.15ZM351.139 1793.45C350.042 1793.61 348.953 1793.82 347.883 1794.12C347.692 1794.17 347.515 1794.2 347.329 1794.24C346.353 1791.9 345.365 1789.56 344.183 1787.3C344.11 1787.16 344.044 1787.02 343.972 1786.88C345.953 1786.89 346.728 1787.44 347.747 1789.02C347.759 1789.12 347.792 1789.22 347.869 1789.29C347.919 1789.33 347.959 1789.38 348.008 1789.43C348.015 1789.44 348.024 1789.45 348.029 1789.46C348.038 1789.48 348.054 1789.48 348.066 1789.49C349.312 1790.63 350.3 1791.98 351.139 1793.45Z" fill="#A0A8AC"/>
<path d="M406.009 70.931V69.487C404.66 71.863 403.292 74.228 401.844 76.548C397.467 83.567 391.942 89.844 386.574 96.11C384.723 98.272 382.928 100.45 381.164 102.64C379.432 102.209 377.699 101.778 375.966 101.354C368.136 99.438 360.01 98.87 352.067 97.586C343.42 96.188 336.104 93.292 328.645 88.789C321.991 84.771 314.459 82.377 307.125 79.937C301.813 78.169 296.808 76.262 291.926 73.959C293.978 70.533 295.802 67.05 298.502 63.946C302.775 59.03 308.117 55.156 312.451 50.277C312.629 50.078 312.639 49.667 312.42 49.488C308.809 46.582 304.732 44.611 300.52 42.722C295.284 40.373 290.745 37.763 286.02 34.525C285.691 34.299 285.37 34.07 285.046 33.842C285.023 33.692 284.853 33.591 284.65 33.564C280.718 30.759 277.15 27.791 273.339 25.205C273.746 24.907 274.142 24.596 274.553 24.301C277.908 21.896 280.9 19.103 283.735 16.147C285.116 17.281 286.523 18.387 288.052 19.357C292.464 22.156 296.149 26.091 300.307 29.25C310.036 36.641 323.151 40.693 330.991 50.235C337.319 57.94 340.311 67.844 347.659 74.83C354.616 81.444 364.749 83.892 373.055 88.29C373.487 88.518 374.177 87.907 373.624 87.614C364.796 82.938 354.77 80.307 347.38 73.282C339.778 66.054 337.284 54.936 329.915 47.536C326.333 43.94 321.856 41.531 317.505 38.993C311.358 35.408 305.237 31.858 299.565 27.544C296.669 25.344 294.031 22.883 291.202 20.639C297.738 13.347 305.004 6.931 311.838 0.002H310.758C308.414 2.382 305.972 4.66 303.377 6.738C298.535 10.616 294.633 15.488 290.52 20.096C289.504 19.314 288.459 18.565 287.366 17.871C286.269 17.176 285.249 16.403 284.259 15.602C289.074 10.509 293.468 4.966 298.419 0H297.261C292.496 4.811 288.191 10.09 283.527 14.999C280.656 12.612 277.965 10.058 274.423 8.446C274.31 8.395 274.179 8.399 274.058 8.435C273.943 8.447 273.83 8.486 273.749 8.565C266.814 15.331 258.685 20.681 251.431 27.056C241.238 22.555 230.464 19.642 221.407 12.487C221.028 12.189 220.225 12.775 220.638 13.102C229.688 20.251 240.33 23.334 250.606 27.78C249.304 28.95 248.025 30.146 246.8 31.405C238.434 40.009 231.022 49.063 221.64 56.669C221.617 56.69 221.609 56.709 221.591 56.729C212.662 52.244 203.168 52.42 193.509 50.754C187.035 49.638 151.774 37.572 139.839 30.82C133.777 27.441 127.322 24.784 120.767 22.54C108.839 18.46 94.7569 15.027 82.0879 15.408C75.9289 15.594 70.3469 14.173 66.7069 8.772C64.7899 5.926 63.9529 2.776 61.3019 0.449C60.9489 0.14 60.0579 0.547 60.4899 0.924C64.0099 4.01 64.5879 9.495 68.4419 12.205C73.0599 15.452 76.4229 16.307 82.1729 16.154C96.9919 15.76 113.083 20.258 126.787 25.599C133.503 28.217 139.427 32.036 145.87 35.142C150.141 37.202 187.47 51.119 194.474 51.893C205.69 53.681 219.134 53.428 227.627 62.132C232.017 66.628 233.67 73.29 235.584 79.085C236.365 81.452 239.108 84.107 240.609 86.001C242.953 88.961 245.073 92.065 247.342 95.07C241.491 103.371 231.572 107.223 222.903 111.852C212.908 117.187 204.852 125.984 193.96 129.569C193.518 129.715 193.427 130.691 193.972 130.511C204.901 126.915 213.16 118.202 223.118 112.709C231.893 107.868 241.82 104.147 247.824 95.715C252.042 101.227 255.777 107.097 259.855 112.712C264.385 118.955 269.32 123.613 271.18 131.31C272.289 135.904 273.075 140.331 275.717 144.347C278.203 148.129 282.851 150.499 286.555 152.889C296.67 159.41 307.034 165.566 316.16 173.47C321.299 177.916 325.906 183.105 328.772 189.313C324.66 197.475 320.771 205.745 317.222 214.176C311.987 226.62 307.233 239.245 302.987 252.06C299.343 263.058 294.907 272.716 288.486 281.956C284.382 277.595 281.529 272.23 277.369 267.92C276.971 267.506 276.582 268.402 276.906 268.739C281.049 273.029 283.895 278.361 287.963 282.709C286.926 284.175 285.84 285.631 284.694 287.081C281.159 291.56 277.028 295.411 272.077 298.264C270.348 299.26 268.553 300.024 266.722 300.666C266.225 298.131 265.516 295.636 264.561 293.165C264.381 292.702 263.479 293.129 263.661 293.599C264.605 296.039 265.3 298.496 265.785 300.991C261.857 302.264 257.763 302.984 253.684 303.884C244.955 305.812 238.008 310.334 232.069 316.901C222.868 327.075 215.052 338.667 206.766 349.577C202.37 355.36 198.123 361.299 193.578 366.967C189.174 372.461 183.018 376.105 177.349 380.103C172.4 383.59 168.56 388.238 164.458 392.639C159.827 397.613 154.767 402.12 150.253 407.23C143.101 415.333 137.262 424.433 134.259 434.878C130.736 447.146 132.525 460.8 132.878 473.372C133.218 485.358 134.566 499.432 142.113 509.302C155.138 526.339 177.847 522.32 196.538 526.005C223.824 531.386 246.581 549.181 272.327 558.866C276.233 560.336 280.181 561.684 284.148 562.973C282.135 568.224 280.26 573.524 278.754 578.956C278.577 579.592 279.373 579.55 279.521 579.009C280.993 573.698 282.864 568.448 284.887 563.217C303.325 569.169 322.207 573.819 339.663 582.455C350.831 587.978 360.887 595.418 369.081 604.816C378.034 615.087 383.866 627.889 388.415 640.607C393.1 653.705 396.163 667.337 399.068 680.919C400.411 687.188 401.757 693.44 402.814 699.767C403.417 703.374 404.017 706.983 404.618 710.59C404.849 711.981 405.364 713.233 406.01 714.426V711.594C403.887 705.67 403.831 698.6 402.559 692.642C399.811 679.772 397.202 666.876 393.703 654.184C387.03 629.975 376.518 606.842 356.048 591.354C337.691 577.465 314.749 571.424 293.087 564.813C290.459 564.011 287.839 563.188 285.228 562.341C286.986 557.835 288.845 553.341 290.657 548.832C296.837 550.795 303.026 552.73 309.183 554.741C332.326 562.299 355.337 570.245 378.134 578.784C387.56 582.314 396.808 586.273 406.011 590.343V589.294C404.98 588.836 403.949 588.376 402.916 587.921C373.765 575.061 343.392 564.946 313.145 554.983C305.794 552.563 298.401 550.26 291.022 547.914C296.128 535.135 300.733 522.223 301.311 508.567C302.916 508.809 304.514 509.069 306.098 509.373C309.908 510.101 313.837 511.807 317.749 511.755C320.833 511.714 323.526 508.062 325.434 506.156C328.163 503.432 330.391 503.512 331.049 499.203C332.372 490.561 339.454 491.117 346.741 490.619C362.657 489.533 378.665 490.457 394.544 491.668C398.37 491.96 402.19 492.267 406.01 492.586V491.689C402.906 491.421 399.801 491.156 396.693 490.906C380.793 489.634 364.844 488.802 348.895 489.595C341.949 489.941 331.539 489.122 330.299 498.177C329.611 503.204 324.443 506.486 320.658 509.635C316.947 512.726 309.314 509.023 305.171 508.232C303.901 507.991 302.626 507.779 301.35 507.579C301.393 506.019 301.389 504.45 301.321 502.87C301.112 498.06 300.037 493.391 299.936 488.558C299.828 483.192 299.998 477.83 299.627 472.469C299.145 465.469 297.194 460.035 292.007 456.571C295.346 453.235 297.731 448.996 299.629 444.563C312.307 447.798 325.407 449.539 338.329 451.319C360.807 454.419 383.396 456.431 406.009 458.255V457.459C385.391 455.78 364.786 453.953 344.258 451.337C329.488 449.455 314.427 447.586 299.936 443.833C301.069 441.106 302.036 438.328 302.938 435.658C303.522 433.932 304.081 432.19 304.637 430.449C305.417 430.761 306.208 431.055 307.03 431.299C317.1 434.271 321.537 424.57 323.581 416.632C325.019 411.049 326.376 406.127 328.955 400.916C329.931 398.944 330.936 396.989 331.956 395.04C341.813 400.269 352.413 404.119 362.918 407.77C377.284 412.762 391.589 417.858 406.011 422.595V421.772C392.205 417.212 378.575 412.077 364.825 407.373C353.818 403.606 342.75 399.565 332.436 394.131C334.643 389.937 336.919 385.778 339.201 381.625C345.496 370.16 351.401 358.612 356.929 346.765C368.751 321.402 381.357 296.453 397.674 273.635C397.98 273.209 397.484 272.516 397.103 273.047C383.189 292.496 371.929 313.498 361.615 335.026C356.511 345.672 351.777 356.487 346.288 366.94C341.559 375.944 336.519 384.78 331.773 393.772C327.527 391.502 323.409 388.998 319.484 386.163C319.273 386.012 319.06 386.145 318.927 386.331C315.409 391.31 313.587 397.157 311.898 402.956C310.083 409.182 307.964 415.376 306.277 421.618C305.615 424.056 304.956 426.651 304.242 429.302C298.855 427.221 293.357 423.531 289.262 422.023C285.227 420.54 280.662 419.193 275.996 417.711C277.332 415.278 278.206 412.608 279.078 409.946C281.404 402.821 282.974 395.491 283.863 388.051C284.597 381.874 284.486 375.655 284.715 369.452C284.932 363.476 284.925 357.674 282.084 352.293C280.913 350.078 279.461 348.031 278.1 345.928C278.13 345.918 278.157 345.917 278.192 345.899C287.614 341.003 295.397 333.809 304.014 327.716C307.592 325.184 312.122 323.501 315.412 320.633C319.553 317.026 320.887 311.701 324.5 307.675C324.914 307.214 324.387 306.682 323.966 307.149C320.684 310.808 319.233 315.516 315.948 319.174C314.09 321.244 311.09 322.297 308.665 323.558C306.809 324.526 305.408 325.845 303.684 327.02C295.016 332.922 287.455 340.214 278.082 345.082C277.937 345.158 277.843 345.302 277.794 345.452C277.208 344.534 276.645 343.603 276.135 342.64C274.364 339.282 273.531 335.091 272.471 331.459C270.565 324.939 268.837 318.303 267.829 311.572C271.555 309.596 275.169 307.415 278.576 304.843C291.519 295.072 297.476 278.677 303.465 264.186C311.18 245.512 319.088 227.03 327.202 208.528C333.573 194 339.819 179.323 347.917 165.681C364.771 172.216 380.895 179.917 396.732 188.705C399.868 190.445 402.939 192.347 406.011 194.258V193.31C403.142 191.509 400.275 189.721 397.365 188.087C381.517 179.189 365.271 171.494 348.337 164.965C350.284 161.719 352.339 158.532 354.529 155.423C354.818 155.015 354.439 154.219 354.062 154.752C351.788 157.981 349.649 161.3 347.601 164.679C347.14 164.502 346.683 164.316 346.222 164.141C345.485 163.862 344.747 163.596 344.011 163.329C348.722 154.94 353.522 146.578 358.269 138.144C365.175 125.876 372.665 114.334 381.454 103.448C387.121 104.847 392.76 106.474 398.342 107.997C400.907 108.696 403.461 109.452 406.014 110.217V109.26C404.824 108.918 403.635 108.573 402.441 108.236C395.651 106.317 388.815 104.539 381.967 102.829C382.955 101.614 383.948 100.399 384.971 99.2C392.769 90.06 399.83 81.011 406.009 70.931ZM311.376 407.568C312.814 402.385 314.264 397.214 316.397 392.264C317.586 389.506 318.376 386.624 321.491 388.786C323.673 390.303 325.958 391.661 328.253 392.993C329.256 393.575 330.275 394.123 331.298 394.673C330.313 396.548 329.337 398.429 328.385 400.323C326.377 404.317 324.872 408.047 323.825 412.39C322.707 417.042 321.731 421.671 319.247 425.828C315.749 431.663 310.433 431.542 304.928 429.558C307.237 422.282 309.346 414.887 311.376 407.568ZM296.01 41.714C299.276 43.273 302.619 44.64 305.854 46.269C307.202 46.947 308.473 47.74 309.741 48.555C312.759 50.495 308.595 53.051 307.309 54.283C302.413 58.971 296.559 63.282 293.42 69.459C292.711 70.855 291.953 72.232 291.149 73.582C288.447 72.279 285.777 70.86 283.113 69.26C280.851 67.902 278.587 66.594 276.285 65.385C278.371 61.432 280.043 57.364 282.467 53.568C283.5 51.951 284.615 50.386 285.787 48.86C287.74 49.776 289.755 50.592 291.865 51.242C292.305 51.378 293.001 50.68 292.463 50.513C290.349 49.862 288.317 49.052 286.345 48.138C288.509 45.389 290.864 42.783 293.3 40.295C294.187 40.792 295.085 41.273 296.01 41.714ZM268.462 50.6C262.551 58.119 256.547 65.633 250.361 72.936C250.348 72.914 250.335 72.892 250.32 72.87C247.095 67.369 241.609 64.608 237.566 59.864C245 50.343 253.252 41.704 262.333 33.92C266.855 36.782 271.154 39.987 275.587 42.952C273.099 45.394 270.626 47.849 268.462 50.6ZM276.526 43.569C279.288 45.384 282.116 47.084 285.091 48.532C282.064 52.509 279.403 56.755 277.365 61.321C276.802 62.583 276.189 63.8 275.553 64.995C271.269 62.795 266.829 61.003 262.009 60.019C264.163 57.337 266.327 54.664 268.555 52.04C271.06 49.093 273.808 46.344 276.526 43.569ZM261.415 60.76C266.31 61.735 270.788 63.563 275.111 65.797C271.592 72.192 267.126 77.755 262.352 83.417C257.875 81.073 253.587 77.887 250.857 73.728C254.466 69.476 257.928 65.108 261.415 60.76ZM275.855 66.192C278.093 67.376 280.3 68.65 282.504 69.972C285.208 71.593 287.906 73.055 290.65 74.393C288.533 77.825 286.074 81.043 283.131 83.798C277.402 89.156 271.198 87.523 264.768 84.599C264.203 84.342 263.637 84.069 263.074 83.787C267.81 78.17 272.321 72.674 275.855 66.192ZM292.588 39.878C290.142 42.391 287.805 45.034 285.642 47.811C282.694 46.396 279.876 44.736 277.121 42.96C279.764 40.251 282.35 37.494 284.643 34.496C287.201 36.419 289.819 38.264 292.588 39.878ZM283.927 33.953C281.612 37.005 278.908 39.688 276.194 42.355C271.75 39.437 267.444 36.259 262.991 33.351C266.12 30.697 269.349 28.147 272.679 25.698C276.569 28.202 280.206 31.13 283.927 33.953ZM274.196 9.307C277.528 10.899 280.235 13.242 282.999 15.542C279.92 18.744 276.677 21.777 273.026 24.392C272.882 24.496 272.747 24.605 272.601 24.709C269.355 22.57 265.896 20.742 261.87 19.544C266.11 16.278 270.351 13.011 274.196 9.307ZM260.962 20.244C260.994 20.265 261.025 20.292 261.066 20.303C265.025 21.384 268.564 23.142 271.908 25.226C268.581 27.654 265.353 30.199 262.232 32.858C261.445 32.352 260.656 31.853 259.859 31.37C257.367 29.86 254.792 28.571 252.175 27.391C254.992 24.888 257.966 22.555 260.962 20.244ZM222.346 57.137C222.366 57.126 222.386 57.121 222.403 57.108C231.286 49.908 238.88 41.586 246.452 33.057C248.001 31.313 249.649 29.678 251.364 28.115C253.108 28.883 254.841 29.689 256.551 30.571C258.269 31.457 259.935 32.426 261.572 33.441C252.519 41.237 244.316 49.962 236.939 59.424C236.89 59.44 236.843 59.462 236.803 59.497C234.712 61.29 232.381 62.265 229.934 63.412C227.929 60.776 225.28 58.716 222.346 57.137ZM281.336 148.395C275.333 144.249 273.847 137.794 271.99 131.409C272.009 131.412 272.018 131.419 272.038 131.42C275.469 131.686 280.142 129.905 282.671 132.533C285.04 134.993 287.018 137.589 289.6 139.88C293.162 143.038 297.18 145.388 300.979 148.215C306.5 152.324 313.262 154.688 319.77 156.69C327.417 159.043 334.997 160.951 342.516 163.645C337.958 171.754 333.522 179.929 329.321 188.219C320.138 169.4 297.708 159.705 281.336 148.395ZM284.48 562.104C275.251 559.096 266.146 555.747 257.333 551.635C244.815 545.798 233.024 538.534 220.437 532.845C209.375 527.845 197.783 524.797 185.708 523.653C175.335 522.672 164.64 522.674 154.917 518.464C141.903 512.829 136.882 499.228 134.862 486.15C133.86 479.658 133.798 473.036 133.692 466.482C133.569 458.788 132.854 451.012 133.59 443.339C134.817 430.618 141.147 419.476 149.121 409.777C153.297 404.702 157.947 400.051 162.709 395.536C168.209 390.316 172.541 383.945 179.092 379.906C190.371 372.951 197.352 363.318 205.233 352.927C213.819 341.607 222.126 329.988 231.235 319.077C239.071 309.694 247.864 305.839 259.663 303.486C261.837 303.053 263.921 302.467 265.925 301.748C266.374 304.295 266.608 306.884 266.637 309.54C266.638 309.642 266.682 309.705 266.741 309.75C266.801 310.235 266.878 310.733 266.942 311.225C252.667 318.706 236.468 323.006 224.577 334.333C215.665 342.817 209.557 354.36 203.26 364.804C195.835 377.111 188.557 389.517 179.738 400.9C171.492 411.542 161.013 420.046 153.125 431.001C146.005 440.888 140.863 452.139 138.387 464.07C136.252 474.357 136.075 486.154 140.545 495.863C143.822 502.984 150.332 507.391 157.514 509.943C165.737 512.861 174.713 513.422 183.309 514.464C196.289 516.035 208.884 519.568 221.252 523.735C235.856 528.653 250.091 534.619 264.524 540C272.88 543.114 281.363 545.882 289.865 548.587C288.071 553.09 286.228 557.58 284.48 562.104ZM299.163 489.909C299.283 495.808 300.621 501.544 300.59 507.461C296.55 506.849 292.485 506.381 288.447 505.779C284.928 505.258 281.453 504.577 278.009 503.699C275.302 503.011 271.28 502.777 273.197 499.497C276.4 494.018 278.113 487.964 280.16 481.995C282.982 473.773 286.894 465.937 290.445 458.015C290.771 457.743 291.086 457.458 291.394 457.169C301.483 463.468 298.949 479.481 299.163 489.909ZM291.308 456.132C290.169 455.447 288.901 454.84 287.457 454.331C282.291 452.508 276.674 452.382 271.457 450.698C265.139 448.665 258.748 445.808 252.713 443.042C250.973 442.243 249.149 442.066 250.865 439.445C251.986 437.736 253.484 436.296 254.94 434.88C257.143 432.74 259.66 430.902 262.191 429.147C268.412 432.604 274.781 435.784 281.371 438.549C287.148 440.973 293.095 442.878 299.137 444.44C297.145 448.871 294.638 452.932 291.308 456.132ZM255.026 409.511C261.069 413.376 267.974 415.922 274.831 418.211C274.121 419.298 273.313 420.313 272.366 421.211C269.425 424 265.651 426.048 262.162 428.28C256.843 425.289 251.639 422.078 246.516 418.759C249.143 415.479 252.054 412.465 255.026 409.511ZM245.812 418.302C242.364 416.057 238.948 413.77 235.559 411.466C236.883 408.604 238.599 406.104 240.455 403.557C241.465 402.174 242.459 400.786 243.422 399.37C244.38 397.964 244.966 400.118 245.361 400.73C247.457 403.989 250.574 406.488 253.728 408.657C253.93 408.796 254.137 408.926 254.341 409.06C251.365 412.016 248.449 415.027 245.812 418.302ZM280.944 420.227C285.03 421.581 289.206 422.841 293.126 424.633C296.864 426.342 300.256 428.584 304.001 430.184C302.767 434.71 301.348 439.369 299.464 443.714C294.568 442.431 289.735 440.929 285.005 439.135C277.364 436.237 270.016 432.658 262.875 428.678C263.218 428.444 263.56 428.203 263.899 427.97C267.265 425.665 271.414 423.813 274.063 420.599C274.626 419.917 275.118 419.199 275.565 418.456C277.367 419.055 279.167 419.639 280.944 420.227ZM275.434 343.277C276.746 346.215 278.832 348.841 280.557 351.542C282.891 355.189 283.703 358.936 283.953 363.216C284.332 369.681 283.878 376.444 283.529 382.904C283.133 390.336 281.747 397.652 279.822 404.826C278.703 408.991 277.564 413.652 275.285 417.486C268.42 415.289 261.383 412.758 255.514 409.021C260.766 403.822 266.174 398.771 270.535 392.74C270.898 392.234 269.986 392.052 269.703 392.441C265.386 398.414 260.039 403.425 254.832 408.575C250.441 405.659 246.756 402.029 244.378 397.285C244.241 397.014 243.92 397.086 243.779 397.306C240.799 402.041 237.05 406.243 234.743 411.377C234.536 411.511 234.439 411.741 234.716 411.929C234.727 411.936 234.737 411.944 234.747 411.95C234.797 412.016 234.867 412.058 234.941 412.081C243.581 417.952 252.355 423.637 261.454 428.734C260.834 429.141 260.223 429.555 259.632 429.984C255.285 433.148 251.349 436.812 248.735 441.546C248.623 441.748 248.67 442.037 248.875 442.151C255.056 445.676 261.928 447.885 268.491 450.571C274.907 453.192 281.84 453.401 288.345 455.699C289.178 455.993 289.949 456.338 290.659 456.725C290.42 456.942 290.192 457.172 289.944 457.379C289.873 457.438 289.832 457.513 289.803 457.591C289.801 457.595 289.797 457.598 289.795 457.602C286.697 464.53 283.334 471.37 280.646 478.466C277.76 486.082 275.999 494.35 271.202 501.061C259.042 489.895 244.85 489.39 228.993 488.928C223.743 488.776 218.577 488.179 213.461 487.324C213.371 487.08 213.159 486.927 212.922 487.177C212.907 487.193 212.896 487.206 212.881 487.221C205.764 486.001 198.739 484.289 191.717 482.533C195.416 471.69 198.541 460.66 202.328 449.845C202.532 449.26 201.836 448.983 201.629 449.574C197.831 460.417 194.698 471.48 190.987 482.349C183.746 480.537 176.5 478.703 169.149 477.361C168.692 477.277 168.112 478.07 168.67 478.173C183.274 480.84 197.483 485.533 212.097 488.059C206.715 493.86 202.255 499.913 194.818 503.374C194.39 503.571 194.581 504.518 195.107 504.27C202.875 500.661 207.4 494.279 213.097 488.231C216.818 488.847 220.566 489.323 224.353 489.576C231.851 490.076 239.374 489.768 246.849 490.647C256.037 491.727 264 495.692 270.703 501.938C270.701 502.071 270.752 502.192 270.9 502.256C270.984 502.292 271.07 502.322 271.154 502.358C271.219 502.422 271.291 502.483 271.357 502.548C271.462 502.652 271.605 502.649 271.74 502.593C280.865 506.303 290.844 507.033 300.566 508.455C300.334 517.226 297.945 525.907 295.205 534.18C293.699 538.729 291.994 543.203 290.23 547.659C282.871 545.313 275.529 542.915 268.264 540.298C253.775 535.075 239.562 529.118 225.039 523.98C212.616 519.584 199.838 515.751 186.762 513.911C177.741 512.64 168.592 512.12 159.788 509.609C150.059 506.838 142.737 500.732 139.561 490.984C135.08 477.224 138.719 460.88 144.26 447.999C149.666 435.427 158.319 424.396 168.135 414.977C177.713 405.784 185.438 394.991 192.548 383.831C200.048 372.066 206.839 359.872 214.531 348.228C221.689 337.394 230.055 329.878 241.593 323.943C249.929 319.654 258.749 316.302 267.046 311.984C268.5 322.449 271.19 333.753 275.434 343.277ZM344.112 164.217C345.137 164.602 346.151 165.006 347.173 165.4C335.013 185.666 326.455 208.266 316.76 229.674C310.932 242.548 306.193 255.889 300.689 268.901C295.227 281.809 289.541 295.134 278.281 304.02C274.972 306.631 271.415 308.832 267.72 310.808C267.658 310.37 267.592 309.931 267.536 309.492C267.569 309.432 267.593 309.37 267.592 309.302C267.562 306.613 267.321 303.987 266.859 301.405C273.357 298.898 278.962 294.875 283.761 289.455C300.788 270.226 305.949 244.467 315.287 221.184C323.272 201.276 333.22 182.584 343.616 164.042C343.78 164.1 343.946 164.155 344.112 164.217ZM361.065 131.583C354.97 141.994 348.841 152.412 342.913 162.939C335.926 160.461 328.944 158.476 321.762 156.446C312.773 153.904 305.245 149.953 297.501 144.853C293.542 142.247 289.942 139.114 286.559 135.811C284.973 134.264 283.956 131.781 281.945 130.662C279.414 129.253 274.966 130.883 272.214 130.669C272.048 130.656 271.914 130.714 271.817 130.798C270.612 126.72 269.194 122.701 266.284 119.362C259.666 111.773 254.101 103.287 248.306 94.998C248.421 94.657 248.177 94.322 247.905 94.422C245.462 90.936 242.974 87.486 240.341 84.163C235.962 78.639 234.839 72.346 231.695 66.182C231.343 65.494 230.939 64.849 230.513 64.222C232.447 63.32 234.351 62.465 236.14 61.283C237.536 60.363 241.369 64.786 242.431 65.624C244.66 67.378 246.713 68.896 248.39 71.215C249.683 73.006 250.467 75.176 251.947 76.843C256.979 82.531 265.236 86.726 272.581 88.318C280.164 89.962 285.947 82.825 289.762 77.354C290.356 76.502 290.905 75.636 291.438 74.765C295.321 76.619 299.296 78.229 303.517 79.647C311.912 82.466 320.301 85.126 328.04 89.504C334.826 93.343 340.816 96.209 348.52 97.8C356.421 99.432 364.51 99.998 372.445 101.474C375.189 101.985 377.931 102.599 380.668 103.264C373.464 112.243 366.956 121.521 361.065 131.583Z" fill="#A0A8AC"/>
</svg>
