<svg width="969" height="467" viewBox="0 0 969 467" fill="none" xmlns="http://www.w3.org/2000/svg">
<path d="M781.635 135.423C780.088 139.124 777.622 141.976 774.823 144.779C774.385 145.215 775.302 145.46 775.635 145.126C778.489 142.269 780.989 139.35 782.565 135.585C782.787 135.05 781.816 134.987 781.635 135.423Z" fill="#A1A9AC"/>
<path d="M756.858 118.128C755.145 122.299 752.854 126.272 749.261 129.095C748.88 129.396 749.162 130.274 749.655 129.887C753.366 126.97 755.751 122.831 757.52 118.522C757.737 117.996 757.106 117.521 756.858 118.128Z" fill="#A1A9AC"/>
<path d="M955.317 424.679C950.929 427.976 945.429 428.879 940.714 431.55C940.145 431.873 940.849 432.381 941.296 432.128C946.017 429.454 951.503 428.561 955.899 425.257C956.422 424.865 955.735 424.364 955.317 424.679Z" fill="#A1A9AC"/>
<path d="M94.875 5.30391C87.695 8.26591 81.836 11.4279 76.672 17.2599C73.494 20.8469 70.3851 24.2109 66.1761 26.6089C62.3321 28.7999 57.937 29.9879 53.694 31.1289C45.908 33.2219 38.5101 35.3399 31.0201 38.3729C21.1781 42.3579 11.3571 46.1109 0.567051 45.7499C0.0830506 45.7329 -0.298977 46.5789 0.326023 46.5999C18.081 47.1949 33.889 36.8669 50.704 32.7079C57.491 31.0299 64.3061 29.1539 70.0461 25.0119C72.827 23.0059 75.0851 20.2329 77.3211 17.6729C81.1041 13.3459 85.214 10.5799 90.382 8.12891C97.208 4.89091 104.377 2.19991 111.726 0.00390625H109.338C104.411 1.59091 99.571 3.36591 94.875 5.30391Z" fill="#A1A9AC"/>
<path d="M319.453 42.833C319.363 45.395 316.851 54.377 319.877 56.095C323.928 58.396 328.652 59.811 333.002 61.435C337.547 63.131 341.049 63.694 345.742 61.817C350.804 59.792 354.554 57.655 360.222 57.194C364.814 56.82 369.441 56.865 374.043 56.863C374.613 56.863 374.793 56.097 374.14 56.097C366.91 56.1 358.853 55.451 351.976 58.015C347.179 59.805 342.525 63.89 337.043 62.018C334.92 61.293 332.824 60.4819 330.728 59.687C328.183 58.722 325.648 57.728 323.138 56.678C319.607 55.201 319.582 52.76 319.826 49.059C320.24 42.689 320.988 37.347 317.847 31.471C315.898 27.821 313.629 24.584 312.248 20.618C311.316 17.943 310.013 15.467 308.291 13.219C304.27 7.97095 297.759 4.21895 292.293 0.688953C291.938 0.458953 291.572 0.230953 291.213 0.00195312H289.647C292.406 1.75195 295.072 3.55795 297.626 5.34695C304.212 9.95895 309.065 14.496 311.759 22.235C314.344 29.661 319.746 34.387 319.453 42.833Z" fill="#A1A9AC"/>
<path d="M968.823 232.065V231.674C944.259 229.397 919.621 227.89 894.973 227.02C895.144 226.578 895.312 226.135 895.485 225.694C896.151 223.994 896.84 222.304 897.536 220.618C904.195 220.808 910.848 221.066 917.478 221.666C932.624 223.038 947.44 225.045 962.677 225.252C964.723 225.279 966.772 225.333 968.823 225.396V224.767C958.85 224.471 948.874 224.37 938.933 223.347C925.145 221.929 911.592 220.604 897.784 220.019C898.251 218.891 898.72 217.763 899.191 216.637C913.226 217.341 927.272 217.831 941.321 218.122C950.493 218.312 959.663 218.262 968.823 218.472V217.534C968.739 217.533 968.656 217.529 968.572 217.528C951.73 217.428 934.902 217.197 918.07 216.589C911.905 216.366 905.692 216.213 899.481 215.947C902.363 209.075 905.25 202.214 907.44 195.06C911.139 182.972 916.206 170.841 919.444 158.415C924.334 159.014 929.193 159.277 934.237 159.011C945.77 158.405 957.297 158.033 968.823 157.796V156.817C960.648 156.997 952.475 157.267 944.304 157.668C936.798 158.036 929.327 158.762 921.831 157.957C921.095 157.878 920.361 157.781 919.628 157.683C921.334 150.981 922.5 144.193 922.597 137.277C922.604 136.799 921.628 136.627 921.619 137.164C921.521 144.117 920.316 150.879 918.574 157.541C912.103 156.614 905.732 155.148 899.178 154.74C884.9 153.848 872.236 145.174 859.777 139.019C854.174 136.252 848.367 134.304 842.518 132.165C840.106 131.282 837.723 130.324 835.351 129.337C836.218 128.218 837.081 127.097 837.914 125.95C840.466 122.437 843.015 118.923 845.54 115.393C849.185 116.284 853.296 119.074 856.778 116.466C858.091 115.482 859.034 113.613 859.825 112.238C861.696 108.984 863.135 105.544 865.11 102.315C869.153 95.718 872.368 88.709 876.358 82.103C880.059 75.979 883.229 69.553 886.069 62.992C888.198 58.074 889.899 53.006 891.628 47.945C892.201 48.063 892.773 48.186 893.348 48.293C908.147 51.042 923.444 49.412 938.178 47.122C948.415 45.531 958.575 43.499 968.822 42.013V41.077C968.482 41.123 968.138 41.161 967.8 41.21C952.36 43.44 937.132 46.91 921.571 48.276C913.522 48.983 905.433 48.898 897.413 47.933C895.573 47.711 893.755 47.392 891.944 47.025C892.615 45.067 893.294 43.111 894.007 41.167C896.738 33.724 899.798 26.404 902.578 18.978C904.98 12.564 907.199 6.21 909.664 0.00100005H908.425C907.545 2.211 906.699 4.44 905.911 6.701C901.216 20.174 895.725 33.364 891.101 46.856C888.124 46.225 885.175 45.46 882.224 44.702C887.59 29.684 893.099 14.442 900.031 0H899.168C892.291 14.401 886.819 29.602 881.492 44.517C878.791 43.827 876.086 43.155 873.35 42.62C860.304 40.066 846.945 39.746 833.685 39.92C833.594 39.867 833.498 39.859 833.415 39.923C832.467 39.936 831.519 39.951 830.571 39.968C815.003 40.25 799.45 40.667 783.876 40.616C775.605 40.589 767.358 40.178 759.165 39.012C751.186 37.876 743.812 35.079 736.161 32.688C729.853 30.718 722.79 30.183 716.712 27.78C714.021 26.716 711.411 25.471 708.71 24.504C710.831 20.421 713.763 16.524 715.969 12.78C718.384 8.684 720.495 4.382 722.478 0H721.068C720.629 1.048 720.191 2.097 719.764 3.151C716.79 10.503 711.333 17.031 707.817 24.199C706.264 23.686 704.677 23.273 703.018 23.066C698.867 22.546 695.497 25.608 692.758 29.15C689.336 28.187 685.931 27.14 682.553 25.954C682.004 25.761 681.917 26.721 682.363 26.877C685.601 28.015 688.865 29.028 692.144 29.965C690.594 32.076 689.257 34.272 688.104 35.927C687.578 36.682 687.033 37.42 686.494 38.164C686.383 38.237 686.313 38.342 686.29 38.447C682.119 44.171 677.57 49.573 672.804 54.798C672.356 54.364 671.918 53.923 671.448 53.503C664.176 47.019 655.055 42.77 648.02 36.036C642.379 30.638 634.946 27.647 627.957 24.344C631.624 22.82 635.276 21.252 638.906 19.631C651.937 13.811 665.148 8.774 678.328 3.319C680.811 2.291 683.247 1.168 685.66 0.00100005H683.105C677.959 2.441 672.708 4.705 667.283 6.743C653.569 11.895 640.427 18.196 626.936 23.858C626.616 23.704 626.293 23.549 625.975 23.393C625.491 23.154 625.134 24.076 625.561 24.286C625.616 24.313 625.672 24.339 625.727 24.366C625.289 24.548 624.854 24.736 624.415 24.917C609.796 30.936 594.884 36.22 579.977 41.473C565.087 46.721 550.34 52.493 535.381 57.515C525.063 60.981 514.371 62.98 503.578 64.121C497.896 61.369 492.29 58.464 486.805 55.312C474.096 48.01 460.539 42.874 446.826 37.809C440.394 35.433 433.99 32.995 427.701 30.264C420.594 27.18 414.068 23.178 407.232 19.576C400.699 16.132 393.878 13.248 387.132 10.253C379.919 7.049 372.273 4.595 365.16 1.274C364.325 0.884 363.517 0.453 362.724 0.00200003H361.018C363.177 1.307 365.378 2.534 367.791 3.34C375.407 5.884 382.575 9.292 389.907 12.537C403.653 18.621 416.428 26.543 430.247 32.404C443.522 38.033 457.315 42.335 470.538 48.101C481.35 52.816 491.517 58.862 502.001 64.287C498.202 64.659 494.392 64.929 490.583 65.121C489.349 65.183 488.113 65.224 486.878 65.266C483.412 63.74 479.939 62.229 476.459 60.733C448.135 48.559 419.709 36.58 392.702 21.626C379.417 14.269 366.274 6.886 352.861 0.00200003H351.323C370.124 9.685 388.251 20.535 407.123 30.211C432.511 43.229 458.965 53.983 485.124 65.327C473.48 65.649 461.835 65.304 450.231 66.592C427.849 69.074 404.825 75.821 385.319 87.213C373.381 94.186 360.298 97.333 346.958 100.463C333.797 103.55 320.68 108.254 307.047 108.491C306.396 108.504 306.56 109.269 307.131 109.259C321.381 109.01 335.16 104.061 348.924 100.832C362.51 97.645 375.09 94.022 387.291 87.097C388.797 86.243 390.323 85.414 391.866 84.612C394.102 87.6 396.323 90.6 398.559 93.589C398.841 93.965 399.782 93.705 399.436 93.243C397.181 90.233 394.946 87.21 392.693 84.2C415.573 72.486 442.269 66.459 467.755 66.312C474.063 66.275 480.363 66.212 486.655 65.994C488.106 66.625 489.557 67.257 491.007 67.892C505.05 74.051 518.964 80.504 532.585 87.554C545.958 94.475 559.815 100.44 573.147 107.483C586.981 114.791 600.589 122.647 613.466 131.547C624.536 139.2 635.688 146.748 647.321 153.527C672.061 167.944 699.62 175.982 726.329 185.884C754.397 196.291 782.446 206.845 811.319 214.85C838.306 222.334 865.689 226.796 893.646 227.59C890.197 236.403 887.146 245.358 882.976 253.881C882.758 254.321 883.705 254.648 883.924 254.194C888.138 245.584 891.293 236.548 894.736 227.618C895.596 227.639 896.456 227.669 897.318 227.683C910.808 227.91 924.283 228.854 937.732 229.868C948.038 230.643 958.486 231.11 968.823 232.065ZM881.891 45.64C884.846 46.388 887.801 47.139 890.784 47.776C890.771 47.813 890.759 47.849 890.746 47.885C888.262 55.209 885.616 62.353 882.301 69.354C879.252 75.792 874.94 81.637 872.004 88.076C869.067 94.514 865.301 100.557 861.567 106.553C859.805 109.381 859.005 112.532 856.918 115.233C854.38 118.518 849.204 115.455 846.106 114.605C851.549 106.98 856.862 99.264 861.753 91.263C869.027 79.366 874.253 66.875 878.97 53.792C879.946 51.088 880.917 48.367 881.891 45.64ZM833.898 40.863C838.629 40.807 843.361 40.808 848.093 40.949C855.239 41.162 862.357 41.825 869.419 42.92C873.39 43.535 877.277 44.479 881.158 45.456C880.39 47.606 879.623 49.751 878.856 51.885C873.766 66.04 868.143 79.36 860.268 92.239C855.572 99.919 850.435 107.319 845.18 114.633C845.06 114.73 844.966 114.856 844.935 114.977C841.753 119.4 838.532 123.792 835.338 128.198C835.127 128.489 834.908 128.774 834.694 129.062C829.909 127.052 825.186 124.886 820.504 122.659C806.611 116.051 793.156 108.474 779.238 101.958C774.154 99.578 769.332 97.111 765 93.538C761.93 91.004 758.576 87.493 754.473 86.823C748.711 85.881 743.865 98.809 741.795 102.402C738.602 107.951 732.129 110.699 729.307 116.489C729.288 116.527 729.287 116.556 729.278 116.59C720.72 110.216 712.5 103.388 704.753 96.263C701.232 93.024 697.851 89.639 694.56 86.168C693.795 85.362 693.091 84.517 692.418 83.652C694.294 74.134 699.398 65.933 703.593 57.316C707.104 50.105 708.176 42.133 711.438 34.857C715.258 35.766 719.084 36.679 722.903 37.662C729.811 39.439 736.647 41.469 743.591 43.101C751.335 44.923 759.083 45.454 766.958 46.319C774.151 47.111 781.259 48.596 788.405 49.715C795.921 50.891 803.288 50.962 810.874 50.962C814.739 50.962 818.604 50.962 822.47 50.962C825.028 50.962 827.167 51.9 829.763 51.437C831.725 51.086 833.299 42.646 833.898 40.863ZM804.871 145.669C802.254 150 799.442 154.284 795.958 157.975C792.516 156.11 789.128 154.14 785.774 152.106C785.817 152.068 785.857 152.025 785.89 151.969C788.341 147.882 790.786 143.781 793.62 139.944C794.011 139.415 793.237 139.205 792.907 139.652C790.071 143.489 787.628 147.59 785.177 151.677C785.165 151.697 785.164 151.713 785.155 151.732C784.155 151.122 783.155 150.508 782.159 149.89C775.499 145.758 768.808 141.797 762.076 137.851C764.574 133.831 767.494 130.11 770.337 126.334C770.68 125.881 770.204 125.249 769.809 125.774C766.921 129.61 763.97 133.394 761.433 137.474C759.523 136.355 757.611 135.238 755.695 134.117C750.279 130.949 744.935 127.561 739.689 123.994C740.742 119.494 744.89 117.071 747.264 113.318C747.615 112.765 746.777 112.583 746.498 113.022C744.12 116.782 740.218 119.151 738.915 123.471C735.843 121.367 732.808 119.199 729.811 116.976C729.927 116.933 730.033 116.853 730.094 116.727C732.592 111.602 738.072 109.243 741.26 104.702C744.019 100.776 745.973 96.32 748.609 92.305C750.671 89.166 753.314 86.745 757.088 88.751C759.059 89.798 760.807 91.34 762.523 92.748C766.691 96.166 770.736 98.921 775.615 101.299C789.318 107.976 802.83 115.075 816.537 121.779C822.33 124.612 828.189 127.309 834.13 129.821C825.781 140.904 815.521 150.453 807.778 162C807.477 162.448 807.172 162.899 806.865 163.352C803.406 161.824 800.023 160.15 796.699 158.369C800.216 154.636 803.062 150.331 805.708 145.953C806.031 145.418 805.123 145.253 804.871 145.669ZM708.327 25.278C710.704 26.136 713.022 27.286 715.064 28.165C720.523 30.515 726.74 31.014 732.472 32.619C740.039 34.738 747.3 37.774 755.025 39.3C770.091 42.276 785.672 41.516 800.939 41.49C811.626 41.471 822.309 41.02 832.993 40.875C832.524 42.117 832.146 43.376 831.776 44.66C831.338 46.188 830.876 47.699 830.27 49.171C829.237 51.686 825.39 50.473 823.626 50.108C820.833 49.531 817.577 49.976 814.733 49.976C810.868 49.976 807.003 49.976 803.137 49.976C789.711 49.976 776.637 46.213 763.313 44.962C749.981 43.71 737.532 40.594 724.625 37.13C718.409 35.462 712.166 34.028 705.942 32.533C706.099 31.786 706.254 31.052 706.421 30.36C706.84 28.633 707.511 26.941 708.327 25.278ZM696.381 26.596C699.513 23.398 703.527 23.697 707.452 24.976C706.516 26.98 705.733 29.035 705.217 31.177C705.132 31.53 705.049 31.907 704.964 32.299C701.24 31.4 697.525 30.467 693.827 29.446C694.641 28.464 695.486 27.509 696.381 26.596ZM693.175 30.255C697.019 31.333 700.884 32.311 704.761 33.252C703.817 37.669 702.456 43.273 696.867 41.68C693.618 40.755 690.832 38.68 687.47 38.169C689.31 35.489 691.145 32.793 693.175 30.255ZM686.554 39.497C686.701 39.285 686.848 39.071 686.994 38.858C691.762 39.586 699.348 46.261 703.156 40.676C704.527 38.665 705.187 36.026 705.736 33.488C707.364 33.881 708.994 34.272 710.624 34.66C708.756 38.782 707.645 43.096 706.457 47.454C705.087 52.481 702.863 57.075 700.49 61.697C696.972 68.543 693.423 75.218 691.74 82.752C689.592 79.822 687.834 76.635 686.048 73.425C682.345 66.771 678.547 60.465 673.154 55.135C677.903 50.175 682.612 45.181 686.554 39.497ZM509.242 64.268C523.43 62.42 536.515 58.018 549.869 53.091C575.479 43.643 601.49 35.259 626.727 24.85C630.185 26.521 633.686 28.106 637.116 29.836C641.545 32.069 644.897 35.006 648.754 38.031C656.01 43.724 663.989 48.427 671.034 54.398C671.437 54.74 671.825 55.094 672.21 55.449C669.674 58.212 667.087 60.933 664.46 63.625C657.354 70.909 652.721 83.938 642.903 87.823C642.456 88 642.413 88.931 642.993 88.702C651.931 85.165 656.596 73.964 662.347 66.97C665.559 63.063 669.059 59.414 672.555 55.763C679.689 62.508 683.786 71.537 688.748 79.897C689.576 81.291 690.491 82.632 691.472 83.93C691.463 83.972 691.451 84.013 691.444 84.055C691.395 84.316 691.58 84.389 691.796 84.35C696.139 89.975 701.71 94.789 706.915 99.505C716.808 108.467 727.528 116.822 738.683 124.425C738.648 124.691 738.867 124.763 739.106 124.709C744.926 128.662 750.855 132.423 756.859 135.934C765.742 141.129 774.531 146.309 783.287 151.742C787.252 154.202 791.269 156.572 795.367 158.789C795.396 158.984 795.644 159.104 795.886 159.07C799.293 160.9 802.762 162.613 806.301 164.185C800.508 172.697 794.085 181.808 792.88 192.177C792.806 192.826 793.584 192.781 793.651 192.211C794.809 182.252 800.816 172.832 806.86 164.429C807.444 164.686 808.026 164.949 808.614 165.197C809.061 165.385 809.304 164.418 808.843 164.222C808.375 164.025 807.916 163.813 807.451 163.611C808.706 161.88 809.957 160.188 811.158 158.55C818.459 148.598 827.156 139.811 834.777 130.101C834.937 130.168 835.095 130.239 835.256 130.306C842.178 133.201 849.385 135.289 856.227 138.372C868.374 143.845 879.483 151.49 892.596 154.616C899.184 156.186 906.158 156.256 912.84 157.428C914.702 157.755 916.545 158.042 918.382 158.285C915.083 170.601 909.978 182.577 906.491 194.746C904.415 201.994 901.466 208.961 898.501 215.902C888.966 215.474 879.439 214.755 870.1 213.069C855.227 210.382 840.87 205.363 826.352 201.278C811.233 197.024 795.823 193.882 780.694 189.618C765.301 185.278 750.053 180.441 734.833 175.544C719.7 170.676 705.36 165.271 691.364 157.673C678.245 150.551 665.803 142.261 652.741 135.045C638.729 127.304 624.255 120.427 609.796 113.569C596.653 107.335 583.999 100.378 571.058 93.75C557.405 86.758 542.901 81.271 528.761 75.349C520.739 71.989 512.764 68.521 504.928 64.768C506.366 64.615 507.804 64.455 509.242 64.268ZM893.893 226.983C892.282 226.927 890.669 226.864 889.057 226.814C828.184 224.918 771.048 201.476 714.671 180.758C700.149 175.421 685.274 170.828 671.059 164.7C658.61 159.333 646.825 152.573 635.405 145.296C623.157 137.49 611.468 128.86 599.086 121.263C586.108 113.303 572.645 106.147 559.034 99.335C535.743 87.677 512.217 76.462 488.389 65.938C493.36 65.741 498.325 65.427 503.282 64.939C505.872 66.262 508.475 67.555 511.124 68.762C525.313 75.228 539.862 80.871 554.147 87.119C567.628 93.015 580.339 99.994 593.358 106.824C607.065 114.015 621.411 120.046 635.257 126.985C648.974 133.858 662.069 141.646 675.226 149.511C688.038 157.169 701.079 164.474 715.003 169.918C729.054 175.411 743.825 179.477 758.232 183.929C788.105 193.162 818.566 200.109 848.596 208.766C863.635 213.101 878.395 215.535 894.008 216.381C895.407 216.457 896.807 216.518 898.206 216.589C897.724 217.72 897.241 218.85 896.762 219.981C895.754 219.941 894.749 219.894 893.738 219.863C877.732 219.365 861.725 218.705 845.93 215.887C830.168 213.076 814.826 207.589 799.635 202.643C784.131 197.595 768.699 192.327 753.193 187.29C739.443 182.825 725.404 179.389 711.75 174.588C702.994 171.509 694.875 167.276 686.336 163.766C678.476 160.536 670.44 157.785 662.82 153.987C655.591 150.385 649.477 145.439 643.264 140.361C638.301 136.305 633.057 132.524 626.785 130.859C626.238 130.713 625.832 131.391 626.468 131.56C638.55 134.768 647.414 145.711 657.845 152.152C663.166 155.439 669.039 157.802 674.836 160.098C682.242 163.032 689.408 166.242 696.677 169.48C709.482 175.185 722.972 179.262 736.406 183.176C751.303 187.517 766.014 192.297 780.74 197.204C796.162 202.344 811.598 207.435 827.182 212.071C841.645 216.375 856.336 218.604 871.373 219.639C879.734 220.215 888.124 220.358 896.507 220.588C896.064 221.636 895.624 222.684 895.193 223.734C894.751 224.815 894.321 225.898 893.893 226.983Z" fill="#A1A9AC"/>
<path d="M968.823 464.56C968.25 463.506 967.675 462.454 967.126 461.391C960.702 448.956 959.475 435.573 956.587 422.105C955.378 416.457 953.561 411.016 950.915 405.876C948.353 400.892 944.647 396.701 942.702 391.381C940.649 385.773 942.053 379.723 940.659 373.985C939.056 367.393 935.142 362.221 934.653 355.229C934.417 351.865 934.463 348.628 934.142 345.414C935.735 343.572 936.824 341.547 938.22 339.549C940.19 336.734 944.054 335.073 947.093 333.804C952.761 331.439 959.358 330.223 964.399 326.639C965.567 325.809 966.2 323.812 966.788 322.615C967.341 321.488 968.04 320.55 968.823 319.714V318.148C968.6 318.367 968.382 318.591 968.183 318.836C966.15 321.34 965.415 324.732 962.683 326.676C959.394 329.015 954.767 329.601 951.033 331.015C949.839 331.467 948.657 331.983 947.481 332.511C947.281 328.778 945.886 325.419 944.936 321.83C944.806 321.344 943.821 321.49 943.946 321.965C944.921 325.644 946.372 329.1 946.512 332.947C945.85 333.247 945.189 333.546 944.529 333.835C939.143 336.195 937.456 340.12 933.997 344.192C933.755 342.367 933.378 340.545 932.715 338.708C930.387 332.243 927.428 326.011 924.803 319.66C914.014 293.558 929.654 268.83 932.039 242.776C932.088 242.26 931.118 242.496 931.075 242.969C928.806 267.717 913.833 291.866 922.637 316.835C924.748 322.826 927.639 328.528 929.971 334.435C932.797 341.59 933.523 347.802 933.686 355.423C933.809 361.082 936.357 366.097 938.828 371.05C941.709 376.822 939.92 384.26 941.369 390.402C942.518 395.273 945.765 399.404 948.39 403.549C952.347 409.792 954.45 416.82 955.987 423.991C958.799 437.123 960.144 449.574 966.208 461.782C967.033 463.444 967.917 465.075 968.825 466.691V464.56H968.823Z" fill="#A1A9AC"/>
</svg>
