<svg width="740" height="465" viewBox="0 0 740 465" fill="none" xmlns="http://www.w3.org/2000/svg">
<path d="M24.824 464.053H27.61C24.17 462.675 20.622 461.584 17.001 460.916C23.418 450.837 30.896 441.139 39.023 432.39C50.223 420.333 66.902 413.241 82.194 408.069C97.742 402.81 113.197 397.77 129.327 394.442C142.328 391.76 155.122 387.514 168.336 386.331C166.101 389.535 164.284 392.97 163.238 396.815C160.23 407.877 159.405 419.623 157.988 430.963C156.614 441.964 155.352 452.976 154.967 464.053H155.725C155.84 460.728 156.028 457.408 156.283 454.094C162.751 455.514 169.254 456.766 175.708 458.249C181.292 459.531 186.561 461.848 191.852 464.053H194.292C191.975 463.12 189.679 462.137 187.388 461.188C177.45 457.075 166.95 455.452 156.492 453.155C156.448 453.145 156.405 453.152 156.363 453.158C157.005 445.143 157.971 437.153 158.969 429.167C160.411 417.624 161.01 405.21 164.905 394.165C165.907 391.323 167.343 388.722 169.042 386.269C172.035 386.027 175.05 385.941 178.095 386.074C178.573 386.096 178.884 385.15 178.357 385.126C175.465 384.999 172.594 385.08 169.737 385.293C178.211 373.723 192.341 365.34 194.453 350.535C195.826 358.033 198.627 365.066 201.364 372.183C205.031 381.712 206.566 390.925 207.334 401.06C208.892 421.626 210.512 441.632 216.27 461.533C216.512 462.371 216.731 463.215 216.966 464.054H218.009C215.188 453.613 212.491 443.359 211.047 432.608C209.715 422.68 209.152 412.662 208.433 402.676C207.771 393.506 206.889 384.893 203.896 376.161C200.694 366.821 196.44 358.004 195.042 348.129C195.014 347.935 194.868 347.847 194.698 347.836C194.976 342.237 194.414 336.624 193.15 331.167C193.331 330.877 193.281 330.396 192.962 330.387C192.33 327.808 191.562 325.262 190.629 322.779C189.169 318.887 186.995 315.457 184.427 312.219C182.954 310.363 181.717 308.503 180.675 306.586C182.002 306.48 183.33 306.379 184.657 306.271C193.74 305.527 201.913 306.621 210.584 309.338C217.126 311.387 223.527 313.881 230.015 316.096C236.228 318.215 242.477 320.148 248.302 323.23C261.558 330.244 266.601 344.535 270.948 357.928C274.751 369.648 279.458 380.172 286.556 390.328C290.388 395.807 294.724 400.89 298.847 406.145C303.619 412.231 307.56 418.961 311.642 425.516C316.067 432.621 320.929 439.351 325.642 446.202C316.355 452.604 306.963 459.032 297.001 464.054H298.641C304.159 461.056 309.447 457.594 314.643 454.09C318.384 451.566 322.154 449.086 325.932 446.622C328.939 451.002 331.88 455.435 334.599 460.056C335.396 461.41 336.229 462.739 337.079 464.054H338.557C336.077 460.349 333.687 456.555 331.369 452.639C329.993 450.315 328.507 448.109 326.971 445.948C329.359 444.394 331.746 442.84 334.141 441.297C338.805 449.003 343.589 456.632 348.695 464.055H349.767C347.97 461.587 346.224 459.042 344.506 456.414C341.164 451.301 337.953 446.105 334.791 440.878C340.722 437.057 346.663 433.25 352.573 429.392C358.861 425.288 365.015 420.948 371.094 416.539C375.529 413.323 380.528 410.484 384.195 406.35C388.478 406.385 392.728 406.662 396.97 407.028C397.284 409.939 397.817 412.857 398.506 415.812C399.467 419.942 400.626 424.021 401.565 428.159C402.58 432.63 404.024 437.81 400.489 441.525C396.522 445.695 388.253 445.714 383.024 447.183C379.738 448.107 376.92 450.06 373.766 451.329C369.471 453.056 364.756 453.191 360.193 453.228C359.565 453.234 359.651 453.98 360.264 453.974C364.157 453.943 367.956 453.738 371.742 452.792C375.876 451.759 379.329 449.148 383.356 447.878C388.771 446.167 396.042 446.404 400.571 442.556C406.227 437.749 402.953 429.439 401.441 423.369C400.067 417.854 398.724 412.514 398.086 407.121C402.718 407.537 407.344 408.045 411.996 408.451C420.53 409.195 423.96 415.121 427.867 422.139C432.059 429.672 436.078 436.737 441.945 443.106C448.385 450.102 457.799 453.344 463.805 460.869C464.66 461.94 465.553 462.994 466.43 464.056H468.293C466.123 461.64 463.921 459.258 461.637 456.967C458.529 453.852 454.608 451.541 450.975 449.104C446.665 446.213 442.965 442.93 439.536 439.035C433.307 431.961 430.084 422.84 424.82 415.121C421.816 410.715 418.63 408.35 413.331 407.73C408.23 407.132 403.11 406.571 397.98 406.162C397.509 401.554 397.589 396.895 398.639 392.048C410.754 390.396 421.72 385.76 433.459 382.338C438.674 380.817 444.795 379.088 450.242 380.332C455.754 381.59 460.574 386.342 465.489 388.971C470.769 391.795 475.119 394.692 479.745 398.508C483.606 401.692 487.51 404.012 492.254 405.526C501.316 408.413 512.316 409.922 519.068 417.254C522.122 420.567 522.951 425.823 524.55 429.932C525.968 433.574 528.443 436.133 531.658 438.264C539.846 443.684 550.614 446.387 560.46 445.676C565.229 445.33 569.872 443.688 574.474 442.514C581.179 440.805 587.868 441.024 594.724 441.242C601.636 441.459 608.538 441.961 615.434 442.475C615.551 442.484 615.668 442.497 615.786 442.506C621.188 447.34 626.326 452.536 632.224 456.812C632.733 457.181 633.231 457.551 633.726 457.917C631.428 459.776 629.313 461.82 627.42 464.058H628.464C630.24 461.98 632.212 460.096 634.341 458.37C636.686 460.078 639.029 461.562 642.108 461.755C647.834 462.109 652.558 457.929 657.302 455.412C663.374 452.189 669.271 449.46 674.882 445.388C680.146 441.568 684.878 437.056 689.38 432.38C697.548 423.896 704.78 413.989 713.445 405.868C723.905 407.413 735.27 417.753 738.74 425.686C738.932 426.125 739.921 426 739.712 425.518C735.408 415.683 724.448 407.706 713.845 405.488C715.994 403.499 718.231 401.616 720.595 399.899C721.062 399.558 720.24 399.034 719.86 399.308C717.343 401.136 715 403.157 712.766 405.297C712.38 405.231 711.993 405.152 711.608 405.102C699.087 403.456 690.864 420.397 683.942 428.104C674.615 438.487 659.543 443.057 647.421 449.26C642.754 451.648 638.22 454.355 634.172 457.563C631.949 455.938 629.902 454.013 628.089 452.445C624.421 449.271 620.898 445.883 617.271 442.637C623.036 443.188 628.838 444.166 634.603 443.353C638.701 442.776 643.07 441.204 647.013 439.915C650.604 438.741 654.388 436.659 658.13 436.069C658.587 435.995 658.882 435.056 658.321 435.145C655.31 435.62 652.269 437.198 649.41 438.206C643.814 440.175 637.604 442.311 631.696 442.77C626.789 443.151 621.485 442.434 616.334 441.802C611.198 437.273 605.807 433.096 599.448 430.289C598.933 430.061 598.402 430.651 599.005 430.918C604.984 433.558 610.01 437.418 614.784 441.617C613.147 441.424 611.528 441.248 609.953 441.136C601.753 440.552 593.544 440.175 585.321 440.145C579.683 440.124 574.292 441.649 568.899 443.108C561.282 445.169 554.84 444.792 547.147 443.425C540.744 442.29 535.283 439.837 530.088 435.936C525.631 432.585 524.522 426.88 522.693 421.948C519.282 412.743 509.825 409.694 501.151 407.106C495.825 405.516 490.323 404.382 485.507 401.502C479.466 397.885 474.78 392.539 468.513 389.199C463.343 386.442 458.456 383.065 453.218 380.428C449.24 378.428 444.736 378.906 440.505 379.748C427.351 382.375 415.201 388.984 401.919 390.918C400.776 391.084 399.59 391.18 398.382 391.248C398.27 391.227 398.152 391.232 398.041 391.267C392.579 391.549 386.687 391.313 382.105 394.211C381.924 394.324 381.715 394.617 381.818 394.846C383.176 397.869 386.231 402.229 384.006 405.453C380.992 409.82 375.082 412.682 370.855 415.756C361.186 422.787 351.237 429.377 341.148 435.783C338.888 437.219 336.637 438.705 334.389 440.219C329.729 432.5 325.172 424.717 320.478 417.024C313.013 404.79 304.758 393.274 296.276 381.735C287.592 369.923 280.364 357.667 273.496 344.749C268.176 334.741 262.315 324.485 253.862 316.751C234.64 299.167 207.249 295.351 182.23 294.372C180.448 294.302 178.663 294.247 176.876 294.201C175.5 282.387 176.812 269.65 179.255 258.096C181.742 246.341 185.477 235.575 185.673 223.399C192.192 221.534 198.541 218.824 204.958 215.961C217.641 210.303 229.732 203.324 240.671 194.754C248.622 188.524 254.137 182.568 256.649 172.613C257.347 169.846 257.857 167.041 258.276 164.214C265.464 157.302 272.13 149.836 278.808 142.445C280.402 140.68 282.036 138.955 283.682 137.242C283.778 137.346 283.881 137.443 283.976 137.548C284.679 138.322 286.193 141.526 287.58 141.451C290.036 141.32 292.212 138.927 294.009 137.472C297.613 134.556 301.323 131.915 304.71 128.72C311.524 122.29 316.954 114.595 323.436 107.859C329.789 101.255 336.432 94.9194 342.177 87.7554C343.899 85.6074 344.243 83.5914 346.904 82.0974C348.179 81.3804 349.338 80.6464 350.545 79.8184C354.482 77.1094 358.064 73.8784 361.692 70.7824C368.888 64.6444 377.629 59.6344 385.656 54.5954C388.67 52.7024 392.008 51.7454 395.106 50.0754C396.191 49.4894 397.712 48.0714 397.585 46.6494C397.296 43.4424 395.669 40.5714 394.033 37.8214C398.745 34.8144 403.485 31.8414 408.335 29.0324C408.753 28.7914 408.655 27.8644 408.114 28.1764C403.195 31.0254 398.438 34.1274 393.701 37.2624C393.513 36.9474 393.324 36.6314 393.14 36.3184C391.932 34.2634 390.994 32.0534 390.148 29.7984C394.015 27.6464 397.964 25.6694 401.848 23.8164C411.111 19.3914 421.836 16.2324 429.439 9.04541C429.784 8.71941 429.383 7.8054 429.006 8.1604C420.791 15.9284 409.068 19.1314 399.114 24.0474C395.979 25.5964 392.878 27.2314 389.832 28.9594C388.939 26.5064 388.133 24.0144 387.203 21.6174C387.03 21.1724 386.057 21.3654 386.25 21.8654C387.221 24.3664 388.126 26.8904 389.056 29.4064C381.805 33.5804 374.922 38.3614 368.932 44.2304C361.954 51.0684 353.249 55.3654 344.903 60.2214C343.292 59.2034 342.049 57.4734 340.855 55.4264C337.342 49.4054 335.571 42.5384 332.564 36.2784C332.316 35.7624 331.682 36.5104 331.883 36.9304C335.225 43.8874 337.184 51.4794 341.365 58.0334C342.146 59.2574 343.018 60.1424 343.955 60.7794C342.191 61.8194 340.446 62.8864 338.742 64.0174C336.903 53.8924 330.745 44.6354 325.399 36.1484C321.54 30.0214 318.021 23.7184 316.716 16.5134C316.626 16.0224 315.642 16.2014 315.732 16.6944C318.002 29.2424 326.88 38.9514 332.514 50.0374C334.864 54.6634 336.704 59.5844 337.809 64.6564C336.66 65.4414 335.524 66.2484 334.421 67.1034C323.753 75.3744 312.065 81.9154 301.068 89.7164C289.839 97.6814 280.215 108.566 271.142 118.829C263.212 127.8 260.623 138.02 258.941 149.724C258.879 150.16 258.825 150.6 258.768 151.038C252.337 157.481 245.799 163.775 238.532 169.467C227.032 178.475 214.595 186.237 201.982 193.569C189.563 200.791 176.646 204.531 163.138 208.981C159.183 210.285 156.996 214.635 153.143 215.951C147.505 217.875 141.517 218.957 135.69 220.141C135.062 220.268 134.434 220.395 133.806 220.52C133.721 220.537 133.654 220.567 133.597 220.604C131.333 220.318 129.098 219.941 126.944 219.333C119.818 217.318 120.347 211.936 120.866 205.773C121.481 198.482 122.521 191.407 122.643 184.073C122.86 170.974 124.357 157.927 125.936 144.937C127.016 136.058 128.23 126.3 125.628 117.583C123.382 110.061 115.659 108.366 108.657 108.6C98.428 108.936 88.442 113.165 78.141 111.737C73.412 111.079 68.449 108.001 69.105 102.511C69.48 99.3744 72.062 97.1674 73.162 94.3434C74.933 89.7984 77.602 85.4234 77.754 80.4114C78.084 69.4824 69.798 63.3234 64.782 54.5384C62.019 49.7004 61.196 43.9604 58.945 38.8844C56.93 34.3434 52.356 31.2104 48.402 28.4934C44.433 25.7654 40.097 23.3064 35.656 21.4524C29.49 18.8784 23.965 14.9804 18.532 11.1504C12.431 6.85039 6.467 3.12939 0 0.0253906V0.754395C3.143 2.19839 6.194 3.81441 9.102 5.66241C14.551 9.13041 19.661 13.1244 25.059 16.6714C30.375 20.1624 36.229 22.4784 41.788 25.5074C47.107 28.4064 53.415 32.0934 57.041 37.2474C56.931 37.2684 56.832 37.3164 56.77 37.4104C48.105 50.5244 40.747 64.4064 34.221 78.6974C28.712 90.7584 29.152 103.235 27.535 116.063C27.036 120.027 26.503 123.986 25.951 127.943C22.784 123.804 21.327 118.807 19.748 113.244C15.789 99.2984 13.209 84.7934 11.309 70.4374C10.511 64.4084 9.392 58.5114 7.033 52.8824C5.408 48.9954 2.841 45.5004 0.00100005 42.2854V43.6974C4.125 48.7424 6.99 54.2464 8.636 60.7464C10.412 67.7674 10.782 75.1134 12.031 82.2364C13.26 89.2484 14.687 96.2564 16.236 103.205C17.635 109.484 18.798 116.732 21.434 122.611C22.599 125.208 24.054 127.267 25.786 129.099C24.403 138.914 22.871 148.709 21.182 158.475C20.067 164.926 18.912 170.377 14.949 175.734C10.92 181.174 5.491 185.584 0.59 190.203C0.39 190.391 0.199 190.587 0.00199997 190.777V192.32C2.593 189.733 5.21 187.174 7.876 184.667C11.717 181.054 15.351 177.244 18.152 172.755C21.36 167.611 21.74 161.177 22.735 155.343C24.148 147.061 25.696 138.658 26.922 130.24C28.255 131.5 29.734 132.673 31.36 133.871C36.772 137.859 44.092 138.209 47.918 144.42C52.817 152.373 51.545 164.674 50.524 173.482C49.858 179.221 46.88 183.555 44.759 188.795C42.789 193.659 43.75 198.641 44.921 203.557C47.124 212.807 50.779 223.865 58.688 229.797C67.333 236.282 77.682 239.12 83.769 248.721C84.019 249.117 84.987 248.961 84.679 248.477C79.208 239.85 70.509 236.428 62.17 231.256C51.067 224.366 46.659 209.821 44.716 197.571C43.609 190.592 47.977 184.784 50.686 178.768C52.368 175.032 52.01 169.127 52.155 165.116C52.426 157.612 52.508 146.991 46.614 141.387C42.448 137.428 36.756 136.25 31.958 133.303C29.995 132.098 28.396 130.75 27.065 129.28C27.842 123.823 28.476 118.362 28.83 112.924C29.683 99.8504 30.866 87.7584 36.677 75.7954C42.993 62.7904 49.582 50.0834 57.549 37.9954C57.822 38.4264 58.082 38.8644 58.316 39.3154C61.154 44.8014 61.571 51.2784 65.038 56.5084C68.391 61.5674 72.685 65.9714 75.38 71.4474C79.242 79.2914 75.489 86.5474 72.48 93.7834C71.046 97.2304 67.449 100.535 68.271 104.679C69.077 108.745 72.244 110.995 76.023 112.22C84.724 115.04 95.242 111.276 103.911 110.038C109.139 109.292 114.565 109.097 119.47 111.314C125.152 113.886 125.916 120.665 126.235 126.152C126.803 135.962 124.872 145.718 123.849 155.429C122.217 170.917 122.469 186.538 120.509 201.966C119.945 206.409 120.079 210.689 119.948 215.126C119.884 217.306 123.955 218.958 125.438 219.728C130.133 222.169 136.181 221.253 141.248 222.085C148.769 223.319 156.294 224.765 163.873 225.585C171.253 226.383 178.179 225.465 184.913 223.612C184.693 236.248 180.724 247.528 178.143 259.737C175.834 270.647 175.399 282.142 176.035 293.251C176.053 293.561 176.084 293.869 176.109 294.178C171.875 294.079 167.636 294.052 163.409 294.146C156.573 294.295 149.971 296.722 143.586 298.924C129.6 303.752 115.156 307.73 101.427 313.246C87.302 318.924 73.996 327.16 60.333 333.867C56.589 335.705 52.82 337.546 49.027 339.356C48.947 335.837 48.696 332.327 48.552 328.967C48.448 326.551 47.996 324.402 46.936 322.776C52.782 319.452 58.236 315.575 63.037 311.358C67.375 307.546 71.12 303.05 74.63 298.489C76.888 295.552 79.287 292.302 83.433 292.251C85.384 292.226 87.355 293.216 89.256 293.556C100.324 295.531 110.385 288.322 121.329 287.968C121.987 287.948 121.683 287.208 121.125 287.226C109.541 287.599 99.002 295.413 87.313 292.302C78.232 289.888 74.853 297.048 69.518 303.372C63.384 310.643 55.407 317.153 46.535 322.226C45.435 320.861 43.806 319.954 41.44 319.714C37.285 319.294 33.002 320.993 29.055 322.003C23.32 323.47 17.551 324.784 11.724 325.829C7.837 326.527 3.926 327.002 0.005 327.29V327.993C7.285 327.474 14.587 326.329 21.947 324.651C27.562 323.371 40.722 317.322 45.72 322.682C34.324 329.046 21.517 333.036 9.259 333.223C8.646 333.233 8.566 333.979 9.195 333.97C21.795 333.777 34.709 329.584 46.155 323.213C46.492 323.671 46.786 324.191 47.019 324.791C48.351 328.225 47.79 332.473 47.876 336.064C47.907 337.325 47.952 338.585 47.989 339.845C38 344.588 27.83 349.074 17.407 352.541C11.694 354.442 5.882 355.782 0.00400007 356.716V357.535C5.372 356.721 10.71 355.585 16.006 354.026C27.079 350.768 37.654 346.231 48.021 341.18C48.082 343.944 48.056 346.697 47.689 349.424C46.91 349.654 46.134 349.894 45.355 350.118C30.836 354.294 15.916 357.517 1.194 360.898C0.798 360.989 0.401 361.076 0.005 361.166V361.985C13.032 359.284 25.961 355.964 38.833 352.666C41.754 351.918 44.659 351.111 47.552 350.265C47.375 351.359 47.158 352.449 46.845 353.532C46.663 354.163 47.447 354.206 47.606 353.657C47.95 352.467 48.211 351.249 48.419 350.016C58.819 346.934 69.016 343.193 78.85 338.588C92.061 332.4 104.162 324.145 117.454 318.08C126.575 313.919 135.72 311.499 145.17 309.975C151.539 320.787 154.899 332.728 159.024 344.396C158.836 344.473 158.649 344.555 158.46 344.63C144.258 350.318 129.682 356.409 114.915 360.399C89.745 367.198 63.776 373.147 43.237 390.229C42.474 390.864 41.746 391.536 41.007 392.196C39.486 391.708 37.989 391.154 36.535 390.487C34.681 389.635 32.702 388.408 30.696 389.553C21.465 394.826 13.962 403.535 7.058 411.426C4.729 414.087 2.373 416.727 0.00400007 419.354V420.679C1.145 419.396 2.293 418.119 3.421 416.825C10.806 408.353 18.048 399.454 27.367 393.013C29.142 391.784 30.689 389.728 33.123 390.131C34.548 390.365 36.019 391.343 37.311 391.935C38.205 392.344 39.131 392.694 40.071 393.019C22.257 409.43 11.558 433.195 1.431 454.674C0.954 455.685 0.479 456.697 0.00300014 457.71V459.65C7.767 443.071 15.486 426.462 25.768 411.268C30.264 404.624 35.392 398.663 41.172 393.394C45.042 394.604 49.179 395.27 53.068 396.067C53.561 396.168 53.863 395.216 53.381 395.117C49.626 394.346 45.809 393.628 42.122 392.536C46.706 388.47 51.692 384.827 57.102 381.631C69.049 374.572 82.373 370.246 95.664 366.527C108.928 362.814 122.102 359.693 134.914 354.574C143.043 351.326 151.182 348.277 159.231 344.98C160.905 349.682 162.71 354.337 164.904 358.851C165.191 359.441 165.77 358.801 165.545 358.334C163.385 353.891 161.603 349.311 159.951 344.686C164.812 342.685 169.64 340.588 174.411 338.294C180.252 335.486 186.216 332.774 192.586 331.43C193.729 336.664 194.138 342.091 194 347.12C193.544 363.702 178.228 372.829 169.04 385.331C163.565 385.784 158.141 386.757 152.736 387.929C143.314 389.974 133.769 392.136 124.452 394.597C105.151 399.695 86.155 404.679 67.785 412.663C59.288 416.356 51.278 421.077 44.008 426.819C38.243 431.37 33.645 437.183 29.102 442.907C24.705 448.446 20.397 454.147 16.61 460.126C16.389 460.476 15.949 460.612 15.422 460.644C14.867 460.56 14.311 460.487 13.754 460.423C13.649 460.411 13.568 460.447 13.502 460.502C13.169 460.459 12.852 460.419 12.581 460.405C8.461 460.198 4.336 460.139 0.211 460.121C0.165 460.011 0.0950001 459.914 0.00300014 459.854V461.07C4.655 461.086 9.32 461.149 13.966 461.444C17.695 461.901 21.315 462.813 24.824 464.053ZM678.567 433.876C688.333 426.978 693.196 415.335 702.756 408.238C705.598 406.129 708.89 405.433 712.314 405.728C706.139 411.729 700.795 418.634 695.024 424.982C685.549 435.406 675.559 445.108 663.013 451.754C660.435 453.119 657.693 454.125 655.151 455.563C651.651 457.542 648.228 460.086 644.206 460.809C640.855 461.412 637.68 460.001 634.786 457.996C647.528 447.902 665.517 443.094 678.567 433.876ZM385.718 393.448C389.202 392.343 393.229 392.673 396.837 392.274C397.094 392.246 397.347 392.208 397.603 392.176C396.608 396.879 396.454 401.473 396.873 406.074C392.875 405.773 388.872 405.572 384.867 405.533C386.059 403.848 385.821 402.007 385.159 400.095C384.259 397.496 381.708 394.72 385.718 393.448ZM393.216 38.3384C393.977 39.6954 394.736 41.0574 395.412 42.4694C398.261 48.4184 393.69 49.9984 389.474 51.6004C386.412 52.7624 383.568 54.9224 380.86 56.7384C374.186 61.2114 367.1 65.0864 360.955 70.2854C357.753 72.9944 354.585 75.7254 351.248 78.2704C349.265 79.7854 345.946 80.8674 344.343 82.8224C342.156 85.4904 340.523 88.4574 338.189 91.0744C335.181 94.4494 332.147 97.8054 328.981 101.035C323.548 106.576 318.345 112.098 313.354 118.043C307.78 124.679 301.79 130.914 294.632 135.849C293.218 136.822 291.923 138.068 290.559 139.117C287.459 141.496 285.825 138.564 284.295 136.6C291.769 128.87 299.623 121.519 306.795 113.52C310.888 108.958 314.805 104.242 318.986 99.7584C323.57 94.8444 328.715 90.5704 333.159 85.4754C337.933 80.0044 342.913 75.4434 349.099 71.5594C353.673 68.6894 358.632 66.5124 363.091 63.4394C366.477 61.1034 367.189 57.8834 366.942 54.4294C375.964 49.4974 384.554 43.8754 393.216 38.3384ZM373.073 41.6174C377.929 37.2394 383.542 33.5324 389.366 30.2404C389.559 30.7564 389.742 31.2754 389.941 31.7894C390.751 33.8884 391.818 35.8384 392.905 37.7824C389.845 39.8094 386.791 41.8464 383.705 43.8354C378.253 47.3494 372.55 50.3444 366.838 53.3564C366.625 51.6104 366.219 49.8254 365.826 48.0764C368.274 46.0084 370.627 43.8234 373.073 41.6174ZM357.856 53.9084C360.468 52.3264 362.831 50.5514 365.102 48.6714C365.465 50.2424 365.912 51.9814 366.147 53.7214C364.472 54.6054 362.796 55.4924 361.127 56.3964C357.79 58.2064 354.37 59.8704 350.691 60.8494C348.757 61.3664 347.202 61.2664 345.885 60.7284C349.865 58.4364 353.928 56.2874 357.856 53.9084ZM339.013 65.6944C338.989 65.5064 338.951 65.3234 338.923 65.1354C340.135 64.2664 341.373 63.4244 342.659 62.6334C343.395 62.1824 344.144 61.7524 344.889 61.3174C347.979 62.7964 351.691 61.8284 355.457 60.1534C359.149 58.5114 362.739 56.7104 366.264 54.8014C366.44 57.1214 366.113 59.3774 364.535 61.1634C361.759 64.3084 356.79 66.3244 353.178 68.2304C348.382 70.7614 343.932 73.8224 339.8 77.3224C334.992 81.3944 331.266 86.6324 326.891 91.1524C322.855 95.3244 318.501 99.0254 314.634 103.378C310.85 107.638 307.183 111.997 303.311 116.179C297.011 122.983 290.296 129.378 283.82 136.024C283.813 136.016 283.805 136.006 283.799 135.999C282.415 134.472 280.898 133.081 279.402 131.667C284.589 126.646 289.804 121.651 294.924 116.565C299.935 111.589 304.824 106.495 309.545 101.243C314.222 96.0404 318.129 90.0304 322.981 85.0264C326.777 81.1124 331.817 78.6574 335.803 74.9644C338.916 72.0794 339.564 69.8864 339.013 65.6944ZM261.549 140.343C262.862 134.179 264.559 128.44 268.393 123.337C272.722 117.577 278.22 112.4 283.253 107.263C292.65 97.6714 302.216 89.7514 313.611 82.6434C318.651 79.4974 323.696 76.3724 328.551 72.9484C331.811 70.6474 334.847 68.1354 338.032 65.7894C338.477 68.3624 338.417 70.8394 336.631 72.9834C334.508 75.5364 331.387 77.4344 328.717 79.3684C318.439 86.8154 311.469 98.1164 302.791 107.319C295.064 115.509 286.918 123.29 278.823 131.116C277.888 130.221 276.967 129.315 276.108 128.341C275.796 127.987 274.881 128.327 275.265 128.762C276.185 129.807 277.164 130.791 278.157 131.762C275.871 133.974 273.589 136.189 271.324 138.42C267.498 142.189 263.772 146.003 260.023 149.776C260.42 146.61 260.885 143.456 261.549 140.343ZM259.842 151.262C261.08 150.021 262.305 148.768 263.517 147.502C268.472 142.326 273.584 137.305 278.729 132.316C280.224 133.761 281.727 135.197 283.163 136.701C281.146 138.781 279.152 140.885 277.206 143.038C271.109 149.786 264.981 156.483 258.474 162.812C259.001 158.979 259.385 155.114 259.842 151.262ZM159.642 212.128C164.057 208.501 170.853 207.609 176.235 205.904C183.235 203.685 190.012 200.818 196.546 197.476C219.394 185.793 240.373 170.493 258.586 152.495C258.149 156.23 257.85 160.072 257.382 163.877C255.159 166.01 252.891 168.099 250.561 170.128C242.148 177.451 232.828 183.822 223.43 189.804C212.949 196.474 202.047 202.005 190.363 206.249C185.058 208.177 179.585 209.378 174.185 210.976C168.083 212.78 162.367 214.983 156.021 215.465C157.337 214.512 158.461 213.098 159.642 212.128ZM169.122 224.943C162.066 224.867 155.049 223.395 148.123 222.191C144.141 221.498 139.975 221.278 135.869 220.861C140.146 219.991 144.411 219.073 148.645 218.007C150.469 217.545 152.275 217.013 154.06 216.418C154.109 216.492 154.185 216.543 154.303 216.539C160.098 216.371 165.449 214.773 170.923 212.971C176.898 211.004 183.044 209.692 189.007 207.678C200.805 203.696 211.712 198.067 222.276 191.528C231.968 185.526 241.361 178.909 250.101 171.586C252.539 169.543 254.896 167.413 257.204 165.23C256.225 172.472 254.488 179.51 249.79 185.312C245.441 190.683 238.945 195.038 233.338 198.993C227.205 203.321 220.672 207.064 214.014 210.514C200.311 217.613 184.833 225.115 169.122 224.943ZM183.902 295.408C211.315 296.48 241.145 301.842 259.563 324.08C267.855 334.092 273.221 346.187 279.383 357.525C286.06 369.808 294.725 380.912 302.987 392.142C314.354 407.593 323.837 424.256 333.744 440.65C331.38 442.248 329.015 443.872 326.648 445.504C324.346 442.291 321.94 439.17 319.608 435.916C315.01 429.498 311.046 422.639 306.813 415.979C299.279 404.125 289.51 393.953 282.217 381.924C275.384 370.656 272.535 358.069 267.775 345.926C263.257 334.405 256.247 325.813 244.91 320.617C239.765 318.26 234.265 316.686 228.92 314.863C221.825 312.441 214.832 309.725 207.64 307.594C198.54 304.897 189.435 305.066 180.244 305.778C178.588 302.52 177.524 299.059 176.994 295.114C179.31 295.208 181.618 295.319 183.902 295.408ZM124.922 314.167C111.847 318.958 99.9 326.251 87.839 333.087C75.5 340.081 62.126 345.109 48.558 349.17C48.961 346.397 49.07 343.541 49.044 340.681C66.176 332.27 82.762 322.523 100.102 314.883C113.545 308.959 128.229 305.176 142.14 300.479C149.182 298.102 156.003 295.623 163.49 295.127C167.676 294.852 171.942 294.926 176.189 295.084C176.592 298.795 177.56 302.441 179.018 305.873C179.019 305.876 179.021 305.878 179.022 305.881C175.241 306.192 171.445 306.574 167.628 306.872C152.924 308.024 138.877 309.052 124.922 314.167ZM159.739 344.104C155.628 332.504 152.29 320.634 146.023 309.849C151.224 309.041 156.517 308.49 161.955 308.069C167.776 307.618 173.596 307.153 179.415 306.685C181.372 310.657 184.838 313.845 187.175 317.567C189.594 321.421 191.276 325.871 192.37 330.5C180.801 332.989 170.578 339.572 159.739 344.104Z" fill="#A1A9AC"/>
<path d="M4.43898 444.249C2.97298 443.943 1.47598 443.603 0.000976562 443.51V444.297C1.30698 444.374 2.65398 444.666 4.00598 444.947C4.50098 445.052 5.07598 444.382 4.43898 444.249Z" fill="#A1A9AC"/>
<path d="M606.735 454.173C604.662 451.79 602.286 448.652 599.037 447.876C593.757 446.614 587.725 448.724 582.507 449.323C574.145 450.282 565.677 450.216 557.273 450.218C556.703 450.219 556.518 450.983 557.173 450.983C564.298 450.981 571.413 450.934 578.526 450.44C584.436 450.031 590.323 448.35 596.22 448.264C601.406 448.188 604.753 453.338 607.775 456.803C609.84 459.172 611.924 461.566 613.878 464.054H615.232C612.557 460.615 609.523 457.377 606.735 454.173Z" fill="#A1A9AC"/>
</svg>
