<svg width="926" height="2275" viewBox="0 0 926 2275" fill="none" xmlns="http://www.w3.org/2000/svg">
<path d="M90.0949 1052.6C61.0329 1044.48 30.5339 1042.08 2.61986 1030.17C1.74686 1029.79 0.878859 1029.41 0.00885938 1029.04V1030.1C11.7229 1034.96 23.7599 1038.93 36.0919 1041.47C51.0939 1044.55 66.2099 1047.21 81.0669 1050.96C88.8949 1052.94 96.6559 1054.97 104.456 1056.85C104.509 1057.15 104.837 1057.18 105.04 1056.99C111.849 1058.62 118.688 1060.15 125.633 1061.42C140.741 1064.18 155.779 1067.17 170.834 1070.21C185.302 1073.12 199.94 1075.82 214.726 1076.34C230.773 1076.9 246.736 1078.22 262.754 1079.22C276.969 1080.12 291.19 1076.18 305.48 1076.83C306.102 1076.85 305.908 1076.07 305.408 1076.05C295.583 1075.61 285.913 1076.84 276.152 1077.72C265.401 1078.69 254.935 1077.93 244.2 1077.13C223.226 1075.58 202.38 1075.38 181.634 1071.54C166.55 1068.74 151.586 1065.35 136.488 1062.62C126.011 1060.72 115.592 1058.78 105.249 1056.42C105.851 1052.81 106.891 1049.22 108.027 1045.64C111.441 1046.37 114.858 1047.08 118.285 1047.74C118.827 1047.84 118.632 1046.93 118.188 1046.84C114.88 1046.2 111.581 1045.52 108.283 1044.82C109.574 1040.8 110.948 1036.78 111.91 1032.77C113.412 1026.5 114.642 1020.21 115.807 1013.9C123.991 1015.52 131.956 1018.02 140.113 1019.76C147.625 1021.36 154.708 1024.32 162.196 1025.9C162.809 1026.03 162.571 1025.22 162.095 1025.12C157.294 1024.1 152.815 1022.2 148.111 1020.86C144.455 1019.81 140.719 1019.19 137.029 1018.28C130.005 1016.55 123.039 1014.58 115.944 1013.17C116.342 1011 116.734 1008.82 117.126 1006.65C118.023 1001.67 119.166 996.772 121.232 992.128C122.883 988.415 125.383 984.841 126.654 980.993C127.308 979.014 127.135 978.156 126.496 977.431C131.031 978.004 135.583 978.511 139.974 979.774C144.763 981.147 149.678 982.911 154.725 982.325C155.205 982.27 155.19 981.313 154.72 981.37C150.648 981.842 146.691 980.745 142.809 979.618C137.006 977.93 131.25 977.196 125.278 976.36C124.852 976.014 124.376 975.61 123.87 975.072C119.046 969.94 123.759 959.93 125.13 954.026C125.22 953.639 125.332 953.257 125.43 952.873C129.428 953.763 133.438 954.601 137.465 955.366C137.94 955.455 138.165 954.524 137.696 954.436C133.673 953.671 129.664 952.839 125.668 951.953C127.745 944.206 131.11 936.897 133.416 929.214C135.339 922.794 137.489 916.435 139.628 910.069C143.874 912.077 148.136 914.088 152.492 915.993C152.941 916.188 153.585 915.651 153.009 915.401C148.578 913.463 144.271 911.272 139.952 909.104C143.806 897.626 147.587 886.125 149.902 874.229C150.023 873.61 149.269 873.653 149.162 874.188C146.886 885.897 143.388 897.472 139.59 908.921C135.797 907.017 131.992 905.135 128.085 903.464C119.896 899.962 111.389 897.417 102.922 894.685C83.8189 888.522 67.2409 878.707 50.1019 868.481C42.0929 863.706 34.0989 859.209 25.5139 855.548C23.7279 854.788 21.9279 854.026 20.1319 853.242C24.3039 845.968 28.2429 838.572 32.6319 831.357C39.8059 819.564 46.8429 807.648 51.5879 794.628C56.0149 782.49 59.3739 769.527 59.2769 756.524C59.1799 743.214 56.4099 730.209 54.9499 717.026C53.8039 706.665 53.4349 696.222 53.0559 685.811C52.9749 683.585 52.9099 681.358 52.8369 679.131C53.4779 679.173 54.1179 679.211 54.7639 679.274C82.1539 681.968 107.77 694.741 130.578 709.524C130.591 709.532 130.605 709.534 130.618 709.541C130.629 709.552 130.634 709.564 130.646 709.575C133.609 712.073 136.574 714.666 139.827 716.789C150.144 723.518 163.872 723.382 175.768 722.434C190.039 721.296 203.642 718.031 217.3 713.881C224.014 711.842 231.044 710.362 237.595 707.851C241.491 706.356 245.982 704.263 248.117 700.424C249.309 698.286 249.786 695.862 250.932 693.73C251.977 691.777 254.117 691.947 256.045 691.951C258.482 691.955 261.642 692.314 262.805 689.747C264.006 687.099 264.599 684.443 264.795 681.785C265.123 682.132 265.455 682.473 265.781 682.822C270.626 688.004 274.773 693.523 279.094 699.124C279.745 699.968 280.396 700.808 281.048 701.645C278.967 705.209 277.214 708.97 274.204 711.923C270.707 715.359 269.905 719.046 269.016 723.749C267.803 730.188 263.988 733.08 260.617 738.294C258.438 741.666 257.25 745.205 256.455 749.119C256.363 749.575 257.106 750.057 257.227 749.469C258.352 743.914 260.543 738.938 264.488 734.771C267.259 731.841 268.842 729.096 269.595 725.124C270.109 722.395 270.516 719.48 271.561 716.902C272.676 714.15 275.123 712.877 276.776 710.59C278.653 707.992 280.042 705.132 281.631 702.399C289.106 711.978 296.776 721.026 307.263 727.491C313.094 731.086 318.353 735.077 323.395 739.718C327.734 743.71 332.059 747.648 337.233 750.534C337.67 750.778 337.845 749.838 337.444 749.614C331.365 746.223 326.567 741.312 321.405 736.737C317.101 732.922 312.534 729.688 307.643 726.672C297.253 720.258 289.467 711.21 282.068 701.657C282.964 700.171 283.955 698.743 285.129 697.422C290.417 704.431 295.588 711.53 302.627 716.936C307.66 720.803 313.109 724.027 318.356 727.584C324.028 731.429 328.739 735.776 333.495 740.666C338.474 745.778 343.591 750.903 347.786 756.704C351.629 762.022 353.443 767.514 356.014 773.424C360.388 783.484 371.569 788.032 381.24 791.695C394.478 796.707 407.076 804.865 414.216 817.531C414.51 818.053 415.022 817.311 414.796 816.912C409.346 807.246 399.212 797.939 388.92 793.664C379.031 789.559 363.046 785.862 357.804 775.398C354.988 769.775 353.758 763.839 350.131 758.586C346.881 753.872 343.17 749.523 339.233 745.368C334.715 740.598 330.276 735.411 325.096 731.355C320.507 727.763 315.575 724.726 310.715 721.53C304.613 717.511 298.824 713.153 294.087 707.544C291.116 704.023 288.404 700.31 285.636 696.636C285.611 696.425 285.449 696.21 285.266 696.144C284.302 694.869 283.328 693.599 282.333 692.345C277.21 685.894 270.659 680.775 264.574 675.243C263.884 669.577 262.141 663.896 261.277 658.216C258.962 643.007 257.907 627.656 255.96 612.404C255.459 608.473 255.264 604.718 255.19 600.95C257.227 600.804 259.405 600.103 261.431 600.386C261.942 600.457 261.883 599.508 261.424 599.442C259.387 599.152 257.223 599.819 255.174 599.997C255.132 597.064 255.153 594.115 255.159 591.059C255.171 586.769 254.861 582.263 252.666 578.455C246.541 567.846 239.009 557.539 229.299 549.934C228.805 549.548 228.522 550.313 228.914 550.626C234.205 554.766 238.814 559.719 242.871 565.064C246.326 569.618 250.573 574.762 252.689 580.126C255.169 586.423 254.134 592.894 254.032 599.456C253.944 605.061 255.015 610.544 255.657 616.097C257.276 630.144 258.308 644.281 260.537 658.255C261.396 663.657 263.305 669.193 263.975 674.694C260.422 671.431 257.049 668.008 254.246 664.069C245.821 652.224 237.76 639.571 230.577 626.934C223.598 614.653 217.672 601.82 210.858 589.455C204.326 577.6 196.847 566.412 187.95 556.191C178.325 545.131 167.888 534.789 158.986 523.11C158.624 522.633 158.125 523.359 158.405 523.731C166.332 534.131 175.483 543.437 184.162 553.188C193.118 563.246 201.157 573.935 207.808 585.657C214.771 597.933 220.691 610.754 227.506 623.106C234.669 636.089 243.379 648.132 251.086 660.773C254.582 666.51 259.219 670.977 264.054 675.272C264.142 676.104 264.2 676.935 264.22 677.765C264.239 678.535 264.242 679.437 264.208 680.398C261.077 676.976 257.91 673.565 254.756 670.065C246.035 660.385 238.407 649.815 231.194 638.982C223.843 627.939 216.359 617.003 208.982 605.981C202.507 596.309 197.2 585.214 189.272 576.601C185.792 572.824 181.733 569.382 177.589 566.351C175.34 564.705 172.811 566.349 171.366 568.236C169.375 570.834 167.943 573.525 165.148 575.428C162.389 577.306 159.629 579.196 156.766 580.907C152.012 583.744 147.466 587.596 142.41 589.847C130.12 595.316 116.247 588.368 103.811 586.794C88.5379 584.86 72.5779 586.768 57.6619 582.432C55.7599 581.878 53.8869 581.261 52.0349 580.594C52.0559 579.288 52.0689 577.984 52.0919 576.679C52.4259 557.794 52.9919 538.902 54.2369 520.052C55.1939 505.617 56.2949 491.049 59.1749 476.85C60.7089 477.275 62.2539 477.669 63.8209 478.011C70.7299 479.517 77.7289 481.076 84.7079 482.22C88.2199 482.796 94.1359 484.253 97.3609 482.192C98.4929 481.469 98.9519 479.737 99.4889 478.616C100.912 475.656 102.941 472.987 105.364 470.765C109.715 466.775 114.756 463.744 119.423 460.161C129.807 452.176 134.581 438.95 141.726 428.373C149.918 416.244 161.946 406.823 172.35 396.701C176.388 392.773 179.944 388.389 183.611 384.145C183.766 384.101 183.907 383.939 183.95 383.751C188.796 378.167 193.867 372.864 200.522 369.22C204.947 366.796 209.761 364.407 213.019 360.415C215.695 357.139 217.683 351.388 221.935 349.853C228.185 347.598 236.141 348.447 242.7 348.315C249.981 348.17 257.24 348.169 264.438 349.389C270.869 350.478 277.636 352.111 284.204 351.395C289.036 350.869 293.75 349.06 298.076 346.877C299.317 346.249 300.66 345.561 301.988 344.785C302.107 345.984 302.251 347.182 302.448 348.379C303.18 352.809 304.068 357.299 303.023 361.752C302.919 362.192 303.723 362.666 303.848 362.123C305.257 356.12 303.099 350.344 302.662 344.383C303.552 343.84 304.422 343.254 305.242 342.619C305.412 342.645 305.583 342.662 305.753 342.69C306.156 342.757 306.293 342.189 306.113 341.906C307.349 340.838 308.424 339.641 309.181 338.275C310.202 336.43 310.168 332.968 311.573 331.214C311.583 331.203 311.592 331.193 311.6 331.181C311.924 330.785 312.322 330.48 312.827 330.305C315.383 329.412 318.142 329.774 320.767 329.232C322.172 328.94 323.343 327.271 324.42 326.452C326.199 325.099 328.884 325.539 330.996 325.59C335.467 325.699 340.151 326.422 344.597 325.67C353.486 324.165 354.825 314.864 356.713 307.411C358.429 300.638 362.515 294.92 365.489 288.676C368.047 283.306 369.367 277.321 371.567 271.788C374.323 264.85 378.113 259.26 382.07 253.028C384.805 248.723 387.17 244.366 387.943 239.27C388.025 238.725 387.317 238.478 387.216 239.095C386.091 246.53 381.358 252.505 377.309 258.593C373.757 263.933 371.331 269.853 369.226 275.889C366.697 283.137 364.012 289.809 360.378 296.579C357.937 301.128 356.47 305.421 355.208 310.391C353.823 315.843 352.076 323.429 345.527 324.537C340.64 325.364 335.788 324.64 330.879 324.635C326.65 324.635 325.527 324.785 322.341 327.125C320.046 328.811 316.369 328.191 313.58 328.983C313.497 328.929 313.403 328.898 313.305 328.915C312.782 329.012 312.254 329.076 311.728 329.122C311.692 326.715 311.124 324.436 310.259 322.094C308.585 317.557 309.005 312.747 308.614 308.004C307.963 300.094 304.146 292.822 302.7 285.053C302.619 284.617 301.712 284.361 301.81 284.896C303.247 292.618 307.228 299.975 307.723 307.844C307.965 311.66 308.057 315.48 308.369 319.295C308.662 322.861 310.678 325.534 310.821 329.184C306.029 329.432 301.588 328.607 301.597 335.684C301.601 337.541 301.641 339.393 301.731 341.24C298.562 340.952 295.386 340.855 292.193 340.636C286.969 340.273 281.946 339.157 276.844 338.063C267.696 336.105 258.406 335.175 249.185 333.669C249.182 333.669 249.178 333.669 249.174 333.667C249.988 328.355 250.746 323.032 251.71 317.743C251.804 317.235 250.856 317.179 250.774 317.628C249.816 322.89 249.061 328.181 248.252 333.466C244.888 332.622 238.981 330.222 237.314 334.121C235.85 337.546 237.919 343.583 238.203 347.189C238.21 347.283 238.238 347.356 238.273 347.418C233.082 347.368 227.16 346.959 222.494 348.644C219.266 349.811 217.547 352.256 215.762 355.067C212.008 360.973 207.404 364.385 201.355 367.701C196.556 370.328 192.366 373.085 188.636 377.124C186.901 379.003 185.265 380.979 183.643 382.968C177.422 371.882 169.677 361.822 162.789 351.162C155.093 339.253 149.373 326.248 143.617 313.32C142.316 310.398 141.032 307.469 139.752 304.54C139.935 304.454 140.118 304.37 140.3 304.284C140.838 304.032 140.106 303.499 139.693 303.697C139.607 303.738 139.52 303.778 139.434 303.819C129.431 280.887 119.923 257.799 108.732 235.378C96.1699 210.208 82.0489 185.95 70.0279 160.495C62.0559 143.61 54.2649 126.677 44.1549 111.044C56.8869 103.421 71.1269 97.904 84.7069 93.689C95.9959 90.184 107.564 88.138 119.048 85.388C127.638 83.335 136.734 81.387 144.752 77.584C151.38 74.443 157.583 70.644 164.817 69.036C164.884 69.021 164.931 68.991 164.965 68.952C170.757 66.451 176.973 67.05 183.023 65.784C190.24 64.275 197.19 61.505 204.018 58.781C217.747 53.3 232.009 49.644 246.129 45.357C258.908 41.475 271.53 37.614 282.999 30.685C289.654 26.664 295.394 24.356 303.241 26.058C309.062 27.324 314.601 29.457 320.098 31.708C333.49 37.2 347.132 43.187 359.982 49.843C366.683 53.313 373.191 57.131 379.864 60.652C382.894 62.252 385.903 63.885 389.036 65.172C389.053 65.546 389.077 65.917 389.086 66.293C389.202 70.634 390.952 76.265 390.212 80.486C389.959 81.94 390.58 83.056 392.084 83.659C399.306 86.556 408.294 84.831 414.598 90.414C418.142 93.549 419.967 98.09 422.978 101.708C426.699 106.185 430.782 110.338 434.381 114.917C434.75 115.385 435.357 114.612 435.059 114.232C430.752 108.753 425.462 103.983 421.514 98.232C418.957 94.505 417.176 90.28 412.953 88.093C408.763 85.925 403.99 84.541 399.298 84.074C396.784 83.82 390.015 83.851 391.291 79.52C391.697 78.153 391.19 77.441 390.901 76.142C390.13 72.621 389.938 69.05 389.778 65.473C392.064 66.362 394.421 67.053 396.916 67.371C399.864 67.745 402.899 67.458 405.851 67.284C408.333 67.138 411.291 67.484 413.648 66.512C415.544 65.728 417.113 64.596 418.836 63.496C421.972 61.498 424.928 61.174 428.566 60.987C434.168 60.701 438.748 58.197 443.133 54.765C445.143 53.189 447.499 51.814 449.128 49.822C451.247 47.232 453.021 44.434 455.478 42.123C460.325 37.564 466.328 36.83 472.765 36.604C479.24 36.375 485.728 36.149 492.208 36.042C492.804 36.036 492.41 35.23 491.948 35.232C484.69 35.348 477.334 35.384 470.094 35.908C464.933 36.281 459.723 37.07 455.67 40.53C453.517 42.367 451.897 44.657 450.207 46.894C448.038 49.769 445.341 51.904 442.488 54.066C439.911 56.021 436.671 58.495 433.523 59.384C430.462 60.252 427.336 60.12 424.2 60.439C418.402 61.03 414.973 65.984 408.911 66.291C402.2 66.631 396.002 67.12 389.743 64.689C389.579 60.984 389.408 57.277 388.618 53.62C388.224 51.797 383.146 33.073 383.633 32.962C389.094 31.693 395.069 33.747 400.488 34.467C405.721 35.167 410.271 34.884 415.238 32.87C422.435 29.952 429.066 25.849 436.497 23.503C443.773 21.212 450.959 18.78 458.128 16.177C466.02 13.308 473.839 10.261 481.68 7.25296C485.298 5.86696 488.913 4.47797 492.548 3.14197C495.826 1.94197 499.611 -0.100036 503.108 1.56996C508.827 4.29896 511.862 10.145 516.179 14.489C519.719 18.054 523.302 21.497 527.636 24.114C534.893 28.495 544.391 32.683 550.879 25.086C553.879 21.573 556.958 16.308 562.279 16.545C569.568 16.872 574.802 21.873 578.424 27.815C582.069 33.796 584.813 40.19 588.149 46.33C591.548 52.587 595.27 58.646 599.026 64.694C599.34 65.196 599.963 64.419 599.704 64.01C592.747 52.82 587.204 41.016 580.608 29.667C576.772 23.063 569.403 13.198 560.29 15.8C553.061 17.861 550.594 29.043 542.489 28.473C530.489 27.632 520.414 18.342 513.138 9.50597C510.526 6.33197 507.55 1.99897 503.472 0.613971C498.913 -0.933029 494.983 1.24196 490.692 2.84996C476.838 8.04096 463.141 13.818 449.099 18.493C442.616 20.651 435.742 22.219 429.553 25.134C423.39 28.038 417.203 32.055 410.451 33.397C404.838 34.512 399.454 33.251 393.897 32.367C390.3 31.797 386.324 30.973 382.808 32.289C382.521 32.397 382.381 32.721 382.448 33.011C384.892 43.556 388.366 53.562 389.001 64.39C388.65 64.241 388.3 64.089 387.949 63.92C374.632 57.514 362.054 49.847 348.569 43.764C336.29 38.227 324.206 31.868 311.41 27.573C306.711 25.996 301.632 24.375 296.611 24.561C291.784 24.743 287.82 26.688 283.73 29.159C271.324 36.652 257.819 40.991 243.959 45.087C229.779 49.275 215.676 53.258 201.896 58.657C194.866 61.409 187.454 64.596 179.88 65.393C174.648 65.944 169.37 66.059 164.476 68.183C164.453 68.183 164.429 68.176 164.405 68.181C156.132 70.015 149.387 74.923 141.583 77.922C133.082 81.191 124.058 83.329 115.188 85.337C104.138 87.833 93.1049 89.946 82.3189 93.462C69.3439 97.691 55.8349 103.028 43.6689 110.281C41.1769 106.468 38.5459 102.729 35.7329 99.093C25.1059 85.345 12.4829 73.405 0.00885938 61.317V62.666C6.80086 69.23 13.6649 75.722 20.2179 82.515C28.6899 91.299 36.1559 100.783 42.8219 110.801C32.6479 116.975 23.4519 124.512 16.3589 133.907C16.0819 134.27 16.7649 134.928 17.0769 134.516C24.0929 125.223 33.2089 117.704 43.3179 111.543C50.6409 122.643 56.9919 134.395 62.6069 146.611C68.8199 160.125 75.1319 173.648 81.9619 186.861C88.8219 200.137 96.4299 213.007 103.243 226.316C116.283 251.777 127.25 278.001 138.706 304.158C129.205 308.63 119.74 312.691 109.749 315.887C108.436 316.304 104.31 317.884 104.095 319.732C103.838 321.949 106.033 324.486 106.707 326.484C106.853 326.917 107.81 326.889 107.647 326.414C106.538 323.125 103.561 320.219 107.873 317.71C110.879 315.963 114.324 315.663 117.509 314.376C124.78 311.438 131.926 308.225 139.021 304.881C139.593 306.185 140.161 307.49 140.734 308.795C146.509 321.894 152.019 335.492 159.592 347.678C167.156 359.856 176.084 371.128 183.09 383.655C180.656 386.643 178.228 389.637 175.512 392.351C170.658 397.204 165.607 401.847 160.63 406.573C150.608 416.09 142.089 425.626 135.179 437.619C131.436 444.114 127.706 450.94 122.45 456.362C118.305 460.64 112.824 463.412 108.209 467.145C103.65 470.833 100.824 474.614 98.1139 479.733C95.4169 484.823 84.3729 481.248 79.9429 480.295C72.9579 478.796 65.8789 477.724 58.9729 475.876C51.6569 473.918 44.7979 470.98 37.8409 468.016C31.1199 465.155 24.3229 462.058 17.2109 460.301C11.5489 458.903 5.80086 458.037 0.00885938 457.458V458.089C7.70686 458.913 15.3059 460.324 22.3519 462.82C34.5639 467.148 46.0589 473.115 58.4929 476.659C55.1739 492.986 54.0729 509.81 53.1309 526.414C52.1119 544.364 51.5779 562.339 51.3099 580.314C39.4139 575.918 28.4879 569.357 17.6919 562.687C11.9529 559.141 5.77986 555.776 0.00885938 551.925V552.789C0.594859 553.179 1.18486 553.563 1.77986 553.946C12.7309 560.965 23.8819 568.053 35.3899 574.134C40.5879 576.88 45.8699 579.306 51.2969 581.244C51.2379 585.344 51.1879 589.441 51.1539 593.541C50.9219 621.796 51.0819 650.095 52.0439 678.349C47.7559 678.078 43.4489 678.078 39.1789 678.537C31.3819 679.375 23.6389 681.929 16.0129 683.7C10.5539 684.97 5.34086 685.564 0.00885938 685.773V686.722C3.62886 686.684 7.23286 686.433 10.8199 685.643C24.6309 682.603 37.8749 678.326 52.0679 679.072C52.2709 684.959 52.4969 690.845 52.7759 696.727C53.4259 710.423 55.1839 723.738 57.0049 737.343C59.0339 752.51 58.9219 766.947 54.9049 781.808C51.2179 795.437 45.4449 808.236 38.3589 820.423C34.4699 827.116 30.3299 833.642 26.6459 840.455C24.3739 844.661 22.1609 848.924 19.7909 853.09C14.0119 850.564 8.28586 847.792 3.23786 844.042C2.09886 843.194 1.03586 842.302 0.0118594 841.385V842.573C0.0778594 842.625 0.138859 842.679 0.204859 842.732C6.19686 847.439 12.8519 850.47 19.6009 853.421C18.2209 855.836 16.7889 858.217 15.2549 860.534C10.9419 867.051 5.97686 873.011 1.11786 879.114C0.751859 879.574 0.380859 880.037 0.0118594 880.498V881.767C3.85386 877.011 7.95186 872.379 11.3999 867.353C14.4759 862.869 17.2629 858.248 19.9489 853.575C24.0249 855.355 28.1319 857.117 32.1409 859.211C45.5859 866.232 58.1899 874.686 71.4749 881.991C84.2069 888.995 97.3119 893.601 111.092 898.045C120.949 901.225 130.079 905.546 139.273 909.895C136.947 916.874 134.518 923.804 132.194 930.69C129.81 937.751 126.982 944.622 124.987 951.793C113.423 949.206 101.967 946.151 90.5929 942.814C75.4979 938.384 60.2329 934.125 45.7029 928.046C34.0809 923.185 22.4279 916.012 9.99786 913.546C8.46586 913.242 4.39386 912.685 0.00985938 911.76V912.581C4.17286 913.477 8.41586 914.112 12.4799 915.042C18.8059 916.485 24.7589 919.862 30.6449 922.502C36.6489 925.19 42.6549 927.896 48.7709 930.319C62.8679 935.903 77.5789 940.05 92.1339 944.257C102.928 947.375 113.783 950.253 124.739 952.712C124.626 953.137 124.503 953.558 124.396 953.985C122.975 959.672 120.832 965.522 121.161 971.461C121.252 973.123 122.057 974.758 123.331 975.847C123.435 975.935 123.543 976.013 123.648 976.097C117.002 975.012 110.734 973.046 104.426 970.633C103.657 970.339 102.887 970.071 102.117 969.814C102.03 969.615 101.742 969.549 101.509 969.611C95.3629 967.622 89.1399 966.652 82.7329 965.462C75.8839 964.186 69.1449 962.304 62.5899 959.956C51.5509 956 40.9459 951.029 30.1899 946.406C30.1239 946.185 29.8949 946.09 29.7109 946.201C27.1729 945.113 24.6279 944.04 22.0649 943.012C17.6759 941.253 13.2299 939.645 8.75786 938.104C8.62886 937.871 8.26086 937.745 8.04386 937.858C5.37286 936.942 2.69386 936.046 0.00885938 935.165V936.231C2.56586 937.089 5.11386 937.962 7.64586 938.858C5.81886 945.274 2.61686 951.052 0.00885938 957.128V959.773C2.87386 952.896 6.51486 946.382 8.55086 939.185C15.5349 941.669 22.4369 944.308 29.2959 947.144C25.8429 957.82 22.9139 968.712 18.3209 978.978C18.0729 979.527 18.7529 979.765 18.9939 979.226C23.5829 968.968 26.5119 958.088 29.9589 947.42C32.6419 948.535 35.3199 949.67 37.9929 950.851C42.7879 952.966 47.6179 955.109 52.5049 957.125C50.4409 966.733 45.8089 975.531 43.8139 985.168C43.6889 985.785 44.4399 985.737 44.5519 985.205C46.5289 975.657 51.1009 966.924 53.1889 957.408C60.4229 960.37 67.7889 963.022 75.3539 964.865C71.5639 973.393 71.2459 982.901 67.8649 991.571C67.6959 992.006 68.6309 992.206 68.8049 991.759C72.1799 983.101 72.4609 973.597 76.2829 965.092C77.2539 965.32 78.2269 965.535 79.2049 965.734C86.4039 967.193 94.0519 967.65 100.952 970.294C101.011 970.316 101.07 970.339 101.129 970.361C99.6759 979.783 95.3289 988.392 93.3899 997.706C93.2839 998.209 94.2369 998.247 94.3289 997.796C96.2489 988.568 100.534 980.031 102.024 970.706C108.071 973.036 114.182 975.453 120.586 976.574C122.135 976.845 123.695 977.066 125.259 977.271C127.166 978.732 125.761 981.592 124.822 983.31C120.751 990.751 117.809 998.22 116.387 1006.61C116.023 1008.76 115.65 1010.91 115.264 1013.05C115.014 1013.09 115.019 1013.36 115.167 1013.58C114.008 1019.99 112.728 1026.38 111.168 1032.72C110.188 1036.71 108.831 1040.68 107.558 1044.66C92.1199 1041.37 76.7769 1037.58 61.3109 1034.43C40.6719 1030.23 19.7429 1025.62 0.00585938 1018V1018.79C19.8699 1026.29 40.6119 1031.1 61.4039 1035.33C76.7579 1038.45 91.9829 1042.21 107.302 1045.48C106.174 1049.05 105.143 1052.63 104.531 1056.25C99.7029 1055.13 94.8879 1053.94 90.0949 1052.6ZM276.807 687.123C279.568 690.141 282.085 693.376 284.561 696.645C283.384 697.964 282.398 699.405 281.499 700.895C280.873 700.083 280.249 699.268 279.627 698.452C274.951 692.311 269.945 686.665 264.835 681.067C264.918 679.311 264.848 677.55 264.655 675.791C268.782 679.439 273.026 682.991 276.807 687.123ZM302.609 343.248C302.598 342.942 302.576 342.608 302.551 342.26C302.963 342.305 303.373 342.361 303.784 342.414C303.397 342.698 303.009 342.982 302.609 343.248ZM304.513 330.566C306.206 329.426 308.608 329.734 310.839 329.857C310.832 330.131 310.815 330.412 310.784 330.7C310.778 330.762 310.79 330.822 310.814 330.88C310.76 330.96 310.699 331.026 310.649 331.111C308.893 334.12 309.372 337.578 306.503 340.209C305.975 340.693 305.429 341.154 304.871 341.602C304.074 341.489 303.277 341.387 302.478 341.306C302.173 337.591 301.695 332.462 304.513 330.566ZM239.47 333.094C241.906 332.564 245.253 333.574 248.137 334.302C247.727 336.955 247.304 339.607 246.824 342.248C246.731 342.757 247.678 342.813 247.759 342.362C248.233 339.757 248.651 337.141 249.055 334.524C249.657 334.666 250.234 334.786 250.763 334.86C254.218 335.358 257.686 335.768 261.129 336.332C268.66 337.561 276.087 339.012 283.576 340.471C289.599 341.643 295.717 341.579 301.785 342.185C301.816 342.689 301.867 343.191 301.908 343.695C300.97 344.289 300.012 344.852 299.018 345.354C293.919 347.927 288.272 350.465 282.472 350.531C274.741 350.617 267.396 348.531 259.762 347.757C253.487 347.117 247.136 347.222 240.838 347.403C240.204 347.422 239.55 347.425 238.884 347.424C238.917 347.354 238.94 347.271 238.931 347.161C238.757 344.914 236.111 333.828 239.47 333.094ZM52.0329 581.499C58.7999 583.854 65.7949 585.446 73.1399 585.937C87.6439 586.904 101.696 586.896 115.945 590.195C127.104 592.781 137.59 594.603 147.563 587.861C153.028 584.167 158.729 580.874 164.184 577.161C166.391 575.658 168.267 574.253 169.741 571.994C171.98 568.562 175.123 565.122 179.002 568.592C184.086 573.143 189.138 577.074 193.092 582.768C196.494 587.664 199.696 592.716 202.797 597.803C210.349 610.194 219.018 621.919 226.982 634.047C234.72 645.837 242.659 657.625 252.006 668.217C255.924 672.657 260.107 676.842 264.184 681.13C263.94 685.467 262.807 690.66 258.481 690.942C256.646 691.061 252.798 690.338 251.145 691.864C249.489 691.494 248.114 690.604 246.648 689.782C246.105 689.475 245.839 690.17 246.32 690.442C247.732 691.237 249.081 692.061 250.624 692.524C248.424 695.782 248.387 699.874 245.058 702.623C240.497 706.389 234.793 707.846 229.207 709.391C222.762 711.175 216.395 713.224 209.97 715.084C196.6 718.954 182.644 721.709 168.672 721.817C161.764 721.873 153.786 722.032 147.212 719.657C141.11 717.455 136.15 713.207 131.257 709.073C131.225 709.02 131.18 708.969 131.108 708.92C109.191 694.718 84.2459 681.893 57.9479 678.879C56.2439 678.684 54.5329 678.525 52.8179 678.401C51.7699 646.119 51.5329 613.791 52.0329 581.499Z" fill="#A0A8AC"/>
<path d="M0.00885773 459.959V464.161C0.0968577 464.131 0.167858 464.047 0.185858 463.875C0.332858 462.5 0.251858 461.203 0.00885773 459.959Z" fill="#A0A8AC"/>
<path d="M22.8749 1044.62C38.3029 1048.73 53.6859 1053.34 69.2449 1056.9C84.8909 1060.49 100.772 1062.99 116.289 1067.15C131.222 1071.15 146.429 1073.88 161.629 1076.62C175.929 1079.19 190.489 1082.95 205.065 1083.16C220.294 1083.37 235.028 1086.34 250.093 1088.32C257.944 1089.36 265.808 1090.36 273.61 1091.74C280.558 1092.96 287.601 1094.67 294.691 1094.71C301.852 1094.76 308.832 1093.03 316.025 1093.42C322.629 1093.79 329.02 1095.16 335.553 1096.03C350.385 1098.02 365.323 1098.13 380.258 1097.72C395.336 1097.31 410.562 1096.13 425.612 1097.61C433.427 1098.38 441.18 1099.56 448.946 1100.72C454.977 1101.63 460.876 1102.35 466.95 1101.36C473.524 1100.27 479.812 1098.16 486.25 1096.5C493.467 1094.63 500.522 1094.93 507.896 1095.05C514.943 1095.17 521.885 1093.93 528.924 1093.97C535.083 1094.01 541.044 1094.96 547.068 1096.18C559.299 1098.66 571.342 1100.88 583.248 1095.92C589.248 1093.42 595.141 1090.25 601.508 1088.77C607.149 1087.46 612.953 1087.34 618.711 1086.95C627.533 1086.35 635.205 1084.82 639.42 1076.33C646.248 1062.57 649.119 1046.96 657.212 1033.82C664.75 1021.58 674.024 1010.66 683.508 999.899C692.374 989.845 701.363 980.077 710.697 970.456C719.301 961.591 727.744 952.274 732.59 940.75C732.764 940.332 732.044 939.747 731.826 940.258C726.808 952.193 717.874 961.814 708.914 970.925C700.292 979.7 692.104 988.721 683.972 997.946C674.927 1008.2 665.787 1018.54 658.439 1030.12C651.311 1041.34 647.801 1053.84 642.96 1066.09C640.564 1072.15 638.193 1080.37 631.785 1083.35C626.877 1085.64 621.455 1085.91 616.134 1086.2C610.655 1086.51 604.994 1086.68 599.711 1088.28C593.896 1090.06 588.523 1092.79 582.896 1095.05C569.887 1100.26 557.227 1097.24 543.993 1094.71C530.614 1092.15 517.866 1094.49 504.43 1094.07C497.493 1093.85 491.076 1094.18 484.361 1096.04C478.507 1097.67 472.64 1099.66 466.602 1100.48C451.842 1102.5 436.586 1097.41 421.838 1096.42C391.888 1094.41 361.594 1100.08 331.796 1094.6C325.022 1093.35 318.114 1092.23 311.196 1092.49C304.446 1092.74 297.851 1094.28 291.068 1093.64C283.313 1092.89 275.712 1091.13 268.017 1089.95C260.8 1088.85 253.564 1087.93 246.328 1086.96C238.468 1085.91 230.683 1084.41 222.838 1083.31C215.681 1082.31 208.508 1082.41 201.302 1082.21C186.853 1081.81 172.032 1077.64 157.843 1075.08C142.043 1072.23 126.541 1068.69 110.95 1064.91C95.9519 1061.27 80.6639 1058.94 65.6919 1055.2C43.8059 1049.73 21.6589 1044.18 0.0128593 1037.42V1038.16C7.58686 1040.45 15.2189 1042.58 22.8749 1044.62Z" fill="#A0A8AC"/>
<path d="M674.784 1985.69C675.926 1991.3 678.465 1997.07 680.667 2002.33C685.885 2014.82 691.576 2027.02 695.302 2040.07C695.5 2040.77 696.892 2040.43 696.697 2039.74C693.605 2028.92 689.262 2018.54 684.768 2008.23C682.252 2002.46 679.729 1996.73 677.954 1990.68C677.339 1988.58 676.158 1986.8 676.208 1984.53C676.259 1982.21 677.363 1981.23 678.606 1979.92C681.087 1984.75 683.402 1989.63 685.32 1994.87C688.365 2003.16 690.635 2011.74 692.384 2020.39C692.516 2021.06 693.941 2021.06 693.79 2020.31C690.724 2005.14 685.995 1990.13 678.59 1976.49C674.427 1968.82 670.284 1961.72 667.912 1953.23C666.949 1949.78 665.518 1946.42 664.678 1942.94C664.342 1941.54 664.412 1940.23 664.719 1938.96C664.86 1938.79 664.923 1938.54 664.9 1938.31C665.604 1936.04 667.017 1933.94 668.208 1931.86C668.589 1931.2 667.228 1930.78 666.886 1931.38C665.463 1933.86 664.442 1935.86 663.889 1937.82C661.941 1938.1 660.169 1938.95 658.421 1939.84C657.818 1940.14 657.993 1941.52 658.733 1941.15C660.293 1940.36 661.851 1939.6 663.562 1939.28C663.192 1941.61 663.518 1944.05 664.687 1947.33C667.459 1955.11 669.371 1962.56 673.298 1969.91C674.897 1972.9 676.487 1975.84 678.02 1978.79C675.739 1981.4 673.998 1981.83 674.784 1985.69Z" fill="#A0A8AC"/>
<path d="M736 2274.7H737.456C737.789 2270.2 738.472 2265.72 739.03 2261.2C739.324 2258.82 739.343 2256.48 739.116 2254.09C738.729 2250 739.374 2247.59 744.288 2246.88C745.099 2246.75 745.094 2245.64 744.176 2245.78C741.02 2246.23 738.265 2247.12 737.618 2250.55C737.259 2252.46 737.784 2254.64 737.922 2256.55C738.237 2261.03 737.027 2265.77 736.42 2270.2C736.213 2271.7 736.085 2273.21 736 2274.7Z" fill="#A0A8AC"/>
<path d="M173.242 2213.16C173.291 2213.18 173.335 2213.21 173.384 2213.24C174.093 2213.61 174.943 2212.84 174.105 2212.4C174.06 2212.38 174.022 2212.35 173.979 2212.33C175.801 2210.29 177.622 2208.24 179.443 2206.19C181.092 2204.34 182.752 2202.49 184.419 2200.65C184.709 2200.57 184.936 2200.34 184.915 2200.11C194.8 2189.22 205.11 2178.73 216.938 2169.93C223.583 2164.99 230.864 2160.96 237.618 2156.19C241.892 2158.26 250.85 2161.33 247.096 2166C246.615 2166.6 247.865 2167.28 248.293 2166.74C250.14 2164.45 250.466 2162.18 247.755 2160.4C244.901 2158.53 241.859 2156.94 238.822 2155.34C239.825 2154.61 240.814 2153.86 241.785 2153.08C242.482 2152.53 241.278 2151.94 240.74 2152.37C239.727 2153.18 238.693 2153.95 237.646 2154.71C235.762 2153.71 233.889 2152.7 232.072 2151.6C228.925 2149.69 225.678 2148.34 222.038 2149.51C218.526 2150.64 215.813 2154.39 213.273 2156.83C208.06 2161.85 200.967 2165.22 194.82 2168.95C188.185 2172.97 181.566 2177.01 175.081 2181.28C162.844 2189.32 151.872 2198.48 138.462 2204.65C137.727 2204.99 138.835 2205.86 139.437 2205.59C149.55 2200.93 158.363 2194.84 167.291 2188.28C177.365 2180.87 188.177 2174.51 198.852 2168.03C203.454 2165.24 208.33 2162.63 212.553 2159.28C215.651 2156.82 218.022 2153.56 221.295 2151.32C226.343 2147.85 232.186 2152.98 236.427 2155.55C236.432 2155.56 236.439 2155.56 236.445 2155.56C230.032 2160.09 223.153 2163.97 216.783 2168.56C204.56 2177.38 194.034 2188.21 183.923 2199.33C179.932 2197.09 176.193 2195.07 171.53 2196.39C167.612 2197.5 163.986 2199.99 160.352 2201.75C156.026 2203.84 151.404 2205.28 146.793 2206.59C145.894 2206.85 146.769 2207.76 147.466 2207.56C154.307 2205.62 160.488 2202.93 166.816 2199.74C168.1 2199.09 169.422 2198.39 170.791 2197.85C170.677 2197.97 170.637 2198.15 170.766 2198.39C172.381 2201.36 170.031 2204.18 169.54 2207.11C169.125 2209.59 170.315 2211.25 172.154 2212.5C162.987 2222.86 153.824 2233.24 143.836 2242.84C130.824 2255.35 115.845 2266.3 99.794 2274.59C99.691 2273.34 102.05 2274.7 102.05 2274.7C130.506 2259.59 152.075 2236.84 173.242 2213.16ZM171.922 2204.36C172.724 2202.2 173.127 2200.14 171.983 2198.04C171.851 2197.79 171.564 2197.68 171.292 2197.67C172.521 2197.23 173.788 2196.93 175.103 2196.92C177.867 2196.92 180.728 2198.79 183.138 2200.19C182.605 2200.78 182.068 2201.37 181.536 2201.96C178.637 2205.17 175.766 2208.41 172.897 2211.66C170.329 2209.78 170.757 2207.5 171.922 2204.36Z" fill="#A0A8AC"/>
<path d="M0.005 2198.01C17.227 2198.02 34.147 2196.18 51.2 2193.48C69.937 2190.51 89.274 2187.15 106.93 2179.99C127.86 2171.5 142.261 2150.76 151.634 2131.09C163.656 2105.86 167.833 2077.72 180.228 2052.66C185.199 2042.62 191.595 2033.92 199.071 2025.92C199.724 2026.63 200.379 2027.33 201.032 2028.04C201.052 2028.06 201.081 2028.07 201.104 2028.09C196.082 2033.07 191.613 2038.75 187.735 2045.1C176.905 2062.84 170.594 2082.33 164.436 2102.02C160.517 2114.55 157.12 2127.49 151.206 2139.26C145.982 2149.65 138.564 2161.42 129.291 2168.78C128.59 2169.33 129.294 2170.15 129.989 2169.59C137.049 2163.99 142.532 2155.83 147.311 2148.33C153.693 2138.31 157.61 2127.52 161.188 2116.29C167.61 2096.13 173.185 2075.76 182.583 2056.71C188.24 2045.25 195.393 2034.47 204.759 2025.71C214.594 2016.5 227.054 2011.17 239.971 2007.88C254.257 2004.23 268.06 2005.83 282.518 2007.05C295.332 2008.12 308.223 2009.47 320.962 2011.23C330.038 2012.48 339.079 2013.98 348.183 2015.03C358.536 2016.21 368.657 2014.18 379.003 2013.81C385.836 2013.56 392.652 2012.7 399.487 2012.64C407.43 2012.57 414.92 2010.97 422.715 2009.76C428.983 2008.78 435.07 2008.62 441.167 2006.68C448.775 2004.27 456.302 2001.62 464.022 1999.57C470.362 1997.89 476.032 1995.18 482.23 1993.12C488.927 1990.89 495.334 1988.67 501.743 1985.68C508.864 1982.36 515.953 1978.88 522.95 1975.22C523.158 1975.24 523.353 1975.12 523.491 1974.94C529.558 1971.76 535.556 1968.45 541.434 1964.99C547.482 1961.43 553.007 1957.26 558.795 1953.33C563.161 1950.37 567.845 1947.98 572.024 1944.73C579.199 1939.14 586.227 1933.43 593.818 1928.41C593.829 1928.41 593.841 1928.4 593.852 1928.39C594.222 1928.87 595.218 1928.22 595.018 1927.63C602.626 1922.63 610.39 1917.72 618.254 1913.05C620.521 1914.16 623.216 1914.23 625.683 1914.15C630.308 1914 634.907 1913.3 639.443 1912.38C639.556 1913.58 639.59 1914.73 639.571 1915.59C637.611 1916.25 635.669 1916.99 633.733 1917.71C616.891 1923.92 600.37 1930.3 585.311 1940.18C579.562 1943.95 574.468 1948.52 568.982 1952.64C563.137 1957.03 557.115 1961.17 550.98 1965.14C539.244 1972.73 526.933 1979.41 514.249 1985.28C491.52 1995.8 467.13 2005.28 442.55 2010.41C421.717 2014.76 400.299 2016.93 379.083 2018.31C371.389 2018.81 363.612 2019.27 355.901 2018.89C340.919 2018.15 326.13 2015.49 311.251 2013.74C303.911 2012.88 296.581 2012.65 289.212 2012.2C281.374 2011.72 273.616 2010.06 265.754 2009.56C252.736 2008.73 239.641 2009.78 227.392 2014.49C216.46 2018.69 207.129 2028 199.256 2036.38C190.147 2046.06 184.234 2058.35 179.529 2070.64C169.663 2096.41 163.908 2123.33 150.786 2147.85C143.538 2161.39 134.163 2172.13 122.048 2181.51C114.836 2187.1 107.037 2190.46 98.363 2193.19C79.779 2199.03 60.273 2202.16 41.018 2204.85C27.298 2206.77 13.672 2207.37 0.004 2207.3V2208.55C10.597 2208.72 21.19 2208.45 31.794 2207.16C48.535 2205.13 65.236 2202.45 81.69 2198.74C90.933 2196.67 100.167 2194.22 108.959 2190.65C117.777 2187.07 125.14 2181.06 132.159 2174.74C152.029 2156.84 161.697 2129.84 169.77 2105.06C174.147 2091.62 177.889 2077.98 183.328 2064.92C188.925 2051.48 196.798 2040.23 207.359 2030.26C212.11 2025.77 217.002 2021.5 222.631 2018.14C229.437 2014.07 237.577 2012.17 245.351 2011.11C260.82 2009 275.619 2012.45 290.945 2013.38C306.361 2014.32 321.471 2016.24 336.786 2018.2C346.448 2019.43 356.106 2020.24 365.845 2020.02C386.061 2019.55 406.356 2017.38 426.341 2014.38C447.822 2011.16 468.306 2004.97 488.611 1997.27C514.406 1987.48 539 1975.2 561.685 1959.44C573.48 1951.26 584.225 1942.02 596.583 1934.62C603.365 1930.55 611.038 1927.83 618.351 1924.89C625.336 1922.09 632.36 1919.34 639.476 1916.88C639.327 1917.72 640.596 1917.4 640.735 1916.74C640.757 1916.63 640.762 1916.52 640.781 1916.42C640.851 1916.39 640.921 1916.37 640.991 1916.34C644.578 1915.13 647.309 1916.65 650.933 1916.85C652.213 1916.92 653.941 1915.48 654.902 1914.88C655.852 1914.27 656.807 1913.74 657.774 1913.26C659.185 1916.76 660.823 1920.17 662.966 1923.47C667.195 1929.97 671.205 1936.68 677.719 1941.18C685.173 1946.34 694.049 1949.37 702.469 1952.57C712.503 1956.38 722.549 1960.12 731.966 1965.33C732.608 1965.69 733.602 1964.94 732.779 1964.49C716.682 1955.59 698.467 1951.51 682.344 1942.77C674.512 1938.52 669.933 1931.66 665.161 1924.44C664.232 1923.03 663.394 1921.61 662.617 1920.17C662.751 1920.26 662.919 1920.31 663.113 1920.29C678.698 1918.95 693.327 1913.21 707.977 1908.12C724.548 1902.35 741.532 1898.02 758.537 1893.75C759.445 1893.52 758.628 1892.57 757.92 1892.75C742.032 1896.74 726.182 1900.82 710.631 1906C694.932 1911.24 679.505 1917.79 662.849 1919.22C662.5 1919.25 662.336 1919.42 662.309 1919.61C661.101 1917.33 660.058 1915 659.103 1912.64C661.505 1911.6 664.004 1910.88 666.716 1910.4C667.049 1910.34 667.324 1910.17 667.285 1909.79C667.103 1908.11 666.872 1906.44 666.61 1904.77C670.1 1903.67 673.593 1902.58 677.11 1901.58C678.008 1901.33 677.324 1900.32 676.605 1900.52C673.192 1901.49 669.803 1902.53 666.418 1903.59C665.893 1900.46 665.242 1897.36 664.507 1894.28C666.343 1893.62 668.172 1893.08 669.819 1893.15C670.516 1893.18 670.991 1891.95 670.096 1891.92C668.099 1891.84 666.485 1892.45 664.685 1893.26C664.56 1893.32 664.43 1893.37 664.303 1893.42C663.806 1891.38 663.278 1889.34 662.723 1887.32C662.544 1886.64 661.12 1886.7 661.321 1887.44C661.911 1889.59 662.457 1891.76 662.977 1893.93C659.962 1894.97 656.747 1895.43 653.71 1896.46C647.026 1898.74 640.239 1900.49 633.735 1903.31C631.928 1904.09 630.166 1904.97 628.43 1905.9C626.496 1904.73 627.489 1900.47 627.67 1898.74C627.765 1897.85 626.482 1898.17 626.408 1898.86C626.149 1901.31 625.403 1904.95 627.151 1906.6C624.15 1908.28 621.231 1910.12 618.333 1911.96C615.861 1910.62 614.391 1908.15 613.569 1905.29C615.715 1904.17 617.89 1903.13 620.104 1902.2C620.966 1901.84 620.176 1900.91 619.487 1901.2C617.387 1902.09 615.316 1903.06 613.27 1904.1C612.366 1899.99 612.613 1895.32 613.081 1892.01C613.715 1887.52 614.891 1883.12 615.392 1878.6C615.926 1873.74 614.581 1869.04 616.748 1864.39C617.075 1863.69 615.751 1863.2 615.462 1863.81C613.699 1867.59 613.928 1871.47 614.036 1875.55C614.199 1881.78 612.068 1887.91 611.381 1894.08C610.996 1897.53 611.06 1901.32 612.046 1904.74C609.826 1905.9 607.639 1907.14 605.481 1908.45C601.86 1895.07 607.578 1879.43 609.252 1866.12C610.359 1857.31 613.163 1848.94 614.42 1840.2C615.669 1831.54 614.711 1822.36 618.37 1814.2C618.675 1813.51 617.263 1813.31 616.984 1813.93C613.536 1821.62 614.065 1830.28 613.234 1838.5C612.711 1843.68 611.004 1848.75 609.774 1853.8C608.789 1857.84 608.339 1862.01 607.82 1866.14C606.113 1879.61 600.33 1895.65 604.238 1909.21C598.365 1912.86 592.717 1917 587.272 1921.34C584.431 1921.4 581.414 1922.58 578.535 1922.74C575.829 1922.9 573.118 1922.84 570.413 1923.05C569.664 1923.1 569.397 1924.29 570.326 1924.22C574.047 1923.94 577.773 1924.05 581.491 1923.67C582.803 1923.54 584.068 1923.14 585.327 1922.9C580.59 1926.74 576.006 1930.72 571.562 1934.64C561.58 1943.43 550.228 1951.15 539.174 1958.53C532.085 1963.27 524.777 1967.66 517.254 1971.65C514.303 1970.59 511.267 1969.75 508.346 1970.09C503.376 1970.67 498.39 1974.74 493.817 1976.51C481.1 1981.43 468.443 1986.23 455.382 1990.17C443.483 1993.76 430.885 1995.18 418.649 1997.11C414.939 1997.7 411.38 1998.76 408.017 2000.44C405.386 2001.75 403.428 2003.6 401.61 2005.62C391.24 2006.73 380.833 2007.51 370.45 2008.03C350.286 2009.03 330.303 2006.45 310.349 2003.79C303.573 2002.89 296.81 2001.74 289.967 2001.57C282.372 2001.39 274.858 1999.8 267.29 1999.15C254.208 1998.02 241.007 1998.62 228.457 2002.69C216.845 2006.46 208.102 2015.08 199.502 2023.34C199.323 2023.51 199.152 2023.69 198.975 2023.86C192.878 2017.26 186.778 2010.67 180.629 2004.12C174.775 1997.89 168.957 1990.25 161.974 1985.22C161.437 1984.83 160.184 1985.48 160.843 1985.95C167.824 1990.99 173.636 1998.63 179.496 2004.86C185.713 2011.47 191.872 2018.13 198.03 2024.8C188.966 2033.96 182.112 2045.15 176.699 2056.78C164.962 2082 160.73 2109.96 148.194 2134.94C141.741 2147.8 133.225 2159.29 122.394 2168.78C114.904 2175.34 106.806 2179.16 97.4 2182.19C78.795 2188.18 59.192 2191.34 39.879 2194.06C26.537 2195.95 13.29 2196.64 0 2196.65V2198.01H0.005ZM652.742 1914.79C649.377 1916.92 645.847 1913.7 642.333 1914.71C641.862 1914.85 641.395 1915 640.926 1915.15C640.978 1914.1 640.878 1913.11 640.699 1912.13C641.179 1912.03 641.659 1911.93 642.137 1911.82C646.767 1910.81 651.328 1909.53 655.865 1908.15C656.324 1909.47 656.799 1910.77 657.3 1912.06C655.729 1912.88 654.231 1913.84 652.742 1914.79ZM665.523 1906.83C666.039 1910.37 663.124 1909.91 660.46 1910.74C659.832 1910.93 659.223 1911.17 658.624 1911.43C658.145 1910.21 657.687 1908.97 657.241 1907.73C659.916 1906.9 662.585 1906.06 665.253 1905.21C665.339 1905.75 665.444 1906.29 665.523 1906.83ZM658.941 1896.17C660.272 1895.86 661.715 1895.31 663.179 1894.77C663.899 1897.83 664.53 1900.91 665.055 1904.01C662.316 1904.87 659.576 1905.73 656.833 1906.58C655.792 1903.62 654.797 1900.62 653.721 1897.57C655.451 1897.05 657.191 1896.58 658.941 1896.17ZM648.662 1899.13C649.906 1898.74 651.156 1898.35 652.408 1897.97C653.476 1901.01 654.446 1904.02 655.465 1906.99C654.067 1907.42 652.67 1907.85 651.266 1908.26C647.862 1909.25 644.228 1910.31 640.513 1911.19C640.246 1909.96 639.923 1908.72 639.722 1907.35C639.528 1906.04 639.128 1905.45 637.765 1905.47C635.251 1905.5 632.774 1906.21 630.255 1906.22C636.116 1903.21 642.385 1901.1 648.662 1899.13ZM628.227 1907.29C628.251 1907.28 628.275 1907.27 628.3 1907.25C628.621 1907.36 628.97 1907.44 629.382 1907.46C631.885 1907.62 634.518 1907.06 636.994 1906.76C638.319 1906.6 639.017 1908.96 639.342 1911.46C633.378 1912.8 627.242 1913.64 621.532 1912.95C620.732 1912.85 620.005 1912.66 619.336 1912.41C622.287 1910.67 625.251 1908.96 628.227 1907.29ZM604.958 1910.26C605.368 1910.32 605.837 1910.11 605.822 1909.72C607.989 1908.36 610.188 1907.08 612.425 1905.89C613.314 1908.34 614.731 1910.56 616.893 1912.23C617.053 1912.35 617.226 1912.45 617.393 1912.56C617.061 1912.77 616.728 1912.98 616.396 1913.19C610.213 1917.08 603.751 1920.51 597.665 1924.55C596.601 1925.25 595.561 1925.98 594.51 1926.69C593.266 1924.63 591.454 1922.39 589.179 1921.61C594.247 1917.6 599.497 1913.72 604.958 1910.26ZM542.856 1957.54C555.714 1948.86 567.775 1939.29 579.667 1929.38C582.308 1927.18 584.999 1924.96 587.738 1922.76C588.49 1922.86 589.25 1923.1 590.028 1923.61C591.329 1924.45 592.471 1926.06 593.325 1927.5C587.069 1931.81 581.016 1936.3 575.013 1941.02C571.449 1943.83 567.931 1946.48 564.039 1948.85C557.69 1952.7 551.836 1957.2 545.582 1961.2C538.384 1965.8 530.849 1969.93 523.214 1973.86C521.686 1973.35 520.089 1972.71 518.455 1972.09C526.794 1967.71 534.912 1962.9 542.856 1957.54ZM408.393 2001.55C412.957 1998.99 418.443 1998.34 423.548 1997.74C434.206 1996.48 445.151 1994.43 455.457 1991.43C467.379 1987.97 478.937 1983.6 490.498 1979.1C495.414 1977.18 499.849 1974.96 504.562 1972.64C508.097 1970.91 511.811 1971.46 515.46 1972.6C510.895 1974.97 506.252 1977.19 501.522 1979.23C479.459 1988.75 456.376 1997.04 432.659 2001.24C422.982 2002.96 413.22 2004.33 403.423 2005.41C404.868 2003.97 406.444 2002.64 408.393 2001.55ZM402.267 2006.61C416.405 2005.13 430.512 2003.1 444.355 2000.06C460.818 1996.45 477.332 1990.57 492.855 1984.08C501.018 1980.67 508.942 1977 516.682 1973C518.31 1973.56 519.918 1974.19 521.487 1974.75C516.447 1977.32 511.37 1979.81 506.32 1982.28C499.496 1985.62 492.653 1988.69 485.391 1990.94C478.731 1993.01 472.515 1996.24 465.767 1997.95C458.629 1999.76 451.657 2002.06 444.665 2004.36C436.912 2006.91 429.341 2007.54 421.343 2008.78C414.08 2009.91 407.155 2011.37 399.764 2011.41C399.164 2011.42 398.564 2011.43 397.964 2011.45C399.479 2009.81 400.836 2008.16 402.267 2006.61ZM206.461 2018.53C211.223 2014.06 216.207 2009.91 221.933 2006.73C228.877 2002.87 237.133 2001.16 244.94 2000.26C260.204 1998.49 274.742 2002.23 289.853 2002.64C303.031 2003 316.244 2005.77 329.34 2007.27C347.465 2009.36 365.04 2009.66 383.208 2008.31C388.993 2007.88 394.79 2007.37 400.582 2006.79C399.451 2008.1 398.338 2009.46 397.111 2010.78C396.915 2010.99 396.864 2011.25 396.904 2011.47C390.535 2011.68 384.165 2012.4 377.796 2012.63C366.827 2013.02 356.543 2014.79 345.576 2013.43C336.868 2012.36 328.218 2010.87 319.518 2009.75C305.648 2007.95 291.705 2006.64 277.781 2005.37C265.371 2004.24 253.69 2003.64 241.4 2006.35C225.998 2009.75 212.797 2016.88 202.055 2027.19C201.366 2026.44 200.675 2025.7 199.986 2024.95C202.068 2022.77 204.225 2020.63 206.461 2018.53Z" fill="#A0A8AC"/>
<path d="M696.347 2105.59C691.349 2100.54 685.817 2096.19 681.237 2090.72C678.758 2087.76 677.7 2085.28 674.557 2083.17C674.512 2083.09 674.418 2083.04 674.299 2083C674.286 2082.99 674.273 2082.98 674.258 2082.97C672.65 2073.45 671.765 2063.84 670.933 2054.19C669.802 2041.06 666.96 2028.85 663.438 2016.16C659.844 2003.21 656.572 1990.17 652.452 1977.36C652.214 1976.63 650.867 1977.14 651.077 1977.78C654.82 1989.41 657.886 2001.22 661.081 2013C664.385 2025.17 667.755 2036.91 669.078 2049.49C670.254 2060.65 671.092 2071.73 672.819 2082.82C667.077 2082.22 661.441 2080.52 655.649 2080.49C651.42 2080.47 651.891 2085.41 651.584 2088.47C649.629 2108.06 645.644 2127.36 643.243 2146.88C643.222 2147.05 643.287 2147.16 643.391 2147.24C642.887 2147.42 642.561 2147.97 643.246 2148.16C655.138 2151.46 667.228 2153.91 679.266 2156.62C683.115 2157.49 686.942 2158.44 690.758 2159.43C690.117 2164.15 687.767 2168.36 685.505 2172.77C682.449 2178.74 679.309 2184.66 675.907 2190.45C663.879 2210.93 646.99 2230.67 626.553 2243.43C626.542 2243.44 626.537 2243.45 626.526 2243.46C626.478 2243.46 626.43 2243.47 626.382 2243.48C613.502 2246.45 600.196 2241.36 587.115 2242.75C577.719 2243.75 568.571 2246.52 559.638 2249.73C559.236 2247.19 558.831 2244.65 558.588 2242.12C557.74 2233.28 558.365 2224.53 556.437 2215.75C556.234 2214.83 555.223 2215.39 555.396 2216.18C557.266 2224.7 557.377 2233.49 557.491 2242.16C557.527 2244.87 557.904 2247.54 558.341 2250.2C554.673 2251.54 551.039 2252.93 547.442 2254.3C534.059 2259.38 520.707 2264.77 507.261 2269.91C504.732 2264.87 502.2 2259.84 499.458 2254.94C499.432 2254.89 499.39 2254.86 499.353 2254.82C499.328 2254.67 499.234 2254.55 499.04 2254.5C492.514 2252.79 485.846 2251.79 479.339 2249.96C471.707 2247.82 464.027 2245.14 456.241 2243.61C442.097 2240.84 427.402 2243.43 413.109 2242.43C397.361 2241.32 381.637 2239.94 365.879 2238.96C358.408 2238.5 350.93 2238.16 343.448 2237.92C335.325 2237.67 327.119 2238.09 319.027 2237.31C303.507 2235.83 289.136 2228.58 275.086 2222.5C268.37 2219.59 261.568 2217.11 254.607 2214.84C247.614 2212.56 242.689 2208.03 238.06 2202.62C235.597 2199.75 232.695 2195.75 228.985 2194.4C225.798 2193.23 223.472 2194.42 220.753 2196.14C213.219 2200.89 206.103 2207 199.756 2213.15C196.336 2216.46 192.704 2219.82 188.12 2221.47C187.983 2221.52 187.87 2221.63 187.778 2221.75C183.97 2218.06 180.177 2214.36 176.349 2210.71C175.856 2210.24 174.551 2210.82 175.157 2211.39C195.619 2230.9 215.759 2253.03 241.9 2265.32C253.465 2270.75 265.58 2273.41 277.916 2275H285.921C284.344 2274.85 282.769 2274.69 281.195 2274.5C258.905 2271.9 239.348 2264.48 221.385 2251.29C209.634 2242.66 199.044 2232.65 188.593 2222.54C197.148 2219.21 203.169 2210.95 210.288 2205.49C214.141 2202.54 217.79 2199.33 221.913 2196.73C227.929 2192.94 232.419 2198.32 236.169 2202.62C239.385 2206.3 242.485 2209.91 246.606 2212.67C252.289 2216.47 259.62 2217.8 265.95 2220.25C280.003 2225.67 293.305 2232.82 307.962 2236.67C322.321 2240.44 337.763 2238.95 352.487 2239.58C368.119 2240.25 383.722 2241.5 399.317 2242.71C406.807 2243.29 414.293 2244.02 421.808 2244.06C429.602 2244.11 437.382 2243.59 445.177 2243.82C460.783 2244.3 475.369 2251.13 490.562 2254.06C493.196 2254.57 495.814 2255.09 498.404 2255.77C498.442 2255.78 498.478 2255.77 498.516 2255.77C501.187 2260.57 503.719 2265.43 506.218 2270.31C502.029 2271.9 497.831 2273.47 493.619 2275H496.129C497.107 2274.63 498.086 2274.27 499.06 2273.89C501.57 2272.94 504.076 2271.98 506.585 2271.02C507.263 2272.35 507.943 2273.67 508.62 2275H509.828C509.09 2273.54 508.355 2272.09 507.622 2270.63C519.485 2266.1 531.341 2261.56 543.229 2257.08C548.316 2255.17 553.403 2253.2 558.534 2251.36C559.321 2256.03 560.162 2260.68 559.546 2265.5C550.096 2266.54 542.001 2269.97 534.562 2275H537.01C543.738 2270.65 551.097 2267.53 559.815 2266.57C559.87 2266.56 559.906 2266.54 559.953 2266.53C560.223 2266.64 560.527 2266.53 560.593 2266.06C561.09 2262.44 560.885 2258.84 560.441 2255.24C560.613 2255.4 560.837 2255.52 561.066 2255.5C563.171 2255.32 565.455 2255.38 567.702 2255.31C567.551 2261.86 568.315 2268.59 567.804 2275H569.477C569.88 2268.42 568.983 2261.51 569.129 2255.25C570.41 2255.17 571.667 2255.03 572.85 2254.73C574.818 2254.25 577.628 2252.89 579.524 2254.4C581.667 2256.1 582.531 2259.23 583.5 2261.65C585.262 2266.07 586.891 2270.54 588.558 2275H589.879C588.592 2271.57 587.324 2268.14 586.026 2264.72C584.529 2260.77 583.336 2256.85 580.402 2253.7C579.246 2252.46 577.662 2252.42 576.095 2252.66C573.698 2253.02 571.334 2253.3 568.967 2253.55C568.599 2253.22 567.866 2253.17 567.777 2253.67C565.398 2253.91 563.013 2254.12 560.582 2254.33C560.477 2254.34 560.398 2254.36 560.333 2254.39C560.179 2253.23 560.004 2252.06 559.822 2250.9C568.22 2247.94 576.747 2245.37 585.605 2244.04C598.465 2242.1 611.039 2246.68 623.852 2245.09C628.518 2244.51 632.023 2254.1 634.26 2257.67C637.472 2262.79 641.038 2267.63 645.182 2272.07C646.103 2273.05 647.053 2274.03 648.01 2275H649.954C648.749 2273.79 647.552 2272.59 646.371 2271.38C638.581 2263.41 633.394 2253.4 627.525 2244.08C646.273 2232.25 661.186 2215 673.307 2196.84C676.693 2191.77 679.661 2186.43 682.542 2181.07C685.614 2175.36 689.118 2169.53 691.331 2163.45C691.763 2162.26 692.026 2161.04 692.172 2159.8C700.962 2162.12 709.69 2164.69 718.437 2167.15C731.035 2170.69 743.613 2174.29 756.235 2177.75C765.844 2180.39 776.182 2181.83 785.495 2185.5C785.314 2185.65 785.134 2185.81 784.953 2185.97C778.017 2191.85 769.238 2198.51 766.365 2207.47C766.334 2207.46 766.303 2207.44 766.271 2207.43C765.403 2207.14 765.163 2208.19 766.007 2208.48C766.022 2208.49 766.037 2208.49 766.053 2208.5C766.038 2208.55 766.019 2208.6 766.005 2208.66C765.976 2208.77 765.999 2208.87 766.04 2208.97C765.781 2208.89 765.453 2208.91 765.217 2209.1C755.734 2217.05 746.936 2225.72 738.317 2234.56C729.361 2243.73 720.888 2253.64 711.114 2262C705.972 2266.39 700.671 2270.49 695.753 2275H697.287C698.251 2274.12 699.224 2273.25 700.213 2272.4C703.289 2273.27 706.366 2274.13 709.444 2275H714.147C709.893 2273.8 705.639 2272.6 701.386 2271.41C703.623 2269.52 705.909 2267.68 708.21 2265.85C718.685 2257.5 727.549 2247.38 736.806 2237.8C746.213 2228.07 755.803 2218.5 766.202 2209.78C766.371 2209.64 766.431 2209.5 766.43 2209.38C766.785 2209.57 767.242 2209.58 767.348 2209.16C767.359 2209.12 767.375 2209.08 767.386 2209.04C771.585 2210.94 775.138 2214.4 779.882 2214.84C783.051 2215.14 785 2211.38 786.338 2209.25C789.149 2204.75 791.66 2200.45 795.026 2196.3C796.053 2195.04 797.102 2193.78 798.142 2192.52C800.816 2194.39 803.436 2196.35 806.123 2198.18C811.164 2201.61 816.657 2204.47 821.783 2207.79C832.754 2214.9 841.34 2223.99 850.819 2232.77C859.572 2240.89 869.417 2247.47 879.739 2253.51C884.623 2256.37 889.673 2259.08 894.908 2261.27C901.269 2263.92 907.894 2265.13 913.675 2269.03C912.75 2271 911.857 2272.99 911.002 2275H912.211C913.025 2273.12 913.869 2271.26 914.741 2269.4C915.088 2269.33 915.375 2269.09 915.328 2268.82C918.149 2270.8 920.857 2272.86 923.476 2275H926C922.592 2272.26 919.086 2269.65 915.49 2267.18C915.376 2266.86 915.118 2266.63 914.872 2266.74C914.828 2266.71 914.785 2266.68 914.741 2266.65C914.221 2266.3 913.493 2267.08 913.675 2267.57C909.599 2265.03 905.15 2263.52 900.529 2262.03C894.073 2259.94 888.132 2256.88 882.245 2253.57C870.844 2247.16 860.273 2239.79 850.716 2230.93C841.989 2222.84 834.169 2214.64 824.205 2207.92C819.108 2204.49 813.787 2201.37 808.513 2198.2C805.173 2196.2 802.041 2193.89 798.865 2191.64C802.468 2187.24 805.864 2182.71 807.678 2177.26C807.743 2177.06 807.598 2176.83 807.44 2176.72C805.515 2175.41 803.511 2174.23 801.458 2173.12C806.45 2168.36 811.251 2163.41 815.679 2158.17C816.137 2157.62 814.918 2156.84 814.448 2157.39C809.999 2162.66 805.175 2167.64 800.146 2172.42C790.845 2167.59 780.597 2164.21 771.515 2159.01C757.952 2151.23 746.261 2140.71 733.038 2132.42C720.194 2124.37 707.025 2116.39 696.347 2105.59ZM690.875 2158.31C688.882 2157.79 686.887 2157.28 684.885 2156.8C671.32 2153.51 657.59 2150.97 644.13 2147.25C644.402 2147.15 644.638 2146.95 644.67 2146.69C646.731 2129.92 650.356 2113.37 651.978 2096.55C652.277 2093.47 652.798 2090.41 653.103 2087.33C653.498 2083.4 653.405 2081.35 657.844 2081.74C662.936 2082.18 667.91 2083.54 672.999 2084C675.001 2096.37 678.71 2108.44 682.183 2120.46C685.393 2131.58 689.228 2143.09 690.768 2154.55C690.941 2155.85 690.966 2157.1 690.875 2158.31ZM785.617 2207.68C783.298 2211.61 781.522 2215.1 776.054 2212.61C773.14 2211.29 770.618 2209.31 767.707 2208.01C770.615 2198.89 779.634 2192.21 786.963 2186.1C788.968 2186.95 790.923 2187.91 792.803 2189.03C794.251 2189.89 795.661 2190.82 797.055 2191.77C792.969 2196.96 789.015 2201.93 785.617 2207.68ZM800.529 2174C800.923 2174.19 801.321 2174.37 801.712 2174.57C806.282 2176.88 806.229 2178.03 803.836 2182.39C802.521 2184.8 800.796 2186.99 799.114 2189.15C798.663 2189.73 798.214 2190.3 797.764 2190.87C796.461 2189.96 795.146 2189.07 793.799 2188.22C791.945 2187.06 790.01 2186.07 788.018 2185.21C788.266 2185 788.52 2184.79 788.763 2184.58C792.747 2181.14 796.689 2177.62 800.529 2174ZM763.345 2155.18C771.245 2160.53 779.795 2164.99 788.592 2168.74C792.132 2170.25 795.687 2171.71 799.165 2173.34C795.053 2177.21 790.818 2180.95 786.54 2184.61C778.272 2181.33 769.126 2180.04 760.576 2177.78C747.32 2174.26 734.148 2170.41 720.951 2166.7C711.396 2164.01 701.87 2161.19 692.269 2158.67C692.452 2155.6 691.957 2152.46 691.331 2149.48C689.992 2143.15 688.22 2136.83 686.531 2130.58C683.069 2117.74 678.988 2105.08 676.052 2092.11C675.483 2089.61 674.997 2087.09 674.549 2084.57C676.165 2085.84 677.225 2087.24 678.473 2089.12C680.821 2092.65 683.913 2095.72 687.003 2098.62C694.564 2105.71 702.02 2112.85 710.436 2118.97C718.814 2125.07 727.821 2130.23 736.463 2135.93C745.667 2142.01 754.21 2149 763.345 2155.18Z" fill="#A0A8AC"/>
</svg>
