<svg width="637" height="678" viewBox="0 0 637 678" fill="none" xmlns="http://www.w3.org/2000/svg">
<path d="M616.449 57.8496C623.988 52.9356 631.082 47.4166 636.162 39.8916C636.438 39.4826 636.723 39.0796 637.001 38.6716V37.4806C635.381 39.7816 633.722 42.0476 631.9 44.1806C622.892 54.7296 609.426 60.4076 598.703 68.8996C595.202 71.6706 591.886 74.6546 588.655 77.7376C582.832 74.1336 577.012 70.5286 571.441 66.5296C563.304 60.6916 556.691 53.1776 548.724 47.1276C540.135 40.6066 531.387 34.6056 524.926 25.8096C518.635 17.2436 514.871 7.40862 506.883 0.100624C506.531 -0.222376 505.687 0.304623 506.076 0.661623C513.584 7.53262 517.703 16.7196 523.223 25.0816C528.926 33.7206 537.291 39.8436 545.504 45.8996C554.016 52.1756 561.104 59.9216 569.518 66.2796C575.382 70.7106 581.648 74.5856 587.923 78.4306C581.534 84.5856 575.498 91.1386 569.235 97.3796C558.948 107.629 547.177 115.674 535.889 124.722C523.843 134.377 512.354 144.703 500.407 154.477C495.574 158.43 490.668 162.292 485.738 166.127C474.967 160.43 464.551 154.169 453.837 148.338C443.87 142.913 433.622 142.321 423.263 146.887C412.181 151.771 403.438 160.738 392.716 166.284C380.861 172.419 368.891 178.409 357.226 184.915C357.179 184.815 357.128 184.721 357.083 184.619C356.834 184.046 356.194 184.722 356.392 185.164C356.418 185.222 356.451 185.271 356.477 185.329C354.721 186.312 352.973 187.308 351.233 188.317C338.961 195.442 327.747 204.512 316.429 213.038C314.17 214.739 311.91 216.437 309.645 218.131C309.047 217.238 308.462 216.308 307.892 215.289C304.595 209.397 301.535 203.321 298.49 197.294C295.609 191.592 290.275 187.086 290.513 180.169C290.534 179.544 289.65 179.795 289.635 180.282C289.463 185.268 292.114 189.371 294.789 193.395C298.304 198.683 301.068 204.386 304.02 210.004C305.564 212.941 307.012 215.965 308.773 218.781C307.405 219.802 306.033 220.82 304.661 221.834C304.608 221.655 304.544 221.482 304.494 221.303C304.354 220.8 303.522 221.352 303.649 221.811C303.709 222.023 303.783 222.228 303.845 222.438C295.892 228.298 287.839 234.017 279.515 239.348C266.832 247.469 253.258 253.899 239.769 260.534C225.638 267.48 211.515 274.445 197.679 281.966C183.855 289.478 170.998 298.886 156.22 304.456C149.701 306.912 143.033 308.937 136.523 311.408C129.146 314.208 121.992 317.609 114.679 320.574C100.677 326.255 86.6381 329.356 71.8281 332.052C62.0431 333.834 52.211 336.275 42.293 337.121C35.666 337.684 29.022 337.884 22.451 338.98C10.574 340.962 1.94506 347.367 0.443062 359.794C0.368062 360.405 1.23701 360.026 1.29401 359.559C4.23701 335.221 33.2701 340.07 50.8701 336.832C65.6221 334.12 80.807 332.165 95.269 328.198C109.552 324.282 122.778 317.684 136.505 312.29C149.737 307.09 163.151 303.612 175.286 295.936C188.483 287.588 202.288 280.227 216.194 273.143C242.794 259.594 269.764 247.588 294.26 230.336C297.566 228.008 300.835 225.63 304.091 223.232C306.017 229.289 309.227 234.767 312.116 240.415C315.296 246.623 317.939 253.116 320.72 259.508C326.634 273.097 332.29 286.651 337.646 300.48C337.839 300.977 338.665 300.419 338.491 299.972C333.137 286.143 327.573 272.553 321.564 259C318.732 252.616 316.046 246.174 312.96 239.907C310.134 234.166 306.843 228.736 304.905 222.625C306.337 221.567 307.764 220.503 309.189 219.437C309.987 220.661 310.844 221.845 311.813 222.952C315.468 227.127 321.255 228.532 323.737 233.709C330.142 247.083 335.366 261.063 341.911 274.424C348.471 287.81 355.687 300.674 359.655 315.156C359.792 315.656 360.61 315.085 360.485 314.627C356.888 301.502 350.81 289.283 344.485 277.294C340.989 270.67 338.046 263.784 335.124 256.894C332.383 250.423 330.016 243.445 326.633 237.32C324.532 233.513 323.534 230.226 319.786 227.83C315.603 225.156 312.647 222.443 310.077 218.778C316.55 213.931 322.983 209.033 329.476 204.217C338.373 197.617 347.458 191.673 356.911 186.182C358.958 190.009 362.235 192.294 365.576 195.12C371.176 199.851 375.205 206.113 380.433 211.221C384.574 215.267 388.771 219.372 393.084 223.229C394.981 224.928 398.709 229.351 401.377 229.575C403.154 229.724 405.324 228.22 406.773 227.417C410.038 225.61 413.122 223.466 416.171 221.332C423.562 216.164 430.681 210.59 437.663 204.886C453.421 192.009 469.701 179.791 485.726 167.247C489.165 168.99 492.638 170.657 496.13 172.276C492.335 176.985 488.339 181.53 484.59 186.276C483.038 188.241 480.555 191.148 480.645 193.887C480.76 197.299 483.799 200.832 485.583 203.552C488.938 208.668 492.692 213.52 496.288 218.466C504.319 229.519 511.392 242.048 516.999 254.492C518.367 257.531 520.018 259.867 522.545 261.947C519.455 265.185 515.983 268.025 512.353 270.639C511.97 270.915 512.308 271.82 512.782 271.479C516.515 268.791 520.089 265.872 523.245 262.517C525.703 264.422 527.881 266.316 529.846 268.747C531.456 270.736 532.94 273.257 535.059 274.762C535.287 274.924 535.525 275.069 535.768 275.2C536.974 280.189 539.521 284.505 540.262 289.682C541.162 295.971 542.975 301.936 543.469 308.325C543.908 314.013 543.559 319.723 543.992 325.415C544.43 331.151 546.51 336.512 548.279 341.935C550.168 347.724 553.062 353.182 555.463 358.766C558.152 365.029 559.477 371.434 560.065 378.201C561.088 390.017 562.123 402.024 562.59 413.867C562.804 419.315 562.68 424.524 565.377 428.6C562.618 433.366 560.048 438.052 557.655 443.029C556.183 446.086 554.673 449.05 553.554 452.262C552.427 455.506 552.408 459.072 551.985 462.449C551.626 465.292 550.247 467.828 549.114 470.414C548.853 471.006 548.157 472.307 548.382 473.047C549.477 476.658 553.153 477.933 556.352 479.287C563.44 482.287 565.741 488.507 569.419 494.701C573.661 501.839 578.659 508.07 579.413 516.665C580.064 524.131 579.411 531.683 579.53 539.165C579.644 546.58 581.177 553.91 581.605 561.31C582.476 576.346 582.043 591.875 581.591 606.927C581.255 618.128 578.396 632.562 586.261 641.856C589.933 646.196 595.097 648.971 598.825 653.321C603.276 658.514 605.179 665.8 608.376 671.778C609.206 673.334 610.542 677.507 612.876 677.665C618.981 678.073 625.493 676.274 631.647 676.081C633.425 676.025 635.209 675.976 636.996 675.93V675.055C631.922 675.086 626.934 675.346 621.926 675.823C621.939 663.183 622.562 649.499 617.528 637.687C616.376 634.986 615.001 632.404 613.618 629.828C614.017 629.674 614.415 629.509 614.808 629.333C615.036 629.23 615.169 628.944 615.132 628.704C613.821 620.151 610.378 612.114 609.314 603.516C608.079 593.536 609.228 582.746 609.425 572.704C609.825 552.431 610.689 532.168 611.794 511.921C612.321 502.261 612.747 492.629 614.251 483.061C614.752 479.868 615.371 476.695 616.059 473.536C619.631 474.764 623.088 476.507 626.457 477.971C626.895 478.162 627.5 477.369 627.013 477.159C623.535 475.649 619.959 473.843 616.262 472.599C617.152 468.603 618.157 464.631 619.229 460.681C624.703 463.422 630.246 466.021 635.88 468.425C636.25 468.583 636.625 468.731 636.996 468.886V467.889C631.053 465.426 625.222 462.69 619.475 459.79C620.053 457.675 620.645 455.565 621.247 453.461C625.587 438.305 632.689 424.124 636.996 408.996V406.147C632.443 424.158 623.89 440.983 618.921 458.903C618.871 459.081 618.826 459.259 618.776 459.437C616.523 458.294 614.284 457.125 612.053 455.939C614.3 442.943 616.95 430.016 619.766 417.18C624.047 397.66 633.288 379.623 636.995 360.17V354.024C634.249 376.933 622.803 397.945 618.026 420.513C615.563 432.144 613.25 443.804 611.236 455.508C609.626 454.649 608.02 453.783 606.42 452.909C595.637 447.015 585.094 440.688 574.52 434.43C571.525 432.657 568.369 431.163 566.298 428.652C566.314 428.624 566.329 428.595 566.346 428.567C566.591 428.158 566.096 427.356 565.783 427.893C565.775 427.907 565.767 427.921 565.759 427.935C565.098 426.973 564.586 425.869 564.285 424.56C563.088 419.367 563.359 413.727 563.102 408.434C562.832 402.841 561.867 397.313 561.535 391.719C561.201 386.069 561.074 380.418 560.492 374.784C559.316 363.411 553.65 353.752 549.572 343.277C547.343 337.551 545.384 331.437 544.736 325.325C544.133 319.665 544.545 313.918 544.213 308.235C543.904 302.958 542.963 297.755 541.66 292.638C541.023 290.139 541.009 287.332 540.172 284.889C539.754 283.663 539.256 282.471 538.752 281.282C538.756 281.282 538.758 281.282 538.761 281.282C549.011 279.536 559.499 280.259 569.647 277.797C569.885 277.739 570.12 277.681 570.356 277.623C570.486 279.899 570.692 282.169 571.013 284.442C571.101 285.056 571.855 284.488 571.788 284.018C571.478 281.821 571.277 279.627 571.152 277.427C575.693 276.308 580.019 275.224 584.799 275.09C586.325 275.047 587.851 275.11 589.374 275.22C589.042 277.188 588.577 279.161 587.878 281.154C585.46 288.04 581.51 294.362 577.907 300.669C574.001 307.506 572.008 315.383 567.745 321.974C564.883 326.399 561.946 331.501 562.243 336.932C562.272 337.471 563.252 337.336 563.225 336.863C562.895 330.819 566.616 325.224 569.813 320.39C572.985 315.594 574.496 309.563 576.997 304.268C576.968 304.539 577.138 304.792 577.503 304.629C588.169 299.855 599.893 299.392 611.026 296.206C619.467 293.79 628.215 292.331 636.995 291.707V290.832C628.228 291.502 619.549 293.019 611.04 295.32C599.812 298.358 588.003 299.042 577.301 303.832C577.251 303.854 577.211 303.887 577.173 303.921C577.454 303.34 577.736 302.76 578.047 302.201C583.041 293.209 587.951 284.87 590.247 275.283C593.384 275.55 596.515 276.012 599.637 276.296C608.629 277.113 617.592 277.912 626.531 279.201C629.85 279.68 633.463 280.155 636.996 280.951V280.19C634.916 279.738 632.83 279.378 630.821 279.031C621.762 277.469 612.649 276.664 603.501 275.832C599.059 275.428 594.717 274.903 590.393 274.651C591 271.962 591.413 269.178 591.548 266.247C591.691 263.168 592.09 260.276 592.646 257.424C594.743 257.405 596.84 257.358 598.937 257.391C602.564 257.45 601.515 261.353 601.191 263.798C600.849 266.388 600.976 266.451 603.558 266.709C605.162 266.867 609.183 267.647 610.398 265.904C610.904 265.181 611.146 264.033 611.124 263.173C610.995 258.795 612.609 256.506 615.044 253.111C615.413 252.596 615.359 251.293 615.404 250.704C615.527 249.122 615.523 247.642 615.792 246.056C616.438 242.224 620.265 242.046 622.89 242.625C627.343 243.607 631.149 247.768 634.776 250.309C635.498 250.815 636.24 251.248 636.998 251.629V250.252C635.512 249.495 634.053 248.577 632.595 247.458C629.193 244.85 619.566 237.129 615.865 243.942C615.261 245.055 614.878 246.088 614.767 247.382C614.455 251.094 613.802 253.605 611.431 256.619C610.24 258.132 610.122 258.856 610.152 260.746C610.24 266.427 606.634 266.021 602.755 265.684C601.037 265.537 603.14 258.843 601.956 257.136C600.812 255.486 595.164 256.283 592.835 256.468C593.468 253.423 594.276 250.408 595.164 247.252C596.666 241.918 598.055 235.649 602.252 231.728C606.848 227.436 616.195 227.749 622.041 227.386C627.081 227.073 632.128 226.79 636.999 225.393V224.616C625.759 227.908 613.147 225 602.514 230.583C599.009 232.421 597.346 237.379 596.134 240.797C594.18 246.318 592.19 252.35 591.186 258.114C590.207 263.74 590.32 269.151 589.476 274.6C584.581 274.362 579.701 274.511 574.709 275.633C573.495 275.906 572.299 276.175 571.107 276.44C571.048 275.177 571.01 273.913 571.002 272.642C572.628 272.242 574.176 271.642 575.522 270.687C578.891 268.296 581.001 262.631 583.145 259.219C586.297 254.2 588.426 249.176 590.999 243.866C593.636 238.417 595.175 232.302 599.665 227.984C604.52 223.316 614.079 223.866 620.319 223.213C625.868 222.632 631.43 222.204 637 221.895V220.932C628.952 221.385 620.922 222.106 612.906 223.047C607.908 223.633 603.268 223.938 599.256 227.199C596.153 229.721 594.476 233.869 592.944 237.43C588.382 248.053 583.465 257.966 576.998 267.576C573.735 272.425 567.377 272.316 562.096 272.608C557.305 272.874 552.787 273.358 548.064 274.245C545.267 274.77 542.488 275.149 539.633 275.109C536.17 275.061 534.112 272.687 532.112 270.196C528.729 265.974 525.088 263.199 521.199 259.537C517.301 255.865 515.703 249.361 513.18 244.762C509.942 238.853 506.576 232.951 503.186 227.13C497.537 217.422 489.873 209.021 484.002 199.443C482.645 197.226 480.873 194.861 481.779 192.187C482.439 190.242 483.925 188.486 485.152 186.879C488.882 181.993 493.041 177.424 496.894 172.631C505.741 176.716 514.686 180.576 523.421 184.925C535.839 191.108 547.759 198.92 561.856 200.197C568.892 200.835 575.956 200.302 582.993 201.053C591.019 201.907 598.717 204.411 606.676 205.531C616.759 206.948 626.886 208.033 636.999 209.214V208.242C633.204 207.784 629.405 207.345 625.605 206.914C617.517 205.998 609.298 205.31 601.349 203.527C594.146 201.91 586.953 200.42 579.589 199.793C572.164 199.16 564.755 199.82 557.347 198.726C549.919 197.628 543.265 193.909 536.652 190.569C523.597 183.972 510.28 178.107 497.097 171.822C497.017 171.691 496.889 171.616 496.744 171.654C496.045 171.321 495.346 170.991 494.647 170.655C491.928 169.345 489.25 167.971 486.586 166.573C491.819 162.469 497.026 158.331 502.176 154.119C514.123 144.345 525.621 134.035 537.668 124.38C548.934 115.35 560.461 107.27 570.73 97.0376C576.758 91.0296 582.594 84.8316 588.717 78.9206C591.352 80.5346 593.986 82.1476 596.589 83.7966C605.796 89.6306 614.265 96.5096 623.212 102.726C627.77 105.893 632.382 108.979 636.996 112.062V110.907C633.116 108.318 629.236 105.728 625.388 103.094C615.882 96.5866 606.937 89.3266 597.234 83.1116C594.651 81.4566 592.046 79.8406 589.439 78.2276C590.174 77.5236 590.894 76.8056 591.639 76.1126C599.273 69.0116 607.757 63.5146 616.449 57.8496ZM462.289 184.137C446.41 196.312 431.394 209.637 414.984 221.115C411.406 223.617 407.73 226.169 403.732 227.955C399.41 229.886 393.734 222.693 390.926 219.918C385.158 214.221 379.088 208.876 373.91 202.603C371.44 199.61 368.846 196.887 366.018 194.241C362.945 191.364 359.698 189.435 357.653 185.753C361.595 183.478 365.597 181.272 369.686 179.143C381.686 172.893 394.022 167.238 405.092 159.396C416.553 151.277 428.241 142.27 443.137 145.21C449.874 146.541 455.885 150.555 461.653 154.071C468.387 158.178 475.393 161.843 482.368 165.526C483.197 165.964 484.035 166.38 484.869 166.806C477.374 172.624 469.817 178.365 462.289 184.137ZM612.629 488.86C611.104 500.397 610.957 512.213 610.375 523.829C609.266 546.036 608.561 568.263 608.373 590.497C608.336 594.958 608.176 599.444 608.521 603.895C608.917 608.997 610.623 613.993 612.035 618.876C612.68 621.103 613.244 623.342 613.744 625.605C614.104 627.237 613.803 628.228 613.114 628.876C611.444 625.764 609.802 622.639 608.564 619.302C605.97 612.304 605.054 604.731 604.671 597.324C603.907 582.512 604.46 567.49 604.528 552.66C604.6 536.857 604.964 521.056 605.977 505.283C606.691 494.177 607.914 483.095 609.498 472.056C611.488 472.224 613.442 472.675 615.361 473.294C614.252 478.444 613.321 483.63 612.629 488.86ZM611.897 456.893C614.101 458.059 616.312 459.209 618.539 460.33C617.455 464.321 616.458 468.332 615.57 472.366C613.626 471.755 611.647 471.317 609.631 471.171C610.322 466.404 611.083 461.644 611.897 456.893ZM565.912 429.334C566.706 430.355 567.696 431.3 568.953 432.146C579.256 439.075 590.496 445.009 601.307 451.108C604.542 452.933 607.8 454.717 611.078 456.461C610.244 461.351 609.463 466.248 608.749 471.154C608.356 471.307 608.063 471.976 608.562 471.994C608.584 471.995 608.606 471.997 608.627 471.998C606.867 484.222 605.514 496.503 604.763 508.863C602.987 538.158 602.638 567.984 603.687 597.314C603.935 604.249 605.04 611.109 607.056 617.746C608.309 621.863 610.264 625.66 612.287 629.427C611.164 629.969 609.597 630.148 608.052 630.471C603.62 631.401 599.12 631.776 594.769 633.089C594.327 633.223 594.165 634.193 594.708 634.029C600.582 632.257 606.889 632.157 612.682 630.16C613.518 631.708 614.357 633.256 615.159 634.82C621.591 647.366 620.954 662.154 620.947 675.923C619.537 676.065 618.127 676.214 616.71 676.391C613.602 676.778 612.025 676.754 610.366 673.78C608.232 669.962 606.095 666.082 604.556 661.981C602.943 657.684 600.663 653.94 597.536 650.592C593.03 645.768 587.016 642.889 583.852 636.833C580.565 630.544 581.778 620.933 582.042 614.087C582.352 606.149 582.439 598.24 582.439 590.296C582.439 575.481 582.536 560.94 580.79 546.212C579.173 532.577 583.161 517.839 576.771 505.162C573.878 499.424 569.927 494.249 566.898 488.57C564.579 484.22 562.128 480.917 557.571 478.775C555.288 477.701 548.105 475.771 549.415 471.797C550.134 469.613 551.302 467.566 552.114 465.41C553.021 463.001 553.011 460.197 553.273 457.667C553.753 453.052 555.554 449.065 557.589 444.973C560.242 439.641 562.945 434.484 565.912 429.334ZM548.104 275.227C553.264 274.314 558.184 273.809 563.411 273.52C565.588 273.4 567.952 273.273 570.207 272.813C570.217 274.084 570.254 275.35 570.312 276.612C565.319 277.708 560.435 278.652 555.174 278.992C549.656 279.349 544.174 279.577 538.715 280.507C538.618 280.524 538.543 280.565 538.479 280.613C537.785 278.969 537.115 277.318 536.646 275.589C540.124 276.912 544.72 275.826 548.104 275.227Z" fill="#A1A9AC"/>
</svg>
