<svg width="1920" height="500" viewBox="0 0 1920 500" fill="none" xmlns="http://www.w3.org/2000/svg">
<mask id="mask0_53_1677" style="mask-type:luminance" maskUnits="userSpaceOnUse" x="0" y="0" width="1920" height="500">
<path d="M1920 0H0V500H1920V0Z" fill="white"/>
</mask>
<g mask="url(#mask0_53_1677)">
<path d="M1194.98 -34.5018C1224.6 -31.7808 1253.2 -22.0688 1280.33 -10.2408C1307.01 1.39219 1331.44 16.8432 1357.27 30.0862C1384.56 44.0802 1413.08 55.4592 1441.15 67.7672C1455.19 73.9262 1469.11 80.3792 1482.73 87.4292C1496.1 94.3502 1509.96 100.315 1523.29 107.358C1537.12 114.666 1550.73 122.522 1563.61 131.422C1574.68 139.075 1585.83 146.623 1597.46 153.402C1622.2 167.819 1649.76 175.857 1676.47 185.759C1704.54 196.166 1732.59 206.72 1761.46 214.725C1789.63 222.536 1818.23 227.067 1847.46 227.558C1860.95 227.784 1874.43 228.729 1887.88 229.742C1901.53 230.769 1915.45 231.254 1929.03 233.056C1957.69 236.864 1986.4 240.176 2014.84 245.471C2015.39 245.573 2015.8 244.887 2015.16 244.766C1957.1 233.961 1898.16 228.525 1839.2 226.688C1778.32 224.792 1721.19 201.35 1664.81 180.632C1650.29 175.295 1635.41 170.702 1621.2 164.574C1608.75 159.207 1596.96 152.447 1585.54 145.17C1573.3 137.364 1561.61 128.734 1549.22 121.137C1536.25 113.177 1522.78 106.021 1509.17 99.2092C1482 85.6102 1454.52 72.6062 1426.6 60.6082C1398.28 48.4342 1369.85 36.4552 1342.84 21.5012C1319.28 8.44919 1296.16 -4.68481 1271.18 -14.9658C1246.87 -24.9678 1221.29 -32.8388 1195.02 -35.2508C1194.4 -35.3078 1194.36 -34.5588 1194.98 -34.5018Z" fill="#A1A9AC"/>
<path d="M1299.13 -5.91583C1306.16 -4.49683 1311.24 0.979174 1317.93 3.21517C1325.55 5.75917 1332.72 9.16717 1340.05 12.4122C1353.8 18.4962 1366.57 26.4182 1380.39 32.2792C1393.66 37.9082 1407.46 42.2102 1420.68 47.9762C1434.59 54.0432 1447.43 62.3302 1461.26 68.6362C1475.45 75.1022 1490 80.7452 1504.29 86.9932C1517.77 92.8902 1530.48 99.8682 1543.5 106.698C1557.2 113.89 1571.55 119.92 1585.4 126.859C1599.11 133.732 1612.21 141.52 1625.37 149.385C1638.18 157.043 1651.22 164.348 1665.14 169.792C1679.19 175.285 1693.96 179.351 1708.37 183.803C1738.24 193.036 1768.71 199.983 1798.74 208.64C1813.78 212.975 1828.54 215.408 1844.15 216.255C1859.91 217.11 1875.68 217.67 1891.46 217.997C1908.02 218.34 1924.58 217.868 1941.07 219.639C1956.64 221.309 1972.03 224.272 1987.57 226.132C1995.74 227.111 2003.95 227.67 2012.18 227.719C2012.66 227.722 2012.96 226.854 2012.34 226.85C1980.84 226.665 1950.21 217.587 1918.71 217.402C1901.87 217.303 1885.04 217.071 1868.21 216.463C1852.25 215.887 1835.98 215.786 1820.24 212.944C1805.36 210.258 1791.01 205.238 1776.49 201.153C1761.37 196.899 1745.96 193.758 1730.83 189.493C1715.44 185.153 1700.19 180.316 1684.97 175.419C1669.84 170.551 1655.5 165.146 1641.5 157.548C1628.38 150.426 1615.94 142.136 1602.88 134.92C1588.87 127.179 1574.39 120.302 1559.93 113.444C1546.79 107.21 1534.14 100.253 1521.2 93.6252C1507.54 86.6332 1493.04 81.1462 1478.9 75.2242C1464.59 69.2302 1450.41 62.9262 1436.95 55.1882C1424.24 47.8862 1410.68 42.7502 1396.97 37.6852C1390.53 35.3092 1384.13 32.8712 1377.84 30.1402C1370.73 27.0562 1364.21 23.0542 1357.37 19.4512C1350.84 16.0072 1344.02 13.1232 1337.27 10.1282C1330.06 6.92417 1322.41 4.47017 1315.3 1.14917C1309.87 -1.38583 1305.53 -5.56183 1299.51 -6.77883C1299.05 -6.87283 1298.56 -6.03083 1299.13 -5.91583Z" fill="#A1A9AC"/>
<path d="M1576.61 131.434C1588.69 134.642 1597.55 145.585 1607.98 152.026C1613.3 155.313 1619.18 157.676 1624.98 159.972C1632.38 162.905 1639.55 166.115 1646.82 169.354C1659.62 175.059 1673.11 179.136 1686.54 183.05C1701.44 187.391 1716.15 192.171 1730.88 197.078C1746.3 202.218 1761.74 207.309 1777.32 211.945C1791.78 216.249 1806.48 218.479 1821.51 219.514C1836.86 220.571 1852.3 220.154 1867.62 221.541C1882.76 222.913 1897.58 224.92 1912.82 225.127C1931.8 225.384 1951.02 227.167 1969.79 230.015C1989.07 232.941 2008.14 237.217 2027.69 237.966C2028.31 237.989 2028.37 237.242 2027.75 237.218C2011.97 236.614 1996.46 233.788 1980.93 231.098C1965.58 228.438 1950.14 226.702 1934.62 225.43C1919.45 224.188 1904.22 224.78 1889.07 223.222C1873.94 221.665 1859.09 220.21 1843.88 219.736C1827.87 219.238 1811.87 218.578 1796.07 215.761C1780.31 212.95 1764.96 207.463 1749.77 202.517C1734.27 197.469 1718.84 192.2 1703.33 187.164C1689.58 182.699 1675.54 179.263 1661.89 174.462C1653.13 171.383 1645.01 167.15 1636.48 163.64C1628.61 160.409 1620.58 157.658 1612.96 153.861C1605.73 150.259 1599.62 145.313 1593.4 140.235C1588.44 136.179 1583.2 132.398 1576.92 130.733C1576.38 130.587 1575.97 131.265 1576.61 131.434Z" fill="#A1A9AC"/>
<path d="M1257.27 109.134C1271.52 108.885 1285.3 103.936 1299.07 100.707C1312.65 97.5199 1325.23 93.8969 1337.43 86.9718C1361.44 73.3448 1390.38 66.3448 1417.9 66.1858C1431.77 66.1058 1445.6 65.9358 1459.38 64.1418C1473.57 62.2938 1486.65 57.8919 1500.01 52.9649C1529.76 41.9889 1560.05 32.4558 1589.04 19.5079C1602.07 13.6879 1615.29 8.65085 1628.47 3.19485C1640.65 -1.85015 1651.88 -8.78915 1663.21 -15.4672C1676.08 -23.0512 1689.64 -29.3382 1702.55 -36.8292C1714.58 -43.8032 1725.46 -52.5632 1737.67 -59.2602C1738.22 -59.5612 1737.54 -60.1782 1737.11 -59.9452C1723.81 -52.6512 1711.92 -43.1332 1698.74 -35.6462C1685.75 -28.2682 1672.28 -21.8562 1659.41 -14.2412C1645.8 -6.18115 1632.26 1.04585 1617.42 6.61885C1602.85 12.0919 1588.93 18.8708 1574.55 24.7928C1559.93 30.8118 1545.02 36.0958 1530.12 41.3488C1515.23 46.5968 1500.48 52.3678 1485.52 57.3908C1471.07 62.2438 1455.89 64.2309 1440.72 64.9958C1427.26 65.6758 1413.79 64.9778 1400.37 66.4668C1377.99 68.9488 1354.97 75.6948 1335.46 87.0878C1323.52 94.0609 1310.44 97.2078 1297.1 100.338C1283.94 103.425 1270.82 108.129 1257.19 108.366C1256.54 108.379 1256.7 109.144 1257.27 109.134Z" fill="#A1A9AC"/>
<path d="M1575.7 24.1622C1579.53 26.0482 1583.44 27.7862 1587.25 29.7102C1591.68 31.9432 1595.04 34.8802 1598.89 37.9052C1606.15 43.5992 1614.13 48.3022 1621.17 54.2722C1629.27 61.1302 1633.58 70.8342 1638.89 79.7712C1643.42 87.4012 1650.53 93.4652 1657.05 99.3792C1672.22 113.126 1689.33 125.477 1707 135.808C1715.88 141.003 1724.67 146.183 1733.42 151.615C1741.56 156.664 1749.91 161.348 1758.75 165.07C1759.2 165.258 1759.44 164.291 1758.98 164.096C1749.64 160.161 1740.9 155.1 1732.3 149.765C1723.54 144.33 1714.72 139.191 1705.83 133.992C1687.69 123.384 1670.35 110.352 1654.89 96.1352C1651.37 92.8962 1647.99 89.5112 1644.7 86.0402C1641.13 82.2792 1638.69 77.8082 1636.19 73.3002C1632.1 65.9582 1627.92 59.0272 1621.59 53.3802C1614.31 46.8962 1605.19 42.6472 1598.16 35.9132C1591.98 30.0012 1583.65 26.9792 1576.11 23.2692C1575.63 23.0302 1575.27 23.9522 1575.7 24.1622Z" fill="#A1A9AC"/>
<path d="M1743.79 192.085C1745.22 179.731 1754.12 168.204 1761.29 158.424C1769.62 147.074 1779.76 137.241 1788.05 125.825C1796.3 114.468 1804.56 103.121 1811.89 91.137C1819.17 79.239 1824.39 66.749 1829.11 53.666C1838.72 26.997 1847.92 -1.08897 1864.18 -24.614C1867.95 -30.075 1871.44 -35.068 1873.74 -41.338C1876.22 -48.075 1877.76 -55.165 1880.97 -61.622C1887.12 -74.018 1892.41 -87.392 1901.65 -97.897C1901.99 -98.277 1901.68 -99.102 1901.25 -98.612C1893.24 -89.519 1888.14 -78.217 1882.94 -67.395C1879.97 -61.213 1877.41 -55.132 1875.33 -48.58C1872.75 -40.427 1869.58 -33.511 1864.59 -26.53C1847.95 -3.21098 1838.6 25.054 1828.99 51.759C1823.9 65.914 1818.28 79.234 1810.41 92.112C1802.8 104.559 1794.03 116.269 1785.48 128.07C1776.93 139.859 1766.03 149.767 1757.91 161.876C1751.79 171.012 1744.32 180.791 1743.02 192.051C1742.94 192.7 1743.72 192.655 1743.79 192.085Z" fill="#A1A9AC"/>
<path d="M2041.52 15.5181C2026.12 15.5191 2010.73 15.6041 1995.48 17.9641C1982.27 20.0071 1970.82 24.9021 1958.83 30.6081C1953.18 33.2951 1947.46 35.7731 1941.47 37.5701C1933.87 39.8471 1925.75 39.9571 1917.94 41.0861C1902.5 43.3161 1887.27 46.7861 1871.71 48.1521C1863.66 48.8591 1855.57 48.7741 1847.55 47.8091C1839.37 46.8241 1831.56 44.0741 1823.49 42.4961C1809.42 39.7421 1794.99 39.5851 1780.71 39.8441C1765.14 40.1261 1749.59 40.5431 1734.02 40.4921C1725.75 40.4651 1717.5 40.0551 1709.31 38.8891C1701.33 37.7531 1693.95 34.9561 1686.3 32.5651C1679.99 30.5951 1672.93 30.0601 1666.85 27.6571C1662.33 25.8691 1658.05 23.5551 1653.16 22.9431C1646.26 22.0781 1641.51 31.1111 1638.24 35.8041C1631.28 45.8061 1623.11 54.7771 1614.6 63.4991C1607.49 70.7831 1602.86 83.8121 1593.04 87.6971C1592.59 87.8741 1592.55 88.8061 1593.13 88.5761C1602.07 85.0391 1606.73 73.8381 1612.49 66.8441C1620.25 57.4051 1629.68 49.4781 1636.69 39.3711C1639.77 34.9321 1642.72 30.3441 1646.52 26.4701C1651.79 21.0901 1659.55 25.6061 1665.2 28.0391C1670.66 30.3891 1676.88 30.8881 1682.61 32.4931C1690.18 34.6121 1697.44 37.6481 1705.16 39.1741C1720.23 42.1501 1735.81 41.3901 1751.08 41.3641C1766.8 41.3371 1782.51 40.3561 1798.23 40.8231C1805.38 41.0361 1812.49 41.6991 1819.56 42.7941C1827.67 44.0511 1835.44 46.6731 1843.49 48.1691C1858.29 50.9181 1873.58 49.2881 1888.32 46.9981C1901.81 44.9011 1915.17 42.0311 1928.78 40.6661C1940.7 39.4701 1951.01 35.2701 1961.75 30.1361C1973.91 24.3251 1985.61 20.2691 1999 18.3581C2013.02 16.3581 2027.27 16.4551 2041.4 16.4541C2041.87 16.4531 2042.1 15.5181 2041.52 15.5181Z" fill="#A1A9AC"/>
<path d="M1632.5 26.7542C1645.78 31.4182 1659.45 34.0372 1673.04 37.5332C1679.95 39.3102 1686.79 41.3402 1693.73 42.9732C1701.47 44.7952 1709.22 45.3252 1717.1 46.1912C1724.29 46.9832 1731.4 48.4682 1738.54 49.5872C1746.06 50.7632 1753.43 50.8342 1761.01 50.8342C1764.88 50.8342 1768.74 50.8342 1772.61 50.8342C1775.17 50.8342 1777.31 51.7722 1779.9 51.3092C1781.94 50.9462 1783.56 41.8512 1784.1 40.5452C1784.29 40.1032 1783.67 39.3892 1783.44 39.9632C1782.81 41.4582 1782.36 42.9792 1781.91 44.5342C1781.47 46.0622 1781.01 47.5732 1780.41 49.0452C1779.37 51.5602 1775.53 50.3472 1773.76 49.9822C1770.97 49.4052 1767.72 49.8502 1764.87 49.8502C1761.01 49.8502 1757.14 49.8502 1753.28 49.8502C1739.85 49.8502 1726.78 46.0872 1713.45 44.8362C1700.12 43.5842 1687.67 40.4682 1674.76 37.0042C1660.7 33.2282 1646.48 30.6732 1632.69 25.8312C1632.14 25.6382 1632.06 26.5982 1632.5 26.7542Z" fill="#A1A9AC"/>
<path d="M1680.23 116.603C1682.73 111.478 1688.21 109.119 1691.4 104.578C1694.16 100.652 1696.11 96.1959 1698.75 92.1809C1700.81 89.0419 1703.45 86.6209 1707.23 88.6269C1709.2 89.6739 1710.95 91.2159 1712.66 92.6239C1716.83 96.0419 1720.87 98.7969 1725.75 101.175C1739.46 107.852 1752.97 114.951 1766.67 121.655C1772.83 124.668 1779.07 127.535 1785.39 130.18C1792.32 133.074 1799.52 135.163 1806.36 138.246C1818.51 143.719 1829.62 151.364 1842.73 154.49C1849.32 156.06 1856.3 156.13 1862.98 157.303C1870.16 158.565 1877.07 159.27 1884.37 158.886C1917.07 157.167 1949.71 157.271 1982.45 157.271C1985.75 157.271 1989.06 157.271 1992.36 157.271C1992.84 157.271 1993.26 156.431 1992.64 156.431C1959.9 156.431 1927.15 155.938 1894.44 157.543C1886.94 157.911 1879.47 158.637 1871.97 157.832C1864.37 157.015 1856.97 155.092 1849.32 154.615C1835.04 153.724 1822.37 145.049 1809.92 138.894C1804.31 136.127 1798.51 134.179 1792.66 132.04C1785.15 129.293 1777.86 125.963 1770.64 122.531C1756.75 115.923 1743.3 108.347 1729.38 101.83C1724.29 99.4499 1719.47 96.9829 1715.14 93.4099C1712.07 90.8759 1708.72 87.3649 1704.61 86.6949C1698.85 85.7529 1694 98.6809 1691.94 102.274C1688.74 107.823 1682.27 110.571 1679.45 116.361C1679.16 116.947 1680 117.073 1680.23 116.603Z" fill="#A1A9AC"/>
<path d="M1746.32 158.799C1750.08 154.943 1753.07 150.422 1755.85 145.828C1756.17 145.292 1755.26 145.127 1755.01 145.543C1752.28 150.065 1749.34 154.543 1745.64 158.34C1745.18 158.808 1745.96 159.172 1746.32 158.799Z" fill="#A1A9AC"/>
<path d="M1736.03 151.844C1738.48 147.757 1740.92 143.656 1743.76 139.819C1744.15 139.29 1743.38 139.08 1743.05 139.527C1740.21 143.364 1737.77 147.465 1735.32 151.552C1734.98 152.115 1735.74 152.332 1736.03 151.844Z" fill="#A1A9AC"/>
<path d="M1725.77 145C1728.63 142.143 1731.13 139.224 1732.7 135.459C1732.93 134.924 1731.95 134.861 1731.77 135.297C1730.23 138.998 1727.76 141.85 1724.96 144.653C1724.52 145.089 1725.44 145.334 1725.77 145Z" fill="#A1A9AC"/>
<path d="M1711.96 138.122C1714.51 133.947 1717.54 130.111 1720.47 126.209C1720.82 125.756 1720.34 125.124 1719.95 125.649C1716.95 129.624 1713.88 133.535 1711.29 137.787C1710.96 138.325 1711.64 138.646 1711.96 138.122Z" fill="#A1A9AC"/>
<path d="M1699.79 129.761C1703.5 126.844 1705.89 122.705 1707.66 118.396C1707.88 117.87 1707.24 117.395 1707 118.002C1705.28 122.173 1702.99 126.146 1699.4 128.969C1699.02 129.27 1699.3 130.148 1699.79 129.761Z" fill="#A1A9AC"/>
<path d="M1689.76 124.151C1690.7 119.466 1694.98 117.026 1697.4 113.194C1697.75 112.641 1696.91 112.459 1696.64 112.898C1694.09 116.918 1689.81 119.348 1688.82 124.271C1688.71 124.831 1689.66 124.608 1689.76 124.151Z" fill="#A1A9AC"/>
<path d="M1795.29 115.175C1799.03 115.947 1803.31 119.042 1806.92 116.342C1808.23 115.358 1809.17 113.489 1809.97 112.114C1811.84 108.86 1813.27 105.42 1815.25 102.191C1819.29 95.5941 1822.51 88.5851 1826.5 81.9791C1830.2 75.8551 1833.37 69.4291 1836.21 62.8681C1839.29 55.7481 1841.47 48.3151 1844.14 41.0431C1846.88 33.6001 1849.94 26.2801 1852.72 18.8541C1858.6 3.15406 1863.34 -12.2039 1873.43 -25.8919C1873.81 -26.4139 1873.13 -26.7829 1872.79 -26.3189C1865.39 -16.2759 1860.14 -5.16794 1856.05 6.57706C1851.24 20.3921 1845.58 33.9071 1840.88 47.7591C1838.4 55.0831 1835.75 62.2271 1832.44 69.2281C1829.39 75.6661 1825.08 81.5111 1822.14 87.9501C1819.21 94.3881 1815.44 100.432 1811.71 106.427C1809.94 109.255 1809.14 112.406 1807.06 115.107C1804.38 118.566 1798.78 114.982 1795.77 114.359C1795.31 114.266 1794.73 115.06 1795.29 115.175Z" fill="#A1A9AC"/>
<path d="M1636.78 38.6862C1641.52 39.1152 1649.39 46.2752 1653.29 40.5512C1655.25 37.6842 1655.77 33.5362 1656.56 30.2342C1658.07 23.9732 1662.87 18.1512 1666.11 12.6572C1672.7 1.46923 1677.07 -11.2428 1682.59 -22.9998C1688.46 -35.4968 1694.22 -48.0518 1698.37 -61.2478C1698.53 -61.7568 1697.53 -61.8498 1697.39 -61.3928C1690.37 -39.0378 1678.66 -18.6288 1669.9 3.02823C1666 12.6852 1657.8 20.9172 1655.36 31.0512C1654.29 35.4712 1653.53 43.4122 1647 41.5542C1643.56 40.5732 1640.65 38.2782 1637 37.9482C1636.44 37.8982 1636.12 38.6272 1636.78 38.6862Z" fill="#A1A9AC"/>
<path d="M1660.91 34.1992C1658.95 38.4222 1657.82 42.8532 1656.6 47.3292C1655.22 52.3562 1653 56.9502 1650.63 61.5722C1646.91 68.8132 1643.12 75.8512 1641.58 83.9292C1641.48 84.4842 1642.42 84.2072 1642.51 83.7532C1644.35 74.1372 1649.5 65.8752 1653.73 57.1882C1657.32 49.8152 1658.35 41.6442 1661.79 34.2372C1662.05 33.6782 1661.11 33.7722 1660.91 34.1992Z" fill="#A1A9AC"/>
<path d="M1341.79 84.2009C1344.1 87.2829 1346.39 90.3799 1348.7 93.4629C1348.98 93.8389 1349.92 93.5789 1349.58 93.1169C1347.27 90.0339 1344.98 86.9369 1342.67 83.8549C1342.39 83.4789 1341.45 83.7389 1341.79 84.2009Z" fill="#A1A9AC"/>
<path d="M1200.49 -13.696C1217.59 -14.222 1234.23 -4.25103 1247.77 5.22197C1254.35 9.83397 1259.2 14.371 1261.9 22.11C1264.48 29.535 1269.88 34.261 1269.59 42.707C1269.5 45.269 1266.99 54.251 1270.02 55.969C1274.07 58.27 1278.79 59.685 1283.14 61.309C1287.69 63.005 1291.19 63.568 1295.88 61.691C1300.94 59.666 1304.69 57.529 1310.36 57.068C1314.95 56.694 1319.58 56.739 1324.18 56.737C1324.75 56.737 1324.93 55.972 1324.28 55.972C1317.05 55.975 1308.99 55.325 1302.11 57.89C1297.32 59.68 1292.66 63.765 1287.18 61.893C1285.06 61.168 1282.96 60.357 1280.87 59.562C1278.32 58.597 1275.79 57.603 1273.28 56.553C1269.75 55.076 1269.72 52.635 1269.96 48.934C1270.38 42.564 1271.13 37.222 1267.99 31.346C1266.04 27.695 1263.77 24.459 1262.39 20.493C1261.46 17.818 1260.15 15.342 1258.43 13.094C1254.41 7.84597 1247.9 4.09397 1242.43 0.563973C1230.19 -7.34403 1215.55 -14.921 1200.59 -14.461C1200.02 -14.443 1199.84 -13.676 1200.49 -13.696Z" fill="#A1A9AC"/>
<path d="M950.463 46.4731C968.218 47.0681 984.026 36.7391 1000.84 32.5811C1007.63 30.9031 1014.44 29.0271 1020.18 24.8851C1022.96 22.8791 1025.22 20.1061 1027.46 17.5461C1031.24 13.2191 1035.35 10.4531 1040.52 8.00213C1059.09 -0.807868 1080.19 -5.60287 1100.61 -7.23987C1111.13 -8.08287 1121.73 -10.1369 1132.25 -10.4709C1140.28 -10.7249 1148.59 -9.99887 1155.99 -13.7099C1156.5 -13.9639 1156.35 -14.7409 1155.76 -14.4459C1147.13 -10.1189 1136.96 -11.7749 1127.65 -11.0669C1117.42 -10.2899 1107.22 -8.58787 1096.97 -7.78287C1079.33 -6.39787 1061.33 -1.55687 1045.01 5.17713C1037.83 8.13913 1031.97 11.3011 1026.81 17.1331C1023.63 20.7201 1020.52 24.0841 1016.31 26.4821C1012.47 28.6731 1008.07 29.8611 1003.83 31.0021C996.045 33.0951 988.647 35.2131 981.157 38.2461C971.316 42.2311 961.494 45.9841 950.704 45.6231C950.22 45.6061 949.838 46.4521 950.463 46.4731Z" fill="#A1A9AC"/>
<path d="M1871.76 137.039C1871.48 157.121 1862.07 175.633 1856.63 194.621C1853.77 204.595 1849.26 214.036 1845.33 223.609C1841.21 233.651 1837.9 243.986 1833.12 253.755C1832.9 254.195 1833.85 254.521 1834.07 254.069C1838.58 244.84 1841.88 235.121 1845.62 225.569C1849.63 215.345 1854.36 205.457 1857.58 194.934C1863.34 176.095 1872.46 157.154 1872.74 137.152C1872.74 136.674 1871.77 136.502 1871.76 137.039Z" fill="#A1A9AC"/>
<path d="M1881.21 242.842C1878.94 267.59 1863.97 291.739 1872.77 316.708C1874.89 322.699 1877.78 328.401 1880.11 334.308C1882.93 341.463 1883.66 347.675 1883.82 355.296C1883.95 360.955 1886.49 365.97 1888.97 370.923C1891.85 376.695 1890.06 384.133 1891.51 390.274C1892.66 395.145 1895.9 399.277 1898.53 403.422C1902.48 409.665 1904.59 416.693 1906.12 423.864C1908.93 436.996 1910.28 449.447 1916.34 461.655C1921.94 472.925 1929.7 483.017 1936.21 493.751C1942.99 504.936 1947.47 517.587 1955.16 528.193C1955.44 528.578 1956.29 528.071 1955.97 527.634C1948.58 517.441 1945.05 505.153 1938.06 494.742C1930.79 483.913 1923.25 472.857 1917.26 461.264C1910.84 448.829 1909.61 435.445 1906.73 421.978C1905.52 416.329 1903.7 410.889 1901.05 405.749C1898.49 400.765 1894.79 396.574 1892.84 391.254C1890.79 385.645 1892.19 379.596 1890.8 373.859C1889.2 367.266 1885.28 362.095 1884.79 355.102C1884.39 349.399 1884.83 344.059 1882.85 338.58C1880.52 332.115 1877.57 325.883 1874.94 319.532C1864.15 293.431 1879.79 268.702 1882.18 242.648C1882.22 242.133 1881.26 242.368 1881.21 242.842Z" fill="#A1A9AC"/>
<path d="M1884.03 345.581C1885.77 343.663 1886.89 341.527 1888.36 339.422C1890.33 336.606 1894.19 334.946 1897.23 333.677C1902.9 331.311 1909.5 330.096 1914.54 326.512C1915.71 325.682 1916.34 323.685 1916.93 322.487C1918.84 318.589 1922.36 316.779 1925.9 314.638C1928.87 312.846 1931.22 309.81 1933.77 307.526C1936.51 305.082 1939.56 303.14 1942.88 301.604C1943.31 301.405 1942.97 300.479 1942.48 300.706C1935.59 303.893 1931.53 309.518 1925.5 313.74C1923.17 315.375 1920.17 316.428 1918.32 318.708C1916.29 321.212 1915.55 324.605 1912.82 326.548C1909.53 328.887 1904.91 329.473 1901.17 330.887C1898.98 331.718 1896.82 332.763 1894.67 333.707C1888.95 336.213 1887.4 340.483 1883.47 344.82C1883.16 345.17 1883.64 346.012 1884.03 345.581Z" fill="#A1A9AC"/>
<path d="M1894.08 321.837C1895.07 325.574 1896.56 329.08 1896.66 333.002C1896.67 333.495 1897.66 333.37 1897.65 332.867C1897.56 328.937 1896.07 325.446 1895.07 321.702C1894.94 321.216 1893.96 321.362 1894.08 321.837Z" fill="#A1A9AC"/>
<path d="M1905.46 424.553C1901.07 427.85 1895.57 428.753 1890.85 431.424C1890.28 431.747 1890.99 432.255 1891.43 432.002C1896.16 429.328 1901.64 428.434 1906.04 425.131C1906.56 424.739 1905.87 424.238 1905.46 424.553Z" fill="#A1A9AC"/>
</g>
</svg>
