<svg width="1920" height="1000" viewBox="0 0 1920 1000" fill="none" xmlns="http://www.w3.org/2000/svg">
<mask id="mask0_49_416" style="mask-type:luminance" maskUnits="userSpaceOnUse" x="0" y="0" width="1920" height="965">
<path d="M1920 0H0V965H1920V0Z" fill="white"/>
</mask>
<g mask="url(#mask0_49_416)">
<path d="M747.811 -6.54601C756.062 4.71099 768.495 7.49599 781.06 11.736C788.211 14.149 795.206 16.784 802.527 18.681C810.5 20.748 819.187 20.401 825.345 26.611C825.677 26.946 826.492 26.437 826.081 26.023C821.9 21.806 816.937 20.472 811.204 19.671C802.814 18.5 794.596 15.71 786.635 12.888C772.95 8.03699 757.784 5.41999 748.69 -6.98701C748.407 -7.37401 747.495 -6.97601 747.811 -6.54601Z" fill="#757067"/>
<path d="M601.783 -5.29702C619.439 20.229 641.767 43.328 654.019 72.173C659.931 86.09 664.305 100.707 669.25 114.986C674.602 130.437 679.985 145.877 685.519 161.264C689.362 171.949 693.163 182.623 697.906 192.95C701.805 201.438 706.292 210.513 713.08 217.093C719.175 223 725.565 220.166 732.772 217.586C738.846 215.412 744.728 212.729 750.717 210.338C758.022 207.423 765.635 208.385 773.251 207.243C774.834 207.006 780.099 206.21 780.596 204.672C781.167 202.908 781.158 200.76 781.42 198.922C781.493 198.408 780.513 198.595 780.445 199.066C780.246 200.461 780.047 201.856 779.847 203.25C779.434 206.14 773.947 206.369 771.53 206.731C764.835 207.735 758.217 206.701 751.754 209.132C745.806 211.37 740.017 214.016 734.084 216.297C728.701 218.367 721.949 221.876 716.497 218.609C708.243 213.663 703.339 202.067 699.41 193.816C694.616 183.749 690.912 173.244 687.125 162.772C676.411 133.143 667.402 102.697 655.636 73.474C644.371 45.493 623.143 23.004 605.807 -1.25702C604.729 -2.76502 603.673 -4.29002 602.618 -5.81502C602.349 -6.20702 601.476 -5.74102 601.783 -5.29702Z" fill="#757067"/>
<path d="M738.16 -9.31499C769.506 20.333 807.189 46.733 821.936 89.177C826.029 100.958 828.78 113.162 832.96 124.925C837.247 136.988 843.808 148.06 848.39 160.01C853.504 173.347 854.676 186.668 852.769 200.756C850.941 214.267 846.866 227.39 843.398 240.538C843.25 241.099 844.22 241.016 844.34 240.56C850.837 215.93 858.916 191.232 851.449 165.886C847.873 153.749 841.412 142.834 836.487 131.257C831.101 118.598 827.92 105.105 823.888 91.987C810.307 47.793 771.04 20.461 738.975 -9.86699C738.628 -10.195 737.776 -9.67799 738.16 -9.31499Z" fill="#757067"/>
<path d="M648.66 -14.608C653.579 -1.20602 659.803 11.588 666.837 24C674.239 37.062 682.864 49.369 690.283 62.416C705.554 89.269 716.142 118.443 730.598 145.71C737.832 159.354 745.897 172.551 754.53 185.352C761.824 196.166 769.468 206.629 779.107 215.487C787.284 223.001 796.849 228.758 807.175 232.789C819.084 237.438 831.901 238.976 844.378 241.378C855.941 243.605 867.407 246.305 878.524 250.221C883.879 252.107 889.081 254.394 894.155 256.934C896.773 258.244 899.313 259.702 901.829 261.195C903.358 262.103 905.026 262.801 906.563 263.723C908.645 264.97 909.263 265.128 906.742 266.285C906.31 266.483 906.399 267.477 906.869 267.262C907.922 266.779 908.851 266.309 909.786 265.605C910.088 265.377 910.075 264.893 909.765 264.687C885.901 248.872 858.555 242.88 830.825 237.855C818.213 235.569 806.203 232.275 794.977 225.946C783.84 219.666 774.573 210.621 766.603 200.728C747.282 176.743 731.753 148.49 719.139 120.498C712.996 106.867 706.898 93.201 700.322 79.772C693.549 65.943 685.622 52.97 677.421 39.963C666.406 22.492 656.472 4.36498 649.342 -15.061C649.117 -15.678 648.481 -15.093 648.66 -14.608Z" fill="#757067"/>
<path d="M668.237 108.349C675.908 107.301 683.101 109.936 690.478 111.625C696.882 113.092 702.732 112.77 708.978 110.875C715.177 108.995 721.041 105.987 726.759 102.986C734.777 98.778 741.593 96.033 750.768 95.798C764.023 95.458 778.205 95.811 790.612 90.302C793.231 89.139 795.548 87.225 797.947 85.684C801.712 83.266 806.228 82.45 810.521 81.459C819.367 79.418 828.395 78.628 837.459 78.853C837.996 78.867 837.85 77.884 837.371 77.873C823.643 77.533 806.754 78.53 795.07 86.403C782.363 94.965 765.424 94.683 750.679 94.818C735.433 94.957 724.029 104.439 710.177 109.423C701.926 112.392 694.427 111.738 686.079 109.588C680.056 108.036 674.212 106.537 667.948 107.393C667.465 107.458 667.739 108.417 668.237 108.349Z" fill="#757067"/>
<path d="M824.648 97.743C832.539 104.962 836.628 114.731 842.625 123.374C848.506 131.849 857.113 137.818 865.286 143.873C873.343 149.842 880.024 157.264 888.012 163.298C896.589 169.777 906.019 175.07 915.085 180.814C924.295 186.648 932.761 193.526 941.71 199.743C951.902 206.824 962.358 213.517 972.532 220.623C989.587 232.534 1004.84 248.876 1025.52 254.224C1026 254.35 1026.34 253.409 1025.86 253.286C1005.33 247.976 989.952 231.696 973.051 219.787C963.412 212.995 953.486 206.621 943.757 199.96C934.253 193.453 925.307 186.193 915.605 179.978C906.993 174.461 898.125 169.367 889.807 163.399C881.242 157.254 874.25 149.354 865.807 143.036C857.156 136.563 848.629 130.403 842.385 121.404C836.618 113.093 832.764 103.854 825.169 96.905C824.775 96.547 824.294 97.419 824.648 97.743Z" fill="#757067"/>
<path d="M760.803 131.47C765.604 142.453 769.598 153.772 774.679 164.635C779.702 175.374 786.773 184.526 793.636 194.108C800.013 203.012 806.491 211.866 814.495 219.397C822.859 227.267 833.453 231.938 844.524 234.571C845.014 234.687 845.311 233.733 844.828 233.618C833.682 230.967 823.524 226.249 814.977 218.538C806.505 210.895 799.91 201.291 793.304 192.067C786.425 182.463 779.714 173.347 774.678 162.581C769.84 152.238 766.095 141.417 761.522 130.957C761.272 130.384 760.608 131.025 760.803 131.47Z" fill="#757067"/>
<path d="M790.606 210.06C788.974 211.542 787.907 212.885 788.191 215.185C788.723 219.493 788.578 223.674 788.502 227.994C788.402 233.655 792.724 234.873 797.342 236.162C801.969 237.454 806.158 240.273 810.319 242.606C815.313 245.406 820.301 248.209 825.38 250.855C834.643 255.682 844.22 259.25 852.771 265.39C853.152 265.664 854.026 265.29 853.526 264.931C848.025 260.98 842.173 257.61 835.922 254.983C827.251 251.339 819.071 246.609 810.884 242.01C807.745 240.246 804.591 238.156 801.267 236.76C798.448 235.575 795.416 235.066 792.612 233.861C788.192 231.963 789.609 225.602 789.676 221.815C789.748 217.762 787.997 213.636 791.427 210.522C791.853 210.136 790.952 209.747 790.606 210.06Z" fill="#757067"/>
<path d="M834.212 239.415C834.225 242.619 834.095 245.781 836.429 248.224C837.988 249.856 840.169 251.062 842.06 252.238C845.466 254.357 848.438 257.103 851.282 259.909C851.696 260.317 852.125 259.446 851.789 259.114C848.203 255.576 844.434 252.729 840.262 249.937C838.638 248.85 836.939 247.766 835.866 246.091C834.67 244.225 834.977 241.37 834.969 239.264C834.965 238.606 834.21 238.852 834.212 239.415Z" fill="#757067"/>
<path d="M845.436 241.492C845.487 242.781 845.391 244.118 844.152 244.804C843.348 245.249 842.317 245.304 841.429 245.449C839.773 245.719 838.326 246.24 837.416 247.728C837.076 248.285 837.958 248.324 838.221 247.894C839.362 246.026 842.031 246.386 843.866 245.765C845.89 245.08 846.416 243.174 846.339 241.221C846.315 240.643 845.417 241.022 845.436 241.492Z" fill="#757067"/>
<path d="M738.48 159.363C742.913 157.36 747.402 155.488 752.089 154.162C752.72 153.984 752.175 153.31 751.679 153.451C746.917 154.798 742.357 156.706 737.853 158.74C737.288 158.995 738.047 159.559 738.48 159.363Z" fill="#757067"/>
<path d="M733.255 149.336C728.667 151.629 722.051 152.047 718.439 155.982C714.59 160.175 715.564 166.393 715.168 171.63C715.119 172.284 715.938 172.001 715.977 171.486C716.37 166.283 715.235 159.736 719.672 155.955C723.385 152.791 729.108 152.351 733.394 150.208C733.823 149.995 733.813 149.057 733.255 149.336Z" fill="#757067"/>
<path d="M729.78 143.009C724.781 145.99 719.73 147.359 713.986 148.009C709.966 148.464 705.94 148.488 702.084 149.814C695.471 152.089 691.725 159.411 687.403 164.377C687.021 164.816 687.901 165.22 688.211 164.863C694.174 158.009 698.011 150.408 707.993 149.34C716.039 148.479 723.312 147.861 730.414 143.624C730.951 143.305 730.195 142.761 729.78 143.009Z" fill="#757067"/>
<path d="M550.223 -8.60302C542.432 -1.83202 535.345 5.73298 529.627 14.349C526.835 18.557 524.545 22.956 521.359 26.911C519.665 29.014 517.588 30.766 515.795 32.777C512.461 36.513 510.346 37.277 505.518 37.24C505.015 37.236 504.576 38.003 505.228 38.009C508.039 38.03 511.304 38.412 513.576 36.354C517.823 32.508 521.922 27.884 525.214 23.18C528.775 18.091 531.606 12.658 535.463 7.74798C540.026 1.93898 545.33 -3.29402 550.898 -8.13402C551.392 -8.56402 550.612 -8.94102 550.223 -8.60302Z" fill="#757067"/>
<path d="M502.977 -13.287C503.149 -0.639031 506.537 11.639 507.081 24.242C507.657 37.575 497.498 48.552 489.373 57.799C489.062 58.153 489.521 59.013 489.903 58.578C497.583 49.836 505.503 41.004 507.554 29.073C508.539 23.345 507.273 17.091 506.448 11.424C505.256 3.24197 503.848 -4.86703 503.736 -13.159C503.729 -13.723 502.968 -13.945 502.977 -13.287Z" fill="#757067"/>
<path d="M450.625 -3.97003C458.25 4.05497 465.9 12.054 474.101 19.5C482.965 27.548 492.573 34.904 499.442 44.848C499.767 45.319 500.274 44.478 500.008 44.094C494.095 35.534 486.15 28.848 478.38 22.048C468.789 13.655 459.963 4.50797 451.191 -4.72303C450.79 -5.14603 450.299 -4.31303 450.625 -3.97003Z" fill="#757067"/>
<path d="M510.241 37.536C511.094 38.765 512.32 39.605 513.547 40.424C513.944 40.689 514.594 39.941 514.146 39.642C512.969 38.857 511.815 38.059 510.997 36.882C510.715 36.477 509.954 37.123 510.241 37.536Z" fill="#757067"/>
<path d="M530.308 14.982C531.185 15.183 533.187 16.271 534.242 15.552C537.29 13.472 539.558 10.589 541.944 7.76799C548.739 -0.266006 554.433 -9.02501 561.835 -16.576C562.243 -16.992 561.404 -17.468 561.073 -17.131C555.688 -11.639 550.945 -5.61201 546.313 0.517994C543.556 4.16699 540.85 7.80599 537.672 11.11C535.217 13.662 534.185 15.1 530.468 14.249C529.86 14.11 529.701 14.843 530.308 14.982Z" fill="#757067"/>
<path d="M480.684 56.379C483.65 53.45 486.713 50.648 489.953 48.025C492.77 45.744 494.046 48.378 496.218 50.119C498.605 52.031 501.276 52.231 502.104 55.576C502.505 57.194 502.827 58.026 503.965 59.1C509.687 64.5 516.022 69.355 522.216 74.194C530.515 80.676 539.433 85.056 549.115 89.133C562.896 94.936 576.002 102.273 588.261 110.824C608.641 125.04 626.903 141.889 641.859 161.717C648.172 170.088 654.157 178.729 659.747 187.6C665.726 197.09 669.968 207.267 674.088 217.681C676.54 223.877 679.002 230.109 682.088 236.024C685.6 242.756 687.852 250.029 691.363 256.767C697.269 268.101 704.884 277.644 717.029 282.431C730.358 287.684 743.479 288.635 757.571 286.542C772.946 284.257 787.876 279.842 803.376 278.204C819.165 276.536 833.865 278.295 848.262 285.225C856.487 289.184 863.159 297.097 869.158 303.741C882.65 318.683 894.924 334.887 904.315 352.719C910.698 364.839 917.171 377.085 923.183 389.386C927.503 398.226 930.824 407.692 936.121 416.013C949.841 437.563 971.902 450.775 997.566 451.933C1009.03 452.451 1020.94 450.127 1031.69 446.246C1039.31 443.496 1046.57 439.453 1054.06 436.331C1064.3 432.061 1074.76 428.036 1085.55 425.371C1093.73 423.35 1102.38 422.857 1110.73 421.912C1118.23 421.063 1125.76 420.118 1133.3 419.725C1147.28 418.997 1161.47 420.378 1175.27 422.515C1192.2 425.135 1209.3 429.232 1225.31 435.425C1225.75 435.595 1226.31 434.812 1225.77 434.602C1207.08 427.372 1187.02 423.009 1167.2 420.489C1144.94 417.66 1123.66 419.533 1101.56 422.154C1083.13 424.339 1066.36 430.21 1049.33 437.496C1041.36 440.901 1033.76 445.039 1025.42 447.458C1011.67 451.443 997.52 452.15 983.559 449.013C969.379 445.827 957.262 439.129 947.303 428.592C939.054 419.864 933.768 410.087 928.862 399.271C924.029 388.616 918.329 378.496 913.113 368.029C906.775 355.313 900.599 342.517 892.292 330.933C882.369 317.097 871.455 303.386 858.896 291.856C840.559 275.022 814.97 275.154 791.795 278.969C776.125 281.548 760.779 286.383 744.824 286.934C729.657 287.458 712.465 282.188 701.977 270.946C691.958 260.208 687.593 245.256 681.335 232.279C675.518 220.217 671.72 207.272 665.492 195.394C656.507 178.26 644.195 161.953 631.633 147.313C624.226 138.68 615.453 131.058 606.738 123.791C595.679 114.569 583.949 106.172 571.429 99.049C555.057 89.734 536.981 84.477 522.02 72.791C516.785 68.702 511.627 64.499 506.61 60.145C503.87 57.767 503.632 56.037 502.189 52.732C501.801 51.844 499.842 51.171 499.062 50.758C496.582 49.443 494.645 47.511 492.864 45.38C492.701 45.185 492.419 45.252 492.239 45.382C487.861 48.555 483.881 52.169 480.038 55.963C479.567 56.425 480.286 56.773 480.684 56.379Z" fill="#757067"/>
<path d="M503.366 77.32C511.818 83.786 521.962 88.003 531.797 91.884C542.445 96.0861 553.015 100.183 563.319 105.23C586.825 116.744 608.931 133.885 626.003 153.782C633.296 162.282 639.901 171.399 646.254 180.614C651.089 187.627 656.066 194.799 659.831 202.463C665.433 213.867 670.102 225.639 674.838 237.421C677.272 243.475 680.169 249.372 682.742 255.382C685.367 261.513 688.575 267.416 692.514 272.801C708.844 295.128 741.645 295.809 766.194 290.62C792.216 285.12 825.173 275.982 848.537 294.068C862.865 305.159 874.299 320.784 884.978 335.266C893.327 346.586 899.537 359.176 905.761 371.737C911.011 382.333 916.834 392.587 921.744 403.348C926.026 412.73 930.129 421.52 936.829 429.516C944.597 438.785 953.276 446.321 964.788 450.5C986.458 458.366 1013.45 463.049 1035.2 452.583C1052.76 444.138 1071.02 437.47 1089.97 432.87C1119.56 425.684 1149.73 425.595 1179.66 430.745C1195.06 433.395 1210.66 437.144 1225.27 442.796C1225.82 443.006 1225.95 442.053 1225.51 441.883C1181.17 424.735 1130.95 421.28 1084.99 433.087C1067.37 437.612 1050.43 444.167 1034.07 452.04C1023.13 457.304 1009.02 457.942 997.154 457.218C983.424 456.379 967.888 451.944 955.842 445.381C944.531 439.219 935.207 427.728 928.852 416.749C924.042 408.438 921.021 399.103 916.526 390.607C905.189 369.181 895.251 347.199 880.427 327.883C874.67 320.382 868.663 313.062 862.287 306.079C856.626 299.88 850.437 293.255 842.92 289.292C817.062 275.66 787.238 285.763 760.658 290.701C744.768 293.653 729.791 292.461 714.493 287.481C698.696 282.338 689.894 269.615 683.411 255.004C674.37 234.629 667.406 212.744 655.726 193.639C645.481 176.881 633.782 159.929 619.945 145.914C600.418 126.137 577.995 110.563 552.669 99.2301C536.413 91.9561 518.112 87.507 503.774 76.537C503.279 76.156 502.979 77.024 503.366 77.32Z" fill="#757067"/>
<path d="M483.388 42.881C491.607 51.009 500.663 58.339 507.364 67.86C513.817 77.03 505.983 81.783 498.543 84.975C496.018 86.058 493.29 86.571 490.761 87.695C487.719 89.047 485.48 91.213 481.986 91.58C481.486 91.633 481.474 92.631 481.963 92.58C484.485 92.315 486.429 91.297 488.588 90.014C492.635 87.608 497.175 86.529 501.512 84.781C505.223 83.284 510.581 79.934 510.902 75.423C511.34 69.274 505.507 63.665 501.72 59.453C496.148 53.255 489.707 47.883 483.787 42.029C483.381 41.626 483.057 42.554 483.388 42.881Z" fill="#757067"/>
<path d="M505.624 59.046C503.443 59.766 502.434 61.125 500.721 62.505C500.3 62.844 499.036 63.546 499.437 64.325C500.307 66.015 501.709 67.426 502.704 69.051C504.2 71.495 500.807 72.448 499.052 73.211C498.451 73.472 499.125 74.032 499.592 73.829C501.337 73.071 504.756 72.085 504.027 69.567C503.583 68.03 502.128 66.548 501.215 65.299C500.399 64.182 500.449 63.775 501.456 62.994C503.01 61.789 503.933 60.411 505.929 59.752C506.55 59.548 506.168 58.866 505.624 59.046Z" fill="#757067"/>
<path d="M451.03 108.689C457.07 108.015 462.218 104.713 467.707 102.36C473.648 99.813 480.204 98.685 486.234 96.22C495.29 92.519 506.808 90.586 513.853 83.292C514.308 82.821 513.49 82.528 513.132 82.898C506.012 90.27 493.642 92.381 484.43 96.146C479.387 98.208 474.154 99.444 468.981 101.095C462.788 103.073 457.603 107.18 450.985 107.918C450.415 107.984 450.385 108.761 451.03 108.689Z" fill="#757067"/>
<path d="M480.419 49.913C481.612 52.094 483.867 52.983 485.451 54.87C487.239 56.999 489.338 58.844 491.338 60.767C496.9 66.114 502.861 70.365 509.621 74.058C519.558 79.486 529.197 85.132 539.671 89.48C551.15 94.246 562.544 99.897 573.157 106.375C579.306 110.128 585.306 114.164 591.254 118.227C597.602 122.563 602.945 127.701 608.891 132.498C614.174 136.76 618.82 141.652 623.839 146.241C626.713 148.868 629.655 151.391 632.071 154.461C634.362 157.371 636.335 160.45 638.773 163.254C643.315 168.48 646.527 174.585 650.451 180.252C654.415 185.977 658.267 191.911 662.029 197.776C666.765 205.159 669.101 214.37 672.354 222.469C677.225 234.595 682.271 246.989 688.245 258.615C694.053 269.921 704.586 280.743 716.385 285.726C730.02 291.484 744.884 291.183 759.315 289.36C783.607 286.293 810.05 273.988 834.303 283.608C834.744 283.783 835.191 282.901 834.689 282.702C814.301 274.616 791.092 282.292 770.773 286.504C759.401 288.861 747.724 290.174 736.108 289.403C721.196 288.413 708.705 281.909 698.446 271.219C689.056 261.434 683.875 247.874 678.888 235.474C674.917 225.6 670.851 215.762 666.871 205.889C662.851 195.918 656.313 187.009 650.218 178.206C642.617 167.23 635.657 155.674 625.708 146.602C614.16 136.072 603.263 125.219 590.298 116.363C576.702 107.076 562.605 99.039 547.834 91.804C537.814 86.895 527.546 83.282 517.902 77.491C510.86 73.262 503.456 69.98 497.127 64.641C493.682 61.735 490.324 58.616 487.199 55.37C485.434 53.537 482.292 51.356 481.132 49.235C480.882 48.776 480.19 49.495 480.419 49.913Z" fill="#757067"/>
<path d="M527.924 83.058C526.969 84.599 525.257 87.965 526.557 89.766C527.579 91.181 528.865 92.379 529.891 93.795C531.262 95.687 532.297 97.815 533.597 99.755C533.962 100.299 534.441 99.581 534.154 99.151C532.663 96.924 531.429 94.544 529.855 92.371C529.256 91.545 528.516 90.824 527.845 90.059C526.191 88.173 527.526 85.343 528.564 83.667C528.818 83.257 528.253 82.527 527.924 83.058Z" fill="#757067"/>
<path d="M712.422 327.008C713.135 321.2 715.616 315.288 717.343 309.732C719.587 302.513 721.907 295.318 724.221 288.122C724.374 287.646 723.416 287.361 723.262 287.839C721.067 294.664 718.874 301.489 716.732 308.331C714.883 314.238 712.22 320.545 711.462 326.725C711.402 327.223 712.363 327.491 712.422 327.008Z" fill="#757067"/>
<path d="M580.632 110.883C581.297 114.208 581.442 118.175 583.267 121.1C584.551 123.159 587.445 124.475 589.425 125.713C598.11 131.14 605.998 139.203 613.399 146.231C619.364 151.895 624.681 158.593 629.57 165.191C631.295 167.519 633.286 169.941 635.744 171.533C639.184 173.76 642.43 174.086 646.33 174.98C646.791 175.085 647.254 174.237 646.686 174.107C642.521 173.152 638.936 172.698 635.404 170.045C633.042 168.271 631.227 165.762 629.487 163.414C624.859 157.167 619.701 150.954 614.116 145.535C608.156 139.751 601.816 134.444 595.39 129.187C592.897 127.149 590.528 125.224 587.786 123.541C582.805 120.483 582.574 115.851 581.515 110.553C581.401 109.982 580.539 110.419 580.632 110.883Z" fill="#757067"/>
</g>
<mask id="mask1_49_416" style="mask-type:luminance" maskUnits="userSpaceOnUse" x="0" y="0" width="1920" height="965">
<path d="M1920 0H0V965H1920V0Z" fill="white"/>
</mask>
<g mask="url(#mask1_49_416)">
<path d="M1483.03 28.4031C1488.87 31.7601 1494 36.9851 1499.09 41.3361C1506.12 47.3571 1513.08 53.4681 1520.11 59.4991C1527.17 65.5611 1534.55 71.1631 1541.45 77.4251C1552.27 87.2371 1564.57 95.487 1575.06 105.652C1575.51 106.085 1575.78 105.182 1575.44 104.85C1564.95 94.687 1552.66 86.412 1541.83 76.6231C1534.69 70.1771 1527.09 64.37 1519.8 58.114C1512.73 52.042 1505.72 45.8901 1498.63 39.8291C1493.75 35.6521 1488.83 30.7031 1483.22 27.4801C1482.73 27.1941 1482.63 28.1701 1483.03 28.4031Z" fill="#757067"/>
<path d="M1548.93 -1.99C1549.87 0.440001 1551.88 1.739 1554.04 3.064C1557.42 5.14 1560.35 7.38 1563.46 9.862C1567.06 12.728 1570.93 15.229 1574.52 18.115C1577.73 20.694 1580.48 23.77 1583.82 26.185C1590.87 31.279 1596.63 37.732 1603.17 43.414C1606.45 46.268 1609.74 49.053 1612.5 52.435C1615.54 56.157 1617.44 61.488 1619.68 65.759C1619.99 66.339 1620.56 65.699 1620.32 65.238C1616.94 58.796 1614.3 52.547 1609.03 47.41C1603.16 41.686 1596.91 36.174 1590.84 30.648C1587.6 27.694 1583.88 25.36 1580.64 22.425C1577.43 19.527 1574.28 16.703 1570.84 14.072C1567.15 11.253 1563.35 8.665 1559.79 5.685C1556.6 3.02 1551.17 1.613 1549.57 -2.513C1549.33 -3.12 1548.75 -2.464 1548.93 -1.99Z" fill="#757067"/>
<path d="M1559.42 -2.01199C1564.91 2.74201 1571.16 6.32901 1576.55 11.25C1582.97 17.107 1589.35 22.622 1595.33 28.971C1606.9 41.268 1618.74 53.532 1628.52 67.332C1633.66 74.582 1638.64 81.941 1643.92 89.087C1648.88 95.789 1654.68 101.717 1659.87 108.219C1665.11 114.782 1669.21 122.388 1674.04 129.274C1679.35 136.838 1684.54 144.471 1689.03 152.559C1689.25 152.963 1690.24 152.936 1689.97 152.443C1681.95 137.989 1672.03 124.353 1662.76 110.683C1658.17 103.916 1652.05 98.286 1647.06 91.83C1641.23 84.298 1635.91 76.379 1630.45 68.581C1620.34 54.144 1608.08 41.589 1596.15 28.665C1590.94 23.015 1585.51 17.671 1579.58 12.763C1576.79 10.45 1574.22 7.88901 1571.36 5.65001C1567.71 2.78201 1563.62 0.569009 1560.08 -2.48699C1559.69 -2.82699 1558.92 -2.44099 1559.42 -2.01199Z" fill="#757067"/>
<path d="M1598.44 -1.61799C1600.78 0.947014 1603.63 2.82501 1606.36 4.95501C1609.28 7.24401 1611.86 9.97502 1614.52 12.547C1618.38 16.265 1622.6 20.929 1628.42 20.637C1636.65 20.224 1645.25 21.16 1652.75 24.833C1659.5 28.14 1664.22 39.402 1664.6 46.441C1664.64 47.057 1665.42 46.528 1665.4 46.058C1665.03 39.278 1661.57 33.088 1657.54 27.782C1653.47 22.429 1645.9 21.037 1639.63 20.032C1636.41 19.513 1633.19 19.417 1629.94 19.624C1624.07 19.997 1620.29 16.786 1616.31 12.869C1613.63 10.227 1610.91 7.58001 1608.06 5.11901C1605.1 2.56101 1601.71 0.527015 1599.06 -2.38099C1598.7 -2.77799 1598.12 -1.97199 1598.44 -1.61799Z" fill="#757067"/>
<path d="M1621.22 56.9111C1619.33 59.9021 1615.01 61.2631 1612.14 63.2331C1608.27 65.8841 1604.55 68.8631 1600.98 71.8971C1594.33 77.5421 1587.92 83.642 1581.78 89.8321C1572.07 99.604 1562.38 110.208 1555.47 122.189C1549.39 132.754 1544.46 143.303 1540.27 154.702C1537.17 163.134 1535.11 171.295 1533.45 180.123C1532.49 185.206 1531.66 190.294 1531.13 195.441C1530.63 200.253 1531.23 206.545 1529.16 211.015C1528.94 211.489 1529.56 212.077 1529.84 211.484C1531.27 208.392 1531.16 204.259 1531.44 200.908C1531.86 195.928 1532.36 190.998 1533.16 186.061C1534.77 176.054 1536.75 166.231 1540.36 156.737C1542.53 151.014 1544.24 145.385 1546.95 139.878C1549.9 133.86 1553.11 127.95 1556.46 122.142C1563.6 109.744 1573.93 98.8881 1584.02 88.8531C1590.03 82.8751 1596.33 77.0521 1602.79 71.5661C1606.73 68.2151 1611 64.9851 1615.38 62.2251C1617.75 60.7271 1620.22 60.0761 1621.79 57.5871C1622.04 57.1821 1621.55 56.3831 1621.22 56.9111Z" fill="#757067"/>
<path d="M1244.05 -21.565C1246.43 -10.839 1255.27 -1.13297 1261.96 7.23703C1265.46 11.616 1269.38 15.588 1274.04 18.719C1279.15 22.152 1285.01 22.922 1290.99 23.519C1298.83 24.302 1305.39 28.115 1312.75 30.509C1319.9 32.834 1328.21 31.305 1334.02 36.668C1343.91 45.783 1355.9 53.301 1367.99 59.079C1374.55 62.211 1381.69 63.758 1388.17 67.004C1394.15 70.002 1399.39 74.399 1404.86 78.198C1410.15 81.874 1416.16 84.146 1421.54 87.627C1424.33 89.428 1426.35 92.426 1428.54 94.878C1430.72 97.325 1433.51 99.118 1436.18 100.962C1441.68 104.749 1446.93 109.448 1451.93 113.871C1458.07 119.309 1465.28 122.695 1468.3 130.887C1470.42 136.647 1472.04 145.413 1470.11 151.37C1469.07 154.597 1465.63 155.548 1463.77 158.047C1462.02 160.402 1461.71 162.761 1461.13 165.606C1459.32 174.514 1459.17 182.419 1462.63 190.945C1465.45 197.884 1470.07 204.302 1476.96 207.6C1481.18 209.624 1485.6 211.369 1489.95 213.119C1493.68 214.622 1499.19 216.906 1503.28 216.747C1507.7 216.575 1512.14 214.042 1516.4 212.857C1521.95 211.317 1527.7 207.906 1533.53 208.247C1534.02 208.276 1533.97 207.278 1533.47 207.249C1527.5 206.9 1521.78 210.309 1516.15 211.906C1512.77 212.865 1509.5 213.931 1506.25 215.272C1502.23 216.926 1495.63 214.043 1491.76 212.754C1485.63 210.709 1478.75 208.006 1473.39 204.402C1467.14 200.205 1463.42 192.09 1461.41 185.104C1460.12 180.625 1460.21 175.794 1460.79 171.223C1461.34 166.897 1462.14 161.004 1465.19 157.863C1468.46 154.476 1471.48 152.973 1471.62 147.743C1471.89 137.201 1469.22 126.223 1460.73 119.472C1455.86 115.589 1450.84 111.906 1446.04 107.911C1440.2 103.053 1433.1 98.708 1428.06 93.051C1424.38 88.915 1421.19 85.979 1416.11 83.523C1409.45 80.301 1403.61 76.206 1397.63 71.901C1386.16 63.66 1372.52 60.813 1360.24 54.033C1353.93 50.551 1347.97 46.46 1342.21 42.139C1338.15 39.09 1334.31 34.216 1329.42 32.569C1325.41 31.221 1320.82 31.17 1316.67 30.442C1311.81 29.589 1307.33 27.458 1302.82 25.556C1293.98 21.828 1284.12 23.196 1275.63 18.599C1268.17 14.557 1262.81 7.14303 1257.83 0.493027C1252.74 -6.29597 1246.64 -13.406 1244.76 -21.877C1244.62 -22.516 1243.93 -22.115 1244.05 -21.565Z" fill="#757067"/>
<path d="M1526.1 212.87C1528.28 212.374 1530.47 211.677 1532.72 211.623C1533.33 211.608 1533.41 210.86 1532.78 210.875C1530.43 210.931 1528.17 211.611 1525.89 212.128C1525.26 212.273 1525.54 212.998 1526.1 212.87Z" fill="#757067"/>
<path d="M1879.87 -10.103C1876.89 4.60401 1876.64 19.78 1873.53 34.459C1872.04 41.503 1870.57 48.129 1869.68 55.31C1868.67 63.524 1867.29 71.688 1866.3 79.906C1865.41 87.312 1865.34 94.777 1864.23 102.157C1863.71 105.638 1862.86 109.059 1862.06 112.483C1861.23 116.048 1859.53 119.255 1858.66 122.753C1857.63 126.865 1852.2 124.29 1849.18 123.718C1845.29 122.979 1841.34 123.162 1837.44 122.252C1831.43 120.848 1828.45 113.439 1824.68 109.243C1816.69 100.339 1802.75 97.204 1791.4 95.624C1787.71 95.111 1784.94 92.994 1781.46 91.962C1779.07 91.255 1776.32 91.386 1773.86 91.424C1766.77 91.533 1759.68 94.507 1752.67 92.757C1745.81 91.045 1741.53 85.073 1735.47 82.029C1729.21 78.885 1723.32 75.192 1717.13 71.94C1714.2 70.406 1711.11 69.592 1707.92 68.847C1705.16 68.202 1702.74 66.493 1700.2 65.315C1697.43 64.032 1694.2 63.704 1691.32 62.734C1687.4 61.416 1683.79 58.275 1680.55 55.771C1676.28 52.47 1671.99 48.63 1666.73 47.038C1661.61 45.486 1655.6 48.322 1650.95 50.094C1638.35 54.897 1627.04 59.878 1616.23 68.116C1593.49 85.443 1572.34 105.463 1558.05 130.474C1553.48 138.461 1548.81 145.923 1545.16 154.416C1539.96 166.509 1536.37 179.285 1534.53 192.313C1531.55 213.504 1533.55 233.895 1535.85 254.971C1536.89 264.482 1537.74 273.995 1538.63 283.521C1539.33 291.05 1539.57 298.392 1536.6 305.493C1533.66 312.52 1527.59 317.816 1522.87 323.605C1522.45 324.111 1523.31 324.288 1523.63 323.895C1531.11 314.741 1539.04 307.233 1539.98 294.812C1540.69 285.488 1539 275.711 1538.05 266.421C1536.07 247.237 1533.6 228.444 1534.02 209.141C1534.55 184.829 1541.29 159.213 1554.13 138.395C1557.9 132.299 1561.21 125.764 1565.42 119.97C1569.88 113.834 1574.8 107.908 1579.68 102.1C1589.34 90.603 1601.15 80.967 1612.87 71.662C1623.16 63.481 1633.68 57.428 1646 52.835C1652 50.596 1658.51 47.033 1665.07 47.594C1670.95 48.097 1676.68 54.008 1681.12 57.441C1684.99 60.428 1688.91 63.082 1693.66 64.383C1698.97 65.84 1703.66 68.751 1708.98 69.991C1715.43 71.496 1720.79 75.106 1726.38 78.502C1731.68 81.724 1736.99 84.077 1741.96 87.922C1745.29 90.5 1749.43 93.224 1753.67 93.91C1758.85 94.748 1763.74 93.236 1768.86 92.598C1771.96 92.213 1775.08 92.15 1778.19 92.348C1781.79 92.578 1784.48 94.312 1787.68 95.68C1789.76 96.569 1792.31 96.623 1794.52 96.894C1798.52 97.386 1802.13 98.511 1805.9 99.895C1811.02 101.782 1816.08 103.311 1820.55 106.593C1824.81 109.725 1827.07 114.763 1830.63 118.555C1834.01 122.159 1837.2 123.354 1842.06 123.901C1847.46 124.507 1853.19 126.268 1858.61 125.886C1858.84 125.87 1859.1 125.653 1859.12 125.415C1859.52 121.024 1861.94 116.684 1862.99 112.353C1864.39 106.581 1865.48 100.818 1866.02 94.899C1867.12 82.852 1868.44 70.968 1870.11 58.977C1870.87 53.525 1871.14 47.967 1872.33 42.588C1873.6 36.827 1875.16 31.356 1875.91 25.472C1877.43 13.597 1878.43 1.50501 1880.8 -10.234C1880.92 -10.789 1879.96 -10.56 1879.87 -10.103Z" fill="#757067"/>
<path d="M1417.06 173.226C1417.44 174.604 1418 175.788 1418.57 177.093C1419.08 178.247 1418.63 180.462 1418.8 181.82C1418.99 183.391 1420.72 185.145 1421.66 186.255C1426.08 191.483 1431.05 196.193 1435.41 201.526C1441.57 209.044 1447.79 216.427 1454.16 223.76C1460.88 231.486 1467.6 239.174 1474.5 246.746C1493.88 268.036 1513.52 289.082 1532.95 310.332C1533.17 310.575 1533.39 310.818 1533.61 311.063C1533.95 311.437 1534.72 310.802 1534.39 310.432C1515.92 289.97 1497 269.916 1478.41 249.56C1471.48 241.965 1464.54 234.378 1457.88 226.541C1452.5 220.202 1446.83 214.101 1441.63 207.612C1437.35 202.28 1433.11 196.871 1428.57 191.761C1426.65 189.604 1424.41 187.735 1422.43 185.623C1419.79 182.786 1420.04 180.071 1419.45 176.639C1419.23 175.372 1418.29 174.047 1417.94 172.772C1417.8 172.263 1416.94 172.764 1417.06 173.226Z" fill="#757067"/>
<path d="M1852.12 -3.50995C1860.93 0.873052 1870.67 1.33605 1879.85 4.49205C1884.65 6.13905 1888.65 6.18605 1893.62 6.96905C1898.32 7.70905 1902.76 9.36505 1907.55 9.59505C1908.17 9.62505 1908.18 8.87505 1907.56 8.84505C1902.88 8.61905 1898.47 7.13205 1893.9 6.25105C1892.18 5.91905 1890.48 5.86405 1888.73 5.81505C1885.09 5.71405 1881.96 4.40005 1878.58 3.23905C1869.96 0.276052 1860.96 -0.0109477 1852.64 -4.14895C1852.17 -4.37895 1851.53 -3.80195 1852.12 -3.50995Z" fill="#757067"/>
<path d="M1872.11 40.524C1860.72 40.524 1849.34 41.143 1838.11 39.166C1830.3 37.791 1831.09 44.078 1831.75 50.187C1832.26 54.904 1833.62 59.321 1833.62 64.108C1833.61 69.974 1832.99 75.728 1832.55 81.568C1831.68 93.401 1830.75 105.43 1830.64 117.293C1830.63 117.771 1831.61 117.917 1831.62 117.378C1831.71 107.365 1832.71 97.349 1833.2 87.348C1833.66 78.067 1835.38 68.636 1834.36 59.342C1833.91 55.268 1832.55 51.433 1832.59 47.29C1832.61 45.509 1832.72 43.728 1832.73 41.944C1832.76 37.767 1841.39 40.556 1843.17 40.907C1847.45 41.753 1852.08 41.293 1856.42 41.293C1861.66 41.293 1866.91 41.293 1872.16 41.293C1872.81 41.293 1872.69 40.524 1872.11 40.524Z" fill="#757067"/>
<path d="M1767.75 82.634C1767.8 85.635 1768.44 88.582 1768.49 91.582C1768.5 92.195 1769.25 92.269 1769.24 91.641C1769.19 88.64 1768.55 85.693 1768.49 82.693C1768.48 82.08 1767.73 82.006 1767.75 82.634Z" fill="#757067"/>
<path d="M1687.31 61.12C1688.07 59.601 1688.86 58.111 1689.86 56.738C1690.23 56.234 1689.34 56.004 1689.05 56.394C1688 57.824 1687.18 59.377 1686.38 60.96C1686.12 61.475 1687.1 61.539 1687.31 61.12Z" fill="#757067"/>
<path d="M1598.18 83.796C1601.7 86.922 1605.18 89.978 1608.87 92.908C1611.59 95.07 1611.47 96.284 1608.72 98.664C1606.53 100.558 1604.64 102.658 1602.51 104.615C1597.81 108.922 1592.49 112.038 1588.54 117.171C1585.28 121.388 1581.99 120.627 1577.53 119.061C1574.31 117.934 1571.03 116.763 1567.77 115.769C1567.29 115.623 1566.86 116.522 1567.32 116.664C1571.31 117.877 1575.22 119.391 1579.19 120.663C1581.3 121.338 1583.48 121.966 1585.61 121.196C1588.28 120.232 1590.47 115.835 1592.36 113.952C1595.95 110.38 1600.23 107.763 1603.96 104.354C1606.23 102.268 1608.84 100.062 1610.88 97.76C1611.68 96.855 1612.67 95.841 1612.06 94.614C1611.04 92.555 1607.94 90.933 1606.19 89.552C1603.61 87.52 1601.25 85.205 1598.79 83.022C1598.39 82.664 1597.83 83.48 1598.18 83.796Z" fill="#757067"/>
<path d="M1611.93 95.978C1619.76 88.294 1632.31 88.51 1642.3 86.384C1642.94 86.248 1642.42 85.548 1641.92 85.655C1631.8 87.809 1619.09 87.659 1611.15 95.447C1610.73 95.853 1611.59 96.309 1611.93 95.978Z" fill="#757067"/>
<path d="M1607.16 100.964C1609.62 103.028 1612.34 104.714 1614.88 106.674C1617.17 108.443 1619.91 109.419 1622.07 111.403C1622.46 111.765 1622.98 110.918 1622.63 110.593C1620.48 108.622 1617.83 107.489 1615.44 105.864C1612.8 104.072 1610.16 102.202 1607.72 100.154C1607.31 99.8091 1606.79 100.656 1607.16 100.964Z" fill="#757067"/>
<path d="M1601.15 125.281C1605.07 124.976 1609.04 128.341 1612.81 126.387C1613.83 125.856 1614.5 124.283 1615.02 123.376C1616.35 121.006 1617.81 118.758 1619.32 116.492C1622.89 111.131 1626.47 107.626 1632.37 104.878C1634.47 103.903 1642.07 98.654 1644.04 101.912C1644.38 102.472 1644.95 101.932 1644.65 101.442C1641.77 96.684 1630.58 104.498 1627.44 106.373C1622.34 109.421 1619.53 114.349 1616.45 119.217C1614.69 121.987 1613.39 126.258 1609.5 126.024C1606.53 125.845 1604.12 124.063 1601.05 124.302C1600.51 124.343 1600.67 125.319 1601.15 125.281Z" fill="#757067"/>
<path d="M1625.28 115.034C1629.48 112.159 1634.43 110.441 1638.43 107.278C1642.66 103.935 1646.72 99.996 1651.75 97.885C1652.31 97.647 1651.55 97.087 1651.11 97.269C1647.14 98.938 1643.74 101.839 1640.42 104.524C1635.49 108.509 1629.84 110.868 1624.65 114.418C1624.13 114.771 1624.88 115.308 1625.28 115.034Z" fill="#757067"/>
<path d="M1653.56 100.778C1652.53 107.619 1647.29 111.904 1643.27 117.054C1640.12 121.088 1639.09 126.225 1638.44 131.174C1637.47 138.676 1636.74 145.041 1631.83 151.038C1627.94 155.797 1623.19 159.584 1620.01 164.936C1618.48 167.504 1617.71 170.644 1616.64 173.423C1615.24 177.032 1613.62 180.557 1612.1 184.116C1609.1 191.147 1606.32 198.253 1603.5 205.357C1600.86 212 1599.24 217.37 1599.65 224.56C1599.93 229.561 1604.52 232.887 1607.84 236.122C1608.21 236.485 1608.99 236.119 1608.52 235.662C1606.29 233.491 1604.01 231.405 1602.1 228.933C1599.26 225.261 1600.35 217.914 1601.4 213.873C1603.03 207.557 1606.09 201.31 1608.52 195.266C1611.2 188.627 1614.11 182.089 1616.88 175.49C1619.6 169.03 1621.6 163.407 1626.42 158.157C1629.64 154.654 1633.59 151.439 1635.78 147.129C1638.57 141.643 1638.84 135.47 1639.67 129.473C1640.51 123.494 1642.83 118.588 1647.01 114.224C1650.51 110.57 1653.74 106.183 1654.51 101.086C1654.59 100.59 1653.64 100.296 1653.56 100.778Z" fill="#757067"/>
<path d="M1639.23 127.44C1641.05 129.555 1643.55 131.103 1644.76 133.698C1644.99 134.214 1645.62 133.457 1645.43 133.035C1644.2 130.372 1641.64 128.786 1639.77 126.618C1639.43 126.222 1638.92 127.079 1639.23 127.44Z" fill="#757067"/>
<path d="M1538.55 148.679C1540.92 150.241 1543.38 151.815 1545.9 153.124C1546.33 153.345 1546.95 152.571 1546.48 152.324C1543.96 151.015 1541.5 149.442 1539.13 147.879C1538.73 147.617 1538.1 148.382 1538.55 148.679Z" fill="#757067"/>
<path d="M1539.06 160.282C1549.91 166.505 1561.66 170.831 1573.26 175.403C1585.28 180.138 1596.66 187.254 1609.67 188.674C1616.16 189.383 1622.51 190.795 1629 191.474C1635.6 192.164 1642.27 192.06 1648.89 192.033C1660.4 191.986 1672.75 193.508 1682.6 186.346C1688.16 182.307 1694.89 181.432 1701.51 180.148C1708.15 178.858 1714.84 178.754 1721.54 177.965C1732.42 176.683 1742.13 171.231 1746.66 160.916C1750.34 152.515 1753.35 140.337 1749.03 131.595C1745.4 124.237 1741.66 115.561 1746.25 107.809C1748.87 103.39 1751.21 97.474 1755.3 94.261C1755.67 93.969 1755.3 93.074 1754.84 93.434C1751.48 96.081 1749.73 100.231 1747.73 103.9C1745.62 107.746 1743.41 110.464 1743.25 114.992C1743.1 119.248 1744.63 123.931 1746.35 127.749C1749.65 135.101 1750.74 141.207 1749.41 149.193C1748.28 155.954 1745.71 162.476 1741.29 167.753C1736.77 173.143 1729.75 175.552 1723.06 176.734C1717.04 177.798 1710.85 177.673 1704.79 178.571C1699.07 179.418 1693.07 180.504 1687.57 182.344C1685.54 183.024 1683.82 184.227 1682.15 185.518C1678.83 188.08 1675.09 189.447 1671.02 190.301C1665.48 191.463 1659.64 191.097 1654.02 191.033C1647.47 190.959 1640.91 191.127 1634.36 190.859C1626.62 190.543 1619.22 188.615 1611.55 187.866C1598.8 186.621 1588.24 180.422 1576.56 175.694C1564.01 170.61 1551.15 166.153 1539.36 159.387C1538.86 159.099 1538.65 160.047 1539.06 160.282Z" fill="#757067"/>
<path d="M1538.69 302.245C1539.96 302 1541.37 301.779 1542.61 302.311C1544.08 302.945 1544.28 304.798 1544.3 306.191C1544.31 306.844 1545.12 306.568 1545.11 306.046C1545.09 304.548 1544.92 302.677 1543.58 301.73C1542.18 300.747 1540.33 301.003 1538.75 301.304C1538.29 301.393 1538.12 302.354 1538.69 302.245Z" fill="#757067"/>
<path d="M1750.51 92.2661C1747.19 96.7001 1743.22 100.217 1741.59 105.659C1739.59 112.358 1737.4 118.427 1731.99 123.135C1721.54 132.228 1708.98 138.881 1697.86 147.091C1692.46 151.084 1686.65 154.493 1681.21 158.442C1675.17 162.836 1670.43 168.618 1664.84 173.528C1659.45 178.252 1650.53 183.257 1652.19 191.628C1652.31 192.244 1653.03 192.028 1652.91 191.425C1651.73 185.472 1656.65 181.72 1660.69 178.295C1665.01 174.632 1669.26 170.977 1673.14 166.85C1677.64 162.073 1682.89 158.327 1688.34 154.721C1694.19 150.847 1699.73 146.661 1705.42 142.567C1710.44 138.952 1716.07 136.314 1720.92 132.424C1725.44 128.793 1730.9 126.112 1734.86 121.805C1738.27 118.099 1739.75 113.805 1741.29 109.09C1742.36 105.796 1743.36 102.738 1745.43 99.8991C1747.18 97.4941 1749.32 95.3821 1751.11 92.9961C1751.39 92.6171 1750.86 91.8021 1750.51 92.2661Z" fill="#757067"/>
<path d="M1537.23 180.366C1548.97 181.202 1560.67 183.437 1572.19 185.843C1578.22 187.103 1583.94 189.15 1589.79 191.06C1595.66 192.977 1601.85 193.403 1607.73 195.241C1608.23 195.397 1608.23 194.4 1607.77 194.258C1601.9 192.422 1595.73 191.884 1589.83 190.076C1583.95 188.271 1578.27 186.156 1572.24 184.859C1560.74 182.392 1549 180.217 1537.27 179.382C1536.73 179.344 1536.75 180.333 1537.23 180.366Z" fill="#757067"/>
<path d="M1571.61 168.607C1571.22 171.217 1570.13 173.602 1569.39 176.118C1568.61 178.769 1568.09 181.299 1567.02 183.868C1566.83 184.316 1567.49 184.959 1567.73 184.382C1568.83 181.775 1569.3 179.305 1570.11 176.632C1570.89 174.049 1571.98 171.574 1572.38 168.893C1572.46 168.379 1571.71 167.96 1571.61 168.607Z" fill="#757067"/>
<path d="M1784.9 78.4291C1793.09 77.2541 1801.82 80.1811 1809.02 83.7621C1817.64 88.0571 1822.28 95.0271 1828.11 102.318C1828.43 102.709 1829.2 102.075 1828.89 101.683C1825.94 97.9931 1823.28 94.0821 1820.17 90.5251C1817.29 87.2461 1813.45 84.9971 1809.63 82.9961C1802.4 79.2021 1793.37 76.3861 1785.11 77.5711C1784.64 77.6371 1784.29 78.5171 1784.9 78.4291Z" fill="#757067"/>
<path d="M1929.53 127.001C1923.9 126.844 1919.53 125.046 1915.41 121.224C1911.49 117.586 1908.38 113.537 1903.38 111.275C1899.04 109.315 1898.37 104.905 1893.74 103.386C1888.07 101.529 1881.73 100.758 1875.92 99.2991C1870.72 97.9911 1865.19 98.2931 1859.87 98.2281C1853.1 98.1451 1846.37 97.2811 1839.59 97.2431C1830.42 97.1921 1826.49 101.969 1825.38 110.729C1825.3 111.352 1826.05 111.383 1826.12 110.772C1827.17 102.553 1831 98.2711 1839.54 98.2421C1845.05 98.2231 1850.54 98.7221 1856.04 99.0671C1861.46 99.4081 1866.89 99.1151 1872.31 99.6821C1877.58 100.234 1882.74 102.283 1887.97 103.25C1890.27 103.676 1892.6 104.048 1894.83 104.779C1897.48 105.649 1898.33 108.79 1900.04 110.671C1900.79 111.505 1902.13 111.849 1903.12 112.226C1906.12 113.369 1908.54 115.588 1910.84 117.747C1916.83 123.364 1920.76 127.758 1929.47 128C1929.97 128.013 1930.03 127.014 1929.53 127.001Z" fill="#757067"/>
<path d="M1925.43 137.946C1921.6 144.15 1915.09 147.452 1909.32 151.541C1902.17 156.605 1894.56 161.049 1887.58 166.35C1882.24 170.407 1876.53 173.912 1871.49 178.356C1866.03 183.177 1862.29 189.892 1858.54 196.039C1854.31 202.977 1849.84 209.762 1845.55 216.665C1840.93 224.117 1836.99 231.963 1832.41 239.426C1829.47 244.233 1823.57 250.116 1823.35 256.082C1823.16 261.275 1826.58 264.657 1829.23 268.803C1829.58 269.356 1830.05 268.629 1829.78 268.196C1828.38 266.008 1826.77 263.974 1825.42 261.764C1822.32 256.733 1825.51 251.744 1828.17 247.442C1832.03 241.223 1835.77 235.081 1839.38 228.706C1846.94 215.336 1855.36 202.325 1863.68 189.42C1871.64 177.087 1884.92 168.938 1897 161.013C1902.83 157.183 1908.51 153.13 1914.35 149.303C1918.89 146.326 1923.18 143.245 1926.07 138.553C1926.33 138.139 1925.76 137.414 1925.43 137.946Z" fill="#757067"/>
<path d="M1843.42 123.795C1842.19 127.401 1840.78 130.545 1837.81 133.099C1834.83 135.666 1831.63 138.009 1828.63 140.576C1822.11 146.163 1815.32 151.352 1808.56 156.645C1802.33 161.531 1795.14 164.477 1789.69 170.386C1785.3 175.148 1782.18 181.155 1779.13 186.821C1774.73 194.996 1771.04 203.527 1766.43 211.594C1762.47 218.525 1757.82 225.171 1753.15 231.64C1751.08 234.512 1748.27 236.956 1746.04 239.742C1743.45 242.987 1740.09 246.055 1736.81 248.599C1733.7 251.016 1732.72 252.969 1735.23 256.133C1735.35 256.293 1735.54 256.255 1735.69 256.151C1738.09 254.395 1739.89 251.889 1742.19 249.963C1745.89 246.861 1750.03 244.043 1754.09 241.461C1756.41 239.99 1758.54 238.105 1760.68 236.4C1763.61 234.075 1765.82 231.302 1769.4 234.352C1771.31 235.979 1774.68 235.981 1777.03 236.358C1780.81 236.966 1784.48 238.152 1788.15 239.256C1795.33 241.417 1802.21 243.366 1809.79 243.339C1813.13 243.327 1816.49 242.559 1819.77 242.006C1824.54 241.201 1829.07 241.429 1833.87 241.864C1842.41 242.639 1850.78 244.803 1859.24 246.248C1866.72 247.526 1873.95 247.72 1881.5 248.414C1885.18 248.751 1888.82 249.086 1892.51 248.903C1895.88 248.736 1899.26 247.139 1902.35 245.96C1902.79 245.792 1902.7 244.83 1902.16 245.037C1898.39 246.475 1894.81 247.805 1890.75 248.006C1886.59 248.212 1882.28 247.465 1878.14 247.124C1874.68 246.839 1871.21 246.915 1867.75 246.703C1863.9 246.467 1860.02 245.341 1856.21 244.739C1848.8 243.566 1841.58 241.407 1834.07 240.886C1831.06 240.677 1828.09 240.324 1825.06 240.339C1821.11 240.357 1817.06 241.542 1813.15 242.084C1805.83 243.099 1798.4 241.411 1791.44 239.276C1788.37 238.332 1785.3 237.384 1782.21 236.491C1778.39 235.387 1773.17 235.688 1769.8 233.449C1766.07 230.969 1765.8 230.742 1762.27 233.996C1756.88 238.959 1750.42 242.718 1744.57 247.098C1742.33 248.768 1739.87 250.416 1738.09 252.587C1734.35 257.125 1735.38 250.947 1737.19 249.399C1738.47 248.301 1739.77 247.28 1741 246.118C1745.52 241.856 1749.78 237.079 1753.69 232.266C1762.64 221.24 1769.35 208.249 1775.57 195.565C1778.85 188.862 1782.3 182.225 1786.41 175.982C1791.08 168.887 1797.53 164.801 1804.6 160.41C1816.74 152.87 1826.74 142.353 1838.19 133.899C1841.39 131.537 1842.84 127.827 1844.08 124.203C1844.26 123.676 1843.64 123.172 1843.42 123.795Z" fill="#757067"/>
<path d="M1824.9 98.3371C1818.74 106.218 1815.74 116.441 1813.39 126.061C1812.99 127.7 1812.56 129.329 1812.09 130.948C1811.25 133.897 1807.88 132.232 1806.34 131.769C1804.6 131.246 1802.56 131.367 1800.76 131.219C1794.24 130.684 1788.04 128.91 1781.42 128.811C1780.96 128.804 1780.51 129.68 1781.08 129.688C1788.15 129.794 1794.82 131.637 1801.81 132.21C1804.31 132.416 1806.46 133.098 1808.88 133.606C1809.9 133.82 1810.67 133.92 1811.58 133.32C1812.76 132.548 1813.05 130.554 1813.38 129.385C1814.32 126.071 1815.02 122.695 1815.99 119.385C1818.11 112.128 1820.93 104.634 1825.6 98.6631C1826 98.1431 1825.25 97.8971 1824.9 98.3371Z" fill="#757067"/>
<path d="M1825.01 110.442C1823.92 116.546 1822.51 123.028 1819.92 128.696C1819.12 130.44 1816.46 134.463 1818.2 136.32C1819.53 137.733 1821.22 138.608 1822.59 139.995C1824.15 141.57 1825.06 143.428 1826.94 144.693C1828.51 145.742 1830.26 146.492 1831.84 147.526C1836.74 150.737 1832.65 154.943 1830.19 157.825C1826.95 161.626 1824.89 166.518 1821.81 170.542C1817.85 175.721 1815.04 181.544 1811.3 186.848C1803.41 198.041 1785.54 192.799 1774.08 196.4C1773.46 196.597 1773.87 197.268 1774.41 197.097C1784.88 193.806 1798.74 197.827 1808.12 191.177C1813.02 187.702 1815.37 181.867 1818.45 176.899C1822.06 171.06 1826.44 165.989 1829.7 159.899C1831.52 156.475 1835.47 154.79 1835.25 150.455C1835.09 147.283 1829.74 145.344 1827.6 144.103C1825.23 142.728 1824.48 139.988 1822.33 138.454C1818.36 135.623 1818.97 132.858 1820.81 128.997C1823.51 123.334 1824.89 116.695 1825.99 110.556C1826.08 110.027 1825.09 109.973 1825.01 110.442Z" fill="#757067"/>
<path d="M1821.33 171.376C1821.47 176.347 1824.26 180.529 1826.7 184.691C1830.71 191.528 1832.7 198.596 1833.36 206.463C1833.68 210.324 1830.98 213.805 1829.43 217.14C1828.09 220.042 1827.08 223.032 1825.61 225.89C1822.92 231.136 1820.25 236.494 1817.38 241.641C1817.06 242.216 1817.85 242.346 1818.12 241.858C1821 236.696 1823.57 231.325 1826.35 226.107C1828.12 222.793 1829.29 219.258 1830.87 215.858C1832.16 213.078 1833.65 210.807 1834.16 207.739C1834.48 205.776 1833.91 203.493 1833.59 201.571C1833.02 198.263 1832.93 195.233 1831.5 192.138C1828.48 185.621 1822.38 178.442 1822.17 171.123C1822.16 170.498 1821.31 170.893 1821.33 171.376Z" fill="#757067"/>
<path d="M1826.03 250.741C1827.23 250.291 1828.49 250.07 1829.62 249.454C1831.32 248.533 1832.76 244.429 1833.53 243.526C1837.56 238.742 1840.15 233.514 1842.96 227.946C1846.01 221.9 1850.27 216.863 1854.05 211.294C1855.67 208.918 1857.04 206.348 1858.08 203.674C1858.99 201.326 1858.54 199.5 1858.87 197.054C1858.95 196.437 1858.21 196.325 1858.13 196.945C1857.82 199.255 1858.24 200.79 1857.4 203.306C1856.34 206.508 1854.35 209.431 1852.47 212.202C1849.33 216.818 1845.9 220.998 1843.16 225.891C1840.75 230.207 1838.88 234.767 1836.22 238.952C1833.99 242.446 1829.65 248.382 1825.97 249.757C1825.53 249.924 1825.54 250.923 1826.03 250.741Z" fill="#757067"/>
<path d="M1884.24 248.198C1884.3 246.034 1885.04 243.741 1885.97 241.799C1886.22 241.286 1885.23 241.282 1885.03 241.701C1884.07 243.699 1883.32 246.071 1883.26 248.302C1883.25 248.837 1884.23 248.677 1884.24 248.198Z" fill="#757067"/>
<path d="M1829.8 268.571C1831.35 265.715 1833.93 264.027 1836.49 262.17C1838.47 260.731 1841.97 255.585 1844.57 255.818C1847.46 256.077 1851.55 258.754 1854.36 259.865C1858.27 261.414 1862.34 262.345 1866.32 263.684C1873.09 265.969 1879.94 267.817 1886.83 269.74C1889.39 270.454 1891.79 271.149 1894.45 271.182C1898.25 271.228 1901.62 267.401 1905.03 271.131C1905.45 271.591 1905.8 270.723 1905.47 270.368C1904.27 269.046 1903.39 268.431 1901.58 268.382C1900.34 268.349 1898.84 269.117 1897.72 269.487C1895.1 270.36 1892.7 270.309 1890.03 269.615C1881.54 267.417 1873.17 264.985 1864.88 262.189C1859.64 260.42 1854.47 258.957 1849.34 256.79C1847.47 255.997 1845.05 254.241 1842.95 255.047C1840.52 255.979 1838.14 259.731 1836.01 261.354C1833.42 263.33 1830.78 264.997 1829.2 267.928C1828.97 268.349 1829.51 269.119 1829.8 268.571Z" fill="#757067"/>
<path d="M1829.2 268.778C1831.18 270.408 1834.22 273.09 1831.35 275.493C1830.62 276.108 1829.89 276.364 1829.53 277.247C1829.06 278.386 1831.56 281.099 1832.07 281.835C1833.59 284.032 1835.47 286.221 1837.59 287.854C1841.09 290.536 1845.19 291.62 1848.34 294.84C1854.31 300.943 1862.02 304.965 1867.81 311.256C1872.72 316.6 1878.13 322.81 1884.12 326.946C1888.92 330.265 1895.54 331.493 1896.91 338.072C1897.83 342.501 1896.7 347.902 1896.2 352.364C1895.96 354.498 1894.99 358.01 1896.48 359.975C1897.16 360.873 1897.9 361.612 1898.72 362.389C1900.42 364.013 1900.27 365.973 1901.29 367.865C1903.06 371.122 1905.78 373.914 1908.24 376.659C1914.04 383.146 1920.84 388.727 1927.36 394.453C1927.71 394.765 1928.61 394.453 1928.14 394.045C1922.03 388.677 1915.86 383.382 1910.2 377.522C1907.27 374.486 1903.1 370.552 1901.86 366.48C1901.05 363.804 1899.87 362.4 1897.92 360.432C1895.18 357.675 1897.65 348.485 1897.92 345.023C1898.13 342.248 1898.55 338.432 1897.28 335.838C1895.13 331.469 1890.63 329.681 1886.56 327.486C1879.74 323.806 1873.87 316.433 1868.59 310.849C1862.7 304.633 1854.98 300.655 1849.12 294.432C1847.36 292.562 1845.54 291.188 1843.19 290.165C1837.84 287.839 1834.23 283.783 1831.2 278.884C1829.77 276.557 1833.81 275.352 1834.14 273.125C1834.41 271.333 1830.94 269.158 1829.8 268.222C1829.4 267.889 1828.69 268.365 1829.2 268.778Z" fill="#757067"/>
<path d="M1831.09 276.044C1833.48 279.006 1835.62 282.124 1838.34 284.794C1840.51 286.922 1843.83 287.912 1846.62 288.895C1855.25 291.943 1862.11 298.21 1870.65 301.464C1879.03 304.66 1887.79 307.26 1896.7 308.462C1907.19 309.877 1916.96 312.408 1927.01 315.656C1927.46 315.801 1928.04 315.021 1927.49 314.843C1919.25 312.182 1911.12 309.728 1902.56 308.336C1893.51 306.867 1884.92 305.387 1876.2 302.472C1867.23 299.475 1860.04 294.433 1851.82 289.987C1848.62 288.258 1844.98 287.503 1841.71 285.902C1837.44 283.81 1834.79 279.037 1831.9 275.455C1831.59 275.064 1830.78 275.655 1831.09 276.044Z" fill="#757067"/>
<path d="M1844.03 287.842C1841.64 291.999 1838.74 295.234 1836.71 299.626C1834.81 303.732 1824.58 296.382 1822.16 294.816C1811.85 288.128 1800.15 283.948 1789.38 278.014C1784.09 275.103 1778.73 272.458 1773.26 269.916C1770.13 268.462 1767.5 266.73 1765.45 263.863C1764.28 262.226 1763 260.841 1761.41 259.591C1758.91 257.617 1753.95 258.993 1752.2 256.613C1749.01 252.282 1748.61 245.717 1746.2 240.863C1745.99 240.44 1745.04 240.613 1745.3 241.134C1747.82 246.201 1748.69 251.865 1751.3 256.884C1751.8 257.858 1752.52 258.402 1753.55 258.639C1753.91 258.721 1754.35 258.664 1754.68 258.66C1757.88 258.615 1760.44 259.614 1762.79 261.914C1764.62 263.712 1765.54 266.034 1767.66 267.567C1770.09 269.323 1772.75 270.532 1775.46 271.79C1782.26 274.943 1788.71 278.66 1795.34 282.145C1800.58 284.905 1806.01 287.405 1811.48 289.685C1815.1 291.198 1818.32 293.242 1821.58 295.397C1824.73 297.473 1828.75 298.745 1831.53 301.309C1832.78 302.468 1835.08 303.731 1836.43 301.869C1837.89 299.875 1838.58 297.541 1839.76 295.399C1841.19 292.808 1843.48 290.743 1844.97 288.157C1845.23 287.697 1844.27 287.427 1844.03 287.842Z" fill="#757067"/>
<path d="M1751.78 257.845C1756.04 262.112 1759.71 266.787 1764.67 270.26C1770.47 274.31 1775.55 279.174 1781.17 283.441C1786.57 287.535 1792.27 291.056 1797.55 295.344C1802.76 299.576 1808.74 302.954 1813.35 307.881C1818.03 312.88 1819.6 321.299 1821.44 327.717C1823.67 335.5 1825.81 343.352 1827.62 351.245C1830.67 364.584 1837.39 376.205 1842.96 388.603C1848.65 401.246 1855.52 413.67 1860.12 426.765C1862.7 434.078 1861.91 441.655 1863.34 449.148C1864.27 454.028 1867.28 458.027 1870.4 461.733C1874.46 466.548 1878.55 471.08 1881.95 476.419C1884.23 479.99 1884.15 482.641 1888.87 483.188C1902.41 484.758 1915.14 475.433 1928.57 475.238C1929.1 475.231 1928.91 474.255 1928.43 474.262C1915.66 474.447 1904.07 481.958 1891.29 482.261C1884.67 482.418 1881.46 473.956 1877.99 469.311C1874.28 464.343 1869.61 460.251 1866.34 454.926C1862.47 448.602 1863.51 440.535 1862.59 433.48C1861.83 427.55 1859.18 421.874 1856.65 416.528C1850.68 403.892 1845.16 391.041 1839.23 378.375C1836.27 372.046 1832.78 366.107 1830.54 359.45C1828.43 353.163 1827.29 346.492 1825.57 340.082C1822.63 329.101 1820.82 314.695 1812.78 306.103C1809.24 302.324 1804.52 299.676 1800.43 296.572C1795.07 292.51 1790.07 288.197 1784.35 284.622C1778.92 281.229 1774.29 276.655 1769.38 272.58C1766.22 269.956 1762.66 268.08 1759.72 265.156C1757.14 262.59 1754.8 259.741 1752.22 257.156C1751.76 256.691 1751.41 257.478 1751.78 257.845Z" fill="#757067"/>
<path d="M1805.04 300.249C1808.47 297.481 1811.04 293.82 1814.58 291.156C1815.04 290.806 1814.24 290.255 1813.87 290.539C1810.33 293.204 1807.75 296.865 1804.33 299.632C1803.87 299.998 1804.67 300.546 1805.04 300.249Z" fill="#757067"/>
<path d="M1928.9 437.584C1922.87 437.531 1916.52 434.186 1911.5 431.089C1906.04 427.717 1900.58 424.192 1895.29 420.558C1889.87 416.842 1885.37 412.362 1880.76 407.726C1876.32 403.253 1871.28 399.405 1866.85 394.944C1865.02 393.1 1863.36 393.924 1861.93 395.587C1860.6 397.14 1857.35 397.73 1855.57 398.762C1852.51 400.541 1849.67 402.415 1846.29 403.563C1840.15 405.65 1834.62 409.075 1828.37 410.811C1822.96 412.313 1817.52 413.179 1812.41 415.625C1811.91 415.867 1811.99 416.66 1812.59 416.375C1818.08 413.745 1824.07 412.804 1829.89 411.188C1835.17 409.722 1839.7 406.493 1844.91 404.8C1849.94 403.165 1853.82 400.285 1858.59 398.124C1860.08 397.449 1861.37 397.138 1862.55 396.042C1865.26 393.534 1868.59 397.901 1870.65 399.656C1880.29 407.861 1888.26 417.199 1898.95 424.164C1907.5 429.729 1917.89 438.32 1928.6 438.414C1929.08 438.42 1929.52 437.589 1928.9 437.584Z" fill="#757067"/>
<path d="M1625.71 470.151C1630.57 475.291 1634.42 481.079 1639.45 486.132C1644.29 491.007 1648.66 496.15 1653.32 501.161C1657.45 505.593 1663.96 508.087 1669.05 511.208C1675.54 515.188 1682.13 519.026 1688.69 522.896C1694.41 526.275 1701 527.494 1707.44 528.734C1715.45 530.275 1723.48 531.617 1731.56 532.718C1746.79 534.794 1762.21 535.558 1777.5 533.722C1785.64 532.743 1793.72 531.646 1801.91 531.066C1809.34 530.541 1816.72 529.011 1824.16 529.175C1838.51 529.493 1851.36 532.566 1863.72 540.081C1876.07 547.591 1883.27 559.706 1894.21 568.651C1899.84 573.251 1905.83 577.278 1910.91 582.52C1915.64 587.395 1920.31 592.395 1924.96 597.332C1925.51 598.293 1926.07 599.254 1926.61 600.215C1926.81 600.811 1927.53 600.242 1927.38 599.781C1925.97 595.521 1921.37 592.525 1918.39 589.349C1913.09 583.699 1908.19 578.181 1902.01 573.431C1896.47 569.171 1891.23 565.023 1886.59 559.763C1881.94 554.497 1877.43 549.277 1872 544.777C1862.51 536.904 1850.95 531.625 1838.88 529.277C1824.81 526.547 1810.46 529.367 1796.41 530.541C1780.45 531.873 1765.06 534.402 1748.96 533.479C1733.32 532.583 1717.65 529.944 1702.34 526.702C1687.56 523.573 1674.7 513.225 1661.78 505.774C1658.51 503.893 1655.47 502.049 1652.89 499.28C1650.86 497.096 1649.27 494.569 1647.14 492.471C1641.38 486.795 1635.36 481.213 1630.64 474.619C1629.3 472.755 1627.86 471.015 1626.28 469.348C1625.92 468.963 1625.39 469.803 1625.71 470.151Z" fill="#757067"/>
<path d="M1633.67 473.838C1636.75 476.192 1639.05 479.139 1641.59 482.024C1643.62 484.327 1646.23 486.097 1648.49 488.151C1653.2 492.421 1657.6 497.005 1662.06 501.524C1666.13 505.645 1671.82 508.249 1676.86 510.963C1682.47 513.984 1688.22 515.475 1694.48 516.584C1708.6 519.09 1723.13 518.43 1737.41 518.594C1752.01 518.76 1766.63 518.643 1781.15 516.881C1795.93 515.086 1812.74 512.381 1827.28 516.67C1833.88 518.617 1840.06 521.902 1846.52 524.252C1853.42 526.76 1859.42 530.195 1865.56 534.178C1871.37 537.942 1876.56 542.518 1881.06 547.762C1884.96 552.297 1888.35 557.951 1893.13 561.616C1896.03 563.846 1899.11 565.804 1901.94 568.137C1904.63 570.354 1906.89 573.051 1909.59 575.274C1915.1 579.815 1920.91 584.096 1926.09 589.024C1926.44 589.354 1927.29 588.838 1926.91 588.475C1922.55 584.338 1917.76 580.532 1913.05 576.803C1907.73 572.582 1903.2 567.561 1897.59 563.696C1891.56 559.536 1887.59 553.989 1882.9 548.475C1879.04 543.922 1874.92 539.879 1870.16 536.264C1859.06 527.826 1846.62 523.457 1833.9 518.166C1820.98 512.797 1807.85 513.635 1794.16 514.728C1779.08 515.931 1764.27 517.771 1749.09 517.857C1733.53 517.945 1717.6 518.398 1702.11 516.822C1687.75 515.359 1672.2 510.408 1661.79 499.875C1657.33 495.357 1652.88 490.834 1648.17 486.564C1645.84 484.459 1643.43 482.638 1641.35 480.269C1639.11 477.726 1637.03 475.227 1634.33 473.16C1633.95 472.875 1633.21 473.484 1633.67 473.838Z" fill="#757067"/>
<path d="M1862.69 448.679C1861.9 449.931 1859.91 450.858 1859.4 452.286C1858.39 455.136 1858.08 458.176 1857.14 461.07C1856.13 464.223 1854.66 467.19 1853.49 470.286C1852.42 473.155 1851.94 476.179 1850.84 479.036C1849.34 482.89 1848.23 486.541 1849.16 490.774C1849.76 493.522 1852.3 493.6 1854.84 494.018C1860.67 494.975 1866.7 495.241 1872.44 496.67C1879.43 498.414 1885.87 500.957 1893.06 502.076C1899.38 503.06 1905.41 504.683 1911.66 505.972C1917.62 507.202 1923.88 506.347 1929.71 508.238C1930.21 508.402 1930.25 507.406 1929.79 507.258C1925.54 505.877 1921.03 505.959 1916.61 505.635C1910.93 505.217 1905.61 503.248 1900.06 502.192C1894.28 501.094 1888.45 500.52 1882.75 499.024C1876.74 497.446 1871.36 495.079 1865.1 494.465C1860.64 494.027 1856.11 493.485 1851.75 492.397C1849.67 491.877 1850.1 487.358 1849.81 485.737C1849.31 482.986 1851.69 479.269 1852.53 476.675C1854.17 471.546 1856.07 466.59 1857.85 461.496C1858.72 458.993 1859.15 456.544 1859.66 453.958C1860.07 451.869 1862.24 450.996 1863.3 449.319C1863.56 448.911 1863.03 448.151 1862.69 448.679Z" fill="#757067"/>
<path d="M1850.48 491.114C1845.5 490.794 1840.49 489.858 1835.49 489.401C1829.13 488.821 1823.31 485.518 1817.11 484.141C1811.17 482.82 1805.26 480.689 1804.93 473.821C1804.76 470.363 1805.84 466.601 1804.97 463.198C1802.72 454.419 1794.6 448.31 1789.68 441.102C1782.53 430.61 1781.68 418.805 1777.47 407.198C1777.31 406.755 1776.33 406.756 1776.53 407.301C1778.55 412.866 1779.69 418.653 1781.1 424.39C1782.47 429.977 1784.93 435.054 1787.91 439.944C1793.75 449.506 1804.76 456.465 1804.13 468.702C1803.97 471.788 1803.13 476.546 1805.22 479.239C1807.54 482.214 1811.88 483.608 1815.38 484.57C1820.94 486.101 1826.61 488.533 1832.27 489.634C1835.01 490.169 1837.75 490.37 1840.54 490.527C1843.91 490.715 1847.15 491.668 1850.52 491.884C1851.17 491.927 1851.05 491.152 1850.48 491.114Z" fill="#757067"/>
<path d="M1630.85 475.362C1634.65 474.089 1638.4 472.134 1641.55 469.658C1644.42 467.405 1642.66 465.695 1640.76 463.465C1639.04 461.435 1642.57 459.61 1641.73 457.621C1640.52 454.749 1638.45 452.166 1636.78 449.534C1634.32 445.666 1632.32 441.547 1630.59 437.305C1629.45 434.519 1629.4 431.923 1627.44 429.53C1627.14 429.16 1626.23 429.563 1626.56 429.971C1628.41 432.238 1628.66 434.899 1629.62 437.563C1630.4 439.718 1631.48 442.015 1632.51 444.042C1634.45 447.869 1642.12 456.411 1639.59 460.585C1638.31 462.696 1640.47 464.53 1641.7 465.893C1644.56 469.039 1632.57 473.997 1630.65 474.638C1630.07 474.833 1630.25 475.561 1630.85 475.362Z" fill="#757067"/>
<path d="M1624.85 415.58C1624.88 421.744 1628.04 428.251 1630.28 433.905C1631.69 437.447 1633.14 440.911 1635.05 444.222C1636.08 446.013 1638.42 447.737 1635.82 449.629C1633.91 451.026 1631.79 452.023 1629.67 453.065C1629.24 453.278 1629.27 454.211 1629.83 453.935C1632.56 452.59 1635.91 451.251 1637.89 448.827C1638.82 447.67 1637.13 445.771 1636.61 444.949C1634.01 440.824 1632.23 436.384 1630.44 431.866C1628.47 426.923 1625.68 420.747 1625.65 415.42C1625.65 414.765 1624.84 415.06 1624.85 415.58Z" fill="#757067"/>
<path d="M1628.43 473.207C1634.35 471.002 1639.15 466.892 1644.68 463.957C1648 462.198 1650.95 460.59 1654.72 459.977C1658.05 459.437 1661.49 459.598 1664.84 459.242C1672.62 458.416 1679.39 459.902 1686.82 461.923C1692.76 463.538 1698.22 462.316 1703.71 459.843C1709.26 457.341 1714.2 453.521 1719.4 450.382C1726.23 446.254 1733.87 444.418 1741.64 442.963C1748.72 441.637 1755.83 440.652 1762.8 438.783C1766.32 437.838 1769.87 437.042 1773.38 436.032C1776.85 435.031 1780.05 433.32 1783.59 432.491C1784.08 432.376 1783.9 431.393 1783.41 431.507C1776.97 433.017 1770.83 435.751 1764.36 437.355C1756.77 439.236 1749.16 440.602 1741.46 441.979C1735.17 443.105 1728.86 444.551 1723.05 447.279C1717.05 450.093 1711.77 454.298 1706.02 457.556C1699.29 461.366 1692.72 462.535 1685.24 460.502C1678.4 458.642 1671.78 457.322 1664.66 458.257C1657.75 459.166 1651.86 458.763 1645.61 462.278C1639.76 465.566 1634.39 469.937 1628.07 472.292C1627.63 472.457 1627.93 473.395 1628.43 473.207Z" fill="#757067"/>
<path d="M1818.41 485.027C1814.64 488.818 1812.52 492.5 1806.74 493.754C1802.57 494.662 1799.03 494.996 1795.14 496.881C1792.08 498.358 1789.22 499.986 1785.86 500.731C1783.15 501.333 1780.24 501.086 1777.46 501.17C1772.5 501.324 1767.73 502.08 1762.73 501.936C1756.68 501.762 1754.44 505.852 1753.38 511.448C1751.46 521.632 1747.61 531.208 1744.78 541.214C1744.62 541.773 1745.59 541.743 1745.72 541.29C1748.24 532.362 1752.19 523.663 1754.11 514.589C1755.38 508.573 1755.55 502.515 1763.66 502.749C1767.75 502.866 1771.63 502.546 1775.7 502.085C1779.53 501.651 1783.89 502.425 1787.62 501.106C1792.44 499.399 1796.73 496.34 1801.76 495.247C1804.99 494.546 1808.67 494.743 1811.62 492.979C1814.79 491.083 1816.53 488.053 1819.09 485.475C1819.56 485.009 1818.77 484.657 1818.41 485.027Z" fill="#757067"/>
<path d="M1781.68 516.146C1781.68 513.98 1781.68 511.832 1782.41 509.763C1782.63 509.144 1781.76 509.257 1781.59 509.738C1780.83 511.879 1780.82 514.109 1780.82 516.353C1780.82 516.978 1781.68 516.632 1781.68 516.146Z" fill="#757067"/>
<path d="M1830.03 517.009C1829.06 519.874 1828.71 522.864 1827.94 525.78C1827.49 527.516 1826.17 529.036 1825.78 530.759C1825.39 532.454 1825.15 534.128 1824.53 535.759C1824.33 536.288 1825.31 536.171 1825.47 535.739C1826.55 532.887 1827.49 529.88 1828.47 526.989C1829.58 523.716 1829.87 520.262 1830.97 516.989C1831.15 516.45 1830.18 516.57 1830.03 517.009Z" fill="#757067"/>
<path d="M1858.31 533.4C1861.03 536.025 1864.24 537.425 1867.65 538.962C1871.56 540.72 1875.17 545.544 1878.2 548.515C1884.27 554.456 1888.96 562.527 1896.16 567.265C1904.04 572.447 1911.19 578.833 1918.08 585.275C1923.53 590.363 1930.05 596.38 1936.9 599.463C1937.43 599.699 1937.53 598.733 1937.1 598.539C1929.87 595.295 1923 588.725 1917.25 583.35C1911.17 577.666 1904.75 571.618 1897.68 567.215C1890.12 562.512 1884.47 554.229 1878.57 547.713C1875.8 544.647 1872.53 541.559 1869.29 538.998C1865.96 536.375 1861.85 535.664 1858.68 532.6C1858.24 532.167 1857.97 533.07 1858.31 533.4Z" fill="#757067"/>
<path d="M1842.89 490.605C1841.13 496.218 1841.22 497.078 1846.02 500.103C1852.55 504.23 1858.73 509.419 1865.05 513.925C1865.52 514.263 1865.84 513.349 1865.45 513.073C1860.88 509.809 1856.17 506.735 1851.7 503.323C1849.45 501.608 1847.35 499.841 1844.95 498.323C1841.99 496.454 1842.67 493.889 1843.61 490.893C1843.78 490.347 1843.09 489.984 1842.89 490.605Z" fill="#757067"/>
<path d="M1806.72 480.702C1805.87 482.149 1804.44 484.714 1803.54 485.61C1803.33 485.813 1803.31 486.178 1803.5 486.399C1805.8 489.114 1809.06 489.893 1812.4 490.678C1818.43 492.092 1823.94 495.559 1829.76 497.68C1840.17 501.481 1850.84 506.131 1858.5 514.399C1858.89 514.823 1859.32 513.946 1859 513.6C1851.26 505.248 1840.58 500.657 1830.1 496.756C1825.01 494.865 1820.04 491.623 1814.82 490.254C1812.05 489.525 1809.26 489.012 1806.63 487.807C1803.33 486.297 1805.96 483.55 1807.28 481.296C1807.54 480.855 1807.05 480.137 1806.72 480.702Z" fill="#757067"/>
<path d="M1933.62 555.71C1929.53 552.571 1924.74 550.532 1920.52 547.571C1915.3 543.913 1910.54 539.817 1905.12 536.399C1900.79 533.663 1896.21 531.46 1891.78 528.905C1890.32 528.065 1885.86 527.009 1889.36 523.887C1890.67 522.717 1891.41 521.393 1892.21 519.826C1892.48 519.316 1891.5 519.254 1891.28 519.67C1890.27 521.658 1885 524.475 1886.77 527.156C1887.46 528.201 1889.41 528.707 1890.46 529.174C1893.23 530.414 1895.9 532.123 1898.59 533.529C1905.19 536.97 1911.41 541.388 1917.15 546.093C1922.04 550.109 1927.89 552.46 1932.88 556.286C1933.25 556.575 1934.08 556.062 1933.62 555.71Z" fill="#757067"/>
<path d="M1886.37 522.972C1888.74 525.081 1890.47 526.525 1893.54 527.374C1898.09 528.634 1902.21 532.237 1906.47 534.257C1914.55 538.085 1923.62 539.677 1931.71 543.542C1932.17 543.759 1932.88 543.239 1932.29 542.958C1925.73 539.821 1918.47 537.724 1911.58 535.437C1906.67 533.806 1902.34 531.185 1897.89 528.601C1894.21 526.456 1890.41 525.445 1887.13 522.529C1886.77 522.21 1885.9 522.558 1886.37 522.972Z" fill="#757067"/>
<path d="M1641.72 191.505C1643.05 196.537 1636.08 200.812 1632.72 203.5C1628.32 207.029 1625.06 211.791 1621.82 216.35C1618.39 221.18 1615.42 226.433 1611.55 230.926C1607.01 236.208 1600.68 239.505 1595.47 244.041C1590.79 248.124 1586.85 253.368 1582.65 257.943C1577.63 263.407 1572.69 268.937 1567.65 274.386C1559.26 283.467 1553.16 294.805 1542.16 301.154C1541.62 301.464 1541.96 302.132 1542.51 301.819C1552.71 295.93 1559.1 285.774 1566.48 276.928C1571.44 270.977 1576.88 265.376 1582.13 259.67C1587.82 253.472 1593.18 246.534 1599.9 241.426C1604.64 237.815 1609.42 234.616 1613.34 230.057C1617.98 224.667 1621.48 218.066 1625.72 212.333C1629.5 207.207 1634.13 203.679 1638.76 199.444C1641.04 197.346 1643.54 194.533 1642.66 191.235C1642.53 190.713 1641.59 191.046 1641.72 191.505Z" fill="#757067"/>
<path d="M1523.79 315.5C1525.78 317.19 1528.73 321.217 1531.65 320.625C1532.33 320.487 1532.87 319.223 1533.17 318.744C1534.8 316.161 1538.2 314.597 1540.24 312.262C1541.92 310.346 1543.37 308.282 1544.91 306.263C1547.39 303.007 1551.85 301.002 1555.24 298.883C1560.8 295.404 1566.23 290.713 1572.08 287.777C1572.67 287.483 1572 286.93 1571.54 287.161C1566.74 289.568 1562.28 293.352 1557.75 296.284C1553.47 299.047 1548.75 301.52 1544.95 304.924C1541.04 308.415 1538.61 313.019 1534.35 316.364C1533.63 316.926 1531.27 320.28 1530.31 319.73C1528.19 318.516 1526.32 316.501 1524.46 314.929C1524.09 314.614 1523.31 315.096 1523.79 315.5Z" fill="#757067"/>
<path d="M1519.91 321.805C1523.47 324.542 1526.89 327.449 1530.46 330.186C1531.94 331.327 1533.34 332.549 1534.88 333.631C1535.52 334.089 1537.31 334.528 1536.23 335.676C1535.48 336.465 1534.86 337.269 1534.2 338.133C1533.81 338.654 1534.51 338.992 1534.86 338.535C1535.65 337.496 1537.42 336.181 1537.76 334.904C1538.01 333.946 1535.99 333.189 1535.51 332.876C1530.21 329.447 1525.54 324.892 1520.54 321.049C1520.16 320.76 1519.48 321.476 1519.91 321.805Z" fill="#757067"/>
<path d="M1537.14 335.258C1537.43 332.562 1539.25 330.393 1540.55 328.096C1542.28 325.024 1543.88 321.884 1545.68 318.846C1549.18 312.916 1555.04 308.819 1560.69 305.081C1571.85 297.702 1584.07 290.275 1593.6 280.808C1594.04 280.371 1593.54 279.813 1593.09 280.254C1582.22 291.048 1568.1 297.975 1556.1 307.277C1551.22 311.058 1547.4 314.412 1544.24 319.77C1542.65 322.45 1541.24 325.233 1539.74 327.958C1538.39 330.391 1536.56 332.517 1536.26 335.342C1536.19 335.966 1537.08 335.741 1537.14 335.258Z" fill="#757067"/>
<path d="M1554.29 290.426C1555.11 292.545 1556.6 294.527 1557.63 296.581C1558.85 298.996 1560.04 301.496 1561.43 303.815C1561.68 304.233 1562.57 304.027 1562.25 303.492C1560.9 301.23 1559.81 298.773 1558.56 296.446C1557.99 295.378 1557.49 294.268 1556.96 293.181C1556.45 292.151 1555.65 291.383 1555.23 290.291C1555.06 289.85 1554.08 289.885 1554.29 290.426Z" fill="#757067"/>
<path d="M1533.59 311.077C1533.89 312.744 1535.9 313.885 1537 315.061C1539.1 317.318 1541.83 319.048 1543.6 321.591C1543.96 322.103 1544.52 321.374 1544.24 320.975C1542.93 319.101 1541.18 317.732 1539.46 316.259C1538.39 315.345 1537.49 314.234 1536.52 313.227C1535.76 312.449 1534.52 311.852 1534.31 310.68C1534.2 310.036 1533.5 310.579 1533.59 311.077Z" fill="#757067"/>
<path d="M1607.52 236.126C1608.1 238.341 1610.3 239.77 1611.62 241.559C1614.72 245.775 1617.29 250.313 1620.57 254.42C1627 262.448 1633.4 270.53 1639.91 278.491C1645.99 285.924 1651.59 293.957 1658.38 300.76C1664.65 307.044 1672.16 311.648 1677.22 319.16C1677.5 319.566 1678.25 318.91 1677.97 318.493C1673.62 312.036 1667.48 307.157 1661.52 302.278C1654.19 296.271 1648.93 287.822 1642.93 280.576C1636.39 272.674 1630.28 264.488 1623.64 256.665C1620.57 253.052 1617.79 249.197 1615.16 245.254C1614.05 243.584 1613.05 241.832 1611.86 240.216C1610.72 238.657 1608.89 237.611 1608.37 235.631C1608.23 235.127 1607.39 235.665 1607.52 236.126Z" fill="#757067"/>
<path d="M1668.32 170.241C1670.72 176.23 1674.3 181.837 1676.07 188.082C1677.16 191.903 1675.81 195.849 1674.93 199.561C1674.11 203.035 1673.42 206.484 1672.85 210.007C1671.93 215.686 1669.74 220.762 1670.28 226.503C1670.78 231.847 1669.5 237.911 1671.39 243.001C1673.77 249.396 1673.7 256.294 1675.22 262.901C1676.73 269.413 1678.14 275.97 1679.8 282.453C1681.15 287.758 1684.51 291.71 1688.28 295.522C1692.65 299.933 1697.39 304.159 1702.47 307.737C1707.38 311.197 1712.76 313.971 1717.96 316.955C1724.17 320.52 1729.63 324.678 1734.98 329.431C1740.3 334.163 1745.88 338.981 1750.04 344.808C1753.45 349.567 1754 355.731 1757.65 360.468C1761.8 365.863 1766.54 370.758 1770.68 376.176C1774.92 381.719 1778.94 387.419 1783.28 392.877C1787.14 397.723 1791.32 402.283 1796.25 406.049C1801.2 409.832 1806.86 412.654 1812.15 415.915C1812.59 416.184 1813.31 415.704 1812.75 415.36C1807.89 412.366 1802.87 409.654 1798.15 406.429C1792.17 402.341 1787.46 396.736 1782.99 391.115C1779 386.112 1775.32 380.875 1771.47 375.77C1767.05 369.921 1761.73 364.765 1757.53 358.77C1754.2 354.009 1753.44 348.043 1750.05 343.301C1746.5 338.341 1741.52 334.193 1737.01 330.141C1727.82 321.869 1717.73 316.203 1707.19 309.844C1696.14 303.173 1683.16 292.784 1680.13 279.757C1678.68 273.534 1677.24 267.325 1675.8 261.103C1674.39 255.017 1674.73 248.616 1672.31 242.769C1670.26 237.813 1671.59 229.977 1671.08 224.585C1670.77 221.224 1672.63 218.242 1673.11 214.912C1673.58 211.709 1674.11 208.518 1674.62 205.322C1675.67 198.703 1678.49 193.117 1676.59 186.41C1674.97 180.697 1671.43 175.498 1669.24 170.009C1669.06 169.573 1668.11 169.7 1668.32 170.241Z" fill="#757067"/>
<path d="M1634.86 202.936C1637.41 205.672 1640.73 207.365 1643.38 210.009C1646.82 213.425 1650.29 216.79 1653.58 220.351C1656.87 223.913 1660.47 227.507 1663.23 231.493C1665.41 234.649 1668.33 237.047 1670.49 240.281C1670.77 240.699 1671.67 240.262 1671.4 239.857C1667.19 233.58 1661.71 228.112 1656.72 222.432C1653.53 218.807 1650.2 215.361 1646.77 211.974C1643.3 208.554 1638.91 205.849 1635.65 202.347C1635.32 201.996 1634.49 202.543 1634.86 202.936Z" fill="#757067"/>
<path d="M1379.03 -14.0549C1383.95 -6.18394 1391.69 1.08206 1398.63 7.19106C1406.97 14.5441 1416.46 20.4561 1424.95 27.6231C1433.2 34.5831 1440.39 42.7291 1445.68 52.1591C1451.61 62.7301 1456.49 73.8461 1462.65 84.2961C1465.27 88.7341 1468.39 92.8301 1470.92 97.3151C1473.37 101.64 1475.7 105.801 1478.96 109.583C1482.86 114.111 1487.03 118.325 1490.25 123.395C1493.26 128.12 1494.48 133.835 1496.23 139.083C1499.47 148.803 1508.13 156.024 1515.15 163.044C1521.23 169.121 1527.45 177.595 1536.09 179.97C1536.54 180.095 1537.02 179.256 1536.45 179.101C1527.22 176.563 1519.92 166.395 1513.39 159.871C1509.74 156.217 1506.14 152.553 1502.82 148.59C1498.63 143.598 1496.87 137.992 1494.97 131.907C1491.89 122.046 1485.28 115.394 1478.7 107.751C1475.17 103.654 1472.88 98.6431 1470.15 94.0131C1467.16 88.9281 1463.65 84.1871 1460.75 79.0231C1455.45 69.5731 1451.02 59.6661 1445.72 50.2151C1440.94 41.7011 1434.16 34.4391 1426.9 27.9941C1419.04 21.0141 1410.15 15.2921 1401.97 8.70306C1398 5.49906 1394.46 1.93906 1391 -1.80694C1387.14 -5.99294 1382.91 -9.69694 1379.87 -14.5729C1379.58 -15.0309 1378.78 -14.4549 1379.03 -14.0549Z" fill="#757067"/>
<path d="M1335.07 37.542C1357.19 43.363 1381.54 44.986 1403.99 40.181C1410.6 38.767 1416.86 38.837 1423.22 41.256C1429.32 43.579 1434.17 47.569 1439.47 51.23C1444.07 54.414 1449.15 54.839 1454.6 55.293C1460.65 55.797 1466.5 57.718 1472.57 57.934C1473.12 57.954 1473.44 57.216 1472.78 57.193C1467.36 57.001 1461.96 55.555 1456.61 54.743C1453.63 54.292 1450.6 54.242 1447.62 53.79C1443.71 53.197 1440.6 51.041 1437.5 48.776C1429.75 43.116 1421.86 38.484 1412.02 38.396C1406.47 38.347 1400.96 40.206 1395.54 41.118C1389.37 42.157 1382.86 41.903 1376.62 41.936C1362.62 42.012 1349.07 40.423 1335.53 36.858C1335.04 36.729 1334.44 37.375 1335.07 37.542Z" fill="#757067"/>
<path d="M1449.71 -13.059C1457.31 -6.59096 1466.22 -2.28496 1473.03 5.15404C1479.52 12.252 1487.45 17.931 1495.01 23.812C1503.81 30.657 1511.5 39.076 1519.33 46.978C1523.06 50.738 1541.57 64.898 1535.6 70.778C1535.16 71.209 1535.62 71.798 1536.07 71.357C1537.44 70.013 1538.62 69.142 1538.08 67.157C1537.06 63.374 1533.56 59.736 1531.02 56.925C1527.24 52.721 1522.78 49.044 1518.79 45.021C1513.94 40.122 1509.09 35.224 1504.07 30.486C1495.22 22.123 1484.98 15.462 1476.22 6.99704C1472.57 3.46604 1469.41 -0.182958 1465.28 -3.20096C1460.33 -6.82596 1455.02 -9.83396 1450.33 -13.826C1449.97 -14.131 1449.3 -13.409 1449.71 -13.059Z" fill="#757067"/>
<path d="M1492.67 33.923C1492.92 28.919 1495.71 25.804 1498.66 22.098C1501.52 18.511 1503.06 14.031 1505.99 10.434C1506.3 10.044 1505.98 9.22203 1505.57 9.72803C1501.8 14.349 1499.5 19.86 1495.73 24.494C1493.34 27.439 1492.07 30.362 1491.88 34.157C1491.85 34.809 1492.64 34.427 1492.67 33.923Z" fill="#757067"/>
<path d="M1777.66 407.374C1776.8 401.891 1773.02 397.912 1773.26 392.169C1773.43 388.316 1774.27 385.939 1777.35 383.511C1779.28 381.994 1781.19 380.655 1782.84 378.818C1783.19 378.433 1782.26 378.053 1781.95 378.407C1778.55 382.198 1773.47 383.9 1772.41 389.3C1771 396.429 1775.64 400.739 1776.67 407.352C1776.75 407.825 1777.74 407.9 1777.66 407.374Z" fill="#757067"/>
<path d="M1677.79 318.66C1680.91 314.967 1683.66 311.47 1687.72 308.718C1690.01 307.169 1691.87 305.013 1693.68 302.951C1698.73 297.191 1703.33 290.652 1709.18 285.687C1715.66 280.19 1723.56 275.609 1730.59 270.861C1737.43 266.242 1744.51 262.017 1752.08 258.711C1752.66 258.46 1752.28 257.808 1751.72 258.054C1736.43 264.729 1721.84 275.108 1708.6 285.181C1702.95 289.477 1698.61 296.004 1694.02 301.346C1691.11 304.743 1688.06 307.471 1684.46 310.097C1681.49 312.256 1679.37 315.573 1677.03 318.335C1676.61 318.835 1677.46 319.049 1677.79 318.66Z" fill="#757067"/>
<path d="M1676.53 318.202C1677.31 322.679 1681.32 325.962 1683.57 329.716C1683.82 330.133 1684.58 329.49 1684.32 329.06C1682.16 325.45 1678.18 322.213 1677.43 317.921C1677.32 317.347 1676.44 317.737 1676.53 318.202Z" fill="#757067"/>
<path d="M1628.69 459.606C1633.95 457.295 1638.45 453.595 1643.94 451.765C1644.43 451.599 1644.42 450.749 1643.8 450.955C1638.31 452.788 1633.81 456.484 1628.55 458.796C1628.08 459.005 1628.09 459.87 1628.69 459.606Z" fill="#757067"/>
</g>
<mask id="mask2_49_416" style="mask-type:luminance" maskUnits="userSpaceOnUse" x="0" y="35" width="1920" height="965">
<path d="M1920 35H0V1000H1920V35Z" fill="white"/>
</mask>
<g mask="url(#mask2_49_416)">
<path d="M332.353 921.079C339.88 924.54 347.596 927.483 355.47 930.052C362.357 932.298 369.102 935.419 374.646 940.124C379.174 943.966 383.174 948.185 388.607 950.776C395.061 953.854 402.953 954.899 409.896 956.297C418.192 957.969 425.778 960.186 433.231 964.258C440.939 968.469 448.527 972.893 456.256 977.067C463.292 980.866 470.403 984.7 477.676 988.022C484.841 991.295 492.085 990.536 499.592 992.208C500.098 992.321 500.575 991.604 499.936 991.462C497.115 990.835 494.331 990.579 491.454 990.403C486.08 990.071 481.466 988.817 476.577 986.583C469.299 983.259 462.207 979.296 455.168 975.495C441.56 968.147 428.991 959.559 413.69 956.257C406.004 954.599 398.128 953.319 390.689 950.712C384.153 948.421 379.438 942.983 374.297 938.622C369.491 934.542 363.591 932.374 357.858 929.952C349.658 926.487 341.059 924.143 332.922 920.401C332.482 920.2 331.785 920.818 332.353 921.079Z" fill="#757067"/>
<path d="M623.86 990.65C623.538 979.546 617.705 970.453 610.367 962.545C606.23 958.086 603.192 953.473 600.096 948.266C597.551 943.987 594.467 939.752 590.346 936.885C589.956 936.614 589.145 937.196 589.57 937.49C597.871 943.267 600.932 953.625 607.549 960.953C615.464 969.719 622.548 978.512 622.906 990.898C622.922 991.425 623.874 991.128 623.86 990.65Z" fill="#757067"/>
<path d="M588.6 989.489C593.611 986.374 599.187 984.969 604.517 982.591C610.359 979.986 615.459 976.042 621.399 973.628C634.952 968.12 650.933 974.987 664.821 975.903C670.456 976.276 676.174 975.624 681.725 974.712C687.027 973.839 691.126 980.183 695.174 983.15C700.149 986.793 705.731 989.435 710.661 993.154C715.293 996.648 719.674 1000.38 724.992 1002.8C725.434 1003 726.082 1002.35 725.513 1002.09C719.199 999.208 714.069 994.454 708.501 990.411C703.142 986.518 697.153 983.788 692.018 979.511C689.414 977.341 687.745 973.722 684.05 973.702C680.77 973.684 677.404 974.667 674.128 974.944C669.871 975.303 665.63 975.215 661.376 974.854C648.35 973.75 635.792 968.674 622.745 972.375C617.013 974.002 612.097 977.811 606.925 980.619C600.868 983.908 594.041 985.203 588.135 988.875C587.579 989.22 588.113 989.792 588.6 989.489Z" fill="#757067"/>
<path d="M685.398 973.945C686.687 969.867 689.515 966.468 690.201 962.175C690.279 961.683 689.285 961.575 689.206 962.073C688.532 966.298 685.727 969.635 684.459 973.649C684.296 974.163 685.256 974.396 685.398 973.945Z" fill="#757067"/>
<path d="M375.014 882.919C385.312 883.515 393.634 893.87 402.123 898.958C413.062 905.513 424.987 910.536 436.262 916.495C446.379 921.845 456.635 928.641 467.415 932.495C471.122 933.821 475.113 933.378 478.816 932.327C485.271 930.495 491.021 928.458 497.852 928.591C500.567 928.644 502.54 927.335 504.119 925.187C505.459 923.365 505.792 921.447 507.659 919.892C510.739 917.328 516.274 919.408 519.599 920.419C530.029 923.589 539.387 922.804 549.825 920.013C559.551 917.413 569.577 916.466 578.373 911.353C589.467 904.904 601.813 901.083 614.029 897.199C614.656 896.998 614.174 896.363 613.64 896.533C603.015 899.912 591.353 902.965 581.642 908.498C576.384 911.496 571.595 914.654 565.488 915.596C560.114 916.424 554.932 917.84 549.694 919.276C543.875 920.87 538.058 922.085 531.993 922.001C526.265 921.921 521.091 919.81 515.618 918.493C512.627 917.772 509.771 917.915 507.05 919.345C502.356 921.81 504.643 927.962 496.863 927.812C492.545 927.728 488.523 928.525 484.419 929.808C476.958 932.144 471.015 933.634 463.659 929.994C452.317 924.379 441.264 918.113 430.034 912.267C419.096 906.572 407.441 901.88 397.266 894.837C390.384 890.071 384.057 882.677 375.15 882.163C374.579 882.128 374.36 882.882 375.014 882.919Z" fill="#757067"/>
<path d="M457.037 926.976C464.73 920.16 471.365 912.556 476.913 903.9C479.697 899.556 483.573 896.168 486.478 891.923C489.634 887.316 491.808 881.802 494.77 877.015C495.025 876.603 494.473 875.861 494.144 876.392C491.416 880.798 488.769 885.277 486.605 889.992C484.529 894.515 480.041 897.838 477.166 901.859C470.805 910.757 464.782 918.871 456.538 926.175C456.185 926.489 456.601 927.363 457.037 926.976Z" fill="#757067"/>
<path d="M493.258 877.968C501.884 870.546 508.847 863.419 520.894 862.853C526.325 862.597 531.792 863.128 537.221 863.271C543.389 863.433 547.957 863.722 552.425 868.472C558.46 874.89 562.361 882.886 569.186 888.603C572.287 891.201 575.933 892.457 579.683 893.796C585.444 895.857 589.949 899.573 595.49 901.96C595.927 902.148 596.67 901.565 596.1 901.319C591.072 899.155 586.934 895.659 581.775 893.694C575.41 891.268 570.423 889.096 565.712 884.03C560.114 878.01 555.462 865.907 546.914 863.411C542.679 862.173 538.175 862.563 533.811 862.401C527.724 862.172 521.685 861.807 515.619 862.54C506.248 863.671 499.197 871.778 492.474 877.561C492.005 877.964 492.9 878.277 493.258 877.968Z" fill="#757067"/>
<path d="M612.282 896.825C617.854 895.001 622.25 891.499 626.445 887.503C632.322 881.901 638.048 876.392 645.051 872.167C651.676 868.169 659.196 865.282 666.121 861.804C673.975 857.861 681.952 854.058 689.668 849.853C703.577 842.273 717.492 833.562 733.528 831.568C741.777 830.541 749.958 831.576 758.246 830.222C766.248 828.917 774.199 827.167 782.06 825.199C782.525 825.084 782.498 824.09 781.98 824.219C774.676 826.047 767.314 827.588 759.906 828.94C751.586 830.46 743.536 829.807 735.199 830.452C720.175 831.612 706.627 839.372 693.736 846.548C679.381 854.54 664.404 862.558 649.265 868.96C642.511 871.817 636.743 876.687 631.333 881.528C625.257 886.967 620.248 893.212 612.2 895.844C611.747 895.993 611.781 896.989 612.282 896.825Z" fill="#757067"/>
<path d="M725.166 831.241C718.099 832.21 711.047 833.245 704.053 834.657C696.393 836.204 688.986 838.636 681.278 839.985C674.096 841.243 666.836 841.981 659.664 843.309C652.515 844.633 645.713 847.092 638.877 849.5C631.652 852.043 624.419 854.52 616.932 856.176C608.865 857.963 599.809 856.453 591.627 856.377C583.764 856.307 576.13 857.152 568.241 856.484C560.331 855.814 552.492 854.423 544.618 853.447C530.078 851.644 516.615 852.924 502.705 857.564C492.438 860.99 483.358 864.334 477.614 873.939C469.876 886.88 456.215 896.207 441.904 900.796C436.592 902.501 430.223 902.775 425.508 905.929C422.703 907.806 420.606 910.091 417.495 911.62C415.156 912.768 413.099 913.888 411.285 915.784C410.856 916.233 411.766 916.483 412.095 916.139C414.548 913.573 417.669 912.809 420.499 910.914C424.002 908.568 426.197 905.971 430.428 904.613C436.454 902.681 442.606 901.623 448.474 899.172C458.703 894.901 470.166 887.373 476.238 877.969C480.069 872.033 482.69 867.158 489.181 863.684C495.056 860.541 501.89 858.5 508.226 856.596C524.553 851.69 540.403 853.6 556.958 855.918C563.683 856.857 570.412 857.6 577.205 857.725C584.404 857.856 591.535 857.059 598.757 857.319C605.409 857.557 612.24 857.981 618.788 856.532C625.201 855.112 631.435 852.895 637.626 850.731C644.965 848.165 652.196 845.571 659.835 844.038C666.98 842.604 674.259 841.89 681.448 840.714C688.6 839.542 695.47 837.325 702.528 835.745C710.049 834.063 717.707 833.015 725.336 831.97C725.959 831.886 725.772 831.157 725.166 831.241Z" fill="#757067"/>
<path d="M376.89 882.097C371.411 879.535 365.488 878.249 359.589 877.046C352.459 875.593 345.351 873.425 338.419 871.222C324.111 866.673 310.554 860.113 296.132 855.82C281.395 851.435 266.081 850.326 250.846 848.857C234.89 847.318 219.354 844.197 203.525 841.921C198.136 841.146 192.414 840.499 187.318 842.841C184.81 843.995 182.403 845.347 179.904 846.521C175.435 848.619 170.17 848.732 165.327 849.207C149.647 850.74 133.795 850.42 118.133 848.857C114.165 848.461 109.07 843.867 105.284 846.31C103.154 847.685 103.212 851.888 103.006 854.007C102.271 861.581 97.112 864.849 91.612 869.105C86.027 873.429 81.05 878.652 76.238 883.802C68.207 892.402 60.996 901.74 53.713 910.966C50.065 915.587 46.424 920.232 42.638 924.741C38.652 929.489 33.7 933.319 29.479 937.845C26.068 941.503 24.535 945.327 22.419 949.804C21.63 951.474 21.143 953.316 20.55 955.058C18.8 960.197 16.043 962.947 10.905 964.677C0.586004 968.154 -10.295 972.169 -19.761 977.644C-20.205 977.9 -20.126 978.767 -19.559 978.439C-13.22 974.773 -6.345 972.304 0.433004 969.591C3.447 968.384 6.368 966.943 9.48 965.997C11.642 965.343 14.439 964.677 16.241 963.198C19.684 960.374 20.901 956.466 22.283 952.36C23.345 949.206 24.822 946.048 26.303 943.063C28.364 938.909 32.696 935.653 36.023 932.508C57.107 912.584 70.681 885.776 94.196 868.096C97.562 865.565 100.705 863.2 102.604 859.358C103.582 857.381 103.642 855.167 103.973 853.036C104.077 852.364 104.122 851.659 104.191 850.985C104.632 846.637 108.821 846.618 111.896 848.081C117.639 850.813 124.779 850.44 131.012 850.782C139.223 851.229 147.455 851.182 155.667 850.798C162.422 850.482 169.317 850.003 175.971 848.753C182.439 847.538 187.242 842.493 194.042 842.144C202.044 841.734 210.312 843.974 218.111 845.494C225.682 846.969 233.334 847.953 240.997 848.797C253.231 850.145 265.505 851.065 277.705 852.719C290.377 854.436 302.601 858.633 314.51 863.155C325 867.139 335.238 871.466 346.056 874.522C356.057 877.348 366.998 878.559 376.454 882.983C376.886 883.183 377.379 882.327 376.89 882.097Z" fill="#757067"/>
<path d="M-22.4831 613.089C-21.2401 618.827 -18.3291 623.706 -15.0511 628.507C-10.5701 635.071 -6.10806 641.13 -2.62206 648.329C4.12994 662.274 11.3279 676.093 17.6459 690.235C20.6159 696.883 23.0419 703.751 24.5639 710.876C26.2469 718.755 25.0769 726.503 25.7409 734.46C26.3489 741.737 28.7989 748.685 29.5809 755.917C30.4459 763.913 30.4589 771.997 30.7729 780.026C31.0659 787.561 32.0339 795.022 32.2469 802.559C32.4839 810.944 32.2619 819.338 32.0929 827.721C31.9419 835.274 31.9559 842.826 31.6749 850.375C31.4319 856.865 30.6479 864.354 33.5789 870.373C35.4359 874.187 39.7159 876.539 42.9559 878.992C49.1969 883.717 53.4529 891.006 56.8399 897.918C61.8389 908.115 65.7559 918.537 68.9839 929.387C71.3099 937.205 75.3319 944.44 84.4459 944.307C90.7449 944.215 96.7089 942.461 102.77 940.912C110.969 938.818 119.289 937.232 127.679 936.15C143.838 934.064 159.885 931.679 175.967 929.029C191.563 926.457 207.282 923.781 223.093 923.133C238.585 922.498 254.117 923.367 269.614 923.412C284.553 923.453 299.138 925.162 313.433 929.609C326.003 933.521 338.589 938.769 350.645 944.052C356.999 946.835 363.206 949.976 368.299 954.745C372.027 958.235 375.548 961.505 380.275 963.581C386.023 966.106 392.777 966.893 398.878 968.151C407.562 969.944 414.743 974.854 422.21 979.385C434.934 987.108 447.578 994.949 460.98 1001.46C473.943 1007.77 486.398 1009.24 500.655 1007.92C507.921 1007.24 515.132 1006.15 522.418 1005.67C529.953 1005.18 537.315 1005.28 544.796 1003.99C571.179 999.443 593.293 983.402 615.831 970.078C628.185 962.773 641.384 956.289 655.985 955.615C671.262 954.91 686.617 957.775 701.715 959.699C719.09 961.91 735.89 967.234 753.375 968.883C754.026 968.945 753.934 968.168 753.364 968.113C738.2 966.681 723.497 962.744 708.579 959.867C694.243 957.103 679.011 955.508 664.431 954.865C637.318 953.672 615.841 968.842 593.699 982.439C581.663 989.832 569.09 996.377 555.554 1000.55C541.002 1005.03 526.172 1004.21 511.235 1005.91C504.021 1006.73 496.842 1007.65 489.572 1007.75C479.503 1007.89 470.477 1005.15 461.472 1000.87C448.031 994.479 435.397 986.513 422.702 978.79C417.2 975.442 411.718 971.62 405.706 969.257C399.2 966.698 391.582 965.706 384.808 964.142C377.725 962.505 373.094 958.14 367.964 953.337C363.91 949.542 358.786 946.978 353.78 944.659C329.891 933.593 304.729 924.079 278.231 922.835C263.533 922.144 248.682 922.196 233.967 922.163C218.255 922.13 202.936 924.044 187.427 926.382C171.128 928.839 154.924 931.884 138.589 934.111C124.032 936.095 110.041 938.236 95.7709 941.853C87.9069 943.845 78.6919 945.417 73.4929 937.773C70.4339 933.275 69.3749 927.375 67.9139 922.226C66.4789 917.169 64.1639 912.507 62.1179 907.681C59.6869 901.951 57.2289 896.269 54.0539 890.904C51.0769 885.873 47.2139 881.248 42.5499 877.715C40.5259 876.184 38.4439 874.77 36.5959 873.018C32.9339 869.545 32.7179 864.422 32.5239 859.717C31.8789 844.049 33.2019 828.137 33.3069 812.446C33.4119 796.719 31.8999 780.971 31.2049 765.257C30.9009 758.368 29.9469 751.997 28.4669 745.296C26.6519 737.079 26.4829 729.292 26.6689 720.948C26.9879 706.718 19.9399 692.512 13.8279 680.057C10.5719 673.424 7.20694 666.846 4.01394 660.18C0.837934 653.551 -1.93506 646.457 -5.80206 640.2C-11.3181 631.276 -19.2551 623.591 -21.5441 613.016C-21.6431 612.558 -22.6061 612.521 -22.4831 613.089Z" fill="#757067"/>
<path d="M-37.252 909.501C-25.104 908.448 -13.929 903.444 -2.146 900.724C4.343 899.226 10.855 897.884 17.184 895.777C23.084 893.81 28.67 890.976 34.495 888.806C53.583 881.693 67.464 864.011 74.997 845.628C77.669 839.108 80.347 833.62 88.149 834.038C91.163 834.2 94.843 834.882 97.602 833.419C98.112 833.148 98.431 832.489 98.702 832.021C100.741 828.49 103.336 827.056 107.037 825.923C110.59 824.837 113.799 823.105 116.486 820.538C121.962 815.308 124.084 807.059 126.104 800.032C127.745 794.327 130.248 789.292 132.568 783.862C134.888 778.432 134.151 772.489 136.733 766.952C137.01 766.358 136.143 766.335 135.925 766.802C133.813 771.335 133.176 775.761 132.705 780.708C132.219 785.812 128.051 790.673 126.541 795.563C123.829 804.342 122.057 814.18 115.135 820.792C109.631 826.05 101.189 824.386 97.894 831.87C96.536 834.954 87.482 832.919 84.566 833.22C81.765 833.509 79.723 835.505 78.018 837.56C74.77 841.474 73.571 847.365 71.345 851.896C68.763 857.154 65.655 862.367 62.067 866.994C58.629 871.428 54.103 874.894 49.959 878.631C45.273 882.856 40.427 885.908 34.442 887.986C29.109 889.84 24.019 892.357 18.747 894.375C13.146 896.52 7.204 897.816 1.363 899.113C-11.495 901.967 -23.885 907.494 -37.075 908.636C-37.555 908.677 -37.874 909.556 -37.252 909.501Z" fill="#757067"/>
<path d="M-34.698 830.771C-32.099 824.335 -25.247 821.363 -20.588 816.617C-15.429 811.363 -11.232 805.277 -6.015 800.035C-0.805996 794.801 3.72001 789.193 8.597 783.672C13.577 778.033 19.134 772.945 24.375 767.561C25.774 766.122 27.205 764.956 29.013 764.02C31.506 762.731 33.116 766.012 34.086 767.442C35.208 769.096 36.905 770.327 38.45 771.547C44.074 775.988 50.53 779.264 56.174 783.713C61.364 787.805 64.701 793.801 69.861 797.879C76.785 803.35 81.363 807.961 81.778 817.313C82.096 824.479 81.922 831.661 82.258 838.842C82.55 845.072 82.196 851.436 84.61 857.287C86.2 861.142 88.248 864.332 88.736 868.642C89.138 872.193 88.777 875.822 88.736 879.388C88.664 885.599 90.563 891.597 92.931 897.265C94.918 902.021 96.478 906.072 96.029 911.322C95.67 915.525 92.991 919.765 90.782 923.279C87.299 928.816 80.268 926.968 76.379 931.961C73.836 935.225 73.037 939.998 72.15 943.924C70.671 950.471 69.287 957.041 67.849 963.598C67.445 965.44 67.513 967.17 67.513 969.053C67.513 969.68 68.261 969.608 68.261 968.992C68.261 962.049 70.678 955.232 71.972 948.433C73.032 942.869 73.994 935.413 78.191 931.236C80.461 928.978 84.036 929.006 86.924 928.039C88.907 927.375 90.193 925.545 91.367 923.941C94.73 919.345 96.909 913.863 96.911 908.175C96.913 902.034 93.153 896.384 91.309 890.724C88.731 882.806 90.196 874.87 89.28 866.792C88.574 860.569 83.977 855.837 83.514 849.351C82.97 841.714 82.432 833.921 82.431 826.271C82.43 820.701 83.518 814.158 81.132 808.916C78.97 804.166 75.276 800.982 71.241 797.824C66.114 793.81 62.652 788.176 57.752 783.924C52.303 779.197 46 775.733 40.096 771.639C37.146 769.594 34.962 767.25 32.976 764.293C32.413 763.453 31.799 763.037 30.869 762.715C27.074 761.399 21.592 769.211 19.494 771.26C14.336 776.301 9.25301 781.373 4.64801 786.94C-0.463993 793.118 -6.10199 798.62 -11.559 804.479C-16 809.249 -19.525 814.686 -24.45 819.024C-28.628 822.704 -33.195 824.903 -35.384 830.321C-35.58 830.802 -34.944 831.376 -34.698 830.771Z" fill="#757067"/>
<path d="M78.493 955.265C72.306 955.726 66.128 954.165 59.976 955.038C57.494 955.392 55.104 956.188 52.61 956.513C47.77 957.142 44.752 953.113 42.112 949.779C40.403 947.619 38.511 946.422 36.445 944.599C34.049 942.486 32.296 939.601 30.473 937.011C26.625 931.546 23.301 925.747 19.346 920.353C19.008 919.892 18.533 920.751 18.808 921.126C23.121 927.009 26.79 933.319 30.988 939.28C34.888 944.817 40.037 949.075 44.527 954.102C48.047 958.041 52.201 957.788 56.962 956.682C64.169 955.006 71.234 956.791 78.504 956.248C78.979 956.214 79.031 955.226 78.493 955.265Z" fill="#757067"/>
<path d="M34.234 923.632C39.174 915.085 44.654 907.306 52.507 901.222C58.201 896.812 62.666 891.113 66.727 885.222C72.253 877.208 77.331 870.025 85.007 863.857C91.569 858.586 97.093 852.123 104.108 847.41C104.509 847.14 104.342 846.226 103.823 846.574C96.368 851.58 90.414 858.449 83.433 864.056C77.208 869.058 72.165 875.261 67.902 881.974C62.431 890.589 56.147 896.693 48.524 903.308C42.288 908.72 37.719 916.078 33.628 923.156C33.344 923.648 33.905 924.2 34.234 923.632Z" fill="#757067"/>
<path d="M104.458 847.007C104.505 843.402 105.112 838.786 102.78 835.675C101.581 834.077 100.2 833.027 98.569 831.861C95.072 829.365 94.366 824.338 93.516 820.48C90.843 808.359 89.765 795.988 86.95 783.871C86.842 783.406 85.847 783.33 85.966 783.84C88.668 795.475 89.987 807.27 92.231 818.975C93.013 823.051 93.776 828.245 96.701 831.36C98.868 833.669 100.871 834.034 102.589 837.176C104.099 839.94 103.515 843.963 103.475 846.977C103.467 847.45 104.45 847.546 104.458 847.007Z" fill="#757067"/>
<path d="M109.355 824.384C111.283 831.292 115.015 837.466 117.844 844.015C118.921 846.509 120.6 848.716 122.014 851.021C124.572 855.187 125.02 859.927 125.428 864.695C126.047 871.933 128.269 879.035 130.176 886.021C132.312 893.851 132.346 902.115 134.822 909.804C134.986 910.316 135.863 909.847 135.716 909.392C133.421 902.261 133.588 894.601 131.555 887.361C129.1 878.615 126.905 869.986 126.022 860.933C125.436 854.919 122.965 850.738 119.864 845.747C115.901 839.372 112.265 831.198 110.248 823.972C110.105 823.458 109.226 823.923 109.355 824.384Z" fill="#757067"/>
<path d="M91.751 895.236C95.229 894.67 98.14 893.078 101.237 891.459C106.305 888.809 111.392 888.908 116.943 888.85C121.709 888.797 126.329 887.26 130.958 886.268C136.413 885.1 141.925 884.243 147.46 883.563C147.936 883.504 148.014 882.514 147.483 882.579C142.545 883.186 137.646 883.964 132.763 884.919C127.492 885.948 122.351 887.644 116.965 887.866C113.062 888.026 108.873 887.47 105.109 888.807C100.544 890.428 96.629 893.461 91.774 894.252C91.301 894.327 91.226 895.32 91.751 895.236Z" fill="#757067"/>
<path d="M127.199 876.101C132.61 875.826 137.615 873.744 142.957 873.007C148.984 872.173 155.6 872.917 161.686 872.917C162.157 872.917 162.486 872.001 161.907 872.001C156.248 872.001 150.588 872.001 144.929 872.001C138.944 872.001 133.391 874.88 127.42 875.185C126.951 875.208 126.625 876.13 127.199 876.101Z" fill="#757067"/>
<path d="M127.75 880.042C123.723 880.077 119.857 880.7 115.955 881.659C115.319 881.815 115.886 882.481 116.381 882.36C120.205 881.421 123.99 880.825 127.931 880.792C128.589 880.786 128.309 880.038 127.75 880.042Z" fill="#757067"/>
<path d="M74.629 1002.36C74.791 995.172 76.933 989.199 82.737 984.722C85.916 982.271 88.842 980.236 90.989 976.74C93.772 972.211 95.75 966.777 97.407 961.76C99.192 956.356 99.462 950.637 101.653 945.324C101.872 944.795 101.218 944.365 100.969 944.969C96.154 956.649 96.724 971.422 86.728 980.625C83.087 983.977 79.177 985.908 76.544 990.287C74.39 993.871 73.968 998.463 73.877 1002.53C73.864 1003.19 74.617 1002.92 74.629 1002.36Z" fill="#757067"/>
<path d="M78.52 956.142C87.186 956.142 95.852 956.142 104.518 956.142C105.167 956.142 105.051 955.372 104.475 955.372C95.809 955.372 87.143 955.372 78.477 955.372C77.827 955.372 77.944 956.142 78.52 956.142Z" fill="#757067"/>
<path d="M67.388 967.937C67.069 982.539 59.615 995.312 54.677 1008.69C54.491 1009.19 55.465 1009.39 55.63 1008.94C60.593 995.494 68.066 982.654 68.387 967.986C68.397 967.484 67.399 967.437 67.388 967.937Z" fill="#757067"/>
<path d="M27.777 733.831C32.822 740.233 33.957 748.212 34.353 756.126C34.758 764.198 34.636 772.335 34.892 780.419C35.468 798.603 34.755 816.806 35.159 834.991C35.342 843.235 36.221 851.895 30.96 858.903C25.651 865.973 15.835 868.174 7.939 870.878C0.106001 873.558 -6.635 878.562 -14.597 880.884C-19.356 882.273 -24.682 883.454 -27.872 887.558C-28.219 888.003 -27.765 888.654 -27.361 888.134C-22.814 882.284 -13.317 881.974 -6.925 878.843C-2.872 876.857 1.007 874.575 5.178 872.831C9.461 871.04 13.994 869.872 18.339 868.237C24.669 865.856 30.579 861.934 33.778 855.842C37.07 849.571 36.176 841.649 35.969 834.852C35.375 815.356 36.289 795.832 35.567 776.331C35.048 762.311 37.709 744.874 28.41 733.075C28.082 732.659 27.481 733.454 27.777 733.831Z" fill="#757067"/>
<path d="M86.03 800.144C90.414 799.816 91.383 796.636 91.331 792.66C91.224 784.451 90.221 776.217 90.137 767.976C90.132 767.474 89.135 767.408 89.14 767.902C89.203 774.082 89.298 780.386 89.76 786.547C90.08 790.813 92.317 798.916 85.819 799.404C85.162 799.452 85.469 800.185 86.03 800.144Z" fill="#757067"/>
<path d="M56.816 784.806C51.848 797.214 50.477 810.525 47.635 823.49C44.696 836.9 39.052 849.687 37.681 863.426C37.628 863.963 38.618 863.93 38.665 863.455C39.978 850.293 45.294 838.068 48.215 825.256C51.278 811.815 52.572 797.914 57.731 785.029C57.949 784.488 56.991 784.368 56.816 784.806Z" fill="#757067"/>
<path d="M46.844 828.695C55.06 833.759 63.077 839.439 68.9 847.256C72.735 852.404 73.852 858.262 74.381 864.531C74.881 870.459 76.092 876.142 76.935 882.019C77.006 882.517 78.005 882.488 77.935 882.001C77.01 875.55 75.783 869.28 75.233 862.771C74.834 858.041 73.853 853.318 71.309 849.236C65.608 840.093 56.567 833.715 47.542 828.152C47.138 827.904 46.317 828.37 46.844 828.695Z" fill="#757067"/>
<path d="M41.647 844.214C47.47 850.376 54.131 855.792 57.949 863.53C60.203 868.098 61.127 873.553 62.681 878.399C64.164 883.028 65.988 887.51 68.109 891.879C68.38 892.436 68.929 891.668 68.721 891.24C64.275 882.084 62.53 872.154 58.56 862.89C55.196 855.038 47.841 849.449 42.127 843.402C41.732 842.986 41.325 843.874 41.647 844.214Z" fill="#757067"/>
<path d="M20.537 894.029C18.241 875.523 11.271 857.209 12.144 838.363C12.311 834.759 11.425 830.949 6.872 831.197C2.669 831.426 -0.636997 831.408 -4.739 830.377C-8.968 829.315 -13.596 829.549 -17.922 829.545C-18.397 829.545 -18.727 830.486 -18.208 830.486C-14.849 830.49 -11.506 830.539 -8.157 830.82C-4.889 831.097 -1.851 832.404 1.423 832.609C4.582 832.808 7.654 831.242 10.508 833.591C12.082 834.886 11.411 842.786 11.594 844.978C12.991 861.744 17.668 877.749 19.734 894.396C19.81 895.015 20.596 894.505 20.537 894.029Z" fill="#757067"/>
<path d="M12.4 666.452C18.055 661.491 21.806 655.087 26.725 649.473C30.479 645.19 31.726 639.397 33.032 634.018C36.605 619.297 43.127 606.725 53.783 595.887C54.122 595.543 53.773 594.68 53.335 595.125C44.536 604.074 38.212 614.279 34.373 626.238C32.213 632.968 31.451 640.189 27.953 646.429C26.135 649.673 23.116 652.488 20.9 655.509C18.182 659.214 15.414 662.652 11.951 665.689C11.586 666.013 11.93 666.864 12.4 666.452Z" fill="#757067"/>
<path d="M37.072 618.812C41.234 619.05 43.869 623.22 47.582 624.638C48.045 624.814 48.335 623.859 47.864 623.679C44.042 622.218 41.473 618.077 37.153 617.831C36.679 617.804 36.533 618.782 37.072 618.812Z" fill="#757067"/>
<path d="M32.021 634.857C27.176 633.548 23.815 629.845 19.713 627.185C15.607 624.521 11.182 622.814 7.37 619.636C-0.948997 612.702 -9.593 605.964 -15.571 596.777C-15.863 596.328 -16.576 597.021 -16.315 597.422C-10.621 606.174 -2.565 612.783 5.506 619.25C9.881 622.754 14.21 625.277 19.106 627.98C23.518 630.416 26.576 634.388 31.593 635.744C32.056 635.868 32.534 634.995 32.021 634.857Z" fill="#757067"/>
</g>
</svg>
