<svg width="1920" height="1450" viewBox="0 0 1920 1450" fill="none" xmlns="http://www.w3.org/2000/svg">
<mask id="mask0_417_56" style="mask-type:luminance" maskUnits="userSpaceOnUse" x="0" y="0" width="1920" height="1450">
<path d="M1920 0H0V1450H1920V0Z" fill="white"/>
</mask>
<g mask="url(#mask0_417_56)">
<path d="M1791 39.104C1798.51 45.975 1802.63 55.162 1808.15 63.524C1813.86 72.163 1822.22 78.286 1830.43 84.342C1838.95 90.618 1846.03 98.364 1854.45 104.722C1863.02 111.201 1872.46 116.495 1881.52 122.238C1890.73 128.072 1899.2 134.951 1908.14 141.167C1918.34 148.248 1928.79 154.941 1938.97 162.048C1956.02 173.955 1971.29 190.289 1991.97 195.637C1992.43 195.758 1993.01 195.029 1992.41 194.872C1971.88 189.561 1956.52 173.275 1939.61 161.361C1929.97 154.569 1920.05 148.195 1910.32 141.534C1900.81 135.027 1891.87 127.767 1882.17 121.552C1873.55 116.035 1864.69 110.941 1856.37 104.973C1848.23 99.135 1841.62 91.621 1833.65 85.571C1825.06 79.05 1816.32 73.049 1809.85 64.253C1803.56 55.686 1799.8 45.852 1791.81 38.544C1791.46 38.221 1790.61 38.748 1791 39.104Z" fill="#A1A9AC"/>
<path d="M1286.22 398.002C1289.17 373.664 1318.2 378.512 1335.8 375.275C1350.55 372.563 1365.73 370.608 1380.2 366.642C1394.48 362.725 1407.71 356.128 1421.43 350.733C1434.67 345.533 1448.08 342.056 1460.22 334.379C1473.41 326.031 1487.22 318.67 1501.12 311.586C1527.72 298.037 1554.69 286.031 1579.19 268.779C1591.14 260.363 1602.67 251.364 1614.41 242.659C1627.24 233.141 1640.44 224.961 1654.61 217.583C1666.61 211.333 1678.95 205.677 1690.02 197.836C1701.48 189.716 1713.17 180.71 1728.06 183.65C1734.8 184.981 1740.81 188.995 1746.58 192.512C1753.31 196.619 1760.32 200.284 1767.3 203.967C1780.71 211.051 1794.79 216.612 1808.35 223.366C1820.77 229.549 1832.69 237.361 1846.78 238.638C1853.82 239.276 1860.88 238.744 1867.92 239.495C1875.95 240.35 1883.64 242.853 1891.6 243.973C1910.46 246.623 1929.46 248.095 1948.25 251.247C1957.18 252.746 1966.38 253.71 1975.21 255.643C1983.27 257.407 1990.95 260.182 1999.29 260.383C1999.76 260.394 2000.1 259.482 1999.52 259.468C1991.88 259.284 1984.7 257.033 1977.35 255.168C1969.73 253.231 1961.79 252.659 1954.05 251.302C1939.62 248.771 1925.09 247.003 1910.53 245.355C1902.45 244.439 1894.23 243.752 1886.28 241.968C1879.07 240.351 1871.88 238.861 1864.52 238.234C1857.09 237.602 1849.68 238.261 1842.28 237.167C1834.85 236.069 1828.19 232.349 1821.58 229.009C1807.72 222.005 1793.56 215.83 1779.58 209.095C1765.55 202.338 1752.4 194.203 1738.76 186.78C1728.8 181.355 1718.55 180.763 1708.19 185.329C1697.11 190.213 1688.36 199.18 1677.64 204.727C1663.75 211.917 1649.69 218.902 1636.16 226.759C1623.89 233.884 1612.67 242.955 1601.36 251.48C1589.28 260.576 1577.18 269.635 1564.44 277.791C1551.76 285.912 1538.19 292.342 1524.7 298.976C1510.57 305.923 1496.44 312.888 1482.61 320.408C1468.78 327.92 1455.93 337.328 1441.15 342.898C1434.63 345.354 1427.96 347.38 1421.45 349.851C1414.07 352.65 1406.92 356.051 1399.61 359.017C1385.6 364.697 1371.57 367.799 1356.76 370.494C1346.97 372.276 1337.14 374.717 1327.22 375.563C1320.59 376.127 1313.95 376.326 1307.38 377.423C1295.5 379.405 1286.87 385.809 1285.37 398.237C1285.3 398.849 1286.17 398.47 1286.22 398.002Z" fill="#A1A9AC"/>
<path d="M1574.56 218.724C1574.39 223.711 1577.04 227.813 1579.72 231.838C1583.23 237.126 1586 242.829 1588.95 248.447C1591.29 252.905 1593.4 257.574 1596.74 261.394C1600.4 265.569 1606.19 266.974 1608.67 272.151C1615.07 285.525 1620.3 299.505 1626.84 312.866C1633.4 326.252 1640.62 339.116 1644.59 353.599C1644.72 354.098 1645.54 353.527 1645.42 353.069C1641.82 339.944 1635.74 327.725 1629.42 315.736C1625.92 309.112 1622.98 302.227 1620.05 295.336C1617.31 288.865 1614.95 281.887 1611.56 275.761C1609.46 271.955 1608.46 268.668 1604.72 266.271C1599.31 262.812 1595.94 259.309 1592.82 253.731C1589.52 247.84 1586.46 241.763 1583.42 235.736C1580.54 230.034 1575.2 225.528 1575.44 218.611C1575.46 217.986 1574.58 218.237 1574.56 218.724Z" fill="#A1A9AC"/>
<path d="M1588.58 260.254C1590.42 266.887 1593.93 272.769 1597.05 278.857C1600.23 285.065 1602.87 291.559 1605.65 297.95C1611.57 311.539 1617.22 325.093 1622.58 338.922C1622.77 339.419 1623.6 338.861 1623.42 338.414C1618.07 324.585 1612.5 310.995 1606.5 297.442C1603.66 291.058 1600.98 284.616 1597.89 278.349C1594.86 272.195 1591.28 266.409 1589.42 259.746C1589.28 259.243 1588.45 259.795 1588.58 260.254Z" fill="#A1A9AC"/>
<path d="M1641.32 223.606C1643.3 228.081 1646.87 230.49 1650.51 233.561C1656.11 238.293 1660.14 244.554 1665.36 249.662C1669.51 253.708 1673.7 257.813 1678.02 261.67C1679.91 263.369 1683.64 267.792 1686.31 268.016C1688.09 268.165 1690.26 266.66 1691.71 265.857C1694.97 264.051 1698.05 261.906 1701.1 259.772C1708.49 254.604 1715.61 249.03 1722.6 243.326C1743.78 226.01 1765.92 209.889 1787.11 192.56C1799.05 182.786 1810.55 172.477 1822.6 162.821C1833.87 153.791 1845.39 145.711 1855.66 135.479C1862.65 128.517 1869.35 121.275 1876.57 114.553C1884.2 107.454 1892.68 101.957 1901.38 96.292C1908.92 91.378 1916.01 85.859 1921.09 78.334C1927.46 68.895 1934.47 59.841 1943.17 52.412C1943.53 52.101 1943.31 51.187 1942.84 51.592C1937.99 55.732 1933.7 60.367 1929.66 65.288C1925.09 70.85 1921.48 77.169 1916.83 82.623C1907.82 93.172 1894.35 98.85 1883.63 107.342C1872.91 115.826 1863.82 126.203 1854.16 135.822C1843.88 146.071 1832.11 154.116 1820.82 163.164C1808.77 172.819 1797.28 183.145 1785.34 192.919C1772.87 203.112 1759.99 212.785 1747.22 222.579C1731.34 234.754 1716.32 248.079 1699.91 259.556C1696.33 262.058 1692.66 264.61 1688.66 266.396C1684.34 268.327 1678.66 261.134 1675.85 258.359C1670.09 252.662 1664.02 247.317 1658.84 241.044C1656.37 238.051 1653.77 235.328 1650.95 232.682C1647.57 229.522 1643.98 227.513 1642.01 223.061C1641.76 222.488 1641.12 223.164 1641.32 223.606Z" fill="#A1A9AC"/>
<path d="M1939.08 258.84C1925.28 258.886 1911.54 259.878 1897.83 261.486C1892.84 262.072 1888.2 262.377 1884.18 265.639C1881.08 268.161 1879.4 272.308 1877.87 275.87C1873.31 286.493 1868.39 296.406 1861.93 306.016C1858.66 310.864 1852.3 310.756 1847.02 311.048C1842.23 311.313 1837.72 311.798 1832.99 312.685C1830.19 313.21 1827.42 313.589 1824.56 313.549C1821.1 313.501 1819.04 311.127 1817.04 308.635C1813.66 304.414 1810.02 301.638 1806.13 297.976C1802.23 294.304 1800.63 287.801 1798.11 283.201C1794.87 277.292 1791.5 271.391 1788.12 265.569C1782.47 255.861 1774.8 247.46 1768.93 237.883C1767.57 235.666 1765.8 233.301 1766.71 230.627C1767.37 228.681 1768.85 226.926 1770.08 225.319C1773.87 220.359 1778.1 215.727 1782 210.855C1782.33 210.447 1781.85 209.744 1781.44 210.252C1777.54 215.129 1773.4 219.813 1769.52 224.716C1767.97 226.682 1765.49 229.589 1765.58 232.328C1765.69 235.74 1768.73 239.273 1770.52 241.993C1773.87 247.109 1777.62 251.961 1781.22 256.907C1789.25 267.96 1796.32 280.489 1801.93 292.934C1803.39 296.183 1805.16 298.633 1808 300.82C1810.53 302.771 1812.77 304.698 1814.78 307.187C1816.39 309.176 1817.87 311.697 1819.99 313.202C1823.54 315.723 1829.1 314.364 1833.03 313.669C1838.19 312.756 1843.11 312.251 1848.34 311.962C1852.36 311.739 1857.05 311.54 1860.45 309.125C1863.82 306.734 1865.93 301.069 1868.07 297.657C1871.23 292.639 1873.35 287.614 1875.93 282.304C1878.56 276.855 1880.1 270.74 1884.59 266.423C1889.45 261.755 1899.01 262.305 1905.25 261.652C1913.31 260.809 1921.4 260.267 1929.5 259.981C1932.64 259.871 1935.78 259.838 1938.92 259.828C1939.42 259.825 1939.57 258.838 1939.08 258.84Z" fill="#A1A9AC"/>
<path d="M1807.79 300.08C1804.62 303.451 1801.03 306.381 1797.29 309.08C1796.9 309.356 1797.24 310.261 1797.71 309.92C1801.46 307.222 1805.05 304.291 1808.21 300.92C1808.53 300.581 1808.18 299.665 1807.79 300.08Z" fill="#A1A9AC"/>
<path d="M1820.63 313.381C1821.81 318.481 1824.44 322.854 1825.19 328.122C1826.09 334.411 1827.91 340.376 1828.4 346.765C1828.84 352.453 1828.49 358.163 1828.92 363.854C1829.36 369.591 1831.44 374.951 1833.21 380.374C1835.1 386.163 1837.99 391.621 1840.39 397.205C1843.08 403.468 1844.41 409.873 1845 416.64C1846.02 428.456 1847.05 440.463 1847.52 452.306C1847.8 459.504 1847.49 466.287 1853.88 470.588C1864.18 477.517 1875.42 483.451 1886.23 489.55C1897.47 495.887 1908.94 501.797 1920.81 506.86C1926.4 509.242 1932.1 511.383 1937.89 513.207C1944.64 515.334 1951.63 516.38 1958.2 519.12C1958.74 519.345 1958.9 518.397 1958.47 518.216C1948.02 513.86 1936.64 512.102 1926.04 507.983C1914.08 503.334 1902.6 497.491 1891.35 491.344C1880.57 485.451 1870.03 479.124 1859.45 472.865C1855.12 470.3 1850.44 468.322 1849.22 462.995C1848.02 457.801 1848.29 452.162 1848.04 446.869C1847.77 441.276 1846.8 435.748 1846.47 430.154C1846.13 424.504 1846.01 418.853 1845.42 413.22C1844.25 401.847 1838.58 392.187 1834.5 381.713C1832.28 375.987 1830.32 369.873 1829.67 363.76C1829.07 358.1 1829.48 352.353 1829.15 346.671C1828.84 341.393 1827.89 336.19 1826.59 331.074C1825.95 328.575 1825.94 325.768 1825.1 323.325C1823.95 319.935 1822.18 316.796 1821.37 313.287C1821.24 312.689 1820.49 312.768 1820.63 313.381Z" fill="#A1A9AC"/>
<path d="M1935.4 324.379C1930.01 319.907 1922.46 318.625 1915.75 317.468C1906.69 315.905 1897.58 315.1 1888.43 314.268C1878.64 313.378 1869.35 311.887 1859.64 314.071C1853.05 315.552 1846.89 316.995 1840.1 317.435C1834.58 317.792 1829.1 318.019 1823.64 318.949C1823.08 319.045 1823.05 319.827 1823.69 319.718C1833.94 317.972 1844.43 318.694 1854.58 316.232C1859.68 314.994 1864.43 313.674 1869.73 313.526C1874.69 313.388 1879.64 314.285 1884.57 314.732C1893.56 315.549 1902.53 316.348 1911.46 317.638C1919.15 318.747 1928.42 319.827 1934.6 324.953C1934.97 325.258 1935.8 324.713 1935.4 324.379Z" fill="#A1A9AC"/>
<path d="M1855.13 310.795C1855.14 314.855 1855.38 318.858 1855.94 322.878C1856.03 323.492 1856.79 322.924 1856.72 322.454C1856.16 318.511 1855.93 314.583 1855.92 310.603C1855.92 309.949 1855.12 310.278 1855.13 310.795Z" fill="#A1A9AC"/>
<path d="M1922.23 262.972C1910.92 266.409 1898.17 263.389 1887.44 269.021C1883.94 270.859 1882.27 275.817 1881.06 279.235C1879.11 284.756 1877.12 290.788 1876.11 296.552C1874.75 304.422 1875.52 311.871 1872.81 319.59C1870.39 326.476 1866.44 332.798 1862.84 339.104C1858.93 345.941 1856.94 353.818 1852.68 360.409C1849.82 364.834 1846.88 369.936 1847.18 375.367C1847.21 375.906 1848.18 375.771 1848.16 375.298C1847.83 369.254 1851.55 363.659 1854.75 358.825C1858.34 353.393 1859.8 346.374 1862.98 340.638C1869.48 328.941 1875.85 318.359 1876.48 304.683C1876.79 297.964 1878.29 292.121 1880.09 285.69C1881.6 280.356 1882.98 274.088 1887.18 270.166C1891.78 265.874 1901.12 266.187 1906.97 265.824C1912.19 265.5 1917.41 265.22 1922.43 263.693C1923.03 263.514 1922.83 262.791 1922.23 262.972Z" fill="#A1A9AC"/>
<path d="M1862.44 343.064C1873.1 338.29 1884.82 337.827 1895.96 334.641C1907.27 331.404 1919.13 329.882 1930.88 329.79C1931.36 329.787 1931.69 328.871 1931.11 328.876C1919.23 328.969 1907.44 330.653 1895.97 333.757C1884.75 336.795 1872.94 337.478 1862.23 342.268C1861.76 342.482 1861.84 343.331 1862.44 343.064Z" fill="#A1A9AC"/>
<path d="M1850.71 466.328C1847.8 471.341 1845.1 476.243 1842.59 481.467C1841.11 484.524 1839.6 487.489 1838.49 490.701C1837.36 493.945 1837.34 497.511 1836.92 500.887C1836.56 503.73 1835.18 506.266 1834.04 508.852C1833.78 509.444 1833.09 510.745 1833.31 511.485C1834.41 515.096 1838.08 516.371 1841.28 517.725C1848.37 520.726 1850.67 526.945 1854.35 533.139C1858.59 540.277 1863.59 546.509 1864.34 555.103C1865 562.569 1864.34 570.121 1864.46 577.603C1864.58 585.018 1866.11 592.348 1866.54 599.748C1867.41 614.784 1866.97 630.313 1866.52 645.365C1866.19 656.566 1863.33 671 1871.19 680.294C1874.86 684.633 1880.03 687.409 1883.76 691.758C1888.21 696.952 1890.11 704.237 1893.31 710.216C1894.14 711.771 1895.47 715.945 1897.81 716.102C1903.91 716.511 1910.42 714.712 1916.58 714.518C1933.73 713.975 1951.3 713.81 1968.36 715.831C1968.84 715.888 1968.8 714.892 1968.3 714.833C1952.94 713.011 1937.46 713.403 1922.02 713.49C1915.15 713.529 1908.45 713.984 1901.64 714.833C1898.53 715.22 1896.95 715.196 1895.29 712.222C1893.16 708.403 1891.02 704.523 1889.48 700.422C1887.87 696.126 1885.59 692.381 1882.46 689.034C1877.96 684.21 1871.94 681.331 1868.78 675.275C1865.49 668.986 1866.71 659.375 1866.97 652.529C1867.28 644.591 1867.37 636.682 1867.37 628.738C1867.37 613.922 1867.46 599.382 1865.72 584.654C1864.1 571.019 1868.09 556.281 1861.7 543.604C1858.81 537.866 1854.86 532.691 1851.83 527.013C1849.51 522.663 1847.06 519.359 1842.5 517.217C1840.22 516.143 1833.03 514.214 1834.34 510.24C1835.06 508.056 1836.23 506.008 1837.04 503.853C1837.95 501.444 1837.94 498.64 1838.2 496.11C1838.68 491.495 1840.48 487.508 1842.52 483.416C1845.3 477.816 1848.13 472.409 1851.28 467.002C1851.52 466.593 1851.03 465.791 1850.71 466.328Z" fill="#A1A9AC"/>
<path d="M1922.51 380.662C1923.25 408.31 1908.54 432.565 1902.96 458.949C1896.78 488.135 1891.5 517.496 1889.69 547.305C1887.91 576.6 1887.57 606.426 1888.61 635.757C1888.86 642.691 1889.97 649.552 1891.98 656.188C1893.83 662.266 1897.21 667.647 1900.09 673.262C1906.57 685.918 1905.87 700.855 1905.87 714.725C1905.87 715.199 1906.86 715.273 1906.86 714.734C1906.85 701.964 1907.56 688.084 1902.46 676.124C1899.77 669.829 1895.88 664.183 1893.49 657.744C1890.9 650.746 1889.98 643.173 1889.6 635.766C1888.83 620.954 1889.39 605.933 1889.46 591.103C1889.53 575.3 1889.89 559.498 1890.91 543.725C1892.81 514.074 1898.34 484.61 1904.7 455.616C1910.26 430.251 1924.21 407.392 1923.49 380.671C1923.48 380.195 1922.49 380.123 1922.51 380.662Z" fill="#A1A9AC"/>
<path d="M1923.29 438.618C1919.31 458.923 1909.37 477.455 1903.85 497.339C1901.12 507.189 1898.9 517.165 1897.56 527.301C1896.03 538.839 1895.88 550.654 1895.3 562.271C1894.19 584.477 1893.49 606.704 1893.3 628.938C1893.26 633.399 1893.1 637.886 1893.45 642.337C1893.84 647.439 1895.55 652.434 1896.96 657.318C1897.61 659.545 1898.17 661.784 1898.67 664.047C1899.59 668.216 1896.23 668.233 1892.98 668.913C1888.55 669.842 1884.05 670.217 1879.7 671.531C1879.25 671.665 1879.09 672.635 1879.64 672.471C1886.24 670.479 1893.39 670.607 1899.74 667.77C1899.97 667.668 1900.1 667.382 1900.06 667.142C1898.75 658.589 1895.31 650.552 1894.25 641.954C1893.01 631.973 1894.16 621.184 1894.36 611.142C1894.76 590.868 1895.62 570.605 1896.73 550.358C1897.25 540.698 1897.68 531.066 1899.18 521.498C1900.76 511.478 1903.39 501.636 1906.18 491.897C1911.34 473.868 1920.43 457.226 1924.05 438.717C1924.17 438.076 1923.4 438.054 1923.29 438.618Z" fill="#A1A9AC"/>
<path d="M1893.49 510.436C1899.79 510.672 1905.71 513.942 1911.39 516.407C1911.83 516.598 1912.43 515.805 1911.94 515.594C1906.21 513.106 1900.22 509.803 1893.85 509.565C1893.38 509.547 1892.92 510.415 1893.49 510.436Z" fill="#A1A9AC"/>
<path d="M1876.92 295.868C1879.24 295.855 1881.55 295.791 1883.87 295.828C1887.5 295.887 1886.45 299.79 1886.12 302.235C1885.78 304.825 1885.91 304.889 1888.49 305.146C1890.09 305.305 1894.12 306.084 1895.33 304.342C1895.84 303.619 1896.08 302.471 1896.05 301.61C1895.93 297.232 1897.54 294.943 1899.98 291.548C1900.34 291.033 1900.29 289.729 1900.34 289.14C1900.46 287.558 1900.46 286.078 1900.72 284.492C1901.37 280.66 1905.2 280.482 1907.82 281.061C1912.27 282.044 1916.08 286.204 1919.71 288.745C1928.42 294.851 1939.88 291.187 1949.47 294.453C1949.93 294.607 1950.37 293.722 1949.86 293.548C1944.95 291.875 1939.87 291.853 1934.73 291.677C1928.07 291.448 1922.8 289.943 1917.53 285.894C1914.12 283.286 1904.5 275.565 1900.79 282.379C1900.19 283.492 1899.81 284.525 1899.7 285.819C1899.39 289.531 1898.73 292.042 1896.36 295.056C1895.17 296.569 1895.05 297.294 1895.08 299.183C1895.17 304.864 1891.56 304.459 1887.68 304.122C1885.97 303.974 1888.07 297.281 1886.89 295.574C1885.61 293.739 1878.76 294.934 1877.11 294.943C1876.63 294.946 1876.34 295.871 1876.92 295.868Z" fill="#A1A9AC"/>
</g>
<mask id="mask1_417_56" style="mask-type:luminance" maskUnits="userSpaceOnUse" x="0" y="0" width="1920" height="1450">
<path d="M1920 0H0V1450H1920V0Z" fill="white"/>
</mask>
<g mask="url(#mask1_417_56)">
<path d="M-27.876 945.484C-0.34 939.963 28.698 941.748 56.186 946.705C67.901 948.816 79.607 951.443 91.144 954.369C103.416 957.48 116.112 961.211 126.88 968.058C132.329 971.525 137.439 975.519 142.837 979.066C148.153 982.558 154.007 984.873 159.567 987.902C165.575 991.177 172.852 995.453 176.091 1001.72C178.929 1007.2 179.346 1013.68 182.813 1018.91C186.165 1023.97 190.46 1028.37 193.155 1033.85C197.017 1041.69 193.264 1048.95 190.255 1056.19C188.821 1059.63 185.224 1062.94 186.046 1067.08C186.852 1071.15 190.019 1073.4 193.798 1074.62C202.499 1077.44 213.017 1073.68 221.686 1072.44C226.913 1071.69 232.34 1071.5 237.245 1073.72C242.927 1076.29 243.691 1083.07 244.01 1088.56C244.579 1098.36 242.647 1108.12 241.624 1117.83C239.992 1133.32 240.244 1148.94 238.284 1164.37C237.72 1168.81 237.854 1173.09 237.723 1177.53C237.659 1179.71 241.73 1181.36 243.213 1182.13C247.908 1184.57 253.956 1183.66 259.023 1184.49C266.543 1185.72 274.069 1187.17 281.648 1187.99C296.466 1189.59 309.451 1184.28 322.735 1178.36C335.417 1172.7 347.509 1165.72 358.447 1157.15C366.399 1150.92 371.913 1144.96 374.425 1135.01C377.081 1124.48 377.058 1113.38 379.326 1102.74C380.64 1096.58 382.336 1090.84 386.17 1085.74C390.499 1079.98 395.997 1074.8 401.031 1069.66C410.428 1060.07 419.994 1052.15 431.389 1045.04C436.429 1041.9 441.474 1038.77 446.329 1035.35C451.12 1031.97 455.418 1028.12 460.437 1025.03C465.415 1021.98 470.637 1019.33 475.634 1016.31C481.363 1012.84 485.916 1008.47 490.851 1004.02C499.139 996.547 509.608 990.993 519.624 986.211C528.887 981.787 539.612 978.627 547.215 971.44C547.56 971.114 547.159 970.2 546.783 970.555C538.568 978.323 526.844 981.526 516.891 986.442C506 991.823 495.419 998.09 486.708 1006.63C476.706 1016.43 463.153 1021 452.198 1029.5C441.531 1037.77 429.842 1044.31 418.846 1052.11C407.617 1060.08 397.994 1070.96 388.92 1081.22C380.99 1090.2 378.402 1100.42 376.719 1112.12C374.989 1124.15 375.634 1137.75 367.568 1147.71C363.219 1153.08 356.723 1157.44 351.116 1161.39C344.983 1165.72 338.45 1169.46 331.791 1172.91C318.088 1180.01 302.611 1187.51 286.9 1187.34C279.844 1187.27 272.826 1185.8 265.901 1184.59C258.968 1183.38 251.47 1183.63 244.722 1181.73C237.596 1179.71 238.125 1174.33 238.644 1168.17C239.259 1160.88 240.299 1153.8 240.421 1146.47C240.638 1133.37 242.135 1120.32 243.714 1107.33C244.794 1098.45 246.008 1088.7 243.406 1079.98C241.16 1072.45 233.438 1070.76 226.436 1070.99C216.207 1071.33 206.221 1075.56 195.92 1074.13C191.191 1073.47 186.228 1070.39 186.884 1064.91C187.259 1061.77 189.841 1059.56 190.941 1056.74C192.712 1052.19 195.381 1047.82 195.533 1042.81C195.863 1031.88 187.577 1025.72 182.561 1016.93C179.798 1012.09 178.975 1006.35 176.724 1001.28C174.709 996.738 170.135 993.605 166.181 990.888C162.212 988.161 157.876 985.702 153.435 983.847C147.269 981.273 141.744 977.376 136.311 973.546C127.453 967.302 118.908 962.245 108.647 958.593C88.421 951.394 66.37 946.995 45.154 943.941C21.043 940.468 -4.146 939.705 -28.126 944.513C-28.612 944.613 -28.369 945.584 -27.876 945.484Z" fill="#A1A9AC"/>
<path d="M174.549 999.805C165.884 1012.92 158.526 1026.8 152 1041.09C146.491 1053.15 146.931 1065.63 145.315 1078.46C143.528 1092.64 141.395 1106.79 138.959 1120.88C137.844 1127.33 136.69 1132.78 132.726 1138.13C128.697 1143.58 123.268 1147.98 118.367 1152.6C113.861 1156.85 110.085 1161.72 105.731 1166.11C100.898 1170.98 96.368 1176.07 92.069 1181.42C86.745 1188.04 81.326 1190.96 72.843 1191.63C66.332 1192.14 59.762 1191.46 53.239 1191.61C41.699 1191.87 29.701 1196.05 18.509 1198.68C6.555 1201.48 -5.323 1204.61 -16.919 1208.66C-37.105 1215.72 -55.164 1226.68 -70.383 1241.73C-70.797 1242.14 -69.951 1242.61 -69.615 1242.27C-65.694 1238.4 -61.163 1234.72 -56.912 1231.15C-51.622 1226.71 -45.777 1222.96 -39.747 1219.61C-28.315 1213.26 -15.869 1208.85 -3.361 1205.17C8.823 1201.58 21.243 1198.84 33.624 1196.03C39.663 1194.66 45.707 1192.86 51.902 1192.43C58.408 1191.98 64.961 1192.66 71.477 1192.47C76.273 1192.32 80.983 1191.49 85.293 1189.33C90.652 1186.65 94.404 1179.77 98.248 1175.46C107.003 1165.64 116.074 1156.08 125.652 1147.07C129.493 1143.45 133.127 1139.65 135.928 1135.16C139.136 1130.01 139.516 1123.58 140.511 1117.74C142.893 1103.78 145.684 1089.47 146.606 1075.33C147.458 1062.25 148.642 1050.16 154.453 1038.2C160.804 1025.12 167.427 1012.34 175.453 1000.2C175.745 999.752 174.813 999.404 174.549 999.805Z" fill="#A1A9AC"/>
<path d="M302.698 1185.68C302.544 1198.45 298.522 1209.82 295.917 1222.14C293.609 1233.05 293.173 1244.55 293.809 1255.65C294.058 1259.99 295.097 1264.28 296.794 1268.27C298.648 1272.64 302.456 1275.99 304.951 1279.97C310.256 1288.42 312.045 1299.73 311.776 1309.53C311.193 1330.73 286.308 1339.74 281.016 1359.22C278.008 1370.28 277.183 1382.02 275.766 1393.36C274.16 1406.22 272.697 1419.09 272.621 1432.07C272.617 1432.72 273.376 1432.5 273.38 1431.93C273.46 1418.4 275.069 1404.98 276.745 1391.57C278.187 1380.02 278.786 1367.61 282.68 1356.56C288.85 1339.07 311.284 1330.6 312.455 1310.75C312.968 1302.06 311.455 1293.31 308.402 1285.18C306.942 1281.29 304.768 1277.86 302.199 1274.62C297.949 1269.26 295.544 1263.91 294.705 1257.09C293.234 1245.14 294.554 1232.21 297.032 1220.49C299.535 1208.66 303.309 1197.82 303.457 1185.54C303.465 1184.88 302.705 1185.11 302.698 1185.68Z" fill="#A1A9AC"/>
<path d="M609.958 1500.51C595.174 1500.17 581.606 1492.26 567.761 1487.86C552.886 1483.14 538.143 1477.78 524.514 1470.09C513.255 1463.74 501.791 1457.76 491.182 1450.33C478.993 1441.79 470.352 1431.17 462.278 1418.81C453.864 1405.94 446.262 1392.55 438.254 1379.42C430.789 1367.19 422.534 1355.67 414.052 1344.13C405.368 1332.32 398.14 1320.06 391.272 1307.14C385.951 1297.14 380.091 1286.88 371.638 1279.15C352.416 1261.56 325.025 1257.75 300.006 1256.77C293.744 1256.52 287.449 1256.41 281.183 1256.55C274.347 1256.7 267.744 1259.12 261.36 1261.33C247.373 1266.16 232.93 1270.13 219.201 1275.65C205.076 1281.33 191.77 1289.56 178.107 1296.27C164.176 1303.11 149.928 1310.04 135.182 1314.95C106.614 1324.45 75.573 1320.11 46.102 1319.55C32.777 1319.3 19.332 1320.07 6.643 1315.21C-4.504 1310.95 -9.961 1299.79 -18.847 1292.58C-19.33 1292.19 -19.525 1293.11 -19.154 1293.41C-10.026 1300.81 -4.662 1311.34 6.526 1316.15C19.373 1321.67 34.287 1320.31 47.909 1320.57C76.612 1321.11 105.771 1324.68 133.781 1316.43C163.544 1307.67 189.714 1289.69 217.878 1277.28C231.321 1271.36 246.005 1267.58 259.916 1262.88C266.958 1260.5 273.779 1258.02 281.266 1257.53C288.001 1257.08 294.943 1257.55 301.68 1257.81C329.093 1258.88 358.923 1264.24 377.341 1286.48C385.633 1296.49 390.999 1308.59 397.162 1319.93C403.838 1332.21 412.503 1343.31 420.765 1354.54C438.699 1378.92 451.94 1406.32 469.562 1430.91C476.823 1441.04 486.948 1448.8 497.332 1455.48C507.888 1462.27 519.106 1468.48 530.275 1474.19C543.302 1480.86 557.246 1485.52 571.168 1489.91C584.114 1493.99 596.163 1501.17 610.042 1501.49C610.579 1501.5 610.437 1500.52 609.958 1500.51Z" fill="#A1A9AC"/>
<path d="M-12.199 1313.36C-0.334001 1317.77 10.005 1325.53 22.445 1328.47C28.775 1329.96 35.587 1329.82 42.049 1330.06C50.071 1330.35 58.103 1330.37 66.13 1330.38C96.95 1330.4 126.924 1322.68 156.607 1315.07C170.331 1311.55 183.785 1307.01 196.624 1300.99C209.835 1294.81 221.936 1286.55 235.229 1280.49C249.634 1273.91 264.096 1271.68 279.732 1270.47C287.299 1269.88 294.865 1269.29 302.43 1268.67C311.513 1267.93 319.686 1269.02 328.357 1271.74C334.899 1273.79 341.3 1276.28 347.787 1278.5C354 1280.61 360.249 1282.55 366.075 1285.63C379.33 1292.64 384.373 1306.93 388.721 1320.33C392.524 1332.05 397.231 1342.57 404.33 1352.73C408.161 1358.21 412.497 1363.29 416.62 1368.55C421.393 1374.63 425.333 1381.36 429.415 1387.92C436.758 1399.71 445.31 1410.46 452.372 1422.46C459.482 1434.54 468.755 1445.01 478.668 1454.86C487.815 1463.95 497.329 1471.48 508.646 1477.69C520.252 1484.06 532.505 1489.19 543.695 1496.31C544.105 1496.57 544.841 1496.02 544.312 1495.68C533.132 1488.56 520.912 1483.33 509.263 1477.06C496.394 1470.13 485.906 1460.98 475.729 1450.59C465.138 1439.78 456.818 1428.01 449.142 1415.04C445.621 1409.09 441.388 1403.9 437.386 1398.32C432.788 1391.9 428.823 1385.04 424.591 1378.38C417.057 1366.53 407.289 1356.35 399.995 1344.33C393.162 1333.06 390.314 1320.47 385.553 1308.33C381.035 1296.81 374.025 1288.22 362.688 1283.02C357.543 1280.66 352.043 1279.09 346.698 1277.27C339.603 1274.84 332.61 1272.13 325.417 1270C312.174 1266.07 298.917 1268.22 285.405 1269.27C270.701 1270.42 256.655 1271.45 242.699 1276.57C229.624 1281.36 217.677 1288.65 205.616 1295.49C192.305 1303.03 177.793 1308.31 163.129 1312.52C148.611 1316.7 133.69 1319.92 118.968 1323.31C102.905 1326.99 86.589 1329.52 70.08 1329.62C54.682 1329.71 38.009 1330.76 22.847 1327.75C10.409 1325.27 -0.0420008 1317.01 -11.797 1312.64C-12.29 1312.46 -12.811 1313.13 -12.199 1313.36Z" fill="#A1A9AC"/>
<path d="M311.85 1310.73C313.031 1319.07 316.133 1326.77 319.138 1334.58C322.805 1344.11 324.34 1353.32 325.108 1363.46C326.665 1384.03 328.285 1404.03 334.043 1423.93C345.92 1464.98 349.092 1508.11 364.541 1548.2C364.72 1548.66 365.64 1548.27 365.459 1547.8C350.46 1508.89 346.767 1467.06 335.934 1427.02C333.058 1416.38 330.29 1405.95 328.821 1395.01C327.488 1385.08 326.926 1375.06 326.206 1365.08C325.544 1355.91 324.662 1347.29 321.669 1338.56C318.467 1329.22 314.213 1320.4 312.815 1310.53C312.739 1310 311.783 1310.26 311.85 1310.73Z" fill="#A1A9AC"/>
<path d="M273.873 1416.46C280.403 1417.89 286.969 1419.15 293.485 1420.65C300.792 1422.33 307.558 1425.78 314.543 1428.43C321.127 1430.93 327.306 1431.73 334.279 1432.2C343.021 1432.79 351.559 1433.95 360.207 1435.29C373.706 1437.4 386.159 1437.16 399.398 1433.52C411.485 1430.21 422.129 1423.43 432.416 1416.49C444.929 1408.05 457.709 1400.04 470.346 1391.79C476.634 1387.69 482.788 1383.35 488.867 1378.94C493.47 1375.6 498.696 1372.68 502.394 1368.28C503.889 1366.51 503.644 1364.54 502.936 1362.5C502.036 1359.9 499.485 1357.12 503.495 1355.85C506.98 1354.74 511.006 1355.07 514.615 1354.67C527.451 1353.26 538.913 1348.33 551.231 1344.74C556.447 1343.21 562.568 1341.48 568.015 1342.73C573.527 1343.99 578.347 1348.74 583.262 1351.37C588.542 1354.19 592.892 1357.09 597.518 1360.9C601.379 1364.09 605.283 1366.41 610.027 1367.92C619.089 1370.81 630.088 1372.32 636.841 1379.65C639.895 1382.96 640.724 1388.22 642.324 1392.33C643.742 1395.97 646.216 1398.53 649.432 1400.66C657.62 1406.08 668.388 1408.78 678.233 1408.07C683.002 1407.73 687.646 1406.08 692.248 1404.91C698.952 1403.2 705.641 1403.42 712.497 1403.64C719.41 1403.85 726.312 1404.36 733.207 1404.87C739.575 1405.35 745.999 1406.65 752.376 1405.75C756.474 1405.17 760.843 1403.6 764.786 1402.31C768.377 1401.14 772.161 1399.06 775.903 1398.47C776.361 1398.39 776.655 1397.45 776.095 1397.54C773.084 1398.02 770.043 1399.59 767.184 1400.6C761.588 1402.57 755.378 1404.71 749.47 1405.17C742.498 1405.71 734.717 1404.03 727.727 1403.53C719.526 1402.95 711.317 1402.57 703.095 1402.54C697.457 1402.52 692.065 1404.04 686.673 1405.5C679.056 1407.56 672.614 1407.19 664.921 1405.82C658.518 1404.69 653.057 1402.23 647.863 1398.33C643.406 1394.98 642.296 1389.28 640.468 1384.34C637.057 1375.14 627.6 1372.09 618.926 1369.5C613.6 1367.91 608.098 1366.78 603.283 1363.9C597.241 1360.28 592.556 1354.94 586.289 1351.6C581.118 1348.84 576.232 1345.46 570.993 1342.83C567.016 1340.83 562.511 1341.3 558.28 1342.14C545.126 1344.77 532.977 1351.38 519.695 1353.31C513.293 1354.25 505.575 1353.01 499.881 1356.61C499.701 1356.72 499.492 1357.01 499.594 1357.24C500.953 1360.27 504.007 1364.63 501.782 1367.85C498.769 1372.22 492.859 1375.08 488.631 1378.15C478.962 1385.18 469.013 1391.77 458.924 1398.18C441.577 1409.2 424.785 1423.11 405.51 1430.61C395.574 1434.48 384.558 1436.43 373.916 1435.96C362.56 1435.47 351.427 1432.56 340.095 1431.66C333.976 1431.18 327.682 1431.24 321.708 1429.73C316.011 1428.29 310.577 1425.83 305.164 1423.59C295.226 1419.47 284.727 1417.85 274.268 1415.55C273.802 1415.45 273.355 1416.34 273.873 1416.46Z" fill="#A1A9AC"/>
<path d="M501.808 1368.75C511.199 1368.81 520.432 1370.03 529.768 1370.85C538.302 1371.59 541.732 1377.52 545.639 1384.54C549.832 1392.07 553.85 1399.14 559.717 1405.5C566.158 1412.5 575.571 1415.74 581.577 1423.27C594.125 1438.98 609.066 1453.58 623.996 1467C639.445 1480.88 657.407 1491.47 673.645 1504.34C674.02 1504.64 674.776 1503.99 674.356 1503.66C657.642 1490.41 639.301 1479.43 623.396 1465.14C615.541 1458.08 608.076 1450.59 600.802 1442.94C593.506 1435.26 586.876 1426.85 579.409 1419.36C576.301 1416.25 572.38 1413.94 568.747 1411.5C564.438 1408.61 560.738 1405.33 557.308 1401.43C551.079 1394.36 547.856 1385.24 542.592 1377.52C539.588 1373.11 536.401 1370.75 531.103 1370.13C521.492 1369 511.809 1367.99 502.125 1367.92C501.651 1367.92 501.188 1368.74 501.808 1368.75Z" fill="#A1A9AC"/>
<path d="M515.511 1353.95C513.643 1362.18 514.376 1370.05 516.278 1378.21C517.24 1382.34 518.399 1386.42 519.337 1390.56C520.352 1395.03 521.796 1400.21 518.261 1403.92C514.294 1408.09 506.025 1408.11 500.796 1409.58C497.51 1410.51 494.692 1412.46 491.538 1413.73C487.243 1415.45 482.529 1415.59 477.965 1415.63C477.337 1415.63 477.423 1416.38 478.036 1416.37C481.929 1416.34 485.729 1416.14 489.514 1415.19C493.648 1414.16 497.101 1411.55 501.128 1410.28C506.543 1408.57 513.814 1408.8 518.343 1404.96C523.999 1400.15 520.725 1391.84 519.213 1385.77C516.553 1375.09 513.987 1365.07 516.489 1354.05C516.609 1353.53 515.617 1353.48 515.511 1353.95Z" fill="#A1A9AC"/>
<path d="M310.659 1292.78C298.42 1295.28 287.715 1302.44 276.234 1307.04C262.032 1312.72 247.455 1318.82 232.689 1322.8C207.519 1329.6 181.55 1335.55 161.011 1352.63C141.265 1369.06 129.921 1394.36 119.206 1417.08C107.284 1442.37 95.768 1468.38 75.466 1488.23C68.358 1495.18 61.812 1502.04 56.734 1510.69C56.478 1511.12 56.936 1511.88 57.266 1511.31C64.565 1498.89 75.641 1490.24 84.798 1479.37C93.161 1469.45 99.79 1458.17 105.784 1446.7C118.471 1422.43 128.125 1396.46 143.543 1373.68C151.807 1361.46 162.185 1351.54 174.878 1344.04C186.825 1336.98 200.149 1332.65 213.44 1328.93C226.704 1325.22 239.877 1322.1 252.69 1316.98C265.973 1311.67 279.286 1306.9 292.187 1300.7C298.12 1297.85 304.176 1295.09 310.658 1293.77C311.129 1293.67 311.178 1292.68 310.659 1292.78Z" fill="#A1A9AC"/>
<path d="M296.131 1347.52C287.461 1347.15 278.963 1348.5 270.512 1350.34C261.09 1352.38 251.545 1354.54 242.228 1357C222.927 1362.1 203.931 1367.09 185.561 1375.07C177.064 1378.76 169.054 1383.48 161.784 1389.23C156.019 1393.78 151.421 1399.59 146.878 1405.31C142.481 1410.85 138.173 1416.55 134.386 1422.53C133.788 1423.48 131.607 1422.88 130.357 1422.81C125.952 1422.59 121.541 1422.54 117.131 1422.52C116.654 1422.52 116.347 1423.47 116.869 1423.47C122.597 1423.49 128.354 1423.53 134.066 1424C134.282 1424.02 134.425 1423.87 134.531 1423.7C141.002 1413.48 148.57 1403.65 156.801 1394.79C168.001 1382.73 184.68 1375.64 199.972 1370.47C215.52 1365.21 230.975 1360.17 247.105 1356.84C263.278 1353.51 279.129 1347.74 295.87 1348.47C296.347 1348.5 296.658 1347.55 296.131 1347.52Z" fill="#A1A9AC"/>
<path d="M131.428 1423.81C141.053 1424.9 149.944 1429.05 158.079 1434.15C162.508 1436.92 166.68 1440.05 170.475 1443.64C173.32 1446.33 176.145 1449.17 179.845 1450.67C188.002 1453.97 198.012 1452.49 206.598 1452.62C218.211 1452.78 229.822 1453.05 241.437 1452.87C264.135 1452.54 286.091 1448.31 308.414 1444.66C319.609 1442.83 330.726 1442.5 342.05 1442.5C352.193 1442.49 362.296 1437.85 372.387 1436.78C372.886 1436.73 372.785 1435.73 372.287 1435.79C362.613 1436.81 353.388 1440.03 343.759 1441.31C338.335 1442.03 332.603 1441.5 327.127 1441.69C321.441 1441.88 315.839 1442.49 310.222 1443.36C287.868 1446.84 265.97 1451.29 243.272 1451.84C232.307 1452.11 221.333 1451.86 210.369 1451.68C204.563 1451.58 198.757 1451.51 192.95 1451.5C187.945 1451.49 183.367 1451.33 178.791 1449.13C174.332 1446.98 170.983 1442.79 167.297 1439.56C164.211 1436.87 160.531 1434.6 157.061 1432.43C149.358 1427.6 140.607 1423.86 131.53 1422.83C130.994 1422.77 130.957 1423.76 131.428 1423.81Z" fill="#A1A9AC"/>
<path d="M122.216 1406.65C119.108 1406 115.852 1405.18 112.993 1406.95C108.775 1409.56 105.188 1414.1 101.442 1417.35C95.866 1422.17 91.819 1428.24 86.86 1433.66C81.231 1439.81 75.195 1445.57 69.619 1451.77C69.201 1452.24 70.055 1452.59 70.38 1452.22C78.293 1443.42 87.085 1435.43 94.45 1426.14C98.63 1420.87 103.576 1416.88 108.38 1412.22C109.709 1410.94 111.128 1409.72 112.473 1408.45C115.18 1405.88 118.469 1406.66 121.784 1407.35C122.279 1407.45 122.854 1406.78 122.216 1406.65Z" fill="#A1A9AC"/>
<path d="M171.157 1357.52C165.46 1356.36 159.615 1355.33 154.309 1352.89C152.454 1352.04 150.476 1350.81 148.47 1351.96C139.239 1357.23 131.736 1365.94 124.832 1373.83C107.45 1393.7 88.729 1412.44 71.772 1432.66C71.443 1433.05 71.808 1433.84 72.229 1433.34C87.859 1414.7 105.21 1397.57 121.196 1379.23C128.581 1370.76 135.823 1361.86 145.142 1355.42C146.917 1354.19 148.464 1352.13 150.898 1352.54C152.323 1352.77 153.794 1353.75 155.086 1354.34C159.955 1356.57 165.623 1357.41 170.844 1358.47C171.337 1358.58 171.639 1357.62 171.157 1357.52Z" fill="#A1A9AC"/>
<path d="M98.063 1410.43C100.044 1410.42 102.017 1410.36 103.991 1410.56C108.657 1411.03 109.919 1414.56 109.62 1418.84C109.602 1419.11 109.7 1419.34 109.936 1419.47C112.348 1420.75 114.989 1422.69 117.716 1423.18C118.232 1423.28 118.114 1422.29 117.645 1422.2C116.157 1421.93 110.347 1419.64 110.464 1417.96C110.587 1416.2 110.367 1413.91 109.278 1412.42C106.692 1408.87 101.88 1409.43 97.991 1409.45C97.452 1409.45 97.585 1410.43 98.063 1410.43Z" fill="#A1A9AC"/>
<path d="M262.914 1272.33C271.984 1287.69 274.948 1305.35 282.68 1321.26C282.967 1321.85 283.546 1321.21 283.32 1320.74C275.584 1304.83 272.628 1287.19 263.554 1271.81C263.222 1271.25 262.649 1271.88 262.914 1272.33Z" fill="#A1A9AC"/>
<path d="M674.95 1413.38C682.075 1413.38 689.191 1413.33 696.303 1412.84C702.213 1412.43 708.1 1410.75 713.997 1410.66C719.183 1410.59 722.531 1415.74 725.552 1419.2C729.616 1423.87 733.763 1428.62 736.816 1434.02C742.66 1444.36 736.533 1459.57 734.835 1470.41C733.828 1476.84 733.247 1483.3 732.12 1489.72C730.823 1497.12 729.615 1504.49 729.508 1512.01C729.5 1512.55 730.486 1512.47 730.492 1511.99C730.599 1504.47 731.807 1497.1 733.104 1489.7C734.392 1482.37 735.015 1474.95 736.274 1467.62C738.249 1456.12 743.098 1443.14 736.933 1432.23C733.7 1426.51 728.807 1421.51 724.513 1416.57C722.44 1414.19 720.064 1411.05 716.815 1410.28C711.535 1409.01 705.503 1411.12 700.285 1411.72C691.922 1412.68 683.454 1412.62 675.05 1412.62C674.48 1412.62 674.295 1413.38 674.95 1413.38Z" fill="#A1A9AC"/>
<path d="M739.479 1438.11C748.114 1413.73 777.423 1409.64 796.345 1396.28C806.111 1389.38 810.974 1377.74 820.534 1370.64C832.307 1361.9 851.774 1377.25 856.514 1388.08C856.706 1388.52 857.695 1388.4 857.485 1387.91C852.878 1377.39 840.641 1368.98 829.381 1367.5C816.861 1365.85 808.637 1382.79 801.715 1390.5C792.388 1400.88 777.315 1405.45 765.194 1411.66C753.71 1417.53 742.98 1425.29 738.52 1437.88C738.342 1438.39 739.319 1438.57 739.479 1438.11Z" fill="#A1A9AC"/>
<path d="M837.633 1361.7C827.945 1368.74 820.787 1378.6 812.802 1387.38C803.328 1397.81 793.337 1407.51 780.791 1414.16C778.213 1415.52 775.471 1416.53 772.929 1417.96C769.429 1419.94 766.006 1422.49 761.983 1423.21C755.783 1424.33 750.17 1418.57 745.863 1414.84C736.715 1406.93 728.485 1397.66 717.222 1392.69C716.707 1392.46 716.176 1393.05 716.778 1393.31C729.987 1399.15 738.559 1410.92 749.996 1419.21C753.126 1421.48 755.884 1423.9 759.881 1424.15C765.607 1424.51 770.331 1420.32 775.076 1417.81C781.148 1414.59 787.044 1411.86 792.656 1407.78C797.919 1403.96 802.652 1399.45 807.154 1394.78C817.463 1384.07 826.273 1371.08 838.368 1362.3C838.835 1361.95 838.013 1361.43 837.633 1361.7Z" fill="#A1A9AC"/>
<path d="M525.89 990.572C517.517 995.422 509.612 1001 501.483 1006.24C494.212 1010.92 486.496 1014.68 478.906 1018.8C475.569 1020.61 472.149 1022.27 468.47 1023.25C463.434 1024.59 460.947 1021.79 458.631 1017.82C455.119 1011.8 453.347 1004.93 450.34 998.674C450.092 998.158 449.458 998.906 449.66 999.326C453.001 1006.28 454.96 1013.87 459.142 1020.43C462.641 1025.91 467.886 1024.93 473.235 1022.55C492.087 1014.17 508.361 1001.71 526.11 991.428C526.528 991.187 526.431 990.26 525.89 990.572Z" fill="#A1A9AC"/>
<path d="M433.509 979.09C435.779 991.637 444.658 1001.35 450.291 1012.43C452.645 1017.06 454.487 1021.99 455.591 1027.07C456.237 1030.04 456.452 1032.93 454.41 1035.38C452.286 1037.94 449.165 1039.83 446.496 1041.77C436.217 1049.22 429.247 1060.52 420.569 1069.72C410.449 1080.45 399.606 1090.47 389.103 1100.82C378.301 1111.46 368.295 1122.48 356.31 1131.86C344.81 1140.87 332.373 1148.63 319.76 1155.96C307.341 1163.19 294.424 1166.93 280.916 1171.38C276.961 1172.68 274.775 1177.03 270.921 1178.35C265.283 1180.27 259.295 1181.35 253.468 1182.54C252.84 1182.66 252.212 1182.79 251.584 1182.92C250.974 1183.04 251.106 1183.77 251.719 1183.65C256.642 1182.67 261.553 1181.63 266.423 1180.41C268.407 1179.91 270.371 1179.33 272.308 1178.67C274.325 1177.98 275.819 1175.84 277.419 1174.53C281.834 1170.9 288.63 1170.01 294.012 1168.31C301.012 1166.09 307.789 1163.22 314.322 1159.88C339.258 1147.13 361.979 1130.08 381.295 1109.9C391.458 1099.29 402.277 1089.32 412.701 1078.96C417.711 1073.99 422.601 1068.89 427.322 1063.64C431.998 1058.44 435.906 1052.43 440.757 1047.43C444.553 1043.51 449.593 1041.06 453.579 1037.36C456.694 1034.48 457.342 1032.29 456.79 1028.09C455.37 1017.31 448.817 1007.5 443.176 998.544C439.317 992.417 435.798 986.114 434.494 978.909C434.403 978.418 433.419 978.597 433.509 979.09Z" fill="#A1A9AC"/>
<path d="M482.79 1010.68C483.698 1014.74 485.41 1020.06 482.313 1023.56C479.537 1026.71 474.568 1028.73 470.955 1030.63C466.16 1033.16 461.709 1036.22 457.577 1039.72C452.77 1043.8 449.043 1049.03 444.668 1053.55C440.632 1057.73 436.279 1061.43 432.412 1065.78C428.627 1070.04 424.96 1074.4 421.088 1078.58C412.609 1087.74 403.375 1096.15 394.985 1105.44C386.478 1114.85 377.922 1124.18 368.338 1132.53C359.925 1139.85 350.605 1146.22 341.207 1152.2C330.726 1158.87 319.825 1164.41 308.14 1168.65C302.835 1170.58 297.361 1171.78 291.962 1173.38C285.368 1175.33 279.233 1177.77 272.256 1177.97C271.777 1177.98 271.552 1178.95 272.081 1178.94C277.876 1178.77 283.227 1177.17 288.702 1175.37C294.676 1173.4 300.823 1172.09 306.785 1170.08C318.583 1166.1 329.491 1160.47 340.054 1153.93C349.746 1147.93 359.139 1141.31 367.879 1133.99C378.348 1125.21 387.448 1114.95 396.584 1104.84C405.593 1094.87 415.618 1085.91 424.572 1075.92C428.664 1071.36 432.581 1066.64 436.763 1062.16C441.347 1057.24 446.492 1052.97 450.936 1047.87C455.71 1042.4 460.69 1037.84 466.876 1033.96C471.451 1031.09 476.41 1028.91 480.868 1025.84C486.374 1022.04 484.82 1015.91 483.548 1010.23C483.41 1009.62 482.686 1010.22 482.79 1010.68Z" fill="#A1A9AC"/>
<path d="M393.044 1091.16C395.776 1094.26 398.977 1096.88 401.752 1099.94C402.455 1100.72 403.969 1103.92 405.356 1103.85C407.812 1103.72 409.987 1101.32 411.785 1099.87C415.389 1096.95 419.099 1094.31 422.486 1091.12C429.3 1084.69 434.73 1076.99 441.211 1070.25C447.564 1063.65 454.207 1057.31 459.952 1050.15C461.674 1048 462.019 1045.99 464.679 1044.49C465.954 1043.78 467.112 1043.04 468.319 1042.21C472.256 1039.5 475.838 1036.27 479.467 1033.18C486.663 1027.04 495.404 1022.03 503.431 1016.99C506.445 1015.1 509.783 1014.14 512.881 1012.47C513.966 1011.88 515.488 1010.47 515.36 1009.04C515.019 1005.25 512.803 1001.92 510.916 998.713C508.249 994.178 506.875 988.897 504.98 984.012C504.807 983.567 503.833 983.76 504.027 984.26C505.305 987.553 506.448 990.895 507.719 994.19C509.171 997.956 511.453 1001.24 513.19 1004.87C516.039 1010.82 511.468 1012.4 507.252 1014C504.191 1015.16 501.346 1017.32 498.638 1019.14C491.964 1023.61 484.878 1027.49 478.733 1032.68C475.531 1035.39 472.363 1038.13 469.026 1040.67C467.042 1042.18 463.724 1043.27 462.121 1045.22C459.934 1047.89 458.3 1050.86 455.966 1053.47C452.958 1056.85 449.924 1060.21 446.758 1063.43C441.326 1068.98 436.122 1074.5 431.131 1080.44C425.557 1087.08 419.567 1093.31 412.409 1098.25C410.996 1099.22 409.701 1100.47 408.336 1101.52C404.9 1104.15 403.264 1100.26 401.576 1098.4C399.143 1095.71 396.287 1093.46 393.887 1090.74C393.575 1090.39 392.661 1090.73 393.044 1091.16Z" fill="#A1A9AC"/>
<path d="M-24.324 1254.37C-19.725 1258.56 -13.124 1259.88 -7.237 1261.2C1.846 1263.25 10.239 1266.13 18.958 1269.41C28.687 1273.08 38.42 1275.18 48.493 1277.55C58.986 1280.03 69.143 1283.77 79.517 1286.68C99.658 1292.32 119.465 1291.67 139.721 1287.05C145.932 1285.64 161.376 1278.38 164.793 1287.2C166.125 1290.63 165.564 1294.88 165.651 1298.47C165.794 1304.34 166.272 1310.22 164.619 1315.94C164.437 1316.57 165.221 1316.61 165.38 1316.06C167.636 1308.26 166.669 1299.39 166.326 1291.37C166.116 1286.47 164.48 1282.65 159.213 1282.12C155.058 1281.7 150.776 1283.4 146.828 1284.41C141.093 1285.87 135.324 1287.19 129.497 1288.23C117.689 1290.35 105.663 1290.61 93.792 1288.85C83.155 1287.28 72.878 1283.71 62.646 1280.53C51.611 1277.1 40.195 1275.43 29.208 1271.97C19.638 1268.96 10.524 1264.37 0.774002 1261.97C-7.237 1260 -17.312 1259.43 -23.677 1253.63C-24.074 1253.26 -24.675 1254.05 -24.324 1254.37Z" fill="#A1A9AC"/>
<path d="M126.969 1296.37C146.329 1296.08 166.453 1286.37 180.811 1273.76C185.149 1269.95 188.894 1265.45 192.404 1260.89C194.662 1257.96 197.061 1254.71 201.207 1254.65C203.158 1254.63 205.129 1255.62 207.03 1255.96C218.098 1257.93 228.159 1250.73 239.103 1250.37C239.761 1250.35 239.456 1249.61 238.899 1249.63C227.315 1250 216.776 1257.82 205.086 1254.71C196.005 1252.29 192.626 1259.45 187.291 1265.78C173.138 1282.55 149.184 1295.29 127.033 1295.63C126.42 1295.64 126.34 1296.38 126.969 1296.37Z" fill="#A1A9AC"/>
<path d="M-13.455 867.123C-9.936 872.533 -5.627 877.156 -0.891001 881.523C4.354 886.361 9.016 891.209 13.722 896.58C21.701 905.689 30.368 912.103 41.833 916.101C47.827 918.191 54.059 919.949 58.894 924.273C64.282 929.093 65.153 936.828 67.084 943.375C68.641 948.65 71.996 953.561 74.644 958.342C77.876 964.178 81.303 970.026 85.442 975.274C93.976 986.094 106.107 993.413 115.494 1003.47C120.873 1009.23 124.478 1015.5 126.413 1023.15C128.19 1030.17 128.559 1037.51 129.808 1044.64C131.037 1051.65 132.464 1058.66 134.013 1065.61C135.412 1071.88 136.575 1079.13 139.211 1085.01C141.461 1090.03 144.775 1093.06 149.136 1096.27C154.548 1100.26 161.868 1100.61 165.694 1106.82C170.593 1114.77 169.321 1127.07 168.3 1135.88C167.634 1141.62 164.656 1145.96 162.535 1151.2C160.565 1156.06 161.526 1161.04 162.697 1165.96C164.9 1175.21 168.555 1186.27 176.464 1192.2C185.109 1198.68 195.458 1201.52 201.545 1211.12C201.795 1211.52 202.763 1211.36 202.455 1210.88C196.985 1202.25 188.285 1198.83 179.946 1193.66C168.843 1186.77 164.435 1172.22 162.492 1159.97C161.385 1152.99 165.753 1147.19 168.462 1141.17C170.144 1137.43 169.786 1131.53 169.931 1127.52C170.202 1120.01 170.284 1109.39 164.39 1103.79C160.224 1099.83 154.532 1098.65 149.734 1095.71C141.927 1090.91 139.871 1083.89 137.528 1075.64C133.569 1061.69 130.989 1047.19 129.089 1032.83C128.291 1026.8 127.172 1020.91 124.813 1015.28C122.272 1009.22 117.444 1004.09 112.852 999.518C102.584 989.305 90.699 981.764 82.467 969.586C75.584 959.402 69.336 948.373 66.242 936.473C63.547 926.108 57.454 920.887 47.64 917.293C41.814 915.16 36.101 913.299 30.609 910.346C24.749 907.196 19.973 902.209 15.548 897.336C11.215 892.565 7.338 887.643 2.465 883.4C-3.198 878.472 -8.435 873.195 -12.545 866.877C-12.799 866.486 -13.767 866.642 -13.455 867.123Z" fill="#A1A9AC"/>
<path d="M-38.681 1131.35C-30.663 1117.33 -18.103 1106.82 -3.56 1100.03C2.682 1097.12 9.143 1094.99 16.061 1094.88C22.918 1094.77 29.75 1095.58 36.582 1094.65C41.047 1094.05 44.359 1092.12 47.301 1088.79C49.43 1086.38 51.234 1083.67 53.163 1081.1C55.754 1077.65 59.136 1075.06 62.052 1071.9C67.033 1066.52 70.368 1060.19 74.112 1053.96C77.91 1047.64 82.449 1041.87 87.319 1036.35C87.631 1035.99 87.068 1035.22 86.682 1035.65C82.123 1040.83 77.921 1046.19 74.238 1052.02C69.502 1059.52 65.625 1066.98 59.329 1073.39C54.985 1077.81 51.35 1082.18 47.499 1087.08C42.584 1093.34 35.988 1094.13 28.432 1094.16C22.282 1094.19 16.093 1093.45 9.972 1094.31C3.306 1095.25 -3.512 1098.69 -9.376 1101.83C-21.753 1108.47 -32.341 1118.46 -39.317 1130.65C-39.551 1131.06 -38.966 1131.85 -38.681 1131.35Z" fill="#A1A9AC"/>
</g>
</svg>
