<svg width="1920" height="432" viewBox="0 0 1920 432" fill="none" xmlns="http://www.w3.org/2000/svg">
<mask id="mask0_204_62" style="mask-type:luminance" maskUnits="userSpaceOnUse" x="0" y="0" width="1920" height="432">
<path d="M1920 0H0V431.716H1920V0Z" fill="white"/>
</mask>
<g mask="url(#mask0_204_62)">
<path d="M1569.5 68.226C1561.97 64.765 1554.25 61.823 1546.38 59.253C1539.49 57.007 1532.75 53.886 1527.2 49.181C1522.67 45.339 1518.67 41.12 1513.24 38.53C1506.79 35.452 1498.9 34.407 1491.95 33.009C1483.66 31.337 1476.07 29.12 1468.62 25.048C1460.91 20.837 1453.32 16.413 1445.59 12.239C1438.56 8.439 1431.45 4.605 1424.17 1.284C1417.01 -1.989 1409.76 -1.231 1402.26 -2.903C1401.75 -3.016 1401.27 -2.299 1401.91 -2.157C1404.73 -1.53 1407.52 -1.274 1410.39 -1.098C1415.77 -0.765999 1420.38 0.489001 1425.27 2.722C1432.55 6.046 1439.64 10.009 1446.68 13.81C1460.29 21.159 1472.86 29.747 1488.16 33.048C1495.84 34.706 1503.72 35.986 1511.16 38.593C1517.69 40.884 1522.41 46.322 1527.55 50.683C1532.36 54.763 1538.26 56.931 1543.99 59.353C1552.19 62.818 1560.79 65.163 1568.93 68.905C1569.37 69.105 1570.06 68.487 1569.5 68.226Z" fill="#A1A9AC"/>
<path d="M1277.99 -1.345C1278.31 9.759 1284.14 18.851 1291.48 26.759C1295.62 31.218 1298.66 35.831 1301.75 41.038C1304.3 45.316 1307.38 49.552 1311.5 52.419C1311.89 52.69 1312.7 52.107 1312.28 51.814C1303.98 46.038 1300.92 35.679 1294.3 28.351C1286.38 19.585 1279.3 10.792 1278.94 -1.593C1278.92 -2.12 1277.97 -1.823 1277.99 -1.345Z" fill="#A1A9AC"/>
<path d="M1313.25 -0.184004C1308.24 2.931 1302.66 4.337 1297.33 6.714C1291.49 9.319 1286.39 13.263 1280.45 15.677C1266.9 21.185 1250.92 14.319 1237.03 13.403C1231.39 13.03 1225.67 13.681 1220.12 14.593C1214.82 15.466 1210.72 9.122 1206.67 6.155C1201.7 2.511 1196.12 -0.130004 1191.19 -3.849C1186.56 -7.343 1182.17 -11.073 1176.86 -13.499C1176.41 -13.7 1175.77 -13.044 1176.34 -12.784C1182.65 -9.903 1187.78 -5.149 1193.35 -1.106C1198.71 2.788 1204.7 5.517 1209.83 9.794C1212.43 11.964 1214.1 15.583 1217.8 15.603C1221.08 15.622 1224.45 14.638 1227.72 14.362C1231.98 14.003 1236.22 14.091 1240.47 14.452C1253.5 15.556 1266.06 20.632 1279.11 16.931C1284.84 15.304 1289.75 11.495 1294.92 8.687C1300.98 5.398 1307.81 4.103 1313.71 0.430996C1314.27 0.0849962 1313.73 -0.487004 1313.25 -0.184004Z" fill="#A1A9AC"/>
<path d="M1216.45 15.361C1215.16 19.438 1212.33 22.838 1211.65 27.131C1211.57 27.623 1212.56 27.731 1212.64 27.233C1213.32 23.008 1216.12 19.671 1217.39 15.658C1217.55 15.142 1216.59 14.909 1216.45 15.361Z" fill="#A1A9AC"/>
<path d="M1526.83 106.386C1516.54 105.79 1508.21 95.435 1499.73 90.347C1488.79 83.792 1476.86 78.769 1465.59 72.81C1455.47 67.46 1445.21 60.664 1434.43 56.81C1430.73 55.485 1426.74 55.927 1423.03 56.978C1416.58 58.81 1410.83 60.847 1404 60.714C1401.28 60.661 1399.31 61.97 1397.73 64.118C1396.39 65.94 1396.06 67.858 1394.19 69.413C1391.11 71.976 1385.57 69.897 1382.25 68.886C1371.82 65.716 1362.46 66.501 1352.02 69.292C1342.3 71.892 1332.27 72.839 1323.48 77.952C1312.38 84.401 1300.04 88.222 1287.82 92.106C1287.19 92.306 1287.67 92.942 1288.21 92.772C1298.83 89.392 1310.5 86.339 1320.21 80.806C1325.47 77.808 1330.25 74.651 1336.36 73.708C1341.73 72.88 1346.92 71.464 1352.15 70.028C1357.97 68.433 1363.79 67.218 1369.86 67.302C1375.58 67.382 1380.76 69.493 1386.23 70.81C1389.22 71.532 1392.08 71.388 1394.8 69.958C1399.49 67.493 1397.2 61.341 1404.99 61.491C1409.3 61.575 1413.33 60.778 1417.43 59.495C1424.89 57.159 1430.83 55.669 1438.19 59.309C1449.53 64.923 1460.58 71.19 1471.81 77.036C1482.75 82.731 1494.41 87.423 1504.58 94.466C1511.46 99.233 1517.79 106.626 1526.7 107.14C1527.27 107.177 1527.49 106.423 1526.83 106.386Z" fill="#A1A9AC"/>
<path d="M1444.81 62.329C1437.12 69.144 1430.48 76.749 1424.93 85.405C1422.15 89.749 1418.27 93.136 1415.37 97.382C1412.21 101.989 1410.04 107.503 1407.08 112.29C1406.82 112.702 1407.37 113.444 1407.7 112.913C1410.43 108.507 1413.08 104.028 1415.24 99.312C1417.32 94.79 1421.81 91.466 1424.68 87.446C1431.04 78.548 1437.07 70.433 1445.31 63.13C1445.66 62.816 1445.25 61.943 1444.81 62.329Z" fill="#A1A9AC"/>
<path d="M1408.59 111.337C1399.96 118.759 1393 125.886 1380.95 126.452C1375.52 126.708 1370.06 126.177 1364.63 126.034C1358.46 125.872 1353.89 125.583 1349.42 120.833C1343.39 114.415 1339.49 106.419 1332.66 100.702C1329.56 98.103 1325.91 96.848 1322.16 95.509C1316.4 93.448 1311.9 89.732 1306.36 87.345C1305.92 87.157 1305.18 87.741 1305.75 87.987C1310.77 90.15 1314.91 93.646 1320.07 95.612C1326.44 98.038 1331.42 100.21 1336.13 105.275C1341.73 111.296 1346.38 123.398 1354.93 125.894C1359.17 127.132 1363.67 126.743 1368.04 126.905C1374.12 127.134 1380.16 127.499 1386.23 126.765C1395.6 125.634 1402.65 117.528 1409.37 111.744C1409.84 111.341 1408.95 111.028 1408.59 111.337Z" fill="#A1A9AC"/>
<path d="M1289.57 92.48C1283.99 94.304 1279.6 97.806 1275.4 101.802C1269.53 107.405 1263.8 112.913 1256.8 117.138C1250.17 121.136 1242.65 124.023 1235.73 127.501C1227.87 131.444 1219.9 135.247 1212.18 139.452C1198.27 147.032 1184.36 155.743 1168.32 157.737C1160.07 158.763 1151.89 157.728 1143.6 159.083C1135.6 160.388 1127.65 162.138 1119.79 164.105C1119.32 164.22 1119.35 165.214 1119.87 165.085C1127.17 163.257 1134.53 161.716 1141.94 160.364C1150.26 158.843 1158.31 159.497 1166.65 158.851C1181.67 157.691 1195.22 149.931 1208.11 142.755C1222.47 134.763 1237.44 126.745 1252.58 120.343C1259.34 117.487 1265.1 112.616 1270.52 107.775C1276.59 102.337 1281.6 96.091 1289.65 93.46C1290.1 93.312 1290.07 92.316 1289.57 92.48Z" fill="#A1A9AC"/>
<path d="M1176.68 158.064C1183.75 157.095 1190.8 156.06 1197.79 154.648C1205.45 153.101 1212.86 150.669 1220.57 149.321C1227.75 148.062 1235.01 147.325 1242.18 145.997C1249.33 144.673 1256.13 142.214 1262.97 139.806C1270.19 137.263 1277.43 134.786 1284.91 133.13C1292.98 131.343 1302.04 132.853 1310.22 132.929C1318.08 132.999 1325.72 132.155 1333.61 132.823C1341.51 133.493 1349.35 134.884 1357.23 135.86C1371.77 137.663 1385.23 136.382 1399.14 131.743C1409.41 128.316 1418.49 124.972 1424.23 115.368C1431.97 102.427 1445.63 93.099 1459.94 88.511C1465.25 86.806 1471.62 86.532 1476.34 83.378C1479.14 81.501 1481.24 79.216 1484.35 77.687C1486.69 76.54 1488.75 75.419 1490.56 73.523C1490.99 73.075 1490.08 72.825 1489.75 73.169C1487.3 75.734 1484.18 76.499 1481.35 78.394C1477.85 80.741 1475.65 83.337 1471.42 84.696C1465.39 86.628 1459.24 87.685 1453.37 90.136C1443.14 94.407 1431.68 101.935 1425.61 111.339C1421.78 117.275 1419.16 122.15 1412.67 125.624C1406.79 128.767 1399.96 130.808 1393.62 132.712C1377.29 137.618 1361.44 135.708 1344.89 133.39C1338.16 132.452 1331.44 131.708 1324.64 131.583C1317.44 131.452 1310.31 132.249 1303.09 131.989C1296.44 131.751 1289.61 131.327 1283.06 132.775C1276.65 134.195 1270.41 136.413 1264.22 138.577C1256.88 141.142 1249.65 143.736 1242.01 145.269C1234.87 146.704 1227.59 147.417 1220.4 148.593C1213.25 149.765 1206.38 151.982 1199.32 153.562C1191.8 155.245 1184.14 156.292 1176.51 157.337C1175.89 157.419 1176.08 158.148 1176.68 158.064Z" fill="#A1A9AC"/>
<path d="M1524.96 107.208C1530.44 109.77 1536.36 111.056 1542.26 112.259C1549.39 113.712 1556.5 115.88 1563.43 118.083C1577.74 122.632 1591.29 129.192 1605.72 133.485C1620.45 137.87 1635.77 138.978 1651 140.448C1666.96 141.987 1682.49 145.107 1698.32 147.384C1703.71 148.159 1709.43 148.806 1714.53 146.464C1717.04 145.31 1719.44 143.958 1721.94 142.784C1726.41 140.685 1731.68 140.573 1736.52 140.097C1752.2 138.564 1768.05 138.884 1783.71 140.448C1787.68 140.844 1792.78 145.437 1796.56 142.995C1798.69 141.62 1798.63 137.417 1798.84 135.298C1799.58 127.724 1804.74 124.456 1810.24 120.2C1815.82 115.876 1820.8 110.653 1825.61 105.503C1833.64 96.903 1840.85 87.565 1848.13 78.339C1851.78 73.718 1855.42 69.073 1859.21 64.564C1863.19 59.816 1868.15 55.986 1872.37 51.46C1875.78 47.802 1877.31 43.978 1879.43 39.501C1880.22 37.831 1880.7 35.989 1881.3 34.247C1883.05 29.107 1885.8 26.357 1890.94 24.628C1901.26 21.15 1912.14 17.136 1921.61 11.661C1922.05 11.405 1921.97 10.538 1921.41 10.866C1915.07 14.532 1908.19 17.001 1901.42 19.714C1898.4 20.921 1895.48 22.362 1892.37 23.308C1890.21 23.962 1887.41 24.628 1885.61 26.107C1882.16 28.931 1880.95 32.839 1879.56 36.945C1878.5 40.099 1877.03 43.257 1875.54 46.243C1873.48 50.396 1869.15 53.652 1865.82 56.798C1844.74 76.722 1831.17 103.529 1807.65 121.21C1804.28 123.741 1801.14 126.106 1799.24 129.947C1798.26 131.925 1798.2 134.138 1797.87 136.269C1797.77 136.941 1797.72 137.646 1797.66 138.32C1797.21 142.669 1793.03 142.687 1789.95 141.224C1784.21 138.493 1777.07 138.866 1770.83 138.523C1762.62 138.077 1754.39 138.124 1746.18 138.507C1739.42 138.823 1732.53 139.302 1725.88 140.552C1719.41 141.767 1714.6 146.812 1707.8 147.161C1699.8 147.571 1691.53 145.331 1683.74 143.81C1676.17 142.335 1668.51 141.351 1660.85 140.507C1648.62 139.159 1636.34 138.239 1624.14 136.585C1611.47 134.868 1599.25 130.671 1587.34 126.148C1576.85 122.165 1566.61 117.837 1555.79 114.782C1545.79 111.956 1534.85 110.745 1525.39 106.321C1524.96 106.122 1524.47 106.978 1524.96 107.208Z" fill="#A1A9AC"/>
<path d="M1924.33 386.308C1923.09 380.571 1920.18 375.691 1916.9 370.89C1912.42 364.327 1907.96 358.267 1904.47 351.068C1897.72 337.124 1890.52 323.304 1884.2 309.163C1881.23 302.515 1878.81 295.646 1877.28 288.521C1875.6 280.642 1876.77 272.894 1876.11 264.937C1875.5 257.661 1873.05 250.712 1872.27 243.48C1871.4 235.484 1871.39 227.4 1871.07 219.372C1870.78 211.837 1869.81 204.376 1869.6 196.839C1869.36 188.454 1869.58 180.06 1869.75 171.677C1869.9 164.124 1869.89 156.573 1870.17 149.023C1870.41 142.534 1871.2 135.044 1868.27 129.025C1866.41 125.212 1862.13 122.859 1858.89 120.407C1852.65 115.681 1848.39 108.392 1845.01 101.48C1840.01 91.284 1836.09 80.861 1832.86 70.011C1830.54 62.193 1826.51 54.958 1817.4 55.091C1811.1 55.183 1805.14 56.937 1799.08 58.487C1790.88 60.581 1782.56 62.167 1774.17 63.249C1758.01 65.335 1741.96 67.72 1725.88 70.37C1710.28 72.941 1694.57 75.618 1678.75 76.266C1663.26 76.901 1647.73 76.033 1632.23 75.988C1617.29 75.947 1602.71 74.238 1588.41 69.791C1575.84 65.879 1563.26 60.631 1551.2 55.348C1544.85 52.565 1538.64 49.424 1533.55 44.655C1529.82 41.166 1526.3 37.895 1521.57 35.819C1515.82 33.295 1509.07 32.507 1502.97 31.25C1494.28 29.457 1487.1 24.547 1479.64 20.016C1466.91 12.293 1454.27 4.45299 1440.87 -2.06201C1427.9 -8.36501 1415.45 -9.83801 1401.19 -8.51501C1393.92 -7.83801 1386.71 -6.74401 1379.43 -6.27101C1371.89 -5.78301 1364.53 -5.87501 1357.05 -4.58601C1330.67 -0.0410061 1308.55 16 1286.01 29.324C1273.66 36.629 1260.46 43.112 1245.86 43.787C1230.58 44.492 1215.23 41.627 1200.13 39.703C1182.76 37.492 1165.96 32.168 1148.47 30.518C1147.82 30.456 1147.91 31.233 1148.48 31.289C1163.65 32.721 1178.35 36.658 1193.27 39.535C1207.6 42.299 1222.83 43.893 1237.41 44.537C1264.53 45.729 1286 30.559 1308.15 16.963C1320.18 9.56899 1332.76 3.02499 1346.29 -1.14601C1360.84 -5.62901 1375.67 -4.80401 1390.61 -6.50401C1397.82 -7.32401 1405 -8.25001 1412.27 -8.34901C1422.34 -8.48401 1431.37 -5.74501 1440.37 -1.46501C1453.81 4.92399 1466.45 12.889 1479.14 20.612C1484.65 23.961 1490.13 27.782 1496.14 30.145C1502.65 32.705 1510.26 33.696 1517.04 35.26C1524.12 36.897 1528.75 41.262 1533.88 46.065C1537.94 49.86 1543.06 52.424 1548.07 54.744C1571.96 65.809 1597.12 75.323 1623.62 76.567C1638.31 77.258 1653.16 77.207 1667.88 77.239C1683.59 77.272 1698.91 75.358 1714.42 73.02C1730.72 70.563 1746.92 67.518 1763.26 65.291C1777.82 63.307 1791.81 61.166 1806.08 57.549C1813.94 55.557 1823.15 53.985 1828.35 61.629C1831.41 66.127 1832.47 72.026 1833.93 77.176C1835.37 82.233 1837.68 86.895 1839.73 91.721C1842.16 97.451 1844.62 103.133 1847.79 108.498C1850.77 113.528 1854.63 118.153 1859.3 121.686C1861.32 123.217 1863.4 124.631 1865.25 126.383C1868.91 129.856 1869.13 134.979 1869.32 139.684C1869.97 155.352 1868.64 171.264 1868.54 186.955C1868.43 202.682 1869.95 218.43 1870.64 234.143C1870.95 241.033 1871.9 247.403 1873.38 254.104C1875.19 262.321 1875.36 270.108 1875.18 278.453C1874.86 292.682 1881.91 306.889 1888.02 319.344C1891.27 325.977 1894.64 332.555 1897.83 339.221C1901.01 345.85 1903.78 352.945 1907.65 359.201C1913.16 368.125 1921.1 375.809 1923.39 386.385C1923.49 386.839 1924.45 386.876 1924.33 386.308Z" fill="#A1A9AC"/>
<path d="M1939.1 79.804C1926.95 80.857 1915.78 85.862 1903.99 88.581C1897.5 90.079 1890.99 91.421 1884.66 93.528C1878.76 95.495 1873.18 98.329 1867.35 100.499C1848.26 107.612 1834.38 125.294 1826.85 143.677C1824.18 150.198 1821.5 155.685 1813.7 155.267C1810.68 155.105 1807 154.423 1804.24 155.886C1803.73 156.157 1803.42 156.816 1803.14 157.284C1801.11 160.815 1798.51 162.249 1794.81 163.382C1791.26 164.468 1790.45 164.986 1787.76 167.553C1782.28 172.783 1782 171.097 1780.87 175.03C1779.23 180.735 1777.44 183.826 1775.12 189.257C1772.8 194.687 1773.54 200.629 1770.96 206.166C1770.68 206.761 1771.55 206.783 1771.77 206.316C1773.88 201.783 1774.52 197.357 1774.99 192.41C1775.47 187.306 1778.92 184.389 1780.43 179.5C1783.14 170.721 1782.19 173.912 1789.11 167.3C1794.61 162.042 1800.66 164.92 1803.95 157.436C1805.31 154.352 1814.36 156.387 1817.28 156.086C1820.08 155.797 1822.12 153.801 1823.83 151.746C1827.08 147.832 1828.28 141.941 1830.5 137.41C1833.08 132.152 1836.19 126.938 1839.78 122.311C1843.22 117.877 1847.74 114.412 1851.89 110.674C1856.57 106.449 1861.42 103.397 1867.4 101.32C1872.74 99.466 1877.83 96.949 1883.1 94.93C1888.7 92.785 1894.64 91.49 1900.48 90.193C1913.34 87.339 1925.73 81.811 1938.92 80.67C1939.4 80.628 1939.72 79.749 1939.1 79.804Z" fill="#A1A9AC"/>
<path d="M1936.54 158.534C1933.95 164.97 1927.09 167.942 1922.43 172.687C1917.28 177.942 1913.08 184.028 1907.86 189.269C1902.65 194.503 1898.13 200.112 1893.25 205.632C1888.27 211.271 1882.71 216.36 1877.47 221.743C1876.08 223.181 1874.64 224.347 1872.83 225.284C1870.34 226.573 1868.73 223.292 1867.76 221.862C1866.64 220.208 1864.94 218.976 1863.4 217.757C1857.77 213.317 1851.32 210.04 1845.67 205.591C1840.48 201.499 1837.15 195.503 1831.99 191.425C1825.06 185.954 1820.48 181.343 1820.07 171.991C1819.75 164.825 1819.92 157.642 1819.59 150.462C1819.3 144.233 1819.65 137.868 1817.24 132.017C1815.65 128.163 1813.6 124.972 1813.11 120.663C1812.71 117.112 1813.07 113.483 1813.11 109.917C1813.18 103.706 1811.28 97.708 1808.92 92.04C1806.93 87.284 1805.37 83.233 1805.82 77.983C1806.18 73.78 1808.86 69.54 1811.07 66.026C1814.55 60.489 1821.58 62.337 1825.47 57.343C1828.01 54.079 1828.81 49.306 1829.7 45.38C1831.18 38.833 1832.56 32.263 1834 25.706C1834.4 23.864 1834.33 22.134 1834.33 20.251C1834.33 19.624 1833.59 19.696 1833.59 20.312C1833.59 27.255 1831.17 34.073 1829.88 40.872C1828.82 46.435 1827.85 53.892 1823.66 58.069C1821.39 60.327 1817.81 60.298 1814.92 61.265C1812.94 61.929 1811.65 63.759 1810.48 65.364C1807.12 69.96 1804.94 75.442 1804.94 81.13C1804.93 87.271 1808.69 92.921 1810.54 98.581C1813.12 106.499 1811.65 114.435 1812.57 122.513C1813.27 128.737 1817.87 133.468 1818.33 139.954C1818.88 147.591 1819.42 155.384 1819.42 163.034C1819.42 168.603 1818.33 175.146 1820.72 180.388C1822.88 185.138 1826.57 188.323 1830.61 191.48C1835.74 195.495 1839.2 201.128 1844.1 205.38C1849.54 210.108 1855.85 213.571 1861.75 217.665C1864.7 219.71 1866.89 222.054 1868.87 225.011C1869.43 225.851 1870.05 226.267 1870.98 226.589C1874.77 227.905 1880.26 220.093 1882.35 218.044C1887.51 213.003 1892.59 207.931 1897.2 202.364C1902.31 196.185 1907.95 190.683 1913.41 184.825C1917.85 180.054 1921.37 174.618 1926.3 170.28C1930.48 166.599 1935.04 164.401 1937.23 158.983C1937.43 158.503 1936.79 157.929 1936.54 158.534Z" fill="#A1A9AC"/>
<path d="M1823.35 34.04C1829.54 33.579 1835.72 35.14 1841.87 34.267C1844.35 33.913 1846.74 33.118 1849.24 32.792C1854.08 32.163 1857.09 36.192 1859.74 39.526C1861.44 41.685 1863.34 42.882 1865.4 44.706C1867.8 46.819 1869.55 49.704 1871.38 52.294C1875.22 57.759 1878.55 63.558 1882.5 68.952C1882.84 69.413 1883.32 68.554 1883.04 68.179C1878.73 62.296 1875.06 55.987 1870.86 50.026C1866.96 44.489 1861.81 40.23 1857.32 35.204C1853.8 31.265 1849.65 31.517 1844.89 32.624C1837.68 34.3 1830.61 32.515 1823.34 33.058C1822.87 33.091 1822.82 34.079 1823.35 34.04Z" fill="#A1A9AC"/>
<path d="M1867.61 65.673C1862.67 74.22 1857.19 81.999 1849.34 88.083C1843.65 92.493 1839.18 98.192 1835.12 104.083C1829.59 112.097 1824.52 119.28 1816.84 125.448C1810.28 130.719 1804.76 137.181 1797.74 141.894C1797.34 142.165 1797.51 143.079 1798.03 142.73C1805.48 137.724 1811.43 130.855 1818.42 125.249C1824.64 120.247 1829.68 114.044 1833.95 107.331C1839.42 98.716 1845.7 92.612 1853.32 85.997C1859.56 80.585 1864.13 73.226 1868.22 66.149C1868.5 65.657 1867.94 65.105 1867.61 65.673Z" fill="#A1A9AC"/>
<path d="M1797.39 142.298C1797.34 145.903 1796.74 150.519 1799.07 153.63C1800.27 155.228 1801.65 156.278 1803.28 157.444C1806.78 159.939 1807.48 164.966 1808.33 168.825C1811.01 180.946 1812.08 193.317 1814.9 205.433C1815.01 205.899 1816 205.974 1815.88 205.464C1813.18 193.829 1811.86 182.034 1809.62 170.329C1808.83 166.253 1808.07 161.058 1805.15 157.944C1802.98 155.634 1800.98 155.269 1799.26 152.128C1797.75 149.364 1798.33 145.341 1798.37 142.327C1798.38 141.855 1797.4 141.759 1797.39 142.298Z" fill="#A1A9AC"/>
<path d="M1793.38 163.643C1791.45 156.735 1787.72 150.561 1784.89 144.012C1783.81 141.518 1782.13 139.311 1780.72 137.006C1778.16 132.84 1777.71 128.1 1777.31 123.332C1776.69 116.094 1774.46 108.991 1772.56 102.006C1770.42 94.176 1770.39 85.912 1767.91 78.223C1767.75 77.711 1766.87 78.18 1767.02 78.635C1769.31 85.766 1769.14 93.426 1771.18 100.666C1773.63 109.411 1775.83 118.041 1776.71 127.094C1777.3 133.108 1779.77 137.289 1782.87 142.28C1786.83 148.655 1790.47 156.829 1792.48 164.055C1792.63 164.569 1793.51 164.104 1793.38 163.643Z" fill="#A1A9AC"/>
<path d="M1810.1 94.07C1806.62 94.635 1803.71 96.227 1800.61 97.846C1795.54 100.496 1790.46 100.397 1784.91 100.455C1780.14 100.508 1775.52 102.045 1770.89 103.037C1765.43 104.205 1759.92 105.061 1754.39 105.742C1753.91 105.801 1753.83 106.791 1754.37 106.725C1759.3 106.119 1764.2 105.34 1769.08 104.385C1774.36 103.356 1779.5 101.66 1784.88 101.438C1788.79 101.279 1792.98 101.834 1796.74 100.498C1801.3 98.877 1805.22 95.844 1810.07 95.053C1810.55 94.978 1810.62 93.986 1810.1 94.07Z" fill="#A1A9AC"/>
<path d="M1774.65 113.204C1769.24 113.478 1764.23 115.56 1758.89 116.298C1752.86 117.132 1746.25 116.388 1740.16 116.388C1739.69 116.388 1739.36 117.304 1739.94 117.304C1745.6 117.304 1751.26 117.304 1756.92 117.304C1762.9 117.304 1768.46 114.425 1774.43 114.12C1774.9 114.097 1775.22 113.175 1774.65 113.204Z" fill="#A1A9AC"/>
<path d="M1774.1 109.263C1778.12 109.228 1781.99 108.605 1785.89 107.646C1786.53 107.491 1785.96 106.825 1785.47 106.946C1781.64 107.884 1777.86 108.48 1773.92 108.513C1773.26 108.519 1773.54 109.267 1774.1 109.263Z" fill="#A1A9AC"/>
<path d="M1827.22 -13.055C1827.06 -5.867 1824.91 0.105995 1819.11 4.584C1815.93 7.035 1813.01 9.07 1810.86 12.565C1808.08 17.094 1806.1 22.529 1804.44 27.545C1802.66 32.949 1802.38 38.668 1800.19 43.981C1799.97 44.51 1800.63 44.94 1800.88 44.336C1805.69 32.656 1805.12 17.883 1815.12 8.68C1818.76 5.328 1822.67 3.397 1825.3 -0.982004C1827.46 -4.566 1827.88 -9.158 1827.97 -13.228C1827.98 -13.886 1827.23 -13.612 1827.22 -13.055Z" fill="#A1A9AC"/>
<path d="M1823.33 33.163C1814.66 33.163 1806 33.163 1797.33 33.163C1796.68 33.163 1796.8 33.933 1797.37 33.933C1806.04 33.933 1814.7 33.933 1823.37 33.933C1824.02 33.933 1823.9 33.163 1823.33 33.163Z" fill="#A1A9AC"/>
<path d="M1834.46 21.368C1834.78 6.765 1842.23 -6.007 1847.17 -19.386C1847.36 -19.89 1846.38 -20.081 1846.22 -19.632C1841.25 -6.19 1833.78 6.651 1833.46 21.319C1833.45 21.821 1834.45 21.868 1834.46 21.368Z" fill="#A1A9AC"/>
<path d="M1874.07 255.474C1869.03 249.073 1867.89 241.093 1867.49 233.179C1867.09 225.107 1867.21 216.97 1866.96 208.886C1866.38 190.702 1867.09 172.499 1866.69 154.314C1866.5 146.07 1865.63 137.411 1870.89 130.402C1876.2 123.333 1886.01 121.131 1893.91 118.427C1901.74 115.747 1908.48 110.743 1916.44 108.421C1921.2 107.032 1926.53 105.851 1929.72 101.747C1930.07 101.302 1929.61 100.651 1929.21 101.171C1924.66 107.021 1915.16 107.331 1908.77 110.462C1904.72 112.448 1900.84 114.73 1896.67 116.474C1892.38 118.265 1887.85 119.433 1883.51 121.069C1877.18 123.45 1871.27 127.372 1868.07 133.464C1864.78 139.735 1865.67 147.657 1865.88 154.454C1866.47 173.95 1865.56 193.474 1866.28 212.975C1866.8 226.996 1864.14 244.432 1873.43 256.231C1873.76 256.646 1874.37 255.851 1874.07 255.474Z" fill="#A1A9AC"/>
<path d="M1815.3 189.002C1810.92 189.33 1809.95 192.51 1810 196.485C1810.11 204.694 1811.11 212.928 1811.2 221.17C1811.2 221.672 1812.2 221.737 1812.19 221.244C1812.13 215.063 1812.03 208.76 1811.57 202.598C1811.25 198.332 1809.02 190.229 1815.51 189.742C1816.17 189.694 1815.86 188.961 1815.3 189.002Z" fill="#A1A9AC"/>
<path d="M1845.03 204.499C1850 192.091 1851.37 178.78 1854.21 165.814C1857.15 152.405 1862.8 139.618 1864.17 125.878C1864.22 125.341 1863.23 125.374 1863.18 125.849C1861.87 139.011 1856.55 151.237 1853.63 164.048C1850.57 177.489 1849.28 191.39 1844.12 204.276C1843.9 204.818 1844.86 204.937 1845.03 204.499Z" fill="#A1A9AC"/>
<path d="M1855 160.611C1846.79 155.547 1838.77 149.867 1832.95 142.049C1829.11 136.902 1827.99 131.043 1827.47 124.775C1826.97 118.846 1825.75 113.164 1824.91 107.287C1824.84 106.789 1823.84 106.818 1823.91 107.305C1824.84 113.756 1826.06 120.027 1826.61 126.535C1827.01 131.264 1827.99 135.988 1830.54 140.07C1836.24 149.213 1845.28 155.591 1854.3 161.154C1854.71 161.402 1855.53 160.935 1855 160.611Z" fill="#A1A9AC"/>
<path d="M1860.2 145.091C1854.38 138.929 1847.72 133.513 1843.9 125.775C1841.64 121.208 1840.72 115.753 1839.17 110.907C1837.68 106.277 1835.86 101.796 1833.74 97.427C1833.47 96.87 1832.92 97.638 1833.13 98.066C1837.57 107.222 1839.32 117.153 1843.29 126.417C1846.65 134.269 1854.01 139.857 1859.72 145.905C1860.12 146.32 1860.52 145.431 1860.2 145.091Z" fill="#A1A9AC"/>
<path d="M1881.31 95.277C1883.61 113.783 1890.58 132.096 1889.7 150.943C1889.54 154.547 1890.42 158.356 1894.97 158.109C1899.18 157.88 1902.48 157.897 1906.59 158.928C1910.81 159.99 1915.44 159.756 1919.77 159.76C1920.24 159.76 1920.57 158.82 1920.05 158.82C1916.7 158.815 1913.35 158.766 1910 158.486C1906.74 158.209 1903.7 156.902 1900.42 156.697C1897.26 156.498 1894.19 158.063 1891.34 155.715C1889.76 154.42 1890.44 146.52 1890.25 144.328C1888.86 127.561 1884.18 111.557 1882.11 94.91C1882.04 94.29 1881.25 94.8 1881.31 95.277Z" fill="#A1A9AC"/>
<path d="M1889.45 322.853C1883.79 327.814 1880.04 334.218 1875.12 339.832C1871.37 344.115 1870.12 349.908 1868.82 355.287C1865.24 370.008 1858.72 382.58 1848.06 393.418C1847.72 393.762 1848.07 394.625 1848.51 394.18C1857.31 385.232 1863.63 375.027 1867.47 363.068C1869.63 356.338 1870.4 349.117 1873.89 342.877C1875.71 339.633 1878.73 336.818 1880.95 333.797C1883.67 330.092 1886.43 326.654 1889.9 323.617C1890.26 323.292 1889.92 322.441 1889.45 322.853Z" fill="#A1A9AC"/>
<path d="M1864.78 370.493C1860.61 370.255 1857.98 366.085 1854.27 364.667C1853.8 364.491 1853.51 365.446 1853.98 365.626C1857.81 367.087 1860.38 371.228 1864.7 371.474C1865.17 371.501 1865.32 370.523 1864.78 370.493Z" fill="#A1A9AC"/>
<path d="M1869.83 354.448C1874.67 355.757 1878.03 359.46 1882.14 362.12C1886.24 364.784 1890.67 366.491 1894.48 369.669C1902.8 376.603 1911.44 383.341 1917.42 392.528C1917.71 392.976 1918.42 392.284 1918.16 391.882C1912.47 383.13 1904.41 376.521 1896.34 370.054C1891.97 366.55 1887.64 364.028 1882.74 361.325C1878.33 358.888 1875.27 354.917 1870.26 353.56C1869.79 353.437 1869.31 354.31 1869.83 354.448Z" fill="#A1A9AC"/>
</g>
</svg>
