<svg width="1380" height="567" viewBox="0 0 1380 567" fill="none" xmlns="http://www.w3.org/2000/svg">
<path d="M96.399 0C96.074 3.248 96.622 6.723 96.65 9.886C96.656 10.541 97.449 10.191 97.445 9.674C97.417 6.629 96.838 3.174 97.171 0H96.399Z" fill="#767168"/>
<path d="M296.629 2.136C306.299 7.17 315.317 13.308 324.759 18.746C335.513 24.939 346.496 30.725 357.235 36.945C375.238 47.371 391.819 62.366 412.874 65.946C413.368 66.031 413.624 65.064 413.136 64.982C392.234 61.427 375.532 46.505 357.683 36.068C347.505 30.115 337.076 24.603 326.818 18.789C316.798 13.109 307.271 6.631 297.078 1.259C296.274 0.835 295.466 0.418 294.659 0H292.461C293.853 0.706 295.245 1.415 296.629 2.136Z" fill="#767168"/>
<path d="M22.766 6.205C29.765 14.014 36.458 22.117 42.78 30.483C49.54 39.434 54.626 49.216 59.612 59.244C62.579 65.211 65.558 71.213 69.134 76.846C73.201 83.257 76.061 90.314 80.129 96.731C86.972 107.525 95.367 116.39 107.872 120.133C121.598 124.24 134.752 124.078 148.617 120.802C163.744 117.225 178.248 111.564 193.553 108.621C209.145 105.624 223.941 106.135 238.872 111.822C247.402 115.071 254.719 122.392 261.258 128.506C275.965 142.253 289.566 157.361 300.43 174.336C307.815 185.873 315.301 197.527 322.33 209.276C327.383 217.718 331.492 226.871 337.473 234.714C352.967 255.027 376.066 266.326 401.735 265.311C413.202 264.859 424.872 261.536 435.256 256.76C442.615 253.375 449.51 248.733 456.705 244.989C466.547 239.868 476.633 234.973 487.156 231.406C495.135 228.701 503.72 227.476 511.961 225.83C519.361 224.35 526.785 222.771 534.266 221.742C548.133 219.836 562.387 220.012 576.321 220.974C593.409 222.154 610.794 224.79 627.266 229.608C627.717 229.74 628.213 228.912 627.655 228.75C608.423 223.126 588.071 220.473 568.104 219.639C545.69 218.701 524.639 222.368 502.84 226.846C484.664 230.582 468.447 237.85 452.09 246.55C444.444 250.615 437.223 255.381 429.11 258.498C415.749 263.63 401.708 265.531 387.532 263.586C373.134 261.61 360.493 255.961 349.678 246.303C340.722 238.304 334.628 229.008 328.824 218.646C323.107 208.438 316.572 198.836 310.49 188.847C303.1 176.712 295.865 164.485 286.607 153.645C275.55 140.697 263.516 127.957 250.028 117.531C230.334 102.307 204.847 104.602 182.078 110.363C166.682 114.258 151.8 120.373 135.948 122.27C120.88 124.075 103.303 120.277 91.903 109.961C81.011 100.109 75.399 85.579 68.066 73.178C61.25 61.651 56.371 49.074 49.162 37.764C40.587 24.316 29.806 11.622 18.578 0H16.963C18.934 2.028 20.872 4.093 22.766 6.205Z" fill="#767168"/>
<path d="M1338.57 521.692C1335.8 518.626 1332.53 515.538 1329.29 512.977C1325.96 510.354 1321.85 509.643 1318.68 506.579C1318.24 506.145 1317.97 507.048 1318.31 507.378C1321.03 510.003 1324.24 511.403 1327.65 512.94C1331.56 514.698 1335.17 519.522 1338.2 522.493C1344.27 528.434 1348.96 536.505 1356.16 541.243C1364.04 546.427 1371.19 552.811 1378.08 559.253C1378.71 559.837 1379.35 560.435 1380 561.038V559.893C1379.06 559.021 1378.14 558.16 1377.25 557.329C1371.17 551.645 1364.75 545.597 1357.68 541.194C1350.11 536.491 1344.47 528.208 1338.57 521.692Z" fill="#767168"/>
<path d="M10.582 8.943C7.90497 5.904 5.08201 2.89 2.14301 0H0.744995C4.267 3.437 7.61903 7.08 10.814 10.707C12.73 12.88 14.918 15.125 17.502 16.504C19.558 17.6 21.502 18.083 23.522 18.404C25.28 20.479 27.019 22.568 28.743 24.664C34.155 31.242 39.72 37.969 44.12 45.287C50.665 56.176 56.313 67.512 62.028 78.85C64.966 84.677 68.35 90.308 71.423 96.079C74.556 101.967 78.251 107.577 82.632 112.609C90.774 121.965 101.85 126.695 113.754 128.424C112.408 134.267 111.068 140.112 109.767 145.965C108.425 152.008 106.304 158.518 106.072 164.738C106.054 165.24 107.034 165.426 107.052 164.939C107.271 159.091 109.243 152.992 110.495 147.308C111.872 141.05 113.308 134.806 114.746 128.563C129.116 130.443 144.601 128.042 157.554 124.135C183.018 116.454 215.084 104.564 239.893 120.61C255.108 130.45 267.823 145.052 279.688 158.58C288.963 169.154 296.215 181.174 303.479 193.164C309.606 203.277 316.275 213.003 322.077 223.31C327.138 232.295 331.969 240.707 339.321 248.109C347.844 256.688 357.13 263.463 368.953 266.654C391.212 272.66 418.499 275.045 439.294 262.777C456.071 252.878 473.702 244.689 492.194 238.505C521.079 228.842 551.128 226.203 581.385 228.805C596.959 230.143 612.817 232.56 627.854 236.956C628.413 237.119 628.463 236.158 628.01 236.027C582.387 222.687 532.049 223.492 487.25 239.142C470.082 245.14 453.76 253.103 438.117 262.331C427.658 268.501 413.652 270.329 401.771 270.61C388.019 270.935 372.165 267.831 359.607 262.309C347.814 257.124 337.552 246.463 330.293 236.061C324.797 228.186 320.998 219.139 315.801 211.053C302.694 190.662 290.933 169.6 274.529 151.606C268.157 144.62 261.553 137.833 254.61 131.415C248.446 125.717 241.718 119.639 233.893 116.325C206.975 104.928 178.112 117.516 152.044 124.683C139.569 128.113 127.452 128.84 115.078 127.115C115.207 126.552 115.336 125.989 115.466 125.426C127.089 127.419 139.026 125.929 150.592 123.461C174.538 118.352 199.847 103.855 224.825 111.39C225.278 111.527 225.649 110.611 225.134 110.454C204.135 104.121 181.657 113.731 161.767 119.646C150.636 122.956 139.112 125.251 127.472 125.465C112.529 125.738 99.533 120.315 88.408 110.529C78.224 101.574 71.915 88.5 65.898 76.566C61.107 67.062 56.223 57.603 51.422 48.103C46.573 38.507 39.306 30.183 32.489 21.927C26.377 14.528 20.564 6.806 13.814 0H12.578C15.032 2.651 17.22 5.472 19.822 7.998C23.008 11.092 25.679 14.592 28.344 18.106C26.901 17.907 25.526 17.75 24.195 17.536C19.062 11.426 13.666 5.52 7.98999 0H6.65302C12.197 5.479 17.439 11.279 22.506 17.216C20.657 16.81 18.863 16.193 17.038 15.05C14.535 13.482 12.514 11.135 10.582 8.943ZM28.342 19.043C28.543 19.071 28.723 18.924 28.825 18.741C30.155 20.495 31.49 22.247 32.894 23.948C37.328 29.316 41.667 34.904 45.912 40.43C51.256 47.386 54.362 56.367 58.288 64.161C64.167 75.832 70.242 87.755 77.178 98.835C83.922 109.608 95.33 119.501 107.51 123.47C109.818 124.221 112.145 124.793 114.486 125.235C114.352 125.815 114.22 126.394 114.087 126.973C111.331 126.56 108.562 126.031 105.773 125.378C89.599 121.589 79.752 109.655 72.057 95.646C61.326 76.108 52.536 54.89 39.284 36.84C34.789 30.719 30.073 24.59 25.116 18.631C26.15 18.764 27.216 18.884 28.342 19.043Z" fill="#767168"/>
<path d="M66.232 2.06202C70.963 12.384 75.654 22.699 81.253 32.587C85.856 40.716 91.094 49.379 98.414 55.361C104.986 60.732 111.113 57.368 118.077 54.188C123.945 51.507 129.58 48.337 135.346 45.448C141.772 42.23 148.729 42.211 155.598 40.873C158.298 43.427 161.1 45.882 164.068 48.179C167.27 50.657 170.639 52.879 174.139 54.865C174.272 56.513 174.373 58.17 174.486 59.847C174.866 65.497 179.275 66.345 183.986 67.239C188.706 68.135 193.118 70.591 197.461 72.563C202.674 74.931 207.882 77.302 213.166 79.509C222.805 83.535 232.648 86.28 241.687 91.676C242.089 91.917 242.929 91.47 242.401 91.155C236.586 87.682 230.47 84.819 224.018 82.731C215.072 79.833 206.52 75.811 197.974 71.92C194.697 70.428 191.378 68.611 187.947 67.502C185.039 66.559 181.974 66.309 179.078 65.345C175.196 64.054 175.248 59.194 175.194 55.443C180.989 58.625 187.131 61.163 193.499 63.046C202.445 65.693 211.733 66.646 221.011 67.488C221.287 70.636 221.454 73.745 223.953 75.952C225.644 77.447 227.92 78.465 229.903 79.476C233.476 81.299 236.67 83.785 239.74 86.34C240.187 86.711 240.541 85.807 240.178 85.504C236.307 82.282 232.311 79.764 227.918 77.335C227.034 76.846 226.132 76.358 225.298 75.785C225.464 75.74 225.63 75.634 225.711 75.472C226.69 73.514 229.379 73.647 231.155 72.873C232.931 72.099 233.388 70.43 233.281 68.681C244.321 69.905 255.303 71.589 266.066 74.383C271.56 75.81 276.939 77.649 282.209 79.75C284.928 80.834 287.582 82.072 290.215 83.348C291.817 84.123 293.537 84.678 295.147 85.467C297.327 86.533 297.956 86.639 295.542 88.004C295.128 88.238 295.302 89.221 295.751 88.967C296.761 88.397 297.646 87.85 298.518 87.07C298.8 86.817 298.746 86.336 298.419 86.157C277.407 74.662 254.548 70.224 231.211 67.521C235.165 44.964 240.356 22.247 234.366 -0.000976562H233.344C235.823 8.77502 236.697 17.795 236.223 27.273C235.549 40.792 232.637 54.117 230.302 67.415C226.045 66.931 221.773 66.5 217.494 66.094C204.734 64.883 192.488 62.615 180.767 57.258C178.858 56.385 176.997 55.427 175.174 54.405C175.165 54.123 175.153 53.849 175.136 53.59C174.865 49.545 172.771 45.582 175.927 42.19C176.318 41.769 175.387 41.458 175.07 41.799C173.568 43.414 172.619 44.842 173.096 47.11C173.565 49.338 173.844 51.548 174.046 53.766C167.748 50.105 161.959 45.616 156.599 40.667C156.912 40.6 157.226 40.534 157.538 40.459C159.095 40.089 164.274 38.851 164.64 37.275C165.06 35.47 164.869 33.33 164.974 31.476C165.003 30.958 164.042 31.227 164.015 31.703C163.935 33.109 163.855 34.516 163.773 35.923C163.609 38.775 158.395 39.498 155.943 40.057C154.029 38.265 152.169 36.419 150.362 34.529C140.201 23.9 130.833 12.218 122.179 2.34375e-05H121.624C126.575 6.88202 131.715 13.628 137.031 20.23C142.685 27.25 148.508 34.073 154.972 40.272C148.649 41.624 142.256 41.312 136.275 44.16C130.539 46.892 124.994 50.019 119.275 52.793C114.086 55.311 107.655 59.379 101.947 56.584C93.303 52.354 87.437 41.214 82.824 33.324C77.595 24.38 73.27 14.978 68.946 5.57602C69.054 5.55602 69.154 5.51002 69.217 5.42202C70.537 3.61602 71.725 1.77602 72.914 2.34375e-05H71.639C70.611 1.64602 69.612 3.27202 68.561 4.73802C68.36 4.30102 68.16 3.86502 67.959 3.42902C67.435 2.29102 66.931 1.14002 66.412 -0.000976562H65.297C65.611 0.687023 65.918 1.37602 66.232 2.06202ZM231.295 68.461C231.653 68.499 232.011 68.542 232.37 68.581C232.516 69.831 232.507 71.125 231.36 71.893C230.596 72.405 229.573 72.547 228.702 72.766C227.074 73.176 225.677 73.817 224.895 75.377C224.876 75.415 224.874 75.442 224.865 75.475C224.252 75.014 223.686 74.495 223.211 73.876C221.946 72.227 221.922 69.609 221.772 67.559C224.953 67.846 228.132 68.125 231.295 68.461Z" fill="#767168"/>
<path d="M1353.55 501.353C1358.09 502.613 1362.21 506.216 1366.47 508.236C1370.8 510.286 1375.41 511.697 1380 513.157V512.165C1377.18 511.227 1374.35 510.336 1371.58 509.416C1366.67 507.785 1362.34 505.164 1357.89 502.58C1354.95 500.867 1351.94 499.862 1349.18 498.048C1349.24 497.987 1349.29 497.93 1349.36 497.867C1350.67 496.697 1351.41 495.373 1352.21 493.806C1352.48 493.294 1351.5 493.234 1351.28 493.65C1350.77 494.653 1349.18 495.867 1347.95 497.167C1347.68 496.953 1347.4 496.746 1347.13 496.508C1346.77 496.19 1345.9 496.537 1346.37 496.951C1346.72 497.261 1347.05 497.551 1347.37 497.832C1346.51 498.912 1346.04 500.035 1346.77 501.137C1347.45 502.182 1349.41 502.688 1350.46 503.155C1353.23 504.395 1355.9 506.104 1358.59 507.51C1365.19 510.949 1371.41 515.367 1377.14 520.072C1378.06 520.826 1379.03 521.51 1380 522.167V521.177C1374.98 517.615 1370.36 513.682 1365.12 510.379C1360.79 507.643 1356.21 505.44 1351.78 502.885C1350.47 502.133 1346.77 501.202 1348.53 498.777C1350 499.92 1351.46 500.776 1353.55 501.353Z" fill="#767168"/>
<path d="M176.738 25.649C183.845 33.982 191.049 42.256 199.66 49.084C208.66 56.219 219.61 59.979 230.865 61.666C231.363 61.74 231.578 60.764 231.087 60.689C219.758 58.99 209.236 55.148 200.068 48.187C190.98 41.289 183.596 32.276 176.234 23.644C169.626 15.896 163.179 8.493 157.727 0H156.648C162.385 9.337 169.625 17.31 176.738 25.649Z" fill="#767168"/>
<path d="M772.752 4.48691C779.904 6.81191 788.211 5.28291 794.023 10.6459C794.287 10.8899 794.568 11.1189 794.835 11.3599C794.857 11.4009 794.898 11.4359 794.956 11.4659C804.659 20.2059 816.267 27.4549 827.987 33.0559C834.546 36.1879 841.692 37.7349 848.173 40.9809C854.152 43.9789 859.386 48.3759 864.859 52.1749C870.152 55.8509 876.156 58.1229 881.541 61.6039C884.328 63.4049 886.355 66.4029 888.539 68.8549C890.719 71.3019 893.506 73.0949 896.184 74.9389C901.68 78.7259 906.93 83.4249 911.928 87.8479C918.071 93.2859 925.278 96.6719 928.297 104.864C930.42 110.624 932.043 119.389 930.113 125.346C929.066 128.573 925.634 129.524 923.775 132.024C922.023 134.378 921.709 136.737 921.13 139.583C919.321 148.491 919.175 156.395 922.634 164.922C925.448 171.86 930.068 178.278 936.956 181.577C941.185 183.6 945.601 185.346 949.946 187.096C953.68 188.599 959.192 190.883 963.276 190.724C967.698 190.552 972.133 188.019 976.403 186.834C980.841 185.602 985.403 183.178 990.037 182.43C989.816 183.329 989.534 184.19 989.163 184.992C989.108 185.109 989.106 185.233 989.136 185.345C988.052 185.579 986.975 185.861 985.894 186.106C985.261 186.252 985.544 186.977 986.105 186.848C988.283 186.352 990.474 185.655 992.722 185.602C992.868 185.598 992.981 185.551 993.064 185.485C992.799 199.975 994.25 214.297 995.849 228.95C996.888 238.461 997.74 247.973 998.628 257.5C999.329 265.028 999.567 272.37 996.599 279.472C995.919 281.1 995.066 282.631 994.105 284.101C975.73 263.746 956.901 243.792 938.414 223.539C931.478 215.945 924.541 208.357 917.885 200.521C912.5 194.181 906.834 188.08 901.627 181.591C897.35 176.259 893.109 170.85 888.566 165.739C886.648 163.583 884.406 161.714 882.433 159.602C879.787 156.764 880.038 154.049 879.447 150.618C879.228 149.35 878.287 148.026 877.935 146.751C877.796 146.241 876.937 146.743 877.062 147.204C877.441 148.583 878.003 149.766 878.574 151.071C879.08 152.225 878.627 154.44 878.797 155.799C878.99 157.37 880.721 159.124 881.66 160.234C886.08 165.463 891.049 170.172 895.414 175.505C901.568 183.023 907.791 190.405 914.164 197.739C920.877 205.465 927.602 213.153 934.496 220.724C953.877 242.014 973.523 263.061 992.947 284.311C993.142 284.523 993.338 284.737 993.531 284.952C991.834 287.399 989.849 289.677 987.84 291.915C986.677 290.929 985.567 289.841 984.463 288.907C984.092 288.593 983.311 289.075 983.789 289.479C984.729 290.275 985.881 291.586 987.14 292.692C985.799 294.179 984.465 295.658 983.213 297.166C982.328 296.438 981.441 295.719 980.541 295.028C980.162 294.739 979.48 295.454 979.908 295.784C983.469 298.52 986.894 301.429 990.457 304.165C991.941 305.306 993.342 306.528 994.875 307.61C995.261 307.882 996.045 308.149 996.392 308.562C996.34 308.811 996.287 309.06 996.258 309.321C996.246 309.426 996.27 309.499 996.304 309.558C996.278 309.59 996.256 309.621 996.225 309.655C995.483 310.444 994.856 311.247 994.202 312.112C993.807 312.633 994.514 312.971 994.858 312.514C995.645 311.475 997.42 310.159 997.758 308.883C997.842 308.566 997.665 308.273 997.389 308.008C997.996 305.86 999.453 304.011 1000.55 302.074C1001.74 299.961 1002.87 297.817 1004.05 295.695C1004.19 295.608 1004.3 295.413 1004.31 295.219C1004.76 294.416 1005.21 293.616 1005.68 292.823C1009.18 286.893 1015.04 282.796 1020.69 279.057C1031.85 271.678 1044.07 264.251 1053.6 254.784C1054.04 254.347 1053.54 253.79 1053.09 254.231C1043.96 263.306 1032.52 269.652 1021.97 276.969C1020.78 274.899 1019.77 272.696 1018.65 270.585C1023.05 267.523 1027.43 264.087 1032.08 261.753C1032.67 261.459 1032 260.906 1031.54 261.137C1026.94 263.447 1022.64 267.015 1018.3 269.891C1017.84 268.988 1017.41 268.067 1016.96 267.157C1016.51 266.248 1015.85 265.532 1015.4 264.627C1019.26 260.199 1022.74 255.385 1026.48 250.905C1031.44 244.954 1036.88 239.352 1042.12 233.647C1047.82 227.448 1053.18 220.51 1059.9 215.403C1062.44 213.469 1064.98 211.649 1067.41 209.68C1067.46 209.727 1067.5 209.774 1067.55 209.821C1067.51 209.912 1067.49 210.008 1067.52 210.102C1068.1 212.317 1070.3 213.747 1071.61 215.536C1074.72 219.752 1077.28 224.29 1080.57 228.397C1087 236.424 1093.4 244.506 1099.91 252.467C1105.99 259.901 1111.59 267.934 1118.38 274.737C1124.37 280.741 1131.49 285.218 1136.53 292.16C1136.53 292.166 1136.52 292.172 1136.53 292.179C1137.31 296.656 1141.32 299.939 1143.57 303.693C1143.82 304.111 1144.58 303.468 1144.32 303.037C1142.38 299.787 1138.96 296.837 1137.75 293.149C1137.96 292.99 1138.12 292.698 1137.97 292.471C1137.96 292.463 1137.95 292.455 1137.95 292.447C1141.01 288.825 1143.73 285.4 1147.72 282.696C1150.01 281.147 1151.87 278.991 1153.68 276.929C1154.05 276.503 1154.42 276.067 1154.79 275.634C1157.25 277.793 1159.81 279.844 1162.47 281.716C1167.38 285.177 1172.76 287.95 1177.96 290.935C1184.17 294.499 1189.63 298.658 1194.98 303.41C1200.3 308.142 1205.88 312.961 1210.04 318.787C1213.45 323.547 1214 329.711 1217.65 334.447C1221.8 339.843 1226.54 344.738 1230.68 350.156C1232.51 352.554 1234.31 354.982 1236.1 357.407C1234.36 358.938 1232.92 360.678 1232.4 363.279C1231.03 370.269 1235.45 374.555 1236.6 380.954C1236.52 381.023 1236.47 381.129 1236.53 381.281C1238.55 386.845 1239.69 392.633 1241.1 398.369C1241.7 400.834 1242.53 403.195 1243.51 405.489C1243.48 405.486 1243.45 405.477 1243.41 405.486C1236.97 406.996 1230.84 409.73 1224.36 411.334C1216.77 413.215 1209.16 414.582 1201.46 415.959C1195.17 417.084 1188.86 418.531 1183.05 421.258C1177.05 424.072 1171.77 428.278 1166.02 431.535C1159.29 435.346 1152.72 436.515 1145.24 434.482C1138.4 432.621 1131.78 431.302 1124.66 432.236C1117.75 433.146 1111.86 432.742 1105.61 436.257C1104.3 436.992 1103.02 437.786 1101.74 438.595C1101.43 438.224 1101.1 437.843 1100.76 437.445C1099.04 435.414 1102.57 433.59 1101.73 431.601C1101.15 430.229 1100.38 428.924 1099.54 427.648C1100.96 426.918 1102.41 426.254 1103.94 425.744C1104.43 425.578 1104.42 424.728 1103.8 424.935C1102.16 425.482 1100.62 426.203 1099.11 426.995C1098.39 425.915 1097.64 424.85 1096.95 423.78C1097.29 423.474 1097.6 423.154 1097.89 422.806C1098.82 421.65 1097.13 419.749 1096.61 418.929C1094.01 414.804 1092.23 410.363 1090.44 405.845C1088.47 400.902 1085.68 394.726 1085.65 389.4C1085.65 388.744 1084.85 389.039 1084.85 389.56C1084.88 395.724 1088.04 402.23 1090.28 407.884C1091.69 411.427 1093.14 414.89 1095.05 418.2C1095.97 419.802 1097.93 421.35 1096.48 423.012C1094.16 419.289 1092.24 415.346 1090.59 411.283C1089.46 408.496 1089.4 405.9 1087.44 403.508C1087.14 403.139 1086.23 403.541 1086.56 403.949C1088.42 406.217 1088.67 408.877 1089.62 411.541C1090.4 413.695 1091.48 415.992 1092.51 418.02C1093.2 419.374 1094.6 421.319 1096.02 423.451C1095.95 423.504 1095.9 423.555 1095.83 423.608C1093.91 425.004 1091.79 426.001 1089.67 427.044C1089.24 427.257 1089.27 428.19 1089.83 427.913C1091.99 426.848 1094.54 425.775 1096.49 424.173C1097.17 425.22 1097.84 426.3 1098.41 427.369C1095.12 429.158 1092 431.26 1088.55 432.774C1088.08 432.983 1088.09 433.848 1088.69 433.585C1092.21 432.038 1095.4 429.878 1098.76 428.064C1099.99 430.541 1100.6 432.9 1099.59 434.564C1098.54 436.293 1099.8 437.834 1100.97 439.085C1096.98 441.636 1093.04 444.291 1088.66 446.025C1087.9 445.102 1087.11 444.203 1086.28 443.328C1085.92 442.943 1085.39 443.783 1085.72 444.131C1086.45 444.914 1087.17 445.715 1087.87 446.523C1087.8 446.848 1088.06 447.327 1088.43 447.188C1092.1 451.493 1095.4 456.039 1099.45 460.112C1104.29 464.987 1108.66 470.13 1113.33 475.141C1117.45 479.573 1123.96 482.067 1129.05 485.188C1135.54 489.168 1142.14 493.006 1148.69 496.876C1154.42 500.255 1161 501.476 1167.44 502.714C1175.45 504.255 1183.48 505.599 1191.56 506.698C1196.65 507.391 1201.76 507.934 1206.88 508.287C1206.15 510.575 1205.44 512.873 1204.78 515.194C1204.62 515.753 1205.59 515.723 1205.72 515.27C1206.37 512.954 1207.13 510.652 1207.91 508.356C1217.77 508.984 1227.66 508.883 1237.5 507.702C1245.64 506.723 1253.72 505.626 1261.9 505.046C1269.34 504.523 1276.72 502.991 1284.16 503.155C1284.89 503.172 1285.61 503.2 1286.34 503.23C1286.1 503.723 1285.9 504.221 1285.78 504.739C1285.39 506.434 1285.15 508.108 1284.53 509.739C1284.33 510.268 1285.31 510.151 1285.47 509.719C1286.26 507.627 1286.98 505.451 1287.69 503.299C1300.63 504.021 1312.39 507.168 1323.72 514.061C1336.06 521.571 1343.27 533.686 1354.21 542.631C1359.84 547.231 1365.83 551.258 1370.91 556.5C1373.96 559.646 1376.98 562.844 1380 566.043V564.91C1379.43 564.383 1378.89 563.858 1378.39 563.328C1373.09 557.68 1368.19 552.16 1362.01 547.41C1356.47 543.15 1351.23 539.002 1346.59 533.742C1341.94 528.476 1337.43 523.256 1332 518.756C1322.51 510.883 1310.95 505.606 1298.87 503.256C1295.29 502.561 1291.69 502.229 1288.08 502.135C1288.21 501.746 1288.34 501.355 1288.47 500.969C1289.48 497.97 1289.82 494.822 1290.72 491.797C1296.05 493.732 1301.19 496.293 1306.52 498.233C1313.42 500.741 1319.42 504.174 1325.56 508.159C1331.37 511.923 1336.56 516.499 1341.06 521.743C1344.96 526.278 1348.35 531.932 1353.13 535.597C1356.03 537.827 1359.11 539.785 1361.94 542.118C1364.63 544.335 1366.89 547.032 1369.59 549.255C1373.02 552.081 1376.56 554.807 1380 557.651V556.377C1377.7 554.475 1375.37 552.62 1373.05 550.785C1367.73 546.564 1363.2 541.543 1357.59 537.678C1351.56 533.518 1347.58 527.971 1342.9 522.457C1339.04 517.904 1334.92 513.861 1330.16 510.246C1319.05 501.808 1306.62 497.439 1293.89 492.148C1292.91 491.741 1291.93 491.379 1290.95 491.042C1290.96 491.019 1290.96 490.994 1290.97 490.971C1291.12 490.53 1290.49 490.533 1290.18 490.79C1278.46 486.958 1266.54 487.722 1254.16 488.709C1249.98 489.042 1245.83 489.424 1241.68 489.804C1241.68 487.747 1241.72 485.711 1242.41 483.744C1242.63 483.125 1241.76 483.238 1241.59 483.721C1240.89 485.718 1240.82 487.791 1240.82 489.882C1231.68 490.719 1222.57 491.516 1213.34 491.756C1213.62 490.698 1213.88 489.637 1214.1 488.57C1215.37 482.554 1215.55 476.496 1223.66 476.73C1227.74 476.847 1231.63 476.527 1235.7 476.066C1239.53 475.632 1243.89 476.406 1247.62 475.087C1252.44 473.38 1256.73 470.321 1261.75 469.228C1264.99 468.527 1268.67 468.724 1271.62 466.96C1272.52 466.423 1273.29 465.789 1274.01 465.106C1279.42 466.705 1284.46 469.732 1289.76 471.662C1300.17 475.463 1310.84 480.113 1318.5 488.381C1318.89 488.805 1319.32 487.928 1319 487.582C1311.26 479.23 1300.58 474.639 1290.1 470.738C1285.03 468.853 1280.07 465.626 1274.87 464.25C1276.25 462.773 1277.47 461.135 1278.93 459.63C1283.34 461.059 1287.81 462.749 1292.27 463.615C1295.01 464.15 1297.75 464.351 1300.54 464.508C1301.31 464.552 1302.08 464.638 1302.84 464.744C1301.14 470.209 1301.27 471.091 1306.02 474.084C1312.55 478.211 1318.73 483.4 1325.05 487.906C1325.52 488.244 1325.84 487.33 1325.45 487.054C1320.88 483.79 1316.17 480.716 1311.7 477.304C1309.45 475.589 1307.35 473.822 1304.95 472.304C1301.99 470.435 1302.67 467.87 1303.6 464.874C1303.61 464.868 1303.6 464.862 1303.61 464.856C1305.58 465.164 1307.54 465.57 1309.53 465.776C1310.49 467.527 1312.66 467.64 1314.84 467.999C1320.67 468.956 1326.7 469.222 1332.44 470.651C1339.43 472.395 1345.87 474.938 1353.06 476.057C1359.38 477.039 1365.41 478.662 1371.65 479.952C1374.4 480.518 1377.2 480.643 1380 480.797V479.817C1378.87 479.755 1377.73 479.7 1376.61 479.617C1370.93 479.199 1365.61 477.23 1360.06 476.174C1354.28 475.076 1348.45 474.502 1342.75 473.006C1336.74 471.428 1331.36 469.061 1325.1 468.447C1320.64 468.008 1316.11 467.467 1311.74 466.379C1311.38 466.288 1311.1 466.068 1310.87 465.768C1311.08 465.571 1310.91 465.144 1310.5 465.101C1309.86 463.499 1310.02 460.875 1309.81 459.719C1309.31 456.967 1311.69 453.25 1312.53 450.657C1314.17 445.528 1316.07 440.573 1317.85 435.479C1318.72 432.975 1319.15 430.526 1319.66 427.94C1320.07 425.852 1322.24 424.979 1323.3 423.301C1323.33 423.264 1323.34 423.221 1323.35 423.179C1324.29 428.037 1327.29 432.021 1330.4 435.715C1334.46 440.529 1338.55 445.063 1341.95 450.401C1344.23 453.973 1344.15 456.624 1348.87 457.171C1359.5 458.404 1369.64 452.919 1380 450.412V449.32C1370.41 451.445 1361.21 456.008 1351.29 456.243C1344.67 456.401 1341.46 447.938 1337.99 443.294C1334.28 438.325 1329.61 434.233 1326.34 428.909C1322.47 422.585 1323.51 414.518 1322.59 407.462C1321.83 401.532 1319.18 395.857 1316.65 390.511C1314.46 385.867 1312.33 381.192 1310.21 376.51C1312.99 375.08 1315.62 373.454 1318.59 372.107C1320.08 371.433 1321.37 371.121 1322.55 370.025C1325.26 367.517 1328.59 371.884 1330.65 373.64C1340.29 381.843 1348.26 391.183 1358.95 398.148C1365.18 402.206 1372.4 407.857 1380 410.666V409.532C1376.97 408.293 1374.07 406.651 1371.51 405.072C1366.04 401.701 1360.59 398.176 1355.29 394.541C1349.87 390.826 1345.37 386.346 1340.76 381.709C1336.32 377.236 1331.29 373.389 1326.85 368.928C1325.02 367.084 1323.36 367.908 1321.93 369.571C1320.6 371.124 1317.35 371.714 1315.58 372.747C1313.68 373.848 1311.87 374.983 1309.97 375.962C1306.41 368.086 1302.9 360.19 1299.23 352.36C1296.27 346.03 1292.78 340.09 1290.54 333.434C1288.43 327.147 1287.3 320.477 1285.58 314.067C1282.63 303.085 1280.82 288.678 1272.78 280.087C1270.59 277.755 1267.96 275.854 1265.3 274.01C1268.6 271.271 1271.13 267.738 1274.58 265.143C1277 266.406 1279.28 267.86 1281.58 269.381C1284.73 271.457 1288.75 272.729 1291.53 275.293C1292.78 276.451 1295.08 277.715 1296.44 275.853C1297.89 273.86 1298.58 271.526 1299.76 269.383C1300.63 267.819 1301.8 266.446 1302.93 265.035C1304.84 266.071 1306.72 267.163 1308.34 268.824C1314.31 274.927 1322.02 278.949 1327.81 285.24C1332.72 290.584 1338.13 296.793 1344.12 300.929C1348.93 304.247 1355.54 305.476 1356.91 312.056C1357.83 316.484 1356.7 321.884 1356.2 326.347C1355.97 328.482 1354.99 331.993 1356.48 333.958C1357.16 334.856 1357.9 335.595 1358.72 336.372C1360.42 337.995 1360.27 339.956 1361.29 341.849C1363.05 345.105 1365.78 347.898 1368.24 350.642C1371.87 354.705 1375.9 358.413 1380 362.025V360.841C1376.64 357.828 1373.34 354.757 1370.2 351.505C1367.27 348.47 1363.1 344.534 1361.86 340.462C1361.05 337.786 1359.87 336.382 1357.92 334.415C1355.19 331.657 1357.65 322.468 1357.92 319.005C1358.12 316.232 1358.56 312.415 1357.28 309.821C1355.13 305.452 1350.62 303.663 1346.56 301.469C1339.74 297.787 1333.87 290.414 1328.58 284.83C1322.7 278.615 1314.98 274.637 1309.12 268.414C1307.44 266.63 1305.69 265.307 1303.49 264.3C1303.99 263.647 1304.47 262.978 1304.88 262.271C1305.47 262.479 1306.06 262.679 1306.62 262.877C1315.26 265.925 1322.11 272.191 1330.65 275.445C1339.03 278.641 1347.79 281.242 1356.7 282.443C1364.74 283.528 1372.36 285.273 1380 287.488V286.487C1374.28 284.776 1368.52 283.286 1362.56 282.318C1353.51 280.849 1344.92 279.369 1336.2 276.453C1327.23 273.457 1320.04 268.414 1311.82 263.969C1308.62 262.24 1304.98 261.485 1301.71 259.884C1297.57 257.859 1294.96 253.323 1292.18 249.785C1293.02 248.97 1293.98 248.151 1294.14 247.107C1294.4 245.383 1291.21 243.31 1289.95 242.32C1291.5 239.609 1294.01 237.955 1296.49 236.152C1298.47 234.713 1301.97 229.566 1304.57 229.799C1307.46 230.058 1311.56 232.736 1314.36 233.846C1318.28 235.396 1322.34 236.325 1326.32 237.665C1333.09 239.95 1339.94 241.798 1346.83 243.721C1349.39 244.435 1351.79 245.13 1354.46 245.163C1358.25 245.209 1361.62 241.382 1365.03 245.112C1365.45 245.571 1365.8 244.704 1365.47 244.348C1364.27 243.026 1363.39 242.41 1361.58 242.362C1360.35 242.329 1358.84 243.097 1357.72 243.467C1355.1 244.34 1352.7 244.289 1350.03 243.595C1341.54 241.397 1333.18 238.965 1324.88 236.169C1319.64 234.4 1314.47 232.938 1309.34 230.77C1307.47 229.977 1305.05 228.221 1302.95 229.028C1300.53 229.96 1298.14 233.712 1296.01 235.335C1293.52 237.237 1290.99 238.864 1289.39 241.596C1288.09 239.627 1286.65 237.756 1285.42 235.745C1283.07 231.928 1284.34 228.135 1286.25 224.647C1287.39 224.249 1288.56 224.013 1289.62 223.434C1291.32 222.513 1292.76 218.409 1293.53 217.506C1293.96 216.991 1294.37 216.469 1294.77 215.944C1303 216.784 1311.08 218.835 1319.24 220.229C1326.72 221.506 1333.95 221.7 1341.5 222.395C1342.15 222.454 1342.79 222.509 1343.43 222.565C1343.53 222.616 1343.66 222.624 1343.79 222.597C1346.69 222.846 1349.59 223.029 1352.51 222.883C1355.88 222.716 1359.26 221.119 1362.35 219.94C1362.79 219.772 1362.7 218.811 1362.16 219.017C1358.39 220.455 1354.81 221.786 1350.76 221.987C1348.62 222.092 1346.44 221.946 1344.27 221.733C1344.41 219.702 1345.1 217.589 1345.97 215.78C1346.22 215.266 1345.23 215.262 1345.03 215.681C1344.16 217.487 1343.47 219.598 1343.3 221.634C1341.57 221.451 1339.84 221.244 1338.14 221.104C1334.68 220.819 1331.21 220.895 1327.75 220.683C1323.9 220.448 1320.02 219.321 1316.21 218.719C1309.26 217.619 1302.48 215.67 1295.47 214.999C1298.44 210.913 1300.63 206.539 1302.96 201.926C1306.01 195.88 1310.27 190.843 1314.06 185.274C1315.67 182.899 1317.04 180.329 1318.08 177.655C1318.99 175.306 1318.54 173.481 1318.87 171.034C1318.88 170.975 1318.87 170.926 1318.87 170.876C1320.47 168.38 1322.08 165.888 1323.68 163.401C1331.64 151.067 1344.92 142.919 1357 134.993C1362.83 131.163 1368.51 127.11 1374.35 123.284C1376.31 121.996 1378.22 120.68 1380 119.232V118.02C1376.69 120.793 1372.87 123.01 1369.32 125.523C1362.17 130.586 1354.56 135.031 1347.58 140.332C1342.24 144.389 1336.52 147.894 1331.49 152.338C1326.03 157.158 1322.28 163.873 1318.54 170.022C1314.31 176.96 1309.84 183.745 1305.55 190.647C1300.93 198.099 1296.99 205.946 1292.41 213.409C1292.16 213.822 1291.88 214.245 1291.59 214.674C1289.42 214.493 1287.26 214.311 1285.06 214.321C1282.9 214.331 1280.7 214.693 1278.52 215.106C1281.23 210.169 1283.7 205.062 1286.35 200.09C1288.12 196.777 1289.29 193.241 1290.87 189.841C1292.16 187.061 1293.65 184.79 1294.16 181.722C1294.48 179.759 1293.91 177.476 1293.59 175.554C1293.02 172.245 1292.93 169.216 1291.5 166.12C1288.51 159.667 1282.5 152.562 1282.19 145.316C1284.82 141.604 1287.51 137.971 1289.69 133.881C1291.52 130.457 1295.47 128.772 1295.25 124.438C1295.09 121.265 1289.74 119.327 1287.6 118.084C1287.21 117.857 1286.87 117.583 1286.56 117.293C1290.36 114.047 1294.19 110.837 1298.19 107.881C1301.39 105.519 1302.84 101.809 1304.08 98.1849C1304.08 98.1749 1304.08 98.1659 1304.09 98.1559C1308.88 98.8929 1313.87 100.203 1318.61 99.8679C1318.84 99.8519 1319.1 99.6349 1319.12 99.3969C1319.52 95.0059 1321.94 90.6659 1322.99 86.3349C1324.04 82.0069 1324.92 77.6849 1325.52 73.2969C1327.78 73.3419 1330.04 73.4269 1332.31 73.6639C1337.58 74.2159 1342.74 76.2649 1347.97 77.2319C1350.27 77.6579 1352.6 78.0299 1354.83 78.7609C1357.48 79.6309 1358.33 82.7719 1360.04 84.6529C1360.8 85.4869 1362.13 85.8309 1363.12 86.2079C1366.12 87.3509 1368.54 89.5699 1370.84 91.7289C1374.14 94.8189 1376.81 97.5339 1380 99.3959V98.5509C1378.41 97.6819 1376.89 96.5799 1375.41 95.2059C1371.49 91.5679 1368.38 87.5189 1363.38 85.2569C1359.04 83.2969 1358.37 78.8869 1353.74 77.3679C1348.07 75.5109 1341.73 74.7399 1335.93 73.2809C1332.58 72.4409 1329.11 72.2669 1325.64 72.2309C1325.78 71.1179 1325.92 70.0039 1326.02 68.8809C1327.12 56.8339 1328.44 44.9499 1330.11 32.9589C1330.87 27.5069 1331.14 21.9489 1332.33 16.5699C1333.56 10.9899 1335.06 5.67891 1335.83 0.00390625H1335.03C1334.61 2.82991 1334.12 5.64491 1333.53 8.44091C1333.1 10.4989 1332.67 12.5189 1332.25 14.5289C1332.21 14.5179 1332.16 14.5059 1332.11 14.5059C1320.72 14.5059 1309.34 15.1249 1298.11 13.1479C1290.3 11.7729 1291.09 18.0599 1291.75 24.1689C1292.26 28.8859 1293.62 33.3029 1293.62 38.0899C1293.61 43.9559 1292.99 49.7099 1292.56 55.5499C1292.12 61.3959 1291.68 67.2889 1291.32 73.1869C1290.33 73.8079 1289.48 74.5749 1288.74 75.4789C1285.85 71.8429 1283.23 68.0049 1280.17 64.5069C1277.3 61.2279 1273.45 58.9789 1269.64 56.9779C1262.4 53.1839 1253.38 50.3679 1245.11 51.5529C1244.64 51.6189 1244.29 52.4989 1244.9 52.4109C1253.09 51.2359 1261.83 54.1629 1269.02 57.7439C1276.04 61.2389 1280.42 66.5069 1284.95 72.2769C1284.93 72.2919 1284.92 72.3019 1284.9 72.3189C1283.18 74.5189 1281.72 76.9069 1280.44 79.4079C1272.31 73.3759 1260.94 70.9339 1251.4 69.6059C1247.71 69.0929 1244.94 66.9759 1241.46 65.9439C1239.07 65.2369 1236.32 65.3679 1233.86 65.4059C1232.31 65.4299 1230.76 65.5939 1229.22 65.8119C1229.23 65.7579 1229.24 65.6959 1229.24 65.6229C1229.19 62.6219 1228.55 59.6749 1228.5 56.6749C1228.48 56.0619 1227.74 55.9879 1227.75 56.6159C1227.8 59.6169 1228.44 62.5639 1228.49 65.5639C1228.5 65.7059 1228.54 65.8159 1228.6 65.8979C1223.27 66.6969 1217.95 68.0559 1212.67 66.7389C1212.08 66.5909 1211.5 66.3999 1210.94 66.1919C1210.88 66.1429 1210.82 66.1189 1210.75 66.1179C1204.97 63.8879 1200.95 58.7599 1195.47 56.0109C1189.21 52.8669 1183.32 49.1739 1177.13 45.9219C1174.21 44.3879 1171.11 43.5739 1167.92 42.8289C1165.16 42.1839 1162.74 40.4749 1160.2 39.2969C1157.43 38.0139 1154.2 37.6859 1151.32 36.7159C1149.99 36.2699 1148.7 35.6039 1147.45 34.8359C1148.17 33.4099 1148.92 32.0129 1149.86 30.7199C1150.24 30.2159 1149.34 29.9859 1149.05 30.3759C1148.13 31.6279 1147.39 32.9759 1146.69 34.3539C1144.52 32.9359 1142.47 31.2359 1140.55 29.7539C1136.28 26.4529 1131.99 22.6129 1126.73 21.0209C1126.15 20.8459 1125.56 20.7329 1124.96 20.6619C1125.18 20.5669 1125.41 20.2989 1125.4 20.0399C1125.03 13.2599 1121.57 7.06991 1117.54 1.76391C1117.05 1.12091 1116.51 0.538906 1115.93 0.00390625H1114.64C1120.37 4.27591 1124.26 14.0639 1124.6 20.4229C1124.61 20.5219 1124.64 20.5819 1124.68 20.6269C1120.06 20.1979 1114.99 22.5359 1110.95 24.0759C1101.89 27.5289 1093.5 31.0799 1085.49 35.8609C1084.29 34.3149 1083.09 32.7819 1081.85 31.2709C1081.84 30.9719 1081.63 30.6769 1081.41 30.7389C1073.43 21.0139 1064.71 11.9209 1056.16 2.64791C1055.33 1.75391 1054.49 0.882906 1053.65 0.00490625H1052.46C1053.42 0.971906 1054.38 1.94891 1055.33 2.95391C1064.04 12.2059 1072.9 21.4409 1080.92 31.3249C1080.1 32.4229 1078.95 33.2959 1077.68 34.0679C1075.33 29.4889 1072.88 25.1439 1069.03 21.3929C1063.16 15.6689 1056.91 10.1569 1050.84 4.63091C1049.02 2.96491 1047.04 1.49591 1045.08 0.00490625H1043.61C1043.68 0.0579062 1043.75 0.114906 1043.82 0.167906C1050.87 5.26191 1056.63 11.7149 1063.17 17.3969C1066.45 20.2509 1069.74 23.0359 1072.5 26.4179C1074.35 28.6829 1075.78 31.5429 1077.12 34.3989C1075.43 35.3759 1073.6 36.2179 1072.14 37.2159C1068.28 39.8669 1064.55 42.8459 1060.98 45.8799C1054.33 51.5249 1047.92 57.6249 1041.78 63.8149C1038.22 67.4009 1034.66 71.1009 1031.24 74.9379C1021.76 66.4829 1011.25 59.1149 1001.83 50.6059C999.886 48.8499 997.905 47.1429 995.907 45.4589C995.962 45.4339 996.018 45.3949 996.074 45.3399C997.439 43.9959 998.623 43.1249 998.088 41.1399C997.067 37.3569 993.559 33.7189 991.026 30.9079C987.241 26.7039 982.78 23.0269 978.796 19.0039C973.941 14.1049 969.091 9.20691 964.073 4.46891C962.44 2.92591 960.748 1.45391 959.037 0.00490625H957.697C965.39 6.40991 972.315 13.8789 979.331 20.9609C983.058 24.7209 1001.57 38.8809 995.599 44.7609C995.5 44.8579 995.453 44.9629 995.435 45.0629C990.251 40.7099 984.952 36.5139 979.804 32.0969C972.728 26.0249 965.72 19.8729 958.636 13.8119C956.592 12.0629 954.537 10.1819 952.431 8.34591C952.559 8.23891 952.662 8.08091 952.671 7.90691C952.829 4.71991 954.021 2.30091 955.626 0.00590625H954.607C952.994 2.39391 952.097 4.86691 951.905 7.89091C949.144 5.50591 946.288 3.22491 943.225 1.46391C942.729 1.17791 942.627 2.15391 943.034 2.38691C948.872 5.74391 954.003 10.9689 959.089 15.3199C966.124 21.3409 973.083 27.4519 980.11 33.4829C987.174 39.5449 994.555 45.1469 1001.46 51.4089C1010.8 59.8819 1021.24 67.1949 1030.67 75.5769C1024.99 82.0099 1019.71 88.8319 1015.48 96.1729C1010.27 105.212 1005.92 114.243 1002.15 123.8C1001.13 123.164 1000.12 122.515 999.13 121.863C998.734 121.6 998.105 122.365 998.556 122.662C999.613 123.358 1000.69 124.053 1001.78 124.729C1001.27 126.038 1000.77 127.354 1000.28 128.685C997.413 136.48 995.439 144.052 993.841 152.126C985.824 148.597 979.291 139.748 973.396 133.855C969.742 130.201 966.146 126.537 962.822 122.574C958.638 117.582 956.871 111.975 954.97 105.89C951.892 96.0289 945.284 89.3769 938.7 81.7339C935.171 77.6369 932.88 72.6259 930.157 67.9959C927.165 62.9109 923.653 58.1699 920.757 53.0059C916.261 44.9909 912.385 36.6489 908.077 28.5329C910.184 28.9039 912.36 29.0889 914.6 29.2759C920.653 29.7799 926.502 31.7009 932.569 31.9169C933.126 31.9369 933.438 31.1989 932.78 31.1759C927.358 30.9839 921.968 29.5379 916.608 28.7259C913.648 28.2779 910.642 28.2239 907.68 27.7799C907.037 26.5799 906.385 25.3849 905.719 24.1979C900.944 15.6839 894.162 8.42191 886.907 1.97691C886.151 1.30591 885.378 0.654906 884.605 0.00490625H882.996C883.652 0.535906 884.312 1.06191 884.958 1.60591C893.206 8.56591 900.394 16.7119 905.683 26.1419C905.941 26.6019 906.188 27.0689 906.443 27.5319C903.076 26.7239 900.285 24.7909 897.507 22.7599C889.757 17.0999 881.861 12.4679 872.021 12.3799C866.474 12.3309 860.966 14.1899 855.546 15.1019C849.374 16.1409 842.858 15.8869 836.622 15.9199C822.929 15.9949 809.659 14.4619 796.407 11.0559C794.244 9.15491 791.977 7.41291 789.423 6.55291C785.417 5.20491 780.821 5.15391 776.671 4.42591C772.204 3.64191 768.062 1.77991 763.918 0.00590625H761.01C764.909 1.43391 768.709 3.17291 772.752 4.48691ZM993.078 184.938C993.007 184.886 992.911 184.851 992.777 184.854C991.821 184.876 990.881 185.005 989.947 185.182C990.325 184.295 990.587 183.333 990.772 182.331C991.563 182.235 992.356 182.193 993.15 182.218C993.117 183.125 993.098 184.031 993.078 184.938ZM998.462 276.184C998.519 276.22 998.588 276.242 998.688 276.223C999.965 275.979 1001.37 275.757 1002.61 276.289C1003.87 276.832 1004.2 278.27 1004.28 279.548C1001.64 282.1 999.614 285.121 997.084 287.807C996.896 287.604 996.71 287.401 996.519 287.204C995.812 286.477 994.694 285.901 994.378 284.871C994.483 284.725 994.516 284.548 994.39 284.409C994.383 284.401 994.375 284.393 994.369 284.386C996.047 281.832 997.457 279.14 998.462 276.184ZM993.693 285.375C994.092 286.615 995.393 287.566 996.416 288.48C995.768 289.127 995.093 289.758 994.35 290.342C993.633 290.904 991.272 294.258 990.313 293.707C989.62 293.31 988.955 292.823 988.305 292.298C990.223 290.012 992.059 287.74 993.693 285.375ZM999.736 301.936C998.699 303.816 997.379 305.516 996.686 307.493C996.211 307.211 995.716 306.989 995.507 306.854C991.382 304.183 987.631 300.829 983.812 297.659C985.085 296.106 986.369 294.597 987.628 293.104C988.907 294.14 990.28 294.881 991.649 294.604C992.327 294.465 992.866 293.202 993.167 292.723C994.075 291.283 995.535 290.16 997.003 289.043C999.017 291.203 1001.6 292.89 1003.37 295.264C1002.13 297.469 1000.96 299.721 999.736 301.936ZM1021.25 277.474C1019.5 278.7 1017.78 279.953 1016.1 281.254C1011.22 285.035 1007.41 288.391 1004.24 293.748C1004.1 293.98 1003.97 294.216 1003.84 294.449C1002.58 292.835 1001.01 291.568 999.46 290.236C998.837 289.703 998.273 289.102 997.718 288.495C998.637 287.787 999.527 287.061 1000.24 286.24C1001.84 284.418 1003.23 282.463 1004.69 280.539C1004.9 280.499 1005.12 280.298 1005.11 280.023C1005.11 280.018 1005.11 280.013 1005.11 280.008C1007.63 276.893 1011.94 274.927 1015.24 272.861C1016.13 272.303 1017.02 271.708 1017.91 271.101C1018.97 273.237 1020.04 275.417 1021.25 277.474ZM1017.55 270.389C1013.36 273.077 1008.78 275.511 1005.05 278.817C1004.92 277.625 1004.57 276.411 1003.58 275.708C1003.42 275.6 1003.26 275.512 1003.1 275.433C1007.57 272.742 1011.31 269.235 1014.73 265.391C1015.54 267.088 1016.68 268.717 1017.55 270.389ZM1055.47 218.02C1050.79 222.102 1046.85 227.346 1042.65 231.921C1037.63 237.385 1032.69 242.915 1027.65 248.363C1023.1 253.295 1019.21 258.888 1014.85 263.99C1014.53 263.914 1014.16 264.046 1014.3 264.404C1014.32 264.459 1014.34 264.512 1014.36 264.567C1010.83 268.634 1006.97 272.355 1002.17 275.126C1001.07 274.898 999.854 275.072 998.772 275.278C999.387 273.258 999.808 271.11 999.985 268.79C1000.69 259.466 999.005 249.689 998.046 240.398C996.071 221.214 993.605 202.421 994.023 183.119C994.228 173.612 995.398 163.908 997.498 154.367C1009.15 155.218 1020.76 157.434 1032.19 159.821C1038.22 161.081 1043.94 163.129 1049.79 165.038C1055.6 166.936 1061.73 167.377 1067.54 169.167C1066.19 172.551 1064.85 175.943 1063.5 179.335C1060.87 185.979 1059.24 191.348 1059.65 198.537C1059.91 203.111 1063.76 206.283 1066.96 209.266C1063.24 212.302 1059.09 214.867 1055.47 218.02ZM1068.72 72.6419C1066.53 74.5359 1064.64 76.6359 1062.51 78.5929C1057.81 82.8999 1052.49 86.0159 1048.54 91.1489C1045.28 95.3659 1041.99 94.6049 1037.53 93.0389C1034.53 91.9869 1031.47 90.9009 1028.42 89.9519C1032.04 85.2279 1035.87 80.6149 1039.68 76.0779C1045.26 69.4349 1051.57 63.4249 1058.16 57.7299C1058.17 57.7439 1058.17 57.7619 1058.19 57.7739C1061.71 60.8999 1065.18 63.9559 1068.87 66.8859C1071.59 69.0479 1071.47 70.2619 1068.72 72.6419ZM1070.88 71.7379C1071.42 71.1249 1072.04 70.4589 1072.2 69.7129C1079.98 62.3619 1092.18 62.4579 1102.01 60.4199C1102.65 61.3019 1103.28 62.1899 1103.93 63.0659C1106.07 65.9639 1108.37 68.7159 1110.71 71.4339C1108.5 72.4179 1106.47 73.7669 1104.52 75.2389C1101.46 70.8869 1090.54 78.5029 1087.44 80.3519C1085.53 81.4979 1083.93 82.9089 1082.53 84.4829C1080.4 82.5689 1077.79 81.4419 1075.44 79.8429C1072.96 78.1569 1070.48 76.3969 1068.16 74.4899C1069.12 73.5869 1070.05 72.6729 1070.88 71.7379ZM1039.19 94.6409C1041.3 95.3159 1043.48 95.9439 1045.61 95.1739C1048.28 94.2099 1050.47 89.8129 1052.36 87.9299C1055.95 84.3579 1060.23 81.7409 1063.95 78.3319C1065.07 77.3059 1066.27 76.2499 1067.45 75.1689C1069.84 77.1269 1072.43 78.7669 1074.88 80.6519C1077.11 82.3759 1079.76 83.3539 1081.9 85.2369C1079.86 87.6779 1078.19 90.4399 1076.45 93.1949C1074.69 95.9649 1073.39 100.236 1069.5 100.002C1066.53 99.8229 1064.12 98.0409 1061.05 98.2799C1060.51 98.3209 1060.68 99.2969 1061.15 99.2589C1065.07 98.9539 1069.05 102.319 1072.81 100.365C1073.83 99.8339 1074.51 98.2609 1075.02 97.3539C1076.35 94.9839 1077.82 92.7359 1079.32 90.4699C1082.89 85.1089 1086.47 81.6039 1092.38 78.8559C1094.43 77.9009 1101.74 72.8719 1103.9 75.7169C1102.71 76.6319 1101.56 77.5789 1100.42 78.5019C1095.49 82.4869 1089.84 84.8459 1084.65 88.3959C1084.13 88.7489 1084.88 89.2859 1085.28 89.0119C1089.49 86.1369 1094.44 84.4189 1098.44 81.2559C1102.53 78.0199 1106.47 74.2399 1111.28 72.0859C1112.04 72.9699 1112.81 73.8529 1113.58 74.7339C1113.57 74.7419 1113.57 74.7469 1113.57 74.7549C1112.54 81.5959 1107.29 85.8809 1103.27 91.0309C1100.12 95.0649 1099.09 100.202 1098.45 105.152C1097.47 112.654 1096.74 119.019 1091.83 125.015C1087.94 129.775 1083.19 133.562 1080.01 138.913C1078.49 141.481 1077.71 144.62 1076.64 147.399C1075.25 151.008 1073.62 154.534 1072.1 158.092C1071.59 159.3 1071.09 160.512 1070.58 161.723C1058.27 160.267 1047.94 154.277 1036.57 149.67C1034.76 148.94 1032.95 148.224 1031.14 147.511C1031.66 145.992 1032.14 144.468 1032.39 142.869C1032.46 142.355 1031.71 141.935 1031.62 142.583C1031.38 144.179 1030.87 145.691 1030.35 147.2C1021.11 143.569 1011.83 140 1003.05 135.37C1004.1 132.508 1005.25 129.687 1006.49 126.917C1006.58 126.809 1006.65 126.679 1006.65 126.559C1008.86 121.648 1011.34 116.892 1014.13 112.371C1017.9 106.275 1021.2 99.7399 1025.42 93.9459C1026.19 92.8849 1026.99 91.8389 1027.79 90.7899C1031.61 91.9789 1035.37 93.4179 1039.19 94.6409ZM1130.28 200.48C1130.64 204.317 1130.08 208.523 1130.44 212.476C1126.38 206.764 1121.34 201.673 1116.72 196.41C1113.53 192.785 1110.2 189.339 1106.77 185.951C1103.3 182.531 1098.91 179.826 1095.65 176.324C1095.62 176.298 1095.59 176.286 1095.56 176.27C1096.62 175.339 1097.69 174.4 1098.76 173.422C1100.85 171.5 1103.11 168.976 1102.81 166.03C1104.84 166.032 1106.87 166.019 1108.89 166.011C1118.09 165.973 1127.82 166.926 1136.39 163.658C1136.79 166.972 1135.69 170.342 1134.93 173.539C1134.11 177.013 1133.42 180.462 1132.85 183.984C1131.93 189.664 1129.74 194.74 1130.28 200.48ZM1131.02 164.279C1125.49 165.441 1119.64 165.074 1114.02 165.01C1113.63 165.006 1113.24 165.008 1112.86 165.005C1111.97 159.284 1116.74 155.619 1120.69 152.273C1123.42 149.95 1126.12 147.618 1128.73 145.18C1131.11 150.81 1134.4 156.151 1136.07 162.06C1136.14 162.294 1136.2 162.53 1136.24 162.765C1134.57 163.408 1132.83 163.899 1131.02 164.279ZM1128.32 144.219C1128.33 144.228 1128.33 144.238 1128.33 144.247C1127.19 145.357 1126.04 146.454 1124.84 147.506C1119.58 152.116 1110.96 156.993 1112.09 165.003C1108.88 164.987 1105.67 164.998 1102.47 164.986C1102.35 164.938 1102.21 164.94 1102.08 164.984C1099.51 164.972 1096.94 164.942 1094.36 164.837C1086.64 164.523 1079.25 162.603 1071.6 161.85C1073.36 157.721 1075.15 153.605 1076.88 149.468C1079.6 143.008 1081.61 137.385 1086.43 132.135C1089.64 128.632 1093.59 125.417 1095.78 121.108C1098.57 115.622 1098.84 109.448 1099.68 103.451C1099.74 103.007 1099.82 102.581 1099.9 102.149C1101.63 103.914 1103.7 105.389 1104.76 107.676C1104.99 108.192 1105.62 107.436 1105.43 107.013C1104.27 104.513 1101.95 102.957 1100.13 100.984C1101.21 96.1009 1103.42 91.9489 1107.01 88.2019C1110.37 84.6989 1113.47 80.5199 1114.4 75.6899C1116.26 77.8279 1118.1 79.9789 1119.87 82.1969C1125.11 88.7599 1129.21 96.3659 1134.04 103.252C1139.35 110.816 1144.55 118.449 1149.03 126.537C1149.11 126.685 1149.3 126.774 1149.49 126.805C1146.7 128.636 1143.91 130.461 1141.21 132.42C1136.66 135.728 1132.86 139.82 1128.86 143.736C1128.55 143.689 1128.18 143.861 1128.32 144.219ZM1070.17 162.713C1069.4 164.574 1068.64 166.438 1067.89 168.305C1067.85 168.277 1067.82 168.25 1067.77 168.236C1061.91 166.4 1055.73 165.861 1049.83 164.053C1043.95 162.248 1038.27 160.133 1032.24 158.836C1030.8 158.527 1029.35 158.222 1027.91 157.924C1028.88 155.476 1029.35 153.132 1030.11 150.608C1030.33 149.874 1030.58 149.149 1030.83 148.425C1031.64 148.742 1032.45 149.06 1033.26 149.379C1045.28 154.113 1056.66 161.231 1069.67 162.65C1069.83 162.67 1070 162.694 1070.17 162.713ZM1030.03 148.115C1029.81 148.77 1029.59 149.428 1029.39 150.095C1028.62 152.714 1028.1 155.217 1027.05 157.753C1017.37 155.78 1007.54 154.125 997.717 153.396C999.035 147.59 1000.7 141.853 1002.72 136.261C1011.5 140.9 1020.78 144.497 1030.03 148.115ZM1062.1 202.91C1059.26 199.238 1060.35 191.891 1061.4 187.851C1063.03 181.535 1066.09 175.287 1068.52 169.244C1069.39 167.099 1070.28 164.966 1071.18 162.837C1077.15 163.584 1083.02 164.826 1089 165.451C1093.25 165.896 1097.53 166.01 1101.81 166.028C1102.53 170.822 1095.95 174.888 1092.72 177.478C1088.32 181.006 1085.06 185.769 1081.82 190.328C1078.39 195.158 1075.42 200.41 1071.56 204.904C1070.35 206.307 1069.01 207.565 1067.6 208.748C1065.67 206.889 1063.75 205.043 1062.1 202.91ZM1154.02 275.324C1151.11 278.72 1148.06 281.449 1144.46 284.074C1141.67 286.099 1139.64 289.137 1137.47 291.785C1133.15 285.672 1127.26 280.957 1121.52 276.256C1114.19 270.249 1108.93 261.8 1102.93 254.554C1096.39 246.653 1090.28 238.466 1083.64 230.643C1080.57 227.03 1077.79 223.175 1075.16 219.233C1074.05 217.563 1073.05 215.811 1071.86 214.194C1070.82 212.78 1069.23 211.78 1068.55 210.13C1068.69 210.019 1068.73 209.84 1068.52 209.641C1068.36 209.482 1068.2 209.325 1068.03 209.166C1069.91 207.605 1071.7 205.943 1073.34 204.037C1077.98 198.646 1081.48 192.046 1085.72 186.312C1088.43 182.637 1091.58 179.783 1094.85 176.901C1094.86 176.905 1094.85 176.911 1094.86 176.916C1097.41 179.652 1100.73 181.345 1103.39 183.988C1106.82 187.404 1110.29 190.769 1113.58 194.33C1116.86 197.892 1120.47 201.486 1123.22 205.473C1125.4 208.629 1128.33 211.028 1130.49 214.261C1130.54 214.338 1130.62 214.377 1130.7 214.402C1130.86 215.282 1131.08 216.146 1131.39 216.981C1133.78 223.377 1133.7 230.274 1135.22 236.881C1136.73 243.393 1138.14 249.949 1139.8 256.433C1141.15 261.739 1144.51 265.69 1148.28 269.502C1150.18 271.421 1152.16 273.302 1154.2 275.113C1154.14 275.181 1154.08 275.255 1154.02 275.324ZM1090.65 448.616C1090.65 448.609 1090.64 448.603 1090.64 448.597C1090.2 447.99 1089.74 447.414 1089.28 446.831C1093.69 445.019 1097.53 442.22 1101.58 439.733C1101.62 439.779 1101.66 439.825 1101.7 439.87C1103.73 442.102 1098.29 445.243 1094.27 447.11C1094.01 446.985 1093.65 447.183 1093.56 447.434C1092.22 448.03 1091.13 448.455 1090.65 448.614C1090.65 448.615 1090.65 448.616 1090.65 448.616ZM1207.18 507.331C1192.13 506.343 1177.07 503.799 1162.34 500.68C1147.56 497.551 1134.7 487.203 1121.78 479.752C1118.52 477.871 1115.47 476.027 1112.89 473.258C1110.86 471.074 1109.27 468.547 1107.14 466.449C1101.57 460.962 1095.77 455.553 1091.12 449.241C1092.1 448.906 1093.07 448.525 1094.02 448.103C1096.92 450.408 1099.15 453.23 1101.59 456.001C1103.61 458.304 1106.22 460.073 1108.49 462.128C1113.2 466.398 1117.59 470.982 1122.06 475.501C1126.13 479.622 1131.81 482.226 1136.85 484.94C1142.47 487.96 1148.22 489.452 1154.47 490.561C1168.6 493.067 1183.12 492.407 1197.41 492.571C1202.18 492.626 1206.95 492.641 1211.72 492.588C1210.39 497.549 1208.76 502.422 1207.18 507.331ZM1241.15 490.859C1255.93 489.064 1272.74 486.359 1287.28 490.648C1288.15 490.905 1289.02 491.187 1289.87 491.486C1289.03 494.198 1288.66 497.01 1287.94 499.757C1287.73 500.577 1287.32 501.35 1286.91 502.117C1276.73 501.996 1266.49 503.676 1256.41 504.518C1240.45 505.85 1225.06 508.377 1208.96 507.456C1208.72 507.442 1208.48 507.42 1208.24 507.405C1209.94 502.481 1211.76 497.57 1213.12 492.574C1222.48 492.438 1231.84 491.989 1241.15 490.859ZM1266.74 467.732C1262.57 468.64 1259.03 468.974 1255.14 470.859C1252.08 472.336 1249.22 473.963 1245.86 474.709C1243.15 475.311 1240.24 475.064 1237.46 475.148C1232.5 475.302 1227.73 476.058 1222.73 475.914C1216.68 475.74 1214.44 479.83 1213.38 485.426C1212.98 487.569 1212.48 489.681 1211.93 491.78C1210.98 491.799 1210.04 491.829 1209.09 491.835C1193.53 491.923 1177.6 492.376 1162.11 490.802C1147.75 489.337 1132.2 484.388 1121.79 473.855C1117.33 469.335 1112.88 464.814 1108.17 460.543C1105.84 458.439 1103.43 456.617 1101.35 454.248C1099.3 451.917 1097.37 449.628 1094.99 447.671C1097.32 446.562 1099.56 445.205 1101.56 443.639C1103.58 442.048 1103.29 440.728 1102.29 439.305C1103.07 438.832 1103.87 438.369 1104.69 437.938C1108 436.178 1110.95 434.571 1114.72 433.958C1118.05 433.417 1121.49 433.579 1124.84 433.224C1132.63 432.398 1139.39 433.882 1146.82 435.904C1152.76 437.519 1158.22 436.297 1163.71 433.824C1169.27 431.322 1174.2 427.502 1179.4 424.363C1186.23 420.236 1193.87 418.4 1201.64 416.945C1208.72 415.619 1215.83 414.633 1222.8 412.765C1226.32 411.82 1229.88 411.023 1233.38 410.013C1236.86 409.013 1240.05 407.3 1243.59 406.472C1243.71 406.443 1243.79 406.359 1243.84 406.251C1245.01 408.886 1246.39 411.43 1247.92 413.925C1253.75 423.487 1264.76 430.446 1264.13 442.683C1263.97 445.769 1263.13 450.527 1265.23 453.22C1265.65 453.768 1266.17 454.247 1266.71 454.695C1265.86 456.144 1264.44 458.697 1263.54 459.591C1263.34 459.794 1263.31 460.159 1263.5 460.38C1265.81 463.095 1269.06 463.874 1272.4 464.659C1272.54 464.691 1272.67 464.737 1272.81 464.771C1271.2 466.107 1269.35 467.168 1266.74 467.732ZM1273.72 463.952C1271.31 463.354 1268.91 462.831 1266.63 461.785C1263.33 460.275 1265.96 457.527 1267.28 455.273C1267.3 455.245 1267.31 455.212 1267.32 455.182C1269.67 456.866 1272.76 457.828 1275.38 458.546C1276.27 458.792 1277.17 459.067 1278.07 459.351C1276.49 460.98 1275.18 462.574 1273.72 463.952ZM1320.12 400.742C1322.65 407.915 1321.94 415.34 1323.26 422.69C1323.12 422.47 1322.88 422.364 1322.7 422.656C1321.9 423.908 1319.91 424.836 1319.4 426.263C1318.39 429.113 1318.08 432.154 1317.15 435.046C1316.13 438.2 1314.66 441.167 1313.49 444.263C1312.42 447.132 1311.95 450.156 1310.84 453.013C1309.35 456.867 1308.23 460.519 1309.16 464.751C1309.18 464.836 1309.2 464.911 1309.22 464.992C1307.31 464.832 1305.39 464.599 1303.47 464.347C1303.36 464.256 1303.22 464.228 1303.1 464.298C1300.56 463.963 1298.03 463.609 1295.49 463.377C1289.13 462.797 1283.31 459.494 1277.11 458.117C1271.17 456.795 1265.26 454.664 1264.93 447.797C1264.76 444.338 1265.84 440.576 1264.97 437.174C1262.72 428.395 1254.6 422.285 1249.69 415.078C1242.61 404.704 1241.7 393.047 1237.6 381.566C1237.65 381.509 1237.67 381.442 1237.66 381.349C1236.8 375.867 1233.02 371.888 1233.26 366.144C1233.41 362.622 1234.15 360.333 1236.63 358.112C1238.81 361.053 1241 363.987 1243.28 366.853C1247.14 371.699 1251.32 376.259 1256.25 380.025C1261.2 383.805 1266.85 386.627 1272.14 389.883C1271.99 390.191 1272.16 390.56 1272.59 390.351C1278.08 387.72 1284.07 386.779 1289.89 385.163C1295.18 383.696 1299.7 380.468 1304.91 378.774C1306.6 378.223 1308.17 377.524 1309.68 376.764C1313.48 384.643 1317.24 392.562 1320.12 400.742ZM1273.35 281.859C1278.03 286.857 1279.6 295.277 1281.44 301.695C1283.67 309.478 1285.81 317.33 1287.62 325.222C1290.67 338.562 1297.39 350.183 1302.97 362.579C1305.02 367.141 1307.22 371.676 1309.42 376.223C1308.41 376.718 1307.38 377.169 1306.29 377.54C1300.15 379.626 1294.62 383.052 1288.37 384.788C1283.11 386.248 1277.82 387.119 1272.84 389.414C1272.82 389.388 1272.8 389.361 1272.76 389.336C1267.9 386.342 1262.87 383.631 1258.15 380.404C1252.17 376.316 1247.47 370.711 1242.99 365.092C1241.02 362.626 1239.13 360.103 1237.26 357.568C1237.29 357.541 1237.32 357.514 1237.35 357.487C1239.28 355.971 1241.2 354.632 1242.84 352.794C1243.19 352.409 1242.26 352.03 1241.95 352.384C1240.38 354.131 1238.46 355.436 1236.74 356.862C1234.99 354.487 1233.24 352.103 1231.47 349.747C1227.05 343.897 1221.73 338.741 1217.53 332.747C1214.2 327.985 1213.44 322.02 1210.05 317.278C1206.5 312.317 1201.52 308.169 1197.02 304.118C1187.82 295.847 1177.73 290.18 1167.19 283.821C1163.23 281.428 1159.02 278.555 1155.11 275.256C1159.61 269.93 1163.89 264.155 1169.18 259.664C1175.66 254.167 1183.56 249.586 1190.59 244.838C1197.43 240.219 1204.51 235.993 1212.08 232.689C1212.24 232.619 1212.32 232.517 1212.35 232.412C1216.37 236.517 1219.94 240.923 1224.68 244.238C1230.47 248.287 1235.56 253.152 1241.18 257.419C1246.57 261.513 1252.27 265.033 1257.55 269.322C1262.76 273.554 1268.74 276.932 1273.35 281.859ZM1264.51 273.455C1263.12 272.499 1261.74 271.548 1260.43 270.55C1255.07 266.488 1250.07 262.175 1244.35 258.6C1238.92 255.207 1234.29 250.633 1229.38 246.558C1226.22 243.934 1222.66 242.058 1219.72 239.134C1217.63 237.051 1215.69 234.788 1213.65 232.624C1213.99 232.68 1214.38 232.642 1214.68 232.638C1217.88 232.593 1220.44 233.592 1222.79 235.893C1224.62 237.69 1225.54 240.012 1227.66 241.545C1230.09 243.301 1232.75 244.51 1235.46 245.768C1242.26 248.921 1248.71 252.638 1255.34 256.123C1260.58 258.883 1266.01 261.383 1271.47 263.663C1272.23 263.976 1272.95 264.324 1273.67 264.679C1270.3 267.28 1267.78 270.761 1264.51 273.455ZM1298.35 258.771C1299.85 260.25 1301.91 261.174 1303.96 261.933C1303.57 262.618 1303.16 263.275 1302.74 263.92C1297.64 261.564 1294.14 257.617 1291.2 252.86C1290.64 251.95 1290.92 251.213 1291.48 250.518C1293.71 253.332 1295.77 256.25 1298.35 258.771ZM1299.38 202.684C1305.22 192.344 1311.59 182.218 1318.02 172.19C1317.94 173.861 1318.07 175.257 1317.4 177.284C1316.34 180.487 1314.35 183.409 1312.47 186.18C1309.33 190.796 1305.9 194.977 1303.16 199.869C1300.75 204.185 1298.88 208.744 1296.22 212.93C1295.83 213.537 1295.38 214.222 1294.88 214.94C1294.61 214.917 1294.34 214.882 1294.07 214.863C1293.47 214.821 1292.88 214.772 1292.28 214.723C1294.7 210.751 1297.07 206.766 1299.38 202.684ZM1291.71 215.665C1292.43 215.718 1293.14 215.776 1293.86 215.842C1293.98 215.852 1294.09 215.869 1294.21 215.88C1292.19 218.665 1289.56 221.735 1287.1 223.18C1287.45 222.582 1287.82 221.994 1288.18 221.42C1289.37 219.498 1290.54 217.582 1291.71 215.665ZM1279.77 215.984C1283.56 215.344 1287.2 215.36 1290.93 215.61C1287.84 219.958 1283.54 224.977 1283.35 230.06C1283.16 235.131 1286.42 238.477 1289.04 242.492C1289.05 242.577 1289.09 242.667 1289.2 242.755C1289.2 242.76 1289.21 242.766 1289.22 242.771C1289.22 242.774 1289.22 242.777 1289.22 242.78C1289.3 242.893 1289.37 242.942 1289.45 242.961C1291.38 244.571 1293.98 247.059 1291.51 249.326C1291.3 249.376 1291.11 249.531 1291.05 249.71C1290.42 250.168 1289.84 250.464 1289.53 251.223C1289.06 252.362 1291.56 255.075 1292.07 255.811C1293.6 258.008 1295.47 260.198 1297.6 261.831C1299.08 262.969 1300.67 263.819 1302.25 264.666C1300.31 267.585 1298.26 270.259 1296.71 273.602C1294.81 277.708 1284.58 270.358 1282.16 268.792C1271.85 262.104 1260.15 257.924 1249.38 251.99C1244.09 249.079 1238.73 246.433 1233.26 243.892C1230.13 242.437 1227.5 240.705 1225.45 237.838C1224.29 236.2 1223 234.816 1221.41 233.566C1218.91 231.592 1213.95 232.968 1212.2 230.588C1209.96 227.548 1209.1 223.41 1207.95 219.533C1209.97 218.104 1212.04 216.74 1214.09 215.436C1216.41 213.964 1218.54 212.08 1220.69 210.374C1223.61 208.049 1225.82 205.275 1229.4 208.326C1231.31 209.953 1234.68 209.955 1237.03 210.332C1240.81 210.939 1244.48 212.126 1248.15 213.23C1255.33 215.39 1262.21 217.339 1269.79 217.312C1273.13 217.305 1276.49 216.537 1279.77 215.984ZM1286.7 158.669C1290.72 165.506 1292.7 172.574 1293.36 180.441C1293.68 184.301 1290.98 187.783 1289.44 191.117C1288.09 194.019 1287.08 197.01 1285.61 199.867C1282.98 205 1280.36 210.237 1277.56 215.282C1276.08 215.569 1274.6 215.861 1273.15 216.063C1265.83 217.077 1258.4 215.389 1251.44 213.254C1248.37 212.311 1245.3 211.361 1242.21 210.469C1238.39 209.365 1233.17 209.666 1229.8 207.427C1226.07 204.948 1225.8 204.72 1222.27 207.974C1217.84 212.058 1212.68 215.33 1207.73 218.801C1207.3 217.414 1206.81 216.072 1206.2 214.842C1206.2 214.84 1206.2 214.838 1206.2 214.838C1208.8 212.053 1211.32 209.164 1213.69 206.246C1222.31 195.623 1228.85 183.18 1234.88 170.942C1245.29 167.905 1258.88 171.71 1268.12 165.156C1273.02 161.681 1275.37 155.846 1278.44 150.879C1279.39 149.354 1280.39 147.882 1281.4 146.43C1281.88 150.933 1284.44 154.811 1286.7 158.669ZM1207.03 219.288C1206.2 219.876 1205.38 220.469 1204.57 221.076C1202.33 222.746 1199.88 224.394 1198.09 226.564C1194.35 231.103 1195.38 224.924 1197.19 223.376C1198.47 222.278 1199.77 221.257 1201 220.095C1202.54 218.645 1204.03 217.12 1205.51 215.569C1206.08 216.784 1206.58 218.027 1207.03 219.288ZM1286.94 118.671C1288.51 119.72 1290.26 120.47 1291.84 121.504C1296.74 124.715 1292.65 128.921 1290.19 131.803C1286.95 135.604 1284.89 140.496 1281.81 144.52C1277.86 149.7 1275.04 155.522 1271.3 160.827C1263.69 171.624 1246.79 167.131 1235.33 170.031C1235.41 169.869 1235.49 169.706 1235.57 169.544C1238.85 162.841 1242.3 156.204 1246.41 149.961C1251.08 142.866 1257.53 138.78 1264.6 134.389C1272.25 129.634 1279.06 123.695 1285.92 117.836C1286.23 118.131 1286.56 118.416 1286.94 118.671ZM1297.81 107.076C1294.83 109.644 1291.63 111.986 1288.63 114.554C1287.76 115.297 1286.88 116.016 1286.01 116.746C1284.74 115.336 1283.91 113.559 1282.33 112.432C1278.36 109.602 1278.97 106.836 1280.81 102.975C1283.28 97.7909 1284.64 91.7929 1285.7 86.1049C1287.3 88.2919 1288.79 90.5769 1290.63 92.5329C1294.01 96.1369 1297.21 97.3319 1302.06 97.8789C1302.48 97.9259 1302.91 97.9899 1303.33 98.0489C1302.12 101.538 1300.7 104.59 1297.81 107.076ZM1293.2 61.3259C1293.66 52.0449 1295.38 42.6139 1294.36 33.3199C1293.91 29.2459 1292.55 25.4109 1292.59 21.2679C1292.61 19.4869 1292.72 17.7059 1292.73 15.9219C1292.76 11.7449 1301.39 14.5339 1303.17 14.8849C1307.45 15.7309 1312.08 15.2709 1316.42 15.2709C1321.64 15.2709 1326.87 15.2709 1332.1 15.2709C1331.15 19.8889 1330.28 24.4639 1329.68 29.2879C1328.67 37.5019 1327.29 45.6659 1326.3 53.8839C1325.57 59.9839 1325.38 66.1229 1324.72 72.2219C1323.1 72.2149 1321.48 72.2259 1319.87 72.2059C1313.1 72.1229 1306.37 71.2589 1299.59 71.2209C1296.75 71.2049 1294.42 71.6549 1292.51 72.5409C1292.76 68.8009 1293.02 65.0619 1293.2 61.3259ZM1291.62 91.3559C1291.67 85.4719 1292.04 79.5869 1292.43 73.7049C1294.32 72.7359 1296.65 72.2289 1299.54 72.2199C1305.05 72.2009 1310.54 72.6999 1316.04 73.0449C1318.9 73.2249 1321.76 73.2299 1324.61 73.2759C1324.5 74.2299 1324.38 75.1829 1324.23 76.1349C1323.71 79.6159 1322.86 83.0369 1322.06 86.4609C1321.23 90.0259 1319.53 93.2329 1318.66 96.7309C1317.64 100.843 1312.2 98.2679 1309.18 97.6959C1305.29 96.9569 1301.34 97.1399 1297.44 96.2299C1294.78 95.6079 1292.72 93.8079 1290.91 91.6309C1291.2 91.7639 1291.61 91.7069 1291.62 91.3559ZM1291.25 74.4159C1290.93 80.0459 1290.69 85.6769 1290.64 91.2709C1290.64 91.2809 1290.64 91.2889 1290.64 91.2989C1289 89.2539 1287.56 86.9239 1286.07 84.9349C1286.1 84.8809 1286.12 84.8209 1286.13 84.7489C1286.74 79.9209 1288.33 76.4629 1291.25 74.4159ZM1285.42 72.8819C1286.3 74.0069 1287.19 75.1459 1288.11 76.2959C1288.12 76.3039 1288.13 76.3049 1288.13 76.3119C1286.78 78.3399 1285.93 80.9539 1285.47 84.1069C1285.45 84.1079 1285.44 84.1069 1285.43 84.1089C1285.18 83.8009 1284.93 83.5029 1284.68 83.2209C1283.59 82.0019 1282.37 80.8999 1281.08 79.8869C1282.32 77.4089 1283.76 75.0509 1285.42 72.8819ZM1215.41 68.0779C1219.96 68.3869 1224.32 67.1409 1228.86 66.5759C1231.96 66.1909 1235.08 66.1279 1238.19 66.3259C1241.79 66.5559 1244.48 68.2899 1247.68 69.6579C1249.76 70.5469 1252.31 70.6009 1254.52 70.8719C1258.52 71.3639 1262.13 72.4889 1265.89 73.8729C1270.82 75.6869 1275.68 77.1859 1280.02 80.2139C1276.95 86.4639 1275.01 93.3949 1273.39 100.039C1272.99 101.678 1272.56 103.308 1272.09 104.926C1271.25 107.875 1267.88 106.21 1266.34 105.746C1264.61 105.225 1262.56 105.345 1260.76 105.197C1254.24 104.662 1248.04 102.887 1241.42 102.788C1240.96 102.781 1240.51 103.657 1241.08 103.665C1248.15 103.771 1254.82 105.614 1261.81 106.186C1264.31 106.393 1266.46 107.075 1268.88 107.582C1269.9 107.796 1270.67 107.896 1271.58 107.296C1272.76 106.524 1273.05 104.529 1273.38 103.361C1274.32 100.047 1275.02 96.6709 1275.98 93.3609C1277.23 89.0989 1278.73 84.7619 1280.69 80.6939C1282.32 81.9229 1283.66 83.4279 1284.9 85.0339C1283.82 90.9569 1282.42 97.1939 1279.92 102.673C1279.12 104.417 1276.46 108.441 1278.2 110.297C1279.53 111.71 1281.22 112.585 1282.59 113.972C1283.65 115.036 1284.41 116.226 1285.37 117.279C1279.86 121.844 1274.2 126.204 1268.56 130.623C1262.33 135.509 1255.14 138.455 1249.69 144.363C1245.3 149.126 1242.18 155.133 1239.13 160.799C1237.44 163.936 1235.86 167.125 1234.29 170.32C1234.22 170.341 1234.15 170.357 1234.08 170.378C1233.67 170.508 1233.71 170.844 1233.95 171.008C1231.54 175.912 1229.14 180.822 1226.43 185.572C1222.47 192.503 1217.82 199.148 1213.15 205.617C1211.08 208.49 1208.27 210.933 1206.04 213.72C1203.44 216.965 1200.09 220.033 1196.81 222.576C1193.7 224.994 1192.72 226.947 1195.22 230.111C1195.35 230.271 1195.54 230.232 1195.69 230.129C1198.09 228.373 1199.89 225.867 1202.19 223.941C1203.81 222.579 1205.53 221.281 1207.28 220.024C1208.53 223.673 1209.51 227.418 1211.3 230.86C1211.4 231.054 1211.51 231.218 1211.63 231.379C1211.62 231.532 1211.65 231.7 1211.78 231.821C1211.83 231.873 1211.88 231.926 1211.93 231.978C1211.86 231.982 1211.79 231.998 1211.72 232.03C1196.43 238.706 1181.84 249.085 1168.6 259.157C1163.15 263.302 1158.91 269.513 1154.5 274.743C1147.77 268.937 1142.02 261.847 1140.13 253.733C1138.68 247.51 1137.24 241.301 1135.8 235.08C1134.39 228.993 1134.73 222.593 1132.31 216.746C1130.25 211.79 1131.59 203.954 1131.08 198.561C1130.77 195.2 1132.63 192.218 1133.11 188.888C1133.58 185.686 1134.1 182.494 1134.62 179.298C1135.51 173.68 1137.67 168.804 1137.14 163.357C1139.02 162.576 1140.85 161.591 1142.6 160.322C1148.15 156.283 1154.89 155.408 1161.51 154.124C1168.15 152.834 1174.84 152.73 1181.53 151.941C1192.42 150.658 1202.13 145.207 1206.66 134.892C1210.34 126.49 1213.35 114.312 1209.03 105.57C1205.39 98.2129 1201.66 89.5369 1206.25 81.7839C1208.87 77.3649 1211.21 71.4489 1215.3 68.2359C1215.35 68.1959 1215.39 68.1399 1215.41 68.0779ZM1210.95 67.1689C1211.85 67.4829 1212.75 67.7399 1213.66 67.8869C1213.86 67.9179 1214.05 67.9249 1214.24 67.9499C1211.27 70.5999 1209.6 74.4419 1207.73 77.8769C1205.62 81.7229 1203.41 84.4409 1203.25 88.9689C1203.1 93.2249 1204.63 97.9079 1206.35 101.726C1209.65 109.077 1210.74 115.184 1209.41 123.17C1208.28 129.931 1205.71 136.452 1201.29 141.73C1196.77 147.121 1189.75 149.529 1183.06 150.711C1177.04 151.774 1170.85 151.649 1164.79 152.548C1159.07 153.396 1153.07 154.482 1147.57 156.321C1145.54 157.001 1143.82 158.204 1142.14 159.495C1140.53 160.738 1138.83 161.695 1137.03 162.453C1136.93 161.774 1136.79 161.088 1136.59 160.387C1135.02 154.854 1131.66 149.801 1129.46 144.501C1130.71 143.309 1131.95 142.095 1133.14 140.828C1137.64 136.051 1142.89 132.305 1148.34 128.699C1154.19 124.824 1159.73 120.638 1165.42 116.545C1170.44 112.93 1176.07 110.292 1180.92 106.402C1185.44 102.771 1190.89 100.09 1194.86 95.7819C1198.27 92.0759 1199.75 87.7819 1201.29 83.0669C1202.36 79.7729 1203.36 76.7149 1205.43 73.8759C1207.13 71.5389 1209.2 69.4739 1210.95 67.1689ZM1106 26.8129C1112 24.5739 1118.51 21.0109 1125.07 21.5719C1130.95 22.0749 1136.68 27.9859 1141.12 31.4189C1142.83 32.7369 1144.55 33.9819 1146.35 35.0829C1146.34 35.2869 1146.57 35.3819 1146.81 35.3669C1148.94 36.6339 1151.19 37.6829 1153.66 38.3609C1158.98 39.8179 1163.66 42.7289 1168.98 43.9689C1175.43 45.4739 1180.79 49.0839 1186.38 52.4799C1191.68 55.7019 1196.99 58.0549 1201.96 61.8999C1204.33 63.7369 1207.12 65.6339 1210.05 66.8289C1206.83 70.9899 1203.15 74.4399 1201.6 79.6369C1199.59 86.3359 1197.4 92.4049 1191.99 97.1129C1181.55 106.205 1168.98 112.86 1157.87 121.069C1155.3 122.964 1152.65 124.724 1149.98 126.475C1149.98 126.456 1149.98 126.442 1149.97 126.422C1141.95 111.968 1132.03 98.3319 1122.76 84.6619C1119.59 79.9889 1115.7 75.8539 1111.94 71.6189C1111.93 71.5039 1111.82 71.3869 1111.67 71.3079C1110.08 69.5119 1108.52 67.6969 1107.06 65.8089C1101.23 58.2769 1095.91 50.3579 1090.45 42.5599C1089 40.4979 1087.51 38.4829 1085.98 36.4919C1092.25 32.6859 1098.82 29.4919 1106 26.8129ZM1088.52 41.3099C1092.86 47.4349 1097.1 53.6299 1101.5 59.7169C1091.82 61.7019 1079.93 61.7659 1072.07 68.6089C1072.07 68.6029 1072.07 68.5979 1072.06 68.5919C1071.04 66.5329 1067.94 64.9109 1066.19 63.5299C1063.64 61.5259 1061.31 59.2459 1058.89 57.0889C1063.47 53.1569 1068.17 49.3679 1072.87 45.6399C1076.94 42.4069 1081.05 39.5179 1085.28 36.9089C1086.38 38.3609 1087.47 39.8229 1088.52 41.3099ZM1081.46 32.0099C1082.59 33.4149 1083.71 34.8269 1084.81 36.2599C1083.29 37.1799 1081.78 38.1419 1080.29 39.1619C1079.51 37.6729 1078.77 36.1949 1078.03 34.7389C1079.32 34.0429 1080.52 33.2789 1081.46 32.0099ZM1006.95 113.855C1009.9 107.837 1013.11 101.927 1016.46 96.1189C1020.57 88.9899 1025.73 82.3729 1031.29 76.1259C1032.57 77.2719 1033.83 78.4359 1035.06 79.6289C1035.51 80.0619 1035.78 79.1589 1035.44 78.8269C1034.27 77.6929 1033.07 76.5909 1031.86 75.4989C1035.8 71.1099 1039.93 66.8999 1044.02 62.8299C1050.03 56.8519 1056.33 51.0289 1062.79 45.5429C1066.73 42.1919 1071 38.9619 1075.38 36.2019C1076.07 35.7699 1076.75 35.4099 1077.43 35.0539C1078.16 36.6279 1078.88 38.1849 1079.63 39.6259C1078.49 40.4179 1077.36 41.2339 1076.23 42.0929C1058.14 55.8809 1041.07 71.3839 1027.64 89.7389C1027.33 89.7619 1027.08 90.1549 1027.13 90.4219C1023.87 94.9219 1020.83 99.5889 1018.05 104.45C1013.89 111.72 1009.66 118.562 1006.18 126.134C1005.02 125.521 1003.87 124.861 1002.74 124.168C1003.99 120.689 1005.28 117.25 1006.95 113.855ZM1000.35 130.715C1001.07 128.836 1001.73 126.968 1002.4 125.11C1003.51 125.786 1004.63 126.434 1005.77 127.029C1005.57 127.485 1005.35 127.933 1005.16 128.395C1004.21 130.597 1003.34 132.829 1002.5 135.074C1001.46 134.521 1000.42 133.972 999.401 133.386C999.711 132.494 1000.02 131.602 1000.35 130.715ZM994.312 153.355C994.894 153.578 995.484 153.781 996.089 153.947C996.544 154.072 997.017 153.234 996.454 153.078C995.787 152.895 995.134 152.662 994.486 152.403C995.655 146.263 997.088 140.207 999.084 134.272C1000.1 134.855 1001.13 135.408 1002.17 135.96C1000.05 141.734 998.294 147.636 996.906 153.626C996.896 153.654 996.891 153.683 996.885 153.713C995.925 157.871 995.125 162.066 994.53 166.291C993.824 171.306 993.404 176.276 993.194 181.221C992.44 181.191 991.69 181.219 990.942 181.296C991.239 179.137 991.274 176.875 991.44 174.886C991.854 169.907 992.356 164.977 993.153 160.039C993.516 157.801 993.9 155.573 994.312 153.355ZM863.994 14.1589C870.601 12.7449 876.861 12.8149 883.219 15.2339C889.324 17.5569 894.174 21.5469 899.469 25.2079C901.815 26.8289 904.281 27.7329 906.858 28.2919C912.266 38.2119 916.907 48.5299 922.651 58.2739C925.268 62.7119 928.387 66.8079 930.922 71.2929C933.367 75.6179 935.699 79.7789 938.957 83.5609C942.857 88.0889 947.027 92.3029 950.252 97.3729C953.258 102.098 954.481 107.812 956.231 113.061C959.475 122.782 968.131 130.002 975.153 137.022C980.64 142.511 986.249 149.938 993.651 153.078C993.585 153.42 993.514 153.758 993.45 154.102C992.493 159.184 991.665 164.272 991.132 169.419C990.758 173.035 991.003 177.488 990.27 181.375C985.447 182.051 980.765 184.575 976.15 185.884C972.767 186.843 969.502 187.908 966.25 189.25C962.236 190.904 955.629 188.021 951.764 186.732C945.631 184.687 938.754 181.984 933.391 178.379C927.147 174.183 923.422 166.067 921.411 159.081C920.122 154.602 920.214 149.77 920.794 145.2C921.343 140.874 922.148 134.981 925.189 131.84C928.468 128.452 931.488 126.95 931.623 121.72C931.891 111.178 929.221 100.2 920.736 93.4489C915.859 89.5659 910.845 85.8829 906.045 81.8879C900.201 77.0299 893.102 72.6849 888.065 67.0279C884.381 62.8919 881.196 59.9559 876.12 57.4999C869.46 54.2779 863.62 50.1829 857.632 45.8779C846.169 37.6369 832.527 34.7899 820.247 28.0099C813.94 24.5279 807.976 20.4369 802.22 16.1159C800.689 14.9669 799.189 13.5589 797.653 12.1619C819.075 17.4439 842.402 18.7789 863.994 14.1589Z" fill="#767168"/>
</svg>
