<svg width="819.982422" height="414.189453" viewBox="0 0 819.982 414.189" fill="none" xmlns="http://www.w3.org/2000/svg" xmlns:xlink="http://www.w3.org/1999/xlink">
	<desc>
			Created with Pixso.
	</desc>
	<defs/>
	<path id="Vector" d="M450.035 88.1113C442.509 84.6504 434.793 81.707 426.919 79.1387C420.031 76.8926 413.287 73.7715 407.742 69.0664C403.215 65.2246 399.215 61.0039 393.781 58.4141C387.327 55.3369 379.436 54.292 372.492 52.8936C364.196 51.2217 356.61 49.0049 349.157 44.9326C341.449 40.7217 333.861 36.2979 326.133 32.124C319.097 28.3242 311.986 24.4902 304.713 21.1689C297.548 17.8955 290.304 18.6533 282.797 16.9814C282.291 16.8691 281.814 17.5859 282.452 17.7275C285.273 18.3545 288.058 18.6104 290.935 18.7871C296.309 19.1191 300.922 20.374 305.812 22.6064C313.089 25.9307 320.182 29.8936 327.221 33.6943C340.827 41.0439 353.397 49.6318 368.698 52.9326C376.385 54.5908 384.261 55.8711 391.699 58.4785C398.235 60.7695 402.95 66.207 408.092 70.5684C412.898 74.6484 418.799 76.8164 424.53 79.2383C432.73 82.7031 441.33 85.0469 449.467 88.7891C449.906 88.9902 450.603 88.3711 450.035 88.1113Z" fill="#A1A9AC" fill-opacity="1.000000" fill-rule="nonzero"/>
	<path id="Vector" d="M158.528 18.54C158.851 29.6436 164.684 38.7363 172.021 46.6436C176.158 51.1025 179.196 55.7158 182.292 60.9238C184.838 65.2012 187.922 69.4375 192.042 72.3047C192.433 72.5742 193.243 71.9922 192.818 71.6992C184.518 65.9238 181.456 55.5635 174.84 48.2363C166.925 39.4697 159.841 30.6768 159.483 18.292C159.466 17.7646 158.514 18.0615 158.528 18.54Z" fill="#A1A9AC" fill-opacity="1.000000" fill-rule="nonzero"/>
	<path id="Vector" d="M193.789 19.7002C188.778 22.8154 183.202 24.2217 177.872 26.5986C172.03 29.2031 166.932 33.1475 160.99 35.5615C147.438 41.0693 131.456 34.2031 117.568 33.2871C111.933 32.9141 106.214 33.5654 100.664 34.4775C95.3623 35.3506 91.2637 29.0068 87.2148 26.0391C82.2402 22.3955 76.6582 19.7539 71.7295 16.0352C67.0977 12.541 62.7148 8.81152 57.3984 6.38574C56.9561 6.18457 56.3086 6.84082 56.877 7.10059C63.1914 9.98145 68.3213 14.7354 73.8896 18.7783C79.248 22.6719 85.2383 25.4014 90.3721 29.6787C92.9766 31.8486 94.6455 35.4678 98.3398 35.4873C101.62 35.5068 104.986 34.5225 108.263 34.2461C112.521 33.8877 116.761 33.9756 121.015 34.3359C134.04 35.4404 146.599 40.5166 159.646 36.8154C165.377 35.1885 170.293 31.3789 175.465 28.5713C181.523 25.2822 188.351 23.9873 194.255 20.3154C194.811 19.9697 194.276 19.3975 193.789 19.7002Z" fill="#A1A9AC" fill-opacity="1.000000" fill-rule="nonzero"/>
	<path id="Vector" d="M96.9912 35.2461C95.7021 39.3223 92.874 42.7227 92.1875 47.0156C92.1104 47.5078 93.1035 47.6152 93.1816 47.1172C93.8574 42.8926 96.6611 39.5557 97.9297 35.543C98.0918 35.0264 97.1318 34.7939 96.9912 35.2461Z" fill="#A1A9AC" fill-opacity="1.000000" fill-rule="nonzero"/>
	<path id="Vector" d="M407.375 126.27C397.077 125.674 388.755 115.32 380.268 110.23C369.328 103.676 357.403 98.6543 346.127 92.6953C336.01 87.3438 325.754 80.5488 314.975 76.6953C311.269 75.3691 307.277 75.8105 303.574 76.8633C297.119 78.6953 291.369 80.7305 284.538 80.5977C281.823 80.5449 279.851 81.8535 278.271 84.002C276.932 85.8242 276.598 87.7422 274.731 89.2969C271.651 91.8613 266.116 89.7812 262.791 88.7695C252.361 85.5996 243.003 86.3848 232.565 89.1758C222.838 91.7773 212.813 92.7227 204.018 97.8359C192.922 104.285 180.577 108.105 168.361 111.99C167.734 112.191 168.215 112.826 168.75 112.656C179.375 109.277 191.037 106.223 200.748 100.691C206.006 97.6934 210.795 94.5352 216.902 93.5918C222.276 92.7637 227.458 91.3477 232.696 89.9121C238.516 88.3184 244.332 87.1016 250.397 87.1855C256.125 87.2656 261.298 89.377 266.772 90.6953C269.764 91.416 272.619 91.2715 275.339 89.8418C280.033 87.377 277.746 81.2246 285.527 81.375C289.844 81.459 293.867 80.6621 297.97 79.3789C305.432 77.043 311.374 75.5527 318.731 79.1934C330.073 84.8066 341.126 91.0742 352.356 96.9199C363.294 102.615 374.949 107.307 385.124 114.35C392.006 119.117 398.333 126.51 407.24 127.025C407.81 127.061 408.029 126.307 407.375 126.27Z" fill="#A1A9AC" fill-opacity="1.000000" fill-rule="nonzero"/>
	<path id="Vector" d="M325.352 82.2148C317.659 89.0293 311.023 96.6348 305.476 105.289C302.692 109.635 298.816 113.021 295.911 117.268C292.755 121.873 290.581 127.389 287.619 132.176C287.364 132.586 287.916 133.328 288.245 132.799C290.974 128.393 293.62 123.912 295.784 119.197C297.86 114.676 302.348 111.352 305.223 107.33C311.583 98.4336 317.606 90.3184 325.851 83.0156C326.204 82.7012 325.788 81.8281 325.352 82.2148Z" fill="#A1A9AC" fill-opacity="1.000000" fill-rule="nonzero"/>
	<path id="Vector" d="M289.13 131.223C280.504 138.645 273.541 145.771 261.494 146.338C256.063 146.594 250.596 146.062 245.167 145.92C238.999 145.758 234.432 145.469 229.963 140.719C223.928 134.301 220.027 126.305 213.202 120.588C210.101 117.988 206.455 116.732 202.705 115.395C196.944 113.334 192.439 109.617 186.898 107.23C186.46 107.043 185.718 107.627 186.288 107.871C191.316 110.035 195.454 113.531 200.613 115.496C206.979 117.924 211.965 120.096 216.675 125.16C222.274 131.182 226.925 143.283 235.474 145.779C239.708 147.018 244.212 146.629 248.577 146.789C254.664 147.02 260.703 147.385 266.77 146.65C276.14 145.52 283.191 137.412 289.914 131.629C290.383 131.227 289.489 130.912 289.13 131.223Z" fill="#A1A9AC" fill-opacity="1.000000" fill-rule="nonzero"/>
	<path id="Vector" d="M170.106 112.363C164.535 114.188 160.139 117.689 155.943 121.686C150.066 127.289 144.34 132.797 137.338 137.021C130.713 141.02 123.192 143.906 116.269 147.385C108.415 151.328 100.438 155.131 92.7217 159.336C78.8125 166.916 64.8975 175.627 48.8613 177.621C40.6123 178.646 32.4307 177.611 24.1436 178.967C16.1416 180.271 8.19043 182.021 0.330078 183.988C-0.135742 184.104 -0.108398 185.098 0.410156 184.969C7.71387 183.141 15.0762 181.6 22.4834 180.248C30.8027 178.727 38.8525 179.381 47.1904 178.734C62.2139 177.574 75.7617 169.814 88.6533 162.639C103.008 154.646 117.985 146.629 133.125 140.227C139.879 137.371 145.646 132.5 151.057 127.658C157.133 122.221 162.143 115.975 170.19 113.344C170.641 113.195 170.607 112.199 170.106 112.363Z" fill="#A1A9AC" fill-opacity="1.000000" fill-rule="nonzero"/>
	<path id="Vector" d="M57.2227 177.949C64.2881 176.979 71.3418 175.945 78.334 174.533C85.9941 172.986 93.4014 170.553 101.109 169.205C108.291 167.947 115.552 167.209 122.724 165.881C129.871 164.557 136.675 162.098 143.511 159.689C150.735 157.146 157.968 154.67 165.454 153.014C173.521 151.227 182.577 152.738 190.761 152.812C198.622 152.883 206.257 152.039 214.146 152.707C222.056 153.377 229.896 154.768 237.77 155.744C252.31 157.547 265.772 156.266 279.683 151.627C289.949 148.201 299.029 144.855 304.773 135.252C312.511 122.311 326.172 112.982 340.483 108.395C345.796 106.689 352.164 106.416 356.88 103.262C359.686 101.385 361.781 99.0996 364.894 97.5723C367.232 96.4238 369.289 95.3027 371.104 93.4082C371.532 92.959 370.622 92.709 370.292 93.0527C367.84 95.6191 364.719 96.3828 361.889 98.2793C358.387 100.625 356.191 103.221 351.959 104.58C345.935 106.512 339.781 107.57 333.913 110.02C323.685 114.291 312.223 121.82 306.149 131.223C302.318 137.16 299.697 142.035 293.206 145.508C287.331 148.65 280.497 150.691 274.161 152.596C257.834 157.502 241.984 155.592 225.43 153.273C218.704 152.336 211.977 151.592 205.184 151.467C197.984 151.336 190.854 152.133 183.631 151.873C176.979 151.635 170.148 151.211 163.6 152.66C157.188 154.08 150.953 156.297 144.762 158.461C137.423 161.025 130.192 163.621 122.553 165.154C115.407 166.588 108.129 167.301 100.94 168.477C93.7881 169.648 86.918 171.867 79.8604 173.447C72.3398 175.129 64.6816 176.176 57.0527 177.221C56.4297 177.303 56.6162 178.033 57.2227 177.949Z" fill="#A1A9AC" fill-opacity="1.000000" fill-rule="nonzero"/>
	<path id="Vector" d="M405.499 127.094C410.978 129.654 416.9 130.941 422.8 132.145C429.93 133.598 437.038 135.766 443.97 137.969C458.278 142.518 471.835 149.076 486.257 153.369C500.994 157.754 516.308 158.863 531.543 160.332C547.499 161.871 563.035 164.992 578.863 167.27C584.253 168.043 589.974 168.691 595.07 166.35C597.579 165.195 599.985 163.844 602.484 162.668C606.954 160.57 612.218 160.457 617.061 159.982C632.742 158.449 648.593 158.77 664.255 160.332C668.223 160.729 673.317 165.322 677.104 162.879C679.234 161.504 679.176 157.303 679.382 155.184C680.116 147.609 685.276 144.342 690.776 140.084C696.361 135.762 701.339 130.537 706.15 125.389C714.181 116.787 721.392 107.449 728.675 98.2246C732.323 93.6035 735.964 88.957 739.75 84.4492C743.735 79.7012 748.688 75.8711 752.908 71.3457C756.319 67.6875 757.852 63.8633 759.969 59.3867C760.758 57.7158 761.245 55.874 761.838 54.1318C763.588 48.9922 766.345 46.2422 771.483 44.5127C781.802 41.0352 792.683 37.0205 802.149 31.5459C802.593 31.29 802.514 30.4229 801.947 30.751C795.608 34.417 788.733 36.8857 781.956 39.5986C778.941 40.8057 776.02 42.2471 772.908 43.1924C770.747 43.8467 767.949 44.5127 766.147 45.9922C762.705 48.8154 761.487 52.7236 760.104 56.8301C759.043 59.9844 757.566 63.1426 756.085 66.127C754.023 70.2812 749.691 73.5371 746.364 76.6836C725.28 96.6074 711.707 123.414 688.191 141.096C684.826 143.625 681.682 145.99 679.783 149.832C678.805 151.811 678.746 154.023 678.415 156.154C678.311 156.826 678.266 157.531 678.196 158.205C677.756 162.555 673.566 162.572 670.491 161.109C664.749 158.377 657.608 158.75 651.376 158.408C643.165 157.961 634.933 158.01 626.721 158.393C619.966 158.707 613.071 159.188 606.417 160.438C599.948 161.652 595.146 166.697 588.346 167.045C580.344 167.455 572.076 165.217 564.277 163.695C556.707 162.221 549.054 161.236 541.391 160.393C529.158 159.043 516.883 158.123 504.683 156.471C492.011 154.752 479.787 150.557 467.878 146.033C457.388 142.051 447.149 137.723 436.332 134.666C426.331 131.842 415.39 130.629 405.934 126.205C405.502 126.008 405.009 126.863 405.499 127.094Z" fill="#A1A9AC" fill-opacity="1.000000" fill-rule="nonzero"/>
	<path id="Vector" d="M804.872 406.193C803.629 400.455 800.718 395.576 797.44 390.773C792.959 384.211 788.497 378.15 785.01 370.953C778.258 357.008 771.061 343.188 764.742 329.047C761.772 322.398 759.346 315.531 757.824 308.406C756.141 300.525 757.311 292.779 756.647 284.822C756.039 277.545 753.588 270.596 752.807 263.365C751.942 255.369 751.928 247.285 751.615 239.256C751.322 231.721 750.354 224.26 750.141 216.723C749.904 208.338 750.125 199.945 750.294 191.561C750.445 184.008 750.432 176.457 750.712 168.908C750.955 162.418 751.739 154.928 748.809 148.91C746.952 145.096 742.671 142.744 739.432 140.291C733.191 135.564 728.935 128.277 725.547 121.365C720.548 111.168 716.631 100.746 713.403 89.8945C711.077 82.0781 707.055 74.8418 697.941 74.9746C691.642 75.0684 685.677 76.8223 679.617 78.3711C671.418 80.4648 663.098 82.0508 654.708 83.1328C638.549 85.2188 622.502 87.6035 606.42 90.2539C590.824 92.8262 575.106 95.502 559.294 96.1504C543.802 96.7852 528.271 95.918 512.773 95.873C497.834 95.832 483.249 94.123 468.954 89.6758C456.384 85.7637 443.798 80.5156 431.742 75.2324C425.388 72.4492 419.182 69.3086 414.088 64.5391C410.36 61.0508 406.84 57.7793 402.112 55.7031C396.364 53.1797 389.61 52.3916 383.508 51.1348C374.824 49.3418 367.645 44.4316 360.176 39.9004C347.452 32.1777 334.81 24.3369 321.406 17.8223C308.443 11.5195 295.988 10.0459 281.731 11.3691C274.464 12.0459 267.253 13.1406 259.968 13.6133C252.434 14.1016 245.071 14.0098 237.589 15.2988C211.206 19.8438 189.093 35.8848 166.556 49.208C154.201 56.5137 141.001 62.9961 126.401 63.6719C111.124 64.377 95.7695 61.5117 80.6719 59.5879C63.2969 57.376 46.4961 52.0527 29.0117 50.4023C28.3613 50.3408 28.4521 51.1172 29.0234 51.1738C44.1875 52.6055 58.8906 56.542 73.8086 59.4199C88.1445 62.1836 103.375 63.7773 117.955 64.4219C145.068 65.6133 166.545 50.4434 188.688 36.8477C200.724 29.4531 213.296 22.9092 226.832 18.7383C241.385 14.2559 256.215 15.0801 271.151 13.3809C278.365 12.5605 285.545 11.6348 292.814 11.5352C302.882 11.4004 311.909 14.1396 320.914 18.4189C334.355 24.8086 346.989 32.7734 359.686 40.4961C365.188 43.8457 370.668 47.666 376.682 50.0293C383.188 52.5898 390.805 53.5801 397.578 55.1445C404.661 56.7812 409.292 61.1465 414.423 65.9492C418.478 69.7441 423.602 72.3086 428.607 74.6289C452.496 85.6934 477.658 95.207 504.156 96.4512C518.854 97.1426 533.705 97.0918 548.42 97.123C564.132 97.1562 579.451 95.2422 594.96 92.9043C611.259 90.4473 627.463 87.4023 643.798 85.1758C658.356 83.1914 672.346 81.0508 686.616 77.4336C694.48 75.4414 703.695 73.8691 708.895 81.5137C711.953 86.0117 713.012 91.9102 714.474 97.0605C715.908 102.117 718.224 106.779 720.27 111.605C722.7 117.336 725.158 123.018 728.332 128.383C731.311 133.412 735.172 138.037 739.836 141.57C741.86 143.102 743.942 144.516 745.79 146.268C749.452 149.74 749.668 154.863 749.862 159.568C750.507 175.236 749.185 191.148 749.079 206.84C748.976 222.566 750.486 238.314 751.183 254.027C751.486 260.918 752.44 267.287 753.919 273.988C755.734 282.205 755.903 289.992 755.717 298.338C755.399 312.566 762.446 326.773 768.56 339.229C771.815 345.861 775.179 352.439 778.372 359.105C781.548 365.734 784.321 372.83 788.188 379.086C793.704 388.01 801.641 395.693 803.929 406.27C804.032 406.723 804.995 406.76 804.872 406.193Z" fill="#A1A9AC" fill-opacity="1.000000" fill-rule="nonzero"/>
	<path id="Vector" d="M819.638 99.6875C807.49 100.74 796.315 105.746 784.532 108.465C778.044 109.963 771.531 111.305 765.203 113.412C759.303 115.379 753.717 118.213 747.891 120.383C728.803 127.496 714.922 145.178 707.389 163.561C704.717 170.082 702.039 175.568 694.238 175.15C691.223 174.988 687.544 174.307 684.785 175.77C684.275 176.041 683.956 176.699 683.684 177.168C681.646 180.699 679.05 182.133 675.349 183.266C671.796 184.352 670.986 184.869 668.3 187.438C662.823 192.668 662.541 190.98 661.408 194.914C659.767 200.619 657.983 203.711 655.664 209.141C653.345 214.57 654.081 220.514 651.499 226.051C651.223 226.645 652.089 226.668 652.308 226.199C654.419 221.668 655.057 217.24 655.527 212.295C656.014 207.189 659.461 204.273 660.972 199.385C663.684 190.605 662.729 193.797 669.651 187.184C675.155 181.926 681.198 184.805 684.493 177.32C685.85 174.236 694.905 176.271 697.821 175.971C700.622 175.682 702.664 173.686 704.369 171.631C707.617 167.717 708.816 161.824 711.042 157.295C713.624 152.035 716.731 146.822 720.319 142.195C723.758 137.762 728.283 134.297 732.427 130.559C737.113 126.334 741.959 123.281 747.944 121.203C753.277 119.35 758.367 116.834 763.639 114.814C769.24 112.67 775.182 111.373 781.023 110.076C793.881 107.223 806.271 101.695 819.462 100.555C819.941 100.512 820.26 99.6328 819.638 99.6875Z" fill="#A1A9AC" fill-opacity="1.000000" fill-rule="nonzero"/>
	<path id="Vector" d="M817.086 178.42C814.486 184.855 807.635 187.828 802.976 192.572C797.817 197.828 793.62 203.914 788.403 209.154C783.194 214.389 778.669 219.998 773.791 225.518C768.812 231.156 763.255 236.246 758.014 241.629C756.615 243.066 755.184 244.232 753.375 245.17C750.883 246.459 749.272 243.178 748.303 241.748C747.181 240.094 745.484 238.861 743.939 237.643C738.315 233.203 731.859 229.926 726.215 225.477C721.025 221.385 717.688 215.389 712.527 211.311C705.603 205.84 701.025 201.229 700.61 191.877C700.292 184.711 700.466 177.527 700.131 170.348C699.839 164.119 700.192 157.754 697.778 151.902C696.188 148.049 694.14 144.857 693.652 140.549C693.25 136.998 693.611 133.369 693.652 129.803C693.724 123.592 691.825 117.594 689.458 111.926C687.471 107.17 685.91 103.119 686.359 97.8691C686.718 93.666 689.397 89.4258 691.606 85.9121C695.089 80.375 702.12 82.2227 706.009 77.2285C708.552 73.9648 709.351 69.1914 710.237 65.2656C711.717 58.7188 713.1 52.1484 714.538 45.5908C714.942 43.749 714.875 42.0195 714.875 40.1357C714.875 39.5088 714.127 39.5811 714.127 40.1973C714.127 47.1406 711.71 53.958 710.416 60.7578C709.355 66.3203 708.394 73.7773 704.196 77.9551C701.926 80.2129 698.351 80.1836 695.464 81.1504C693.481 81.8145 692.194 83.6445 691.021 85.25C687.658 89.8457 685.479 95.3281 685.477 101.016C685.475 107.156 689.235 112.807 691.079 118.467C693.657 126.385 692.192 134.32 693.108 142.398C693.814 148.623 698.411 153.354 698.875 159.84C699.419 167.477 699.956 175.27 699.958 182.92C699.959 188.488 698.87 195.031 701.257 200.273C703.419 205.023 707.112 208.209 711.148 211.365C716.275 215.381 719.737 221.014 724.637 225.266C730.086 229.994 736.389 233.457 742.293 237.551C745.242 239.596 747.427 241.939 749.412 244.896C749.975 245.736 750.59 246.152 751.519 246.475C755.314 247.791 760.796 239.979 762.894 237.93C768.052 232.889 773.135 227.816 777.74 222.25C782.852 216.07 788.49 210.568 793.947 204.711C798.388 199.939 801.913 194.504 806.839 190.166C811.017 186.484 815.584 184.287 817.773 178.869C817.968 178.389 817.332 177.814 817.086 178.42Z" fill="#A1A9AC" fill-opacity="1.000000" fill-rule="nonzero"/>
	<path id="Vector" d="M703.895 53.9248C710.083 53.4639 716.26 55.0244 722.412 54.1514C724.894 53.7979 727.284 53.0029 729.778 52.6768C734.618 52.0479 737.636 56.0762 740.276 59.4102C741.985 61.5703 743.878 62.7656 745.943 64.5898C748.34 66.7031 750.092 69.5879 751.916 72.1777C755.764 77.6445 759.088 83.4434 763.043 88.8359C763.381 89.2969 763.855 88.4395 763.581 88.0645C759.268 82.1797 755.599 75.8711 751.4 69.9102C747.501 64.373 742.351 60.1152 737.861 55.0889C734.341 51.1494 730.187 51.4014 725.426 52.5088C718.219 54.1846 711.154 52.3994 703.884 52.9424C703.409 52.9756 703.357 53.9639 703.895 53.9248Z" fill="#A1A9AC" fill-opacity="1.000000" fill-rule="nonzero"/>
	<path id="Vector" d="M748.154 85.5566C743.215 94.1035 737.734 101.883 729.882 107.967C724.188 112.377 719.723 118.076 715.661 123.967C710.136 131.98 705.058 139.164 697.382 145.332C690.819 150.604 685.296 157.064 678.28 161.777C677.88 162.049 678.047 162.963 678.565 162.613C686.02 157.607 691.974 150.738 698.956 145.133C705.181 140.131 710.224 133.928 714.486 127.215C719.957 118.6 726.241 112.496 733.864 105.881C740.1 100.469 744.67 93.1094 748.761 86.0332C749.044 85.541 748.483 84.9883 748.154 85.5566Z" fill="#A1A9AC" fill-opacity="1.000000" fill-rule="nonzero"/>
	<path id="Vector" d="M677.93 162.182C677.883 165.787 677.277 170.404 679.609 173.514C680.807 175.113 682.189 176.162 683.82 177.328C687.317 179.824 688.023 184.85 688.873 188.709C691.546 200.83 692.624 213.201 695.439 225.318C695.546 225.783 696.542 225.859 696.422 225.348C693.72 213.713 692.401 201.918 690.157 190.213C689.375 186.137 688.612 180.943 685.687 177.828C683.52 175.518 681.516 175.154 679.798 172.012C678.288 169.248 678.872 165.225 678.912 162.211C678.921 161.74 677.939 161.643 677.93 162.182Z" fill="#A1A9AC" fill-opacity="1.000000" fill-rule="nonzero"/>
	<path id="Vector" d="M673.919 183.527C671.991 176.619 668.26 170.445 665.431 163.896C664.354 161.402 662.675 159.195 661.261 156.891C658.702 152.725 658.254 147.984 657.847 143.217C657.228 135.979 655.005 128.875 653.099 121.891C650.962 114.061 650.929 105.797 648.452 98.1074C648.288 97.5957 647.411 98.0645 647.558 98.5195C649.853 105.65 649.686 113.311 651.719 120.551C654.174 129.295 656.368 137.926 657.251 146.979C657.837 152.992 660.309 157.174 663.409 162.164C667.372 168.539 671.009 176.713 673.024 183.939C673.169 184.453 674.048 183.988 673.919 183.527Z" fill="#A1A9AC" fill-opacity="1.000000" fill-rule="nonzero"/>
	<path id="Vector" d="M690.637 113.955C687.159 114.52 684.248 116.111 681.152 117.73C676.084 120.381 670.997 120.281 665.446 120.34C660.679 120.393 656.059 121.93 651.43 122.922C645.975 124.09 640.463 124.945 634.928 125.627C634.452 125.686 634.374 126.676 634.906 126.609C639.844 126.004 644.743 125.225 649.626 124.27C654.897 123.24 660.038 121.545 665.424 121.322C669.327 121.164 673.516 121.719 677.28 120.383C681.844 118.762 685.759 115.729 690.615 114.938C691.087 114.861 691.163 113.871 690.637 113.955Z" fill="#A1A9AC" fill-opacity="1.000000" fill-rule="nonzero"/>
	<path id="Vector" d="M655.189 133.088C649.778 133.363 644.773 135.445 639.431 136.182C633.404 137.016 626.788 136.273 620.702 136.273C620.23 136.273 619.901 137.189 620.48 137.189C626.139 137.189 631.799 137.189 637.459 137.189C643.443 137.189 648.997 134.309 654.968 134.004C655.437 133.982 655.763 133.059 655.189 133.088Z" fill="#A1A9AC" fill-opacity="1.000000" fill-rule="nonzero"/>
	<path id="Vector" d="M654.638 129.148C658.665 129.113 662.531 128.49 666.433 127.531C667.069 127.377 666.502 126.711 666.007 126.83C662.183 127.77 658.398 128.365 654.457 128.398C653.799 128.404 654.079 129.152 654.638 129.148Z" fill="#A1A9AC" fill-opacity="1.000000" fill-rule="nonzero"/>
	<path id="Vector" d="M707.759 6.8291C707.597 14.0176 705.455 19.9902 699.652 24.4688C696.472 26.9199 693.547 28.9541 691.4 32.4492C688.617 36.9785 686.638 42.4131 684.982 47.4297C683.197 52.834 682.926 58.5527 680.736 63.8652C680.516 64.3945 681.171 64.8242 681.42 64.2207C686.235 52.541 685.665 37.7676 695.661 28.5645C699.302 25.2129 703.212 23.2812 705.845 18.9023C707.999 15.3184 708.421 10.7266 708.512 6.65625C708.524 5.99805 707.771 6.27246 707.759 6.8291Z" fill="#A1A9AC" fill-opacity="1.000000" fill-rule="nonzero"/>
	<path id="Vector" d="M703.868 53.0479C695.202 53.0479 686.536 53.0479 677.87 53.0479C677.222 53.0479 677.338 53.8174 677.913 53.8174C686.579 53.8174 695.245 53.8174 703.911 53.8174C704.561 53.8174 704.444 53.0479 703.868 53.0479Z" fill="#A1A9AC" fill-opacity="1.000000" fill-rule="nonzero"/>
	<path id="Vector" d="M715 41.2529C715.319 26.6494 722.773 13.8779 727.711 0.499023C727.898 -0.00488281 726.923 -0.196289 726.758 0.25293C721.795 13.6943 714.322 26.5361 714.001 41.2041C713.992 41.7061 714.99 41.7529 715 41.2529Z" fill="#A1A9AC" fill-opacity="1.000000" fill-rule="nonzero"/>
	<path id="Vector" d="M754.612 275.359C749.567 268.957 748.431 260.979 748.036 253.064C747.631 244.992 747.753 236.855 747.497 228.771C746.921 210.586 747.634 192.383 747.229 174.199C747.046 165.955 746.167 157.295 751.428 150.287C756.738 143.217 766.553 141.016 774.449 138.312C782.282 135.631 789.023 130.627 796.985 128.305C801.744 126.916 807.07 125.736 810.259 121.631C810.607 121.188 810.153 120.535 809.748 121.055C805.201 126.906 795.704 127.215 789.311 130.346C785.258 132.332 781.379 134.615 777.208 136.359C772.925 138.15 768.392 139.318 764.047 140.953C757.717 143.334 751.807 147.256 748.609 153.348C745.317 159.619 746.211 167.541 746.418 174.338C747.012 193.834 746.098 213.359 746.82 232.859C747.339 246.881 744.677 264.316 753.976 276.115C754.306 276.531 754.908 275.736 754.612 275.359Z" fill="#A1A9AC" fill-opacity="1.000000" fill-rule="nonzero"/>
	<path id="Vector" d="M695.845 208.887C691.46 209.215 690.491 212.395 690.543 216.369C690.65 224.578 691.653 232.812 691.737 241.055C691.742 241.557 692.739 241.621 692.734 241.129C692.671 234.947 692.576 228.645 692.114 222.482C691.794 218.217 689.557 210.113 696.055 209.627C696.712 209.578 696.405 208.846 695.845 208.887Z" fill="#A1A9AC" fill-opacity="1.000000" fill-rule="nonzero"/>
	<path id="Vector" d="M725.573 224.385C730.541 211.977 731.912 198.666 734.754 185.699C737.693 172.291 743.337 159.504 744.708 145.764C744.761 145.227 743.771 145.26 743.724 145.734C742.412 158.896 737.095 171.123 734.174 183.934C731.112 197.375 729.818 211.275 724.658 224.162C724.44 224.703 725.398 224.822 725.573 224.385Z" fill="#A1A9AC" fill-opacity="1.000000" fill-rule="nonzero"/>
	<path id="Vector" d="M735.544 180.496C727.328 175.432 719.311 169.752 713.487 161.934C709.652 156.785 708.536 150.928 708.007 144.658C707.507 138.73 706.296 133.049 705.453 127.172C705.382 126.674 704.383 126.701 704.453 127.189C705.378 133.641 706.604 139.912 707.154 146.42C707.553 151.148 708.535 155.873 711.079 159.955C716.779 169.098 725.82 175.475 734.846 181.039C735.25 181.287 736.071 180.818 735.544 180.496Z" fill="#A1A9AC" fill-opacity="1.000000" fill-rule="nonzero"/>
	<path id="Vector" d="M740.742 164.977C734.919 158.814 728.258 153.398 724.44 145.66C722.185 141.094 721.261 135.639 719.708 130.793C718.226 126.162 716.401 121.682 714.28 117.312C714.009 116.756 713.46 117.523 713.668 117.951C718.114 127.107 719.859 137.039 723.829 146.303C727.193 154.154 734.548 159.742 740.262 165.791C740.657 166.205 741.064 165.316 740.742 164.977Z" fill="#A1A9AC" fill-opacity="1.000000" fill-rule="nonzero"/>
	<path id="Vector" d="M761.851 115.162C764.147 133.668 771.118 151.98 770.245 170.828C770.078 174.432 770.964 178.24 775.516 177.994C779.719 177.764 783.025 177.781 787.127 178.812C791.355 179.875 795.983 179.641 800.31 179.645C800.786 179.645 801.116 178.705 800.596 178.705C797.238 178.699 793.894 178.65 790.545 178.371C787.277 178.094 784.239 176.787 780.965 176.582C777.806 176.383 774.734 177.947 771.88 175.6C770.306 174.305 770.977 166.404 770.794 164.213C769.397 147.445 764.72 131.441 762.654 114.795C762.579 114.174 761.792 114.684 761.851 115.162Z" fill="#A1A9AC" fill-opacity="1.000000" fill-rule="nonzero"/>
	<path id="Vector" d="M769.988 342.736C764.333 347.699 760.582 354.102 755.663 359.717C751.909 364 750.662 369.793 749.356 375.172C745.783 389.893 739.261 402.465 728.605 413.303C728.266 413.646 728.615 414.51 729.053 414.064C737.852 405.117 744.176 394.912 748.015 382.953C750.175 376.223 750.937 369.002 754.435 362.762C756.252 359.518 759.272 356.703 761.488 353.682C764.206 349.977 766.974 346.539 770.437 343.502C770.802 343.176 770.458 342.326 769.988 342.736Z" fill="#A1A9AC" fill-opacity="1.000000" fill-rule="nonzero"/>
	<path id="Vector" d="M745.317 390.377C741.155 390.139 738.52 385.969 734.807 384.551C734.343 384.375 734.053 385.33 734.525 385.51C738.346 386.971 740.916 391.111 745.236 391.357C745.709 391.385 745.856 390.406 745.317 390.377Z" fill="#A1A9AC" fill-opacity="1.000000" fill-rule="nonzero"/>
	<path id="Vector" d="M750.368 374.334C755.213 375.643 758.574 379.346 762.677 382.006C766.782 384.67 771.207 386.377 775.02 389.555C783.338 396.488 791.983 403.227 797.96 412.414C798.252 412.861 798.965 412.17 798.704 411.768C793.01 403.016 784.954 396.406 776.884 389.939C772.509 386.436 768.18 383.914 763.283 381.211C758.871 378.773 755.812 374.803 750.796 373.445C750.333 373.322 749.854 374.195 750.368 374.334Z" fill="#A1A9AC" fill-opacity="1.000000" fill-rule="nonzero"/>
</svg>
