<svg width="762" height="392" viewBox="0 0 762 392" fill="none" xmlns="http://www.w3.org/2000/svg">
<path d="M30.165 355.301C29.376 356.971 28.889 358.813 28.296 360.555C26.546 365.695 23.789 368.445 18.65 370.174C12.492 372.249 6.138 374.525 0 377.179V378.338C2.715 377.233 5.455 376.179 8.18 375.088C11.194 373.881 14.115 372.44 17.227 371.494C19.389 370.84 22.186 370.174 23.987 368.695C27.43 365.871 28.647 361.963 30.03 357.857C31.092 354.703 32.569 351.545 34.05 348.559C34.964 346.717 36.334 345.058 37.856 343.5C38.149 343.926 38.439 344.354 38.736 344.775C42.636 350.312 47.785 354.571 52.275 359.597C55.795 363.536 59.949 363.284 64.71 362.177C68.904 361.201 73.051 361.399 77.217 361.627C76.679 364.116 76.143 366.606 75.597 369.093C75.291 370.487 75.256 371.817 75.257 373.197C75.189 373.255 75.138 373.329 75.136 373.431C74.994 379.91 73.445 386.028 71.337 391.998H72.374C74.464 386.041 75.993 379.937 76.134 373.479C76.135 373.396 76.103 373.331 76.059 373.273C76.211 369.373 77.038 365.509 77.959 361.666C80.706 361.816 83.464 361.95 86.251 361.742C86.336 361.736 86.403 361.692 86.46 361.636C92.771 361.636 99.082 361.636 105.393 361.636C103.286 370.546 101.458 379.692 94.476 386.119C92.079 388.325 89.568 389.92 87.379 391.998H88.443C89.067 391.38 89.745 390.786 90.483 390.216C93.663 387.765 96.588 385.73 98.735 382.235C101.518 377.706 103.497 372.271 105.153 367.255C105.762 365.409 106.192 363.526 106.585 361.637C108.479 361.637 110.372 361.637 112.265 361.637C112.914 361.637 112.798 360.867 112.222 360.867C110.397 360.867 108.572 360.867 106.747 360.867C107.436 357.475 108.059 354.071 109.399 350.819C109.619 350.29 108.965 349.86 108.715 350.464C107.36 353.751 106.432 357.283 105.574 360.867C99.218 360.867 92.862 360.867 86.506 360.867C86.443 360.798 86.358 360.751 86.24 360.76C83.564 360.959 80.89 360.781 78.219 360.584C78.757 358.36 79.298 356.143 79.719 353.928C80.69 348.824 81.588 342.135 84.969 337.837C86.94 339.054 89.309 339.752 92.191 339.71C98.491 339.618 104.455 337.864 110.515 336.314C118.714 334.22 127.035 332.634 135.425 331.552C151.583 329.466 167.63 327.081 183.712 324.431C199.308 321.86 215.026 319.183 230.838 318.535C246.33 317.9 261.862 318.768 277.359 318.813C292.298 318.854 306.884 320.563 321.179 325.01C333.748 328.922 346.334 334.17 358.39 339.453C364.744 342.236 370.952 345.377 376.044 350.146C379.773 353.635 383.293 356.906 388.021 358.982C393.769 361.506 400.523 362.294 406.625 363.551C415.309 365.344 422.488 370.254 429.957 374.785C439.648 380.668 449.296 386.615 459.267 391.996H460.776C450.423 386.5 440.451 380.275 430.448 374.19C424.946 370.841 419.466 367.02 413.452 364.657C406.946 362.097 399.329 361.106 392.556 359.542C385.472 357.905 380.841 353.54 375.711 348.737C371.657 344.942 366.532 342.378 361.526 340.058C337.637 328.993 312.475 319.479 285.977 318.235C271.28 317.544 256.428 317.595 241.713 317.563C226.001 317.53 210.682 319.444 195.173 321.782C178.874 324.239 162.67 327.284 146.335 329.511C131.777 331.495 117.787 333.636 103.518 337.253C97.517 338.774 90.734 340.035 85.545 337.157C85.676 337.013 85.8 336.864 85.938 336.727C88.208 334.469 91.783 334.498 94.67 333.531C96.652 332.867 97.94 331.037 99.113 329.432C102.476 324.836 104.655 319.354 104.657 313.666C104.658 309.065 102.549 304.741 100.715 300.48C103.669 299.78 106.255 298.376 108.983 296.95C114.051 294.3 119.139 294.399 124.69 294.341C129.222 294.291 133.623 292.903 138.025 291.913C140.056 299.624 140.134 307.736 142.569 315.295C142.733 315.807 143.61 315.338 143.463 314.883C141.168 307.752 141.335 300.092 139.302 292.852C139.195 292.468 139.091 292.086 138.984 291.704C144.348 290.566 149.766 289.724 155.207 289.055C155.683 288.996 155.761 288.006 155.229 288.072C150.291 288.678 145.393 289.457 140.51 290.412C139.915 290.528 139.322 290.655 138.729 290.785C137.873 287.679 137.064 284.58 136.341 281.468C141.223 280.952 145.825 279.173 150.703 278.5C156.73 277.666 163.346 278.41 169.432 278.41C169.903 278.41 170.233 277.494 169.653 277.494C163.995 277.494 158.335 277.494 152.676 277.494C147.017 277.494 141.745 280.063 136.141 280.602C135.086 275.942 134.238 271.244 133.768 266.425C133.372 262.359 132.102 259.13 130.37 255.923C133.212 256.111 136.07 256.127 138.758 256.275C146.969 256.721 155.201 256.674 163.413 256.291C170.168 255.975 177.062 255.496 183.717 254.246C190.186 253.031 194.988 247.986 201.788 247.637C209.79 247.227 218.059 249.467 225.857 250.988C233.427 252.463 241.08 253.447 248.743 254.291C260.976 255.639 273.251 256.559 285.451 258.213C298.123 259.93 310.347 264.127 322.256 268.65C332.746 272.633 342.985 276.961 353.803 280.016C363.229 282.68 373.49 283.912 382.557 287.748C382.272 287.943 382.262 288.385 382.76 288.413C393.059 289.009 401.38 299.364 409.869 304.452C416.073 308.169 422.594 311.392 429.134 314.574C427.94 315.507 426.703 316.395 425.24 317.114C422.902 318.261 420.845 319.382 419.031 321.278C418.601 321.726 419.511 321.976 419.842 321.632C422.295 319.067 425.416 318.302 428.246 316.407C428.912 315.961 429.522 315.507 430.116 315.053C434.781 317.321 439.447 319.578 444.008 321.989C454.125 327.339 464.381 334.135 475.162 337.989C478.867 339.314 482.859 338.872 486.562 337.821C493.017 335.989 498.767 333.952 505.597 334.085C508.312 334.138 510.286 332.829 511.865 330.681C513.205 328.859 513.539 326.941 515.404 325.386C518.484 322.823 524.019 324.902 527.345 325.913C537.775 329.083 547.132 328.298 557.57 325.507C567.297 322.907 577.322 321.96 586.119 316.847C597.213 310.398 609.558 306.577 621.775 302.693C622.402 302.493 621.92 301.857 621.386 302.027C610.761 305.407 599.099 308.46 589.388 313.993C584.13 316.991 579.341 320.148 573.234 321.091C567.859 321.919 562.677 323.335 557.439 324.771C551.621 326.366 545.804 327.581 539.738 327.497C534.011 327.417 528.838 325.306 523.363 323.989C520.373 323.267 517.517 323.411 514.797 324.841C510.102 327.306 512.389 333.458 504.609 333.308C500.291 333.224 496.269 334.021 492.166 335.304C484.705 337.64 478.762 339.13 471.404 335.49C469.268 334.432 467.144 333.346 465.026 332.251C472.615 325.491 479.171 317.96 484.658 309.397C487.443 305.053 491.318 301.666 494.224 297.42C497.38 292.813 499.554 287.299 502.515 282.512C502.588 282.395 502.591 282.252 502.557 282.118C510.494 275.202 517.325 268.882 528.64 268.349C534.07 268.093 539.538 268.624 544.966 268.767C551.134 268.929 555.702 269.218 560.171 273.968C566.206 280.386 570.107 288.382 576.931 294.099C580.033 296.698 583.679 297.953 587.429 299.292C593.189 301.353 597.695 305.069 603.236 307.456C603.674 307.644 604.416 307.06 603.845 306.814C598.818 304.651 594.679 301.155 589.521 299.189C583.156 296.763 578.169 294.591 573.459 289.526C567.859 283.505 563.209 271.403 554.66 268.907C550.426 267.669 545.922 268.058 541.556 267.896C535.47 267.667 529.431 267.302 523.365 268.036C513.994 269.167 506.943 277.273 500.22 283.057C499.794 283.423 500.491 283.709 500.89 283.528C498.522 287.409 496.248 291.355 494.351 295.489C492.275 300.011 487.787 303.335 484.912 307.355C478.551 316.253 472.527 324.368 464.283 331.671C464.238 331.711 464.206 331.761 464.185 331.815C455.342 327.217 446.614 322.362 437.779 317.763C435.545 316.6 433.278 315.483 431.003 314.374C433.166 312.683 435.152 311.078 438.173 310.108C444.198 308.176 450.351 307.119 456.22 304.668C466.449 300.397 477.911 292.869 483.984 283.465C487.814 277.529 490.435 272.654 496.927 269.18C502.802 266.037 509.636 263.996 515.972 262.092C532.298 257.186 548.148 259.096 564.704 261.414C571.429 262.352 578.157 263.096 584.95 263.221C592.149 263.352 599.28 262.555 606.503 262.815C613.153 263.053 619.985 263.477 626.534 262.029C632.946 260.609 639.18 258.391 645.372 256.227C652.71 253.662 659.94 251.068 667.581 249.535C674.726 248.1 682.005 247.387 689.192 246.211C696.344 245.039 703.215 242.822 710.272 241.242C717.793 239.559 725.452 238.512 733.081 237.467C733.704 237.383 733.517 236.655 732.911 236.738C725.845 237.707 718.792 238.742 711.798 240.154C704.138 241.701 696.732 244.133 689.023 245.481C681.841 246.74 674.582 247.477 667.41 248.805C660.262 250.129 653.459 252.588 646.623 254.996C639.398 257.539 632.166 260.016 624.678 261.672C616.612 263.459 607.555 261.949 599.373 261.873C591.51 261.803 583.877 262.647 575.986 261.979C568.078 261.309 560.238 259.918 552.363 258.942C537.824 257.139 524.361 258.42 510.451 263.059C500.183 266.486 491.103 269.83 485.359 279.434C477.623 292.375 463.961 301.703 449.65 306.291C444.338 307.996 437.968 308.27 433.254 311.424C432.091 312.202 431.049 313.05 430.006 313.886C421.464 309.742 412.805 305.727 405.011 300.332C398.641 295.919 392.74 289.266 384.833 287.894C384.826 287.769 384.772 287.656 384.636 287.592C379.157 285.03 373.234 283.744 367.334 282.541C360.204 281.088 353.097 278.92 346.164 276.717C331.856 272.168 318.3 265.608 303.877 261.315C289.14 256.93 273.826 255.822 258.591 254.352C242.636 252.813 227.099 249.693 211.271 247.416C205.882 246.641 200.16 245.994 195.064 248.336C192.556 249.49 190.148 250.842 187.65 252.016C183.181 254.115 177.916 254.227 173.073 254.703C158.663 256.112 144.11 255.942 129.69 254.694C129.042 253.565 128.345 252.427 127.609 251.243C123.762 245.055 120.238 237.18 118.189 230.113C120.4 229.087 122.435 227.751 124.232 226.034C129.708 220.804 131.83 212.555 133.849 205.528C135.491 199.823 137.994 194.788 140.314 189.357C142.634 183.927 141.896 177.985 144.478 172.448C144.755 171.853 143.888 171.831 143.67 172.298C141.558 176.831 140.921 181.257 140.45 186.204C139.964 191.308 135.796 196.169 134.286 201.058C131.574 209.837 129.802 219.675 122.88 226.287C121.391 227.71 119.684 228.619 117.925 229.347C117.72 229.102 117.209 229.347 117.11 229.678C112.727 231.352 108.172 232.196 105.841 236.979C102.756 234.382 102.07 229.651 101.261 225.975C99.664 218.734 98.635 211.404 97.466 204.091C98.753 202.726 99.109 200.592 99.077 198.155C98.971 189.946 97.967 181.712 97.883 173.47C97.878 172.968 96.881 172.903 96.887 173.396C96.949 179.577 97.044 185.88 97.506 192.042C97.734 195.068 98.91 200.016 97.262 202.815C96.531 198.314 95.732 193.823 94.696 189.366C94.589 188.9 93.594 188.825 93.713 189.335C94.825 194.122 95.698 198.937 96.503 203.761C95.816 204.383 94.875 204.8 93.566 204.899C92.91 204.948 93.216 205.68 93.777 205.639C94.986 205.548 95.927 205.235 96.667 204.754C97.75 211.325 98.721 217.911 99.978 224.47C100.761 228.546 101.523 233.741 104.449 236.855C104.765 237.193 105.078 237.485 105.387 237.754C103.436 240.254 95.094 238.428 92.314 238.715C91.612 238.787 90.958 238.968 90.344 239.229C90.249 236.734 90.179 234.242 90.179 231.766C90.177 226.197 91.265 219.654 88.879 214.412C86.718 209.662 83.023 206.477 78.987 203.32C73.86 199.305 70.399 193.672 65.499 189.42C60.05 184.692 53.747 181.229 47.843 177.135C46.083 175.914 44.599 174.584 43.263 173.083C43.381 161.062 43.598 148.012 36.158 138.571C36.048 138.431 35.908 138.435 35.781 138.507C34.387 131.088 34.247 123.949 34.417 116.352C34.736 102.123 27.688 87.9158 21.576 75.4608C21.016 74.3208 20.451 73.1848 19.887 72.0478C19.967 72.0528 20.054 72.0308 20.148 71.9478C25.802 66.9868 29.554 60.5828 34.472 54.9688C38.226 50.6858 39.474 44.8928 40.779 39.5138C42.064 34.2218 43.737 29.2118 45.839 24.4568C49.431 25.2378 51.93 28.8348 55.33 30.1338C55.793 30.3098 56.083 29.3548 55.611 29.1748C52.204 27.8718 49.789 24.4468 46.245 23.5438C49.952 15.4318 54.951 8.07476 61.531 1.38276C61.87 1.03876 61.521 0.175771 61.083 0.620771C54.408 7.40977 49.16 14.9248 45.338 23.3768C45.192 23.3588 45.05 23.3358 44.9 23.3268C44.427 23.2998 44.281 24.2778 44.82 24.3068C44.855 24.3088 44.888 24.3168 44.924 24.3188C43.879 26.7148 42.94 29.1818 42.121 31.7328C41.211 34.5668 40.549 37.4868 39.827 40.3838C39.806 40.3738 39.794 40.3588 39.769 40.3518C34.923 39.0428 31.562 35.3398 27.46 32.6798C23.355 30.0158 18.929 28.3088 15.117 25.1308C9.965 20.8398 4.69 16.6198 0 11.8488V13.2488C4.134 17.3638 8.683 21.0858 13.252 24.7468C17.627 28.2508 21.956 30.7728 26.852 33.4758C31.264 35.9128 34.323 39.8838 39.339 41.2408C39.436 41.2658 39.531 41.2428 39.62 41.1968C38.676 44.9048 37.587 48.5578 35.699 51.9258C33.881 55.1698 30.861 57.9848 28.646 61.0058C25.927 64.7108 23.16 68.1488 19.697 71.1858C19.629 71.2468 19.593 71.3278 19.57 71.4128C16.951 66.1448 14.302 60.8928 11.759 55.5858C8.583 48.9568 5.81 41.8618 1.943 35.6058C1.323 34.6028 0.67 33.6168 0 32.6388V34.7108C1.842 37.5928 3.582 40.5498 5.124 43.7348C11.876 57.6788 19.074 71.4988 25.393 85.6398C28.362 92.2878 30.789 99.1568 32.311 106.282C33.994 114.161 32.824 121.909 33.487 129.866C34.096 137.142 36.546 144.091 37.328 151.323C37.932 156.905 38.12 162.529 38.286 168.147C34.51 167.359 29.28 174.766 27.242 176.757C22.084 181.798 17.001 186.87 12.396 192.437C8.466 197.185 4.229 201.533 0 205.95V207.344C0.567 206.732 1.141 206.125 1.73 205.532C6.939 200.298 11.466 194.689 16.343 189.169C21.322 183.53 26.879 178.441 32.12 173.058C33.518 171.62 34.95 170.454 36.759 169.517C37.323 169.225 37.841 169.176 38.318 169.279C38.378 171.332 38.439 173.383 38.519 175.431C38.812 182.966 39.78 190.427 39.993 197.964C40.23 206.349 40.008 214.743 39.839 223.126C39.688 230.679 39.702 238.23 39.421 245.78C39.223 251.071 38.667 257.026 40.056 262.307C39.655 263.018 39.217 263.719 38.706 264.4C35.03 269.295 29.195 271.854 23.332 273.864C21.217 263.941 19.422 253.977 19.891 243.859C20.057 240.255 19.171 236.446 14.619 236.693C10.416 236.922 7.11 236.905 3.009 235.874C2.026 235.627 1.019 235.456 0.001 235.329V236.366C3.113 236.712 6.034 237.909 9.17 238.105C12.329 238.304 15.401 236.739 18.255 239.087C19.829 240.382 19.158 248.282 19.341 250.474C20.005 258.439 21.409 266.231 22.922 274.002C20.453 274.838 17.988 275.586 15.687 276.374C10.187 278.256 5.225 281.279 0.001 283.72V284.709C0.277 284.588 0.556 284.469 0.822 284.339C4.875 282.353 8.754 280.071 12.925 278.327C16.227 276.946 19.677 275.934 23.076 274.794C24.679 282.989 26.374 291.167 27.43 299.502C27.118 299.625 26.808 299.751 26.495 299.871C20.894 302.016 14.952 303.311 9.111 304.608C6.053 305.287 3.023 306.119 0.002 307.004V307.674C1.857 307.149 3.721 306.653 5.602 306.219C12.091 304.721 18.604 303.379 24.932 301.272C30.832 299.305 36.418 296.471 42.244 294.301C48.562 291.947 54.306 288.429 59.442 284.116C61.396 287.086 63.08 290.24 64.589 293.321C65.444 295.065 66.257 296.819 67.051 298.578C63.764 302.125 60.197 305.397 56.273 308.803C50.038 314.215 45.468 321.574 41.377 328.651C41.093 329.143 41.653 329.696 41.983 329.128C46.922 320.581 52.403 312.802 60.255 306.718C62.939 304.64 65.342 302.268 67.566 299.732C68.429 301.68 69.261 303.637 70.055 305.605C67.166 309.208 64.318 312.843 61.461 316.462C57.813 321.083 54.172 325.728 50.387 330.237C46.683 334.648 42.154 338.273 38.143 342.393C34.329 336.961 31.022 331.205 27.094 325.848C26.756 325.387 26.282 326.246 26.557 326.621C30.451 331.933 33.823 337.59 37.531 343.026C37.431 343.131 37.327 343.233 37.227 343.339C33.814 347 32.281 350.824 30.165 355.301ZM103.775 316.818C103.416 321.021 100.736 325.261 98.527 328.775C95.235 334.01 88.773 332.652 84.791 336.709C83.477 335.848 82.275 334.702 81.238 333.178C78.179 328.68 77.121 322.781 75.66 317.631C74.514 313.597 72.81 309.814 71.129 305.998C78.969 295.998 86.997 286.171 96.668 277.852C96.67 280.197 96.51 282.554 96.483 284.884C96.423 290.01 97.714 294.988 99.497 299.758C99.048 299.865 98.983 300.814 99.498 300.732C99.612 300.713 99.72 300.685 99.833 300.665C100.106 301.368 100.389 302.067 100.679 302.762C102.664 307.518 104.225 311.568 103.775 316.818ZM85.681 287.49C85.21 284.209 84.662 280.974 84.164 277.731C86.716 274.766 89.5 271.967 92.753 269.353C93.384 268.846 93.998 268.32 94.612 267.794C95.48 269.769 96.216 271.786 96.482 274.138C96.583 275.024 96.635 275.914 96.657 276.808C92.779 280.11 89.171 283.786 85.681 287.49ZM129.76 256.518C132.319 260.684 132.766 265.424 133.174 270.192C133.477 273.735 134.167 277.246 135.013 280.725C134.635 280.907 134.436 281.624 134.945 281.598C135.039 281.593 135.131 281.578 135.224 281.573C136.017 284.741 136.922 287.885 137.779 291.004C133.449 291.992 129.163 293.18 124.71 293.364C120.808 293.523 116.618 292.968 112.855 294.304C108.548 295.833 104.81 298.596 100.325 299.571C99.856 298.452 99.417 297.337 99.054 296.221C97.008 289.937 97.506 283.641 97.342 277.272C98.835 276.009 100.364 274.779 101.941 273.593C105.308 271.062 108.451 268.697 110.349 264.856C111.328 262.878 111.388 260.665 111.718 258.534C111.822 257.862 111.867 257.157 111.937 256.483C112.377 252.134 116.566 252.116 119.642 253.579C122.605 254.988 125.941 255.569 129.332 255.85C129.475 256.072 129.622 256.293 129.76 256.518ZM114.783 231.42C115.643 231.157 116.482 230.855 117.3 230.513C119.274 237.165 122.849 243.165 125.59 249.512C126.365 251.306 127.451 252.95 128.527 254.591C127.645 254.511 126.761 254.442 125.88 254.354C121.912 253.958 116.818 249.365 113.031 251.807C110.901 253.182 110.959 257.385 110.753 259.504C110.019 267.078 104.858 270.346 99.358 274.602C98.666 275.138 97.983 275.688 97.309 276.249C97.258 274.933 97.176 273.613 97.026 272.289C96.814 270.416 96.246 268.68 95.548 266.988C100.946 262.24 105.857 256.936 111.854 252.907C111.878 252.89 111.894 252.866 111.914 252.845C112.074 252.802 112.202 252.695 112.205 252.503C112.252 248.898 112.858 244.282 110.526 241.171C109.369 239.628 108.035 238.594 106.476 237.475C108.51 233.978 111.098 232.548 114.783 231.42ZM95.895 239.535C98.91 239.697 102.589 240.379 105.348 238.916C105.61 238.776 105.822 238.533 106.002 238.268C107.574 239.509 109.036 240.298 110.335 242.673C111.82 245.391 111.283 249.321 111.226 252.318C105.387 256.309 100.441 261.412 95.179 266.127C93.591 262.516 91.56 259.05 91.26 254.849C90.923 250.103 90.602 245.298 90.397 240.503C91.899 239.785 93.687 239.417 95.895 239.535ZM90.004 244.339C90.296 250.568 89.942 256.933 92.356 262.784C92.956 264.239 93.621 265.599 94.244 266.961C93.239 267.845 92.223 268.716 91.181 269.553C88.576 271.646 86.189 273.958 83.969 276.421C83.569 273.725 83.213 271.018 82.98 268.268C82.648 264.325 81.897 260.391 80.186 256.825C81.105 254.94 81.961 253.037 82.745 251.126C84.575 246.659 86.41 242.68 89.891 240.749C89.921 241.944 89.948 243.142 90.004 244.339ZM79.601 258.009C81.143 261.768 81.77 265.804 82.127 270.028C82.338 272.531 82.679 274.99 83.062 277.439C80.34 280.579 77.883 283.952 75.648 287.471C75.031 288.443 74.402 289.378 73.763 290.29C71.882 285.161 70.455 279.903 68.707 274.745C72.974 269.603 76.622 263.911 79.601 258.009ZM68.487 274.097C67.823 272.175 67.112 270.267 66.307 268.387C63.083 260.865 56.2 255.417 50.603 249.656C52.094 244.601 53.707 239.573 55.041 234.476C63.099 239.47 70.93 245.08 76.646 252.753C77.692 254.157 78.53 255.616 79.214 257.119C79.172 257.209 79.134 257.305 79.091 257.392C76.509 262.65 73.4 267.864 69.812 272.491C69.387 273.041 68.943 273.575 68.487 274.097ZM77.607 203.376C84.531 208.847 89.109 213.458 89.523 222.81C89.77 228.36 89.727 233.918 89.848 239.48C88.244 240.304 86.922 241.661 85.763 243.057C82.849 246.569 81.578 251.664 79.742 255.949C79.523 255.54 79.302 255.131 79.054 254.733C73.353 245.59 64.312 239.212 55.287 233.649C55.278 233.644 55.267 233.643 55.258 233.638C55.503 232.679 55.739 231.718 55.96 230.753C59.021 217.32 60.316 203.429 65.466 190.55C69.811 194.534 72.982 199.721 77.607 203.376ZM38.951 160.662C38.646 153.772 37.693 147.402 36.213 140.701C36.169 140.499 36.137 140.301 36.094 140.099C40.647 146.365 41.719 154.022 42.1 161.622C42.274 165.093 42.344 168.576 42.395 172.061C41.816 171.343 41.261 170.59 40.723 169.789C40.327 169.198 39.899 168.823 39.361 168.537C39.21 165.912 39.067 163.286 38.951 160.662ZM39.436 169.829C40.483 170.649 41.267 172.105 41.832 172.938C42.009 173.199 42.221 173.433 42.423 173.674C42.476 177.758 42.509 181.843 42.638 185.915C43.213 204.099 42.5 222.302 42.905 240.487C43.059 247.425 43.691 254.655 40.755 260.95C40.436 259.031 40.348 257.042 40.269 255.121C39.624 239.453 40.947 223.541 41.052 207.85C41.138 195.181 40.177 182.498 39.436 169.829ZM57.705 284.128C53.019 288.353 48.174 291.405 42.187 293.482C37.445 295.131 32.893 297.302 28.235 299.183C27.193 290.99 25.256 282.832 23.498 274.65C24.365 274.356 25.228 274.055 26.084 273.733C31.706 271.619 36.991 268.285 40.345 263.299C40.614 264.147 40.934 264.976 41.324 265.778C43.18 269.591 47.461 271.944 50.701 274.396C53.86 276.788 56.509 279.836 58.795 283.161C58.431 283.482 58.065 283.804 57.705 284.128ZM59.403 282.625C56.841 279.035 53.794 275.771 50.296 273.12C48.272 271.589 46.19 270.175 44.342 268.423C42.515 266.691 41.546 264.547 41.009 262.249C41.186 261.95 41.36 261.649 41.523 261.339C44.816 255.068 43.921 247.146 43.714 240.349C43.12 220.853 44.034 201.329 43.312 181.828C43.226 179.489 43.228 177.055 43.248 174.568C44.17 175.465 45.206 176.263 46.195 177.044C51.82 181.484 58.275 184.761 63.92 189.21C64.26 189.479 64.573 189.774 64.899 190.058C64.751 190.089 64.618 190.166 64.563 190.303C59.594 202.711 58.223 216.022 55.381 228.988C53.909 235.701 51.76 242.258 49.809 248.856C49.436 248.591 49.088 249.39 49.392 249.711C49.434 249.756 49.478 249.8 49.52 249.845C47.692 256.103 46.077 262.406 45.427 268.923C45.373 269.46 46.364 269.427 46.41 268.952C47.034 262.7 48.564 256.659 50.308 250.666C55.902 256.442 62.075 261.691 65.694 269.027C66.586 270.834 67.266 272.782 67.863 274.774C65.271 277.606 62.299 280.095 59.403 282.625ZM61.8 286.309C61.254 285.387 60.669 284.485 60.064 283.595C62.932 281.126 65.606 278.408 68.076 275.505C68.888 278.319 69.563 281.2 70.428 283.896C71.222 286.376 72.122 288.812 73.106 291.213C71.371 293.612 69.554 295.827 67.641 297.935C65.886 293.966 64.019 290.06 61.8 286.309ZM69.863 303.086C69.294 301.744 68.723 300.406 68.142 299.073C70.041 296.851 71.804 294.508 73.49 292.118C74.235 293.889 75.015 295.643 75.856 297.376C76.127 297.933 76.676 297.165 76.467 296.737C75.589 294.928 74.819 293.089 74.113 291.23C74.232 291.059 74.354 290.89 74.472 290.718C77.381 286.5 80.169 282.514 83.274 278.783C83.745 281.681 84.259 284.574 84.681 287.514C84.721 287.797 85.059 287.905 85.332 287.86C84.881 288.339 84.431 288.819 83.983 289.298C79.314 294.297 74.926 299.549 70.636 304.88C70.377 304.284 70.118 303.687 69.863 303.086ZM43.77 338.005C53.752 328.572 62.051 317.598 70.518 306.778C72.852 312.672 74.907 318.662 76.731 324.792C78.227 329.82 80.433 334.594 84.235 337.335C84.2 337.379 84.16 337.413 84.126 337.458C81.583 340.722 80.784 345.495 79.897 349.421C79.062 353.118 78.256 356.823 77.454 360.529C74.204 360.29 70.96 360.076 67.723 360.535C65.241 360.889 62.85 361.684 60.356 362.01C55.516 362.639 52.499 358.61 49.858 355.276C48.149 353.117 46.258 351.92 44.192 350.096C41.906 348.08 40.205 345.365 38.47 342.87C40.217 341.157 42.117 339.567 43.77 338.005Z" fill="#767168"/>
<path d="M699.764 385.008C697.506 383.126 695.948 380.156 693.164 379.389C694.46 375.335 697.265 371.947 697.947 367.672C698.025 367.18 697.031 367.072 696.953 367.57C696.277 371.795 693.473 375.132 692.205 379.145C692.196 379.174 692.202 379.199 692.2 379.225C692.067 379.215 691.936 379.2 691.797 379.199C688.516 379.18 685.151 380.164 681.875 380.44C677.617 380.799 673.377 380.711 669.123 380.35C656.096 379.246 643.539 374.17 630.49 377.871C629.162 378.248 627.882 378.751 626.628 379.323C624.418 375.459 621.618 371.876 618.535 368.506C620.214 367.486 621.894 366.476 623.577 365.482C635.932 358.177 649.132 351.694 663.731 351.019C679.008 350.314 694.364 353.179 709.461 355.103C726.836 357.314 743.637 362.638 761.121 364.288C761.771 364.35 761.68 363.573 761.109 363.517C745.945 362.085 731.242 358.148 716.324 355.271C701.988 352.507 686.758 350.913 672.178 350.269C651.769 349.372 634.554 357.746 617.845 367.741C613.848 363.375 610.869 358.853 607.843 353.762C605.298 349.484 602.214 345.248 598.093 342.381C597.704 342.11 596.892 342.693 597.318 342.986C605.619 348.762 608.679 359.121 615.297 366.449C615.849 367.06 616.396 367.673 616.939 368.286C611.758 371.406 606.621 374.666 601.448 377.843C592.714 383.208 583.692 388.112 574.23 392H576.584C590.911 385.814 604.266 377.189 617.618 369.063C620.63 372.509 623.422 376.016 625.646 379.794C621.866 381.654 618.331 384.128 614.674 386.114C610.126 388.583 605.146 389.928 600.447 391.999H602.333C605.611 390.646 608.985 389.55 612.266 388.086C617.075 385.941 621.387 382.901 626.073 380.542C628.054 384.063 629.534 387.824 630.229 391.999H631.218C630.546 387.728 629.065 383.767 627.035 380.06C627.729 379.73 628.431 379.414 629.147 379.123C642.7 373.615 658.682 380.481 672.569 381.397C678.206 381.77 683.923 381.119 689.473 380.207C694.776 379.334 698.875 385.678 702.922 388.645C704.566 389.849 706.277 390.94 708.008 391.999H710.237C706.653 389.831 703.035 387.733 699.764 385.008Z" fill="#767168"/>
<path d="M462.914 380.992C449.307 373.643 436.736 365.055 421.435 361.754C413.749 360.096 405.874 358.816 398.435 356.209C391.898 353.918 387.183 348.48 382.042 344.119C377.235 340.039 371.336 337.871 365.603 335.449C357.404 331.984 348.804 329.639 340.667 325.897C340.228 325.697 339.53 326.314 340.099 326.576C347.625 330.037 355.341 332.979 363.216 335.549C370.103 337.795 376.847 340.916 382.392 345.621C386.919 349.463 390.919 353.682 396.353 356.272C402.806 359.35 410.699 360.395 417.642 361.793C425.937 363.465 433.523 365.682 440.976 369.754C448.685 373.965 456.273 378.389 464.001 382.563C470.003 385.803 476.064 389.049 482.228 392.001H484.153C476.936 388.692 469.898 384.764 462.914 380.992Z" fill="#767168"/>
</svg>
