<svg xmlns="http://www.w3.org/2000/svg" width="1920" height="1000" fill="none">
  <mask id="a" width="1920" height="965" x="0" y="0" maskUnits="userSpaceOnUse" style="mask-type:luminance">
    <path fill="#fff" d="M1920 0H0v965h1920V0Z"/>
  </mask>
  <g fill="#757067" mask="url(#a)">
    <path d="M747.811-6.546c8.251 11.257 20.684 14.042 33.249 18.282 7.151 2.413 14.146 5.048 21.467 6.945 7.973 2.067 16.66 1.72 22.818 7.93.332.335 1.147-.174.736-.588-4.181-4.217-9.144-5.551-14.877-6.352-8.39-1.171-16.608-3.961-24.569-6.783C772.95 8.037 757.784 5.42 748.69-6.987c-.283-.387-1.195.011-.879.441ZM601.783-5.297c17.656 25.526 39.984 48.625 52.236 77.47 5.912 13.917 10.286 28.534 15.231 42.813 5.352 15.451 10.735 30.891 16.269 46.278 3.843 10.685 7.644 21.359 12.387 31.686 3.899 8.488 8.386 17.563 15.174 24.143 6.095 5.907 12.485 3.073 19.692.493 6.074-2.174 11.956-4.857 17.945-7.248 7.305-2.915 14.918-1.953 22.534-3.095 1.583-.237 6.848-1.033 7.345-2.571.571-1.764.562-3.912.824-5.75.073-.514-.907-.327-.975.144l-.598 4.184c-.413 2.89-5.9 3.119-8.317 3.481-6.695 1.004-13.313-.03-19.776 2.401-5.948 2.238-11.737 4.884-17.67 7.165-5.383 2.07-12.135 5.579-17.587 2.312-8.254-4.946-13.158-16.542-17.087-24.793-4.794-10.067-8.498-20.572-12.285-31.044-10.714-29.629-19.723-60.075-31.489-89.298-11.265-27.981-32.493-50.47-49.829-74.731a360.784 360.784 0 0 1-3.189-4.558c-.269-.392-1.142.074-.835.518ZM738.16-9.315c31.346 29.648 69.029 56.048 83.776 98.492 4.093 11.781 6.844 23.985 11.024 35.748 4.287 12.063 10.848 23.135 15.43 35.085 5.114 13.337 6.286 26.658 4.379 40.746-1.828 13.511-5.903 26.634-9.371 39.782-.148.561.822.478.942.022 6.497-24.63 14.576-49.328 7.109-74.674-3.576-12.137-10.037-23.052-14.962-34.629-5.386-12.659-8.567-26.152-12.599-39.27-13.581-44.194-52.848-71.526-84.913-101.854-.347-.328-1.199.189-.815.552Z"/>
    <path d="M648.66-14.608C653.579-1.206 659.803 11.588 666.837 24c7.402 13.062 16.027 25.369 23.446 38.416 15.271 26.853 25.859 56.027 40.315 83.294 7.234 13.644 15.299 26.841 23.932 39.642 7.294 10.814 14.938 21.277 24.577 30.135 8.177 7.514 17.742 13.271 28.068 17.302 11.909 4.649 24.726 6.187 37.203 8.589 11.563 2.227 23.029 4.927 34.146 8.843 5.355 1.886 10.557 4.173 15.631 6.713 2.618 1.31 5.158 2.768 7.674 4.261 1.529.908 3.197 1.606 4.734 2.528 2.082 1.247 2.7 1.405.179 2.562-.432.198-.343 1.192.127.977 1.053-.483 1.982-.953 2.917-1.657.302-.228.289-.712-.021-.918-23.864-15.815-51.21-21.807-78.94-26.832-12.612-2.286-24.622-5.58-35.848-11.909-11.137-6.28-20.404-15.325-28.374-25.218-19.321-23.985-34.85-52.238-47.464-80.23-6.143-13.631-12.241-27.297-18.817-40.726-6.773-13.829-14.7-26.802-22.901-39.809-11.015-17.471-20.949-35.598-28.079-55.024-.225-.617-.861-.032-.682.453Z"/>
    <path d="M668.237 108.349c7.671-1.048 14.864 1.587 22.241 3.276 6.404 1.467 12.254 1.145 18.5-.75 6.199-1.88 12.063-4.888 17.781-7.889 8.018-4.208 14.834-6.953 24.009-7.188 13.255-.34 27.437.013 39.844-5.496 2.619-1.163 4.936-3.077 7.335-4.618 3.765-2.418 8.281-3.234 12.574-4.225 8.846-2.041 17.874-2.831 26.938-2.606.537.014.391-.969-.088-.98-13.728-.34-30.617.657-42.301 8.53-12.707 8.562-29.646 8.28-44.391 8.415-15.246.139-26.65 9.621-40.502 14.605-8.251 2.969-15.75 2.315-24.098.165-6.023-1.552-11.867-3.051-18.131-2.195-.483.065-.209 1.024.289.956ZM824.648 97.743c7.891 7.219 11.98 16.988 17.977 25.631 5.881 8.475 14.488 14.444 22.661 20.499 8.057 5.969 14.738 13.391 22.726 19.425 8.577 6.479 18.007 11.772 27.073 17.516 9.21 5.834 17.676 12.712 26.625 18.929 10.192 7.081 20.648 13.774 30.822 20.88 17.055 11.911 32.308 28.253 52.988 33.601.48.126.82-.815.34-.938-20.53-5.31-35.908-21.59-52.809-33.499-9.639-6.792-19.565-13.166-29.294-19.827-9.504-6.507-18.45-13.767-28.152-19.982-8.612-5.517-17.48-10.611-25.798-16.579-8.565-6.145-15.557-14.045-24-20.363-8.651-6.473-17.178-12.633-23.422-21.632-5.767-8.311-9.621-17.55-17.216-24.499-.394-.358-.875.514-.521.838ZM760.803 131.47c4.801 10.983 8.795 22.302 13.876 33.165 5.023 10.739 12.094 19.891 18.957 29.473 6.377 8.904 12.855 17.758 20.859 25.289 8.364 7.87 18.958 12.541 30.029 15.174.49.116.787-.838.304-.953-11.146-2.651-21.304-7.369-29.851-15.08-8.472-7.643-15.067-17.247-21.673-26.471-6.879-9.604-13.59-18.72-18.626-29.486-4.838-10.343-8.583-21.164-13.156-31.624-.25-.573-.914.068-.719.513ZM790.606 210.06c-1.632 1.482-2.699 2.825-2.415 5.125.532 4.308.387 8.489.311 12.809-.1 5.661 4.222 6.879 8.84 8.168 4.627 1.292 8.816 4.111 12.977 6.444 4.994 2.8 9.982 5.603 15.061 8.249 9.263 4.827 18.84 8.395 27.391 14.535.381.274 1.255-.1.755-.459-5.501-3.951-11.353-7.321-17.604-9.948-8.671-3.644-16.851-8.374-25.038-12.973-3.139-1.764-6.293-3.854-9.617-5.25-2.819-1.185-5.851-1.694-8.655-2.899-4.42-1.898-3.003-8.259-2.936-12.046.072-4.053-1.679-8.179 1.751-11.293.426-.386-.475-.775-.821-.462ZM834.212 239.415c.013 3.204-.117 6.366 2.217 8.809 1.559 1.632 3.74 2.838 5.631 4.014 3.406 2.119 6.378 4.865 9.222 7.671.414.408.843-.463.507-.795-3.586-3.538-7.355-6.385-11.527-9.177-1.624-1.087-3.323-2.171-4.396-3.846-1.196-1.866-.889-4.721-.897-6.827-.004-.658-.759-.412-.757.151Z"/>
    <path d="M845.436 241.492c.051 1.289-.045 2.626-1.284 3.312-.804.445-1.835.5-2.723.645-1.656.27-3.103.791-4.013 2.279-.34.557.542.596.805.166 1.141-1.868 3.81-1.508 5.645-2.129 2.024-.685 2.55-2.591 2.473-4.544-.024-.578-.922-.199-.903.271ZM738.48 159.363c4.433-2.003 8.922-3.875 13.609-5.201.631-.178.086-.852-.41-.711-4.762 1.347-9.322 3.255-13.826 5.289-.565.255.194.819.627.623ZM733.255 149.336c-4.588 2.293-11.204 2.711-14.816 6.646-3.849 4.193-2.875 10.411-3.271 15.648-.049.654.77.371.809-.144.393-5.203-.742-11.75 3.695-15.531 3.713-3.164 9.436-3.604 13.722-5.747.429-.213.419-1.151-.139-.872ZM729.78 143.009c-4.999 2.981-10.05 4.35-15.794 5-4.02.455-8.046.479-11.902 1.805-6.613 2.275-10.359 9.597-14.681 14.563-.382.439.498.843.808.486 5.963-6.854 9.8-14.455 19.782-15.523 8.046-.861 15.319-1.479 22.421-5.716.537-.319-.219-.863-.634-.615ZM550.223-8.603c-7.791 6.771-14.878 14.336-20.596 22.952-2.792 4.208-5.082 8.607-8.268 12.562-1.694 2.103-3.771 3.855-5.564 5.866-3.334 3.736-5.449 4.5-10.277 4.463-.503-.004-.942.763-.29.769 2.811.021 6.076.403 8.348-1.655 4.247-3.846 8.346-8.47 11.638-13.174 3.561-5.089 6.392-10.522 10.249-15.432 4.563-5.809 9.867-11.042 15.435-15.882.494-.43-.286-.807-.675-.469Z"/>
    <path d="M502.977-13.287c.172 12.648 3.56 24.926 4.104 37.529.576 13.333-9.583 24.31-17.708 33.557-.311.354.148 1.214.53.779 7.68-8.742 15.6-17.574 17.651-29.505.985-5.728-.281-11.982-1.106-17.649-1.192-8.182-2.6-16.291-2.712-24.583-.007-.564-.768-.786-.759-.128Z"/>
    <path d="M450.625-3.97c7.625 8.025 15.275 16.024 23.476 23.47 8.864 8.048 18.472 15.404 25.341 25.348.325.471.832-.37.566-.754-5.913-8.56-13.858-15.246-21.628-22.046-9.591-8.393-18.417-17.54-27.189-26.771-.401-.423-.892.41-.566.753ZM510.241 37.536c.853 1.229 2.079 2.069 3.306 2.888.397.265 1.047-.483.599-.782-1.177-.785-2.331-1.583-3.149-2.76-.282-.405-1.043.241-.756.654ZM530.308 14.982c.877.201 2.879 1.289 3.934.57 3.048-2.08 5.316-4.963 7.702-7.784 6.795-8.034 12.489-16.793 19.891-24.344.408-.416-.431-.892-.762-.555-5.385 5.492-10.128 11.519-14.76 17.649-2.757 3.649-5.463 7.288-8.641 10.592-2.455 2.552-3.487 3.99-7.204 3.139-.608-.139-.767.594-.16.733ZM480.684 56.379c2.966-2.929 6.029-5.731 9.269-8.354 2.817-2.281 4.093.353 6.265 2.094 2.387 1.912 5.058 2.112 5.886 5.457.401 1.618.723 2.45 1.861 3.524 5.722 5.4 12.057 10.255 18.251 15.094 8.299 6.482 17.217 10.862 26.899 14.939 13.781 5.803 26.887 13.14 39.146 21.691 20.38 14.216 38.642 31.065 53.598 50.893a375.536 375.536 0 0 1 17.888 25.883c5.979 9.49 10.221 19.667 14.341 30.081 2.452 6.196 4.914 12.428 8 18.343 3.512 6.732 5.764 14.005 9.275 20.743 5.906 11.334 13.521 20.877 25.666 25.664 13.329 5.253 26.45 6.204 40.542 4.111 15.375-2.285 30.305-6.7 45.805-8.338 15.789-1.668 30.489.091 44.886 7.021 8.225 3.959 14.897 11.872 20.896 18.516 13.492 14.942 25.766 31.146 35.157 48.978 6.383 12.12 12.856 24.366 18.868 36.667 4.32 8.84 7.641 18.306 12.938 26.627 13.72 21.55 35.781 34.762 61.445 35.92 11.464.518 23.374-1.806 34.124-5.687 7.62-2.75 14.88-6.793 22.37-9.915 10.24-4.27 20.7-8.295 31.49-10.96 8.18-2.021 16.83-2.514 25.18-3.459 7.5-.849 15.03-1.794 22.57-2.187 13.98-.728 28.17.653 41.97 2.79 16.93 2.62 34.03 6.717 50.04 12.91.44.17 1-.613.46-.823-18.69-7.23-38.75-11.593-58.57-14.113-22.26-2.829-43.54-.956-65.64 1.665-18.43 2.185-35.2 8.056-52.23 15.342-7.97 3.405-15.57 7.543-23.91 9.962-13.75 3.985-27.9 4.692-41.861 1.555-14.18-3.186-26.297-9.884-36.256-20.421-8.249-8.728-13.535-18.505-18.441-29.321-4.833-10.655-10.533-20.775-15.749-31.242-6.338-12.716-12.514-25.512-20.821-37.096-9.923-13.836-20.837-27.547-33.396-39.077-18.337-16.834-43.926-16.702-67.101-12.887-15.67 2.579-31.016 7.414-46.971 7.965-15.167.524-32.359-4.746-42.847-15.988-10.019-10.738-14.384-25.69-20.642-38.667-5.817-12.062-9.615-25.007-15.843-36.885-8.985-17.134-21.297-33.441-33.859-48.081-7.407-8.633-16.18-16.255-24.895-23.522-11.059-9.222-22.789-17.619-35.309-24.742-16.372-9.315-34.448-14.572-49.409-26.258-5.235-4.089-10.393-8.292-15.41-12.646-2.74-2.378-2.978-4.108-4.421-7.413-.388-.888-2.347-1.561-3.127-1.974-2.48-1.315-4.417-3.247-6.198-5.378-.163-.195-.445-.128-.625.002-4.378 3.173-8.358 6.787-12.201 10.581-.471.462.248.81.646.416Z"/>
    <path d="M503.366 77.32c8.452 6.466 18.596 10.683 28.431 14.564 10.648 4.202 21.218 8.299 31.522 13.346 23.506 11.514 45.612 28.655 62.684 48.552 7.293 8.5 13.898 17.617 20.251 26.832 4.835 7.013 9.812 14.185 13.577 21.849 5.602 11.404 10.271 23.176 15.007 34.958 2.434 6.054 5.331 11.951 7.904 17.961 2.625 6.131 5.833 12.034 9.772 17.419 16.33 22.327 49.131 23.008 73.68 17.819 26.022-5.5 58.979-14.638 82.343 3.448 14.328 11.091 25.762 26.716 36.441 41.198 8.349 11.32 14.559 23.91 20.783 36.471 5.25 10.596 11.073 20.85 15.983 31.611 4.282 9.382 8.385 18.172 15.085 26.168 7.768 9.269 16.447 16.805 27.959 20.984 21.67 7.866 48.662 12.549 70.412 2.083 17.56-8.445 35.82-15.113 54.77-19.713 29.59-7.186 59.76-7.275 89.69-2.125 15.4 2.65 31 6.399 45.61 12.051.55.21.68-.743.24-.913-44.34-17.148-94.56-20.603-140.52-8.796-17.62 4.525-34.56 11.08-50.92 18.953-10.94 5.264-25.05 5.902-36.916 5.178-13.73-.839-29.266-5.274-41.312-11.837-11.311-6.162-20.635-17.653-26.99-28.632-4.81-8.311-7.831-17.646-12.326-26.142-11.337-21.426-21.275-43.408-36.099-62.724-5.757-7.501-11.764-14.821-18.14-21.804-5.661-6.199-11.85-12.824-19.367-16.787-25.858-13.632-55.682-3.529-82.262 1.409-15.89 2.952-30.867 1.76-46.165-3.22-15.797-5.143-24.599-17.866-31.082-32.477-9.041-20.375-16.005-42.26-27.685-61.365-10.245-16.758-21.944-33.71-35.781-47.725-19.527-19.777-41.95-35.351-67.276-46.684-16.256-7.274-34.557-11.723-48.895-22.693-.495-.381-.795.487-.408.783Z"/>
    <path d="M483.388 42.881c8.219 8.128 17.275 15.458 23.976 24.979 6.453 9.17-1.381 13.923-8.821 17.115-2.525 1.083-5.253 1.596-7.782 2.72-3.042 1.352-5.281 3.518-8.775 3.885-.5.053-.512 1.051-.023 1 2.522-.265 4.466-1.283 6.625-2.566 4.047-2.406 8.587-3.485 12.924-5.233 3.711-1.497 9.069-4.847 9.39-9.358.438-6.149-5.395-11.758-9.182-15.97-5.572-6.198-12.013-11.57-17.933-17.424-.406-.403-.73.525-.399.852Z"/>
    <path d="M505.624 59.046c-2.181.72-3.19 2.079-4.903 3.459-.421.339-1.685 1.041-1.284 1.82.87 1.69 2.272 3.101 3.267 4.726 1.496 2.444-1.897 3.397-3.652 4.16-.601.261.073.821.54.618 1.745-.758 5.164-1.744 4.435-4.262-.444-1.537-1.899-3.019-2.812-4.268-.816-1.117-.766-1.524.241-2.305 1.554-1.205 2.477-2.583 4.473-3.242.621-.204.239-.886-.305-.706ZM451.03 108.689c6.04-.674 11.188-3.976 16.677-6.329 5.941-2.547 12.497-3.675 18.527-6.14 9.056-3.701 20.574-5.634 27.619-12.928.455-.471-.363-.764-.721-.394-7.12 7.372-19.49 9.483-28.702 13.248-5.043 2.062-10.276 3.298-15.449 4.949-6.193 1.978-11.378 6.085-17.996 6.823-.57.066-.6.843.045.771Z"/>
    <path d="M480.419 49.913c1.193 2.181 3.448 3.07 5.032 4.957 1.788 2.129 3.887 3.974 5.887 5.897 5.562 5.347 11.523 9.598 18.283 13.291 9.937 5.428 19.576 11.074 30.05 15.422 11.479 4.766 22.873 10.417 33.486 16.895 6.149 3.753 12.149 7.789 18.097 11.852 6.348 4.336 11.691 9.474 17.637 14.271 5.283 4.262 9.929 9.154 14.948 13.743 2.874 2.627 5.816 5.15 8.232 8.22 2.291 2.91 4.264 5.989 6.702 8.793 4.542 5.226 7.754 11.331 11.678 16.998 3.964 5.725 7.816 11.659 11.578 17.524 4.736 7.383 7.072 16.594 10.325 24.693 4.871 12.126 9.917 24.52 15.891 36.146 5.808 11.306 16.341 22.128 28.14 27.111 13.635 5.758 28.499 5.457 42.93 3.634 24.292-3.067 50.735-15.372 74.988-5.752.441.175.888-.707.386-.906-20.388-8.086-43.597-.41-63.916 3.802-11.372 2.357-23.049 3.67-34.665 2.899-14.912-.99-27.403-7.494-37.662-18.184-9.39-9.785-14.571-23.345-19.558-35.745-3.971-9.874-8.037-19.712-12.017-29.585-4.02-9.971-10.558-18.88-16.653-27.683-7.601-10.976-14.561-22.532-24.51-31.604-11.548-10.53-22.445-21.383-35.41-30.239-13.596-9.287-27.693-17.324-42.464-24.559-10.02-4.909-20.288-8.522-29.932-14.313-7.042-4.229-14.446-7.511-20.775-12.85a131.819 131.819 0 0 1-9.928-9.271c-1.765-1.833-4.907-4.014-6.067-6.135-.25-.459-.942.26-.713.678Z"/>
    <path d="M527.924 83.058c-.955 1.541-2.667 4.907-1.367 6.708 1.022 1.415 2.308 2.613 3.334 4.029 1.371 1.892 2.406 4.02 3.706 5.96.365.544.844-.174.557-.604-1.491-2.227-2.725-4.607-4.299-6.78-.599-.826-1.339-1.547-2.01-2.312-1.654-1.886-.319-4.716.719-6.392.254-.41-.311-1.14-.64-.609ZM712.422 327.008c.713-5.808 3.194-11.72 4.921-17.276 2.244-7.219 4.564-14.414 6.878-21.61.153-.476-.805-.761-.959-.283a2770.201 2770.201 0 0 0-6.53 20.492c-1.849 5.907-4.512 12.214-5.27 18.394-.06.498.901.766.96.283ZM580.632 110.883c.665 3.325.81 7.292 2.635 10.217 1.284 2.059 4.178 3.375 6.158 4.613 8.685 5.427 16.573 13.49 23.974 20.518 5.965 5.664 11.282 12.362 16.171 18.96 1.725 2.328 3.716 4.75 6.174 6.342 3.44 2.227 6.686 2.553 10.586 3.447.461.105.924-.743.356-.873-4.165-.955-7.75-1.409-11.282-4.062-2.362-1.774-4.177-4.283-5.917-6.631-4.628-6.247-9.786-12.46-15.371-17.879-5.96-5.784-12.3-11.091-18.726-16.348-2.493-2.038-4.862-3.963-7.604-5.646-4.981-3.058-5.212-7.69-6.271-12.988-.114-.571-.976-.134-.883.33Z"/>
  </g>
  <mask id="b" width="1920" height="965" x="0" y="0" maskUnits="userSpaceOnUse" style="mask-type:luminance">
    <path fill="#fff" d="M1920 0H0v965h1920V0Z"/>
  </mask>
  <g fill="#757067" mask="url(#b)">
    <path d="M1483.03 28.403c5.84 3.357 10.97 8.582 16.06 12.933 7.03 6.021 13.99 12.132 21.02 18.163 7.06 6.062 14.44 11.664 21.34 17.926 10.82 9.812 23.12 18.062 33.61 28.227.45.433.72-.47.38-.802-10.49-10.163-22.78-18.438-33.61-28.227-7.14-6.446-14.74-12.253-22.03-18.509-7.07-6.072-14.08-12.224-21.17-18.285-4.88-4.177-9.8-9.126-15.41-12.349-.49-.286-.59.69-.19.923ZM1548.93-1.99c.94 2.43 2.95 3.729 5.11 5.054 3.38 2.076 6.31 4.316 9.42 6.798 3.6 2.866 7.47 5.367 11.06 8.253 3.21 2.579 5.96 5.655 9.3 8.07 7.05 5.094 12.81 11.547 19.35 17.229 3.28 2.854 6.57 5.639 9.33 9.021 3.04 3.722 4.94 9.053 7.18 13.324.31.58.88-.06.64-.521-3.38-6.442-6.02-12.691-11.29-17.828-5.87-5.724-12.12-11.236-18.19-16.762-3.24-2.954-6.96-5.288-10.2-8.223-3.21-2.898-6.36-5.722-9.8-8.353-3.69-2.819-7.49-5.407-11.05-8.387-3.19-2.665-8.62-4.072-10.22-8.198-.24-.607-.82.049-.64.523Z"/>
    <path d="M1559.42-2.012c5.49 4.754 11.74 8.341 17.13 13.262 6.42 5.857 12.8 11.372 18.78 17.721 11.57 12.297 23.41 24.561 33.19 38.361 5.14 7.25 10.12 14.609 15.4 21.755 4.96 6.702 10.76 12.63 15.95 19.132 5.24 6.563 9.34 14.169 14.17 21.055 5.31 7.564 10.5 15.197 14.99 23.285.22.404 1.21.377.94-.116-8.02-14.454-17.94-28.09-27.21-41.76-4.59-6.767-10.71-12.397-15.7-18.853-5.83-7.532-11.15-15.451-16.61-23.249-10.11-14.437-22.37-26.992-34.3-39.916-5.21-5.65-10.64-10.994-16.57-15.902-2.79-2.313-5.36-4.874-8.22-7.113-3.65-2.868-7.74-5.081-11.28-8.137-.39-.34-1.16.046-.66.475ZM1598.44-1.618c2.34 2.565 5.19 4.443 7.92 6.573 2.92 2.289 5.5 5.02 8.16 7.592 3.86 3.718 8.08 8.382 13.9 8.09 8.23-.413 16.83.523 24.33 4.196 6.75 3.307 11.47 14.569 11.85 21.608.04.616.82.087.8-.383-.37-6.78-3.83-12.97-7.86-18.276-4.07-5.353-11.64-6.745-17.91-7.75-3.22-.519-6.44-.615-9.69-.408-5.87.373-9.65-2.838-13.63-6.755-2.68-2.642-5.4-5.289-8.25-7.75-2.96-2.558-6.35-4.592-9-7.5-.36-.397-.94.409-.62.763Z"/>
    <path d="M1621.22 56.911c-1.89 2.991-6.21 4.352-9.08 6.322-3.87 2.651-7.59 5.63-11.16 8.664-6.65 5.645-13.06 11.745-19.2 17.935-9.71 9.772-19.4 20.376-26.31 32.357-6.08 10.565-11.01 21.114-15.2 32.513-3.1 8.432-5.16 16.593-6.82 25.421-.96 5.083-1.79 10.171-2.32 15.318-.5 4.812.1 11.104-1.97 15.574-.22.474.4 1.062.68.469 1.43-3.092 1.32-7.225 1.6-10.576.42-4.98.92-9.91 1.72-14.847 1.61-10.007 3.59-19.83 7.2-29.324 2.17-5.723 3.88-11.352 6.59-16.859 2.95-6.018 6.16-11.928 9.51-17.736 7.14-12.398 17.47-23.254 27.56-33.289a325.66 325.66 0 0 1 18.77-17.287c3.94-3.35 8.21-6.58 12.59-9.34 2.37-1.499 4.84-2.15 6.41-4.639.25-.405-.24-1.204-.57-.676Z"/>
    <path d="M1244.05-21.565c2.38 10.726 11.22 20.432 17.91 28.802 3.5 4.379 7.42 8.351 12.08 11.482 5.11 3.433 10.97 4.203 16.95 4.8 7.84.783 14.4 4.596 21.76 6.99 7.15 2.325 15.46.796 21.27 6.159 9.89 9.115 21.88 16.633 33.97 22.411 6.56 3.132 13.7 4.679 20.18 7.925 5.98 2.998 11.22 7.395 16.69 11.194 5.29 3.676 11.3 5.948 16.68 9.429 2.79 1.801 4.81 4.799 7 7.251 2.18 2.447 4.97 4.24 7.64 6.084 5.5 3.787 10.75 8.486 15.75 12.909 6.14 5.438 13.35 8.824 16.37 17.016 2.12 5.76 3.74 14.526 1.81 20.483-1.04 3.227-4.48 4.178-6.34 6.677-1.75 2.355-2.06 4.714-2.64 7.559-1.81 8.908-1.96 16.813 1.5 25.339 2.82 6.939 7.44 13.357 14.33 16.655 4.22 2.024 8.64 3.769 12.99 5.519 3.73 1.503 9.24 3.787 13.33 3.628 4.42-.172 8.86-2.705 13.12-3.89 5.55-1.54 11.3-4.951 17.13-4.61.49.029.44-.969-.06-.998-5.97-.349-11.69 3.06-17.32 4.657-3.38.959-6.65 2.025-9.9 3.366-4.02 1.654-10.62-1.229-14.49-2.518-6.13-2.045-13.01-4.748-18.37-8.352-6.25-4.197-9.97-12.312-11.98-19.298-1.29-4.479-1.2-9.31-.62-13.881.55-4.326 1.35-10.219 4.4-13.36 3.27-3.387 6.29-4.89 6.43-10.12.27-10.542-2.4-21.52-10.89-28.271-4.87-3.883-9.89-7.566-14.69-11.561-5.84-4.858-12.94-9.203-17.98-14.86-3.68-4.136-6.87-7.072-11.95-9.528-6.66-3.222-12.5-7.317-18.48-11.622-11.47-8.241-25.11-11.088-37.39-17.868-6.31-3.482-12.27-7.573-18.03-11.894-4.06-3.049-7.9-7.923-12.79-9.57-4.01-1.348-8.6-1.399-12.75-2.127-4.86-.853-9.34-2.984-13.85-4.886-8.84-3.728-18.7-2.36-27.19-6.957-7.46-4.042-12.82-11.456-17.8-18.106-5.09-6.789-11.19-13.899-13.07-22.37-.14-.639-.83-.238-.71.312ZM1526.1 212.87c2.18-.496 4.37-1.193 6.62-1.247.61-.015.69-.763.06-.748-2.35.056-4.61.736-6.89 1.253-.63.145-.35.87.21.742Z"/>
    <path d="M1879.87-10.103c-2.98 14.707-3.23 29.883-6.34 44.562-1.49 7.044-2.96 13.67-3.85 20.851-1.01 8.214-2.39 16.378-3.38 24.596-.89 7.406-.96 14.871-2.07 22.251-.52 3.481-1.37 6.902-2.17 10.326-.83 3.565-2.53 6.772-3.4 10.27-1.03 4.112-6.46 1.537-9.48.965-3.89-.739-7.84-.556-11.74-1.466-6.01-1.404-8.99-8.813-12.76-13.009-7.99-8.904-21.93-12.039-33.28-13.619-3.69-.513-6.46-2.63-9.94-3.662-2.39-.707-5.14-.576-7.6-.538-7.09.109-14.18 3.083-21.19 1.333-6.86-1.712-11.14-7.684-17.2-10.728-6.26-3.144-12.15-6.837-18.34-10.089-2.93-1.534-6.02-2.348-9.21-3.093-2.76-.645-5.18-2.354-7.72-3.532-2.77-1.283-6-1.611-8.88-2.581-3.92-1.318-7.53-4.459-10.77-6.963-4.27-3.301-8.56-7.141-13.82-8.733-5.12-1.552-11.13 1.284-15.78 3.056-12.6 4.803-23.91 9.784-34.72 18.022-22.74 17.327-43.89 37.347-58.18 62.358-4.57 7.987-9.24 15.449-12.89 23.942a148.717 148.717 0 0 0-10.63 37.897c-2.98 21.191-.98 41.582 1.32 62.658 1.04 9.511 1.89 19.024 2.78 28.55.7 7.529.94 14.871-2.03 21.972-2.94 7.027-9.01 12.323-13.73 18.112-.42.506.44.683.76.29 7.48-9.154 15.41-16.662 16.35-29.083.71-9.324-.98-19.101-1.93-28.391-1.98-19.184-4.45-37.977-4.03-57.28.53-24.312 7.27-49.928 20.11-70.746 3.77-6.096 7.08-12.631 11.29-18.425 4.46-6.136 9.38-12.062 14.26-17.87 9.66-11.497 21.47-21.133 33.19-30.438 10.29-8.181 20.81-14.234 33.13-18.827 6-2.239 12.51-5.802 19.07-5.241 5.88.503 11.61 6.414 16.05 9.847 3.87 2.987 7.79 5.641 12.54 6.942 5.31 1.457 10 4.368 15.32 5.608 6.45 1.505 11.81 5.115 17.4 8.511 5.3 3.222 10.61 5.575 15.58 9.42 3.33 2.578 7.47 5.302 11.71 5.988 5.18.838 10.07-.674 15.19-1.312 3.1-.385 6.22-.448 9.33-.25 3.6.23 6.29 1.964 9.49 3.332 2.08.889 4.63.943 6.84 1.214 4 .492 7.61 1.617 11.38 3.001 5.12 1.887 10.18 3.416 14.65 6.698 4.26 3.132 6.52 8.17 10.08 11.962 3.38 3.604 6.57 4.799 11.43 5.346 5.4.606 11.13 2.367 16.55 1.985.23-.016.49-.233.51-.471.4-4.391 2.82-8.731 3.87-13.062 1.4-5.772 2.49-11.535 3.03-17.454 1.1-12.047 2.42-23.931 4.09-35.922.76-5.452 1.03-11.01 2.22-16.389 1.27-5.761 2.83-11.232 3.58-17.116 1.52-11.875 2.52-23.967 4.89-35.706.12-.555-.84-.326-.93.131Z"/>
    <path d="M1417.06 173.226c.38 1.378.94 2.562 1.51 3.867.51 1.154.06 3.369.23 4.727.19 1.571 1.92 3.325 2.86 4.435 4.42 5.228 9.39 9.938 13.75 15.271a1007.81 1007.81 0 0 0 18.75 22.234c6.72 7.726 13.44 15.414 20.34 22.986 19.38 21.29 39.02 42.336 58.45 63.586l.66.731c.34.374 1.11-.261.78-.631-18.47-20.462-37.39-40.516-55.98-60.872-6.93-7.595-13.87-15.182-20.53-23.019-5.38-6.339-11.05-12.44-16.25-18.929-4.28-5.332-8.52-10.741-13.06-15.851-1.92-2.157-4.16-4.026-6.14-6.138-2.64-2.837-2.39-5.552-2.98-8.984-.22-1.267-1.16-2.592-1.51-3.867-.14-.509-1-.008-.88.454ZM1852.12-3.51c8.81 4.383 18.55 4.846 27.73 8.002 4.8 1.647 8.8 1.694 13.77 2.477 4.7.74 9.14 2.396 13.93 2.626.62.03.63-.72.01-.75-4.68-.226-9.09-1.713-13.66-2.594-1.72-.332-3.42-.387-5.17-.436-3.64-.101-6.77-1.415-10.15-2.576-8.62-2.963-17.62-3.25-25.94-7.388-.47-.23-1.11.347-.52.64ZM1872.11 40.524c-11.39 0-22.77.619-34-1.358-7.81-1.375-7.02 4.912-6.36 11.021.51 4.717 1.87 9.134 1.87 13.921-.01 5.866-.63 11.62-1.07 17.46-.87 11.833-1.8 23.862-1.91 35.725-.01.478.97.624.98.085.09-10.013 1.09-20.029 1.58-30.03.46-9.281 2.18-18.712 1.16-28.006-.45-4.074-1.81-7.909-1.77-12.052.02-1.781.13-3.562.14-5.346.03-4.177 8.66-1.388 10.44-1.037 4.28.846 8.91.386 13.25.386h15.74c.65 0 .53-.769-.05-.769ZM1767.75 82.634c.05 3.001.69 5.948.74 8.948.01.613.76.687.75.059-.05-3.001-.69-5.948-.75-8.948-.01-.613-.76-.687-.74-.059ZM1687.31 61.12c.76-1.519 1.55-3.009 2.55-4.382.37-.504-.52-.734-.81-.344-1.05 1.43-1.87 2.983-2.67 4.566-.26.515.72.579.93.16ZM1598.18 83.796c3.52 3.126 7 6.182 10.69 9.112 2.72 2.162 2.6 3.376-.15 5.756-2.19 1.894-4.08 3.994-6.21 5.951-4.7 4.307-10.02 7.423-13.97 12.556-3.26 4.217-6.55 3.456-11.01 1.89-3.22-1.127-6.5-2.298-9.76-3.292-.48-.146-.91.753-.45.895 3.99 1.213 7.9 2.727 11.87 3.999 2.11.675 4.29 1.303 6.42.533 2.67-.964 4.86-5.361 6.75-7.244 3.59-3.572 7.87-6.189 11.6-9.598 2.27-2.086 4.88-4.292 6.92-6.594.8-.905 1.79-1.919 1.18-3.146-1.02-2.059-4.12-3.681-5.87-5.062-2.58-2.032-4.94-4.347-7.4-6.53-.4-.358-.96.458-.61.774Z"/>
    <path d="M1611.93 95.978c7.83-7.684 20.38-7.468 30.37-9.594.64-.136.12-.836-.38-.729-10.12 2.154-22.83 2.004-30.77 9.792-.42.406.44.862.78.531ZM1607.16 100.964c2.46 2.064 5.18 3.75 7.72 5.71 2.29 1.769 5.03 2.745 7.19 4.729.39.362.91-.485.56-.81-2.15-1.971-4.8-3.104-7.19-4.729-2.64-1.792-5.28-3.662-7.72-5.71-.41-.345-.93.502-.56.81Z"/>
    <path d="M1601.15 125.281c3.92-.305 7.89 3.06 11.66 1.106 1.02-.531 1.69-2.104 2.21-3.011 1.33-2.37 2.79-4.618 4.3-6.884 3.57-5.361 7.15-8.866 13.05-11.614 2.1-.975 9.7-6.224 11.67-2.966.34.56.91.02.61-.47-2.88-4.758-14.07 3.056-17.21 4.931-5.1 3.048-7.91 7.976-10.99 12.844-1.76 2.77-3.06 7.041-6.95 6.807-2.97-.179-5.38-1.961-8.45-1.722-.54.041-.38 1.017.1.979Z"/>
    <path d="M1625.28 115.034c4.2-2.875 9.15-4.593 13.15-7.756 4.23-3.343 8.29-7.282 13.32-9.393.56-.238-.2-.798-.64-.616-3.97 1.669-7.37 4.57-10.69 7.255-4.93 3.985-10.58 6.344-15.77 9.894-.52.353.23.89.63.616ZM1653.56 100.778c-1.03 6.841-6.27 11.126-10.29 16.276-3.15 4.034-4.18 9.171-4.83 14.12-.97 7.502-1.7 13.867-6.61 19.864-3.89 4.759-8.64 8.546-11.82 13.898-1.53 2.568-2.3 5.708-3.37 8.487-1.4 3.609-3.02 7.134-4.54 10.693-3 7.031-5.78 14.137-8.6 21.241-2.64 6.643-4.26 12.013-3.85 19.203.28 5.001 4.87 8.327 8.19 11.562.37.363 1.15-.003.68-.46-2.23-2.171-4.51-4.257-6.42-6.729-2.84-3.672-1.75-11.019-.7-15.06 1.63-6.316 4.69-12.563 7.12-18.607 2.68-6.639 5.59-13.177 8.36-19.776 2.72-6.46 4.72-12.083 9.54-17.333 3.22-3.503 7.17-6.718 9.36-11.028 2.79-5.486 3.06-11.659 3.89-17.656.84-5.979 3.16-10.885 7.34-15.249 3.5-3.654 6.73-8.041 7.5-13.138.08-.496-.87-.79-.95-.308Z"/>
    <path d="M1639.23 127.44c1.82 2.115 4.32 3.663 5.53 6.258.23.516.86-.241.67-.663-1.23-2.663-3.79-4.249-5.66-6.417-.34-.396-.85.461-.54.822ZM1538.55 148.679c2.37 1.562 4.83 3.136 7.35 4.445.43.221 1.05-.553.58-.8-2.52-1.309-4.98-2.882-7.35-4.445-.4-.262-1.03.503-.58.8Z"/>
    <path d="M1539.06 160.282c10.85 6.223 22.6 10.549 34.2 15.121 12.02 4.735 23.4 11.851 36.41 13.271 6.49.709 12.84 2.121 19.33 2.8 6.6.69 13.27.586 19.89.559 11.51-.047 23.86 1.475 33.71-5.687 5.56-4.039 12.29-4.914 18.91-6.198 6.64-1.29 13.33-1.394 20.03-2.183 10.88-1.282 20.59-6.734 25.12-17.049 3.68-8.401 6.69-20.579 2.37-29.321-3.63-7.358-7.37-16.034-2.78-23.786 2.62-4.419 4.96-10.335 9.05-13.548.37-.292 0-1.187-.46-.827-3.36 2.647-5.11 6.797-7.11 10.466-2.11 3.846-4.32 6.564-4.48 11.092-.15 4.256 1.38 8.939 3.1 12.757 3.3 7.352 4.39 13.458 3.06 21.444-1.13 6.761-3.7 13.283-8.12 18.56-4.52 5.39-11.54 7.799-18.23 8.981-6.02 1.064-12.21.939-18.27 1.837-5.72.847-11.72 1.933-17.22 3.773-2.03.68-3.75 1.883-5.42 3.174-3.32 2.562-7.06 3.929-11.13 4.783-5.54 1.162-11.38.796-17 .732-6.55-.074-13.11.094-19.66-.174-7.74-.316-15.14-2.244-22.81-2.993-12.75-1.245-23.31-7.444-34.99-12.172-12.55-5.084-25.41-9.541-37.2-16.307-.5-.288-.71.66-.3.895ZM1538.69 302.245c1.27-.245 2.68-.466 3.92.066 1.47.634 1.67 2.487 1.69 3.88.01.653.82.377.81-.145-.02-1.498-.19-3.369-1.53-4.316-1.4-.983-3.25-.727-4.83-.426-.46.089-.63 1.05-.06.941Z"/>
    <path d="M1750.51 92.266c-3.32 4.434-7.29 7.951-8.92 13.393-2 6.699-4.19 12.768-9.6 17.476-10.45 9.093-23.01 15.746-34.13 23.956-5.4 3.993-11.21 7.402-16.65 11.351-6.04 4.394-10.78 10.176-16.37 15.086-5.39 4.724-14.31 9.729-12.65 18.1.12.616.84.4.72-.203-1.18-5.953 3.74-9.705 7.78-13.13 4.32-3.663 8.57-7.318 12.45-11.445 4.5-4.777 9.75-8.523 15.2-12.129 5.85-3.874 11.39-8.06 17.08-12.154 5.02-3.615 10.65-6.253 15.5-10.143 4.52-3.631 9.98-6.312 13.94-10.619 3.41-3.706 4.89-8 6.43-12.715 1.07-3.294 2.07-6.352 4.14-9.19 1.75-2.406 3.89-4.518 5.68-6.904.28-.379-.25-1.194-.6-.73ZM1537.23 180.366c11.74.836 23.44 3.071 34.96 5.477 6.03 1.26 11.75 3.307 17.6 5.217 5.87 1.917 12.06 2.343 17.94 4.181.5.156.5-.841.04-.983-5.87-1.836-12.04-2.374-17.94-4.182-5.88-1.805-11.56-3.92-17.59-5.217-11.5-2.467-23.24-4.642-34.97-5.477-.54-.038-.52.951-.04.984Z"/>
    <path d="M1571.61 168.607c-.39 2.61-1.48 4.995-2.22 7.511-.78 2.651-1.3 5.181-2.37 7.75-.19.448.47 1.091.71.514 1.1-2.607 1.57-5.077 2.38-7.75.78-2.583 1.87-5.058 2.27-7.739.08-.514-.67-.933-.77-.286ZM1784.9 78.43c8.19-1.176 16.92 1.751 24.12 5.332 8.62 4.295 13.26 11.265 19.09 18.556.32.391 1.09-.243.78-.635-2.95-3.69-5.61-7.6-8.72-11.158-2.88-3.279-6.72-5.528-10.54-7.529-7.23-3.794-16.26-6.61-24.52-5.425-.47.066-.82.946-.21.858Z"/>
    <path d="M1929.53 127.001c-5.63-.157-10-1.955-14.12-5.777-3.92-3.638-7.03-7.687-12.03-9.949-4.34-1.96-5.01-6.37-9.64-7.889-5.67-1.857-12.01-2.628-17.82-4.087-5.2-1.308-10.73-1.006-16.05-1.07-6.77-.084-13.5-.948-20.28-.986-9.17-.05-13.1 4.726-14.21 13.486-.08.623.67.654.74.043 1.05-8.219 4.88-12.5 13.42-12.53 5.51-.019 11 .48 16.5.825 5.42.341 10.85.048 16.27.615 5.27.552 10.43 2.601 15.66 3.568 2.3.426 4.63.798 6.86 1.529 2.65.87 3.5 4.011 5.21 5.892.75.834 2.09 1.178 3.08 1.555 3 1.143 5.42 3.362 7.72 5.521 5.99 5.617 9.92 10.011 18.63 10.253.5.013.56-.986.06-.999ZM1925.43 137.946c-3.83 6.204-10.34 9.506-16.11 13.595-7.15 5.064-14.76 9.508-21.74 14.809-5.34 4.057-11.05 7.562-16.09 12.006-5.46 4.821-9.2 11.536-12.95 17.683-4.23 6.938-8.7 13.723-12.99 20.626-4.62 7.452-8.56 15.298-13.14 22.761-2.94 4.807-8.84 10.69-9.06 16.656-.19 5.193 3.23 8.575 5.88 12.721.35.553.82-.174.55-.607-1.4-2.188-3.01-4.222-4.36-6.432-3.1-5.031.09-10.02 2.75-14.322 3.86-6.219 7.6-12.361 11.21-18.736 7.56-13.37 15.98-26.381 24.3-39.286 7.96-12.333 21.24-20.482 33.32-28.407 5.83-3.83 11.51-7.883 17.35-11.71 4.54-2.977 8.83-6.058 11.72-10.75.26-.414-.31-1.139-.64-.607Z"/>
    <path d="M1843.42 123.795c-1.23 3.606-2.64 6.75-5.61 9.304-2.98 2.567-6.18 4.91-9.18 7.477-6.52 5.587-13.31 10.776-20.07 16.069-6.23 4.886-13.42 7.832-18.87 13.741-4.39 4.762-7.51 10.769-10.56 16.435-4.4 8.175-8.09 16.706-12.7 24.773-3.96 6.931-8.61 13.577-13.28 20.046-2.07 2.872-4.88 5.316-7.11 8.102-2.59 3.245-5.95 6.313-9.23 8.857-3.11 2.417-4.09 4.37-1.58 7.534.12.16.31.122.46.018 2.4-1.756 4.2-4.262 6.5-6.188 3.7-3.102 7.84-5.92 11.9-8.502 2.32-1.471 4.45-3.356 6.59-5.061 2.93-2.325 5.14-5.098 8.72-2.048 1.91 1.627 5.28 1.629 7.63 2.006 3.78.608 7.45 1.794 11.12 2.898 7.18 2.161 14.06 4.11 21.64 4.083 3.34-.012 6.7-.78 9.98-1.333 4.77-.805 9.3-.577 14.1-.142 8.54.775 16.91 2.939 25.37 4.384 7.48 1.278 14.71 1.472 22.26 2.166 3.68.337 7.32.672 11.01.489 3.37-.167 6.75-1.764 9.84-2.943.44-.168.35-1.13-.19-.923-3.77 1.438-7.35 2.768-11.41 2.969-4.16.206-8.47-.541-12.61-.882-3.46-.285-6.93-.209-10.39-.421-3.85-.236-7.73-1.362-11.54-1.964-7.41-1.173-14.63-3.332-22.14-3.853-3.01-.209-5.98-.562-9.01-.547-3.95.018-8 1.203-11.91 1.745-7.32 1.015-14.75-.673-21.71-2.808-3.07-.944-6.14-1.892-9.23-2.785-3.82-1.104-9.04-.803-12.41-3.042-3.73-2.48-4-2.707-7.53.547-5.39 4.963-11.85 8.722-17.7 13.102-2.24 1.67-4.7 3.318-6.48 5.489-3.74 4.538-2.71-1.64-.9-3.188 1.28-1.098 2.58-2.119 3.81-3.281 4.52-4.262 8.78-9.039 12.69-13.852 8.95-11.026 15.66-24.017 21.88-36.701 3.28-6.703 6.73-13.34 10.84-19.583 4.67-7.095 11.12-11.181 18.19-15.572 12.14-7.54 22.14-18.057 33.59-26.511 3.2-2.362 4.65-6.072 5.89-9.696.18-.527-.44-1.031-.66-.408ZM1824.9 98.337c-6.16 7.881-9.16 18.104-11.51 27.724-.4 1.639-.83 3.268-1.3 4.887-.84 2.949-4.21 1.284-5.75.821-1.74-.523-3.78-.402-5.58-.55-6.52-.535-12.72-2.309-19.34-2.408-.46-.007-.91.869-.34.877 7.07.106 13.74 1.949 20.73 2.522 2.5.206 4.65.888 7.07 1.396 1.02.214 1.79.314 2.7-.286 1.18-.772 1.47-2.766 1.8-3.935.94-3.314 1.64-6.69 2.61-10 2.12-7.257 4.94-14.751 9.61-20.722.4-.52-.35-.766-.7-.326Z"/>
    <path d="M1825.01 110.442c-1.09 6.104-2.5 12.586-5.09 18.254-.8 1.744-3.46 5.767-1.72 7.624 1.33 1.413 3.02 2.288 4.39 3.675 1.56 1.575 2.47 3.433 4.35 4.698 1.57 1.049 3.32 1.799 4.9 2.833 4.9 3.211.81 7.417-1.65 10.299-3.24 3.801-5.3 8.693-8.38 12.717-3.96 5.179-6.77 11.002-10.51 16.306-7.89 11.193-25.76 5.951-37.22 9.552-.62.197-.21.868.33.697 10.47-3.291 24.33.73 33.71-5.92 4.9-3.475 7.25-9.31 10.33-14.278 3.61-5.839 7.99-10.91 11.25-17 1.82-3.424 5.77-5.109 5.55-9.444-.16-3.172-5.51-5.111-7.65-6.352-2.37-1.375-3.12-4.115-5.27-5.649-3.97-2.831-3.36-5.596-1.52-9.457 2.7-5.663 4.08-12.302 5.18-18.441.09-.529-.9-.583-.98-.114Z"/>
    <path d="M1821.33 171.376c.14 4.971 2.93 9.153 5.37 13.315 4.01 6.837 6 13.905 6.66 21.772.32 3.861-2.38 7.342-3.93 10.677-1.34 2.902-2.35 5.892-3.82 8.75-2.69 5.246-5.36 10.604-8.23 15.751-.32.575.47.705.74.217 2.88-5.162 5.45-10.533 8.23-15.751 1.77-3.314 2.94-6.849 4.52-10.249 1.29-2.78 2.78-5.051 3.29-8.119.32-1.963-.25-4.246-.57-6.168-.57-3.308-.66-6.338-2.09-9.433-3.02-6.517-9.12-13.696-9.33-21.015-.01-.625-.86-.23-.84.253ZM1826.03 250.741c1.2-.45 2.46-.671 3.59-1.287 1.7-.921 3.14-5.025 3.91-5.928 4.03-4.784 6.62-10.012 9.43-15.58 3.05-6.046 7.31-11.083 11.09-16.652a38.109 38.109 0 0 0 4.03-7.62c.91-2.348.46-4.174.79-6.62.08-.617-.66-.729-.74-.109-.31 2.31.11 3.845-.73 6.361-1.06 3.202-3.05 6.125-4.93 8.896-3.14 4.616-6.57 8.796-9.31 13.689-2.41 4.316-4.28 8.876-6.94 13.061-2.23 3.494-6.57 9.43-10.25 10.805-.44.167-.43 1.166.06.984ZM1884.24 248.198c.06-2.164.8-4.457 1.73-6.399.25-.513-.74-.517-.94-.098-.96 1.998-1.71 4.37-1.77 6.601-.01.535.97.375.98-.104ZM1829.8 268.571c1.55-2.856 4.13-4.544 6.69-6.401 1.98-1.439 5.48-6.585 8.08-6.352 2.89.259 6.98 2.936 9.79 4.047 3.91 1.549 7.98 2.48 11.96 3.819 6.77 2.285 13.62 4.133 20.51 6.056 2.56.714 4.96 1.409 7.62 1.442 3.8.046 7.17-3.781 10.58-.051.42.46.77-.408.44-.763-1.2-1.322-2.08-1.937-3.89-1.986-1.24-.033-2.74.735-3.86 1.105-2.62.873-5.02.822-7.69.128-8.49-2.198-16.86-4.63-25.15-7.426-5.24-1.769-10.41-3.232-15.54-5.399-1.87-.793-4.29-2.549-6.39-1.743-2.43.932-4.81 4.684-6.94 6.307-2.59 1.976-5.23 3.643-6.81 6.574-.23.421.31 1.191.6.643Z"/>
    <path d="M1829.2 268.778c1.98 1.63 5.02 4.312 2.15 6.715-.73.615-1.46.871-1.82 1.754-.47 1.139 2.03 3.852 2.54 4.588 1.52 2.197 3.4 4.386 5.52 6.019 3.5 2.682 7.6 3.766 10.75 6.986 5.97 6.103 13.68 10.125 19.47 16.416 4.91 5.344 10.32 11.554 16.31 15.69 4.8 3.319 11.42 4.547 12.79 11.126.92 4.429-.21 9.83-.71 14.292-.24 2.134-1.21 5.646.28 7.611.68.898 1.42 1.637 2.24 2.414 1.7 1.624 1.55 3.584 2.57 5.476 1.77 3.257 4.49 6.049 6.95 8.794 5.8 6.487 12.6 12.068 19.12 17.794.35.312 1.25 0 .78-.408-6.11-5.368-12.28-10.663-17.94-16.523-2.93-3.036-7.1-6.97-8.34-11.042-.81-2.676-1.99-4.08-3.94-6.048-2.74-2.757-.27-11.947 0-15.409.21-2.775.63-6.591-.64-9.185-2.15-4.369-6.65-6.157-10.72-8.352-6.82-3.68-12.69-11.053-17.97-16.637-5.89-6.216-13.61-10.194-19.47-16.417-1.76-1.87-3.58-3.244-5.93-4.267-5.35-2.326-8.96-6.382-11.99-11.281-1.43-2.327 2.61-3.532 2.94-5.759.27-1.792-3.2-3.967-4.34-4.903-.4-.333-1.11.143-.6.556Z"/>
    <path d="M1831.09 276.044c2.39 2.962 4.53 6.08 7.25 8.75 2.17 2.128 5.49 3.118 8.28 4.101 8.63 3.048 15.49 9.315 24.03 12.569 8.38 3.196 17.14 5.796 26.05 6.998 10.49 1.415 20.26 3.946 30.31 7.194.45.145 1.03-.635.48-.813-8.24-2.661-16.37-5.115-24.93-6.507-9.05-1.469-17.64-2.949-26.36-5.864-8.97-2.997-16.16-8.039-24.38-12.485-3.2-1.729-6.84-2.484-10.11-4.085-4.27-2.092-6.92-6.865-9.81-10.447-.31-.391-1.12.2-.81.589Z"/>
    <path d="M1844.03 287.842c-2.39 4.157-5.29 7.392-7.32 11.784-1.9 4.106-12.13-3.244-14.55-4.81-10.31-6.688-22.01-10.868-32.78-16.802-5.29-2.911-10.65-5.556-16.12-8.098-3.13-1.454-5.76-3.186-7.81-6.053-1.17-1.637-2.45-3.022-4.04-4.272-2.5-1.974-7.46-.598-9.21-2.978-3.19-4.331-3.59-10.896-6-15.75-.21-.423-1.16-.25-.9.271 2.52 5.067 3.39 10.731 6 15.75.5.974 1.22 1.518 2.25 1.755.36.082.8.025 1.13.021 3.2-.045 5.76.954 8.11 3.254 1.83 1.798 2.75 4.12 4.87 5.653 2.43 1.756 5.09 2.965 7.8 4.223 6.8 3.153 13.25 6.87 19.88 10.355 5.24 2.76 10.67 5.26 16.14 7.54 3.62 1.513 6.84 3.557 10.1 5.712 3.15 2.076 7.17 3.348 9.95 5.912 1.25 1.159 3.55 2.422 4.9.56 1.46-1.994 2.15-4.328 3.33-6.47 1.43-2.591 3.72-4.656 5.21-7.242.26-.46-.7-.73-.94-.315Z"/>
    <path d="M1751.78 257.845c4.26 4.267 7.93 8.942 12.89 12.415 5.8 4.05 10.88 8.914 16.5 13.181 5.4 4.094 11.1 7.615 16.38 11.903 5.21 4.232 11.19 7.61 15.8 12.537 4.68 4.999 6.25 13.418 8.09 19.836 2.23 7.783 4.37 15.635 6.18 23.528 3.05 13.339 9.77 24.96 15.34 37.358 5.69 12.643 12.56 25.067 17.16 38.162 2.58 7.313 1.79 14.89 3.22 22.383.93 4.88 3.94 8.879 7.06 12.585 4.06 4.815 8.15 9.347 11.55 14.686 2.28 3.571 2.2 6.222 6.92 6.769 13.54 1.57 26.27-7.755 39.7-7.95.53-.007.34-.983-.14-.976-12.77.185-24.36 7.696-37.14 7.999-6.62.157-9.83-8.305-13.3-12.95-3.71-4.968-8.38-9.06-11.65-14.385-3.87-6.324-2.83-14.391-3.75-21.446-.76-5.93-3.41-11.606-5.94-16.952-5.97-12.636-11.49-25.487-17.42-38.153-2.96-6.329-6.45-12.268-8.69-18.925-2.11-6.287-3.25-12.958-4.97-19.368-2.94-10.981-4.75-25.387-12.79-33.979-3.54-3.779-8.26-6.427-12.35-9.531-5.36-4.062-10.36-8.375-16.08-11.95-5.43-3.393-10.06-7.967-14.97-12.042-3.16-2.624-6.72-4.5-9.66-7.424-2.58-2.566-4.92-5.415-7.5-8-.46-.465-.81.322-.44.689Z"/>
    <path d="M1805.04 300.249c3.43-2.768 6-6.429 9.54-9.093.46-.35-.34-.901-.71-.617-3.54 2.665-6.12 6.326-9.54 9.093-.46.366.34.914.71.617ZM1928.9 437.584c-6.03-.053-12.38-3.398-17.4-6.495-5.46-3.372-10.92-6.897-16.21-10.531-5.42-3.716-9.92-8.196-14.53-12.832-4.44-4.473-9.48-8.321-13.91-12.782-1.83-1.844-3.49-1.02-4.92.643-1.33 1.553-4.58 2.143-6.36 3.175-3.06 1.779-5.9 3.653-9.28 4.801-6.14 2.087-11.67 5.512-17.92 7.248-5.41 1.502-10.85 2.368-15.96 4.814-.5.242-.42 1.035.18.75 5.49-2.63 11.48-3.571 17.3-5.187 5.28-1.466 9.81-4.695 15.02-6.388 5.03-1.635 8.91-4.515 13.68-6.676 1.49-.675 2.78-.986 3.96-2.082 2.71-2.508 6.04 1.859 8.1 3.614 9.64 8.205 17.61 17.543 28.3 24.508 8.55 5.565 18.94 14.156 29.65 14.25.48.006.92-.825.3-.83ZM1625.71 470.151c4.86 5.14 8.71 10.928 13.74 15.981 4.84 4.875 9.21 10.018 13.87 15.029 4.13 4.432 10.64 6.926 15.73 10.047 6.49 3.98 13.08 7.818 19.64 11.688 5.72 3.379 12.31 4.598 18.75 5.838a447.23 447.23 0 0 0 24.12 3.984c15.23 2.076 30.65 2.84 45.94 1.004 8.14-.979 16.22-2.076 24.41-2.656 7.43-.525 14.81-2.055 22.25-1.891 14.35.318 27.2 3.391 39.56 10.906 12.35 7.51 19.55 19.625 30.49 28.57 5.63 4.6 11.62 8.627 16.7 13.869 4.73 4.875 9.4 9.875 14.05 14.812.55.961 1.11 1.922 1.65 2.883.2.596.92.027.77-.434-1.41-4.26-6.01-7.256-8.99-10.432-5.3-5.65-10.2-11.168-16.38-15.918-5.54-4.26-10.78-8.408-15.42-13.668-4.65-5.266-9.16-10.486-14.59-14.986-9.49-7.873-21.05-13.152-33.12-15.5-14.07-2.73-28.42.09-42.47 1.264-15.96 1.332-31.35 3.861-47.45 2.938-15.64-.896-31.31-3.535-46.62-6.777-14.78-3.129-27.64-13.477-40.56-20.928-3.27-1.881-6.31-3.725-8.89-6.494-2.03-2.184-3.62-4.711-5.75-6.809-5.76-5.676-11.78-11.258-16.5-17.852a50.293 50.293 0 0 0-4.36-5.271c-.36-.385-.89.455-.57.803Z"/>
    <path d="M1633.67 473.838c3.08 2.354 5.38 5.301 7.92 8.186 2.03 2.303 4.64 4.073 6.9 6.127 4.71 4.27 9.11 8.854 13.57 13.373 4.07 4.121 9.76 6.725 14.8 9.439 5.61 3.021 11.36 4.512 17.62 5.621 14.12 2.506 28.65 1.846 42.93 2.01 14.6.166 29.22.049 43.74-1.713 14.78-1.795 31.59-4.5 46.13-.211 6.6 1.947 12.78 5.232 19.24 7.582 6.9 2.508 12.9 5.943 19.04 9.926 5.81 3.764 11 8.34 15.5 13.584 3.9 4.535 7.29 10.189 12.07 13.854 2.9 2.23 5.98 4.188 8.81 6.521 2.69 2.217 4.95 4.914 7.65 7.137 5.51 4.541 11.32 8.822 16.5 13.75.35.33 1.2-.186.82-.549-4.36-4.137-9.15-7.943-13.86-11.672-5.32-4.221-9.85-9.242-15.46-13.107-6.03-4.16-10-9.707-14.69-15.221-3.86-4.553-7.98-8.596-12.74-12.211-11.1-8.438-23.54-12.807-36.26-18.098-12.92-5.369-26.05-4.531-39.74-3.438-15.08 1.203-29.89 3.043-45.07 3.129-15.56.088-31.49.541-46.98-1.035-14.36-1.463-29.91-6.414-40.32-16.947-4.46-4.518-8.91-9.041-13.62-13.311-2.33-2.105-4.74-3.926-6.82-6.295-2.24-2.543-4.32-5.042-7.02-7.109-.38-.285-1.12.324-.66.678ZM1862.69 448.679c-.79 1.252-2.78 2.179-3.29 3.607-1.01 2.85-1.32 5.89-2.26 8.784-1.01 3.153-2.48 6.12-3.65 9.216-1.07 2.869-1.55 5.893-2.65 8.75-1.5 3.854-2.61 7.505-1.68 11.738.6 2.748 3.14 2.826 5.68 3.244 5.83.957 11.86 1.223 17.6 2.652 6.99 1.744 13.43 4.287 20.62 5.406 6.32.984 12.35 2.607 18.6 3.896 5.96 1.23 12.22.375 18.05 2.266.5.164.54-.832.08-.98-4.25-1.381-8.76-1.299-13.18-1.623-5.68-.418-11-2.387-16.55-3.443-5.78-1.098-11.61-1.672-17.31-3.168-6.01-1.578-11.39-3.945-17.65-4.559-4.46-.438-8.99-.98-13.35-2.068-2.08-.52-1.65-5.039-1.94-6.66-.5-2.751 1.88-6.468 2.72-9.062 1.64-5.129 3.54-10.085 5.32-15.179.87-2.503 1.3-4.952 1.81-7.538.41-2.089 2.58-2.962 3.64-4.639.26-.408-.27-1.168-.61-.64Z"/>
    <path d="M1850.48 491.114c-4.98-.32-9.99-1.256-14.99-1.713-6.36-.58-12.18-3.883-18.38-5.26-5.94-1.321-11.85-3.452-12.18-10.32-.17-3.458.91-7.22.04-10.623-2.25-8.779-10.37-14.888-15.29-22.096-7.15-10.492-8-22.297-12.21-33.904-.16-.443-1.14-.442-.94.103 2.02 5.565 3.16 11.352 4.57 17.089 1.37 5.587 3.83 10.664 6.81 15.554 5.84 9.562 16.85 16.521 16.22 28.758-.16 3.086-1 7.844 1.09 10.537 2.32 2.975 6.66 4.369 10.16 5.331 5.56 1.531 11.23 3.963 16.89 5.064 2.74.535 5.48.736 8.27.893 3.37.188 6.61 1.141 9.98 1.357.65.043.53-.732-.04-.77ZM1630.85 475.362c3.8-1.273 7.55-3.228 10.7-5.704 2.87-2.253 1.11-3.963-.79-6.193-1.72-2.03 1.81-3.855.97-5.844-1.21-2.872-3.28-5.455-4.95-8.087-2.46-3.868-4.46-7.987-6.19-12.229-1.14-2.786-1.19-5.382-3.15-7.775-.3-.37-1.21.033-.88.441 1.85 2.267 2.1 4.928 3.06 7.592.78 2.155 1.86 4.452 2.89 6.479 1.94 3.827 9.61 12.369 7.08 16.543-1.28 2.111.88 3.945 2.11 5.308 2.86 3.146-9.13 8.104-11.05 8.745-.58.195-.4.923.2.724Z"/>
    <path d="M1624.85 415.58c.03 6.164 3.19 12.671 5.43 18.325 1.41 3.542 2.86 7.006 4.77 10.317 1.03 1.791 3.37 3.515.77 5.407-1.91 1.397-4.03 2.394-6.15 3.436-.43.213-.4 1.146.16.87 2.73-1.345 6.08-2.684 8.06-5.108.93-1.157-.76-3.056-1.28-3.878-2.6-4.125-4.38-8.565-6.17-13.083-1.97-4.943-4.76-11.119-4.79-16.446 0-.655-.81-.36-.8.16ZM1628.43 473.207c5.92-2.205 10.72-6.315 16.25-9.25 3.32-1.759 6.27-3.367 10.04-3.98 3.33-.54 6.77-.379 10.12-.735 7.78-.826 14.55.66 21.98 2.681 5.94 1.615 11.4.393 16.89-2.08 5.55-2.502 10.49-6.322 15.69-9.461 6.83-4.128 14.47-5.964 22.24-7.419 7.08-1.326 14.19-2.311 21.16-4.18 3.52-.945 7.07-1.741 10.58-2.751 3.47-1.001 6.67-2.712 10.21-3.541.49-.115.31-1.098-.18-.984-6.44 1.51-12.58 4.244-19.05 5.848-7.59 1.881-15.2 3.247-22.9 4.624-6.29 1.126-12.6 2.572-18.41 5.3-6 2.814-11.28 7.019-17.03 10.277-6.73 3.81-13.3 4.979-20.78 2.946-6.84-1.86-13.46-3.18-20.58-2.245-6.91.909-12.8.506-19.05 4.021-5.85 3.288-11.22 7.659-17.54 10.014-.44.165-.14 1.103.36.915ZM1818.41 485.027c-3.77 3.791-5.89 7.473-11.67 8.727-4.17.908-7.71 1.242-11.6 3.127-3.06 1.477-5.92 3.105-9.28 3.85-2.71.602-5.62.355-8.4.439-4.96.154-9.73.91-14.73.766-6.05-.174-8.29 3.916-9.35 9.512-1.92 10.184-5.77 19.76-8.6 29.766-.16.559.81.529.94.076 2.52-8.928 6.47-17.627 8.39-26.701 1.27-6.016 1.44-12.074 9.55-11.84 4.09.117 7.97-.203 12.04-.664 3.83-.434 8.19.34 11.92-.979 4.82-1.707 9.11-4.766 14.14-5.859 3.23-.701 6.91-.504 9.86-2.268 3.17-1.896 4.91-4.926 7.47-7.504.47-.466-.32-.818-.68-.448Z"/>
    <path d="M1781.68 516.146c0-2.166 0-4.314.73-6.383.22-.619-.65-.506-.82-.025-.76 2.141-.77 4.371-.77 6.615 0 .625.86.279.86-.207ZM1830.03 517.009c-.97 2.865-1.32 5.855-2.09 8.771-.45 1.736-1.77 3.256-2.16 4.979-.39 1.695-.63 3.369-1.25 5-.2.529.78.412.94-.02 1.08-2.852 2.02-5.859 3-8.75 1.11-3.273 1.4-6.727 2.5-10 .18-.539-.79-.419-.94.02ZM1858.31 533.4c2.72 2.625 5.93 4.025 9.34 5.562 3.91 1.758 7.52 6.582 10.55 9.553 6.07 5.941 10.76 14.012 17.96 18.75 7.88 5.182 15.03 11.568 21.92 18.01 5.45 5.088 11.97 11.105 18.82 14.188.53.236.63-.73.2-.924-7.23-3.244-14.1-9.814-19.85-15.189-6.08-5.684-12.5-11.732-19.57-16.135-7.56-4.703-13.21-12.986-19.11-19.502-2.77-3.066-6.04-6.154-9.28-8.715-3.33-2.623-7.44-3.334-10.61-6.398-.44-.433-.71.47-.37.8ZM1842.89 490.605c-1.76 5.613-1.67 6.473 3.13 9.498 6.53 4.127 12.71 9.316 19.03 13.822.47.338.79-.576.4-.852-4.57-3.264-9.28-6.338-13.75-9.75-2.25-1.715-4.35-3.482-6.75-5-2.96-1.869-2.28-4.434-1.34-7.43.17-.546-.52-.909-.72-.288ZM1806.72 480.702c-.85 1.447-2.28 4.012-3.18 4.908a.595.595 0 0 0-.04.789c2.3 2.715 5.56 3.494 8.9 4.279 6.03 1.414 11.54 4.881 17.36 7.002 10.41 3.801 21.08 8.451 28.74 16.719.39.424.82-.453.5-.799-7.74-8.352-18.42-12.943-28.9-16.844-5.09-1.891-10.06-5.133-15.28-6.502-2.77-.729-5.56-1.242-8.19-2.447-3.3-1.51-.67-4.257.65-6.511.26-.441-.23-1.159-.56-.594ZM1933.62 555.71c-4.09-3.139-8.88-5.178-13.1-8.139-5.22-3.658-9.98-7.754-15.4-11.172-4.33-2.736-8.91-4.939-13.34-7.494-1.46-.84-5.92-1.896-2.42-5.018 1.31-1.17 2.05-2.494 2.85-4.061.27-.51-.71-.572-.93-.156-1.01 1.988-6.28 4.805-4.51 7.486.69 1.045 2.64 1.551 3.69 2.018 2.77 1.24 5.44 2.949 8.13 4.355 6.6 3.441 12.82 7.859 18.56 12.564 4.89 4.016 10.74 6.367 15.73 10.193.37.289 1.2-.224.74-.576Z"/>
    <path d="M1886.37 522.972c2.37 2.109 4.1 3.553 7.17 4.402 4.55 1.26 8.67 4.863 12.93 6.883 8.08 3.828 17.15 5.42 25.24 9.285.46.217 1.17-.303.58-.584-6.56-3.137-13.82-5.234-20.71-7.521-4.91-1.631-9.24-4.252-13.69-6.836-3.68-2.145-7.48-3.156-10.76-6.072-.36-.319-1.23.029-.76.443ZM1641.72 191.505c1.33 5.032-5.64 9.307-9 11.995-4.4 3.529-7.66 8.291-10.9 12.85-3.43 4.83-6.4 10.083-10.27 14.576-4.54 5.282-10.87 8.579-16.08 13.115-4.68 4.083-8.62 9.327-12.82 13.902-5.02 5.464-9.96 10.994-15 16.443-8.39 9.081-14.49 20.419-25.49 26.768-.54.31-.2.978.35.665 10.2-5.889 16.59-16.045 23.97-24.891 4.96-5.951 10.4-11.552 15.65-17.258 5.69-6.198 11.05-13.136 17.77-18.244 4.74-3.611 9.52-6.81 13.44-11.369 4.64-5.39 8.14-11.991 12.38-17.724 3.78-5.126 8.41-8.654 13.04-12.889 2.28-2.098 4.78-4.911 3.9-8.209-.13-.522-1.07-.189-.94.27ZM1523.79 315.5c1.99 1.69 4.94 5.717 7.86 5.125.68-.138 1.22-1.402 1.52-1.881 1.63-2.583 5.03-4.147 7.07-6.482 1.68-1.916 3.13-3.98 4.67-5.999 2.48-3.256 6.94-5.261 10.33-7.38 5.56-3.479 10.99-8.17 16.84-11.106.59-.294-.08-.847-.54-.616-4.8 2.407-9.26 6.191-13.79 9.123-4.28 2.763-9 5.236-12.8 8.64-3.91 3.491-6.34 8.095-10.6 11.44-.72.562-3.08 3.916-4.04 3.366-2.12-1.214-3.99-3.229-5.85-4.801-.37-.315-1.15.167-.67.571ZM1519.91 321.805c3.56 2.737 6.98 5.644 10.55 8.381 1.48 1.141 2.88 2.363 4.42 3.445.64.458 2.43.897 1.35 2.045-.75.789-1.37 1.593-2.03 2.457-.39.521.31.859.66.402.79-1.039 2.56-2.354 2.9-3.631.25-.958-1.77-1.715-2.25-2.028-5.3-3.429-9.97-7.984-14.97-11.827-.38-.289-1.06.427-.63.756Z"/>
    <path d="M1537.14 335.258c.29-2.696 2.11-4.865 3.41-7.162 1.73-3.072 3.33-6.212 5.13-9.25 3.5-5.93 9.36-10.027 15.01-13.765 11.16-7.379 23.38-14.806 32.91-24.273.44-.437-.06-.995-.51-.554-10.87 10.794-24.99 17.721-36.99 27.023-4.88 3.781-8.7 7.135-11.86 12.493-1.59 2.68-3 5.463-4.5 8.188-1.35 2.433-3.18 4.559-3.48 7.384-.07.624.82.399.88-.084Z"/>
    <path d="M1554.29 290.426c.82 2.119 2.31 4.101 3.34 6.155 1.22 2.415 2.41 4.915 3.8 7.234.25.418 1.14.212.82-.323-1.35-2.262-2.44-4.719-3.69-7.046-.57-1.068-1.07-2.178-1.6-3.265-.51-1.03-1.31-1.798-1.73-2.89-.17-.441-1.15-.406-.94.135ZM1533.59 311.077c.3 1.667 2.31 2.808 3.41 3.984 2.1 2.257 4.83 3.987 6.6 6.53.36.512.92-.217.64-.616-1.31-1.874-3.06-3.243-4.78-4.716-1.07-.914-1.97-2.025-2.94-3.032-.76-.778-2-1.375-2.21-2.547-.11-.644-.81-.101-.72.397ZM1607.52 236.126c.58 2.215 2.78 3.644 4.1 5.433 3.1 4.216 5.67 8.754 8.95 12.861 6.43 8.028 12.83 16.11 19.34 24.071 6.08 7.433 11.68 15.466 18.47 22.269 6.27 6.284 13.78 10.888 18.84 18.4.28.406 1.03-.25.75-.667-4.35-6.457-10.49-11.336-16.45-16.215-7.33-6.007-12.59-14.456-18.59-21.702-6.54-7.902-12.65-16.088-19.29-23.911-3.07-3.613-5.85-7.468-8.48-11.411-1.11-1.67-2.11-3.422-3.3-5.038-1.14-1.559-2.97-2.605-3.49-4.585-.14-.504-.98.034-.85.495ZM1668.32 170.241c2.4 5.989 5.98 11.596 7.75 17.841 1.09 3.821-.26 7.767-1.14 11.479-.82 3.474-1.51 6.923-2.08 10.446-.92 5.679-3.11 10.755-2.57 16.496.5 5.344-.78 11.408 1.11 16.498 2.38 6.395 2.31 13.293 3.83 19.9 1.51 6.512 2.92 13.069 4.58 19.552 1.35 5.305 4.71 9.257 8.48 13.069 4.37 4.411 9.11 8.637 14.19 12.215 4.91 3.46 10.29 6.234 15.49 9.218 6.21 3.565 11.67 7.723 17.02 12.476 5.32 4.732 10.9 9.55 15.06 15.377 3.41 4.759 3.96 10.923 7.61 15.66 4.15 5.395 8.89 10.29 13.03 15.708 4.24 5.543 8.26 11.243 12.6 16.701 3.86 4.846 8.04 9.406 12.97 13.172 4.95 3.783 10.61 6.605 15.9 9.866.44.269 1.16-.211.6-.555-4.86-2.994-9.88-5.706-14.6-8.931-5.98-4.088-10.69-9.693-15.16-15.314-3.99-5.003-7.67-10.24-11.52-15.345-4.42-5.849-9.74-11.005-13.94-17-3.33-4.761-4.09-10.727-7.48-15.469-3.55-4.96-8.53-9.108-13.04-13.16-9.19-8.272-19.28-13.938-29.82-20.297-11.05-6.671-24.03-17.06-27.06-30.087-1.45-6.223-2.89-12.432-4.33-18.654-1.41-6.086-1.07-12.487-3.49-18.334-2.05-4.956-.72-12.792-1.23-18.184-.31-3.361 1.55-6.343 2.03-9.673.47-3.203 1-6.394 1.51-9.59 1.05-6.619 3.87-12.205 1.97-18.912-1.62-5.713-5.16-10.912-7.35-16.401-.18-.436-1.13-.309-.92.232Z"/>
    <path d="M1634.86 202.936c2.55 2.736 5.87 4.429 8.52 7.073 3.44 3.416 6.91 6.781 10.2 10.342 3.29 3.562 6.89 7.156 9.65 11.142 2.18 3.156 5.1 5.554 7.26 8.788.28.418 1.18-.019.91-.424-4.21-6.277-9.69-11.745-14.68-17.425-3.19-3.625-6.52-7.071-9.95-10.458-3.47-3.42-7.86-6.125-11.12-9.627-.33-.351-1.16.196-.79.589ZM1379.03-14.055c4.92 7.871 12.66 15.137 19.6 21.246 8.34 7.353 17.83 13.265 26.32 20.432 8.25 6.96 15.44 15.106 20.73 24.536 5.93 10.571 10.81 21.687 16.97 32.137 2.62 4.438 5.74 8.534 8.27 13.02 2.45 4.324 4.78 8.485 8.04 12.267 3.9 4.528 8.07 8.742 11.29 13.812 3.01 4.725 4.23 10.44 5.98 15.688 3.24 9.72 11.9 16.941 18.92 23.961 6.08 6.077 12.3 14.551 20.94 16.926.45.125.93-.714.36-.869-9.23-2.538-16.53-12.706-23.06-19.23-3.65-3.654-7.25-7.318-10.57-11.281-4.19-4.992-5.95-10.598-7.85-16.683-3.08-9.861-9.69-16.513-16.27-24.156-3.53-4.097-5.82-9.108-8.55-13.738-2.99-5.085-6.5-9.826-9.4-14.99-5.3-9.45-9.73-19.357-15.03-28.808-4.78-8.514-11.56-15.776-18.82-22.22-7.86-6.98-16.75-12.703-24.93-19.292C1398 5.5 1394.46 1.94 1391-1.807c-3.86-4.186-8.09-7.89-11.13-12.766-.29-.458-1.09.118-.84.518Z"/>
    <path d="M1335.07 37.542c22.12 5.821 46.47 7.444 68.92 2.639 6.61-1.414 12.87-1.344 19.23 1.075 6.1 2.323 10.95 6.313 16.25 9.974 4.6 3.184 9.68 3.609 15.13 4.063 6.05.504 11.9 2.425 17.97 2.641.55.02.87-.718.21-.741-5.42-.192-10.82-1.638-16.17-2.45-2.98-.451-6.01-.501-8.99-.953-3.91-.593-7.02-2.749-10.12-5.014-7.75-5.66-15.64-10.292-25.48-10.38-5.55-.049-11.06 1.81-16.48 2.722-6.17 1.039-12.68.785-18.92.818-14 .076-27.55-1.513-41.09-5.078-.49-.129-1.09.517-.46.684ZM1449.71-13.059c7.6 6.468 16.51 10.774 23.32 18.213 6.49 7.098 14.42 12.777 21.98 18.658 8.8 6.845 16.49 15.264 24.32 23.166 3.73 3.76 22.24 17.92 16.27 23.8-.44.431.02 1.02.47.579 1.37-1.344 2.55-2.215 2.01-4.2-1.02-3.783-4.52-7.421-7.06-10.232-3.78-4.204-8.24-7.881-12.23-11.904-4.85-4.899-9.7-9.797-14.72-14.535-8.85-8.363-19.09-15.024-27.85-23.489-3.65-3.531-6.81-7.18-10.94-10.198-4.95-3.625-10.26-6.633-14.95-10.625-.36-.305-1.03.417-.62.767Z"/>
    <path d="M1492.67 33.923c.25-5.004 3.04-8.119 5.99-11.825 2.86-3.587 4.4-8.067 7.33-11.664.31-.39-.01-1.212-.42-.706-3.77 4.621-6.07 10.132-9.84 14.766-2.39 2.945-3.66 5.868-3.85 9.663-.03.652.76.27.79-.234ZM1777.66 407.374c-.86-5.483-4.64-9.462-4.4-15.205.17-3.853 1.01-6.23 4.09-8.658 1.93-1.517 3.84-2.856 5.49-4.693.35-.385-.58-.765-.89-.411-3.4 3.791-8.48 5.493-9.54 10.893-1.41 7.129 3.23 11.439 4.26 18.052.08.473 1.07.548.99.022ZM1677.79 318.66c3.12-3.693 5.87-7.19 9.93-9.942 2.29-1.549 4.15-3.705 5.96-5.767 5.05-5.76 9.65-12.299 15.5-17.264 6.48-5.497 14.38-10.078 21.41-14.826 6.84-4.619 13.92-8.844 21.49-12.15.58-.251.2-.903-.36-.657-15.29 6.675-29.88 17.054-43.12 27.127-5.65 4.296-9.99 10.823-14.58 16.165-2.91 3.397-5.96 6.125-9.56 8.751-2.97 2.159-5.09 5.476-7.43 8.238-.42.5.43.714.76.325Z"/>
    <path d="M1676.53 318.202c.78 4.477 4.79 7.76 7.04 11.514.25.417 1.01-.226.75-.656-2.16-3.61-6.14-6.847-6.89-11.139-.11-.574-.99-.184-.9.281ZM1628.69 459.606c5.26-2.311 9.76-6.011 15.25-7.841.49-.166.48-1.016-.14-.81-5.49 1.833-9.99 5.529-15.25 7.841-.47.209-.46 1.074.14.81Z"/>
  </g>
  <mask id="c" width="1920" height="965" x="0" y="35" maskUnits="userSpaceOnUse" style="mask-type:luminance">
    <path fill="#fff" d="M1920 35H0v965h1920V35Z"/>
  </mask>
  <g fill="#757067" mask="url(#c)">
    <path d="M332.353 921.079c7.527 3.461 15.243 6.404 23.117 8.973 6.887 2.246 13.632 5.367 19.176 10.072 4.528 3.842 8.528 8.061 13.961 10.652 6.454 3.078 14.346 4.123 21.289 5.521 8.296 1.672 15.882 3.889 23.335 7.961 7.708 4.211 15.296 8.635 23.025 12.809 7.036 3.799 14.147 7.633 21.42 10.955 7.165 3.273 14.409 2.514 21.916 4.186.506.113.983-.604.344-.746-2.821-.627-5.605-.883-8.482-1.059-5.374-.332-9.988-1.586-14.877-3.82-7.278-3.324-14.37-7.287-21.409-11.088-13.608-7.348-26.177-15.936-41.478-19.238-7.686-1.658-15.562-2.938-23.001-5.545-6.536-2.291-11.251-7.729-16.392-12.09-4.806-4.08-10.706-6.248-16.439-8.67-8.2-3.465-16.799-5.809-24.936-9.551-.44-.201-1.137.417-.569.678ZM623.86 990.65c-.322-11.104-6.155-20.197-13.493-28.105-4.137-4.459-7.175-9.072-10.271-14.279-2.545-4.279-5.629-8.514-9.75-11.381-.39-.271-1.201.311-.776.605 8.301 5.777 11.362 16.135 17.979 23.463 7.915 8.766 14.999 17.559 15.357 29.945.016.527.968.23.954-.248Z"/>
    <path d="M588.6 989.489c5.011-3.115 10.587-4.52 15.917-6.898 5.842-2.605 10.942-6.549 16.882-8.963 13.553-5.508 29.534 1.359 43.422 2.275 5.635.373 11.353-.279 16.904-1.191 5.302-.873 9.401 5.471 13.449 8.438 4.975 3.643 10.557 6.285 15.487 10.004 4.632 3.494 9.013 7.226 14.331 9.646.442.2 1.09-.45.521-.71-6.314-2.882-11.444-7.636-17.012-11.679-5.359-3.893-11.348-6.623-16.483-10.9-2.604-2.17-4.273-5.789-7.968-5.809-3.28-.018-6.646.965-9.922 1.242-4.257.359-8.498.271-12.752-.09-13.026-1.104-25.584-6.18-38.631-2.479-5.732 1.627-10.648 5.436-15.82 8.244-6.057 3.289-12.884 4.584-18.79 8.256-.556.345-.022.917.465.614Z"/>
    <path d="M685.398 973.945c1.289-4.078 4.117-7.477 4.803-11.77.078-.492-.916-.6-.995-.102-.674 4.225-3.479 7.562-4.747 11.576-.163.514.797.747.939.296ZM375.014 882.919c10.298.596 18.62 10.951 27.109 16.039 10.939 6.555 22.864 11.578 34.139 17.537 10.117 5.35 20.373 12.146 31.153 16 3.707 1.326 7.698.883 11.401-.168 6.455-1.832 12.205-3.869 19.036-3.736 2.715.053 4.688-1.256 6.267-3.404 1.34-1.822 1.673-3.74 3.54-5.295 3.08-2.564 8.615-.484 11.94.527 10.43 3.17 19.788 2.385 30.226-.406 9.726-2.6 19.752-3.547 28.548-8.66 11.094-6.449 23.44-10.27 35.656-14.154.627-.201.145-.836-.389-.666-10.625 3.379-22.287 6.432-31.998 11.965-5.258 2.998-10.047 6.156-16.154 7.098-5.374.828-10.556 2.244-15.794 3.68-5.819 1.594-11.636 2.809-17.701 2.725-5.728-.08-10.902-2.191-16.375-3.508-2.991-.721-5.847-.578-8.568.852-4.694 2.465-2.407 8.617-10.187 8.467-4.318-.084-8.34.713-12.444 1.996-7.461 2.336-13.404 3.826-20.76.186-11.342-5.615-22.395-11.881-33.625-17.727-10.938-5.695-22.593-10.387-32.768-17.43-6.882-4.766-13.209-12.16-22.116-12.674-.571-.035-.79.719-.136.756Z"/>
    <path d="M457.037 926.976c7.693-6.816 14.328-14.42 19.876-23.076 2.784-4.344 6.66-7.732 9.565-11.977 3.156-4.607 5.33-10.121 8.292-14.908.255-.412-.297-1.154-.626-.623-2.728 4.406-5.375 8.885-7.539 13.6-2.076 4.523-6.564 7.846-9.439 11.867-6.361 8.898-12.384 17.012-20.628 24.316-.353.314.063 1.188.499.801Z"/>
    <path d="M493.258 877.968c8.626-7.422 15.589-14.549 27.636-15.115 5.431-.256 10.898.275 16.327.418 6.168.162 10.736.451 15.204 5.201 6.035 6.418 9.936 14.414 16.761 20.131 3.101 2.598 6.747 3.854 10.497 5.193 5.761 2.061 10.266 5.777 15.807 8.164.437.188 1.18-.395.61-.641-5.028-2.164-9.166-5.66-14.325-7.625-6.365-2.426-11.352-4.598-16.063-9.664-5.598-6.02-10.25-18.123-18.798-20.619-4.235-1.238-8.739-.848-13.103-1.01-6.087-.229-12.126-.594-18.192.139-9.371 1.131-16.422 9.238-23.145 15.021-.469.403.426.716.784.407ZM612.282 896.825c5.572-1.824 9.968-5.326 14.163-9.322 5.877-5.602 11.603-11.111 18.606-15.336 6.625-3.998 14.145-6.885 21.07-10.363 7.854-3.943 15.831-7.746 23.547-11.951 13.909-7.58 27.824-16.291 43.86-18.285 8.249-1.027 16.43.008 24.718-1.346 8.002-1.305 15.953-3.055 23.814-5.023.465-.115.438-1.109-.08-.98-7.304 1.828-14.666 3.369-22.074 4.721-8.32 1.52-16.37.867-24.707 1.512-15.024 1.16-28.572 8.92-41.463 16.096-14.355 7.992-29.332 16.01-44.471 22.412-6.754 2.857-12.522 7.727-17.932 12.568-6.076 5.439-11.085 11.684-19.133 14.316-.453.149-.419 1.145.082.981Z"/>
    <path d="M725.166 831.241c-7.067.969-14.119 2.004-21.113 3.416-7.66 1.547-15.067 3.979-22.775 5.328-7.182 1.258-14.442 1.996-21.614 3.324-7.149 1.324-13.951 3.783-20.787 6.191-7.225 2.543-14.458 5.02-21.945 6.676-8.067 1.787-17.123.277-25.305.201-7.863-.07-15.497.775-23.386.107-7.91-.67-15.749-2.061-23.623-3.037-14.54-1.803-28.003-.523-41.913 4.117-10.267 3.426-19.347 6.77-25.091 16.375-7.738 12.941-21.399 22.268-35.71 26.857-5.312 1.705-11.681 1.979-16.396 5.133-2.805 1.877-4.902 4.162-8.013 5.691-2.339 1.148-4.396 2.268-6.21 4.164-.429.449.481.699.81.355 2.453-2.566 5.574-3.33 8.404-5.225 3.503-2.346 5.698-4.943 9.929-6.301 6.026-1.932 12.178-2.99 18.046-5.441 10.229-4.271 21.692-11.799 27.764-21.203 3.831-5.936 6.452-10.811 12.943-14.285 5.875-3.143 12.709-5.184 19.045-7.088 16.327-4.906 32.177-2.996 48.732-.678 6.725.939 13.454 1.682 20.247 1.807 7.199.131 14.33-.666 21.552-.406 6.652.238 13.483.662 20.031-.787 6.413-1.42 12.647-3.637 18.838-5.801 7.339-2.566 14.57-5.16 22.209-6.693 7.145-1.434 14.424-2.148 21.613-3.324 7.152-1.172 14.022-3.389 21.08-4.969 7.521-1.682 15.179-2.73 22.808-3.775.623-.084.436-.813-.17-.729ZM376.89 882.097c-5.479-2.562-11.402-3.848-17.301-5.051-7.13-1.453-14.238-3.621-21.17-5.824-14.308-4.549-27.865-11.109-42.287-15.402-14.737-4.385-30.051-5.494-45.286-6.963-15.956-1.539-31.492-4.66-47.321-6.936-5.389-.775-11.111-1.422-16.207.92-2.508 1.154-4.915 2.506-7.414 3.68-4.469 2.098-9.734 2.211-14.577 2.686-15.68 1.533-31.532 1.213-47.194-.35-3.968-.396-9.063-4.99-12.849-2.547-2.13 1.375-2.072 5.578-2.278 7.697-.735 7.574-5.894 10.842-11.394 15.098-5.585 4.324-10.562 9.547-15.374 14.697-8.031 8.6-15.242 17.938-22.525 27.164-3.648 4.621-7.289 9.266-11.075 13.775-3.986 4.748-8.938 8.578-13.159 13.104-3.411 3.658-4.944 7.482-7.06 11.959-.789 1.67-1.276 3.512-1.869 5.254-1.75 5.139-4.507 7.889-9.645 9.619-10.319 3.477-21.2 7.492-30.666 12.967-.444.256-.365 1.123.202.795 6.339-3.666 13.214-6.135 19.992-8.848 3.014-1.207 5.935-2.648 9.047-3.594 2.162-.654 4.959-1.32 6.761-2.799 3.443-2.824 4.66-6.732 6.042-10.838 1.062-3.154 2.539-6.312 4.02-9.297 2.061-4.154 6.393-7.41 9.72-10.555 21.084-19.924 34.658-46.732 58.173-64.412 3.366-2.531 6.509-4.896 8.408-8.738.978-1.977 1.038-4.191 1.369-6.322.104-.672.149-1.377.218-2.051.441-4.348 4.63-4.367 7.705-2.904 5.743 2.732 12.883 2.359 19.116 2.701 8.211.447 16.443.4 24.655.016 6.755-.316 13.65-.795 20.304-2.045 6.468-1.215 11.271-6.26 18.071-6.609 8.002-.41 16.27 1.83 24.069 3.35 7.571 1.475 15.223 2.459 22.886 3.303 12.234 1.348 24.508 2.268 36.708 3.922 12.672 1.717 24.896 5.914 36.805 10.436 10.49 3.984 20.728 8.311 31.546 11.367 10.001 2.826 20.942 4.037 30.398 8.461.432.2.925-.656.436-.886Z"/>
    <path d="M-22.483 613.089c1.243 5.738 4.154 10.617 7.432 15.418 4.48 6.564 8.943 12.623 12.429 19.822 6.752 13.945 13.95 27.764 20.268 41.906 2.97 6.648 5.396 13.516 6.918 20.641 1.683 7.879.513 15.627 1.177 23.584.608 7.277 3.058 14.225 3.84 21.457.865 7.996.878 16.08 1.192 24.109.293 7.535 1.26 14.996 1.474 22.533.237 8.385.015 16.779-.154 25.162-.151 7.553-.137 15.105-.418 22.654-.243 6.49-1.027 13.979 1.904 19.998 1.857 3.814 6.137 6.166 9.377 8.619 6.24 4.725 10.497 12.014 13.884 18.926 4.999 10.197 8.916 20.619 12.144 31.469 2.326 7.818 6.348 15.053 15.462 14.92 6.299-.092 12.263-1.846 18.324-3.395a208.355 208.355 0 0 1 24.909-4.762c16.159-2.086 32.206-4.471 48.288-7.121 15.596-2.572 31.315-5.248 47.126-5.896 15.492-.635 31.024.234 46.521.279 14.939.041 29.524 1.75 43.819 6.197 12.57 3.912 25.156 9.16 37.212 14.443 6.354 2.783 12.561 5.924 17.654 10.693 3.728 3.49 7.249 6.76 11.976 8.836 5.748 2.525 12.502 3.312 18.603 4.57 8.684 1.793 15.865 6.703 23.332 11.234 12.724 7.723 25.368 15.564 38.77 22.075 12.963 6.31 25.418 7.78 39.675 6.46 7.266-.68 14.477-1.77 21.763-2.25 7.535-.49 14.897-.39 22.378-1.68 26.383-4.547 48.497-20.588 71.035-33.912 12.354-7.305 25.553-13.789 40.154-14.463 15.277-.705 30.632 2.16 45.73 4.084 17.375 2.211 34.175 7.535 51.66 9.184.651.062.559-.715-.011-.77-15.164-1.432-29.867-5.369-44.785-8.246-14.336-2.764-29.568-4.359-44.148-5.002-27.113-1.193-48.59 13.977-70.732 27.574-12.036 7.393-24.609 13.938-38.145 18.111-14.552 4.48-29.382 3.66-44.319 5.36-7.214.82-14.393 1.74-21.663 1.84-10.069.14-19.095-2.6-28.1-6.88-13.441-6.391-26.075-14.357-38.77-22.08-5.502-3.348-10.984-7.17-16.996-9.533-6.506-2.559-14.124-3.551-20.898-5.115-7.083-1.637-11.714-6.002-16.844-10.805-4.054-3.795-9.178-6.359-14.184-8.678-23.889-11.066-49.051-20.58-75.549-21.824-14.698-.691-29.549-.639-44.264-.672-15.712-.033-31.031 1.881-46.54 4.219-16.299 2.457-32.503 5.502-48.838 7.729-14.557 1.984-28.548 4.125-42.818 7.742-7.864 1.992-17.08 3.564-22.278-4.08-3.06-4.498-4.118-10.398-5.58-15.547-1.434-5.057-3.75-9.719-5.795-14.545-2.431-5.73-4.89-11.412-8.064-16.777-2.977-5.031-6.84-9.656-11.504-13.189-2.024-1.531-4.106-2.945-5.954-4.697-3.662-3.473-3.878-8.596-4.072-13.301-.645-15.668.678-31.58.783-47.271.105-15.727-1.407-31.475-2.102-47.189-.304-6.889-1.258-13.26-2.738-19.961-1.815-8.217-1.984-16.004-1.798-24.348.319-14.23-6.73-28.436-12.841-40.891-3.256-6.633-6.621-13.211-9.814-19.877-3.176-6.629-5.95-13.723-9.816-19.98-5.516-8.924-13.453-16.609-15.742-27.184-.1-.458-1.062-.495-.94.073Z"/>
    <path d="M-37.252 909.501c12.148-1.053 23.323-6.057 35.106-8.777 6.489-1.498 13.001-2.84 19.33-4.947 5.9-1.967 11.486-4.801 17.311-6.971 19.088-7.113 32.969-24.795 40.502-43.178 2.672-6.52 5.35-12.008 13.152-11.59 3.014.162 6.694.844 9.453-.619.51-.271.829-.93 1.1-1.398 2.039-3.531 4.634-4.965 8.335-6.098 3.553-1.086 6.762-2.818 9.449-5.385 5.476-5.23 7.598-13.479 9.618-20.506 1.641-5.705 4.144-10.74 6.464-16.17 2.32-5.43 1.583-11.373 4.165-16.91.277-.594-.59-.617-.808-.15-2.112 4.533-2.749 8.959-3.22 13.906-.486 5.104-4.654 9.965-6.164 14.855-2.712 8.779-4.484 18.617-11.406 25.229-5.504 5.258-13.946 3.594-17.241 11.078-1.358 3.084-10.412 1.049-13.328 1.35-2.801.289-4.843 2.285-6.548 4.34-3.248 3.914-4.447 9.805-6.673 14.336-2.582 5.258-5.69 10.471-9.278 15.098-3.438 4.434-7.964 7.9-12.108 11.637-4.686 4.225-9.532 7.277-15.517 9.355-5.333 1.854-10.423 4.371-15.695 6.389-5.601 2.145-11.543 3.441-17.384 4.738-12.858 2.854-25.248 8.381-38.438 9.523-.48.041-.799.92-.177.865Z"/>
    <path d="M-34.698 830.771c2.599-6.436 9.451-9.408 14.11-14.154 5.159-5.254 9.356-11.34 14.573-16.582 5.209-5.234 9.735-10.842 14.612-16.363 4.98-5.639 10.537-10.727 15.778-16.111 1.399-1.439 2.83-2.605 4.638-3.541 2.493-1.289 4.103 1.992 5.073 3.422 1.122 1.654 2.819 2.885 4.364 4.105 5.624 4.441 12.08 7.717 17.724 12.166 5.19 4.092 8.527 10.088 13.687 14.166 6.924 5.471 11.502 10.082 11.917 19.434.318 7.166.144 14.348.48 21.529.292 6.23-.062 12.594 2.352 18.445 1.59 3.855 3.638 7.045 4.126 11.355.402 3.551.041 7.18 0 10.746-.072 6.211 1.827 12.209 4.195 17.877 1.987 4.756 3.547 8.807 3.098 14.057-.359 4.203-3.038 8.443-5.247 11.957-3.483 5.537-10.514 3.689-14.403 8.682-2.543 3.264-3.342 8.037-4.229 11.963-1.479 6.547-2.863 13.117-4.301 19.674-.404 1.842-.336 3.572-.336 5.455 0 .627.748.555.748-.061 0-6.943 2.417-13.76 3.711-20.559 1.06-5.564 2.022-13.02 6.219-17.197 2.27-2.258 5.845-2.23 8.733-3.197 1.983-.664 3.269-2.494 4.443-4.098 3.363-4.596 5.542-10.078 5.544-15.766.002-6.141-3.758-11.791-5.602-17.451-2.578-7.918-1.113-15.854-2.029-23.932-.706-6.223-5.303-10.955-5.766-17.441-.544-7.637-1.082-15.43-1.083-23.08-.001-5.57 1.087-12.113-1.299-17.355-2.162-4.75-5.856-7.934-9.891-11.092-5.127-4.014-8.589-9.648-13.489-13.9-5.449-4.727-11.752-8.191-17.656-12.285-2.95-2.045-5.134-4.389-7.12-7.346-.563-.84-1.177-1.256-2.107-1.578-3.795-1.316-9.277 6.496-11.375 8.545-5.158 5.041-10.241 10.113-14.846 15.68-5.112 6.178-10.75 11.68-16.207 17.539-4.441 4.77-7.966 10.207-12.891 14.545-4.178 3.68-8.745 5.879-10.934 11.297-.196.481.44 1.055.686.45Z"/>
    <path d="M78.493 955.265c-6.187.461-12.365-1.1-18.517-.227-2.482.354-4.872 1.15-7.366 1.475-4.84.629-7.858-3.4-10.498-6.734-1.709-2.16-3.601-3.357-5.667-5.18-2.396-2.113-4.149-4.998-5.972-7.588-3.848-5.465-7.172-11.264-11.127-16.658-.338-.461-.813.398-.538.773 4.313 5.883 7.982 12.193 12.18 18.154 3.9 5.537 9.049 9.795 13.539 14.822 3.52 3.939 7.674 3.686 12.435 2.58 7.207-1.676 14.272.109 21.542-.434.475-.034.527-1.022-.011-.983ZM34.234 923.632c4.94-8.547 10.42-16.326 18.273-22.41 5.694-4.41 10.159-10.109 14.22-16 5.526-8.014 10.604-15.197 18.28-21.365 6.562-5.271 12.086-11.734 19.101-16.447.401-.27.234-1.184-.285-.836-7.455 5.006-13.409 11.875-20.39 17.482-6.225 5.002-11.268 11.205-15.531 17.918-5.471 8.615-11.755 14.719-19.378 21.334-6.236 5.412-10.805 12.77-14.896 19.848-.284.492.277 1.044.606.476Z"/>
    <path d="M104.458 847.007c.047-3.605.654-8.221-1.678-11.332-1.199-1.598-2.58-2.648-4.211-3.814-3.497-2.496-4.203-7.523-5.053-11.381-2.673-12.121-3.751-24.492-6.566-36.609-.108-.465-1.103-.541-.984-.031 2.702 11.635 4.021 23.43 6.265 35.135.782 4.076 1.545 9.27 4.47 12.385 2.167 2.309 4.17 2.674 5.888 5.816 1.51 2.764.926 6.787.886 9.801-.008.473.975.569.983.03ZM109.355 824.384c1.928 6.908 5.66 13.082 8.489 19.631 1.077 2.494 2.756 4.701 4.17 7.006 2.558 4.166 3.006 8.906 3.414 13.674.619 7.238 2.841 14.34 4.748 21.326 2.136 7.83 2.17 16.094 4.646 23.783.164.512 1.041.043.894-.412-2.295-7.131-2.128-14.791-4.161-22.031-2.455-8.746-4.65-17.375-5.533-26.428-.586-6.014-3.057-10.195-6.158-15.186-3.963-6.375-7.599-14.549-9.616-21.775-.143-.514-1.022-.049-.893.412Z"/>
    <path d="M91.751 895.236c3.478-.566 6.389-2.158 9.486-3.777 5.068-2.65 10.155-2.551 15.706-2.609 4.766-.053 9.386-1.59 14.015-2.582 5.455-1.168 10.967-2.025 16.502-2.705.476-.059.554-1.049.023-.984a210.248 210.248 0 0 0-14.72 2.34c-5.271 1.029-10.412 2.725-15.798 2.947-3.903.16-8.092-.396-11.856.941-4.565 1.621-8.48 4.654-13.335 5.445-.473.075-.548 1.068-.023.984ZM127.199 876.101c5.411-.275 10.416-2.357 15.758-3.094 6.027-.834 12.643-.09 18.729-.09.471 0 .8-.916.221-.916h-16.978c-5.985 0-11.538 2.879-17.509 3.184-.469.023-.795.945-.221.916ZM127.75 880.042c-4.027.035-7.893.658-11.795 1.617-.636.156-.069.822.426.701 3.824-.939 7.609-1.535 11.55-1.568.658-.006.378-.754-.181-.75ZM74.629 1002.36c.162-7.188 2.304-13.161 8.108-17.638 3.179-2.451 6.105-4.486 8.252-7.982 2.783-4.529 4.761-9.963 6.418-14.98 1.785-5.404 2.055-11.123 4.246-16.436.219-.529-.435-.959-.684-.355-4.815 11.68-4.245 26.453-14.241 35.656-3.641 3.352-7.551 5.283-10.184 9.662-2.154 3.584-2.576 8.176-2.667 12.243-.013.66.74.39.752-.17Z"/>
    <path d="M78.52 956.142h25.998c.649 0 .533-.77-.043-.77H78.477c-.65 0-.533.77.043.77ZM67.388 967.937c-.319 14.602-7.773 27.375-12.711 40.753-.186.5.788.7.953.25 4.963-13.446 12.436-26.286 12.757-40.954.01-.502-.988-.549-.999-.049ZM27.777 733.831c5.045 6.402 6.18 14.381 6.576 22.295.405 8.072.283 16.209.539 24.293.576 18.184-.137 36.387.267 54.572.183 8.244 1.062 16.904-4.199 23.912-5.309 7.07-15.125 9.271-23.021 11.975-7.833 2.68-14.574 7.684-22.536 10.006-4.759 1.389-10.085 2.57-13.275 6.674-.347.445.107 1.096.511.576 4.547-5.85 14.044-6.16 20.436-9.291 4.053-1.986 7.932-4.268 12.103-6.012 4.283-1.791 8.816-2.959 13.161-4.594 6.33-2.381 12.24-6.303 15.439-12.395 3.292-6.271 2.398-14.193 2.191-20.99-.594-19.496.32-39.02-.402-58.521-.519-14.02 2.142-31.457-7.157-43.256-.328-.416-.929.379-.633.756ZM86.03 800.144c4.384-.328 5.353-3.508 5.301-7.484-.107-8.209-1.11-16.443-1.194-24.684-.005-.502-1.002-.568-.997-.074.063 6.18.158 12.484.62 18.645.32 4.266 2.557 12.369-3.941 12.857-.657.048-.35.781.211.74ZM56.816 784.806c-4.968 12.408-6.339 25.719-9.181 38.684-2.939 13.41-8.583 26.197-9.954 39.936-.053.537.937.504.984.029 1.313-13.162 6.629-25.387 9.55-38.199 3.063-13.441 4.357-27.342 9.516-40.227.218-.541-.74-.661-.915-.223Z"/>
    <path d="M46.844 828.695c8.216 5.064 16.233 10.744 22.056 18.561 3.835 5.148 4.952 11.006 5.481 17.275.5 5.928 1.711 11.611 2.554 17.488.071.498 1.07.469 1-.018-.925-6.451-2.152-12.721-2.702-19.23-.399-4.73-1.38-9.453-3.924-13.535-5.701-9.143-14.742-15.521-23.767-21.084-.404-.248-1.225.218-.698.543ZM41.647 844.214c5.823 6.162 12.484 11.578 16.302 19.316 2.254 4.568 3.178 10.023 4.732 14.869 1.483 4.629 3.307 9.111 5.428 13.48.271.557.82-.211.612-.639-4.446-9.156-6.191-19.086-10.161-28.35-3.364-7.852-10.719-13.441-16.433-19.488-.395-.416-.802.472-.48.812ZM20.537 894.029c-2.296-18.506-9.266-36.82-8.393-55.666.167-3.604-.719-7.414-5.272-7.166-4.203.229-7.509.211-11.611-.82-4.229-1.062-8.857-.828-13.183-.832-.475 0-.805.941-.286.941 3.359.004 6.702.053 10.051.334 3.268.277 6.306 1.584 9.58 1.789 3.159.199 6.231-1.367 9.085.982 1.574 1.295.903 9.195 1.086 11.387 1.397 16.766 6.074 32.771 8.14 49.418.076.619.862.109.803-.367ZM12.4 666.452c5.655-4.961 9.406-11.365 14.325-16.979 3.754-4.283 5.001-10.076 6.307-15.455 3.573-14.721 10.095-27.293 20.751-38.131.339-.344-.01-1.207-.448-.762-8.799 8.949-15.123 19.154-18.962 31.113-2.16 6.73-2.922 13.951-6.42 20.191-1.818 3.244-4.837 6.059-7.053 9.08-2.718 3.705-5.486 7.143-8.949 10.18-.365.324-.021 1.175.449.763Z"/>
    <path d="M37.072 618.812c4.162.238 6.797 4.408 10.51 5.826.463.176.753-.779.282-.959-3.822-1.461-6.391-5.602-10.711-5.848-.474-.027-.62.951-.081.981ZM32.021 634.857c-4.845-1.309-8.206-5.012-12.308-7.672-4.106-2.664-8.531-4.371-12.343-7.549-8.319-6.934-16.963-13.672-22.941-22.859-.292-.449-1.005.244-.744.645 5.694 8.752 13.75 15.361 21.821 21.828 4.375 3.504 8.704 6.027 13.6 8.73 4.412 2.436 7.47 6.408 12.487 7.764.463.124.941-.749.428-.887Z"/>
  </g>
</svg>
