<svg width="90" height="90" viewBox="0 0 90 90" fill="none" xmlns="http://www.w3.org/2000/svg">
<path d="M45.0001 89.5183C44.2985 89.5183 43.6282 89.228 43.1483 88.716L36.9598 82.1139L28.6202 85.6285C27.9739 85.901 27.2433 85.8937 26.6021 85.6083C25.9612 85.3229 25.4669 84.785 25.2368 84.1224L22.2691 75.5742L13.2204 75.3938C12.5189 75.3798 11.8545 75.076 11.3849 74.5546C10.9153 74.0334 10.6827 73.341 10.742 72.642L11.5083 63.6257L3.31544 59.7816C2.68036 59.4835 2.19695 58.9359 1.98003 58.2686C1.76327 57.6014 1.8324 56.8742 2.17084 56.2599L6.53873 48.3341L0.618493 41.4907C0.159427 40.96 -0.0594025 40.2631 0.0138988 39.5656C0.0872001 38.8678 0.446216 38.2317 1.0056 37.8082L8.22021 32.3441L5.59583 23.6843C5.39235 23.0129 5.47593 22.2873 5.82676 21.6797C6.17774 21.0722 6.76433 20.6369 7.44763 20.4774L16.2604 18.4199L17.3855 9.44127C17.4729 8.74511 17.8443 8.11613 18.4121 7.70386C18.9797 7.29115 19.6934 7.13248 20.3818 7.26473L29.2707 8.96945L33.9511 1.22522C34.314 0.624884 34.9092 0.201418 35.5956 0.0554383C36.2815 -0.0903921 36.9979 0.0544049 37.5737 0.455327L45.0001 5.62671L52.4267 0.455327C53.0024 0.0544049 53.7181 -0.0902429 54.4048 0.0554383C55.0911 0.201418 55.6865 0.624589 56.0494 1.22508L60.7302 8.96945L69.6182 7.26473C70.3077 7.13263 71.0205 7.29143 71.5881 7.7037C72.1557 8.11596 72.5272 8.74511 72.6146 9.44127L73.7398 18.4199L82.5527 20.4774C83.236 20.6368 83.8228 21.072 84.1735 21.6797C84.5242 22.2873 84.6079 23.0131 84.4044 23.6845L81.7798 32.3441L88.9944 37.8082C89.5537 38.2318 89.9127 38.868 89.9861 39.5656C90.0594 40.2633 89.8405 40.9602 89.3815 41.4907L83.4612 48.3341L87.8292 56.2599C88.1678 56.8742 88.2367 57.6014 88.0199 58.2686C87.803 58.9359 87.3196 59.4835 86.6844 59.7816L78.4915 63.6257L79.2581 72.642C79.3175 73.341 79.085 74.0333 78.6154 74.5546C78.1458 75.076 77.4814 75.3798 76.7799 75.3938L67.731 75.5742L64.7636 84.1223C64.5334 84.785 64.0392 85.3229 63.3982 85.6083C62.7574 85.8937 62.0267 85.901 61.3801 85.6285L53.04 82.1139L46.8518 88.716C46.3721 89.2278 45.7018 89.5183 45.0001 89.5183ZM37.6021 76.5516C38.2898 76.5516 38.9645 76.8312 39.4546 77.3541L45.0001 83.2701L50.5453 77.3541C51.2716 76.5792 52.4039 76.3383 53.3829 76.751L60.8565 79.9004L63.5157 72.2406C63.8641 71.2371 64.8006 70.5569 65.8628 70.5356L73.9715 70.3739L73.2846 62.2943C73.1944 61.236 73.7734 60.2335 74.7353 59.7823L82.0769 56.3376L78.1628 49.2355C77.6501 48.3053 77.7712 47.1543 78.4661 46.351L83.7711 40.2187L77.3062 35.3222C76.4592 34.681 76.1017 33.5802 76.4097 32.5637L78.7616 24.8039L70.8646 22.9602C69.83 22.7187 69.0555 21.8585 68.9234 20.8047L67.9151 12.7591L59.9506 14.2865C58.9068 14.4871 57.8498 14.0161 57.3003 13.107L53.1057 6.16733L46.4506 10.8015C45.5791 11.4086 44.4215 11.4084 43.5496 10.8015L36.8949 6.16748L32.7009 13.1069C32.1515 14.0159 31.0932 14.4871 30.0507 14.2865L22.0853 12.7591L21.077 20.8047C20.9449 21.8587 20.1704 22.7187 19.1358 22.9602L11.2388 24.8039L13.5906 32.5638C13.8986 33.5803 13.5409 34.6811 12.6941 35.3222L6.22911 40.2187L11.5341 46.351C12.2291 47.1543 12.3502 48.3053 11.8375 49.2355L7.92342 56.3376L15.265 59.7823C16.2266 60.2335 16.8054 61.2359 16.7157 62.2943L16.029 70.3739L24.1375 70.5356C25.1995 70.5569 26.1362 71.2371 26.4845 72.2404L29.1439 79.9004L36.6171 76.751C36.9355 76.6169 37.2703 76.5516 37.6021 76.5516Z" fill="white"/>
<path d="M29.0527 35.9951L30.0945 40.0965L33.5946 39.2359V55.1993H38.4799V34.1729H35.1578L29.0527 35.9951Z" fill="white"/>
<path d="M51.6266 33.9688C46.2189 33.9688 42.2939 38.5067 42.2939 44.7592C42.2939 47.7505 43.1925 50.4748 44.8238 52.43C46.5026 54.4419 48.8978 55.5497 51.5683 55.5497C56.976 55.5497 60.901 51.0117 60.901 44.7592C60.901 38.5067 57.0006 33.9688 51.6266 33.9688ZM55.8404 44.7592C55.8404 48.5187 54.1469 51.0445 51.6266 51.0445C49.1113 51.0445 47.3547 48.4598 47.3547 44.7592C47.3547 40.9997 49.0481 38.474 51.5684 38.474C54.0438 38.474 55.8404 41.1173 55.8404 44.7592Z" fill="white"/>
<path d="M44.9995 73.5444C29.1244 73.5444 16.209 60.6313 16.209 44.7589C16.209 28.8867 29.1244 15.9736 44.9995 15.9736C60.8746 15.9736 73.7899 28.8867 73.7899 44.7589C73.7898 60.6313 60.8746 73.5444 44.9995 73.5444ZM44.9995 21.0487C31.9232 21.0487 21.2848 31.6851 21.2848 44.7591C21.2848 57.8331 31.9232 68.4696 44.9995 68.4696C58.0758 68.4696 68.7141 57.8331 68.7141 44.7591C68.7141 31.6851 58.0758 21.0487 44.9995 21.0487Z" fill="white"/>
</svg>
