<svg width="90" height="88" viewBox="0 0 90 88" fill="none" xmlns="http://www.w3.org/2000/svg">
<path d="M68.2884 8.84741L67.2539 13.3673C74.834 14.4373 81.3979 19.1001 84.1125 26.2448C86.8273 33.3894 85.0157 41.2347 80.0593 47.0693L83.8341 49.762C89.7059 42.6298 91.685 33.1092 88.4506 24.5965C85.2162 16.0838 77.4143 10.2796 68.2884 8.84741Z" fill="white"/>
<path d="M65.9116 17.5321L60.3873 2.99243C59.7538 1.32517 58.2205 0.168671 56.442 0.0170495C55.7354 -0.0438035 55.0402 0.0598072 54.4011 0.302782C53.4337 0.670381 52.5976 1.35713 52.0522 2.28233L37.7826 26.4741L11.1068 36.6097C2.73448 39.7909 -1.48846 49.1892 1.69268 57.5617C4.87382 65.934 14.2722 70.157 22.6445 66.9758L25.1142 66.0374L44.0331 85.6263C44.9201 86.5453 46.1491 87.0579 47.4273 87.042C47.9773 87.0349 48.5154 86.9315 49.02 86.7399C49.6866 86.4866 50.2937 86.0808 50.7864 85.5442L57.8141 77.9098C59.4787 76.1023 59.4454 73.3101 57.7382 71.543L45.0878 58.4484L49.3202 56.8402L76.0538 65.4528C77.0753 65.7811 78.1587 65.7401 79.1245 65.3731C79.7636 65.1302 80.3523 64.7459 80.8402 64.2312C82.0693 62.9369 82.4477 61.054 81.8142 59.3869L76.2899 44.8472C80.5201 40.407 82.0305 33.8246 79.7768 27.8931C77.5232 21.9615 72.023 18.043 65.9116 17.5321ZM23.1653 61.8135L20.9962 62.6376C15.0069 64.9134 8.3064 61.9027 6.03061 55.9133C3.75497 49.9238 6.76581 43.2233 12.7551 40.9477L14.9242 40.1234L23.1653 61.8135ZM54.3981 74.7679L47.3704 82.4024L29.8342 64.244L40.3698 60.241L54.3981 74.7679ZM77.4765 61.0349L49.1935 51.9241L27.5034 60.1653L19.2621 38.4753L40.9522 30.234L56.0493 4.64071L77.4765 61.0349ZM74.3797 39.8193L67.8218 22.5598C71.1955 23.5432 74.0942 26.0029 75.4387 29.5413C76.7827 33.0782 76.2492 36.8437 74.3797 39.8193Z" fill="white"/>
</svg>
