<svg width="70" height="70" viewBox="0 0 70 70" fill="none" xmlns="http://www.w3.org/2000/svg">
<path d="M35 70C25.6511 70 16.8619 66.3595 10.2513 59.7487C3.64067 53.1381 0 44.3489 0 35C0 25.6511 3.64067 16.8619 10.2513 10.2513C16.8619 3.64067 25.6511 0 35 0C44.3489 0 53.1381 3.64067 59.7487 10.2513C66.3595 16.8619 70 25.6511 70 35C70 44.3489 66.3595 53.1381 59.7487 59.7487C53.1381 66.3595 44.3489 70 35 70ZM35 3.9924C17.9023 3.9924 3.9924 17.9023 3.9924 35C3.9924 52.0977 17.9023 66.0076 35 66.0076C52.0977 66.0076 66.0076 52.0977 66.0076 35C66.0076 17.9023 52.0976 3.9924 35 3.9924Z" fill="white"/>
<path d="M30.3896 17.9059V16.8699H39.6102V17.9059L37.1755 40.8015H32.8243L30.3896 17.9059ZM30.8041 44.8421H39.1958V53.13H30.8041V44.8421Z" fill="white"/>
</svg>
