<svg width="73" height="74" viewBox="0 0 73 74" fill="none" xmlns="http://www.w3.org/2000/svg">
<path d="M69.3307 32.0016V14.596C69.3307 9.59685 58.931 7.29799 49.2612 7.29799C46.2054 7.28617 43.1539 7.53029 40.1388 8.02783V7.29799C40.1388 2.29886 29.7392 0 20.0695 0C10.3996 0 0 2.29886 0 7.29799V62.0327C0 67.0318 10.3996 69.3307 20.0695 69.3307C23.5354 69.3367 26.9937 69.0068 30.396 68.3455C42.9136 76.7805 59.8992 73.4709 68.3342 60.9533C74.1742 52.287 74.561 41.0489 69.3307 32.0016ZM57.9823 21.2372C60.6458 20.8857 63.2413 20.1353 65.6816 19.0113V27.0755C63.4792 24.691 60.8728 22.7145 57.9823 21.2372ZM20.0695 14.596C25.6849 14.8026 31.2805 13.8202 36.4899 11.7133V18.245C36.1979 19.2667 30.7244 21.894 20.0695 21.894C9.41437 21.894 3.9409 19.2303 3.64905 18.245V11.7133C8.85826 13.8202 14.454 14.8026 20.0695 14.596ZM19.8505 36.4899C18.9558 38.8292 18.4147 41.2889 18.2449 43.7879C8.75755 43.4959 3.83143 41.124 3.64905 40.1388V33.6071C8.79258 35.6766 14.3089 36.6582 19.8505 36.4899ZM3.64905 51.0857V44.5541C8.2714 46.4856 13.2354 47.466 18.2449 47.4368C18.42 49.9281 18.9357 52.3835 19.7775 54.7348C9.34146 54.7348 3.9409 52.071 3.64905 51.0857ZM21.456 32.8409H20.0695C9.41437 32.8409 3.9409 30.1772 3.64905 29.192V22.6603C8.85826 24.7672 14.454 25.7496 20.0695 25.5429C22.5828 25.552 25.094 25.3935 27.5863 25.0686C25.0893 27.2669 23.0121 29.9004 21.456 32.8409ZM49.2612 10.947C59.9528 10.947 65.4262 13.6108 65.6816 14.596C65.937 15.5812 59.9528 18.2449 49.2612 18.2449C46.2041 18.2518 43.152 17.9956 40.1388 17.4786V11.7132C43.1521 11.1964 46.2042 10.94 49.2612 10.947ZM20.0695 3.64905C30.6514 3.64905 36.1249 6.27632 36.4899 7.29799C36.1249 8.28322 31.0164 10.728 21.2006 10.9469H20.0695C9.41437 10.9469 3.9409 8.28322 3.64905 7.29799C3.9409 6.31277 9.41437 3.64905 20.0695 3.64905ZM20.0695 65.6817C9.41437 65.6817 3.9409 63.0179 3.64905 62.0327V55.5011C8.85826 57.6079 14.454 58.5903 20.0695 58.3837H21.4195C22.7714 60.942 24.5202 63.2698 26.6011 65.2803C24.4341 65.5472 22.2528 65.6812 20.0695 65.6817ZM45.6123 69.3307C32.513 69.3307 21.8939 58.7116 21.8939 45.6123C21.8939 32.5131 32.513 21.8939 45.6123 21.8939C58.7115 21.894 69.3307 32.5131 69.3307 45.6123C69.3107 58.7033 58.7032 69.3105 45.6123 69.3307Z" fill="white"/>
<path d="M37.7228 33.3081H47.5521C53.3571 33.3081 57.0254 36.6201 57.0254 41.7128C57.0254 47.3042 52.538 50.2245 47.0534 50.2245H42.1031V58.2376H37.7227V33.3081H37.7228ZM47.1959 46.2715C50.5081 46.2715 52.5736 44.4197 52.5736 41.7486C52.5736 38.8282 50.4726 37.297 47.1959 37.297H42.1032V46.2715H47.1959Z" fill="white"/>
<path d="M52.8267 52.1479H34.1631V55.8583H52.8267V52.1479Z" fill="white"/>
</svg>
