<svg width="100%" height="100%" viewBox="0 0 64 75" fill="none" xmlns="http://www.w3.org/2000/svg">
<path d="M49.8743 74.52H6.95913C3.12194 74.52 0 71.3982 0 67.5609V6.95913C0 3.12194 3.12182 0 6.95913 0H49.8743C53.7116 0 56.8335 3.12194 56.8335 6.95913V46.6699H52.9424V6.95913C52.9424 5.26746 51.5657 3.89108 49.8743 3.89108H6.95913C5.26746 3.89108 3.89108 5.26734 3.89108 6.95913V67.561C3.89108 69.2528 5.26734 70.629 6.95913 70.629H49.8743C51.5661 70.629 52.9424 69.2528 52.9424 67.561V45.6022H56.8335V67.5609C56.8333 71.3982 53.7116 74.52 49.8743 74.52Z" fill="white"/>
<path d="M46.5767 15.859H10.26C9.18546 15.859 8.31445 14.988 8.31445 13.9134C8.31445 12.8389 9.18546 11.9679 10.26 11.9679H46.5767C47.6506 11.9679 48.5222 12.8389 48.5222 13.9134C48.5222 14.988 47.6512 15.859 46.5767 15.859Z" fill="white"/>
<path d="M46.5767 27.5323H10.26C9.18546 27.5323 8.31445 26.6613 8.31445 25.5868C8.31445 24.5122 9.18546 23.6412 10.26 23.6412H46.5767C47.6506 23.6412 48.5222 24.5122 48.5222 25.5868C48.5222 26.6613 47.6512 27.5323 46.5767 27.5323Z" fill="white"/>
<path d="M46.5767 39.2055H10.26C9.18546 39.2055 8.31445 38.3344 8.31445 37.26C8.31445 36.1855 9.18546 35.3145 10.26 35.3145H46.5767C47.6506 35.3145 48.5222 36.1855 48.5222 37.26C48.5222 38.3344 47.6512 39.2055 46.5767 39.2055Z" fill="white"/>
<path d="M26.9512 50.8787H10.26C9.18546 50.8787 8.31445 50.0076 8.31445 48.9332C8.31445 47.8588 9.18546 46.9877 10.26 46.9877H26.9512C28.0251 46.9877 28.8967 47.8588 28.8967 48.9332C28.8967 50.0076 28.0256 50.8787 26.9512 50.8787Z" fill="white"/>
<path d="M26.9512 62.552H10.26C9.18546 62.552 8.31445 61.6808 8.31445 60.6064C8.31445 59.532 9.18546 58.6609 10.26 58.6609H26.9512C28.0251 58.6609 28.8967 59.532 28.8967 60.6064C28.8967 61.6808 28.0256 62.552 26.9512 62.552Z" fill="white"/>
<path d="M46.8523 62.43C46.2561 62.43 45.6834 62.1954 45.2578 61.7764L36.0469 52.7051C35.1529 51.8244 35.142 50.3862 36.0222 49.4922C36.9029 48.5983 38.3412 48.5871 39.2351 49.4676L46.7868 56.9052L59.848 42.9733C60.7063 42.0573 62.144 42.011 63.0599 42.8695C63.9754 43.7273 64.0217 45.1656 63.1632 46.0809L48.5093 61.7116C48.0906 62.1583 47.5093 62.4172 46.897 62.4297C46.8826 62.4299 46.8672 62.43 46.8523 62.43Z" fill="white"/>
</svg>
