<svg width="100%" height="100%" viewBox="0 0 82 85" fill="none" xmlns="http://www.w3.org/2000/svg">
<path d="M11.4137 61.4599C7.65761 61.4599 4.60156 58.4039 4.60156 54.6477V35.3778C4.60156 31.6217 7.65747 28.5657 11.4137 28.5657C15.17 28.5657 18.2259 31.6216 18.2259 35.3778V54.6477C18.2258 58.4039 15.1698 61.4599 11.4137 61.4599ZM11.4137 33.5049C10.381 33.5049 9.54076 34.345 9.54076 35.3778V54.6477C9.54076 55.6804 10.381 56.5207 11.4137 56.5207C12.4465 56.5207 13.2867 55.6806 13.2867 54.6477V35.3778C13.2866 34.345 12.4465 33.5049 11.4137 33.5049Z" fill="white"/>
<path d="M3.63177 55.645C1.62601 55.645 0 54.019 0 52.0132V38.0119C0 36.0061 1.62601 34.3801 3.63177 34.3801C5.63752 34.3801 7.26353 36.0061 7.26353 38.0119V52.0132C7.26353 54.019 5.63752 55.645 3.63177 55.645Z" fill="white"/>
<path d="M70.0387 61.4599C66.2826 61.4599 63.2266 58.4039 63.2266 54.6477V35.3778C63.2266 31.6217 66.2825 28.5657 70.0387 28.5657C73.795 28.5657 76.8509 31.6216 76.8509 35.3778V54.6477C76.8508 58.4039 73.7948 61.4599 70.0387 61.4599ZM70.0387 33.5049C69.006 33.5049 68.1658 34.345 68.1658 35.3778V54.6477C68.1658 55.6804 69.006 56.5207 70.0387 56.5207C71.0715 56.5207 71.9117 55.6806 71.9117 54.6477V35.3778C71.9116 34.345 71.0715 33.5049 70.0387 33.5049Z" fill="white"/>
<path d="M77.8193 55.6451C75.8135 55.6451 74.1875 54.0191 74.1875 52.0134V38.012C74.1875 36.0063 75.8135 34.3802 77.8193 34.3802C79.825 34.3802 81.451 36.0063 81.451 38.012V52.0134C81.451 54.0191 79.825 55.6451 77.8193 55.6451Z" fill="white"/>
<path d="M47.4748 84.2001H33.4735C31.2671 84.2001 29.4785 82.4115 29.4785 80.2051C29.4785 77.9988 31.2671 76.2102 33.4735 76.2102H47.4748C49.6812 76.2102 51.4697 77.9988 51.4697 80.2051C51.4697 82.4115 49.6812 84.2001 47.4748 84.2001Z" fill="white"/>
<path d="M70.0948 33.4197C68.7308 33.4197 67.6252 32.314 67.6252 30.9501C67.6252 16.6076 55.9567 4.9392 41.6143 4.9392H39.7586C25.4162 4.9392 13.7478 16.6076 13.7478 30.9501C13.7478 32.314 12.6421 33.4197 11.2782 33.4197C9.91425 33.4197 8.80859 32.314 8.80859 30.9501C8.80859 13.8841 22.6927 0 39.7586 0H41.6143C58.6803 0 72.5644 13.8841 72.5644 30.9501C72.5644 32.314 71.4587 33.4197 70.0948 33.4197Z" fill="white"/>
<path d="M56.3793 41.2565C51.1471 41.2565 46.1152 40.3628 41.3929 38.5922C37.1234 36.9914 33.1055 34.6769 29.4508 31.7129C23.2284 26.6662 20.205 21.4767 20.0794 21.2582C19.3992 20.0759 19.8064 18.5663 20.9886 17.8861C22.1692 17.2071 23.6768 17.6121 24.3581 18.791C24.3863 18.8395 27.1431 23.5251 32.7109 27.9969C40.077 33.9134 48.6579 36.6984 58.2184 36.2765C59.5815 36.2153 60.7344 37.2722 60.7946 38.6345C60.8549 39.9971 59.7991 41.1506 58.4365 41.2108C57.7477 41.2413 57.0616 41.2565 56.3793 41.2565Z" fill="white"/>
<path d="M23.2699 41.7799C22.2903 41.7799 21.3634 41.1932 20.9767 40.2282C20.4701 38.9639 21.0827 37.5283 22.3454 37.0193C22.4328 36.9834 27.5958 34.8352 30.7079 30.3613C31.4868 29.2419 33.0258 28.9654 34.1456 29.7444C35.2653 30.5232 35.5415 32.0623 34.7627 33.1819C30.7746 38.9149 24.4549 41.495 24.1877 41.6019C23.8867 41.7225 23.5757 41.7799 23.2699 41.7799Z" fill="white"/>
<path d="M50.2669 81.8885C49.234 81.8885 48.2713 81.2355 47.9252 80.202C47.4923 78.9087 48.1899 77.5093 49.4833 77.0762C55.9252 74.9201 60.6921 71.2532 63.6515 66.1775C65.8789 62.357 66.211 59.1041 66.2141 59.0715C66.33 57.7125 67.5225 56.7087 68.8843 56.8271C70.2433 56.943 71.2503 58.1447 71.1344 59.5039C71.12 59.6727 70.7505 63.692 68.0592 68.4213C65.607 72.7303 60.6656 78.5423 51.0512 81.7602C50.7911 81.847 50.5267 81.8885 50.2669 81.8885Z" fill="white"/>
</svg>
