<svg width="100%" height="100%" viewBox="0 0 64 88" fill="none" xmlns="http://www.w3.org/2000/svg">
<path d="M61.6751 87.2326C60.3911 87.2326 59.3503 86.192 59.3503 84.9083V21.4843L42.5117 4.64876H4.64958V84.9083C4.64958 86.192 3.60876 87.2326 2.32479 87.2326C1.04082 87.2326 0 86.192 0 84.9083V2.32438C0 1.04064 1.04082 0 2.32479 0H43.4747C44.0913 0 44.6826 0.244881 45.1186 0.680771L63.3191 18.8779C63.7551 19.3138 64 19.9052 64 20.5215V84.9083C63.9999 86.192 62.959 87.2326 61.6751 87.2326Z" fill="white"/>
<path d="M59.4881 23.5171H42.5308C41.2469 23.5171 40.2061 22.4765 40.2061 21.1928V3.96501C40.2061 2.68126 41.2469 1.64062 42.5308 1.64062C43.8148 1.64062 44.8556 2.68126 44.8556 3.96501V18.8684H59.4881C60.7721 18.8684 61.8129 19.909 61.8129 21.1928C61.8129 22.4765 60.7721 23.5171 59.4881 23.5171Z" fill="white"/>
<path d="M2.32484 87.1491C1.72969 87.1491 1.13494 86.9221 0.680924 86.4683C-0.226975 85.5606 -0.226975 84.089 0.680924 83.1812L6.55445 77.3087C7.46249 76.401 8.93421 76.401 9.84225 77.3087C10.7501 78.2165 10.7501 79.6881 9.84225 80.5958L3.96874 86.4683C3.51486 86.9221 2.91971 87.1491 2.32484 87.1491Z" fill="white"/>
<path d="M14.1956 87.1487C13.6004 87.1487 13.0057 86.9219 12.5517 86.4679L6.58339 80.5007C5.67535 79.593 5.67535 78.1214 6.58325 77.2136C7.49115 76.3059 8.96315 76.3056 9.87105 77.2136L14.1956 81.5371L18.4252 77.3082C19.3332 76.4005 20.805 76.4005 21.713 77.3082C22.6209 78.216 22.6209 79.6876 21.713 80.5953L15.8395 86.4678C15.3854 86.9217 14.7904 87.1487 14.1956 87.1487Z" fill="white"/>
<path d="M26.0646 87.1486C25.4696 87.1486 24.8747 86.9218 24.4207 86.4678L18.4524 80.5006C17.5445 79.5929 17.5445 78.1213 18.4524 77.2135C19.3604 76.3058 20.8322 76.3058 21.7402 77.2135L26.0645 81.537L30.2945 77.3081C31.2024 76.4003 32.6743 76.4003 33.582 77.3081C34.49 78.2159 34.4899 79.6875 33.582 80.5952L27.7085 86.4677C27.2546 86.9216 26.6596 87.1486 26.0646 87.1486Z" fill="white"/>
<path d="M37.9349 87.1487C37.3398 87.1487 36.745 86.9219 36.2909 86.4679L30.3225 80.5007C29.4146 79.593 29.4146 78.1214 30.3225 77.2136C31.2304 76.3059 32.7023 76.3056 33.6102 77.2136L37.9347 81.5371L42.1645 77.3082C43.0724 76.4005 44.5442 76.4005 45.4521 77.3082C46.3602 78.216 46.3602 79.6876 45.4521 80.5953L39.5786 86.4678C39.1247 86.9217 38.5297 87.1487 37.9349 87.1487Z" fill="white"/>
<path d="M49.8059 87.1486C49.2109 87.1486 48.616 86.9216 48.162 86.4678L42.1937 80.5006C41.2857 79.5929 41.2857 78.1213 42.1937 77.2135C43.1016 76.3058 44.5735 76.3058 45.4814 77.2135L49.8058 81.537L54.0355 77.3081C54.9434 76.4004 56.4153 76.4004 57.3232 77.3081C58.2312 78.2159 58.2312 79.6875 57.3232 80.5952L51.4497 86.4677C50.9958 86.9216 50.4008 87.1486 49.8059 87.1486Z" fill="white"/>
<path d="M61.6742 87.1487C61.0792 87.1487 60.4843 86.9219 60.0303 86.4679L54.0618 80.5007C53.1539 79.593 53.1538 78.1214 54.0618 77.2136C54.9697 76.3059 56.4416 76.3056 57.3495 77.2136L63.3179 83.1809C64.226 84.0886 64.226 85.5602 63.3179 86.4679C62.8642 86.9217 62.2692 87.1487 61.6742 87.1487Z" fill="white"/>
<path d="M33.2749 52.6356C40.1266 52.6356 45.7323 48.9881 45.7323 42.0044C45.7323 35.6437 41.1497 31.5068 33.898 31.5068H21.6187V55.0379H17.1748V59.6722H21.6187V62.6441H27.091V59.6722H40.49V55.0379H27.091V52.6357L33.2749 52.6356ZM27.0911 36.4891H33.453C37.5465 36.4891 40.1709 38.4016 40.1709 42.0493C40.1709 45.3852 37.5907 47.6981 33.453 47.6981H27.0911V36.4891Z" fill="white"/>
</svg>
