<svg width="100%" height="100%" viewBox="0 0 64 86" fill="none" xmlns="http://www.w3.org/2000/svg">
<path d="M31.9896 85.0558C31.5477 85.0558 31.1058 84.9293 30.7206 84.6762L14.1417 73.7816C14.0795 73.7407 14.0194 73.6969 13.9614 73.6501C6.14189 67.353 2.76838 59.7774 1.31535 54.531C-0.155623 49.2203 -0.0158932 45.1756 0.0210783 44.4924V12.8659C0.0210783 11.8885 0.636137 11.0168 1.55703 10.689L31.2148 0.133767C31.7158 -0.0445663 32.2629 -0.0445662 32.7638 0.133631L62.4425 10.6888C63.3636 11.0164 63.979 11.8882 63.979 12.8659V44.4924C64.0158 45.1755 64.1557 49.2202 62.6848 54.531C61.2318 59.7774 57.8583 67.353 50.039 73.6501C49.9805 73.6972 49.92 73.7412 49.8575 73.7824L33.2575 84.677C32.8725 84.9294 32.4309 85.0558 31.9896 85.0558ZM16.7744 69.9816L31.9904 79.9806L47.2263 69.9811C52.6369 65.5969 56.3222 60.0442 58.1813 53.4749C59.5913 48.4924 59.3654 44.7561 59.363 44.719C59.3597 44.6686 59.3575 44.6115 59.3575 44.5608V14.4966L31.9898 4.76335L4.64251 14.4962V44.561C4.64251 44.6159 4.64061 44.6709 4.63667 44.7256C4.63463 44.7564 4.40872 48.4926 5.8188 53.475C7.67784 60.0442 11.3638 65.5973 16.7744 69.9816Z" fill="white"/>
<path d="M29.3387 53C28.6465 53 27.981 52.7329 27.4869 52.2552L16.7873 41.9136C15.7488 40.9098 15.736 39.2697 16.7588 38.2507C17.7816 37.2316 19.4525 37.2189 20.491 38.2227L29.2633 46.7016L44.4352 30.8188C45.4322 29.775 47.1022 29.7221 48.1658 30.7006C49.2293 31.679 49.2831 33.3182 48.2861 34.3617L31.2641 52.1813C30.7778 52.6904 30.1024 52.9855 29.3914 52.9994C29.3739 52.9998 29.3562 53 29.3387 53Z" fill="white"/>
</svg>
