<svg width="80" height="80" viewBox="0 0 80 80" fill="none" xmlns="http://www.w3.org/2000/svg">
<path d="M77.0004 40.2411C76.3624 40.2411 75.7235 40.0072 75.2228 39.5353L39.7966 6.15402L4.37057 39.5353C3.3285 40.5171 1.6877 40.4686 0.705868 39.4268C-0.276112 38.385 -0.227615 36.7443 0.814453 35.7627L38.0185 0.705822C39.017 -0.235274 40.5762 -0.235274 41.5746 0.705822L78.7789 35.7627C79.821 36.7443 79.8695 38.385 78.8875 39.4268C78.3775 39.9679 77.6895 40.2411 77.0004 40.2411Z" fill="white"/>
<path d="M11.5779 31.2569C10.1461 31.2569 8.98535 30.0964 8.98535 28.6648V5.65243C8.98535 4.22081 10.1461 3.0603 11.5779 3.0603H24.6697C26.1016 3.0603 27.2623 4.22081 27.2623 5.65243V15.7206C27.2623 17.1522 26.1016 18.3127 24.6697 18.3127C23.2379 18.3127 22.0772 17.1522 22.0772 15.7206V8.24456H14.1705V28.6648C14.1705 30.0962 13.0097 31.2569 11.5779 31.2569Z" fill="white"/>
<path d="M67.5818 79.9998H47.3621C45.9302 79.9998 44.7695 78.8392 44.7695 77.4076V54.3345H34.3898V77.4076C34.3898 78.8392 33.2291 79.9998 31.7972 79.9998H11.5779C10.1461 79.9998 8.98535 78.8392 8.98535 77.4076V39.6192C8.98535 38.1876 10.1461 37.0271 11.5779 37.0271C13.0098 37.0271 14.1705 38.1876 14.1705 39.6192V74.8153H29.2048V51.7422C29.2048 50.3106 30.3655 49.1501 31.7974 49.1501H47.3622C48.7941 49.1501 49.9548 50.3106 49.9548 51.7422V74.8153H64.9894V39.6192C64.9894 38.1876 66.1501 37.0271 67.582 37.0271C69.0138 37.0271 70.1745 38.1876 70.1745 39.6192V77.4075C70.1744 78.8391 69.0137 79.9998 67.5818 79.9998Z" fill="white"/>
</svg>
