<svg width="100%" height="100%" viewBox="0 0 68 75" fill="none" xmlns="http://www.w3.org/2000/svg">
<path d="M49.8721 74.5168H6.95883C3.1218 74.5168 0 71.3951 0 67.5579V6.95883C0 3.1218 3.12169 0 6.95883 0H49.8721C53.7093 0 56.8311 3.12169 56.8311 6.95883V24.3771H52.9401V6.95883C52.9401 5.26723 51.5638 3.89091 49.8721 3.89091H6.95883C5.26723 3.89091 3.89091 5.26711 3.89091 6.95883V67.5579C3.89091 69.2496 5.26711 70.6259 6.95883 70.6259H49.8721C51.5638 70.6259 52.9401 69.2496 52.9401 67.5579V45.6002H56.8311V67.5579C56.8308 71.3951 53.7093 74.5168 49.8721 74.5168Z" fill="white"/>
<path d="M46.5731 15.8587H10.258C9.18347 15.8587 8.3125 14.9877 8.3125 13.9132C8.3125 12.8387 9.18347 11.9678 10.258 11.9678H46.5731C47.6473 11.9678 48.5185 12.8387 48.5185 13.9132C48.5185 14.9877 47.6476 15.8587 46.5731 15.8587Z" fill="white"/>
<path d="M46.5731 27.5315H10.258C9.18347 27.5315 8.3125 26.6606 8.3125 25.5861C8.3125 24.5116 9.18347 23.6406 10.258 23.6406H46.5731C47.6473 23.6406 48.5185 24.5116 48.5185 25.5861C48.5185 26.6606 47.6476 27.5315 46.5731 27.5315Z" fill="white"/>
<path d="M46.5731 39.2039H10.258C9.18347 39.2039 8.3125 38.3328 8.3125 37.2584C8.3125 36.184 9.18347 35.313 10.258 35.313H46.5731C47.6473 35.313 48.5185 36.184 48.5185 37.2584C48.5185 38.3328 47.6476 39.2039 46.5731 39.2039Z" fill="white"/>
<path d="M30.4494 50.8767H10.258C9.18347 50.8767 8.3125 50.0057 8.3125 48.9313C8.3125 47.8569 9.18347 46.9858 10.258 46.9858H30.4494C31.5236 46.9858 32.3949 47.8569 32.3949 48.9313C32.3949 50.0057 31.5239 50.8767 30.4494 50.8767Z" fill="white"/>
<path d="M30.4494 62.5496H10.258C9.18347 62.5496 8.3125 61.6785 8.3125 60.6041C8.3125 59.5298 9.18347 58.6587 10.258 58.6587H30.4494C31.5236 58.6587 32.3949 59.5298 32.3949 60.6041C32.3949 61.6785 31.5239 62.5496 30.4494 62.5496Z" fill="white"/>
<path d="M38.8625 64.8076C38.5331 64.8076 38.2055 64.724 37.9118 64.5595C37.4211 64.2847 37.0733 63.8109 36.9582 63.2603C36.9404 63.1749 36.5186 61.1448 36.2705 58.7839C35.7788 54.1068 36.4095 52.3995 36.9265 51.5221L54.6454 21.4598C55.891 19.3466 58.1901 18.0337 60.6452 18.0337C61.883 18.0337 63.1033 18.3672 64.1739 18.9984L64.5763 19.2355C67.8817 21.1839 68.9859 25.4584 67.0377 28.7639L49.3188 58.8262C48.8114 59.6869 47.6624 61.0562 43.5591 63.0024C41.4764 63.9903 39.5968 64.6655 39.5178 64.6938C39.3051 64.77 39.0833 64.8076 38.8625 64.8076ZM60.6452 21.9247C59.5614 21.9247 58.5467 22.5036 57.9975 23.4356L40.2786 53.4978C40.2562 53.5359 39.7332 54.4755 40.137 58.347C40.204 58.9906 40.2865 59.613 40.3692 60.1707C40.8512 59.9652 41.3799 59.7303 41.9191 59.4741C45.2967 57.8687 45.9082 56.9501 45.9668 56.8506L63.6858 26.7884C64.5447 25.331 64.0579 23.4465 62.6006 22.5876L62.1984 22.3505C61.7257 22.0719 61.1886 21.9247 60.6452 21.9247Z" fill="white"/>
<path d="M47.2995 58.9697C46.9637 58.9697 46.6237 58.8827 46.3136 58.6999L38.1875 53.9104C37.2618 53.3648 36.9537 52.1722 37.4992 51.2465C38.0449 50.3206 39.2375 50.013 40.1631 50.5583L48.2892 55.3479C49.2149 55.8934 49.523 57.086 48.9774 58.0117C48.6146 58.6272 47.9658 58.9697 47.2995 58.9697Z" fill="white"/>
</svg>
