<svg width="100%" height="100%" viewBox="0 0 84 72" fill="none" xmlns="http://www.w3.org/2000/svg">
<path d="M65.6142 16.7055H31.1586C29.9287 16.7055 28.9316 15.7085 28.9316 14.4786C28.9316 13.2486 29.9287 12.2516 31.1586 12.2516H65.6142C66.8442 12.2516 67.8412 13.2486 67.8412 14.4786C67.8412 15.7085 66.8442 16.7055 65.6142 16.7055Z" fill="white"/>
<path d="M65.6142 27.2391H31.1586C29.9287 27.2391 28.9316 26.2421 28.9316 25.0121C28.9316 23.7822 29.9287 22.7852 31.1586 22.7852H65.6142C66.8442 22.7852 67.8412 23.7822 67.8412 25.0121C67.8412 26.2421 66.8442 27.2391 65.6142 27.2391Z" fill="white"/>
<path d="M65.6142 37.7722H31.1586C29.9287 37.7722 28.9316 36.7752 28.9316 35.5452C28.9316 34.3153 29.9287 33.3182 31.1586 33.3182H65.6142C66.8442 33.3182 67.8412 34.3153 67.8412 35.5452C67.8412 36.7752 66.8442 37.7722 65.6142 37.7722Z" fill="white"/>
<path d="M81.5051 58.788C81.1717 58.788 80.8363 58.7132 80.5249 58.5606L63.7034 50.3113L24.0395 50.3111C20.8137 50.3111 18.1895 47.6868 18.1895 44.4611V5.84999C18.1895 2.62429 20.8137 0 24.0395 0H72.7351C75.9608 0 78.5851 2.62429 78.5851 5.84999V37.4075L83.6538 55.9744C83.8844 56.8189 83.5989 57.72 82.9242 58.2775C82.5168 58.6143 82.0132 58.788 81.5051 58.788ZM24.0395 4.45395C23.2697 4.45395 22.6434 5.08025 22.6434 5.84999V44.4611C22.6434 45.2309 23.2697 45.8572 24.0395 45.8572L64.2201 45.8573C64.56 45.8573 64.8954 45.9351 65.2006 46.0847L78.0583 52.3902L74.2098 38.2927C74.1576 38.1014 74.1311 37.9043 74.1311 37.7061V5.84987C74.1311 5.08012 73.5048 4.45382 72.7351 4.45382L24.0395 4.45395Z" fill="white"/>
<path d="M2.22742 71.9999C1.72438 71.9999 1.22515 71.8298 0.819185 71.4985C0.130657 70.9366 -0.157931 70.0193 0.0848092 69.1646L4.94996 52.035V29.5317C4.94996 26.5238 7.39701 24.0768 10.4047 24.0768H20.0272C21.2572 24.0768 22.2542 25.0738 22.2542 26.3038C22.2542 27.5337 21.2572 28.5307 20.0272 28.5307H10.4047C9.85297 28.5307 9.4039 28.9798 9.4039 29.5317V52.3451C9.4039 52.5507 9.37534 52.7556 9.31915 52.9535L5.77826 65.4208L16.9649 59.6145C17.2818 59.45 17.6336 59.3642 17.9909 59.3642H53.7884C54.3403 59.3642 54.7892 58.9151 54.7892 58.3632V48.6294C54.7892 47.3995 55.7863 46.4024 57.0162 46.4024C58.2461 46.4024 59.2432 47.3995 59.2432 48.6294V58.3632C59.2432 61.3711 56.7961 63.8181 53.7884 63.8181H18.5342L3.25301 71.7497C2.92944 71.9175 2.57745 71.9999 2.22742 71.9999Z" fill="white"/>
</svg>
