<svg width="100%" height="100%" viewBox="0 0 80 78" fill="none" xmlns="http://www.w3.org/2000/svg">
<path d="M42.9576 43.9641L34.7002 43.9319L34.6684 52.0875L42.9258 52.1197L42.9576 43.9641Z" fill="white"/>
<path d="M42.1707 36.8742L41.5979 39.9814L36.3987 39.9613L35.2584 31.6994L35.5141 31.4454C41.9379 31.2155 44.4415 29.543 44.4524 26.74C44.4612 24.4459 42.7331 23.1142 39.7764 23.1028C36.9224 23.0921 34.4711 24.255 32.1177 26.5903L27.4482 21.4241C30.4173 18.1733 34.4014 15.9462 39.9574 15.9672C47.2968 15.9957 52.2772 19.7869 52.2511 26.6682C52.226 33.141 47.7309 35.7742 42.1707 36.8742Z" fill="white"/>
<path d="M72.5135 77.7069C72.8717 77.7069 73.2308 77.616 73.5547 77.4324C74.2611 77.0321 74.6755 76.2625 74.6207 75.4523L73.1806 54.1391C77.6452 48.3966 80 41.704 80 34.7309C80 25.3935 75.7983 16.6338 68.1687 10.0653C60.6296 3.57465 50.6257 0 40.0001 0C29.3743 0 19.3704 3.57465 11.8313 10.0653C4.20171 16.6336 0 25.3935 0 34.7309C0 44.0683 4.20171 52.828 11.8313 59.3965C19.3704 65.8872 29.3743 69.4617 40.0001 69.4617C45.5278 69.4617 50.8658 68.5047 55.8849 66.6155L71.3084 77.3295C71.6693 77.5802 72.0908 77.7069 72.5135 77.7069ZM40.0002 4.22441C59.7269 4.22441 75.7757 17.9095 75.7757 34.7309C75.7757 40.9883 73.5648 47.0043 69.3818 52.1282C69.0429 52.5434 68.8745 53.0716 68.9106 53.6064L70.1097 71.3531L57.3697 62.5033C56.7831 62.0957 56.0304 62.0121 55.3688 62.2815C50.547 64.2427 45.3762 65.2373 40.0001 65.2373C20.2732 65.2373 4.22441 51.5521 4.22441 34.7309C4.22455 17.9095 20.2735 4.22441 40.0002 4.22441Z" fill="white"/>
</svg>
