<svg width="57" height="86" viewBox="0 0 57 86" fill="none" xmlns="http://www.w3.org/2000/svg">
<path d="M28.9565 86C44.4197 86 57 73.4197 57 57.9565C57 42.4934 44.4197 29.9131 28.9565 29.9131C13.4934 29.9131 0.913074 42.4934 0.913074 57.9565C0.913074 73.4197 13.4932 86 28.9565 86ZM28.9565 34.9465C41.6444 34.9465 51.9666 45.2687 51.9666 57.9565C51.9666 70.6444 41.6443 80.9666 28.9565 80.9666C16.2688 80.9666 5.94652 70.6444 5.94652 57.9565C5.94652 45.2687 16.2687 34.9465 28.9565 34.9465Z" fill="white"/>
<path d="M9.59914 38.9013H14.6326V19.3567C14.6326 11.4588 21.058 5.03344 28.9557 5.03344C36.8537 5.03344 43.2791 11.4588 43.2791 19.3567V38.6137H48.3125V19.3567C48.3125 8.68341 39.6291 0 28.9557 0C18.2824 0 9.59914 8.68341 9.59914 19.3567V38.9013Z" fill="white"/>
<path d="M28.8666 72.477C32.4753 72.477 35.4112 69.541 35.4112 65.9323V62.229C37.4998 60.3705 38.7178 57.6958 38.7178 54.8683C38.7178 49.4363 34.2986 45.0171 28.8666 45.0171C23.4347 45.0171 19.0154 49.4363 19.0154 54.8683C19.0154 57.6953 20.2334 60.3702 22.322 62.2289V65.9323C22.3221 69.541 25.2581 72.477 28.8666 72.477ZM28.8666 49.3315C31.9196 49.3315 34.4034 51.8153 34.4034 54.8683C34.4034 56.679 33.5132 58.3792 32.0221 59.4165L31.0969 60.0602V65.9323C31.0969 67.1621 30.0964 68.1626 28.8666 68.1626C27.6369 68.1626 26.6364 67.1621 26.6364 65.9323V60.0603L25.7111 59.4166C24.22 58.379 23.3297 56.6789 23.3297 54.8683C23.3298 51.8154 25.8138 49.3315 28.8666 49.3315Z" fill="white"/>
</svg>
