<svg width="100%" height="100%" viewBox="0 0 73 85" fill="none" xmlns="http://www.w3.org/2000/svg">
<path d="M66.7645 23.1274H48.1481C46.9024 23.1274 45.8926 22.1176 45.8926 20.8719V2.25548C45.8926 1.00979 46.9024 0 48.1481 0H66.7645C68.0102 0 69.02 1.00979 69.02 2.25548V20.8719C69.02 22.1176 68.0102 23.1274 66.7645 23.1274ZM50.4035 18.6165H64.509V4.51096H50.4035V18.6165Z" fill="white"/>
<path d="M20.8717 53.0968H2.25548C1.00979 53.0968 0 52.087 0 50.8413V32.2248C0 30.9792 1.00979 29.9694 2.25548 29.9694H20.8717C22.1173 29.9694 23.1271 30.9792 23.1271 32.2248V50.8413C23.1271 52.087 22.1173 53.0968 20.8717 53.0968ZM4.51096 48.5858H18.6162V34.4803H4.51096V48.5858Z" fill="white"/>
<path d="M11.7418 30.1021C10.4961 30.1021 9.48633 29.0923 9.48633 27.8466V11.2616C9.48633 10.0159 10.4961 9.0061 11.7418 9.0061H47.2377C48.4834 9.0061 49.4932 10.0159 49.4932 11.2616C49.4932 12.5073 48.4834 13.5171 47.2377 13.5171H13.9973V27.8466C13.9973 29.0923 12.9874 30.1021 11.7418 30.1021Z" fill="white"/>
<path d="M39.0779 71.8972H11.8024C10.5567 71.8972 9.54688 70.8874 9.54688 69.6417V51.8697C9.54688 50.624 10.5567 49.6143 11.8024 49.6143C13.048 49.6143 14.0578 50.624 14.0578 51.8697V67.3862H39.0779C40.3235 67.3862 41.3333 68.396 41.3333 69.6417C41.3333 70.8874 40.3235 71.8972 39.0779 71.8972Z" fill="white"/>
<path d="M57.3599 84.843C49.15 84.843 42.4707 78.1638 42.4707 69.9538C42.4707 61.7437 49.15 55.0643 57.3599 55.0643C65.57 55.0643 72.2494 61.7437 72.2494 69.9538C72.2492 78.1638 65.57 84.843 57.3599 84.843ZM57.3599 59.5754C51.6374 59.5754 46.9817 64.2313 46.9817 69.9539C46.9817 75.6765 51.6374 80.3322 57.3599 80.3322C63.0826 80.3322 67.7384 75.6765 67.7384 69.9539C67.7383 64.2313 63.0826 59.5754 57.3599 59.5754Z" fill="white"/>
<path d="M11.6896 30.0286C11.1123 30.0286 10.5352 29.8083 10.0947 29.368L1.63533 20.9086C0.754369 20.0278 0.754369 18.5998 1.63533 17.719C2.51616 16.8381 3.94415 16.8381 4.82498 17.719L11.6895 24.5833L18.5539 17.719C19.4348 16.8381 20.8628 16.8381 21.7436 17.719C22.6245 18.5998 22.6245 20.0278 21.7436 20.9086L13.2842 29.368C12.844 29.8083 12.2669 30.0286 11.6896 30.0286Z" fill="white"/>
<path d="M32.1365 80.4315C31.5592 80.4315 30.9821 80.2113 30.5416 79.771C29.6606 78.8901 29.6606 77.4621 30.5416 76.5813L37.4059 69.7168L30.5416 62.8523C29.6606 61.9715 29.6606 60.5435 30.5416 59.6627C31.4224 58.7819 32.8504 58.7819 33.7312 59.6627L42.1906 68.1221C43.0716 69.0029 43.0716 70.4309 42.1906 71.3117L33.7312 79.7711C33.2909 80.2113 32.7137 80.4315 32.1365 80.4315Z" fill="white"/>
</svg>
