<svg width="54" height="54" viewBox="0 0 54 54" fill="none" xmlns="http://www.w3.org/2000/svg">
<path d="M27.0007 53.6572C19.8777 53.6572 13.1811 50.8839 8.14448 45.8481C3.10783 40.8123 0.333984 34.1169 0.333984 26.9953C0.333984 19.8736 3.10783 13.1782 8.14448 8.14243C13.1811 3.10666 19.8777 0.333313 27.0007 0.333313C34.1236 0.333313 40.8202 3.10666 45.8568 8.14243C50.8936 13.1782 53.6673 19.8736 53.6673 26.9953C53.6673 34.1169 50.8936 40.8123 45.8568 45.8481C40.8202 50.8839 34.1236 53.6572 27.0007 53.6572ZM27.0007 3.3746C13.9738 3.3746 3.37581 13.9707 3.37581 26.9953C3.37581 40.0198 13.9738 50.6159 27.0007 50.6159C40.0275 50.6159 50.6255 40.0198 50.6255 26.9953C50.6255 13.9707 40.0274 3.3746 27.0007 3.3746Z" fill="white"/>
<path d="M35.2668 41.144C34.9844 41.144 34.7011 41.0746 34.4432 40.9344L26.8054 36.7794L19.0523 40.7145C18.4671 41.0114 17.7644 40.9504 17.2391 40.5573C16.7137 40.1642 16.4573 39.507 16.5775 38.862L18.1698 30.3155L12.0304 24.159C11.5673 23.6945 11.4079 23.0073 11.6195 22.3863C11.8312 21.7654 12.377 21.3184 13.0277 21.2334L21.6494 20.1061L25.6088 12.3657C25.9037 11.7891 26.4969 11.4271 27.1433 11.4271C27.1516 11.4271 27.1598 11.4272 27.1681 11.4273C27.8242 11.4367 28.418 11.8177 28.6999 12.4099L32.4361 20.2604L41.0223 21.6331C41.6702 21.7367 42.2031 22.1991 42.3969 22.8259C42.5908 23.4526 42.4118 24.135 41.9355 24.5861L35.6228 30.5648L36.956 39.065C36.9801 39.1797 36.9927 39.2987 36.9927 39.4206C36.9927 40.3711 36.223 41.1419 35.2727 41.144C35.2709 41.144 35.2688 41.144 35.2668 41.144ZM26.8332 33.1091C27.117 33.1091 27.4004 33.1791 27.657 33.3187L33.0231 36.2378L32.0766 30.2038C31.9888 29.6435 32.1822 29.0757 32.5941 28.6856L37.0289 24.4853L30.9967 23.5208C30.4365 23.4312 29.9562 23.0717 29.7125 22.5596L27.0876 17.0443L24.306 22.4822C24.0477 22.987 23.5573 23.3327 22.9948 23.4062L16.9376 24.1981L21.2508 28.5235C21.6513 28.9252 21.8286 29.4982 21.7247 30.0559L20.6061 36.0602L26.0529 33.2957C26.2982 33.1713 26.5658 33.1091 26.8332 33.1091Z" fill="white"/>
</svg>
