<svg width="77" height="85" viewBox="0 0 77 85" fill="none" xmlns="http://www.w3.org/2000/svg">
<path d="M16.572 40.4633H2.40637C1.07763 40.4633 0 39.411 0 38.1135C0 36.8161 1.07763 35.7638 2.40637 35.7638H16.5733C17.902 35.7638 18.9797 36.8161 18.9797 38.1135C18.9797 39.411 17.9008 40.4633 16.572 40.4633Z" fill="white"/>
<path d="M16.572 61.4903H2.40637C1.07763 61.4903 0 60.438 0 59.1405C0 57.843 1.07763 56.7908 2.40637 56.7908H16.5733C17.902 56.7908 18.9797 57.843 18.9797 59.1405C18.9797 60.438 17.9008 61.4903 16.572 61.4903Z" fill="white"/>
<path d="M22.7901 50.9773H8.62317C7.29443 50.9773 6.2168 49.9251 6.2168 48.6276C6.2168 47.3289 7.29443 46.2778 8.62317 46.2778H22.7901C24.1188 46.2778 25.1965 47.3301 25.1965 48.6276C25.1965 49.9238 24.1188 50.9773 22.7901 50.9773Z" fill="white"/>
<path d="M41.536 57.6703C37.1132 57.6703 33.5156 54.044 33.5156 49.5848C33.5156 45.1268 37.1145 41.4993 41.536 41.4993C45.9576 41.4993 49.5564 45.1255 49.5564 49.5848C49.5564 54.044 45.9588 57.6703 41.536 57.6703ZM41.536 46.1988C39.7669 46.1988 38.3284 47.718 38.3284 49.5848C38.3284 51.4527 39.7669 52.9708 41.536 52.9708C43.3051 52.9708 44.7449 51.4527 44.7449 49.5848C44.7449 47.718 43.3051 46.1988 41.536 46.1988Z" fill="white"/>
<path d="M41.5358 75.8891C34.7117 75.8891 28.2749 73.2092 23.4105 68.3446C22.4817 67.4155 22.4994 65.9283 23.4508 65.0214C24.401 64.1158 25.9253 64.133 26.8528 65.0621C30.805 69.0136 36.019 71.1909 41.5358 71.1909C53.1386 71.1909 62.5799 61.4986 62.5799 49.5848C62.5799 37.6722 53.1399 27.9799 41.5358 27.9799C35.8562 27.9799 30.5324 30.268 26.5449 34.4229C25.6364 35.3705 24.1133 35.4185 23.1442 34.5314C22.1738 33.6442 22.1246 32.157 23.0332 31.2094C27.9405 26.0959 34.5111 23.2792 41.5358 23.2792C55.7936 23.2792 67.3926 35.0797 67.3926 49.5835C67.3926 64.0899 55.7936 75.8891 41.5358 75.8891Z" fill="white"/>
<path d="M61.3482 25.7855C60.8157 25.7855 60.2795 25.6142 59.834 25.2606C55.6055 21.9128 50.5783 19.7848 45.2949 19.1084C43.9775 18.9396 43.05 17.7592 43.2216 16.4728C43.3945 15.1864 44.6021 14.2795 45.9207 14.4483C52.0875 15.2394 57.9463 17.7148 62.8663 21.6097C63.8985 22.4279 64.0562 23.9065 63.2196 24.9144C62.7439 25.4886 62.0498 25.7855 61.3482 25.7855Z" fill="white"/>
<path d="M17.1181 30.2276C16.5755 30.2276 16.0291 30.0489 15.5799 29.6842C14.5578 28.8537 14.4202 27.3726 15.2695 26.3746C20.722 19.9784 28.2351 15.7792 36.4233 14.5507C37.7356 14.3535 38.966 15.2333 39.1679 16.516C39.3685 17.7987 38.4675 18.9988 37.1539 19.196C30.1279 20.2507 23.6697 23.8684 18.968 29.3823C18.4923 29.9393 17.8083 30.2276 17.1181 30.2276Z" fill="white"/>
<path d="M41.5365 84.9998C31.1753 84.9998 21.4287 80.3447 14.7951 72.2271C13.9661 71.213 14.1364 69.7344 15.1749 68.9237C16.2134 68.1154 17.7277 68.2817 18.5567 69.2958C24.2717 76.2896 32.6466 80.3015 41.5352 80.3015C58.0567 80.3015 71.4968 66.5222 71.4968 49.5848C71.4968 42.4911 69.2053 35.8288 64.8695 30.3185C64.0594 29.2897 64.2588 27.8148 65.3125 27.0237C66.3674 26.2327 67.8765 26.4261 68.6867 27.455C73.6029 33.7033 76.3096 41.5621 76.3096 49.5848C76.3096 59.0256 72.707 67.9047 66.1629 74.5892C59.5924 81.3021 50.8452 84.9998 41.5365 84.9998Z" fill="white"/>
<path d="M45.4229 47.7169C44.8072 47.7169 44.1901 47.4865 43.7207 47.0282C42.7806 46.1114 42.7806 44.623 43.7207 43.7062L50.8035 36.7888C51.7436 35.8709 53.2667 35.8709 54.2068 36.7888C55.1456 37.7068 55.1456 39.194 54.2068 40.112L47.1227 47.0282C46.6545 47.4878 46.0375 47.7169 45.4229 47.7169Z" fill="white"/>
<path d="M66.848 31.1852C66.2158 31.1852 65.5862 30.9449 65.113 30.4656C64.1931 29.5304 64.2208 28.0432 65.1786 27.1437L70.2513 22.3776C70.5074 22.1213 70.6462 21.785 70.6462 21.4276C70.6462 21.0641 70.5024 20.7216 70.2386 20.4641C69.6948 19.933 68.8102 19.933 68.2676 20.4641C68.2563 20.4752 68.2449 20.4863 68.2348 20.4961L63.1419 25.2806C62.1842 26.1801 60.6611 26.1518 59.74 25.2166C58.8201 24.2813 58.8478 22.7941 59.8068 21.8946L64.8833 17.1237C67.3048 14.7788 71.2292 14.785 73.6431 17.1409C74.8154 18.2856 75.4602 19.8086 75.4602 21.4276C75.4602 23.0467 74.8142 24.5684 73.6431 25.7131C73.6318 25.7242 73.6204 25.7341 73.6103 25.7452L68.5175 30.5297C68.0493 30.9671 67.4474 31.1852 66.848 31.1852Z" fill="white"/>
<path d="M45.4248 19.1294C44.0947 19.1294 43.0184 18.0772 43.0184 16.7797V9.77234C43.0184 8.47487 44.096 7.42259 45.4248 7.42259H46.4607C47.2292 7.42259 47.8551 6.81144 47.8551 6.06105C47.8551 5.31065 47.2292 4.6995 46.4607 4.6995H35.7501C34.9803 4.6995 34.3557 5.31065 34.3557 6.06105C34.3557 6.81144 34.9816 7.42259 35.7501 7.42259H37.1318C38.4605 7.42259 39.5382 8.47487 39.5382 9.77234V16.7797C39.5382 18.0772 38.4605 19.1294 37.1318 19.1294C35.8031 19.1294 34.7254 18.0772 34.7254 16.7797V12.0395C31.7878 11.5615 29.543 9.06261 29.543 6.06105C29.543 2.7194 32.3279 0 35.7501 0H46.4607C49.8829 0 52.6678 2.7194 52.6678 6.06105C52.6678 8.94309 50.5959 11.3631 47.8299 11.973V16.7785C47.8299 18.0772 46.7535 19.1294 45.4248 19.1294Z" fill="white"/>
</svg>
