<svg xmlns="http://www.w3.org/2000/svg" viewBox="0 0 917 176" fill="#fff"><path d="M86 19c9 0 16 0 23 1 6 1 11 2 15 5 3 2 6 5 8 9 1 4 2 9 2 16v21c0 6-1 11-2 15-2 4-5 7-8 9-4 3-9 5-15 5-6 1-14 1-23 1H58v49l13 15v2H8v-2l12-15V36L8 21v-2h78zm0 66c3 0 4 0 5-1 2 0 2-1 3-2 2-1 2-5 2-11V50c0-6 0-10-2-12-1-1-1-1-3-2H58v49h28zm56 45c0-5 1-9 2-12 2-3 4-5 6-7 4-2 8-4 12-4 5-1 11-1 18-1h24V93c0-3-1-5-1-7-1-1-2-3-3-3-2-1-4-1-8-1h-11v14h-35v-7c0-8 1-13 4-16 4-3 7-5 12-6s11-1 19-1h11c9 0 16 0 22 1 6 0 11 2 15 4 6 4 10 11 10 22v57l10 15v2h-69c-7 0-13 0-18-1-4 0-8-2-12-4-2-2-4-4-6-7-1-3-2-7-2-12v-13zm38-7c-1 0-2 0-2 1-1 1-1 3-1 6v13c0 3 0 5 1 6 0 1 1 1 2 1h24v-27h-24zM261 9h46v88l23-15-5-15v-1h46v1l-10 15-33 22 49 46 10 15v2h-66v-2l6-15-20-19v19l8 15v2h-54v-2l11-15V25l-11-15zm204 57c11 0 20 1 26 2 6 2 10 5 13 10s5 13 5 24v48l10 15v2h-57v-2l11-15v-48c0-9 0-14-1-17-1-1-2-2-3-2-1-1-2-1-4-1h-22v68l12 15v2h-58v-2l11-15V25l-11-15V9h46v57h22zm62 36c0-11 2-19 5-24s8-8 14-10c6-1 15-2 26-2h16c8 0 15 0 21 1 5 1 10 3 14 6 3 3 6 6 7 11 2 4 2 10 2 18v29c0 8 0 14-2 18-1 4-4 8-7 11-4 3-9 5-14 6-6 0-13 1-21 1h-16c-11 0-20-1-26-3-6-1-11-5-14-10s-5-13-5-23v-29zm35 29c0 8 1 13 2 16l3 3h25c2-1 2-2 3-3 1-2 2-8 2-16v-29c0-9-1-14-2-16-1-3-4-4-7-4h-16c-4 0-6 1-8 3-1 4-2 9-2 17v29zm152-65v16h-26v57c0 4 0 7 1 9 0 2 2 2 3 2h19v17h-19c-7 0-13 0-18-1s-9-3-13-5c-3-2-5-5-6-9-2-4-2-9-2-15V82l-16-15v-1h16V35h35v31h26zm22-49h31v30h-31V17zm33 133 11 15v2h-57v-2l11-15V82l-11-15v-1h46v84zm89-84c11 0 19 1 25 2 6 2 11 5 14 10s4 13 4 24v48l11 15v2h-58v-2l12-15v-48c0-9-1-14-2-17-1-1-1-2-2-2-1-1-2-1-4-1h-23v68l12 15v2h-57v-2l10-15V82l-10-15v-1h68z"></path></svg>
