<svg width="100" height="100" viewBox="0 0 102 102" fill="none" xmlns="http://www.w3.org/2000/svg">
<path d="M51 1C23.382 1 1 23.386 1 51C1 78.613 23.382 101 51 101C78.617 101 101 78.613 101 51C101 23.385 78.617 1 51 1Z" stroke="#A2A9AD" stroke-miterlimit="10"/>
<path d="M72.7957 77.334C72.7957 80.853 69.9437 83.705 66.4247 83.705C62.9057 83.705 60.0537 80.853 60.0537 77.334C60.0537 71.206 66.4247 63.803 66.4247 63.803C66.4247 63.803 72.7957 71.57 72.7957 77.334Z" stroke="#398281" stroke-width="3.5" stroke-miterlimit="10"/>
<path d="M72.9689 57.373H59.5329V49.499L40.2219 49.528C29.7739 49.528 26.8179 44.319 26.8179 37.677L26.7939 37.107V25.337H40.2299L40.2089 36.093L59.4519 36.094C67.9099 36.094 72.9699 41.155 72.9699 50.092L72.9689 57.373Z" stroke="#398281" stroke-width="3.5" stroke-miterlimit="10"/>
<path d="M23.1968 25.295H43.9478" stroke="#398281" stroke-width="3.5" stroke-miterlimit="10"/>
<path d="M49.749 32.534V53.285" stroke="#398281" stroke-width="3.5" stroke-miterlimit="10"/>
</svg>
