<svg width="100" height="100" viewBox="0 0 102 102" fill="none" xmlns="http://www.w3.org/2000/svg">
<path d="M51 1C23.383 1 1 23.386 1 51C1 78.613 23.383 101 51 101C78.617 101 101 78.613 101 51C101 23.386 78.617 1 51 1Z" stroke="#A2A9AD" stroke-miterlimit="10"/>
<path d="M38.8722 44.575H14.6182V57.427H38.8722V44.575Z" stroke="#398281" stroke-width="3.5" stroke-miterlimit="10"/>
<path d="M63.1261 44.575H38.8721V57.427H63.1261V44.575Z" stroke="#398281" stroke-width="3.5" stroke-miterlimit="10"/>
<path d="M51.0001 31.748H26.7461V44.601H51.0001V31.748Z" stroke="#398281" stroke-width="3.5" stroke-miterlimit="10"/>
<path d="M51.0001 57.402H26.7461V70.254H51.0001V57.402Z" stroke="#398281" stroke-width="3.5" stroke-miterlimit="10"/>
<path d="M75.255 31.748H51V44.601H75.255V31.748Z" stroke="#398281" stroke-width="3.5" stroke-miterlimit="10"/>
<path d="M75.255 57.402H51V70.254H75.255V57.402Z" stroke="#398281" stroke-width="3.5" stroke-miterlimit="10"/>
<path d="M81.1639 31.748H63.7939C63.7939 31.748 56.9819 34.394 59.2629 45.114C60.3419 50.185 58.8729 53.553 53.1139 57.09C46.9639 60.866 46.9639 70.254 46.9639 70.254H81.1649L81.1639 31.748Z" fill="white" stroke="#398281" stroke-width="3.5" stroke-miterlimit="10"/>
<path d="M74.0073 41.192C75.0881 41.192 75.9643 40.3158 75.9643 39.235C75.9643 38.1542 75.0881 37.278 74.0073 37.278C72.9265 37.278 72.0503 38.1542 72.0503 39.235C72.0503 40.3158 72.9265 41.192 74.0073 41.192Z" fill="#398281"/>
<path d="M74.0073 52.547C75.0881 52.547 75.9643 51.6708 75.9643 50.59C75.9643 49.5092 75.0881 48.633 74.0073 48.633C72.9265 48.633 72.0503 49.5092 72.0503 50.59C72.0503 51.6708 72.9265 52.547 74.0073 52.547Z" fill="#398281"/>
<path d="M74.0073 63.902C75.0881 63.902 75.9643 63.0258 75.9643 61.945C75.9643 60.8642 75.0881 59.988 74.0073 59.988C72.9265 59.988 72.0503 60.8642 72.0503 61.945C72.0503 63.0258 72.9265 63.902 74.0073 63.902Z" fill="#398281"/>
<path d="M59.8921 63.902C60.9729 63.902 61.8491 63.0258 61.8491 61.945C61.8491 60.8642 60.9729 59.988 59.8921 59.988C58.8112 59.988 57.9351 60.8642 57.9351 61.945C57.9351 63.0258 58.8112 63.902 59.8921 63.902Z" fill="#398281"/>
<path d="M66.9492 46.801C68.03 46.801 68.9062 45.9248 68.9062 44.844C68.9062 43.7632 68.03 42.887 66.9492 42.887C65.8684 42.887 64.9922 43.7632 64.9922 44.844C64.9922 45.9248 65.8684 46.801 66.9492 46.801Z" fill="#398281"/>
<path d="M66.9492 58.157C68.03 58.157 68.9062 57.2808 68.9062 56.2C68.9062 55.1192 68.03 54.243 66.9492 54.243C65.8684 54.243 64.9922 55.1192 64.9922 56.2C64.9922 57.2808 65.8684 58.157 66.9492 58.157Z" fill="#398281"/>
</svg>
