<svg width="100" height="100" viewBox="0 0 102 102" fill="none" xmlns="http://www.w3.org/2000/svg">
<path d="M51 1C23.382 1 1 23.386 1 51C1 78.613 23.382 101 51 101C78.617 101 101 78.613 101 51C101 23.385 78.617 1 51 1Z" stroke="#A1A9AC" stroke-miterlimit="10"/>
<path d="M54.5297 72.657H47.4697V76.157H54.5297V72.657Z" fill="#398281"/>
<path d="M43.3378 72.657H36.2769V76.157H43.3378V72.657Z" fill="#398281"/>
<path d="M43.3378 25.843H36.2769V29.343H43.3378V25.843Z" fill="#398281"/>
<path d="M54.5297 25.843H47.4697V29.343H54.5297V25.843Z" fill="#398281"/>
<path d="M29.3418 36.277H25.8418V43.338H29.3418V36.277Z" fill="#398281"/>
<path d="M69.8569 29.343H72.6579V32.144H76.1579V25.843H69.8569V29.343Z" fill="#398281"/>
<path d="M29.3418 47.47H25.8418V54.53H29.3418V47.47Z" fill="#398281"/>
<path d="M29.3418 58.662H25.8418V65.723H29.3418V58.662Z" fill="#398281"/>
<path d="M76.1577 58.662H72.6577V65.723H76.1577V58.662Z" fill="#398281"/>
<path d="M32.1438 72.657H29.3418V69.856H25.8418V76.157H32.1438V72.657Z" fill="#398281"/>
<path d="M72.6579 69.856V72.657H69.8569V76.157H76.1579V69.856H72.6579Z" fill="#398281"/>
<path d="M29.3418 32.144V29.343H32.1438V25.843H25.8418V32.144H29.3418Z" fill="#398281"/>
<path d="M65.7236 25.843H58.6626V29.343H65.7236V25.843Z" fill="#398281"/>
<path d="M65.7236 72.657H58.6626V76.157H65.7236V72.657Z" fill="#398281"/>
<path d="M76.1577 47.47H72.6577V54.53H76.1577V47.47Z" fill="#398281"/>
<path d="M76.1577 36.277H72.6577V43.338H76.1577V36.277Z" fill="#398281"/>
<path d="M41.4932 59.699L44.0892 56.612C46.4392 58.647 48.7902 59.804 51.8412 59.804C54.5072 59.804 56.1912 58.576 56.1912 56.647C56.1912 54.893 55.2092 53.946 50.6482 52.858C45.4212 51.63 42.4752 50.087 42.4752 45.491C42.4752 41.282 45.9832 38.37 50.8592 38.37C54.4372 38.37 57.2782 39.457 59.7692 41.457L57.4542 44.72C55.2442 43.071 53.0342 42.194 50.7892 42.194C48.2632 42.194 46.7902 43.492 46.7902 45.176C46.7902 47.07 47.9132 47.912 52.6132 49.034C57.8052 50.297 60.5062 52.157 60.5062 56.296C60.5062 60.892 56.8932 63.628 51.7362 63.628C47.9832 63.628 44.4402 62.33 41.4932 59.699Z" fill="#398281"/>
</svg>
