<svg width="100" height="100" viewBox="0 0 102 102" fill="none" xmlns="http://www.w3.org/2000/svg">
<path d="M51 1C23.383 1 1 23.386 1 51C1 78.613 23.383 101 51 101C78.617 101 101 78.613 101 51C101 23.386 78.617 1 51 1Z" stroke="#A2A9AD" stroke-miterlimit="10"/>
<path d="M74.4068 27.592H27.5908V74.408H74.4068V27.592Z" stroke="#398281" stroke-width="3.5" stroke-miterlimit="10"/>
<path d="M65.4478 47.551H36.5508V65.448H65.4478V47.551Z" stroke="#398281" stroke-width="3.5" stroke-miterlimit="10"/>
<path d="M34.9741 41.551H67.2411" stroke="#398281" stroke-width="3.5" stroke-miterlimit="10"/>
<path d="M36.9301 37.149C38.011 37.149 38.8871 36.2728 38.8871 35.192C38.8871 34.1112 38.011 33.235 36.9301 33.235C35.8493 33.235 34.9731 34.1112 34.9731 35.192C34.9731 36.2728 35.8493 37.149 36.9301 37.149Z" fill="#398281"/>
<path d="M43.5049 37.149C44.5857 37.149 45.4619 36.2728 45.4619 35.192C45.4619 34.1112 44.5857 33.235 43.5049 33.235C42.424 33.235 41.5479 34.1112 41.5479 35.192C41.5479 36.2728 42.424 37.149 43.5049 37.149Z" fill="#398281"/>
<path d="M50.0791 37.149C51.1599 37.149 52.0361 36.2728 52.0361 35.192C52.0361 34.1112 51.1599 33.235 50.0791 33.235C48.9982 33.235 48.1221 34.1112 48.1221 35.192C48.1221 36.2728 48.9982 37.149 50.0791 37.149Z" fill="#398281"/>
<path d="M56.6538 37.149C57.7346 37.149 58.6108 36.2728 58.6108 35.192C58.6108 34.1112 57.7346 33.235 56.6538 33.235C55.573 33.235 54.6968 34.1112 54.6968 35.192C54.6968 36.2728 55.573 37.149 56.6538 37.149Z" fill="#398281"/>
<path d="M65.2841 37.149C66.365 37.149 67.2411 36.2728 67.2411 35.192C67.2411 34.1112 66.365 33.235 65.2841 33.235C64.2033 33.235 63.3271 34.1112 63.3271 35.192C63.3271 36.2728 64.2033 37.149 65.2841 37.149Z" fill="#398281"/>
</svg>
