<svg width="100" height="100" viewBox="0 0 102 102" fill="none" xmlns="http://www.w3.org/2000/svg">
<path d="M51 1C23.382 1 1 23.386 1 51C1 78.613 23.382 101 51 101C78.617 101 101 78.613 101 51C101 23.385 78.618 1 51 1Z" stroke="#A2A9AD" stroke-miterlimit="10"/>
<path d="M36.0522 47.3538H39.7333V49.1938C40.5813 48.1038 41.6953 47.1108 43.5593 47.1108C45.2543 47.1108 46.5382 47.8608 47.2162 49.1688C48.3542 47.8368 49.7103 47.1108 51.4783 47.1108C54.2143 47.1108 55.8613 48.7568 55.8613 51.8818V60.3328H52.1803V53.0918C52.1803 51.3488 51.4053 50.4528 50.0253 50.4528C48.6453 50.4528 47.7973 51.3488 47.7973 53.0918V60.3328H44.1163V53.0918C44.1163 51.3488 43.3412 50.4528 41.9612 50.4528C40.5802 50.4528 39.7323 51.3488 39.7323 53.0918V60.3328H36.0513L36.0522 47.3538Z" fill="#398281"/>
<path d="M62.4571 49.0019L63.8371 47.9369C65.9131 46.3299 66.8911 45.3569 66.8911 43.3949C66.8911 41.1319 65.2821 39.6689 62.7921 39.6689C60.6261 39.6689 59.5101 40.5979 58.4101 42.0959L58.2971 42.2499L60.3471 43.9019L60.4731 43.7469C61.3531 42.6649 61.8971 42.3009 62.6311 42.3009C63.4581 42.3009 63.9511 42.7769 63.9511 43.5729C63.9511 44.4249 63.4581 44.9849 62.0671 46.1349L58.2251 49.2839V51.5519H67.0031V48.9999H62.4571V49.0019Z" fill="#398281"/>
<path d="M74.4772 27.7139H27.6611V74.5299H74.4772V27.7139Z" stroke="#398281" stroke-width="3.5" stroke-miterlimit="10"/>
</svg>
